<svg id="Calque_1" data-name="Calque 1" xmlns="http://www.w3.org/2000/svg" xmlns:xlink="http://www.w3.org/1999/xlink" viewBox="0 0 1190.55 841.89"><defs><style>.cls-1{fill:none;}.cls-2{clip-path:url(#clip-path);}.cls-23,.cls-3{font-size:35px;}.cls-3,.cls-35{font-family:GTAmerica-Bold, GT America;font-weight:700;}.cls-4{letter-spacing:-0.01em;}.cls-5{letter-spacing:-0.01em;}.cls-6{letter-spacing:0em;}.cls-7{letter-spacing:0em;}.cls-8{letter-spacing:0.01em;}.cls-9{letter-spacing:0em;}.cls-10{letter-spacing:-0.01em;}.cls-11{letter-spacing:0.02em;}.cls-12{letter-spacing:-0.02em;}.cls-13{font-size:30px;}.cls-13,.cls-23{font-family:GTAmerica-Light, GT America;font-weight:300;}.cls-14{letter-spacing:-0.01em;}.cls-15{letter-spacing:-0.01em;}.cls-16{letter-spacing:-0.01em;}.cls-17{letter-spacing:-0.03em;}.cls-18{letter-spacing:0em;}.cls-19{letter-spacing:-0.03em;}.cls-20{letter-spacing:-0.03em;}.cls-21{letter-spacing:0em;}.cls-22{letter-spacing:-0.02em;}.cls-24{letter-spacing:0.01em;}.cls-25{letter-spacing:0.02em;}.cls-26{letter-spacing:0em;}.cls-27{letter-spacing:-0.01em;}.cls-28{letter-spacing:-0.01em;}.cls-29{letter-spacing:0em;}.cls-30{letter-spacing:-0.01em;}.cls-31{clip-path:url(#clip-path-3);}.cls-32{opacity:0.8;}.cls-33{clip-path:url(#clip-path-4);}.cls-34{fill:#f59e00;}.cls-35{font-size:36px;fill:#fff;}.cls-36{letter-spacing:0em;}.cls-37{letter-spacing:-0.04em;}.cls-38{clip-path:url(#clip-path-6);}.cls-39{fill:#a8ba00;}.cls-40{letter-spacing:-0.01em;}.cls-41{letter-spacing:0em;}.cls-42{letter-spacing:-0.01em;}.cls-43{clip-path:url(#clip-path-8);}.cls-44{fill:#008ea5;}.cls-45{letter-spacing:0.01em;}.cls-46{letter-spacing:-0.01em;}.cls-47{clip-path:url(#clip-path-10);}.cls-48{fill:#ffce00;}.cls-49{clip-path:url(#clip-path-11);}.cls-50{clip-path:url(#clip-path-13);}.cls-51{clip-path:url(#clip-path-15);}.cls-52{clip-path:url(#clip-path-17);}</style><clipPath id="clip-path"><rect class="cls-1" width="1190.55" height="841.89"/></clipPath><clipPath id="clip-path-3"><rect class="cls-1" width="1190.55" height="841.89"/></clipPath><clipPath id="clip-path-4"><rect class="cls-1" x="66.59" y="550.91" width="230.6" height="135.56"/></clipPath><clipPath id="clip-path-6"><rect class="cls-1" x="224.86" y="667.65" width="230.6" height="135.56"/></clipPath><clipPath id="clip-path-8"><rect class="cls-1" x="428.02" y="593.44" width="230.6" height="135.56"/></clipPath><clipPath id="clip-path-10"><rect class="cls-1" x="258.87" y="490.13" width="133.74" height="85.39"/></clipPath><clipPath id="clip-path-11"><rect class="cls-1" x="962.34" y="376.4" width="185.02" height="119.68"/></clipPath><clipPath id="clip-path-13"><rect class="cls-1" x="894.11" y="323.24" width="99.75" height="70.3"/></clipPath><clipPath id="clip-path-15"><rect class="cls-1" x="951.95" y="226.86" width="219.25" height="112.88"/></clipPath><clipPath id="clip-path-17"><rect class="cls-1" x="769.55" y="87.96" width="240.08" height="164.3"/></clipPath></defs><g class="cls-2"><g class="cls-2"><text class="cls-3" transform="translate(306.35 315.19)">S<tspan class="cls-4" x="21.91" y="0">E</tspan><tspan class="cls-5" x="43.12" y="0">C</tspan><tspan x="67.83" y="0">TEUR D</tspan><tspan class="cls-6" x="194.28" y="0">E</tspan><tspan class="cls-7" x="215.81" y="0">S SEMAI</tspan><tspan class="cls-8" x="358.47" y="0">LL</tspan><tspan class="cls-9" x="397.25" y="0">E</tspan><tspan class="cls-10" x="418.77" y="0">S</tspan><tspan x="440.37" y="0">, </tspan><tspan class="cls-11" x="458.98" y="0">L</tspan><tspan x="478.86" y="0">AN</tspan><tspan class="cls-12" x="531.29" y="0">C</tspan><tspan x="555.65" y="0">Y</tspan></text><text class="cls-13" transform="translate(397.53 361.72)"><tspan class="cls-14">A</tspan><tspan class="cls-15" x="19.77" y="0">v</tspan><tspan x="33.6" y="0">a</tspan><tspan class="cls-16" x="49.74" y="0">n</tspan><tspan class="cls-17" x="66.87" y="0">t</tspan><tspan class="cls-18" x="76.29" y="0">-p</tspan><tspan class="cls-15" x="105.6" y="0">r</tspan><tspan x="116.07" y="0">oj</tspan><tspan class="cls-6" x="140.37" y="0">e</tspan><tspan x="156.36" y="0">t de P</tspan><tspan class="cls-19" x="234.63" y="0">L</tspan><tspan class="cls-18" x="249.9" y="0">Q </tspan><tspan class="cls-20" x="280.05" y="0">n</tspan><tspan class="cls-21" x="296.64" y="0">°300</tspan><tspan class="cls-22" x="363.92" y="0">4</tspan><tspan x="380.69" y="0">7</tspan></text><text class="cls-23" transform="translate(344.8 448.42)"><tspan class="cls-24">C</tspan><tspan x="24.88" y="0">once</tspan><tspan class="cls-25" x="101.74" y="0">r</tspan><tspan class="cls-26" x="114.8" y="0">t</tspan><tspan class="cls-9" x="126.87" y="0">a</tspan><tspan x="145.67" y="0">tion II : E</tspan><tspan class="cls-27" x="284.33" y="0">n</tspan><tspan class="cls-7" x="304.36" y="0">vi</tspan><tspan class="cls-28" x="329.8" y="0">r</tspan><tspan x="342.01" y="0">o</tspan><tspan class="cls-29" x="361.44" y="0">n</tspan><tspan x="381.7" y="0">neme</tspan><tspan class="cls-27" x="468.82" y="0">n</tspan><tspan x="488.84" y="0">t</tspan></text><text class="cls-23" transform="translate(480.18 494.93)">19 ja<tspan class="cls-10" x="70.84" y="0">n</tspan><tspan x="90.86" y="0">vier </tspan><tspan class="cls-30" x="156.73" y="0">2</tspan><tspan x="175.28" y="0">021</tspan></text><g class="cls-31"><g class="cls-32"><g class="cls-33"><path class="cls-34" d="M86.11,557.91c-5.81,0-10.52,4.23-10.52,9.44V676c0,5.22,4.71,9.45,10.52,9.45H277.66c5.81,0,10.52-4.23,10.52-9.45V567.35c0-5.21-4.71-9.44-10.52-9.44Z"/></g></g></g><text class="cls-35" transform="translate(132.76 635.82)">A<tspan class="cls-36" x="26.5" y="0">E</tspan><tspan class="cls-37" x="48.78" y="0">T</tspan><tspan x="68.83" y="0">C</tspan></text><g class="cls-31"><g class="cls-32"><g class="cls-38"><rect class="cls-39" x="233.86" y="674.65" width="212.6" height="127.56" rx="8.75"/></g></g></g><text class="cls-35" transform="translate(268.7 752.56)"><tspan class="cls-40">E</tspan><tspan class="cls-41" x="21.85" y="0">C</tspan><tspan class="cls-37" x="47.88" y="0">O</tspan><tspan x="73.84" y="0">T</tspan><tspan class="cls-42" x="95.22" y="0">E</tspan><tspan x="117.04" y="0">C</tspan></text><g class="cls-31"><g class="cls-32"><g class="cls-43"><rect class="cls-44" x="437.02" y="600.44" width="212.6" height="127.56" rx="8.75"/></g></g></g><text class="cls-35" transform="translate(441.5 677.27)">T<tspan class="cls-45" x="21.38" y="0">R</tspan><tspan x="46.66" y="0">ANSIT</tspan><tspan class="cls-46" x="155.91" y="0">E</tspan><tspan x="177.73" y="0">C</tspan></text><g class="cls-31"><g class="cls-32"><g class="cls-47"><rect class="cls-48" x="267.87" y="497.13" width="115.74" height="77.39" rx="8.75"/></g></g><g class="cls-32"><g class="cls-49"><rect class="cls-34" x="971.34" y="383.39" width="167.01" height="111.68" rx="8.27"/></g></g></g><text class="cls-35" transform="translate(1037.81 453.37)">...</text><g class="cls-31"><g class="cls-32"><g class="cls-50"><rect class="cls-44" x="903.11" y="330.24" width="81.75" height="62.3" rx="8.75"/></g></g></g><text class="cls-35" transform="translate(929.38 369.2)">...</text><g class="cls-31"><g class="cls-32"><g class="cls-51"><rect class="cls-39" x="960.94" y="233.86" width="201.26" height="104.88" rx="8.75"/></g></g></g><text class="cls-35" transform="translate(1046.19 296.17)">...</text><g class="cls-31"><g class="cls-32"><g class="cls-52"><rect class="cls-48" x="778.55" y="94.96" width="222.08" height="156.3" rx="8.75"/></g></g></g><text class="cls-35" transform="translate(874.2 187.24)">...</text></g></g></svg>