<svg id="Calque_1" data-name="Calque 1" xmlns="http://www.w3.org/2000/svg" xmlns:xlink="http://www.w3.org/1999/xlink" viewBox="0 0 1190.55 841.89"><defs><style>.cls-1{fill:none;}.cls-2{clip-path:url(#clip-path);}.cls-3{font-size:30px;}.cls-24,.cls-3{font-family:GTAmerica-Bold, GT America;font-weight:700;}.cls-4{letter-spacing:-0.02em;}.cls-5{letter-spacing:-0.03em;}.cls-6{letter-spacing:-0.04em;}.cls-7{letter-spacing:-0.08em;}.cls-8{letter-spacing:-0.02em;}.cls-9{letter-spacing:-0.09em;}.cls-10{clip-path:url(#clip-path-3);}.cls-11{opacity:0.8;}.cls-12{clip-path:url(#clip-path-4);}.cls-13{fill:#ffce00;}.cls-14{clip-path:url(#clip-path-5);}.cls-15{fill:#f59e00;}.cls-16{clip-path:url(#clip-path-6);}.cls-17{clip-path:url(#clip-path-7);}.cls-18{clip-path:url(#clip-path-8);}.cls-19{fill:#a8ba00;}.cls-20{clip-path:url(#clip-path-9);}.cls-21{clip-path:url(#clip-path-10);}.cls-22{fill:#008ea5;}.cls-23{clip-path:url(#clip-path-11);}.cls-24{font-size:39.6px;}.cls-24,.cls-25{fill:#fff;}</style><clipPath id="clip-path"><rect class="cls-1" width="1190.55" height="841.89"/></clipPath><clipPath id="clip-path-3"><rect class="cls-1" width="1190.55" height="841.89"/></clipPath><clipPath id="clip-path-4"><rect class="cls-1" x="883.64" y="199.79" width="212.35" height="137.96"/></clipPath><clipPath id="clip-path-5"><rect class="cls-1" x="730.59" y="522.1" width="212.35" height="137.96"/></clipPath><clipPath id="clip-path-6"><rect class="cls-1" x="206.43" y="213.02" width="155.28" height="102.27"/></clipPath><clipPath id="clip-path-7"><rect class="cls-1" x="118.76" y="486.66" width="210.35" height="137.96"/></clipPath><clipPath id="clip-path-8"><rect class="cls-1" x="319.11" y="88.39" width="218.63" height="152.91"/></clipPath><clipPath id="clip-path-9"><rect class="cls-1" x="917.86" y="465.33" width="120.21" height="79.38"/></clipPath><clipPath id="clip-path-10"><rect class="cls-1" x="800.86" y="161.47" width="120.21" height="72.07"/></clipPath><clipPath id="clip-path-11"><rect class="cls-1" x="282.46" y="595.88" width="262.29" height="143.06"/></clipPath></defs><g class="cls-2"><g class="cls-2"><text class="cls-3" transform="translate(338.88 428.87)">ME<tspan class="cls-4" x="45.72" y="0">R</tspan><tspan x="66" y="0">CI DE </tspan><tspan class="cls-5" x="152.49" y="0">V</tspan><tspan class="cls-6" x="172.05" y="0">O</tspan><tspan x="193.71" y="0">TRE </tspan><tspan class="cls-7" x="258.21" y="0">P</tspan><tspan x="275.43" y="0">A</tspan><tspan class="cls-8" x="297.51" y="0">R</tspan><tspan x="317.73" y="0">TICI</tspan><tspan class="cls-7" x="376.14" y="0">P</tspan><tspan class="cls-9" x="393.36" y="0">A</tspan><tspan x="412.74" y="0">TION !!</tspan></text><g class="cls-10"><g class="cls-11"><g class="cls-12"><rect class="cls-13" x="892.64" y="206.79" width="194.35" height="129.96" rx="9.62"/></g></g><g class="cls-11"><g class="cls-14"><rect class="cls-15" x="739.59" y="529.1" width="194.35" height="129.96" rx="9.62"/></g></g><g class="cls-11"><g class="cls-16"><path class="cls-15" d="M222.23,220a6.9,6.9,0,0,0-6.8,7v80.31a6.89,6.89,0,0,0,6.8,7H345.92a6.88,6.88,0,0,0,6.79-7V227a6.89,6.89,0,0,0-6.79-7Z"/></g></g><g class="cls-11"><g class="cls-17"><rect class="cls-13" x="127.76" y="493.66" width="192.35" height="129.96" rx="9.62"/></g></g><g class="cls-11"><g class="cls-18"><rect class="cls-19" x="328.11" y="95.39" width="200.63" height="144.92" rx="9.62"/></g></g><g class="cls-11"><g class="cls-20"><rect class="cls-19" x="926.86" y="472.33" width="102.21" height="71.38" rx="9.62"/></g></g><g class="cls-11"><g class="cls-21"><rect class="cls-22" x="809.86" y="168.47" width="102.21" height="64.07" rx="9.62"/></g></g><g class="cls-11"><g class="cls-23"><rect class="cls-22" x="291.46" y="602.88" width="244.29" height="135.06" rx="9.62"/></g></g></g><text class="cls-24" transform="translate(970.96 287.32)">...</text><text class="cls-24" transform="translate(850.46 215.92)">?</text><text class="cls-24" transform="translate(411.49 183.37)">...</text><rect class="cls-25" x="277.72" y="266.85" width="12.95" height="5.35"/><text class="cls-24" transform="translate(210.88 574.14)">!!</text><text class="cls-24" transform="translate(396.68 685.89)">...</text><text class="cls-24" transform="translate(819.85 609.54)">...</text><text class="cls-24" transform="translate(970.45 528.4)">*</text></g></g></svg>