<svg id="Calque_1" data-name="Calque 1" xmlns="http://www.w3.org/2000/svg" xmlns:xlink="http://www.w3.org/1999/xlink" viewBox="0 0 1190.55 841.89"><defs><style>.cls-1{fill:none;}.cls-2{clip-path:url(#clip-path);}.cls-11,.cls-3{font-size:30px;}.cls-3{font-family:GTAmerica-Bold, GT America;font-weight:700;}.cls-4{letter-spacing:0em;}.cls-5{letter-spacing:-0.06em;}.cls-6{letter-spacing:-0.02em;}.cls-7{letter-spacing:0em;}.cls-8{letter-spacing:-0.01em;}.cls-9{letter-spacing:0em;}.cls-10{letter-spacing:-0.01em;}.cls-11{font-family:GTAmerica-Light, GT America;font-weight:300;}.cls-12{letter-spacing:-0.01em;}.cls-13{letter-spacing:-0.01em;}.cls-14{letter-spacing:0em;}.cls-15{letter-spacing:0em;}.cls-16{letter-spacing:0em;}.cls-17{letter-spacing:-0.01em;}.cls-18{letter-spacing:-0.02em;}.cls-19{letter-spacing:0em;}.cls-20{letter-spacing:-0.01em;}.cls-21{letter-spacing:-0.06em;}.cls-22{letter-spacing:-0.01em;}.cls-23{letter-spacing:0em;}.cls-24{letter-spacing:0em;}.cls-25{letter-spacing:-0.01em;}.cls-26{letter-spacing:-0.01em;}.cls-27{letter-spacing:-0.01em;}.cls-28{letter-spacing:0em;}.cls-29{letter-spacing:-0.01em;}.cls-30{letter-spacing:0.01em;}.cls-31{letter-spacing:-0.01em;}.cls-32{letter-spacing:-0.01em;}</style><clipPath id="clip-path"><rect class="cls-1" width="1190.55" height="841.89"/></clipPath></defs><g class="cls-2"><path d="M93.5,56.51A45.06,45.06,0,0,0,101,51c2-2,2.85-3.6,2.85-5.73s-1-3.24-2.7-3.24-2.82,1.2-2.82,3.18a10.13,10.13,0,0,0,.21,1.71l-4.92-.45a8.15,8.15,0,0,1-.18-1.65c0-4,3.06-6.6,8-6.6S109,40.67,109,44.93c0,2.88-1.23,5.31-3.75,7.65a28.91,28.91,0,0,1-5.19,3.63h9.12v3.84H93.5Zm24,3.54h-5.13V55.13h5.13Zm11.34,0V38.75h5.07v21.3Zm9.51-21.3h8.49c6.39,0,10.53,4.26,10.53,10.53s-4.14,10.77-10.59,10.77h-8.43Zm8.22,17.58c3.6,0,5.58-3.24,5.58-7s-1.86-6.81-5.52-6.81h-3.21V56.33Zm28.68,0v3.75H160.43V38.75H175V42.5H165.5v4.8h9V51h-9V56.3Zm3.69-17.55h5.61l6.84,12.15a22.16,22.16,0,0,1,1.29,2.76h.06c0-.84,0-1.71,0-2.73V38.75h4.65v21.3h-5.4l-7.08-12.27a18.35,18.35,0,0,1-1.26-2.61h-.06c0,.87,0,1.77,0,2.82V60.05h-4.65Zm38.28,4H211V60.05h-5V42.77h-6.18v-4h17.43Zm2.4,17.28V38.75h5.07v21.3Zm14.58-17.46v4.92h9v3.78h-9v8.76H229.1V38.75h14.58v3.84Zm12.54,17.46V38.75h5.07v21.3Zm8.16-10.62c0-6.72,4-11.19,10.44-11.19,5.43,0,8.85,3,9.42,7.65l-5.13.9c-.3-2.82-1.86-4.47-4.41-4.47-3.24,0-5.13,2.73-5.13,7.08s1.92,7.05,5.28,7.05c2.37,0,4-1.62,4.38-4.38l5.13,1.11c-1,4.5-4.32,7.38-9.6,7.38C258.5,60.56,254.87,56.15,254.87,49.43Zm34.91,5.64h-7.86l-1.62,5h-5.07L283,38.75h5.79l7.74,21.3h-5.1Zm-1.17-3.57-1.95-5.94a25.65,25.65,0,0,1-.78-3h-.06a20.83,20.83,0,0,1-.78,3l-2,5.94Zm23.19-8.73h-6.21V60.05h-5V42.77h-6.18v-4H311.8Zm2.4,17.28V38.75h5.07v21.3Zm8.16-10.65c0-6.87,4.11-11.16,10.5-11.16s10.5,4.29,10.5,11.16-4.11,11.16-10.5,11.16S322.36,56.24,322.36,49.4Zm15.78,0c0-4.5-1.95-7.2-5.28-7.2s-5.31,2.7-5.31,7.2,2,7.2,5.31,7.2S338.14,53.9,338.14,49.4Zm8.31-10.65h5.61L358.9,50.9a22.16,22.16,0,0,1,1.29,2.76h.06c0-.84,0-1.71,0-2.73V38.75h4.65v21.3h-5.4l-7.08-12.27a18.35,18.35,0,0,1-1.26-2.61h-.06c0,.87,0,1.77,0,2.82V60.05h-4.65Zm30.27,0h8.49c6.39,0,10.53,4.26,10.53,10.53s-4.14,10.77-10.59,10.77h-8.43Zm8.22,17.58c3.6,0,5.58-3.24,5.58-7s-1.86-6.81-5.52-6.81h-3.21V56.33Zm28.68,0v3.75H398.83V38.75h14.58V42.5H403.9v4.8h9V51h-9V56.3Zm1.38-.69L418.75,53a6.17,6.17,0,0,0,5.79,3.66c2,0,3.66-.75,3.66-2.43s-.93-2.19-3.09-2.64l-2.85-.6c-3.72-.81-5.88-2.82-5.88-6.39,0-3.9,3.18-6.33,8.31-6.33,3.78,0,7,1.38,8.46,4.23l-3.3,2.79A6,6,0,0,0,424.36,42c-2,0-3.3.84-3.3,2.19s.84,2.07,3.09,2.58l3.09.66c3.78.84,5.82,2.64,5.82,6.3,0,4.05-3.12,6.84-8.7,6.84C419.77,60.56,416.47,58.61,415,55.61Zm43.89-12.84h-6.21V60.05h-5V42.77h-6.18v-4h17.43Zm20.73,17.28h-5.07V51.2h-8.19v8.85h-5.07V38.75h5.07V47.3h8.19V38.75h5.07Zm19.23-3.75v3.75H484.06V38.75h14.58V42.5h-9.51v4.8h9V51h-9V56.3Zm-9.27-18.84-3.48-3.54h4.17l3,3.54Zm13,1.29h7l3.93,13a14.92,14.92,0,0,1,.51,2.58H514a16.5,16.5,0,0,1,.54-2.64l3.75-13h7.05v21.3h-4.62V45.53a21.43,21.43,0,0,1,.12-2.4h-.09a12.12,12.12,0,0,1-.45,2.07L516,60.05h-4.26L507.28,45.2a10,10,0,0,1-.45-2h-.09c.06.72.12,1.53.12,2.37V60.05h-4.32Zm42,17.55v3.75H529.78V38.75h14.58V42.5h-9.51v4.8h9V51h-9V56.3Zm1.38-.69L549.7,53a6.17,6.17,0,0,0,5.79,3.66c2,0,3.66-.75,3.66-2.43s-.93-2.19-3.09-2.64l-2.85-.6c-3.72-.81-5.88-2.82-5.88-6.39,0-3.9,3.18-6.33,8.31-6.33,3.78,0,7,1.38,8.46,4.23l-3.3,2.79A6,6,0,0,0,555.31,42c-2,0-3.3.84-3.3,2.19s.84,2.07,3.09,2.58l3.09.66c3.78.84,5.82,2.64,5.82,6.3,0,4.05-3.12,6.84-8.7,6.84C550.72,60.56,547.42,58.61,546,55.61Zm43.26.69v3.75H574.42V38.75H589V42.5h-9.51v4.8h9V51h-9V56.3Zm19.23-13.53h-6.21V60.05h-5V42.77H591v-4h17.43ZM633,56.3v3.75H618.25V38.75h14.58V42.5h-9.51v4.8h9V51h-9V56.3Zm3.69-17.55h5.61l6.84,12.15a22.16,22.16,0,0,1,1.29,2.76h.06c0-.84,0-1.71,0-2.73V38.75h4.65v21.3h-5.4l-7.08-12.27a18.35,18.35,0,0,1-1.26-2.61h-.06c0,.87,0,1.77,0,2.82V60.05h-4.65ZM661,60.41a16,16,0,0,1-3.15-.27V56a15.56,15.56,0,0,0,2,.15c1.92,0,3.09-.9,3.09-3.42v-14h5.07v15C668.08,58.37,665.32,60.41,661,60.41ZM687,56.3v3.75H672.16V38.75h14.58V42.5h-9.51v4.8h9V51h-9V56.3Zm8.4-17.55V52.4a4,4,0,1,0,7.92,0V38.75h5.07V52.61c0,4.86-3.36,8-9,8s-9-3.09-9-8V38.75ZM717.22,49l-6.63-10.23h5.61l3.51,6a6.82,6.82,0,0,1,.63,1.35h.06a6.82,6.82,0,0,1,.63-1.35l3.6-6h5.49l-6.6,10.53,7.11,10.77h-5.7l-3.87-6.3a8.37,8.37,0,0,1-.84-1.59h-.06a8.27,8.27,0,0,1-.81,1.65l-3.69,6.24h-5.49Z"/><path d="M93.77,94.22a71,71,0,0,0,7.5-6.36c2.52-2.61,3.48-4.59,3.48-7.17,0-2.85-1.56-4.53-4.2-4.53a4,4,0,0,0-4.29,4.29,10.11,10.11,0,0,0,.24,1.92l-2.22-.21a6.9,6.9,0,0,1-.21-1.74c0-3.78,2.46-6.18,6.6-6.18,4,0,6.39,2.31,6.39,6.42,0,2.94-1.38,5.52-4.38,8.52a44.1,44.1,0,0,1-5.94,4.89h10.65v2H93.77Zm20.1,1.83h-2.82V92.69h2.82ZM128,90.29v5.76h-2.1V90.29h-10V88.76l9.63-14H128v13.8h3.45v1.74ZM126,77h-.06a11.48,11.48,0,0,1-1.29,2.34l-4.74,7a19.66,19.66,0,0,1-1.68,2.28h7.71V79.73C125.9,78.32,125.9,77.93,126,77Zm30.51,17.1v2h-13.2V74.75h13v2H145.58v7.41h10.17v2H145.58v7.95Zm5.13-19.32h2.82L174.29,91a19.23,19.23,0,0,1,1.26,2.46h.06c-.06-.81-.09-1.47-.09-2.61V74.75h2.1v21.3H174.8l-9.87-16.29a16,16,0,0,1-1.26-2.46h-.06c.06.72.09,1.47.09,2.61V96.05h-2.1Zm19.35,0h2.46l5.46,16a24.45,24.45,0,0,1,.87,3h.09a24.45,24.45,0,0,1,.87-3l5.46-16h2.46l-7.56,21.3h-2.55Zm21,21.3V74.75h2.31v21.3ZM217.76,87h-4.89v9.09h-2.31V74.75h7.62c5.49,0,6.93,3.06,6.93,6.09a5.65,5.65,0,0,1-4.89,5.82l5.55,9.39h-2.64Zm-4.89-2H218c3.45,0,4.68-1.83,4.68-4.14s-1.2-4.11-4.68-4.11h-5.1Zm15.26.42c0-6.93,3.78-11.16,9.6-11.16s9.6,4.23,9.6,11.16-3.78,11.16-9.6,11.16S228.13,92.18,228.13,85.4Zm16.77,0c0-5.64-2.67-9.18-7.17-9.18s-7.17,3.54-7.17,9.18,2.7,9.18,7.17,9.18S244.9,91,244.9,85.4ZM252,74.75h2.82L264.67,91a19.23,19.23,0,0,1,1.26,2.46H266c-.06-.81-.09-1.47-.09-2.61V74.75H268v21.3h-2.82l-9.87-16.29a16,16,0,0,1-1.26-2.46H254c.06.72.09,1.47.09,2.61V96.05H252Zm22.32,0h2.82L287,91a19.23,19.23,0,0,1,1.26,2.46h.06c-.06-.81-.09-1.47-.09-2.61V74.75h2.1v21.3H287.5l-9.87-16.29a16,16,0,0,1-1.26-2.46h-.06c.06.72.09,1.47.09,2.61V96.05h-2.1Zm35.52,19.32v2h-13.2V74.75h13v2H298.93v7.41H309.1v2H298.93v7.95ZM315,74.75h3.27l6.21,17a8.19,8.19,0,0,1,.51,1.83H325a8.48,8.48,0,0,1,.54-1.83l6.18-17H335v21.3h-2.16v-17a15.7,15.7,0,0,1,.12-2.13h-.12a19.8,19.8,0,0,1-.6,2.25l-6.15,16.86h-2.25l-6.15-16.86a15.51,15.51,0,0,1-.63-2.25H317c.06.66.09,1.35.09,2.13v17H315Zm39.57,19.32v2h-13.2V74.75h13v2H343.63v7.41H353.8v2H343.63v7.95Zm5.13-19.32h2.82L372.34,91a19.23,19.23,0,0,1,1.26,2.46h.06c-.06-.81-.09-1.47-.09-2.61V74.75h2.1v21.3h-2.82L363,79.76a16,16,0,0,1-1.26-2.46h-.06c.06.72.09,1.47.09,2.61V96.05h-2.1Zm35.55,2h-6.87V96.05H386V76.73h-6.87v-2H395.2Z"/><text class="cls-3" transform="translate(35.99 167.99)">Enjeux li<tspan class="cls-4" x="123.03" y="0">é</tspan><tspan x="139.83" y="0">s à l</tspan><tspan class="cls-5" x="196.29" y="0">’</tspan><tspan x="202.92" y="0">e</tspan><tspan class="cls-6" x="219.78" y="0">n</tspan><tspan x="237.6" y="0">vi</tspan><tspan class="cls-7" x="262.41" y="0">r</tspan><tspan x="274.65" y="0">onneme</tspan><tspan class="cls-8" x="388.92" y="0">n</tspan><tspan x="406.89" y="0">t </tspan><tspan class="cls-9" x="426.17" y="0">b</tspan><tspan class="cls-10" x="444.71" y="0">â</tspan><tspan x="461.63" y="0">ti</tspan></text><text class="cls-11" transform="translate(35.99 239.99)">•</text><text class="cls-11" transform="translate(45.05 239.99)"> </text><text class="cls-11" transform="translate(53.99 239.99)">A<tspan class="cls-12" x="19.92" y="0">s</tspan><tspan x="34.65" y="0">su</tspan><tspan class="cls-13" x="66.81" y="0">r</tspan><tspan x="77.25" y="0">er des con</tspan><tspan class="cls-14" x="218.31" y="0">s</tspan><tspan x="233.13" y="0">tu</tspan><tspan class="cls-15" x="260.82" y="0">c</tspan><tspan x="276.54" y="0">tions </tspan><tspan class="cls-16" x="351.74" y="0">e</tspan><tspan x="367.73" y="0">t un cha</tspan><tspan class="cls-10" x="478.25" y="0">n</tspan><tspan x="495.41" y="0">tier du</tspan><tspan class="cls-17" x="583.16" y="0">r</tspan><tspan x="593.57" y="0">able </tspan></text><text class="cls-11" transform="translate(35.99 311.99)">•</text><text class="cls-11" transform="translate(45.05 311.99)"> </text><text class="cls-11" transform="translate(53.99 311.99)"><tspan class="cls-18">R</tspan><tspan x="19.26" y="0">éutiliser sur pl</tspan><tspan class="cls-14" x="212.52" y="0">a</tspan><tspan x="228.54" y="0">ce les </tspan><tspan class="cls-12" x="315.26" y="0">t</tspan><tspan class="cls-19" x="325.52" y="0">er</tspan><tspan class="cls-20" x="352.22" y="0">r</tspan><tspan class="cls-19" x="362.69" y="0">es d</tspan><tspan class="cls-21" x="419.24" y="0">’</tspan><tspan class="cls-6" x="424.64" y="0">e</tspan><tspan class="cls-22" x="440.21" y="0">x</tspan><tspan x="454.43" y="0">c</tspan><tspan class="cls-23" x="470.21" y="0">a</tspan><tspan class="cls-20" x="486.2" y="0">v</tspan><tspan class="cls-24" x="500.03" y="0">a</tspan><tspan x="516.14" y="0">tion</tspan></text><text class="cls-11" transform="translate(35.99 383.99)">•</text><text class="cls-11" transform="translate(45.05 383.99)"> </text><text class="cls-11" transform="translate(53.99 383.99)">Utiliser des m<tspan class="cls-15" x="186.75" y="0">a</tspan><tspan class="cls-25" x="202.83" y="0">t</tspan><tspan x="213.12" y="0">ériaux du</tspan><tspan class="cls-26" x="338.4" y="0">r</tspan><tspan class="cls-19" x="348.77" y="0">ables </tspan></text><text class="cls-11" transform="translate(35.99 455.99)">•</text><text class="cls-11" transform="translate(45.05 455.99)"> </text><text class="cls-11" transform="translate(53.99 455.99)">I<tspan class="cls-10" x="8.61" y="0">n</tspan><tspan class="cls-12" x="25.77" y="0">t</tspan><tspan x="36.03" y="0">é</tspan><tspan class="cls-25" x="52.05" y="0">g</tspan><tspan class="cls-12" x="67.83" y="0">r</tspan><tspan x="78.3" y="0">er le </tspan><tspan class="cls-12" x="144.99" y="0">r</tspan><tspan x="155.46" y="0">e</tspan><tspan class="cls-14" x="171.48" y="0">cy</tspan><tspan class="cls-19" x="201.3" y="0">cl</tspan><tspan class="cls-27" x="225.15" y="0">a</tspan><tspan class="cls-6" x="241.05" y="0">g</tspan><tspan x="256.56" y="0">e </tspan><tspan class="cls-24" x="280.53" y="0">e</tspan><tspan x="296.52" y="0">t la </tspan><tspan class="cls-6" x="347.1" y="0">g</tspan><tspan class="cls-19" x="362.61" y="0">e</tspan><tspan class="cls-7" x="378.63" y="0">s</tspan><tspan x="393.45" y="0">tion des déch</tspan><tspan class="cls-24" x="577.28" y="0">e</tspan><tspan class="cls-28" x="593.27" y="0">t</tspan><tspan x="603.65" y="0">s sur le si</tspan><tspan class="cls-29" x="732.08" y="0">t</tspan><tspan x="742.34" y="0">e</tspan></text><text class="cls-11" transform="translate(35.99 527.99)">•</text><text class="cls-11" transform="translate(45.05 527.99)"> </text><text class="cls-11" transform="translate(53.99 527.99)"><tspan class="cls-30">G</tspan><tspan x="22.05" y="0">e</tspan><tspan class="cls-14" x="38.07" y="0">s</tspan><tspan x="52.89" y="0">tion des </tspan><tspan class="cls-13" x="169.71" y="0">s</tspan><tspan class="cls-31" x="184.41" y="0">y</tspan><tspan class="cls-7" x="198.33" y="0">s</tspan><tspan class="cls-25" x="213.15" y="0">t</tspan><tspan class="cls-19" x="223.44" y="0">èmes éne</tspan><tspan class="cls-32" x="353.04" y="0">rg</tspan><tspan class="cls-16" x="378.78" y="0">é</tspan><tspan class="cls-19" x="394.76" y="0">tiques</tspan></text></g></svg>