<svg id="Calque_1" data-name="Calque 1" xmlns="http://www.w3.org/2000/svg" xmlns:xlink="http://www.w3.org/1999/xlink" viewBox="0 0 1190.55 841.89"><defs><style>.cls-1,.cls-100,.cls-46,.cls-65{fill:none;}.cls-2{clip-path:url(#clip-path);}.cls-114,.cls-3{font-size:24px;}.cls-3{fill:#706f6f;font-family:ArialMT, Arial;}.cls-4{letter-spacing:-0.06em;}.cls-5{letter-spacing:-0.07em;}.cls-6{clip-path:url(#clip-path-3);}.cls-7{opacity:0.8;}.cls-8{clip-path:url(#clip-path-4);}.cls-40,.cls-9{fill:#f59e00;}.cls-10,.cls-40,.cls-63,.cls-98{font-size:18px;}.cls-10{fill:#fff;}.cls-10,.cls-114{font-family:GTAmerica-Light, GT America;font-weight:300;}.cls-11{letter-spacing:-0.01em;}.cls-12{letter-spacing:-0.01em;}.cls-13{letter-spacing:0em;}.cls-14{letter-spacing:0em;}.cls-15{letter-spacing:-0.01em;}.cls-16{letter-spacing:0em;}.cls-17{letter-spacing:-0.01em;}.cls-18{letter-spacing:-0.01em;}.cls-19{letter-spacing:-0.01em;}.cls-20{letter-spacing:0em;}.cls-21{letter-spacing:0.02em;}.cls-22{letter-spacing:-0.01em;}.cls-23{letter-spacing:-0.04em;}.cls-24{letter-spacing:-0.01em;}.cls-25{letter-spacing:-0.01em;}.cls-26{letter-spacing:-0.02em;}.cls-27{clip-path:url(#clip-path-5);}.cls-28{letter-spacing:0em;}.cls-29{letter-spacing:-0.01em;}.cls-30{letter-spacing:0em;}.cls-31{clip-path:url(#clip-path-6);}.cls-32{letter-spacing:-0.01em;}.cls-33{letter-spacing:0em;}.cls-34{clip-path:url(#clip-path-7);}.cls-35{letter-spacing:0em;}.cls-36{letter-spacing:-0.01em;}.cls-37{clip-path:url(#clip-path-8);}.cls-38{letter-spacing:0.02em;}.cls-39{clip-path:url(#clip-path-9);}.cls-40,.cls-63,.cls-98{font-family:GTAmerica-Bold, GT America;font-weight:700;}.cls-41{letter-spacing:0em;}.cls-42{letter-spacing:-0.08em;}.cls-43{letter-spacing:-0.03em;}.cls-44{letter-spacing:0.01em;}.cls-45{letter-spacing:0em;}.cls-46{stroke:#f59e00;}.cls-100,.cls-46,.cls-65{stroke-linejoin:round;stroke-width:3px;}.cls-47{clip-path:url(#clip-path-10);}.cls-48{letter-spacing:0.01em;}.cls-49{letter-spacing:0em;}.cls-50{letter-spacing:-0.01em;}.cls-51{letter-spacing:-0.01em;}.cls-52{clip-path:url(#clip-path-11);}.cls-53,.cls-63{fill:#a8ba00;}.cls-54{letter-spacing:-0.01em;}.cls-55{letter-spacing:-0.01em;}.cls-56{letter-spacing:0em;}.cls-57{letter-spacing:0em;}.cls-58{letter-spacing:0em;}.cls-59{letter-spacing:-0.01em;}.cls-60{letter-spacing:-0.01em;}.cls-61{letter-spacing:0em;}.cls-62{clip-path:url(#clip-path-12);}.cls-64{letter-spacing:-0.02em;}.cls-65{stroke:#a8ba00;}.cls-66{clip-path:url(#clip-path-13);}.cls-67{letter-spacing:0.01em;}.cls-68{letter-spacing:0em;}.cls-69{letter-spacing:-0.01em;}.cls-70{letter-spacing:0em;}.cls-71{letter-spacing:-0.02em;}.cls-72{clip-path:url(#clip-path-14);}.cls-73{letter-spacing:-0.01em;}.cls-74{letter-spacing:-0.01em;}.cls-75{letter-spacing:-0.01em;}.cls-76{letter-spacing:-0.01em;}.cls-77{letter-spacing:0em;}.cls-78{clip-path:url(#clip-path-15);}.cls-79{letter-spacing:-0.01em;}.cls-80{letter-spacing:-0.01em;}.cls-81{clip-path:url(#clip-path-16);}.cls-82{letter-spacing:0.02em;}.cls-83{clip-path:url(#clip-path-17);}.cls-84,.cls-98{fill:#008ea5;}.cls-85{letter-spacing:-0.01em;}.cls-86{letter-spacing:-0.01em;}.cls-87{letter-spacing:0.02em;}.cls-88{clip-path:url(#clip-path-18);}.cls-89{clip-path:url(#clip-path-19);}.cls-90{letter-spacing:-0.01em;}.cls-91{letter-spacing:0.02em;}.cls-92{clip-path:url(#clip-path-20);}.cls-93{letter-spacing:0em;}.cls-94{clip-path:url(#clip-path-21);}.cls-95{letter-spacing:0.01em;}.cls-96{letter-spacing:0em;}.cls-97{clip-path:url(#clip-path-22);}.cls-99{letter-spacing:0.02em;}.cls-100{stroke:#008ea5;}.cls-101{clip-path:url(#clip-path-23);}.cls-102{fill:url(#Dégradé_sans_nom);}.cls-103{clip-path:url(#clip-path-24);}.cls-104{fill:url(#Dégradé_sans_nom_2);}.cls-105{clip-path:url(#clip-path-25);}.cls-106{fill:url(#Dégradé_sans_nom_4);}.cls-107{clip-path:url(#clip-path-26);}.cls-108{fill:url(#Dégradé_sans_nom_5);}.cls-109{clip-path:url(#clip-path-27);}.cls-110{fill:url(#Dégradé_sans_nom_7);}.cls-111{clip-path:url(#clip-path-28);}.cls-112{fill:url(#Dégradé_sans_nom_8);}.cls-113{clip-path:url(#clip-path-29);}.cls-115{letter-spacing:0em;}.cls-116{letter-spacing:-0.01em;}.cls-117{letter-spacing:-0.01em;}.cls-118{letter-spacing:0em;}.cls-119{clip-path:url(#clip-path-31);}.cls-120{letter-spacing:-0.02em;}.cls-121{letter-spacing:-0.01em;}</style><clipPath id="clip-path"><rect class="cls-1" width="1190.55" height="841.89"/></clipPath><clipPath id="clip-path-3"><rect class="cls-1" width="1190.55" height="841.89"/></clipPath><clipPath id="clip-path-4"><rect class="cls-1" x="785.65" y="401.83" width="341.15" height="88.91"/></clipPath><clipPath id="clip-path-5"><rect class="cls-1" x="785.65" y="305.76" width="341.15" height="88.31"/></clipPath><clipPath id="clip-path-6"><rect class="cls-1" x="785.65" y="496.79" width="343.38" height="87.2"/></clipPath><clipPath id="clip-path-7"><rect class="cls-1" x="785.65" y="590.64" width="341.15" height="88.32"/></clipPath><clipPath id="clip-path-8"><rect class="cls-1" x="785.65" y="210.8" width="342.1" height="88.31"/></clipPath><clipPath id="clip-path-9"><rect class="cls-1" x="784.15" y="135.12" width="344.15" height="69.97"/></clipPath><clipPath id="clip-path-10"><rect class="cls-1" x="785.65" y="686.54" width="341.15" height="88.31"/></clipPath><clipPath id="clip-path-11"><rect class="cls-1" x="62.81" y="495.68" width="341.15" height="88.32"/></clipPath><clipPath id="clip-path-12"><rect class="cls-1" x="61.31" y="135.12" width="344.15" height="69.97"/></clipPath><clipPath id="clip-path-13"><rect class="cls-1" x="62.81" y="400.72" width="341.15" height="88.32"/></clipPath><clipPath id="clip-path-14"><rect class="cls-1" x="62.81" y="210.8" width="341.15" height="88.31"/></clipPath><clipPath id="clip-path-15"><rect class="cls-1" x="62.81" y="590.64" width="341.15" height="88.32"/></clipPath><clipPath id="clip-path-16"><rect class="cls-1" x="62.81" y="686.54" width="341.15" height="88.31"/></clipPath><clipPath id="clip-path-17"><rect class="cls-1" x="424.7" y="400.72" width="341.15" height="88.32"/></clipPath><clipPath id="clip-path-18"><rect class="cls-1" x="424.7" y="305.76" width="341.15" height="88.31"/></clipPath><clipPath id="clip-path-19"><rect class="cls-1" x="424.7" y="686.54" width="343.28" height="88.32"/></clipPath><clipPath id="clip-path-20"><rect class="cls-1" x="424.7" y="495.68" width="341.15" height="88.32"/></clipPath><clipPath id="clip-path-21"><rect class="cls-1" x="424.7" y="210.8" width="341.15" height="88.31"/></clipPath><clipPath id="clip-path-22"><rect class="cls-1" x="423.2" y="135.12" width="344.15" height="66.97"/></clipPath><clipPath id="clip-path-23"><rect class="cls-1" x="424.7" y="590.64" width="347.56" height="88.32"/></clipPath><linearGradient id="Dégradé_sans_nom" y1="841.87" x2="1" y2="841.87" gradientTransform="matrix(0, -546.14, -546.14, 0, 460919.28, 763.94)" gradientUnits="userSpaceOnUse"><stop offset="0" stop-color="#fff"/><stop offset="0.01" stop-color="#fff"/><stop offset="0.13" stop-color="#fdf7ea"/><stop offset="0.38" stop-color="#f7e1b4"/><stop offset="0.74" stop-color="#edbf5d"/><stop offset="1" stop-color="#e6a51a"/></linearGradient><clipPath id="clip-path-24"><polygon class="cls-1" points="1136.69 217.8 1127.77 242.33 1145.62 242.33 1136.69 217.8"/></clipPath><linearGradient id="Dégradé_sans_nom_2" y1="841.87" y2="841.87" gradientTransform="matrix(0, -546.14, -546.14, 0, 460919.03, 763.94)" xlink:href="#Dégradé_sans_nom"/><clipPath id="clip-path-25"><polygon class="cls-1" points="1136.69 763.94 1145.62 739.4 1127.77 739.4 1136.69 763.94"/></clipPath><linearGradient id="Dégradé_sans_nom_4" y1="841.87" x2="1" y2="841.87" gradientTransform="matrix(0, -546.14, -546.14, 0, 460558.34, 763.94)" gradientUnits="userSpaceOnUse"><stop offset="0" stop-color="#fff"/><stop offset="0.67" stop-color="#50b2c1"/><stop offset="1" stop-color="#008ea5"/></linearGradient><clipPath id="clip-path-26"><polygon class="cls-1" points="775.75 217.8 766.82 242.33 784.68 242.33 775.75 217.8"/></clipPath><linearGradient id="Dégradé_sans_nom_5" y1="841.87" y2="841.87" gradientTransform="matrix(0, -546.14, -546.14, 0, 460558.08, 763.94)" xlink:href="#Dégradé_sans_nom_4"/><clipPath id="clip-path-27"><polygon class="cls-1" points="775.75 763.94 784.68 739.4 766.82 739.4 775.75 763.94"/></clipPath><linearGradient id="Dégradé_sans_nom_7" y1="841.87" x2="1" y2="841.87" gradientTransform="matrix(0, -546.14, -546.14, 0, 460196.92, 763.94)" gradientUnits="userSpaceOnUse"><stop offset="0" stop-color="#fff"/><stop offset="0.09" stop-color="#fbfbf2"/><stop offset="0.26" stop-color="#eff2d0"/><stop offset="0.48" stop-color="#dce398"/><stop offset="0.75" stop-color="#c2ce4c"/><stop offset="1" stop-color="#a8ba00"/></linearGradient><clipPath id="clip-path-28"><polygon class="cls-1" points="414.33 217.8 405.4 242.33 423.26 242.33 414.33 217.8"/></clipPath><linearGradient id="Dégradé_sans_nom_8" y1="841.87" y2="841.87" gradientTransform="matrix(0, -546.14, -546.14, 0, 460196.67, 763.94)" xlink:href="#Dégradé_sans_nom_7"/><clipPath id="clip-path-29"><polygon class="cls-1" points="414.33 763.94 423.26 739.4 405.4 739.4 414.33 763.94"/></clipPath><clipPath id="clip-path-31"><rect class="cls-1" x="62.81" y="305.76" width="341.15" height="88.31"/></clipPath></defs><g class="cls-2"><g class="cls-2"><path d="M97.76,45.29a5.39,5.39,0,0,1-3.63,1.17h-.84V42.14h.57a4.54,4.54,0,0,0,4.8-3.39h3.93v21.3H97.76Zm14.58,14.76h-5.13V55.13h5.13Zm9.06-4.44L125.15,53a6.17,6.17,0,0,0,5.79,3.66c2,0,3.66-.75,3.66-2.43s-.93-2.19-3.09-2.64l-2.85-.6c-3.72-.81-5.88-2.82-5.88-6.39,0-3.9,3.18-6.33,8.31-6.33,3.78,0,7,1.38,8.46,4.23l-3.3,2.79A6,6,0,0,0,130.76,42c-2,0-3.3.84-3.3,2.19s.84,2.07,3.09,2.58l3.09.66c3.78.84,5.82,2.64,5.82,6.3,0,4.05-3.12,6.84-8.7,6.84C126.17,60.56,122.87,58.61,121.4,55.61Zm25.26-3.27-7.08-13.59h5.34l3.75,7.86a7.25,7.25,0,0,1,.51,1.56h.06a7.25,7.25,0,0,1,.51-1.56l3.72-7.86h5.37l-7.08,13.59v7.71h-5.1ZM161,38.75h5.61l6.84,12.15a22.16,22.16,0,0,1,1.29,2.76h.06c0-.84,0-1.71,0-2.73V38.75h4.65v21.3H174l-7.08-12.27a18.35,18.35,0,0,1-1.26-2.61h-.06c0,.87,0,1.77,0,2.82V60.05H161Zm38.28,4H193V60.05h-5V42.77h-6.18v-4h17.43ZM220,60.05h-5.07V51.2h-8.19v8.85h-5.07V38.75h5.07V47.3h8.19V38.75H220Zm19.23-3.75v3.75H224.42V38.75H239V42.5h-9.51v4.8h9V51h-9V56.3Zm-9.27-18.84-3.48-3.54h4.17l3,3.54Zm10.64,18.15L244.33,53a6.17,6.17,0,0,0,5.79,3.66c2,0,3.66-.75,3.66-2.43s-.93-2.19-3.09-2.64l-2.85-.6c-3.72-.81-5.88-2.82-5.88-6.39,0-3.9,3.18-6.33,8.31-6.33,3.78,0,7,1.38,8.46,4.23l-3.3,2.79A6,6,0,0,0,249.94,42c-2,0-3.3.84-3.3,2.19s.84,2.07,3.09,2.58l3.09.66c3.78.84,5.82,2.64,5.82,6.3,0,4.05-3.12,6.84-8.7,6.84C245.35,60.56,242.05,58.61,240.58,55.61Zm35.85.69v3.75H261.64V38.75h14.58V42.5h-9.51v4.8h9V51h-9V56.3Zm11.1-17.55H296c6.39,0,10.53,4.26,10.53,10.53S302.41,60.05,296,60.05h-8.43Zm8.22,17.58c3.6,0,5.58-3.24,5.58-7s-1.86-6.81-5.52-6.81H292.6V56.33Zm28.68,0v3.75H309.64V38.75h14.58V42.5h-9.51v4.8h9V51h-9V56.3Zm11.1-17.55h5.07V55.94h8.64v4.11H335.53Zm29.79,16.32h-7.86l-1.62,5h-5.07l7.74-21.3h5.79L372,60.05h-5.1Zm-1.17-3.57-1.95-5.94a25.65,25.65,0,0,1-.78-3h-.06a20.83,20.83,0,0,1-.78,3l-1.95,5.94Zm16.56-2.07c0-6.72,4-11.19,10.44-11.19,5.43,0,8.85,3,9.42,7.65l-5.13.9c-.3-2.82-1.86-4.47-4.41-4.47-3.24,0-5.13,2.73-5.13,7.08s1.92,7.05,5.28,7.05c2.37,0,4-1.62,4.38-4.38l5.13,1.11c-1,4.5-4.32,7.38-9.6,7.38C384.34,60.56,380.71,56.15,380.71,49.43Zm21.72,0c0-6.87,4.11-11.16,10.5-11.16s10.5,4.29,10.5,11.16-4.11,11.16-10.5,11.16S402.43,56.24,402.43,49.4Zm15.78,0c0-4.5-1.95-7.2-5.28-7.2s-5.31,2.7-5.31,7.2,2,7.2,5.31,7.2S418.21,53.9,418.21,49.4Zm8.31-10.65h5.61L439,50.9a22.16,22.16,0,0,1,1.29,2.76h.06c0-.84,0-1.71,0-2.73V38.75h4.65v21.3h-5.4l-7.08-12.27a18.35,18.35,0,0,1-1.26-2.61h-.06c0,.87,0,1.77,0,2.82V60.05h-4.65ZM448,49.43c0-6.72,4-11.19,10.44-11.19,5.43,0,8.85,3,9.42,7.65l-5.13.9c-.3-2.82-1.86-4.47-4.41-4.47-3.24,0-5.13,2.73-5.13,7.08s1.92,7.05,5.28,7.05c2.37,0,4-1.62,4.38-4.38L468,53.18c-1,4.5-4.32,7.38-9.6,7.38C451.66,60.56,448,56.15,448,49.43Zm37.71,6.87v3.75H471V38.75h14.58V42.5H476v4.8h9V51h-9V56.3Zm11.82-4.41H494.5v8.16h-5.07V38.75h9.36c5.4,0,7.8,2.64,7.8,6.54a5.89,5.89,0,0,1-4.17,5.85l4.71,8.91h-5.49Zm-3.06-3.48h3.27c2.46,0,3.54-1.2,3.54-3.12s-1.05-3-3.54-3H494.5Zm30.57-5.64h-6.21V60.05h-5V42.77h-6.18v-4h17.43Zm12.42,12.3h-7.86l-1.62,5h-5.07l7.74-21.3h5.79l7.74,21.3h-5.1Zm-1.17-3.57-2-5.94a25.65,25.65,0,0,1-.78-3h-.06a20.83,20.83,0,0,1-.78,3l-2,5.94Zm23.19-8.73H553.3V60.05h-5V42.77h-6.18v-4h17.43Zm2.4,17.28V38.75H567v21.3Zm8.16-10.65c0-6.87,4.11-11.16,10.5-11.16s10.5,4.29,10.5,11.16S587,60.56,580.57,60.56,570.07,56.24,570.07,49.4Zm15.78,0c0-4.5-2-7.2-5.28-7.2s-5.31,2.7-5.31,7.2,2,7.2,5.31,7.2S585.85,53.9,585.85,49.4Zm8.31-10.65h5.61l6.84,12.15a22.16,22.16,0,0,1,1.29,2.76H608c0-.84,0-1.71,0-2.73V38.75h4.65v21.3h-5.4L600.1,47.78a18.35,18.35,0,0,1-1.26-2.61h-.06c0,.87,0,1.77,0,2.82V60.05h-4.65Zm33.18,6.54a5.39,5.39,0,0,1-3.63,1.17h-.84V42.14h.57a4.54,4.54,0,0,0,4.8-3.39h3.93v21.3h-4.83Z"/><text class="cls-3" transform="translate(92.63 88.85)">TROIS<tspan class="cls-4" x="73.34" y="0"> </tspan><tspan class="cls-5" x="78.68" y="0">A</tspan><tspan x="92.92" y="0">TELIERS</tspan></text><g class="cls-6"><g class="cls-7"><g class="cls-8"><rect class="cls-9" x="794.65" y="408.83" width="323.15" height="79.21" rx="12"/><text class="cls-10" transform="translate(814.33 425.49)">Amén<tspan class="cls-11" x="47.14" y="0">a</tspan><tspan class="cls-12" x="56.7" y="0">g</tspan><tspan x="66.02" y="0">er des esp</tspan><tspan class="cls-13" x="149.81" y="0">a</tspan><tspan class="cls-14" x="159.42" y="0">ces en plein air </tspan></text><text class="cls-10" transform="translate(840.47 445.49)"><tspan class="cls-15">a</tspan><tspan class="cls-16" x="9.59" y="0">v</tspan><tspan x="17.95" y="0">ec une multitude d’us</tspan><tspan class="cls-17" x="193.97" y="0">a</tspan><tspan class="cls-12" x="203.51" y="0">g</tspan><tspan x="212.83" y="0">es </tspan></text><text class="cls-10" transform="translate(808.97 465.49)"><tspan class="cls-18">(</tspan><tspan x="5.11" y="0">ma</tspan><tspan class="cls-11" x="29.92" y="0">r</tspan><tspan class="cls-14" x="36.2" y="0">ch</tspan><tspan class="cls-19" x="56.21" y="0">é</tspan><tspan class="cls-20" x="65.66" y="0">, conce</tspan><tspan class="cls-21" x="123.73" y="0">r</tspan><tspan x="130.44" y="0">t, B</tspan><tspan class="cls-22" x="157.64" y="0">B</tspan><tspan class="cls-23" x="169.36" y="0">Q</tspan><tspan x="181.98" y="0">, jeux en</tspan><tspan class="cls-24" x="249.21" y="0">f</tspan><tspan x="255.2" y="0">a</tspan><tspan class="cls-19" x="264.88" y="0">n</tspan><tspan class="cls-13" x="275.18" y="0">t</tspan><tspan class="cls-25" x="281.39" y="0">s</tspan><tspan x="290.17" y="0">, </tspan></text><text class="cls-10" transform="translate(901.61 485.49)"><tspan class="cls-22">a</tspan><tspan class="cls-18" x="9.56" y="0">g</tspan><tspan x="18.88" y="0">o</tspan><tspan class="cls-19" x="28.87" y="0">r</tspan><tspan x="35.12" y="0">a, banc</tspan><tspan class="cls-26" x="94.07" y="0">s</tspan><tspan x="102.76" y="0">)</tspan></text></g></g><g class="cls-7"><g class="cls-27"><rect class="cls-9" x="794.65" y="312.76" width="323.15" height="80.32" rx="12"/><text class="cls-10" transform="translate(842.8 349.98)">P<tspan class="cls-22" x="10.94" y="0">r</tspan><tspan class="cls-13" x="17.23" y="0">év</tspan><tspan x="35.12" y="0">oir des </tspan><tspan class="cls-24" x="94.88" y="0">r</tspan><tspan class="cls-28" x="101.14" y="0">e</tspan><tspan x="110.66" y="0">z t</tspan><tspan class="cls-19" x="129.9" y="0">r</tspan><tspan x="136.15" y="0">anspa</tspan><tspan class="cls-29" x="185.43" y="0">r</tspan><tspan x="191.71" y="0">e</tspan><tspan class="cls-19" x="201.33" y="0">n</tspan><tspan class="cls-13" x="211.62" y="0">t</tspan><tspan x="217.83" y="0">s </tspan></text><text class="cls-10" transform="translate(854.03 369.98)"><tspan class="cls-15">a</tspan><tspan class="cls-16" x="9.59" y="0">v</tspan><tspan x="17.95" y="0">ec c</tspan><tspan class="cls-22" x="51.26" y="0">a</tspan><tspan class="cls-12" x="60.82" y="0">f</tspan><tspan x="66.71" y="0">és </tspan><tspan class="cls-30" x="90.05" y="0">e</tspan><tspan x="99.63" y="0">t co</tspan><tspan class="cls-30" x="130.14" y="0">m</tspan><tspan class="cls-14" x="145.22" y="0">me</tspan><tspan class="cls-22" x="169.95" y="0">r</tspan><tspan x="176.24" y="0">ces</tspan></text></g></g><g class="cls-7"><g class="cls-31"><rect class="cls-9" x="794.65" y="503.79" width="323.15" height="79.21" rx="12"/><text class="cls-10" transform="translate(809.55 540.46)">Privilégier des esp<tspan class="cls-13" x="147.58" y="0">a</tspan><tspan class="cls-14" x="157.19" y="0">ces de </tspan><tspan class="cls-32" x="214.97" y="0">r</tspan><tspan class="cls-33" x="221.25" y="0">enco</tspan><tspan class="cls-25" x="260.78" y="0">n</tspan><tspan x="271.06" y="0">t</tspan><tspan class="cls-22" x="277.34" y="0">r</tspan><tspan x="283.62" y="0">e </tspan></text><text class="cls-10" transform="translate(860.22 560.45)"><tspan class="cls-30">e</tspan><tspan x="9.58" y="0">t des locaux co</tspan><tspan class="cls-30" x="131.88" y="0">m</tspan><tspan class="cls-33" x="146.97" y="0">muns</tspan></text></g></g><g class="cls-7"><g class="cls-34"><rect class="cls-9" x="794.65" y="597.64" width="323.15" height="80.32" rx="12"/><text class="cls-10" transform="translate(808.42 634.86)">C<tspan class="cls-22" x="12.65" y="0">r</tspan><tspan x="18.94" y="0">éer des esp</tspan><tspan class="cls-16" x="112.34" y="0">a</tspan><tspan x="121.95" y="0">ces ou</tspan><tspan class="cls-13" x="175.08" y="0">v</tspan><tspan x="183.44" y="0">e</tspan><tspan class="cls-21" x="193.05" y="0">r</tspan><tspan class="cls-35" x="199.76" y="0">t</tspan><tspan x="205.97" y="0">s </tspan><tspan class="cls-30" x="219.7" y="0">e</tspan><tspan x="229.28" y="0">t ﬂuides </tspan></text><text class="cls-10" transform="translate(852.27 654.86)">app<tspan class="cls-22" x="30.67" y="0">r</tspan><tspan x="36.95" y="0">opriables par </tspan><tspan class="cls-22" x="148.32" y="0">t</tspan><tspan x="154.47" y="0">ou</tspan><tspan class="cls-22" x="174.8" y="0">.</tspan><tspan class="cls-36" x="178.95" y="0">t</tspan><tspan class="cls-19" x="185.13" y="0">e</tspan><tspan class="cls-33" x="194.58" y="0">.s</tspan></text></g></g><g class="cls-7"><g class="cls-37"><rect class="cls-9" x="794.65" y="217.8" width="323.15" height="80.32" rx="12"/><text class="cls-10" transform="translate(806.06 245.02)">« Un qua<tspan class="cls-38" x="72.31" y="0">r</tspan><tspan x="79.02" y="0">tier animé sur son pou</tspan><tspan class="cls-38" x="260.53" y="0">r</tspan><tspan class="cls-36" x="267.24" y="0">t</tspan><tspan x="273.42" y="0">our </tspan></text><text class="cls-10" transform="translate(833.05 265.02)"><tspan class="cls-15">a</tspan><tspan class="cls-16" x="9.59" y="0">v</tspan><tspan x="17.95" y="0">ec des esp</tspan><tspan class="cls-16" x="104.79" y="0">a</tspan><tspan x="114.41" y="0">ces plus i</tspan><tspan class="cls-19" x="191.28" y="0">n</tspan><tspan x="201.58" y="0">times </tspan></text><text class="cls-10" transform="translate(850.2 285.01)">au coeur des i<tspan class="cls-30" x="113.96" y="0">m</tspan><tspan x="129.04" y="0">meubles »</tspan></text></g></g><g class="cls-7"><g class="cls-39"><text class="cls-40" transform="translate(875.1 180.17)"><tspan class="cls-41">E</tspan><tspan x="11.07" y="0">S</tspan><tspan class="cls-42" x="22.34" y="0">P</tspan><tspan class="cls-43" x="32.69" y="0">A</tspan><tspan x="45.36" y="0">C</tspan><tspan class="cls-41" x="58.3" y="0">E</tspan><tspan class="cls-14" x="69.37" y="0">S PUB</tspan><tspan class="cls-44" x="122.24" y="0">L</tspan><tspan class="cls-45" x="132.21" y="0">ICS</tspan></text><rect class="cls-46" x="794.65" y="143.62" width="323.15" height="58.97" rx="12"/></g></g><g class="cls-7"><g class="cls-47"><rect class="cls-9" x="794.65" y="693.54" width="323.15" height="80.32" rx="12"/><text class="cls-10" transform="translate(810.36 730.77)"><tspan class="cls-48">D</tspan><tspan class="cls-13" x="13.03" y="0">év</tspan><tspan x="30.92" y="0">elopper un qua</tspan><tspan class="cls-38" x="153.21" y="0">r</tspan><tspan x="159.93" y="0">tier co</tspan><tspan class="cls-30" x="211.12" y="0">n</tspan><tspan x="221.54" y="0">ne</tspan><tspan class="cls-49" x="241.61" y="0">c</tspan><tspan class="cls-50" x="251.06" y="0">t</tspan><tspan class="cls-45" x="257.23" y="0">é au </tspan></text><text class="cls-10" transform="translate(867.18 750.76)">pl<tspan class="cls-30" x="15.34" y="0">a</tspan><tspan class="cls-51" x="24.98" y="0">t</tspan><tspan x="31.16" y="0">eau des Semailles</tspan></text></g></g><g class="cls-7"><g class="cls-52"><rect class="cls-53" x="71.81" y="502.68" width="323.15" height="80.32" rx="12"/><text class="cls-10" transform="translate(95.67 539.9)">Amén<tspan class="cls-54" x="47.14" y="0">a</tspan><tspan class="cls-55" x="56.68" y="0">g</tspan><tspan x="66.01" y="0">er des p</tspan><tspan class="cls-30" x="131.22" y="0">o</tspan><tspan class="cls-56" x="141.17" y="0">t</tspan><tspan class="cls-54" x="147.38" y="0">a</tspan><tspan class="cls-55" x="156.92" y="0">g</tspan><tspan x="166.25" y="0">e</tspan><tspan class="cls-57" x="175.86" y="0">r</tspan><tspan x="182.21" y="0">s co</tspan><tspan class="cls-30" x="215.4" y="0">m</tspan><tspan x="230.49" y="0">muns </tspan></text><text class="cls-10" transform="translate(150.85 559.9)">pour les habi<tspan class="cls-58" x="105.66" y="0">t</tspan><tspan x="111.85" y="0">a</tspan><tspan class="cls-59" x="121.53" y="0">n</tspan><tspan x="131.81" y="0">t</tspan><tspan class="cls-60" x="138.09" y="0">.</tspan><tspan class="cls-19" x="142.25" y="0">e</tspan><tspan class="cls-61" x="151.7" y="0">.s</tspan></text></g></g><g class="cls-7"><g class="cls-62"><text class="cls-63" transform="translate(153.88 180.17)">ENVI<tspan class="cls-64" x="42.7" y="0">R</tspan><tspan x="54.88" y="0">ONNEMENT</tspan></text><rect class="cls-65" x="71.81" y="143.62" width="323.15" height="58.97" rx="12"/></g></g><g class="cls-7"><g class="cls-66"><rect class="cls-53" x="71.81" y="407.72" width="323.15" height="80.32" rx="12"/><text class="cls-10" transform="translate(118.72 444.94)"><tspan class="cls-67">C</tspan><tspan x="12.8" y="0">o</tspan><tspan class="cls-68" x="22.79" y="0">n</tspan><tspan x="33.23" y="0">ne</tspan><tspan class="cls-30" x="53.3" y="0">c</tspan><tspan class="cls-69" x="62.73" y="0">t</tspan><tspan x="68.9" y="0">er les esp</tspan><tspan class="cls-56" x="146.95" y="0">a</tspan><tspan x="156.56" y="0">ces </tspan><tspan class="cls-13" x="189.38" y="0">v</tspan><tspan x="197.73" y="0">e</tspan><tspan class="cls-38" x="207.34" y="0">r</tspan><tspan class="cls-57" x="214.05" y="0">t</tspan><tspan x="220.28" y="0">s </tspan></text><text class="cls-10" transform="translate(179.21 464.94)"><tspan class="cls-70">av</tspan><tspan x="17.96" y="0">ec le </tspan><tspan class="cls-71" x="61.04" y="0">V</tspan><tspan x="71.46" y="0">oi</tspan><tspan class="cls-22" x="86.11" y="0">r</tspan><tspan class="cls-30" x="92.39" y="0">e</tspan><tspan x="101.97" y="0">t</tspan></text></g></g><g class="cls-7"><g class="cls-72"><rect class="cls-53" x="71.81" y="217.8" width="323.15" height="80.32" rx="12"/><text class="cls-10" transform="translate(133.65 255.02)">Pla<tspan class="cls-73" x="25.47" y="0">n</tspan><tspan class="cls-69" x="35.75" y="0">t</tspan><tspan x="41.92" y="0">er de </tspan><tspan class="cls-74" x="87.68" y="0">g</tspan><tspan class="cls-75" x="97.15" y="0">r</tspan><tspan x="103.39" y="0">ands arb</tspan><tspan class="cls-76" x="174.53" y="0">r</tspan><tspan x="180.79" y="0">es </tspan></text><text class="cls-10" transform="translate(120.96 275.02)"><tspan class="cls-41">e</tspan><tspan x="9.59" y="0">t amener de la biodi</tspan><tspan class="cls-15" x="171.05" y="0">v</tspan><tspan x="179.39" y="0">e</tspan><tspan class="cls-77" x="189" y="0">r</tspan><tspan x="195.35" y="0">si</tspan><tspan class="cls-69" x="208.98" y="0">t</tspan><tspan x="215.15" y="0">é</tspan></text></g></g><g class="cls-7"><g class="cls-78"><rect class="cls-53" x="71.81" y="597.64" width="323.15" height="80.32" rx="12"/><text class="cls-10" transform="translate(158.43 634.86)"><tspan class="cls-67">C</tspan><tspan x="12.8" y="0">ouloir de </tspan><tspan class="cls-15" x="88.76" y="0">v</tspan><tspan x="97.09" y="0">e</tspan><tspan class="cls-22" x="106.7" y="0">r</tspan><tspan x="112.98" y="0">du</tspan><tspan class="cls-60" x="133.9" y="0">r</tspan><tspan x="140.18" y="0">e </tspan></text><text class="cls-10" transform="translate(151.39 654.86)">e<tspan class="cls-79" x="9.61" y="0">n</tspan><tspan x="19.91" y="0">t</tspan><tspan class="cls-80" x="26.19" y="0">r</tspan><tspan x="32.47" y="0">e les i</tspan><tspan class="cls-41" x="79.7" y="0">m</tspan><tspan x="94.8" y="0">meubles</tspan></text></g></g><g class="cls-7"><g class="cls-81"><rect class="cls-53" x="71.81" y="693.54" width="323.15" height="80.32" rx="12"/><text class="cls-10" transform="translate(128.43 730.77)">M<tspan class="cls-41" x="15.82" y="0">e</tspan><tspan class="cls-82" x="25.42" y="0">t</tspan><tspan x="31.97" y="0">t</tspan><tspan class="cls-80" x="38.25" y="0">r</tspan><tspan x="44.53" y="0">e des arb</tspan><tspan class="cls-54" x="119.52" y="0">r</tspan><tspan x="125.78" y="0">es à ﬂeu</tspan><tspan class="cls-57" x="194.51" y="0">r</tspan><tspan x="200.86" y="0">s </tspan></text><text class="cls-10" transform="translate(166.82 750.76)">pour les abeilles</text></g></g><g class="cls-7"><g class="cls-83"><rect class="cls-84" x="433.7" y="407.72" width="323.15" height="80.32" rx="12"/><text class="cls-10" transform="translate(460.62 454.94)"><tspan class="cls-19">F</tspan><tspan class="cls-13" x="10.28" y="0">a</tspan><tspan x="19.89" y="0">cili</tspan><tspan class="cls-11" x="43.52" y="0">t</tspan><tspan x="49.68" y="0">er l</tspan><tspan class="cls-85" x="75.31" y="0">’</tspan><tspan class="cls-13" x="79.4" y="0">a</tspan><tspan class="cls-14" x="89.01" y="0">ccès à l’i</tspan><tspan class="cls-86" x="159.55" y="0">n</tspan><tspan class="cls-51" x="169.83" y="0">t</tspan><tspan x="176" y="0">e</tspan><tspan class="cls-87" x="185.61" y="0">r</tspan><tspan class="cls-22" x="192.43" y="0">f</tspan><tspan class="cls-16" x="198.45" y="0">a</tspan><tspan x="208.06" y="0">ce t</tspan><tspan class="cls-19" x="238.19" y="0">r</tspan><tspan x="244.44" y="0">am</tspan></text></g></g><g class="cls-7"><g class="cls-88"><rect class="cls-84" x="433.7" y="312.76" width="323.15" height="80.32" rx="12"/><text class="cls-10" transform="translate(494.44 359.98)">Privilégier les pi<tspan class="cls-30" x="127.92" y="0">é</tspan><tspan class="cls-36" x="137.5" y="0">t</tspan><tspan x="143.67" y="0">on.n</tspan><tspan class="cls-59" x="178.86" y="0">e</tspan><tspan x="188.29" y="0">.s </tspan></text></g></g><g class="cls-7"><g class="cls-89"><rect class="cls-84" x="433.7" y="693.54" width="323.15" height="80.32" rx="12"/><text class="cls-10" transform="translate(443.94 740.77)">Amén<tspan class="cls-22" x="47.14" y="0">a</tspan><tspan class="cls-90" x="56.7" y="0">g</tspan><tspan x="66.01" y="0">er des </tspan><tspan class="cls-28" x="120.72" y="0">v</tspan><tspan x="129.06" y="0">élo</tspan><tspan class="cls-16" x="153.5" y="0">s</tspan><tspan class="cls-15" x="162.39" y="0">t</tspan><tspan class="cls-41" x="168.59" y="0">a</tspan><tspan x="178.25" y="0">tions cou</tspan><tspan class="cls-28" x="253.17" y="0">v</tspan><tspan x="261.5" y="0">e</tspan><tspan class="cls-91" x="271.11" y="0">r</tspan><tspan class="cls-51" x="277.84" y="0">t</tspan><tspan x="284.02" y="0">es</tspan></text></g></g><g class="cls-7"><g class="cls-92"><rect class="cls-84" x="433.7" y="502.68" width="323.15" height="80.32" rx="12"/><text class="cls-10" transform="translate(454.67 539.9)">Ne pas p<tspan class="cls-24" x="72.18" y="0">r</tspan><tspan x="78.44" y="0">oposer de </tspan><tspan class="cls-13" x="163.64" y="0">s</tspan><tspan class="cls-28" x="172.53" y="0">t</tspan><tspan class="cls-41" x="178.72" y="0">a</tspan><tspan x="188.39" y="0">tio</tspan><tspan class="cls-93" x="209.32" y="0">n</tspan><tspan x="219.76" y="0">neme</tspan><tspan class="cls-25" x="264.56" y="0">n</tspan><tspan x="274.84" y="0">t </tspan></text><text class="cls-10" transform="translate(552.37 559.9)">en su<tspan class="cls-87" x="44.14" y="0">r</tspan><tspan class="cls-76" x="50.96" y="0">f</tspan><tspan class="cls-16" x="56.95" y="0">a</tspan><tspan x="66.56" y="0">ce</tspan></text></g></g><g class="cls-7"><g class="cls-94"><rect class="cls-84" x="433.7" y="217.8" width="323.15" height="80.32" rx="12"/><text class="cls-10" transform="translate(459.63 255.02)"><tspan class="cls-95">D</tspan><tspan x="13.03" y="0">o</tspan><tspan class="cls-96" x="23.02" y="0">n</tspan><tspan x="33.44" y="0">ner d</tspan><tspan class="cls-13" x="75.28" y="0">a</tspan><tspan class="cls-24" x="84.89" y="0">v</tspan><tspan class="cls-14" x="93.17" y="0">a</tspan><tspan class="cls-86" x="102.85" y="0">n</tspan><tspan class="cls-16" x="113.13" y="0">t</tspan><tspan class="cls-24" x="119.34" y="0">a</tspan><tspan class="cls-12" x="128.88" y="0">g</tspan><tspan x="138.2" y="0">e de pl</tspan><tspan class="cls-13" x="192.89" y="0">a</tspan><tspan class="cls-14" x="202.5" y="0">ce à une </tspan></text><text class="cls-10" transform="translate(493.81 275.02)">mobili<tspan class="cls-22" x="49.86" y="0">t</tspan><tspan x="56.02" y="0">é douce sécurisée</tspan></text></g></g><g class="cls-7"><g class="cls-97"><text class="cls-98" transform="translate(522.24 178.67)">DÉP<tspan class="cls-99" x="36.18" y="0">L</tspan><tspan class="cls-43" x="46.4" y="0">A</tspan><tspan x="59.08" y="0">CEMEN</tspan><tspan class="cls-26" x="124.25" y="0">T</tspan><tspan x="134.67" y="0">S</tspan></text><rect class="cls-100" x="433.7" y="143.62" width="323.15" height="55.97" rx="12"/></g></g><g class="cls-7"><g class="cls-101"><rect class="cls-84" x="433.7" y="597.64" width="323.15" height="80.32" rx="12"/><text class="cls-10" transform="translate(500.36 634.86)">Mutualiser les parkin<tspan class="cls-59" x="171.32" y="0">g</tspan><tspan x="180.72" y="0">s </tspan></text><text class="cls-10" transform="translate(439.66 654.86)"><tspan class="cls-30">e</tspan><tspan x="9.58" y="0">t </tspan><tspan class="cls-22" x="20.63" y="0">r</tspan><tspan x="26.91" y="0">édui</tspan><tspan class="cls-24" x="62.1" y="0">r</tspan><tspan x="68.36" y="0">e les pl</tspan><tspan class="cls-57" x="126.27" y="0">a</tspan><tspan class="cls-14" x="135.9" y="0">ces de </tspan><tspan class="cls-13" x="193.68" y="0">st</tspan><tspan class="cls-30" x="208.78" y="0">a</tspan><tspan x="218.43" y="0">tio</tspan><tspan class="cls-30" x="239.36" y="0">n</tspan><tspan x="249.78" y="0">neme</tspan><tspan class="cls-19" x="294.58" y="0">n</tspan><tspan x="304.88" y="0">t</tspan></text></g></g></g><polyline class="cls-102" points="1139.69 232.03 1139.69 749.7 1133.69 749.7 1133.69 232.03"/><g class="cls-103"><rect class="cls-104" x="1127.76" y="217.8" width="17.86" height="24.54"/></g><g class="cls-105"><rect class="cls-104" x="1127.76" y="739.4" width="17.86" height="24.54"/></g><polyline class="cls-106" points="778.75 232.03 778.75 749.7 772.75 749.7 772.75 232.03"/><g class="cls-107"><rect class="cls-108" x="766.82" y="217.8" width="17.86" height="24.54"/></g><g class="cls-109"><rect class="cls-108" x="766.82" y="739.4" width="17.86" height="24.54"/></g><polyline class="cls-110" points="417.33 232.03 417.33 749.7 411.33 749.7 411.33 232.03"/><g class="cls-111"><rect class="cls-112" x="405.4" y="217.8" width="17.86" height="24.54"/></g><g class="cls-113"><rect class="cls-112" x="405.4" y="739.4" width="17.86" height="24.54"/></g><text class="cls-114" transform="translate(92.63 124.43)">Enjeux thém<tspan class="cls-115" x="134.81" y="0">a</tspan><tspan x="147.67" y="0">tique</tspan><tspan class="cls-59" x="202.85" y="0">s</tspan><tspan x="214.56" y="0">, cla</tspan><tspan class="cls-116" x="258.64" y="0">s</tspan><tspan x="270.43" y="0">sés par o</tspan><tspan class="cls-54" x="368.63" y="0">r</tspan><tspan x="376.99" y="0">d</tspan><tspan class="cls-22" x="391.1" y="0">r</tspan><tspan x="399.47" y="0">e de </tspan><tspan class="cls-117" x="451.94" y="0">r</tspan><tspan x="460.31" y="0">écur</tspan><tspan class="cls-54" x="508.07" y="0">r</tspan><tspan x="516.42" y="0">ence lo</tspan><tspan class="cls-118" x="594.76" y="0">r</tspan><tspan x="603.23" y="0">s des discu</tspan><tspan class="cls-54" x="725.46" y="0">s</tspan><tspan x="737.22" y="0">sions</tspan></text><g class="cls-6"><g class="cls-7"><g class="cls-119"><rect class="cls-53" x="71.81" y="312.76" width="323.15" height="80.32" rx="12"/><text class="cls-10" transform="translate(141.06 359.98)"><tspan class="cls-120">V</tspan><tspan x="10.44" y="0">é</tspan><tspan class="cls-121" x="20.05" y="0">g</tspan><tspan class="cls-41" x="29.36" y="0">é</tspan><tspan class="cls-58" x="38.95" y="0">t</tspan><tspan x="45.14" y="0">aliser les </tspan><tspan class="cls-69" x="122.27" y="0">t</tspan><tspan x="128.45" y="0">oitu</tspan><tspan class="cls-54" x="159.71" y="0">r</tspan><tspan x="165.98" y="0">es</tspan></text></g></g></g></g></g></svg>