<svg xmlns="http://www.w3.org/2000/svg" xmlns:xlink="http://www.w3.org/1999/xlink" viewBox="0 0 1190.55 841.89"><defs><style>.cls-1,.cls-105,.cls-106,.cls-109,.cls-112,.cls-114,.cls-118,.cls-18,.cls-21,.cls-22,.cls-23,.cls-24,.cls-25,.cls-26,.cls-27,.cls-29,.cls-30,.cls-31,.cls-32,.cls-33,.cls-34,.cls-36,.cls-37,.cls-38,.cls-39,.cls-40,.cls-41,.cls-42,.cls-43,.cls-45,.cls-46,.cls-47,.cls-48,.cls-49,.cls-50,.cls-51,.cls-52,.cls-55,.cls-59,.cls-60,.cls-61,.cls-62,.cls-63,.cls-64,.cls-65,.cls-66,.cls-67,.cls-68,.cls-69,.cls-70,.cls-71,.cls-72,.cls-73,.cls-74,.cls-75,.cls-76,.cls-77,.cls-85,.cls-93,.cls-99{fill:none;}.cls-2{isolation:isolate;}.cls-3{clip-path:url(#clip-path);}.cls-4{clip-path:url(#clip-path-3);}.cls-5{opacity:0.2;}.cls-6{clip-path:url(#clip-path-4);}.cls-7{clip-path:url(#clip-path-5);}.cls-8{clip-path:url(#clip-path-6);}.cls-9{opacity:0.5;}.cls-10{clip-path:url(#clip-path-7);}.cls-11{fill:#5c782a;}.cls-12{clip-path:url(#clip-path-8);}.cls-13{clip-path:url(#clip-path-9);}.cls-14{clip-path:url(#clip-path-10);}.cls-15{clip-path:url(#clip-path-11);}.cls-16,.cls-88{opacity:0.4;}.cls-16{mix-blend-mode:multiply;}.cls-17{clip-path:url(#clip-path-12);}.cls-105,.cls-106,.cls-109,.cls-112,.cls-18{stroke:#5baf31;}.cls-109,.cls-18{stroke-width:20px;}.cls-18{stroke-dasharray:12.4 12.4;}.cls-19{fill:#5baf31;}.cls-20{clip-path:url(#clip-path-13);}.cls-21,.cls-22,.cls-23,.cls-24,.cls-25,.cls-26,.cls-27,.cls-29,.cls-30,.cls-31,.cls-32,.cls-33,.cls-34,.cls-36,.cls-37,.cls-38,.cls-39,.cls-40,.cls-41,.cls-42,.cls-43,.cls-45,.cls-46,.cls-47,.cls-48,.cls-49,.cls-50,.cls-51,.cls-52,.cls-55{stroke:#000;}.cls-114,.cls-21,.cls-22,.cls-23,.cls-24,.cls-25,.cls-26,.cls-27,.cls-29,.cls-30,.cls-31,.cls-32,.cls-33,.cls-34,.cls-36,.cls-37,.cls-38,.cls-39,.cls-40,.cls-41,.cls-42,.cls-43,.cls-45,.cls-46,.cls-47,.cls-48,.cls-49,.cls-50,.cls-51,.cls-52,.cls-59,.cls-60,.cls-61,.cls-62,.cls-63,.cls-64,.cls-65,.cls-66,.cls-67,.cls-68,.cls-69,.cls-70,.cls-71,.cls-72,.cls-73,.cls-74,.cls-75,.cls-76,.cls-77{stroke-linecap:round;}.cls-21,.cls-22,.cls-23,.cls-24,.cls-25,.cls-26,.cls-27,.cls-29,.cls-30,.cls-31,.cls-32,.cls-33,.cls-34,.cls-36,.cls-37,.cls-38,.cls-39,.cls-40,.cls-41,.cls-42,.cls-43,.cls-45,.cls-46,.cls-47,.cls-48,.cls-49,.cls-50,.cls-51,.cls-52,.cls-59,.cls-60,.cls-61,.cls-62,.cls-63,.cls-64,.cls-65,.cls-66,.cls-67,.cls-68,.cls-69,.cls-70,.cls-71,.cls-72,.cls-73,.cls-74,.cls-75,.cls-76,.cls-77{stroke-linejoin:round;}.cls-21,.cls-22,.cls-23,.cls-24,.cls-25,.cls-26,.cls-27,.cls-29,.cls-30,.cls-31,.cls-32,.cls-33,.cls-34,.cls-36,.cls-37,.cls-38,.cls-39,.cls-40,.cls-41,.cls-42,.cls-43,.cls-45,.cls-46,.cls-47,.cls-48,.cls-49,.cls-50,.cls-51,.cls-52{stroke-width:3px;}.cls-21{stroke-dasharray:0 6.19;}.cls-22{stroke-dasharray:0 5.87;}.cls-23{stroke-dasharray:0 6.17;}.cls-24{stroke-dasharray:0 6.05;}.cls-25{stroke-dasharray:0 5.98;}.cls-26{stroke-dasharray:0 6.42;}.cls-28{clip-path:url(#clip-path-14);}.cls-29{stroke-dasharray:0 6.34;}.cls-30{stroke-dasharray:0 6.07;}.cls-31{stroke-dasharray:0 5.85;}.cls-32{stroke-dasharray:0 6.36;}.cls-33{stroke-dasharray:0 6.21;}.cls-34{stroke-dasharray:0 5.88;}.cls-35{clip-path:url(#clip-path-15);}.cls-36{stroke-dasharray:0 6.39;}.cls-37{stroke-dasharray:0 5.77;}.cls-38{stroke-dasharray:0 6.18;}.cls-39{stroke-dasharray:0 5.75;}.cls-40{stroke-dasharray:0 6.35;}.cls-41{stroke-dasharray:0 6.14;}.cls-42{stroke-dasharray:0 5.99;}.cls-43{stroke-dasharray:0 6.3;}.cls-44{clip-path:url(#clip-path-16);}.cls-45{stroke-dasharray:0 6.41;}.cls-46{stroke-dasharray:0 5.82;}.cls-47{stroke-dasharray:0 5.9;}.cls-48{stroke-dasharray:0 6.1;}.cls-49{stroke-dasharray:0 6.47;}.cls-50{stroke-dasharray:0 6.07;}.cls-51{stroke-dasharray:0 6.29;}.cls-52{stroke-dasharray:0 5.99;}.cls-53{clip-path:url(#clip-path-17);}.cls-54{clip-path:url(#clip-path-18);}.cls-55{stroke-width:0.33px;}.cls-56{clip-path:url(#clip-path-19);}.cls-57{clip-path:url(#clip-path-20);}.cls-58{clip-path:url(#clip-path-21);}.cls-59,.cls-60,.cls-61,.cls-62,.cls-63,.cls-64,.cls-65,.cls-66,.cls-67,.cls-68,.cls-69,.cls-70,.cls-71,.cls-72,.cls-73,.cls-74,.cls-75,.cls-76,.cls-77,.cls-85{stroke:#cd1719;}.cls-59{stroke-dasharray:0 1.99;}.cls-60{stroke-dasharray:0 1.99;}.cls-61{stroke-dasharray:0 2.13;}.cls-62{stroke-dasharray:0 2.08;}.cls-63{stroke-dasharray:0 2;}.cls-64{stroke-dasharray:0 2.03;}.cls-65{stroke-dasharray:0 2.01;}.cls-66{stroke-dasharray:0 1.88;}.cls-67{stroke-dasharray:0 2.1;}.cls-68{stroke-dasharray:0 1.92;}.cls-69{stroke-dasharray:0 2.41;}.cls-70{stroke-dasharray:0 2.04;}.cls-71{stroke-dasharray:0 2.03;}.cls-72{stroke-dasharray:0 2.01;}.cls-73{stroke-dasharray:0 2;}.cls-74{stroke-dasharray:0 1.99;}.cls-75{stroke-dasharray:0 1.99;}.cls-76{stroke-dasharray:0 1.99;}.cls-78{clip-path:url(#clip-path-23);}.cls-79{fill:#afcc46;}.cls-80{clip-path:url(#clip-path-24);}.cls-81{clip-path:url(#clip-path-25);}.cls-82{clip-path:url(#clip-path-26);}.cls-83{opacity:0.6;}.cls-84{clip-path:url(#clip-path-27);}.cls-85{stroke-width:5px;}.cls-86{clip-path:url(#clip-path-28);}.cls-87{clip-path:url(#clip-path-29);}.cls-89{clip-path:url(#clip-path-30);}.cls-90{fill:#ffcf1b;}.cls-91{clip-path:url(#clip-path-31);}.cls-92{clip-path:url(#clip-path-32);}.cls-114,.cls-93,.cls-99{stroke:#ffcf1b;}.cls-93{stroke-width:6px;}.cls-94{clip-path:url(#clip-path-33);}.cls-95{clip-path:url(#clip-path-34);}.cls-96{clip-path:url(#clip-path-35);}.cls-97{opacity:0.9;}.cls-98{clip-path:url(#clip-path-36);}.cls-99{stroke-width:1.87px;}.cls-100{clip-path:url(#clip-path-37);}.cls-101{clip-path:url(#clip-path-38);}.cls-102{clip-path:url(#clip-path-39);}.cls-103{clip-path:url(#clip-path-40);}.cls-104{fill:#fff;}.cls-106{stroke-miterlimit:10;}.cls-107{opacity:0.3;}.cls-108{clip-path:url(#clip-path-42);}.cls-110{clip-path:url(#clip-path-44);}.cls-111{clip-path:url(#clip-path-45);}.cls-112{stroke-width:10px;stroke-dasharray:12.39 12.39;}.cls-113{clip-path:url(#clip-path-46);}.cls-114{stroke-width:15px;}.cls-115{clip-path:url(#clip-path-47);}.cls-116{clip-path:url(#clip-path-48);}.cls-117{fill:#5ab8b0;}.cls-118{stroke:#588fa5;}.cls-119{fill:#588fa5;}.cls-120{font-size:24px;font-family:GTAmerica-Light, GT America;}.cls-120,.cls-144{font-weight:300;}.cls-121{letter-spacing:0em;}.cls-122{letter-spacing:-0.01em;}.cls-123{letter-spacing:0em;}.cls-124{letter-spacing:0em;}.cls-125{letter-spacing:0.02em;}.cls-126{letter-spacing:-0.01em;}.cls-127{letter-spacing:-0.01em;}.cls-128{letter-spacing:0.02em;}.cls-129{letter-spacing:-0.01em;}.cls-130{letter-spacing:0.01em;}.cls-131{letter-spacing:0em;}.cls-132{letter-spacing:-0.01em;}.cls-133{letter-spacing:-0.01em;}.cls-134{letter-spacing:-0.01em;}.cls-135{letter-spacing:0em;}.cls-136{letter-spacing:0.02em;}.cls-137{letter-spacing:-0.01em;}.cls-138{letter-spacing:-0.02em;}.cls-139{letter-spacing:0em;}.cls-140{letter-spacing:-0.01em;}.cls-141{letter-spacing:0em;}.cls-142{letter-spacing:-0.04em;}.cls-143{letter-spacing:-0.06em;}.cls-144{font-size:30px;font-family:GTAmerica-LightItalic, GT America;font-style:italic;}.cls-145{letter-spacing:0em;}.cls-146{letter-spacing:0em;}.cls-147{letter-spacing:0em;}.cls-148{letter-spacing:-0.01em;}.cls-149{letter-spacing:0.03em;}.cls-150{letter-spacing:-0.02em;}.cls-151{letter-spacing:0em;}.cls-152{letter-spacing:-0.01em;}.cls-153{letter-spacing:-0.01em;}.cls-154{letter-spacing:-0.02em;}</style><clipPath id="clip-path"><rect class="cls-1" width="1190.55" height="841.89"/></clipPath><clipPath id="clip-path-3"><rect class="cls-1" width="1190.55" height="841.89"/></clipPath><clipPath id="clip-path-4"><rect class="cls-1" x="416.55" y="676.86" width="114.02" height="127.2"/></clipPath><clipPath id="clip-path-5"><rect class="cls-1" x="598.32" y="733.98" width="130.68" height="70.08"/></clipPath><clipPath id="clip-path-6"><rect class="cls-1" x="786.83" y="785.85" width="65.9" height="18.21"/></clipPath><clipPath id="clip-path-7"><rect class="cls-1" x="527.1" y="719.49" width="90.64" height="84.56"/></clipPath><clipPath id="clip-path-8"><rect class="cls-1" x="413.78" y="657.08" width="31.76" height="50.92"/></clipPath><clipPath id="clip-path-9"><rect class="cls-1" x="715.61" y="757.77" width="78.35" height="46.28"/></clipPath><clipPath id="clip-path-10"><rect class="cls-1" x="654.66" y="665.38" width="268.8" height="85.1"/></clipPath><clipPath id="clip-path-11"><rect class="cls-1" x="413.13" y="588.28" width="236.5" height="112.88"/></clipPath><clipPath id="clip-path-12"><rect class="cls-1" x="544.88" y="244.11" width="170.76" height="356.98"/></clipPath><clipPath id="clip-path-13"><rect class="cls-1" x="803.47" y="276.34" width="121.91" height="139.69"/></clipPath><clipPath id="clip-path-14"><rect class="cls-1" x="729.78" y="299.02" width="123.05" height="139.13"/></clipPath><clipPath id="clip-path-15"><rect class="cls-1" x="609.93" y="466.69" width="212.99" height="133.6"/></clipPath><clipPath id="clip-path-16"><rect class="cls-1" x="726.66" y="505.66" width="221.41" height="155"/></clipPath><clipPath id="clip-path-17"><rect class="cls-1" x="926.16" y="371.81" width="56.98" height="175.67"/></clipPath><clipPath id="clip-path-18"><rect class="cls-1" x="952.94" y="365.43" width="62.51" height="178.08"/></clipPath><clipPath id="clip-path-19"><rect class="cls-1" x="528.31" y="336.52" width="114.38" height="190.84"/></clipPath><clipPath id="clip-path-20"><rect class="cls-1" x="599.75" y="230.79" width="73.28" height="74.33"/></clipPath><clipPath id="clip-path-21"><rect class="cls-1" x="807.53" y="130.93" width="83.2" height="104.1"/></clipPath><clipPath id="clip-path-23"><rect class="cls-1" x="652.32" y="482.22" width="253.84" height="139.53"/></clipPath><clipPath id="clip-path-24"><rect class="cls-1" x="771.38" y="293.76" width="113.53" height="127.58"/></clipPath><clipPath id="clip-path-25"><rect class="cls-1" x="689.63" y="130.48" width="146.41" height="126.97"/></clipPath><clipPath id="clip-path-26"><rect class="cls-1" x="580.82" y="248.97" width="186.43" height="358.32"/></clipPath><clipPath id="clip-path-27"><rect class="cls-1" x="725.58" y="503.72" width="223.49" height="158.29"/></clipPath><clipPath id="clip-path-28"><rect class="cls-1" x="866.01" y="275.1" width="60.79" height="141.82"/></clipPath><clipPath id="clip-path-29"><rect class="cls-1" x="750.35" y="406.32" width="103.93" height="32.96"/></clipPath><clipPath id="clip-path-30"><rect class="cls-1" x="849.81" y="526.13" width="170.26" height="182.08"/></clipPath><clipPath id="clip-path-31"><rect class="cls-1" x="776.95" y="411.76" width="178.04" height="97.77"/></clipPath><clipPath id="clip-path-32"><rect class="cls-1" x="749.25" y="277.84" width="205.73" height="187.29"/></clipPath><clipPath id="clip-path-33"><rect class="cls-1" x="650.38" y="417.03" width="303.45" height="48.39"/></clipPath><clipPath id="clip-path-34"><rect class="cls-1" x="638.16" y="453" width="316.49" height="173.03"/></clipPath><clipPath id="clip-path-35"><rect class="cls-1" x="756.2" y="464.64" width="68.27" height="64.84"/></clipPath><clipPath id="clip-path-36"><rect class="cls-1" x="711.64" y="634.06" width="122.19" height="168.5"/></clipPath><clipPath id="clip-path-37"><rect class="cls-1" x="480.35" y="553.97" width="142.76" height="195.35"/></clipPath><clipPath id="clip-path-38"><rect class="cls-1" x="907.23" y="622.54" width="150.54" height="216.71"/></clipPath><clipPath id="clip-path-39"><rect class="cls-1" x="912.35" y="603.06" width="253.33" height="114.07"/></clipPath><clipPath id="clip-path-40"><rect class="cls-1" x="985.83" y="359.28" width="63.07" height="177.8"/></clipPath><clipPath id="clip-path-42"><rect class="cls-1" x="518.24" y="155.36" width="432.8" height="132.56"/></clipPath><clipPath id="clip-path-44"><rect class="cls-1" x="1038.68" y="177.96" width="146.13" height="74.78"/></clipPath><clipPath id="clip-path-45"><rect class="cls-1" x="949.11" y="214.49" width="99.64" height="46.67"/></clipPath><clipPath id="clip-path-46"><rect class="cls-1" x="890.59" y="268.96" width="52.84" height="136.39"/></clipPath><clipPath id="clip-path-47"><rect class="cls-1" x="612.22" y="587.86" width="257.5" height="91.5"/></clipPath><clipPath id="clip-path-48"><rect class="cls-1" x="646.79" y="353.85" width="89.52" height="82.98"/></clipPath></defs><title>Plan de travail</title><g class="cls-2"><g id="Calque_1" data-name="Calque 1"><g class="cls-3"><g class="cls-3"><g class="cls-4"><g class="cls-5"><g class="cls-6"><polygon points="425.55 803.05 447.17 744.78 431.57 738.99 451.42 683.86 521.58 709.37 502.8 762.87 492.17 760.13 476.93 803.05 425.55 803.05"/></g></g><g class="cls-5"><g class="cls-7"><polygon points="611.4 803.05 612.68 798.95 607.32 797.19 623.62 740.98 720 769.61 710.08 803.05 611.4 803.05"/></g></g><g class="cls-5"><g class="cls-8"><polygon points="795.83 803.05 843.73 803.05 798.1 792.85 795.83 803.05"/></g></g><g class="cls-9"><g class="cls-10"><polygon class="cls-11" points="557.01 726.49 608.74 742.39 604.21 756.99 584.22 751.47 570.12 803.05 536.1 803.05 541.98 786.5 559.79 790.13 573.31 748.21 552.47 741.68 557.01 726.49"/></g></g><g class="cls-9"><g class="cls-12"><polygon class="cls-11" points="422.78 664.08 425.55 666.14 422.78 673.23 436.54 679.04 426.05 707 422.78 706.56 422.78 664.08"/></g></g><g class="cls-9"><g class="cls-13"><polygon class="cls-11" points="724.61 803.05 780.24 803.05 784.96 775.27 735.02 764.77 724.61 803.05"/></g></g><g class="cls-9"><g class="cls-14"><polygon class="cls-11" points="663.66 707 668.98 672.38 914.46 740.98 912.75 749.48 663.66 707"/></g></g><g class="cls-9"><g class="cls-15"><polygon class="cls-11" points="640.63 658.37 627.16 700.16 422.63 624.68 422.13 595.27 640.63 658.37"/></g></g><g class="cls-16"><g class="cls-17"><line class="cls-18" x1="686" y1="267.79" x2="574.52" y2="583.42"/><polygon class="cls-19" points="691.89 251.11 659.07 268.3 706.64 285.1 691.89 251.11"/><polygon class="cls-19" points="568.63 600.1 601.45 582.91 553.88 566.11 568.63 600.1"/></g></g><g class="cls-9"><g class="cls-20"><line class="cls-21" x1="820.04" y1="299.76" x2="889.75" y2="285.46"/><line class="cls-22" x1="893.83" y1="290.62" x2="914.36" y2="403.28"/><line class="cls-23" x1="908.84" y1="407.39" x2="881.63" y2="412.92"/><line class="cls-24" x1="877.49" y1="407.59" x2="863.5" y2="333.24"/><line class="cls-25" x1="857.08" y1="331.47" x2="824.84" y2="338.1"/><line class="cls-26" x1="820.59" y1="332.42" x2="814.64" y2="304.14"/><path class="cls-27" d="M814,301h0m7.93,37.7h0m41-8.43h0m15.67,83.26h0m36.28-7.37h0M892.78,284.84h0"/></g></g><g class="cls-9"><g class="cls-28"><line class="cls-29" x1="746.51" y1="313.19" x2="774.57" y2="308.09"/><line class="cls-30" x1="778.91" y1="313.47" x2="794.09" y2="387.88"/><line class="cls-31" x1="800.45" y1="389.8" x2="832.08" y2="384.01"/><line class="cls-32" x1="836.18" y1="389.72" x2="841.71" y2="417.79"/><line class="cls-33" x1="836.22" y1="422.04" x2="766" y2="435.08"/><line class="cls-34" x1="761.87" y1="429.87" x2="740.81" y2="317.21"/><path class="cls-27" d="M740.27,314.32h0M763,435.64h0m79.37-14.74h0M835,383.49h0m-40.25,7.37h0m-17-83.34h0"/></g></g><g class="cls-9"><g class="cls-35"><line class="cls-36" x1="810.57" y1="493.92" x2="802.28" y2="521.45"/><line class="cls-37" x1="795.81" y1="522.93" x2="770.83" y2="515.81"/><line class="cls-38" x1="761.98" y1="516.13" x2="679.96" y2="531.18"/><line class="cls-39" x1="675.25" y1="537.24" x2="657.77" y2="595.03"/><line class="cls-40" x1="650.85" y1="595.96" x2="623.47" y2="587.76"/><line class="cls-41" x1="622.18" y1="580.96" x2="645.8" y2="501.52"/><line class="cls-42" x1="652.56" y1="497.46" x2="767.24" y2="475.75"/><line class="cls-43" x1="776.21" y1="476.99" x2="809.4" y2="486.9"/><path class="cls-27" d="M812.42,487.8h0m-42.24-12.61h0M646.67,498.57h0m-26.24,88.28h0m36.51,10.94h0m20-66h0M768.05,515h0m33.31,9.49h0"/></g></g><g class="cls-9"><g class="cls-44"><line class="cls-45" x1="906.86" y1="516.01" x2="934.5" y2="524.3"/><line class="cls-46" x1="935.93" y1="530.8" x2="917.12" y2="595"/><line class="cls-47" x1="912.28" y1="602.1" x2="861.91" y2="656.01"/><line class="cls-48" x1="854.05" y1="656.42" x2="740.08" y2="622.47"/><line class="cls-49" x1="739.05" y1="615.41" x2="747.55" y2="587.56"/><line class="cls-50" x1="754.31" y1="586.2" x2="844.51" y2="613.08"/><line class="cls-51" x1="851.75" y1="609.37" x2="879.84" y2="579.66"/><line class="cls-52" x1="883.71" y1="571.63" x2="899.86" y2="517.04"/><path class="cls-27" d="M900.72,514.16h0M882,577.38h0m-34.59,36.56h0m-98.93-29.48h0M737.16,621.6h0M859.9,658.16h0m56.41-60.37h0m21.26-72.57h0"/></g></g><g class="cls-9"><g class="cls-53"><polygon points="935.16 380.51 942.67 378.81 974.13 546.48 966.76 546.48 935.16 380.51"/></g></g><g class="cls-9"><g class="cls-54"><polygon points="961.94 374.98 974.13 372.43 1006.45 539.96 993.69 542.51 961.94 374.98"/></g></g><path class="cls-55" d="M955,225.82c.79,4.33,78.69,433,81.14,443.46,2.54,10.87,19.36,45.69,27.31,57.8,7.57,11.51,44.91,80.16,48.58,90.06"/><path class="cls-55" d="M954.32,225.94c.78,4.33,78.69,433,81.14,443.5,2.55,10.91,19.42,45.86,27.4,58,8.47,12.88,45.19,81,48.51,89.94"/><path class="cls-55" d="M966.74,230.07c.78,4.3,77.92,429.7,80.28,436.78.77,2.33,1.21,3.93,1.67,5.63a131.26,131.26,0,0,0,5.19,15.33c2.42,6.21,19.44,37.61,35.91,68,15.2,28,29.55,54.51,30.93,58.45"/><path class="cls-55" d="M966.08,230.19c3.18,17.55,77.93,429.74,80.3,436.87.77,2.31,1.21,3.91,1.67,5.6a132.27,132.27,0,0,0,5.21,15.39c2.43,6.26,19.47,37.67,35.94,68.06,15.19,28,29.53,54.46,30.89,58.35"/><path class="cls-55" d="M878.65,695.74c6.19.82,151.75,20.27,164.86,25.33,13.76,5.3,32.81,16.41,40,23.31"/><path class="cls-55" d="M878.56,696.4c1.52.2,151.68,20.26,164.71,25.29C1057,727,1075.91,738,1083,744.86"/><path class="cls-55" d="M878.58,706.88c6.15.82,150.63,20.17,157.78,23.84,1.68.86,3.83,1.84,6.32,3,8.17,3.72,19.35,8.81,27.2,15.78a97.34,97.34,0,0,1,16.51,19.36"/><path class="cls-55" d="M878.49,707.54c1.51.2,150.52,20.15,157.57,23.77,1.69.87,3.85,1.85,6.34,3,8.13,3.7,19.26,8.76,27,15.67a97,97,0,0,1,16.38,19.2"/><g class="cls-5"><g class="cls-56"><polygon points="593.06 343.52 633.69 355.33 575.11 526.35 537.31 514.16 593.06 343.52"/></g></g><g class="cls-5"><g class="cls-57"><polygon points="631.14 237.79 654.38 246.01 650.13 259.33 664.02 264.15 650.98 304.12 623.77 294.76 625.75 288.24 608.75 282.57 620.43 246.29 628.02 248.28 631.14 237.79"/></g></g><g class="cls-5"><g class="cls-58"><polygon points="867.55 137.93 864.43 152.18 872.16 180.17 881.72 193.28 877.47 199.31 871.09 228.01 842.32 234.03 838.85 228.01 816.53 211.71 824.32 199.66 834.95 143.68 826.45 138.01 867.55 137.93"/></g></g></g><line class="cls-59" x1="712.68" y1="253.15" x2="805.95" y2="284.24"/><line class="cls-60" x1="808.85" y1="284.18" x2="968.34" y2="253.28"/><line class="cls-61" x1="971.35" y1="253.69" x2="978.5" y2="255.77"/><line class="cls-62" x1="980.37" y1="257.97" x2="983.35" y2="264.62"/><line class="cls-63" x1="984.12" y1="267.53" x2="1059.28" y2="691.48"/><line class="cls-64" x1="1057.84" y1="693.7" x2="1047.36" y2="701.77"/><line class="cls-65" x1="1045.2" y1="703.86" x2="1040.44" y2="709.02"/><line class="cls-66" x1="1038.7" y1="711.31" x2="1032.91" y2="719.89"/><line class="cls-67" x1="1032.04" y1="718.6" x2="1030.85" y2="711.36"/><line class="cls-68" x1="1029.53" y1="711.86" x2="1024.32" y2="718.77"/><line class="cls-69" x1="1021.97" y1="721.16" x2="1021.08" y2="721.98"/><line class="cls-70" x1="1018.5" y1="723.93" x2="1015.94" y2="725.63"/><line class="cls-71" x1="1013.09" y1="725.89" x2="974" y2="719.83"/><line class="cls-72" x1="971.07" y1="719.12" x2="592.49" y2="610.25"/><line class="cls-73" x1="592.16" y1="608.08" x2="655.48" y2="419.02"/><line class="cls-74" x1="657.69" y1="418.7" x2="707.59" y2="435.33"/><line class="cls-75" x1="709.15" y1="433.75" x2="726.92" y2="379.9"/><line class="cls-76" x1="725.35" y1="378.3" x2="675.45" y2="361.13"/><line class="cls-73" x1="675.15" y1="358.91" x2="710.48" y2="253.48"/><path class="cls-77" d="M710.79,252.53h0M674.51,360.81h0M727.23,379h0m-18.7,56.7h0M655.8,418.07h0M591.53,610h0M973,719.68h0m42.09,6.52h0m5.11-3.41h0m3.54-3.25h0m6.94-9.22h0m1.7,10.35h0m7.37-10.91h0m6.81-7.37h0m12.9-9.93h0M983.77,265.57h0m-4.25-9.5h0m-10.21-3h0M806.89,284.56h0"/><g class="cls-4"><g class="cls-9"><g class="cls-78"><polygon class="cls-79" points="661.32 597.79 680.32 534.9 767.34 518.74 805.04 530.08 816.3 489.22 897.17 510.72 880.16 574.3 846.14 609.73 747.21 579.97 733.32 620.75 661.32 597.79"/></g></g><g class="cls-9"><g class="cls-80"><polygon class="cls-79" points="780.38 306.02 811.28 300.76 819.78 341.86 860.6 333.92 875.91 413.86 845.28 420.34 837.92 379.56 796.82 386.36 780.38 306.02"/></g></g><g class="cls-9"><g class="cls-81"><path class="cls-11" d="M819.64,143.11c3.12,3.12,4.58,5.95,7.09,14.74,1.13,4-.85,18.71-6,28.06-6.29,11.53-13.32,22.4-10.77,28.07,2.47,5.49,11.62,7.37,14.45,17,3.06,10.39.85,17.3-10.48,23.81s-25.55-8-50.14-12.75c-25-4.82-39.16-10.53-51.91-19-14.52-9.68-15.07-19-11.39-31.84s10-22.68,18.19-33.88c4.41-6.05,8.79-14.17,24.38-17.57,19.39-4.23,32.88-1.14,51-1.14s22.4,1.42,25.51,4.54"/></g></g><g class="cls-9"><g class="cls-82"><path class="cls-11" d="M727.31,378.82l-18.65,57L655.8,417.6l18.68-56.75Zm30.54,59.66c-.85-7.09-20-112.68-20.34-116.93,0,0-2.83-18.78-5.31-30.47s-1.63-13.71-5.81-21.83c-4.82-9.35-9.65-12.62-16.47-13.28-6.64-.1-7.64,4.11-10.33,9.21-4.82,10.21-103.75,300.13-106.44,312.24-2.83,12.75-5.67,24.23-.28,27.49,5.1,2.7,8.5,1.14,14.74-2.22,5.24-3.4,7.66-6.53,9.07-10.08s23.39-82.2,25.52-89.64,4.25-7.09,8.85-8.51,93.19-15.94,100.63-21.61c7.05-5.37,7.06-27,6.17-34.37"/></g></g><g class="cls-83"><g class="cls-84"><polyline class="cls-85" points="738.01 618.48 737.44 621.6 859.33 658.16 916.59 597.22 937 525.22 900.15 513.88 897.88 522.95"/></g></g><g class="cls-83"><g class="cls-86"><polyline class="cls-85" points="887.11 285.41 892.21 284.84 914.89 405.6 878.61 412.97 877.47 406.87"/></g></g><g class="cls-83"><g class="cls-87"><polyline class="cls-85" points="840.9 413.82 842.32 420.76 762.95 435.36 761.82 428.84"/></g></g><g class="cls-88"><g class="cls-89"><path class="cls-90" d="M886.18,678.9c11.86,13.55,47.36-.48,62-19.23,6.84-8.76,19.81-32.86,24.09-61.88,5.14-34.79-2.1-55.28-22.67-55.28-12.05,0-18.6,47.73-24.81,60.18s-30.33,32-34.72,37.59c-14.65,18.75-13.82,27.28-3.9,38.62"/></g></g><g class="cls-88"><g class="cls-91"><path class="cls-90" d="M888.36,502.9c57.29,15.27,60.93-11.55,55.6-42.9-3.81-22.45-4.89-46.68-56.32-39.53-27.57,3.84-101.51,14.24-101.31,37s75,38.22,102,45.43"/></g></g><g class="cls-83"><g class="cls-92"><line class="cls-93" x1="943.91" y1="461.96" x2="763.61" y2="289.95"/><polygon class="cls-90" points="758.25 284.84 759.25 301.46 774.91 285.06 758.25 284.84"/></g></g><g class="cls-83"><g class="cls-94"><line class="cls-93" x1="943.68" y1="461.18" x2="667.35" y2="435.44"/><polygon class="cls-90" points="659.98 434.76 671.07 447.18 673.17 424.6 659.98 434.76"/></g></g><g class="cls-83"><g class="cls-95"><line class="cls-93" x1="944.24" y1="462.64" x2="653.69" y2="617.27"/><polygon class="cls-90" points="647.16 620.75 663.25 625.03 652.6 605.01 647.16 620.75"/></g></g><g class="cls-83"><g class="cls-96"><polyline class="cls-85" points="765.79 475.19 769.75 474.24 812.42 488.08 801.95 525.22 797.25 523.52"/></g></g><g class="cls-97"><g class="cls-98"><path class="cls-99" d="M769.72,757.74,760,755.56m10.89-2.87-9.76-2.17M772,747.65l-9.76-2.18m10.88-2.87-9.76-2.18m10.89-2.87-9.76-2.18m10.89-2.87-9.76-2.18m10.88-2.87-9.76-2.18m10.89-2.87-9.76-2.18m10.89-2.86L769,715.18m10.89-2.87-9.76-2.18M781,707.26l-9.76-2.18m10.89-2.87L772.36,700m10.89-2.87L773.49,695m10.88-2.87-9.76-2.18m10.89-2.87-9.76-2.17"/><polygon class="cls-90" points="783.08 674.97 764 688.08 794.77 694.95 783.08 674.97"/><polygon class="cls-90" points="762.38 767.66 781.47 754.55 750.69 747.68 762.38 767.66"/></g></g><g class="cls-97"><g class="cls-100"><path class="cls-99" d="M543.15,697.31l-9.54-3m11.07-1.83-9.54-3m11.07-1.83-9.54-3m11.07-1.84-9.54-3m11.07-1.83-9.54-3m11.07-1.83-9.54-3m11.07-1.83-9.54-3m11.07-1.83-9.54-3m11.07-1.83-9.54-3m11.07-1.83-9.54-3m11.07-1.83-9.54-3M560,644l-9.54-3m11.07-1.83-9.54-3M563,634.33l-9.54-3m11.07-1.83-9.54-3m11.07-1.84-9.54-3m11.07-1.83-9.54-3M569.16,615l-9.54-3"/><polygon class="cls-90" points="567.79 602.68 547.64 614.11 577.71 623.6 567.79 602.68"/><polygon class="cls-90" points="534.99 706.56 555.13 695.14 525.06 685.64 534.99 706.56"/></g></g><g class="cls-97"><g class="cls-101"><path class="cls-99" d="M988.86,785.5l-10,.17m9.91-5.35-10,.18m9.91-5.35-10,.17m9.91-5.34-10,.17m9.91-5.34-10,.17m9.91-5.34-10,.17m9.91-5.35-10,.18m9.91-5.35-10,.17m9.91-5.34-10,.17m9.91-5.34-10,.17m9.91-5.34L978,734m9.91-5.35-10,.18m9.91-5.35-10,.17m9.91-5.34-10,.17m9.91-5.34-10,.17m9.91-5.35-10,.18m9.91-5.35-10,.17m9.91-5.34-10,.17m9.91-5.34-10,.17m9.91-5.34-10,.17m9.91-5.35-10,.18"/><polygon class="cls-90" points="984.05 796.86 999.53 779.63 968 780.17 984.05 796.86"/></g></g><g class="cls-97"><g class="cls-102"><path class="cls-99" d="M963,664.94l6.15-7.89m-2.15,11,6.15-7.89m-2.15,11,6.15-7.88m-2.15,11,6.14-7.88m2.86,9.78-3.17-9.49m8,7.89-3.14-9.49m8,7.91-3.13-9.5m7.93,7.93-3.1-9.51m7.91,8-3.07-9.52m7.87,8-3-9.53m7.84,8-3-9.54m7.8,8.05-2.93-9.56m7.74,8.11-2.85-9.59m7.65,8.19-2.72-9.62m7.47,8.34-2.43-9.7m6.88,8.79-1.4-9.9m6.11,9.36-.75-10m5.38,9.83.12-10m4.91,10.16.19-10m5,10v-10m5.07,10v-10m5.07,10v-10m5.07,10v-10m5.07,10v-10m5.06,10v-10m5.07,10v-10m5.07,10v-10m5.07,10v-10m5.07,10v-10m5.07,10v-10m5.06,10v-10"/><polygon class="cls-90" points="1123.02 654.77 1106.07 639 1106.07 670.54 1123.02 654.77"/><polygon class="cls-90" points="957.2 654.06 960.87 676.92 980.26 652.06 957.2 654.06"/></g></g><g class="cls-9"><g class="cls-103"><polygon points="1026.29 536.07 1039.9 533.8 1008.43 366.28 994.83 368.83 1026.29 536.07"/></g></g><path class="cls-55" d="M941.86,137.75C942.4,141.27,955,224,955,226.53c0,2.3-.62,24.59-1.78,30.39-.44,2.2-2.22,8.68-4.47,16.88-3.58,13-8,29.21-9.42,36.69a63.4,63.4,0,0,0,0,25.68c.29,1.67,3.4,18.33,7.71,41.39,12.76,68.33,36.52,195.5,36.94,200.58l.15,1.77a118.79,118.79,0,0,1,.42,21.38c-.82,10-4.62,27.13-9,36.68-3.5,7.71-20.46,30.22-31.86,38.12-13.59,9.42-28.64,16.18-39.26,17.63-14.11,1.93-29.73,3.27-48.3,0l-13.09-2.25c-18.8-3.2-50.26-8.58-59.48-10.51-12.07-2.52-24.29-6.2-24.41-6.24L422.83,569.52"/><path class="cls-55" d="M941.2,137.85c.14.86,13.11,86.18,13.11,88.68,0,2.87-.67,24.78-1.76,30.26-.44,2.17-2.3,9-4.47,16.83-3.57,13-8,29.24-9.42,36.75a64,64,0,0,0,0,25.91c.3,1.68,3.41,18.34,7.72,41.41,12.76,68.31,36.51,195.46,36.93,200.5l.15,1.78a118.61,118.61,0,0,1,.41,21.27c-.81,10-4.59,27-8.9,36.46-3.48,7.65-20.31,30-31.63,37.84-13.51,9.37-28.45,16.08-39,17.52-14.06,1.93-29.61,3.26-48.09,0-2.27-.4-7-1.21-13.1-2.24-18.79-3.21-50.25-8.58-59.46-10.51-12-2.52-24.23-6.19-24.35-6.23L423,568.88"/><path class="cls-55" d="M953.49,137.75c.1.71,10.78,71,11.62,78,.94,7.81,1.94,27.55,0,37.8-.79,4.14-3.18,12.64-6,22.48-4.23,15-9,32-9.36,38.14-.55,9.95,2.66,31.42,4,37.9.41,2,42.22,219.12,43.09,233.9.69,11.74-.67,30.28-4.55,41.51-4.76,13.79-9.54,23-17.62,34.11-6.72,9.2-25.06,25.54-33.85,30.14-8.62,4.52-26.55,12-40.64,13.93-14.27,2-22.81,1.12-32.7.12-2.25-.23-4.57-.47-7.06-.69-17.68-1.52-53.29-8.09-65.52-10.49-15.71-3.09-368.68-113.17-372.24-114.28"/><path class="cls-55" d="M952.83,137.85c.1.71,10.78,70.94,11.62,77.94.93,7.78,1.93,27.43,0,37.6-.78,4.12-3.28,13-5.94,22.43-4.23,15-9,32.05-9.37,38.28-.56,10,2.66,31.57,4,38.07,2,10.06,42.25,219.66,43.08,233.81.69,11.67-.66,30.1-4.51,41.26-4.74,13.71-9.49,22.91-17.53,33.92-6.67,9.15-24.9,25.38-33.62,30S914.11,703,900.1,705c-14.18,2-22.69,1.12-32.53.11-2.25-.23-4.58-.47-7.08-.68-17.64-1.52-53.22-8.08-65.44-10.48-15.68-3.08-368.61-113.16-372.17-114.27"/><rect class="cls-104" x="607.54" y="390.62" width="48.34" height="63.49" rx="12"/><rect class="cls-105" x="607.54" y="390.62" width="48.34" height="63.49" rx="12"/><path class="cls-19" d="M637.5,393.06h-.27a2.74,2.74,0,0,0,0,5.47h.53a2.74,2.74,0,0,0,0-5.47Z"/><path class="cls-19" d="M624.79,404.3h-.2a2,2,0,0,0,0,4.05h.4a2,2,0,0,0,0-4.05Z"/><path class="cls-19" d="M638.3,421.32v-7.18h-1.55v7.18l0,.21-.09.19-.1.19-.16.14-.15.15-.2.07-.2.08h-.42l-.2-.08-.2-.07-.16-.15-.15-.14-.1-.19-.09-.19,0-.21v-7.18a3.27,3.27,0,0,1-1.58-.28q-.67-3,.48-11a20.23,20.23,0,0,0-2.87,8l0,.15-.1.13-.1.11-.14.08-.14.07-.16,0-.16,0-.15,0-.15,0-.13-.1-.13-.09-.08-.14-.09-.13,0-.15,0-.16,0-.16q1.88-10.72,8-11.12h.38l1,0v0q6,.51,7.86,11.11l0,.16,0,.16,0,.15-.09.13-.08.14-.13.09-.13.1-.15,0-.15,0-.16,0-.16,0-.14-.07-.14-.08-.1-.11-.1-.13-.06-.15a20.08,20.08,0,0,0-2.86-8q1.15,7.92.49,11a3.34,3.34,0,0,1-1.59.28v7.18l0,.21-.09.19-.1.19-.16.14-.15.15-.2.07-.2.08h-.42l-.2-.08-.2-.07-.16-.15-.15-.14-.1-.19-.09-.19Zm-1-21.95,1,0-1,0Z"/></g><polygon class="cls-19" points="627.13 422.09 627.13 411.36 628.7 412.18 628.83 412.21 628.97 412.2 629.11 412.2 629.24 412.15 629.37 412.11 629.49 412.03 629.6 411.95 629.69 411.84 629.78 411.74 629.83 411.61 629.89 411.48 629.9 411.34 629.92 411.2 629.9 411.07 629.88 410.93 629.83 410.81 629.77 410.68 629.68 410.57 629.59 410.46 629.48 410.38 629.36 410.31 629.23 410.26 629.1 410.22 628.96 410.21 626.94 409.15 622.46 409.15 619.65 415.09 619.6 415.27 619.61 415.46 619.62 415.65 619.7 415.82 619.78 415.99 619.92 416.12 620.06 416.25 620.24 416.32 620.41 416.38 620.6 416.38 620.79 416.38 620.97 416.31 621.14 416.24 621.28 416.11 621.42 415.98 621.5 415.81 622.45 414.1 622.45 422.09 622.54 422.21 622.66 422.3 622.77 422.4 622.91 422.47 623.04 422.53 623.19 422.57 623.34 422.6 623.49 422.6 623.63 422.6 623.78 422.57 623.93 422.53 624.06 422.47 624.2 422.4 624.31 422.3 624.43 422.21 624.52 422.09 624.52 416.47 624.97 416.47 624.97 422.09 625.06 422.22 625.18 422.32 625.3 422.43 625.44 422.5 625.58 422.58 625.74 422.62 625.89 422.65 626.05 422.65 626.21 422.65 626.36 422.62 626.52 422.58 626.66 422.5 626.8 422.43 626.92 422.32 627.04 422.22 627.13 422.09"/><rect class="cls-19" x="613.37" y="424.27" width="36.68" height="2.13"/><g class="cls-4"><path class="cls-106" d="M638.44,430.73l-2.61-1.52c-.26-.15-.3-.38-.11-.7h3.62c.26-.27.85-.27,1.77,0,.55.9.33,1.48-.68,1.74ZM643.28,443h-7.53m2.15-10.32L643.28,443m-10.23-.55,5.39-11.94M625,432.64l8.07,9.77M625,432.64H637.9m-15.61-3.8h3.76L620.67,443m18.72-6h0a6.68,6.68,0,0,0-2.95,8.34,6.58,6.58,0,0,0,7.87,3.92,6.66,6.66,0,0,0-2-13.07m-19.22.43h0a6.57,6.57,0,0,0-8,2.75,6.7,6.7,0,0,0,1.2,8.4,6.55,6.55,0,0,0,8.41.38,6.69,6.69,0,0,0,1.94-8.26m0,0-.18-.36-.22-.34-.22-.33-.25-.31"/><g class="cls-107"><g class="cls-108"><polyline class="cls-109" points="924.71 253.43 810.29 276.57 543.93 183.03"/><polygon class="cls-19" points="942.05 249.92 910.45 230.58 920.45 280.03 942.05 249.92"/><polygon class="cls-19" points="527.24 177.17 544.48 209.96 561.2 162.36 527.24 177.17"/></g></g><rect class="cls-104" x="582.87" y="169.84" width="48.34" height="63.49" rx="12"/><rect class="cls-105" x="582.87" y="169.84" width="48.34" height="63.49" rx="12"/><path class="cls-19" d="M612.83,172.28h-.27a2.73,2.73,0,1,0,0,5.46h.53a2.73,2.73,0,1,0,0-5.46Z"/><path class="cls-19" d="M600.12,183.52h-.19a2,2,0,1,0,0,4h.39a2,2,0,0,0,0-4Z"/><path class="cls-19" d="M613.63,200.54v-7.18h-1.55v7.18l0,.21-.09.19-.1.19-.15.14-.16.14-.2.08-.2.08h-.42l-.2-.08-.2-.08-.15-.14-.16-.14-.1-.19-.09-.19,0-.21v-7.18a3.39,3.39,0,0,1-1.58-.28q-.68-3,.48-11a20.08,20.08,0,0,0-2.86,8l-.06.15-.1.12-.1.12-.14.08-.14.07-.16,0-.16,0-.15,0-.15,0-.13-.09-.13-.09-.08-.14-.09-.13,0-.16,0-.15,0-.16q1.89-10.72,8-11.12h.38l1,0v0q6,.51,7.86,11.11l0,.16,0,.15,0,.16-.09.13-.08.14-.13.09-.12.09-.16,0-.15,0-.16,0-.15,0-.14-.07-.14-.08-.11-.12-.1-.12,0-.15a20.39,20.39,0,0,0-2.86-8q1.14,7.92.48,11a3.47,3.47,0,0,1-1.59.28v7.18l0,.21-.09.19-.1.19-.15.14-.16.14-.2.08-.2.08h-.42l-.2-.08-.2-.08-.15-.14-.16-.14-.09-.19-.1-.19Zm-1-21.95,1,0-1,0Z"/></g><polygon class="cls-19" points="602.47 201.31 602.47 190.58 604.03 191.4 604.16 191.43 604.3 191.42 604.44 191.42 604.57 191.37 604.7 191.32 604.82 191.25 604.93 191.17 605.02 191.06 605.11 190.95 605.16 190.82 605.22 190.7 605.24 190.56 605.26 190.42 605.24 190.29 605.22 190.15 605.16 190.02 605.1 189.9 605.01 189.79 604.92 189.68 604.81 189.6 604.7 189.53 604.57 189.48 604.43 189.44 604.29 189.43 602.27 188.37 597.79 188.37 594.99 194.31 594.93 194.49 594.94 194.68 594.95 194.86 595.03 195.03 595.12 195.21 595.25 195.34 595.39 195.47 595.57 195.53 595.75 195.6 595.93 195.6 596.12 195.6 596.3 195.53 596.48 195.46 596.61 195.33 596.75 195.2 596.83 195.03 597.78 193.31 597.78 201.31 597.88 201.42 597.99 201.52 598.11 201.62 598.24 201.68 598.38 201.75 598.52 201.78 598.67 201.82 598.82 201.82 598.97 201.82 599.12 201.78 599.26 201.75 599.39 201.68 599.53 201.62 599.64 201.52 599.76 201.42 599.85 201.31 599.85 195.69 600.3 195.69 600.3 201.31 600.39 201.44 600.51 201.54 600.63 201.65 600.77 201.72 600.91 201.8 601.07 201.83 601.22 201.87 601.38 201.87 601.54 201.87 601.7 201.83 601.85 201.8 601.99 201.72 602.13 201.65 602.25 201.54 602.37 201.44 602.47 201.31"/><rect class="cls-19" x="588.7" y="203.48" width="36.68" height="2.13"/><g class="cls-4"><path class="cls-106" d="M613.77,210l-2.61-1.52c-.26-.15-.29-.39-.11-.7h3.62c.26-.27.85-.27,1.77,0,.56.9.33,1.48-.67,1.73Zm4.85,12.22h-7.54m2.15-10.31,5.39,10.31m-10.23-.54,5.38-11.94m-13.46,2.17,8.08,9.77m-8.08-9.77h12.92m-15.61-3.8h3.77L596,222.17m18.72-6h0a6.68,6.68,0,0,0-3,8.34,6.61,6.61,0,1,0,5.87-9.15m-19.22.43h0a6.58,6.58,0,0,0-8,2.74,6.71,6.71,0,0,0,1.2,8.41,6.55,6.55,0,0,0,8.41.38,6.69,6.69,0,0,0,1.94-8.26m0,0-.18-.36-.22-.34-.22-.33-.25-.31"/><g class="cls-107"><g class="cls-110"><line class="cls-109" x1="1064.9" y1="229.33" x2="1158.59" y2="207.36"/><polygon class="cls-19" points="1047.68 233.37 1079.86 251.74 1068.34 202.62 1047.68 233.37"/><polygon class="cls-19" points="1175.81 203.33 1143.64 184.96 1155.15 234.08 1175.81 203.33"/></g></g><g class="cls-16"><g class="cls-111"><line class="cls-112" x1="968.33" y1="245.6" x2="1029.53" y2="236.04"/><polygon class="cls-19" points="958.11 247.2 977.3 260.16 972.43 229.01 958.11 247.2"/><polygon class="cls-19" points="1039.75 234.45 1020.56 221.49 1025.43 252.64 1039.75 234.45"/></g></g><g class="cls-88"><g class="cls-113"><line class="cls-114" x1="907.09" y1="283.46" x2="926.93" y2="396.85"/></g></g><g class="cls-88"><g class="cls-115"><line class="cls-114" x1="853.23" y1="670.87" x2="628.72" y2="602.36"/></g></g><g class="cls-83"><g class="cls-116"><polygon class="cls-117" points="674.48 360.85 727.31 378.82 708.66 435.83 655.8 417.54 674.48 360.85"/></g></g><path class="cls-118" d="M693.09,378.05,694,404.9m-16.26,13L689.33,380q3.43-3.26,7.94-.4l8.88,39.13"/></g><polygon class="cls-119" points="690 412.23 696.57 412.46 696.51 414.01 690.58 414.57 690 412.23"/><g class="cls-4"><path class="cls-119" d="M697.39,399.16h0a2.12,2.12,0,1,0,2,2.19,2.11,2.11,0,0,0-2-2.19"/><path class="cls-119" d="M698.28,404.91a1.64,1.64,0,0,0-1.71-1.09,2.12,2.12,0,0,0-1.33,1.48v.05a3.33,3.33,0,0,1-3.76-.76l-.15-.09-.17,0-.16,0-.17,0-.16,0-.14.09-.14.1-.1.14-.09.14-.05.17,0,.17,0,.17,0,.17.08.16.08.15.13.11-.12-.13a5.47,5.47,0,0,0,3.44,1.52,3.58,3.58,0,0,0,.8,0l0,0a12.38,12.38,0,0,1-.88,2q-4.44-.79-8.13,3.19l-.06.18v.37l0,.19,0,.18.09.16.09.16.14.13.13.13.17.08.16.09.18,0,.18,0,.18,0,.18,0,.17-.07,1-1,.39-.35.6-.37.84-.41.57-.22.52-.16.68-.09h.9l1,.1a4.64,4.64,0,0,0,2,.07,3.66,3.66,0,0,0,1.4-1.85q1.74-3.37,1.14-5.17"/></g><text class="cls-120" transform="translate(36 228)">•</text><text class="cls-120" transform="translate(43.25 228)"> </text><text class="cls-120" transform="translate(54 228)">Une <tspan class="cls-121" x="50.18" y="0">g</tspan><tspan class="cls-122" x="62.83" y="0">r</tspan><tspan x="71.16" y="0">ande pl</tspan><tspan class="cls-123" x="151.75" y="0">a</tspan><tspan x="164.57" y="0">ce ou</tspan><tspan class="cls-124" x="223.46" y="0">v</tspan><tspan x="234.6" y="0">e</tspan><tspan class="cls-125" x="247.41" y="0">r</tspan><tspan class="cls-126" x="256.39" y="0">t</tspan><tspan x="264.62" y="0">e sur </tspan></text><text class="cls-120" transform="translate(54 252)">l’i<tspan class="cls-122" x="18.41" y="0">n</tspan><tspan class="cls-127" x="32.14" y="0">t</tspan><tspan x="40.37" y="0">e</tspan><tspan class="cls-128" x="53.18" y="0">r</tspan><tspan class="cls-129" x="62.28" y="0">f</tspan><tspan class="cls-123" x="70.29" y="0">a</tspan><tspan x="83.11" y="0">ce</tspan></text><text class="cls-120" transform="translate(36 300)">•</text><text class="cls-120" transform="translate(43.25 300)"> </text><text class="cls-120" transform="translate(54 300)"><tspan class="cls-130">D</tspan><tspan x="17.38" y="0">es esp</tspan><tspan class="cls-123" x="87.26" y="0">a</tspan><tspan x="100.08" y="0">ces i</tspan><tspan class="cls-122" x="150.05" y="0">n</tspan><tspan x="163.77" y="0">times dans </tspan></text><text class="cls-120" transform="translate(54 324)">les coeu<tspan class="cls-124" x="90.12" y="0">r</tspan><tspan x="98.57" y="0">s d’îl</tspan><tspan class="cls-131" x="149.4" y="0">o</tspan><tspan class="cls-124" x="162.67" y="0">t</tspan><tspan x="170.95" y="0">s pour les </tspan></text><text class="cls-120" transform="translate(54 348)">habi<tspan class="cls-121" x="47.3" y="0">t</tspan><tspan x="55.56" y="0">a</tspan><tspan class="cls-122" x="68.47" y="0">n</tspan><tspan x="82.2" y="0">t</tspan><tspan class="cls-132" x="90.58" y="0">.</tspan><tspan class="cls-122" x="96.12" y="0">e</tspan><tspan x="108.72" y="0">.</tspan><tspan class="cls-133" x="114.43" y="0">s</tspan><tspan x="126.14" y="0">. </tspan></text><text class="cls-120" transform="translate(36 396)">•</text><text class="cls-120" transform="translate(43.25 396)"> </text><text class="cls-120" transform="translate(54 396)">Un pa<tspan class="cls-129" x="64.27" y="0">r</tspan><tspan x="72.65" y="0">c à l</tspan><tspan class="cls-134" x="117.36" y="0">’</tspan><tspan class="cls-135" x="122.81" y="0">arriè</tspan><tspan class="cls-129" x="171.84" y="0">r</tspan><tspan x="180.21" y="0">e du qua</tspan><tspan class="cls-136" x="274.32" y="0">r</tspan><tspan x="283.27" y="0">tier </tspan></text><text class="cls-120" transform="translate(54 420)">a<tspan class="cls-129" x="12.91" y="0">s</tspan><tspan x="24.7" y="0">su</tspan><tspan class="cls-133" x="50.42" y="0">r</tspan><tspan x="58.73" y="0">a</tspan><tspan class="cls-137" x="71.64" y="0">n</tspan><tspan x="85.37" y="0">t la co</tspan><tspan class="cls-122" x="151.77" y="0">n</tspan><tspan x="165.5" y="0">tinui</tspan><tspan class="cls-127" x="214.03" y="0">t</tspan><tspan x="222.26" y="0">é </tspan></text><text class="cls-120" transform="translate(54 444)"><tspan class="cls-124">v</tspan><tspan x="11.14" y="0">é</tspan><tspan class="cls-138" x="23.95" y="0">g</tspan><tspan class="cls-139" x="36.36" y="0">é</tspan><tspan class="cls-124" x="49.13" y="0">t</tspan><tspan x="57.41" y="0">ale</tspan></text><text class="cls-120" transform="translate(36 492)">•</text><text class="cls-120" transform="translate(43.25 492)"> </text><text class="cls-120" transform="translate(54 492)">Un <tspan class="cls-122" x="37.37" y="0">r</tspan><tspan class="cls-140" x="45.7" y="0">a</tspan><tspan class="cls-124" x="58.49" y="0">y</tspan><tspan x="69.82" y="0">o</tspan><tspan class="cls-139" x="83.14" y="0">n</tspan><tspan x="97.03" y="0">neme</tspan><tspan class="cls-137" x="156.77" y="0">n</tspan><tspan x="170.49" y="0">t de </tspan></text><text class="cls-120" transform="translate(54 516)">l’i<tspan class="cls-122" x="18.41" y="0">n</tspan><tspan class="cls-127" x="32.14" y="0">t</tspan><tspan x="40.37" y="0">e</tspan><tspan class="cls-128" x="53.18" y="0">r</tspan><tspan class="cls-129" x="62.28" y="0">f</tspan><tspan class="cls-123" x="70.29" y="0">a</tspan><tspan x="83.11" y="0">ce du t</tspan><tspan class="cls-133" x="157.53" y="0">r</tspan><tspan x="165.84" y="0">am à t</tspan><tspan class="cls-122" x="232.92" y="0">r</tspan><tspan class="cls-123" x="241.24" y="0">av</tspan><tspan x="265.2" y="0">e</tspan><tspan class="cls-141" x="278.01" y="0">r</tspan><tspan x="286.48" y="0">s </tspan></text><text class="cls-120" transform="translate(54 540)">le qua<tspan class="cls-136" x="66.31" y="0">r</tspan><tspan x="75.26" y="0">tie</tspan><tspan class="cls-142" x="102.67" y="0">r</tspan><tspan x="110.16" y="0">, pour </tspan><tspan class="cls-132" x="178.25" y="0">r</tspan><tspan x="186.62" y="0">elier </tspan></text><text class="cls-120" transform="translate(54 564)">l<tspan class="cls-143" x="6.46" y="0">’</tspan><tspan x="10.78" y="0">ensemble du se</tspan><tspan class="cls-139" x="181.22" y="0">c</tspan><tspan class="cls-127" x="193.8" y="0">t</tspan><tspan x="202.03" y="0">eur </tspan></text><path d="M93.29,53.54l4.89-.48c0,2.34,1.32,3.72,3.36,3.72a2.71,2.71,0,0,0,3-3c0-1.92-1.14-2.91-3.6-2.91H99.83v-3.3h1.08c2.1,0,3.18-1.08,3.18-2.91a2.5,2.5,0,0,0-2.76-2.73c-2,0-3.06,1.41-3.06,3.78l-4.77-.63c0-4.17,3.12-6.81,8.07-6.81s7.5,2.16,7.5,5.82A5,5,0,0,1,104.9,49c3.09.48,4.74,2.22,4.74,5.13,0,4-3.18,6.42-8.13,6.42S93.35,57.8,93.29,53.54Zm24,6.51h-5.13V55.13h5.13Zm2.37-6.51,4.89-.48c0,2.34,1.32,3.72,3.36,3.72a2.71,2.71,0,0,0,3-3c0-1.92-1.14-2.91-3.6-2.91h-1.11v-3.3h1.08c2.1,0,3.18-1.08,3.18-2.91a2.5,2.5,0,0,0-2.76-2.73c-2,0-3.06,1.41-3.06,3.78l-4.77-.63c0-4.17,3.12-6.81,8.07-6.81,4.8,0,7.5,2.16,7.5,5.82A5,5,0,0,1,131.24,49c3.09.48,4.74,2.22,4.74,5.13,0,4-3.18,6.42-8.13,6.42S119.69,57.8,119.63,53.54Zm31.68-14.79V52.4a4,4,0,1,0,7.92,0V38.75h5.07V52.61c0,4.86-3.36,8-9,8s-9-3.09-9-8V38.75Zm17.07,0H174l6.84,12.15a22.16,22.16,0,0,1,1.29,2.76h.06c0-.84,0-1.71,0-2.73V38.75h4.65v21.3h-5.4l-7.08-12.27a18.35,18.35,0,0,1-1.26-2.61H173c0,.87,0,1.77,0,2.82V60.05h-4.65ZM206,56.3v3.75H191.24V38.75h14.58V42.5h-9.51v4.8h9V51h-9V56.3Zm28.19-10.86c0,4.23-3,6.87-7.76,6.87H222.2v7.74h-5.07V38.75h9.45C231.2,38.75,234.22,41.39,234.22,45.44Zm-5.3.15c0-2-1.29-3.18-3.57-3.18H222.2v6.36h3.15C227.6,48.77,228.92,47.6,228.92,45.59Zm7.92-6.84h5.07V55.94h8.64v4.11H236.84Zm29.78,16.32h-7.86l-1.62,5h-5.07l7.74-21.3h5.79l7.74,21.3h-5.1Zm-1.17-3.57-1.95-5.94a25.65,25.65,0,0,1-.78-3h-.06a20.83,20.83,0,0,1-.78,3l-1.95,5.94Zm8.16-2.07c0-6.72,4-11.19,10.44-11.19,5.43,0,8.85,3,9.42,7.65l-5.13.9c-.3-2.82-1.86-4.47-4.41-4.47-3.24,0-5.13,2.73-5.13,7.08s1.92,7.05,5.28,7.05c2.37,0,4-1.62,4.38-4.38l5.13,1.11c-1,4.5-4.32,7.38-9.6,7.38C277.24,60.56,273.61,56.15,273.61,49.43Zm37.71,6.87v3.75H296.53V38.75h14.58V42.5H301.6v4.8h9V51h-9V56.3Zm23.85-1.23h-7.86l-1.62,5h-5.07l7.74-21.3h5.79l7.74,21.3h-5.1ZM334,51.5l-1.95-5.94a25.65,25.65,0,0,1-.78-3h-.06a20.83,20.83,0,0,1-.78,3l-1.95,5.94Zm10.5-12.75h5.61L357,50.9a22.16,22.16,0,0,1,1.29,2.76h.06c0-.84,0-1.71,0-2.73V38.75h4.65v21.3h-5.4l-7.08-12.27a18.35,18.35,0,0,1-1.26-2.61h-.06c0,.87,0,1.77,0,2.82V60.05H344.5Zm22.86,21.3V38.75h5.07v21.3Zm9.51-21.3h7l3.93,13a14.92,14.92,0,0,1,.51,2.58h.06a16.5,16.5,0,0,1,.54-2.64l3.75-13h7.05v21.3h-4.62V45.53a21.43,21.43,0,0,1,.12-2.4h-.09a12.12,12.12,0,0,1-.45,2.07l-4.29,14.85h-4.26L381.61,45.2a10,10,0,0,1-.45-2h-.09c.06.72.12,1.53.12,2.37V60.05h-4.32Zm42,17.55v3.75H404.11V38.75h14.58V42.5h-9.51v4.8h9V51h-9V56.3Zm-5.43-18.84h-3.66l3-3.54H417ZM437.38,56.3v3.75H422.59V38.75h14.58V42.5h-9.51v4.8h9V51h-9V56.3Z"/><text class="cls-144" transform="translate(92.63 95.99)">Des es<tspan class="cls-145" x="91.95" y="0">p</tspan><tspan class="cls-146" x="109.44" y="0">a</tspan><tspan class="cls-147" x="125.64" y="0">ces publics di</tspan><tspan class="cls-148" x="313.49" y="0">v</tspan><tspan x="327.14" y="0">e</tspan><tspan class="cls-129" x="343.4" y="0">r</tspan><tspan x="353.9" y="0">siﬁés pour le qua</tspan><tspan class="cls-149" x="587.6" y="0">r</tspan><tspan x="599.15" y="0">tier</tspan></text><text class="cls-144" transform="translate(92.63 131.99)">2 ai<tspan class="cls-150" x="48.27" y="0">r</tspan><tspan x="58.5" y="0">es d’i</tspan><tspan class="cls-151" x="130.29" y="0">m</tspan><tspan x="155.46" y="0">pla</tspan><tspan class="cls-152" x="197.43" y="0">n</tspan><tspan class="cls-153" x="214.56" y="0">t</tspan><tspan class="cls-154" x="224.82" y="0">a</tspan><tspan x="240.6" y="0">tions</tspan></text></g></g></g></g></svg>