<svg xmlns="http://www.w3.org/2000/svg" xmlns:xlink="http://www.w3.org/1999/xlink" viewBox="0 0 1190.55 841.89"><defs><style>.cls-1,.cls-105,.cls-108,.cls-111,.cls-18,.cls-24,.cls-28,.cls-29,.cls-30,.cls-31,.cls-32,.cls-33,.cls-34,.cls-35,.cls-36,.cls-37,.cls-38,.cls-39,.cls-40,.cls-41,.cls-42,.cls-43,.cls-44,.cls-45,.cls-46,.cls-49,.cls-55,.cls-56,.cls-57,.cls-58,.cls-59,.cls-60,.cls-61,.cls-62,.cls-63,.cls-64,.cls-65,.cls-66,.cls-67,.cls-70,.cls-73,.cls-82,.cls-91,.cls-92,.cls-95{fill:none;}.cls-2{isolation:isolate;}.cls-3{clip-path:url(#clip-path);}.cls-4{clip-path:url(#clip-path-3);}.cls-5{opacity:0.2;}.cls-6{clip-path:url(#clip-path-4);}.cls-7{clip-path:url(#clip-path-5);}.cls-8{clip-path:url(#clip-path-6);}.cls-9{opacity:0.5;}.cls-10{clip-path:url(#clip-path-7);}.cls-11{fill:#5c782a;}.cls-12{clip-path:url(#clip-path-8);}.cls-13{clip-path:url(#clip-path-9);}.cls-14{clip-path:url(#clip-path-10);}.cls-15{clip-path:url(#clip-path-11);}.cls-106,.cls-16{opacity:0.4;}.cls-16{mix-blend-mode:multiply;}.cls-17{clip-path:url(#clip-path-12);}.cls-105,.cls-18,.cls-82,.cls-91,.cls-92{stroke:#5baf31;}.cls-18,.cls-82{stroke-width:20px;}.cls-18{stroke-dasharray:12.27 12.27;}.cls-19{fill:#5baf31;}.cls-20{clip-path:url(#clip-path-13);}.cls-21{clip-path:url(#clip-path-14);}.cls-22{clip-path:url(#clip-path-15);}.cls-23{clip-path:url(#clip-path-16);}.cls-24,.cls-55,.cls-56,.cls-57,.cls-58,.cls-59,.cls-60,.cls-61,.cls-62,.cls-63,.cls-64,.cls-65,.cls-66,.cls-67{stroke:#000;}.cls-24{stroke-width:0.33px;}.cls-25{clip-path:url(#clip-path-17);}.cls-26{clip-path:url(#clip-path-18);}.cls-27{clip-path:url(#clip-path-19);}.cls-28,.cls-29,.cls-30,.cls-31,.cls-32,.cls-33,.cls-34,.cls-35,.cls-36,.cls-37,.cls-38,.cls-39,.cls-40,.cls-41,.cls-42,.cls-43,.cls-44,.cls-45,.cls-46,.cls-70{stroke:#cd1719;}.cls-108,.cls-28,.cls-29,.cls-30,.cls-31,.cls-32,.cls-33,.cls-34,.cls-35,.cls-36,.cls-37,.cls-38,.cls-39,.cls-40,.cls-41,.cls-42,.cls-43,.cls-44,.cls-45,.cls-46,.cls-55,.cls-56,.cls-57,.cls-58,.cls-59,.cls-60,.cls-61,.cls-62,.cls-63,.cls-64,.cls-65,.cls-66,.cls-67{stroke-linecap:round;}.cls-28,.cls-29,.cls-30,.cls-31,.cls-32,.cls-33,.cls-34,.cls-35,.cls-36,.cls-37,.cls-38,.cls-39,.cls-40,.cls-41,.cls-42,.cls-43,.cls-44,.cls-45,.cls-46,.cls-55,.cls-56,.cls-57,.cls-58,.cls-59,.cls-60,.cls-61,.cls-62,.cls-63,.cls-64,.cls-65,.cls-66,.cls-67{stroke-linejoin:round;}.cls-28{stroke-dasharray:0 1.99;}.cls-29{stroke-dasharray:0 1.99;}.cls-30{stroke-dasharray:0 2.13;}.cls-31{stroke-dasharray:0 2.08;}.cls-32{stroke-dasharray:0 2;}.cls-33{stroke-dasharray:0 2.03;}.cls-34{stroke-dasharray:0 2.01;}.cls-35{stroke-dasharray:0 1.88;}.cls-36{stroke-dasharray:0 2.1;}.cls-37{stroke-dasharray:0 1.92;}.cls-38{stroke-dasharray:0 2.41;}.cls-39{stroke-dasharray:0 2.04;}.cls-40{stroke-dasharray:0 2.03;}.cls-41{stroke-dasharray:0 2.01;}.cls-42{stroke-dasharray:0 2;}.cls-43{stroke-dasharray:0 1.99;}.cls-44{stroke-dasharray:0 1.99;}.cls-45{stroke-dasharray:0 1.99;}.cls-47{opacity:0.9;}.cls-48{clip-path:url(#clip-path-21);}.cls-108,.cls-49,.cls-73{stroke:#ffcf1b;}.cls-49{stroke-width:1.87px;}.cls-50{fill:#ffcf1b;}.cls-51{clip-path:url(#clip-path-22);}.cls-52{clip-path:url(#clip-path-23);}.cls-53{clip-path:url(#clip-path-24);}.cls-54{clip-path:url(#clip-path-25);}.cls-55,.cls-56,.cls-57,.cls-58,.cls-59,.cls-60,.cls-61,.cls-62,.cls-63,.cls-64,.cls-65,.cls-66,.cls-67,.cls-95{stroke-width:3px;}.cls-55{stroke-dasharray:0 5.66;}.cls-56{stroke-dasharray:0 6.11;}.cls-57{stroke-dasharray:0 5.99;}.cls-58{stroke-dasharray:0 6.39;}.cls-59{stroke-dasharray:0 6;}.cls-60{stroke-dasharray:0 5.93;}.cls-61{stroke-dasharray:0 5.69;}.cls-62{stroke-dasharray:0 6.04;}.cls-63{stroke-dasharray:0 5.98;}.cls-64{stroke-dasharray:0 5.88;}.cls-65{stroke-dasharray:0 6.01;}.cls-66{stroke-dasharray:0 6;}.cls-68{opacity:0.6;}.cls-69{clip-path:url(#clip-path-26);}.cls-70{stroke-width:5px;}.cls-71{opacity:0.8;}.cls-72{clip-path:url(#clip-path-27);}.cls-73{stroke-width:6px;}.cls-74{clip-path:url(#clip-path-28);}.cls-75{clip-path:url(#clip-path-29);}.cls-76{clip-path:url(#clip-path-30);}.cls-77{clip-path:url(#clip-path-31);}.cls-78{clip-path:url(#clip-path-32);}.cls-79{clip-path:url(#clip-path-33);}.cls-80{opacity:0.3;}.cls-81{clip-path:url(#clip-path-34);}.cls-83{clip-path:url(#clip-path-35);}.cls-84{fill:#cd1719;}.cls-85{clip-path:url(#clip-path-36);}.cls-86{clip-path:url(#clip-path-37);}.cls-87{clip-path:url(#clip-path-38);}.cls-88{clip-path:url(#clip-path-39);}.cls-89{clip-path:url(#clip-path-40);}.cls-90{fill:#fff;}.cls-92{stroke-miterlimit:10;}.cls-93{clip-path:url(#clip-path-43);}.cls-94{clip-path:url(#clip-path-44);}.cls-95{stroke:#5c782a;}.cls-96{clip-path:url(#clip-path-45);}.cls-97{clip-path:url(#clip-path-46);}.cls-98{clip-path:url(#clip-path-47);}.cls-99{clip-path:url(#clip-path-48);}.cls-100{clip-path:url(#clip-path-49);}.cls-101{clip-path:url(#clip-path-50);}.cls-102{clip-path:url(#clip-path-51);}.cls-103{clip-path:url(#clip-path-52);}.cls-104{clip-path:url(#clip-path-53);}.cls-105{stroke-width:10px;stroke-dasharray:12.39 12.39;}.cls-107{clip-path:url(#clip-path-54);}.cls-108{stroke-width:15px;}.cls-109{clip-path:url(#clip-path-55);}.cls-110{fill:#5ab8b0;}.cls-111{stroke:#588fa5;}.cls-112{fill:#588fa5;}.cls-113{font-size:24px;}.cls-113,.cls-124{font-family:GTAmerica-Light, GT America;}.cls-113,.cls-124,.cls-140{font-weight:300;}.cls-114{letter-spacing:-0.01em;}.cls-115{letter-spacing:0em;}.cls-116{letter-spacing:0em;}.cls-117{letter-spacing:0em;}.cls-118{letter-spacing:0em;}.cls-119{letter-spacing:-0.01em;}.cls-120{letter-spacing:0em;}.cls-121{letter-spacing:0em;}.cls-122{letter-spacing:-0.01em;}.cls-123{letter-spacing:-0.02em;}.cls-124{font-size:13.99px;}.cls-125{letter-spacing:-0.01em;}.cls-126{letter-spacing:-0.01em;}.cls-127{letter-spacing:-0.01em;}.cls-128{letter-spacing:0em;}.cls-129{letter-spacing:-0.01em;}.cls-130{letter-spacing:0.01em;}.cls-131{letter-spacing:0.01em;}.cls-132{letter-spacing:-0.01em;}.cls-133{letter-spacing:-0.04em;}.cls-134{letter-spacing:-0.01em;}.cls-135{letter-spacing:0em;}.cls-136{letter-spacing:-0.01em;}.cls-137{letter-spacing:-0.01em;}.cls-138{letter-spacing:0.02em;}.cls-139{letter-spacing:-0.01em;}.cls-140{font-size:30px;font-family:GTAmerica-LightItalic, GT America;font-style:italic;}.cls-141{letter-spacing:-0.02em;}.cls-142{letter-spacing:-0.01em;}.cls-143{letter-spacing:0em;}.cls-144{letter-spacing:0em;}.cls-145{letter-spacing:-0.01em;}.cls-146{letter-spacing:-0.01em;}.cls-147{letter-spacing:-0.01em;}.cls-148{letter-spacing:-0.01em;}.cls-149{letter-spacing:-0.02em;}.cls-150{letter-spacing:-0.02em;}.cls-151{letter-spacing:0.03em;}.cls-152{letter-spacing:-0.02em;}.cls-153{letter-spacing:0em;}.cls-154{letter-spacing:0em;}.cls-155{letter-spacing:-0.01em;}.cls-156{letter-spacing:-0.02em;}.cls-157{letter-spacing:0em;}</style><clipPath id="clip-path"><rect class="cls-1" width="1190.55" height="841.89"/></clipPath><clipPath id="clip-path-3"><rect class="cls-1" width="1190.55" height="841.89"/></clipPath><clipPath id="clip-path-4"><rect class="cls-1" x="416.55" y="676.86" width="114.02" height="127.2"/></clipPath><clipPath id="clip-path-5"><rect class="cls-1" x="598.32" y="733.98" width="130.68" height="70.08"/></clipPath><clipPath id="clip-path-6"><rect class="cls-1" x="786.83" y="785.85" width="65.9" height="18.21"/></clipPath><clipPath id="clip-path-7"><rect class="cls-1" x="527.1" y="719.49" width="90.64" height="84.56"/></clipPath><clipPath id="clip-path-8"><rect class="cls-1" x="413.78" y="657.08" width="31.76" height="50.92"/></clipPath><clipPath id="clip-path-9"><rect class="cls-1" x="715.61" y="757.77" width="78.35" height="46.28"/></clipPath><clipPath id="clip-path-10"><rect class="cls-1" x="654.66" y="665.38" width="268.8" height="85.1"/></clipPath><clipPath id="clip-path-11"><rect class="cls-1" x="413.13" y="588.28" width="236.5" height="112.88"/></clipPath><clipPath id="clip-path-12"><rect class="cls-1" x="553.67" y="249.24" width="159.19" height="331.44"/></clipPath><clipPath id="clip-path-13"><rect class="cls-1" x="689.63" y="130.28" width="146.41" height="126.97"/></clipPath><clipPath id="clip-path-14"><rect class="cls-1" x="926.16" y="371.61" width="56.98" height="175.67"/></clipPath><clipPath id="clip-path-15"><rect class="cls-1" x="952.94" y="365.23" width="62.51" height="178.08"/></clipPath><clipPath id="clip-path-16"><rect class="cls-1" x="985.83" y="359.28" width="63.07" height="177.8"/></clipPath><clipPath id="clip-path-17"><rect class="cls-1" x="528.31" y="336.31" width="114.38" height="190.83"/></clipPath><clipPath id="clip-path-18"><rect class="cls-1" x="599.75" y="230.58" width="73.28" height="74.33"/></clipPath><clipPath id="clip-path-19"><rect class="cls-1" x="807.53" y="130.73" width="83.2" height="104.1"/></clipPath><clipPath id="clip-path-21"><rect class="cls-1" x="711.64" y="634.06" width="122.19" height="168.5"/></clipPath><clipPath id="clip-path-22"><rect class="cls-1" x="480.35" y="553.97" width="142.76" height="195.35"/></clipPath><clipPath id="clip-path-23"><rect class="cls-1" x="907.23" y="622.54" width="150.54" height="216.71"/></clipPath><clipPath id="clip-path-24"><rect class="cls-1" x="912.35" y="603.06" width="253.33" height="114.07"/></clipPath><clipPath id="clip-path-25"><rect class="cls-1" x="610.29" y="285.03" width="349.08" height="378.79"/></clipPath><clipPath id="clip-path-26"><rect class="cls-1" x="608.64" y="327.45" width="352.64" height="337.62"/></clipPath><clipPath id="clip-path-27"><rect class="cls-1" x="856.26" y="440.69" width="97.18" height="38.63"/></clipPath><clipPath id="clip-path-28"><rect class="cls-1" x="771.85" y="562.67" width="76.28" height="103.45"/></clipPath><clipPath id="clip-path-29"><rect class="cls-1" x="700.59" y="539.78" width="70.39" height="105.28"/></clipPath><clipPath id="clip-path-30"><rect class="cls-1" x="869.54" y="508.13" width="95.24" height="39.11"/></clipPath><clipPath id="clip-path-31"><rect class="cls-1" x="868.84" y="539.27" width="114.91" height="75.24"/></clipPath><clipPath id="clip-path-32"><rect class="cls-1" x="858.97" y="577.43" width="54.58" height="110.82"/></clipPath><clipPath id="clip-path-33"><rect class="cls-1" x="697.82" y="345.35" width="190.6" height="238.71"/></clipPath><clipPath id="clip-path-34"><rect class="cls-1" x="502.7" y="149.03" width="461" height="138.87"/></clipPath><clipPath id="clip-path-35"><rect class="cls-1" x="867.26" y="397.61" width="60.38" height="59.83"/></clipPath><clipPath id="clip-path-36"><rect class="cls-1" x="879.9" y="463.65" width="60.38" height="59.83"/></clipPath><clipPath id="clip-path-37"><rect class="cls-1" x="810.29" y="590.1" width="64.38" height="64.82"/></clipPath><clipPath id="clip-path-38"><rect class="cls-1" x="741.32" y="568.56" width="64.38" height="64.82"/></clipPath><clipPath id="clip-path-39"><rect class="cls-1" x="892.57" y="531.72" width="57.13" height="43.13"/></clipPath><clipPath id="clip-path-40"><rect class="cls-1" x="873.08" y="568.07" width="69.44" height="68.6"/></clipPath><clipPath id="clip-path-43"><rect class="cls-1" x="683.46" y="263.55" width="94.16" height="103.38"/></clipPath><clipPath id="clip-path-44"><rect class="cls-1" x="794.18" y="264.28" width="123.94" height="64.06"/></clipPath><clipPath id="clip-path-45"><rect class="cls-1" x="798.88" y="280.86" width="30.18" height="21.31"/></clipPath><clipPath id="clip-path-46"><rect class="cls-1" x="809.93" y="277.91" width="39.25" height="31.64"/></clipPath><clipPath id="clip-path-47"><rect class="cls-1" x="821.14" y="275.19" width="48.45" height="41.88"/></clipPath><clipPath id="clip-path-48"><rect class="cls-1" x="835.3" y="274.06" width="53.7" height="48.1"/></clipPath><clipPath id="clip-path-49"><rect class="cls-1" x="846.87" y="271.78" width="60.4" height="55.21"/></clipPath><clipPath id="clip-path-50"><rect class="cls-1" x="858.69" y="269.03" width="57.39" height="52.15"/></clipPath><clipPath id="clip-path-51"><rect class="cls-1" x="871.77" y="267.4" width="45.73" height="39.16"/></clipPath><clipPath id="clip-path-52"><rect class="cls-1" x="1038.68" y="177.96" width="146.13" height="74.78"/></clipPath><clipPath id="clip-path-53"><rect class="cls-1" x="949.11" y="214.49" width="99.64" height="46.67"/></clipPath><clipPath id="clip-path-54"><rect class="cls-1" x="602.4" y="322.82" width="378.15" height="364.08"/></clipPath><clipPath id="clip-path-55"><rect class="cls-1" x="646.79" y="353.85" width="89.52" height="82.98"/></clipPath></defs><title>Plan de travail</title><g class="cls-2"><g id="Calque_1" data-name="Calque 1"><g class="cls-3"><g class="cls-3"><g class="cls-4"><g class="cls-5"><g class="cls-6"><polygon points="425.55 803.05 447.17 744.78 431.57 738.99 451.42 683.86 521.58 709.37 502.8 762.87 492.17 760.13 476.93 803.05 425.55 803.05"/></g></g><g class="cls-5"><g class="cls-7"><polygon points="611.4 803.05 612.68 798.95 607.32 797.19 623.62 740.98 720 769.61 710.08 803.05 611.4 803.05"/></g></g><g class="cls-5"><g class="cls-8"><polygon points="795.83 803.05 843.73 803.05 798.1 792.85 795.83 803.05"/></g></g><g class="cls-9"><g class="cls-10"><polygon class="cls-11" points="557.01 726.49 608.74 742.39 604.21 756.99 584.22 751.47 570.12 803.05 536.1 803.05 541.98 786.5 559.79 790.13 573.31 748.21 552.47 741.68 557.01 726.49"/></g></g><g class="cls-9"><g class="cls-12"><polygon class="cls-11" points="422.78 664.08 425.55 666.14 422.78 673.23 436.54 679.04 426.05 707 422.78 706.56 422.78 664.08"/></g></g><g class="cls-9"><g class="cls-13"><polygon class="cls-11" points="724.61 803.05 780.24 803.05 784.96 775.27 735.02 764.77 724.61 803.05"/></g></g><g class="cls-9"><g class="cls-14"><polygon class="cls-11" points="663.66 707 668.98 672.38 914.46 740.98 912.75 749.48 663.66 707"/></g></g><g class="cls-9"><g class="cls-15"><polygon class="cls-11" points="640.63 658.37 627.16 700.16 422.63 624.68 422.13 595.27 640.63 658.37"/></g></g><g class="cls-16"><g class="cls-17"><line class="cls-18" x1="683.07" y1="272.97" x2="583.46" y2="562.96"/><polygon class="cls-19" points="688.82 256.25 656.15 273.71 703.86 290.1 688.82 256.25"/><polygon class="cls-19" points="577.71 579.69 610.39 562.22 562.67 545.83 577.71 579.69"/></g></g><g class="cls-9"><g class="cls-20"><path class="cls-11" d="M819.64,142.91c3.12,3.11,4.58,6,7.09,14.74,1.13,4-.85,18.7-6,28.06-6.29,11.53-13.32,22.39-10.77,28.06,2.47,5.5,11.62,7.37,14.45,17,3.06,10.39.85,17.29-10.48,23.81s-25.55-8-50.14-12.76c-25-4.81-39.16-10.53-51.91-19-14.52-9.68-15.07-19-11.39-31.85s10-22.67,18.19-33.87c4.41-6.06,8.79-14.17,24.38-17.58,19.39-4.23,32.88-1.13,51-1.13s22.4,1.42,25.51,4.54"/></g></g><g class="cls-9"><g class="cls-21"><polygon points="935.16 380.31 942.67 378.61 974.13 546.27 966.76 546.27 935.16 380.31"/></g></g><g class="cls-9"><g class="cls-22"><polygon points="961.94 374.78 974.13 372.23 1006.45 539.75 993.69 542.31 961.94 374.78"/></g></g><g class="cls-9"><g class="cls-23"><polygon points="1026.29 536.07 1039.9 533.8 1008.43 366.28 994.83 368.83 1026.29 536.07"/></g></g><path class="cls-24" d="M941.86,137.75C942.4,141.27,955,224,955,226.53c0,2.3-.62,24.59-1.78,30.39-.44,2.2-2.22,8.68-4.47,16.88-3.58,13-8,29.21-9.42,36.69a63.4,63.4,0,0,0,0,25.68c.29,1.67,3.4,18.33,7.71,41.39,12.76,68.33,36.52,195.5,36.94,200.58l.15,1.77a118.79,118.79,0,0,1,.42,21.38c-.82,10-4.62,27.13-9,36.68-3.5,7.71-20.46,30.22-31.86,38.12-13.59,9.42-28.64,16.18-39.26,17.63-14.11,1.93-29.73,3.27-48.3,0l-13.09-2.25c-18.8-3.2-50.26-8.58-59.48-10.51-12.07-2.52-24.29-6.2-24.41-6.24L422.83,569.52"/><path class="cls-24" d="M941.2,137.85c.14.86,13.11,86.18,13.11,88.68,0,2.87-.67,24.78-1.76,30.26-.44,2.17-2.3,9-4.47,16.83-3.57,13-8,29.24-9.42,36.75a64,64,0,0,0,0,25.91c.3,1.68,3.41,18.34,7.72,41.41,12.76,68.31,36.51,195.46,36.93,200.5l.15,1.78a118.61,118.61,0,0,1,.41,21.27c-.81,10-4.59,27-8.9,36.46-3.48,7.65-20.31,30-31.63,37.84-13.51,9.37-28.45,16.08-39,17.52-14.06,1.93-29.61,3.26-48.09,0-2.27-.4-7-1.21-13.1-2.24-18.79-3.21-50.25-8.58-59.46-10.51-12-2.52-24.23-6.19-24.35-6.23L423,568.88"/><path class="cls-24" d="M953.49,137.75c.1.71,10.78,71,11.62,78,.94,7.81,1.94,27.55,0,37.8-.79,4.14-3.18,12.64-6,22.48-4.23,15-9,32-9.36,38.14-.55,9.95,2.66,31.42,4,37.9.41,2,42.22,219.12,43.09,233.9.69,11.74-.67,30.28-4.55,41.51-4.76,13.79-9.54,23-17.62,34.11-6.72,9.2-25.06,25.54-33.85,30.14-8.62,4.52-26.55,12-40.64,13.93-14.27,2-22.81,1.12-32.7.12-2.25-.23-4.57-.47-7.06-.69-17.68-1.52-53.29-8.09-65.52-10.49-15.71-3.09-368.68-113.17-372.24-114.28"/><path class="cls-24" d="M952.83,137.85c.1.71,10.78,70.94,11.62,77.94.93,7.78,1.93,27.43,0,37.6-.78,4.12-3.28,13-5.94,22.43-4.23,15-9,32.05-9.37,38.28-.56,10,2.66,31.57,4,38.07,2,10.06,42.25,219.66,43.08,233.81.69,11.67-.66,30.1-4.51,41.26-4.74,13.71-9.49,22.91-17.53,33.92-6.67,9.15-24.9,25.38-33.62,30S914.11,703,900.1,705c-14.18,2-22.69,1.12-32.53.11-2.25-.23-4.58-.47-7.08-.68-17.64-1.52-53.22-8.08-65.44-10.48-15.68-3.08-368.61-113.16-372.17-114.27"/><path class="cls-24" d="M955,225.62c.79,4.33,78.69,433,81.14,443.46,2.54,10.87,19.36,45.69,27.31,57.79,7.57,11.52,44.91,80.16,48.58,90.07"/><path class="cls-24" d="M954.32,225.74c.78,4.33,78.69,433,81.14,443.49,2.55,10.92,19.42,45.87,27.4,58,8.47,12.88,45.19,81,48.51,89.93"/><path class="cls-24" d="M966.74,175.69c.78,4.29,77.92,429.69,80.28,436.77.77,2.33,1.21,3.94,1.67,5.64a132,132,0,0,0,5.19,15.32c2.42,6.22,19.44,37.62,35.91,68,15.2,28,29.55,54.51,30.93,58.45"/><path class="cls-24" d="M966.08,175.81c3.18,17.54,77.93,429.74,80.3,436.86.77,2.31,1.21,3.91,1.67,5.6a131,131,0,0,0,5.21,15.39c2.43,6.26,19.47,37.68,35.94,68.06,15.19,28,29.53,54.47,30.89,58.36"/><path class="cls-24" d="M878.65,695.54c6.19.82,151.75,20.26,164.86,25.32,13.76,5.31,32.81,16.42,40,23.32"/><path class="cls-24" d="M878.56,696.2c1.52.2,151.68,20.25,164.71,25.28,13.69,5.28,32.64,16.33,39.77,23.18"/><path class="cls-24" d="M878.58,706.67c6.15.82,150.63,20.17,157.78,23.84,1.68.86,3.83,1.84,6.32,3,8.17,3.71,19.35,8.8,27.2,15.78a97.75,97.75,0,0,1,16.51,19.35"/><path class="cls-24" d="M878.49,707.33c1.51.2,150.52,20.16,157.57,23.78,1.69.87,3.85,1.85,6.34,3,8.13,3.7,19.26,8.77,27,15.68a97,97,0,0,1,16.38,19.2"/><g class="cls-5"><g class="cls-25"><polygon points="593.06 343.31 633.69 355.13 575.11 526.15 537.31 513.96 593.06 343.31"/></g></g><g class="cls-5"><g class="cls-26"><polygon points="631.14 237.58 654.38 245.8 650.13 259.13 664.02 263.94 650.98 303.91 623.77 294.56 625.75 288.04 608.75 282.37 620.43 246.09 628.02 248.07 631.14 237.58"/></g></g><g class="cls-5"><g class="cls-27"><polygon points="867.55 137.73 864.43 151.98 872.16 179.97 881.72 193.08 877.47 199.1 871.09 227.8 842.32 233.83 838.85 227.8 816.53 211.5 824.32 199.46 834.95 143.47 826.45 137.8 867.55 137.73"/></g></g></g><line class="cls-28" x1="712.68" y1="252.95" x2="805.95" y2="284.04"/><line class="cls-29" x1="808.85" y1="283.98" x2="968.34" y2="253.08"/><line class="cls-30" x1="971.35" y1="253.48" x2="978.5" y2="255.57"/><line class="cls-31" x1="980.37" y1="257.77" x2="983.35" y2="264.41"/><line class="cls-32" x1="984.12" y1="267.33" x2="1059.28" y2="691.28"/><line class="cls-33" x1="1057.84" y1="693.5" x2="1047.36" y2="701.56"/><line class="cls-34" x1="1045.2" y1="703.65" x2="1040.44" y2="708.81"/><line class="cls-35" x1="1038.7" y1="711.11" x2="1032.91" y2="719.68"/><line class="cls-36" x1="1032.04" y1="718.39" x2="1030.85" y2="711.15"/><line class="cls-37" x1="1029.53" y1="711.65" x2="1024.32" y2="718.56"/><line class="cls-38" x1="1021.97" y1="720.96" x2="1021.08" y2="721.77"/><line class="cls-39" x1="1018.5" y1="723.72" x2="1015.94" y2="725.43"/><line class="cls-40" x1="1013.09" y1="725.68" x2="974" y2="719.63"/><line class="cls-41" x1="971.07" y1="718.92" x2="592.49" y2="610.05"/><line class="cls-42" x1="592.16" y1="607.87" x2="655.48" y2="418.82"/><line class="cls-43" x1="657.69" y1="418.49" x2="707.59" y2="435.13"/><line class="cls-44" x1="709.15" y1="433.55" x2="726.92" y2="379.69"/><line class="cls-45" x1="725.35" y1="378.1" x2="675.45" y2="360.93"/><line class="cls-42" x1="675.15" y1="358.71" x2="710.48" y2="253.27"/><path class="cls-46" d="M710.79,252.32h0M674.51,360.61h0m52.72,18.14h0m-18.7,56.69h0M655.8,417.87h0m-64.27,191.9h0M973,719.47h0m42.09,6.52h0m5.11-3.4h0m3.54-3.26h0m6.94-9.21h0m1.7,10.34h0m7.37-10.91h0m6.81-7.37h0m12.9-9.92h0m-75.69-426.9h0m-4.25-9.49h0m-10.21-3h0M806.89,284.35h0"/><g class="cls-4"><g class="cls-47"><g class="cls-48"><path class="cls-49" d="M769.72,757.74,760,755.56m10.89-2.87-9.76-2.17M772,747.65l-9.76-2.18m10.88-2.87-9.76-2.18m10.89-2.87-9.76-2.18m10.89-2.87-9.76-2.18m10.88-2.87-9.76-2.18m10.89-2.87-9.76-2.18m10.89-2.86L769,715.18m10.89-2.87-9.76-2.18M781,707.26l-9.76-2.18m10.89-2.87L772.36,700m10.89-2.87L773.49,695m10.88-2.87-9.76-2.18m10.89-2.87-9.76-2.17"/><polygon class="cls-50" points="783.08 674.97 764 688.08 794.77 694.95 783.08 674.97"/><polygon class="cls-50" points="762.38 767.66 781.47 754.55 750.69 747.68 762.38 767.66"/></g></g><g class="cls-47"><g class="cls-51"><path class="cls-49" d="M543.15,697.31l-9.54-3m11.07-1.83-9.54-3m11.07-1.83-9.54-3m11.07-1.84-9.54-3m11.07-1.83-9.54-3m11.07-1.83-9.54-3m11.07-1.83-9.54-3m11.07-1.83-9.54-3m11.07-1.83-9.54-3m11.07-1.83-9.54-3m11.07-1.83-9.54-3M560,644l-9.54-3m11.07-1.83-9.54-3M563,634.33l-9.54-3m11.07-1.83-9.54-3m11.07-1.84-9.54-3m11.07-1.83-9.54-3M569.16,615l-9.54-3"/><polygon class="cls-50" points="567.79 602.68 547.64 614.11 577.71 623.6 567.79 602.68"/><polygon class="cls-50" points="534.99 706.56 555.13 695.14 525.06 685.64 534.99 706.56"/></g></g><g class="cls-47"><g class="cls-52"><path class="cls-49" d="M988.86,785.5l-10,.17m9.91-5.35-10,.18m9.91-5.35-10,.17m9.91-5.34-10,.17m9.91-5.34-10,.17m9.91-5.34-10,.17m9.91-5.35-10,.18m9.91-5.35-10,.17m9.91-5.34-10,.17m9.91-5.34-10,.17m9.91-5.34L978,734m9.91-5.35-10,.18m9.91-5.35-10,.17m9.91-5.34-10,.17m9.91-5.34-10,.17m9.91-5.35-10,.18m9.91-5.35-10,.17m9.91-5.34-10,.17m9.91-5.34-10,.17m9.91-5.34-10,.17m9.91-5.35-10,.18"/><polygon class="cls-50" points="984.05 796.86 999.53 779.63 968 780.17 984.05 796.86"/></g></g><g class="cls-47"><g class="cls-53"><path class="cls-49" d="M963,664.94l6.15-7.89m-2.15,11,6.15-7.89m-2.15,11,6.15-7.88m-2.15,11,6.14-7.88m2.86,9.78-3.17-9.49m8,7.89-3.14-9.49m8,7.91-3.13-9.5m7.93,7.93-3.1-9.51m7.91,8-3.07-9.52m7.87,8-3-9.53m7.84,8-3-9.54m7.8,8.05-2.93-9.56m7.74,8.11-2.85-9.59m7.65,8.19-2.72-9.62m7.47,8.34-2.43-9.7m6.88,8.79-1.4-9.9m6.11,9.36-.75-10m5.38,9.83.12-10m4.91,10.16.19-10m5,10v-10m5.07,10v-10m5.07,10v-10m5.07,10v-10m5.07,10v-10m5.06,10v-10m5.07,10v-10m5.07,10v-10m5.07,10v-10m5.07,10v-10m5.07,10v-10m5.06,10v-10"/><polygon class="cls-50" points="1123.02 654.77 1106.07 639 1106.07 670.54 1123.02 654.77"/><polygon class="cls-50" points="957.2 654.06 960.87 676.92 980.26 652.06 957.2 654.06"/></g></g><g class="cls-9"><g class="cls-54"><line class="cls-55" x1="671.85" y1="441.49" x2="706.71" y2="453.21"/><line class="cls-56" x1="707.5" y1="459.92" x2="680.13" y2="544.18"/><line class="cls-57" x1="684.88" y1="548.95" x2="870" y2="609.48"/><line class="cls-58" x1="876.93" y1="605.5" x2="899.41" y2="578.46"/><line class="cls-59" x1="900.34" y1="570.1" x2="862.86" y2="372.59"/><line class="cls-60" x1="856.66" y1="367.8" x2="763.64" y2="337.53"/><line class="cls-61" x1="762.64" y1="331.23" x2="774.5" y2="296.22"/><line class="cls-62" x1="781.16" y1="295.41" x2="898.83" y2="333.89"/><line class="cls-63" x1="902.8" y1="340.71" x2="948.32" y2="584.85"/><line class="cls-64" x1="945.2" y1="592.39" x2="892.03" y2="659.03"/><line class="cls-65" x1="884.46" y1="659.51" x2="623.65" y2="577.05"/><line class="cls-66" x1="622.69" y1="570.46" x2="665.53" y2="442.53"/><path class="cls-67" d="M666.48,439.68h0M620.79,576.14h0m269.4,85.18h0m58.68-73.53h0m-47.17-253h0m-126.28-41.3h0m-14.6,43.08h0m101.48,33h0M901.46,576h0m-28.62,34.41h0M679.18,547.09h0m30.21-93h0"/></g></g><g class="cls-68"><g class="cls-69"><polyline class="cls-70" points="901.94 334.91 949.61 588.33 890.36 661.18 620.79 576.14 626.17 559.42"/></g></g><g class="cls-71"><g class="cls-72"><line class="cls-73" x1="872.58" y1="467.81" x2="937.11" y2="458.2"/><polygon class="cls-50" points="865.26 468.9 878.99 478.32 875.65 455.89 865.26 468.9"/><polygon class="cls-50" points="944.44 457.11 930.7 447.69 934.04 470.13 944.44 457.11"/></g></g><g class="cls-71"><g class="cls-74"><line class="cls-73" x1="803.37" y1="646.44" x2="822.03" y2="584.93"/><polygon class="cls-50" points="801.22 653.53 815.61 645.15 793.91 638.57 801.22 653.53"/><polygon class="cls-50" points="824.18 577.84 809.79 586.22 831.49 592.81 824.18 577.84"/></g></g><g class="cls-71"><g class="cls-75"><line class="cls-73" x1="728.15" y1="625.35" x2="748.96" y2="561.78"/><polygon class="cls-50" points="725.85 632.39 740.42 624.32 718.87 617.27 725.85 632.39"/><polygon class="cls-50" points="751.26 554.74 736.69 562.8 758.24 569.86 751.26 554.74"/></g></g><g class="cls-71"><g class="cls-76"><line class="cls-73" x1="885.85" y1="535.82" x2="948.47" y2="525.55"/><polygon class="cls-50" points="878.54 537.02 892.41 546.24 888.74 523.86 878.54 537.02"/><polygon class="cls-50" points="955.78 524.35 941.91 515.13 945.58 537.51 955.78 524.35"/></g></g><g class="cls-71"><g class="cls-77"><line class="cls-73" x1="888.26" y1="570.78" x2="962.18" y2="588.59"/><polygon class="cls-50" points="881.06 569.05 890.26 582.93 895.58 560.88 881.06 569.05"/><polygon class="cls-50" points="969.38 590.33 960.18 576.45 954.86 598.5 969.38 590.33"/></g></g><g class="cls-71"><g class="cls-78"><line class="cls-73" x1="872.62" y1="597.59" x2="893.96" y2="668.94"/><polygon class="cls-50" points="870.5 590.49 863.13 605.43 884.86 598.93 870.5 590.49"/><polygon class="cls-50" points="896.08 676.03 903.45 661.1 881.73 667.6 896.08 676.03"/></g></g><g class="cls-9"><g class="cls-79"><path class="cls-11" d="M761.25,353.76c-18.81,2.85-13,51.26-18.14,68-5.12,16.52-10.77,25.8-18.71,40.7-7.8,14.63-17.58,32.21-17.58,50.63,0,22,13.64,40.13,35.72,44.5,21.49,4.26,45.62,2.6,65.77,11.34,13.9,6,59.71,27,69.34,2.73,7.33-18.42-10.31-33.91-13.22-50.23-1.79-10.06,2.8-32,0-42.07-3.78-13.56-12.35-30.15-17-43.23-10.08-28.34,15.29-51.06-21.93-69.83-15.07-7.61-27.62-10.53-48.08-13.93Z"/></g></g><g class="cls-80"><g class="cls-81"><polyline class="cls-82" points="937.35 251.96 810.29 276.57 528.37 176.65"/><polygon class="cls-19" points="954.71 248.6 923.27 228.99 932.87 278.52 954.71 248.6"/><polygon class="cls-19" points="511.7 170.75 528.85 203.59 545.7 156.03 511.7 170.75"/></g></g><g class="cls-9"><g class="cls-83"><path class="cls-84" d="M889.21,410.32a12,12,0,0,0-9.49,14.07L883.33,443a12,12,0,0,0,14.07,9.49l9.43-1.84a12,12,0,0,0,9.49-14.07L912.71,418a12,12,0,0,0-14.07-9.48Z"/></g></g><g class="cls-9"><g class="cls-85"><path class="cls-84" d="M901.85,476.37a12,12,0,0,0-9.49,14.06L896,509A12,12,0,0,0,910,518.5l9.43-1.84A12,12,0,0,0,929,502.59L925.35,484a12,12,0,0,0-14.06-9.49Z"/></g></g><g class="cls-9"><g class="cls-86"><path class="cls-84" d="M823.43,621.38a12,12,0,0,0,7.71,15.12l18,5.85a12,12,0,0,0,15.12-7.71l3-9.14a12,12,0,0,0-7.7-15.12l-18-5.85a12,12,0,0,0-15.12,7.71Z"/></g></g><g class="cls-9"><g class="cls-87"><path class="cls-84" d="M754.47,599.84a12,12,0,0,0,7.7,15.12l18,5.84a12,12,0,0,0,15.13-7.7l3-9.14a12,12,0,0,0-7.71-15.12l-18-5.85a12,12,0,0,0-15.12,7.7Z"/></g></g><g class="cls-9"><g class="cls-88"><path class="cls-84" d="M914.52,544.44A12,12,0,0,0,905,558.5l.36,1.87a12,12,0,0,0,14.07,9.49L928.9,568A12,12,0,0,0,938.39,554l-.37-1.87A12,12,0,0,0,924,542.6Z"/></g></g><g class="cls-9"><g class="cls-89"><path class="cls-84" d="M914.08,586.51a12,12,0,0,0-16.84,2.07l-9.07,11.61A12,12,0,0,0,890.24,617l7.58,5.92a12,12,0,0,0,16.84-2.07l9.07-11.6a12,12,0,0,0-2.07-16.85Z"/></g></g><rect class="cls-90" x="582.87" y="169.84" width="48.34" height="63.49" rx="12"/><rect class="cls-91" x="582.87" y="169.84" width="48.34" height="63.49" rx="12"/><path class="cls-19" d="M612.83,172.28h-.27a2.73,2.73,0,1,0,0,5.46h.53a2.73,2.73,0,1,0,0-5.46Z"/><path class="cls-19" d="M600.12,183.52h-.19a2,2,0,1,0,0,4h.39a2,2,0,0,0,0-4Z"/><path class="cls-19" d="M613.63,200.54v-7.18h-1.55v7.18l0,.21-.09.19-.1.19-.15.14-.16.14-.2.08-.2.08h-.42l-.2-.08-.2-.08-.15-.14-.16-.14-.1-.19-.09-.19,0-.21v-7.18a3.39,3.39,0,0,1-1.58-.28q-.68-3,.48-11a20.08,20.08,0,0,0-2.86,8l-.06.15-.1.12-.1.12-.14.08-.14.07-.16,0-.16,0-.15,0-.15,0-.13-.09-.13-.09-.08-.14-.09-.13,0-.16,0-.15,0-.16q1.89-10.72,8-11.12h.38l1,0v0q6,.51,7.86,11.11l0,.16,0,.15,0,.16-.09.13-.08.14-.13.09-.12.09-.16,0-.15,0-.16,0-.15,0-.14-.07-.14-.08-.11-.12-.1-.12,0-.15a20.39,20.39,0,0,0-2.86-8q1.14,7.92.48,11a3.47,3.47,0,0,1-1.59.28v7.18l0,.21-.09.19-.1.19-.15.14-.16.14-.2.08-.2.08h-.42l-.2-.08-.2-.08-.15-.14-.16-.14-.09-.19-.1-.19Zm-1-21.95,1,0-1,0Z"/></g><polygon class="cls-19" points="602.47 201.31 602.47 190.58 604.03 191.4 604.16 191.43 604.3 191.42 604.44 191.42 604.57 191.37 604.7 191.32 604.82 191.25 604.93 191.17 605.02 191.06 605.11 190.95 605.16 190.82 605.22 190.7 605.24 190.56 605.26 190.42 605.24 190.29 605.22 190.15 605.16 190.02 605.1 189.9 605.01 189.79 604.92 189.68 604.81 189.6 604.7 189.53 604.57 189.48 604.43 189.44 604.29 189.43 602.27 188.37 597.79 188.37 594.99 194.31 594.93 194.49 594.94 194.68 594.95 194.86 595.03 195.03 595.12 195.21 595.25 195.34 595.39 195.47 595.57 195.53 595.75 195.6 595.93 195.6 596.12 195.6 596.3 195.53 596.48 195.46 596.61 195.33 596.75 195.2 596.83 195.03 597.78 193.31 597.78 201.31 597.88 201.42 597.99 201.52 598.11 201.62 598.24 201.68 598.38 201.75 598.52 201.78 598.67 201.82 598.82 201.82 598.97 201.82 599.12 201.78 599.26 201.75 599.39 201.68 599.53 201.62 599.64 201.52 599.76 201.42 599.85 201.31 599.85 195.69 600.3 195.69 600.3 201.31 600.39 201.44 600.51 201.54 600.63 201.65 600.77 201.72 600.91 201.8 601.07 201.83 601.22 201.87 601.38 201.87 601.54 201.87 601.7 201.83 601.85 201.8 601.99 201.72 602.13 201.65 602.25 201.54 602.37 201.44 602.47 201.31"/><rect class="cls-19" x="588.7" y="203.48" width="36.68" height="2.13"/><g class="cls-4"><path class="cls-92" d="M613.77,210l-2.61-1.52c-.26-.15-.29-.39-.11-.7h3.62c.26-.27.85-.27,1.77,0,.56.9.33,1.48-.67,1.73Zm4.85,12.22h-7.54m2.15-10.31,5.39,10.31m-10.23-.54,5.38-11.94m-13.46,2.17,8.08,9.77m-8.08-9.77h12.92m-15.61-3.8h3.77L596,222.17m18.72-6h0a6.68,6.68,0,0,0-3,8.34,6.61,6.61,0,1,0,5.87-9.15m-19.22.43h0a6.58,6.58,0,0,0-8,2.74,6.71,6.71,0,0,0,1.2,8.41,6.55,6.55,0,0,0,8.41.38,6.69,6.69,0,0,0,1.94-8.26m0,0-.18-.36-.22-.34-.22-.33-.25-.31"/><rect class="cls-90" x="609.8" y="387.18" width="48.34" height="63.49" rx="12"/><rect class="cls-91" x="609.8" y="387.18" width="48.34" height="63.49" rx="12"/><path class="cls-19" d="M639.76,389.62h-.27a2.74,2.74,0,0,0,0,5.47H640a2.74,2.74,0,0,0,0-5.47Z"/><path class="cls-19" d="M627.05,400.87h-.2a2,2,0,1,0,0,4h.4a2,2,0,0,0,0-4Z"/><path class="cls-19" d="M640.56,417.88V410.7H639v7.18l0,.21-.09.19-.1.19-.15.15-.16.14-.2.07-.2.08h-.42l-.2-.08-.2-.07-.15-.14-.16-.15-.1-.19-.09-.19,0-.21V410.7a3.42,3.42,0,0,1-1.58-.27q-.67-3,.48-11a20,20,0,0,0-2.86,8l-.06.15-.1.12-.1.12-.14.07-.14.08h-.16l-.16,0-.15,0-.15,0-.13-.09-.13-.1-.08-.13-.09-.13,0-.16,0-.16,0-.15q1.88-10.72,8-11.13h1.37v0q6,.51,7.86,11.12l0,.15,0,.16,0,.16-.09.13-.08.13-.13.1-.13.09-.15,0-.15,0-.16,0h-.16l-.14-.08-.13-.07-.11-.12-.1-.12-.05-.15a20.27,20.27,0,0,0-2.86-8q1.14,7.92.48,11a3.49,3.49,0,0,1-1.59.27v7.18l0,.21-.09.19-.1.19-.15.15-.16.14-.2.07-.2.08h-.42l-.2-.08-.2-.07-.15-.14-.16-.15-.1-.19-.09-.19Zm-1-21.94,1,0h-1Z"/></g><polygon class="cls-19" points="629.39 418.65 629.39 407.92 630.96 408.74 631.09 408.78 631.23 408.77 631.37 408.76 631.5 408.72 631.63 408.67 631.75 408.59 631.86 408.51 631.95 408.41 632.04 408.3 632.09 408.17 632.15 408.04 632.17 407.91 632.18 407.77 632.16 407.63 632.14 407.49 632.09 407.37 632.03 407.24 631.94 407.13 631.85 407.03 631.74 406.95 631.63 406.87 631.49 406.83 631.36 406.79 631.22 406.78 629.2 405.71 624.72 405.71 621.91 411.65 621.86 411.83 621.87 412.02 621.88 412.21 621.96 412.38 622.04 412.55 622.18 412.68 622.32 412.81 622.5 412.88 622.67 412.95 622.86 412.95 623.05 412.95 623.23 412.88 623.4 412.81 623.54 412.68 623.68 412.55 623.76 412.38 624.71 410.66 624.71 418.65 624.8 418.77 624.92 418.87 625.03 418.96 625.17 419.03 625.3 419.1 625.45 419.13 625.6 419.17 625.75 419.17 625.9 419.17 626.04 419.13 626.19 419.1 626.32 419.03 626.46 418.96 626.57 418.87 626.69 418.77 626.78 418.65 626.78 413.03 627.23 413.03 627.23 418.65 627.32 418.78 627.44 418.89 627.56 418.99 627.7 419.07 627.84 419.14 628 419.18 628.15 419.22 628.31 419.22 628.47 419.22 628.63 419.18 628.78 419.14 628.92 419.07 629.06 418.99 629.18 418.89 629.3 418.78 629.39 418.65"/><rect class="cls-19" x="615.63" y="420.83" width="36.68" height="2.13"/><g class="cls-4"><path class="cls-92" d="M640.7,427.29l-2.61-1.52c-.26-.15-.29-.38-.11-.7h3.62c.26-.26.85-.27,1.77,0,.55.91.33,1.49-.68,1.74Zm4.84,12.23H638m2.15-10.32,5.38,10.32M635.31,439l5.39-12m-13.46,2.17,8.07,9.78m-8.07-9.78h12.92m-15.61-3.8h3.77l-5.39,14.12m18.72-6h0a6.67,6.67,0,0,0-2.95,8.33,6.59,6.59,0,0,0,7.87,3.93,6.66,6.66,0,0,0-2-13.07m-19.22.42h0a6.58,6.58,0,0,0-8,2.75,6.71,6.71,0,0,0,1.2,8.41,6.55,6.55,0,0,0,8.41.38,6.71,6.71,0,0,0,1.94-8.27m0,0-.18-.36-.22-.33-.22-.34-.25-.31"/><g class="cls-9"><g class="cls-93"><path class="cls-11" d="M731.34,274.25c-7.22,2.17-12.19.57-20.13,5.95-3,2.07-6.47,7.2-8.22,10.47-3.26,6.12-4.87,8.85-7.93,22.84-3.26,14.84-2.52,19.84-2.56,19.28.46,6.26,1.2,12,3.41,16.44,3.4,6.8,6.17,9.87,10.91,12.47,8.79,4.82,17,4.57,23,3.82,8.93-1.13,10.06-1.27,14.31-4.1,4.68-3.12,6.69-5.55,8.08-8.36a24.48,24.48,0,0,0,2.13-10.92c0-3.1.22-12.37,1.13-15.3,3.75-12,4.27-11.51,9.92-22.93,2.27-4.57,3.33-13.24,3.26-17.33-.05-3.42-5.78-13.89-15.73-15.51-10.22-1.67-14.45,1.06-21.54,3.18"/></g></g><g class="cls-9"><g class="cls-94"><path class="cls-95" d="M809.86,297.64c47.81,15.93,73.17,24.72,87.56,28,11.34,2.55,11.78-15.36,8.22-32.6-3.68-17.86-3.37-21.16-13.58-20s-78.8,14.17-83,15C804,289,802.2,295.09,809.86,297.64Z"/></g></g><g class="cls-9"><g class="cls-96"><line class="cls-95" x1="809.01" y1="288.85" x2="818.93" y2="300.19"/></g></g><g class="cls-9"><g class="cls-97"><line class="cls-95" x1="820.06" y1="285.9" x2="839.05" y2="307.56"/></g></g><g class="cls-9"><g class="cls-98"><line class="cls-95" x1="831.26" y1="283.18" x2="859.46" y2="315.07"/></g></g><g class="cls-9"><g class="cls-99"><line class="cls-95" x1="845.43" y1="282.05" x2="878.88" y2="320.17"/></g></g><g class="cls-9"><g class="cls-100"><line class="cls-95" x1="857" y1="279.78" x2="897.16" y2="324.99"/></g></g><g class="cls-9"><g class="cls-101"><line class="cls-95" x1="868.82" y1="277.02" x2="905.95" y2="319.18"/></g></g><g class="cls-9"><g class="cls-102"><line class="cls-95" x1="881.9" y1="275.39" x2="907.37" y2="304.57"/></g></g><g class="cls-80"><g class="cls-103"><line class="cls-82" x1="1064.9" y1="229.33" x2="1158.59" y2="207.36"/><polygon class="cls-19" points="1047.68 233.37 1079.86 251.74 1068.34 202.62 1047.68 233.37"/><polygon class="cls-19" points="1175.81 203.33 1143.64 184.96 1155.15 234.08 1175.81 203.33"/></g></g><g class="cls-16"><g class="cls-104"><line class="cls-105" x1="968.33" y1="245.6" x2="1029.53" y2="236.04"/><polygon class="cls-19" points="958.11 247.2 977.3 260.16 972.43 229.01 958.11 247.2"/><polygon class="cls-19" points="1039.75 234.45 1020.56 221.49 1025.43 252.64 1039.75 234.45"/></g></g><g class="cls-106"><g class="cls-107"><path class="cls-108" d="M618.9,595.75s253.19,85.53,278,82.58c23.81-2.83,49.89-33.45,59.34-51.4s8.55-38.22,6.43-51.5c-2.27-14.17-45.93-238.11-45.93-238.11"/></g></g><g class="cls-68"><g class="cls-109"><polygon class="cls-110" points="674.48 360.85 727.31 378.82 708.66 435.83 655.8 417.54 674.48 360.85"/></g></g><path class="cls-111" d="M693.09,378.05,694,404.9m-16.26,13L689.33,380q3.43-3.26,7.94-.4l8.88,39.13"/></g><polygon class="cls-112" points="690 412.23 696.57 412.46 696.51 414.01 690.58 414.57 690 412.23"/><g class="cls-4"><path class="cls-112" d="M697.39,399.16h0a2.12,2.12,0,1,0,2,2.19,2.11,2.11,0,0,0-2-2.19"/><path class="cls-112" d="M698.28,404.91a1.64,1.64,0,0,0-1.71-1.09,2.12,2.12,0,0,0-1.33,1.48v.05a3.33,3.33,0,0,1-3.76-.76l-.15-.09-.17,0-.16,0-.17,0-.16,0-.14.09-.14.1-.1.14-.09.14-.05.17,0,.17,0,.17,0,.17.08.16.08.15.13.11-.12-.13a5.47,5.47,0,0,0,3.44,1.52,3.58,3.58,0,0,0,.8,0l0,0a12.38,12.38,0,0,1-.88,2q-4.44-.79-8.13,3.19l-.06.18v.37l0,.19,0,.18.09.16.09.16.14.13.13.13.17.08.16.09.18,0,.18,0,.18,0,.18,0,.17-.07,1-1,.39-.35.6-.37.84-.41.57-.22.52-.16.68-.09h.9l1,.1a4.64,4.64,0,0,0,2,.07,3.66,3.66,0,0,0,1.4-1.85q1.74-3.37,1.14-5.17"/></g><text class="cls-113" transform="translate(36 288)">•</text><text class="cls-113" transform="translate(43.25 288)"> </text><text class="cls-113" transform="translate(54 288)">C<tspan class="cls-114" x="16.87" y="0">r</tspan><tspan class="cls-115" x="25.25" y="0">éer un esp</tspan><tspan class="cls-116" x="138.62" y="0">a</tspan><tspan x="151.44" y="0">ce </tspan><tspan class="cls-117" x="183.24" y="0">v</tspan><tspan class="cls-118" x="194.37" y="0">é</tspan><tspan class="cls-119" x="207.19" y="0">g</tspan><tspan class="cls-120" x="219.62" y="0">é</tspan><tspan class="cls-117" x="232.39" y="0">t</tspan><tspan x="240.67" y="0">alisé au </tspan></text><text class="cls-113" transform="translate(54 312)">coeur de l’i<tspan class="cls-121" x="119.13" y="0">m</tspan><tspan x="139.25" y="0">pla</tspan><tspan class="cls-122" x="172.61" y="0">n</tspan><tspan class="cls-117" x="186.31" y="0">t</tspan><tspan class="cls-120" x="194.59" y="0">a</tspan><tspan x="207.45" y="0">tion de plus </tspan></text><text class="cls-113" transform="translate(54 336)">de <tspan class="cls-123" x="33.29" y="0">2</tspan><tspan x="45.84" y="0">800m</tspan></text><text class="cls-124" transform="translate(164.23 328.01)">2</text><text class="cls-113" transform="translate(171.81 336)"> </text><text class="cls-113" transform="translate(36 384)">•</text><text class="cls-113" transform="translate(43.25 384)"> </text><text class="cls-113" transform="translate(54 384)">C<tspan class="cls-114" x="16.87" y="0">r</tspan><tspan class="cls-115" x="25.25" y="0">éer une nou</tspan><tspan class="cls-125" x="153.72" y="0">v</tspan><tspan class="cls-115" x="164.83" y="0">elle perméabili</tspan><tspan class="cls-126" x="323.97" y="0">t</tspan><tspan x="332.2" y="0">é </tspan></text><text class="cls-113" transform="translate(54 408)">mobili<tspan class="cls-127" x="66.48" y="0">t</tspan><tspan class="cls-115" x="74.71" y="0">é douce pour co</tspan><tspan class="cls-128" x="248.83" y="0">n</tspan><tspan x="262.72" y="0">ne</tspan><tspan class="cls-120" x="289.48" y="0">c</tspan><tspan class="cls-126" x="302.06" y="0">t</tspan><tspan class="cls-118" x="310.29" y="0">er </tspan></text><text class="cls-113" transform="translate(54 432)">le chemin des <tspan class="cls-129" x="157.05" y="0">P</tspan><tspan x="171.45" y="0">al</tspan><tspan class="cls-120" x="190.82" y="0">e</tspan><tspan class="cls-130" x="203.59" y="0">t</tspan><tspan class="cls-127" x="212.3" y="0">t</tspan><tspan x="220.53" y="0">es</tspan></text><text class="cls-113" transform="translate(36 480)">•</text><text class="cls-113" transform="translate(43.25 480)"> </text><text class="cls-113" transform="translate(54 480)"><tspan class="cls-131">D</tspan><tspan x="17.38" y="0">es </tspan><tspan class="cls-132" x="48.5" y="0">r</tspan><tspan class="cls-125" x="56.88" y="0">e</tspan><tspan class="cls-133" x="69.58" y="0">z</tspan><tspan class="cls-118" x="79.58" y="0">-d</tspan><tspan class="cls-129" x="103.15" y="0">e</tspan><tspan x="115.77" y="0">-chau</tspan><tspan class="cls-134" x="178.61" y="0">s</tspan><tspan x="190.37" y="0">sée </tspan><tspan class="cls-117" x="234.31" y="0">a</tspan><tspan class="cls-135" x="247.13" y="0">c</tspan><tspan x="259.72" y="0">ti</tspan><tspan class="cls-136" x="274.32" y="0">f</tspan><tspan x="282.33" y="0">s le </tspan></text><text class="cls-113" transform="translate(54 504)">long de l’i<tspan class="cls-137" x="104.54" y="0">n</tspan><tspan class="cls-127" x="118.25" y="0">t</tspan><tspan class="cls-115" x="126.48" y="0">e</tspan><tspan class="cls-138" x="139.29" y="0">r</tspan><tspan class="cls-132" x="148.37" y="0">f</tspan><tspan class="cls-117" x="156.38" y="0">a</tspan><tspan class="cls-118" x="169.2" y="0">ce t</tspan><tspan class="cls-139" x="209.37" y="0">r</tspan><tspan x="217.7" y="0" xml:space="preserve">am  </tspan></text><path d="M93.29,53.54l4.89-.48c0,2.34,1.32,3.72,3.36,3.72a2.71,2.71,0,0,0,3-3c0-1.92-1.14-2.91-3.6-2.91H99.83v-3.3h1.08c2.1,0,3.18-1.08,3.18-2.91a2.5,2.5,0,0,0-2.76-2.73c-2,0-3.06,1.41-3.06,3.78l-4.77-.63c0-4.17,3.12-6.81,8.07-6.81s7.5,2.16,7.5,5.82A5,5,0,0,1,104.9,49c3.09.48,4.74,2.22,4.74,5.13,0,4-3.18,6.42-8.13,6.42S93.35,57.8,93.29,53.54Zm24,6.51h-5.13V55.13h5.13Zm3.27-3.54A45.06,45.06,0,0,0,128.06,51c2-2,2.85-3.6,2.85-5.73s-1-3.24-2.7-3.24-2.82,1.2-2.82,3.18a10.13,10.13,0,0,0,.21,1.71l-4.92-.45a8.15,8.15,0,0,1-.18-1.65c0-4,3.06-6.6,7.95-6.6s7.62,2.43,7.62,6.69c0,2.88-1.23,5.31-3.75,7.65a28.91,28.91,0,0,1-5.19,3.63h9.12v3.84H120.53Zm31.08-17.76V52.4a4,4,0,1,0,7.92,0V38.75h5.07V52.61c0,4.86-3.36,8-9,8s-9-3.09-9-8V38.75Zm17.07,0h5.61l6.84,12.15a22.16,22.16,0,0,1,1.29,2.76h.06c0-.84,0-1.71,0-2.73V38.75h4.65v21.3h-5.4l-7.08-12.27a18.35,18.35,0,0,1-1.26-2.61h-.06c0,.87,0,1.77,0,2.82V60.05h-4.65ZM206.33,56.3v3.75H191.54V38.75h14.58V42.5h-9.51v4.8h9V51h-9V56.3Zm28.19-10.86c0,4.23-3,6.87-7.76,6.87H222.5v7.74h-5.07V38.75h9.45C231.5,38.75,234.52,41.39,234.52,45.44Zm-5.3.15c0-2-1.29-3.18-3.57-3.18H222.5v6.36h3.15C227.9,48.77,229.22,47.6,229.22,45.59Zm7.92,14.46V38.75h5.07v21.3Zm24.3-3.75v3.75H246.65V38.75h14.58V42.5h-9.51v4.8h9V51h-9V56.3Zm-9.27-18.84-3.48-3.54h4.17l3,3.54Zm11.3,12c0-6.72,4-11.19,10.44-11.19,5.43,0,8.85,3,9.42,7.65l-5.13.9c-.3-2.82-1.86-4.47-4.41-4.47-3.24,0-5.13,2.73-5.13,7.08s1.92,7.05,5.28,7.05c2.37,0,4-1.62,4.38-4.38l5.13,1.11c-1,4.5-4.32,7.38-9.6,7.38C267.1,60.56,263.47,56.15,263.47,49.43Zm37.71,6.87v3.75H286.39V38.75H301V42.5h-9.51v4.8h9V51h-9V56.3Zm11.1-17.55h8.49c6.39,0,10.53,4.26,10.53,10.53s-4.14,10.77-10.59,10.77h-8.43Zm8.22,17.58c3.6,0,5.58-3.24,5.58-7s-1.86-6.81-5.52-6.81h-3.21V56.33Zm28.68,0v3.75H334.39V38.75H349V42.5h-9.51v4.8h9V51h-9V56.3Zm11.1-17.55h5.61l6.84,12.15A22.16,22.16,0,0,1,374,53.66h.06c0-.84,0-1.71,0-2.73V38.75h4.65v21.3h-5.4l-7.08-12.27A18.35,18.35,0,0,1,365,45.17h-.06c0,.87,0,1.77,0,2.82V60.05h-4.65Zm35.61,16.32H388l-1.62,5h-5.07l7.74-21.3h5.79l7.74,21.3h-5.1Zm-1.17-3.57-2-5.94a25.65,25.65,0,0,1-.78-3h-.06a20.83,20.83,0,0,1-.78,3L389.2,51.5Zm23.19-8.73H411.7V60.05h-5V42.77h-6.18v-4h17.43Zm7.11-4V52.4a4,4,0,1,0,7.92,0V38.75H438V52.61c0,4.86-3.36,8-9,8s-9-3.09-9-8V38.75Zm25.2,13.14h-3.06v8.16h-5.07V38.75h9.36c5.4,0,7.8,2.64,7.8,6.54a5.89,5.89,0,0,1-4.17,5.85l4.71,8.91H454.3Zm-3.06-3.48h3.27c2.46,0,3.54-1.2,3.54-3.12s-1.05-3-3.54-3h-3.27Zm30.51,7.89v3.75H462.88V38.75h14.58V42.5H468v4.8h9V51h-9V56.3Z"/><text class="cls-140" transform="translate(92.63 95.99)">Un <tspan class="cls-141" x="46.74" y="0">g</tspan><tspan class="cls-142" x="62.07" y="0">r</tspan><tspan x="72.42" y="0">and es</tspan><tspan class="cls-143" x="162.99" y="0">p</tspan><tspan class="cls-144" x="180.51" y="0">a</tspan><tspan x="196.68" y="0">ce </tspan><tspan class="cls-142" x="236.88" y="0">v</tspan><tspan class="cls-132" x="250.56" y="0">é</tspan><tspan class="cls-145" x="266.61" y="0">g</tspan><tspan class="cls-146" x="282.12" y="0">é</tspan><tspan class="cls-147" x="297.99" y="0">t</tspan><tspan x="308.25" y="0">alisé </tspan><tspan class="cls-148" x="379.46" y="0">e</tspan><tspan x="395.33" y="0">t p</tspan><tspan class="cls-149" x="431.39" y="0">r</tspan><tspan class="cls-146" x="441.65" y="0">o</tspan><tspan class="cls-150" x="458.21" y="0">t</tspan><tspan class="cls-147" x="468.17" y="0">é</tspan><tspan class="cls-145" x="484.19" y="0">g</tspan><tspan x="499.7" y="0">é pour le qua</tspan><tspan class="cls-151" x="677.84" y="0">r</tspan><tspan x="689.39" y="0">tier</tspan></text><text class="cls-140" transform="translate(92.63 131.99)">1 ai<tspan class="cls-152" x="43.83" y="0">r</tspan><tspan x="54.06" y="0">e d’i</tspan><tspan class="cls-153" x="110.97" y="0">m</tspan><tspan class="cls-154" x="136.17" y="0">pla</tspan><tspan class="cls-155" x="178.14" y="0">n</tspan><tspan class="cls-147" x="195.27" y="0">t</tspan><tspan class="cls-156" x="205.53" y="0">a</tspan><tspan class="cls-157" x="221.31" y="0">tion</tspan></text></g></g></g></g></svg>