<svg id="Calque_1" data-name="Calque 1" xmlns="http://www.w3.org/2000/svg" xmlns:xlink="http://www.w3.org/1999/xlink" viewBox="0 0 1190.55 841.89"><defs><style>.cls-1{fill:none;}.cls-2{clip-path:url(#clip-path);}</style><clipPath id="clip-path"><rect class="cls-1" width="1190.55" height="841.89"/></clipPath></defs><title>Plan de travail</title><g class="cls-2"><path d="M427.67,422.36l4.89-.48c0,2.34,1.32,3.72,3.36,3.72a2.71,2.71,0,0,0,3-3c0-1.92-1.14-2.91-3.6-2.91h-1.11v-3.3h1.08c2.1,0,3.18-1.08,3.18-2.91a2.5,2.5,0,0,0-2.76-2.73c-1.95,0-3.06,1.41-3.06,3.78l-4.77-.63c0-4.17,3.12-6.81,8.07-6.81s7.5,2.16,7.5,5.82a5,5,0,0,1-4.17,4.89c3.09.48,4.74,2.22,4.74,5.13,0,4-3.18,6.42-8.13,6.42S427.73,426.62,427.67,422.36Zm24,6.51h-5.13V424h5.13Zm28.44.75a6,6,0,0,0,1.68-.24v3.93a13.67,13.67,0,0,1-2.25.18c-3.6,0-5.94-1.53-7-4.11h-.42c-6.39,0-10.5-4.32-10.5-11.16s4.11-11.16,10.5-11.16,10.5,4.29,10.5,11.16c0,5-2.22,8.7-5.91,10.29A4.89,4.89,0,0,0,480.08,429.62Zm-7.95-4.2c3.33,0,5.28-2.7,5.28-7.2s-2-7.2-5.28-7.2-5.31,2.7-5.31,7.2S468.8,425.42,472.13,425.42Zm18.3-17.85v13.65a4,4,0,1,0,7.92,0V407.57h5.07v13.86c0,4.86-3.36,7.95-9,7.95s-9-3.09-9-7.95V407.57Zm28.89,16.32h-7.86l-1.62,5h-5.07l7.74-21.3h5.79l7.74,21.3h-5.1Zm-1.17-3.57-1.95-5.94a25.65,25.65,0,0,1-.78-3h-.06a20.83,20.83,0,0,1-.78,3l-2,5.94Zm23.19-8.73h-6.21v17.28h-5V411.59h-6.18v-4h17.43Zm10.53,9.12h-3.06v8.16h-5.07v-21.3h9.36c5.4,0,7.8,2.64,7.8,6.54a5.89,5.89,0,0,1-4.17,5.85l4.71,8.91H556Zm-3.06-3.48h3.27c2.46,0,3.54-1.2,3.54-3.12s-1-3-3.54-3h-3.27Zm30.51,7.89v3.75H564.53v-21.3h14.58v3.75H569.6v4.8h9v3.72h-9v5.28Zm8.82-.69,3.75-2.64a6.17,6.17,0,0,0,5.79,3.66c2,0,3.66-.75,3.66-2.43s-.93-2.19-3.09-2.64l-2.85-.6c-3.72-.81-5.88-2.82-5.88-6.39,0-3.9,3.18-6.33,8.31-6.33,3.78,0,7,1.38,8.46,4.23l-3.3,2.79a6,6,0,0,0-5.49-3.27c-2,0-3.3.84-3.3,2.19s.84,2.07,3.09,2.58l3.09.66c3.78.84,5.82,2.64,5.82,6.3,0,4-3.12,6.84-8.7,6.84C592.91,429.38,589.61,427.43,588.14,424.43Zm19.71-6.18c0-6.72,4-11.19,10.44-11.19,5.43,0,8.85,3,9.42,7.65l-5.13.9c-.3-2.82-1.86-4.47-4.41-4.47-3.24,0-5.13,2.73-5.13,7.08s1.92,7,5.28,7c2.37,0,4-1.62,4.38-4.38l5.13,1.11c-1,4.5-4.32,7.38-9.6,7.38C611.48,429.38,607.85,425,607.85,418.25Zm37.71,6.87v3.75H630.77v-21.3h14.58v3.75h-9.51v4.8h9v3.72h-9v5.28Zm-5.43-18.84h-3.66l3-3.54h4.17Zm9.12,1.29h5.61l6.84,12.15a22.16,22.16,0,0,1,1.29,2.76h.06c0-.84,0-1.71,0-2.73V407.57h4.65v21.3h-5.4l-7.08-12.27a18.35,18.35,0,0,1-1.26-2.61h-.06c0,.87,0,1.77,0,2.82v12.06h-4.65Zm35.61,16.32H677l-1.62,5h-5.07l7.74-21.3h5.79l7.73,21.3h-5.09Zm-1.17-3.57-2-5.94a25.65,25.65,0,0,1-.78-3h-.06a20.83,20.83,0,0,1-.78,3l-2,5.94Zm18.63.39h-3.06v8.16h-5.07v-21.3h9.35c5.4,0,7.8,2.64,7.8,6.54a5.89,5.89,0,0,1-4.17,5.85l4.71,8.91h-5.49Zm-3.06-3.48h3.27c2.45,0,3.53-1.2,3.53-3.12s-1-3-3.53-3h-3.27ZM715,428.87v-21.3H720v21.3Zm8.16-10.65c0-6.87,4.11-11.16,10.49-11.16s10.5,4.29,10.5,11.16-4.11,11.16-10.5,11.16S723.14,425.06,723.14,418.22Zm15.77,0c0-4.5-1.95-7.2-5.28-7.2s-5.3,2.7-5.3,7.2,2,7.2,5.3,7.2S738.91,422.72,738.91,418.22Zm5.79,6.21,3.75-2.64a6.17,6.17,0,0,0,5.79,3.66c2,0,3.66-.75,3.66-2.43s-.93-2.19-3.09-2.64l-2.85-.6c-3.72-.81-5.88-2.82-5.88-6.39,0-3.9,3.18-6.33,8.31-6.33,3.78,0,7,1.38,8.46,4.23l-3.3,2.79a6,6,0,0,0-5.49-3.27c-2,0-3.3.84-3.3,2.19s.84,2.07,3.09,2.58l3.09.66c3.78.84,5.82,2.64,5.82,6.3,0,4-3.12,6.84-8.7,6.84C749.47,429.38,746.17,427.43,744.7,424.43Z"/></g></svg>