<svg xmlns="http://www.w3.org/2000/svg" xmlns:xlink="http://www.w3.org/1999/xlink" viewBox="0 0 1190.55 841.89"><defs><style>.cls-1,.cls-162,.cls-164,.cls-165,.cls-166,.cls-167,.cls-168,.cls-26,.cls-27,.cls-28,.cls-29,.cls-30,.cls-31,.cls-32,.cls-38,.cls-41,.cls-42,.cls-43,.cls-44,.cls-45,.cls-46,.cls-47,.cls-48,.cls-49,.cls-50,.cls-51,.cls-52,.cls-53,.cls-54,.cls-55,.cls-56,.cls-57,.cls-58,.cls-59,.cls-62,.cls-63,.cls-64,.cls-68,.cls-70,.cls-86,.cls-87,.cls-89,.cls-90{fill:none;}.cls-2{isolation:isolate;}.cls-3{clip-path:url(#clip-path);}.cls-4{font-size:30px;font-family:GTAmerica-LightItalic, GT America;font-style:italic;}.cls-105,.cls-139,.cls-143,.cls-4{font-weight:300;}.cls-5{letter-spacing:0em;}.cls-6{letter-spacing:-0.01em;}.cls-7{letter-spacing:-0.01em;}.cls-8{letter-spacing:-0.02em;}.cls-9{letter-spacing:0em;}.cls-10{letter-spacing:-0.02em;}.cls-11{letter-spacing:-0.03em;}.cls-12{letter-spacing:-0.02em;}.cls-13{letter-spacing:-0.01em;}.cls-14{letter-spacing:0em;}.cls-15{letter-spacing:-0.02em;}.cls-16{letter-spacing:-0.01em;}.cls-17{letter-spacing:-0.02em;}.cls-18{clip-path:url(#clip-path-3);}.cls-19{opacity:0.2;}.cls-20{clip-path:url(#clip-path-4);}.cls-21{opacity:0.5;}.cls-22{clip-path:url(#clip-path-5);}.cls-23{fill:#f39797;}.cls-24{clip-path:url(#clip-path-6);}.cls-25{clip-path:url(#clip-path-7);}.cls-164,.cls-165,.cls-166,.cls-167,.cls-168,.cls-26,.cls-27,.cls-28,.cls-29,.cls-30,.cls-31,.cls-32,.cls-38,.cls-86,.cls-87{stroke:#000;}.cls-164,.cls-165,.cls-166,.cls-167,.cls-168,.cls-26,.cls-27,.cls-28,.cls-29,.cls-30,.cls-31,.cls-32,.cls-41,.cls-42,.cls-43,.cls-44,.cls-45,.cls-46,.cls-47,.cls-48,.cls-49,.cls-50,.cls-51,.cls-52,.cls-53,.cls-54,.cls-55,.cls-56,.cls-57,.cls-58,.cls-59,.cls-62,.cls-63,.cls-64,.cls-68,.cls-86,.cls-89,.cls-90{stroke-linecap:round;stroke-linejoin:round;}.cls-164,.cls-165,.cls-166,.cls-167,.cls-168,.cls-26,.cls-27,.cls-28,.cls-29,.cls-30,.cls-31,.cls-32,.cls-86{stroke-width:8px;}.cls-26{stroke-dasharray:0 25.55;}.cls-27{stroke-dasharray:0 23.3;}.cls-28{stroke-dasharray:0 22.44;}.cls-30{stroke-dasharray:0 25.66;}.cls-31{stroke-dasharray:0 22.97;}.cls-32{stroke-dasharray:0 18.77;}.cls-33,.cls-66{opacity:0.8;}.cls-34{clip-path:url(#clip-path-9);}.cls-35{fill:#69b75c;}.cls-36{clip-path:url(#clip-path-10);}.cls-37{fill:#5c782a;}.cls-38{stroke-width:0.33px;}.cls-39{clip-path:url(#clip-path-11);}.cls-40{clip-path:url(#clip-path-12);}.cls-41,.cls-42,.cls-43,.cls-44,.cls-45,.cls-46,.cls-47,.cls-48,.cls-49,.cls-50,.cls-51,.cls-52,.cls-53,.cls-54,.cls-55,.cls-56,.cls-57,.cls-58,.cls-59{stroke:#cd1719;}.cls-41{stroke-dasharray:0 1.99;}.cls-42{stroke-dasharray:0 1.99;}.cls-43{stroke-dasharray:0 2.13;}.cls-44{stroke-dasharray:0 2.08;}.cls-45{stroke-dasharray:0 2;}.cls-46{stroke-dasharray:0 2.03;}.cls-47{stroke-dasharray:0 2.01;}.cls-48{stroke-dasharray:0 1.88;}.cls-49{stroke-dasharray:0 2.1;}.cls-50{stroke-dasharray:0 1.92;}.cls-51{stroke-dasharray:0 2.41;}.cls-52{stroke-dasharray:0 2.04;}.cls-53{stroke-dasharray:0 2.03;}.cls-54{stroke-dasharray:0 2.01;}.cls-55{stroke-dasharray:0 2;}.cls-56{stroke-dasharray:0 1.99;}.cls-57{stroke-dasharray:0 1.99;}.cls-58{stroke-dasharray:0 1.99;}.cls-60{opacity:0.9;}.cls-61{clip-path:url(#clip-path-14);}.cls-62,.cls-63,.cls-64,.cls-68,.cls-89,.cls-90{stroke:#5baf31;}.cls-62,.cls-63,.cls-64,.cls-68{stroke-width:15px;}.cls-62{stroke-dasharray:0 28.99;}.cls-63{stroke-dasharray:0 30.24;}.cls-65{fill:#5baf31;}.cls-66{mix-blend-mode:multiply;}.cls-67{clip-path:url(#clip-path-15);}.cls-68{stroke-dasharray:0 31.24;}.cls-69{clip-path:url(#clip-path-16);}.cls-70{stroke:#4d7f34;stroke-width:2.73px;}.cls-71{fill:#4d7f34;}.cls-72{opacity:0.6;}.cls-73{clip-path:url(#clip-path-17);}.cls-74{fill:#cd1719;}.cls-75{clip-path:url(#clip-path-18);}.cls-76{clip-path:url(#clip-path-19);}.cls-77{clip-path:url(#clip-path-20);}.cls-78{clip-path:url(#clip-path-21);}.cls-79{clip-path:url(#clip-path-22);}.cls-80{clip-path:url(#clip-path-23);}.cls-81{clip-path:url(#clip-path-24);}.cls-82{clip-path:url(#clip-path-25);}.cls-83{clip-path:url(#clip-path-26);}.cls-84{clip-path:url(#clip-path-27);}.cls-85{clip-path:url(#clip-path-28);}.cls-86{stroke-dasharray:0 21.82;}.cls-87{stroke-width:1.5px;}.cls-88{clip-path:url(#clip-path-30);}.cls-89,.cls-90{stroke-width:8.1px;}.cls-89{stroke-dasharray:0 16.87;}.cls-91{clip-path:url(#clip-path-31);}.cls-92{clip-path:url(#clip-path-32);}.cls-139,.cls-93{font-size:24px;}.cls-93{font-family:GTAmerica-Bold, GT America;font-weight:700;}.cls-94{letter-spacing:0em;}.cls-95{letter-spacing:0em;}.cls-96{letter-spacing:0em;}.cls-97{letter-spacing:0.02em;}.cls-98{letter-spacing:-0.01em;}.cls-99{letter-spacing:-0.01em;}.cls-100{letter-spacing:0em;}.cls-101{letter-spacing:-0.01em;}.cls-102{letter-spacing:-0.03em;}.cls-103{letter-spacing:0.01em;}.cls-104{letter-spacing:0.01em;}.cls-105{font-size:22px;}.cls-105,.cls-139,.cls-143{font-family:GTAmerica-Light, GT America;}.cls-106{letter-spacing:-0.01em;}.cls-107{letter-spacing:0em;}.cls-108{letter-spacing:0em;}.cls-109{letter-spacing:0em;}.cls-110{letter-spacing:0.02em;}.cls-111{letter-spacing:0em;}.cls-112{letter-spacing:-0.01em;}.cls-113{letter-spacing:-0.01em;}.cls-114{letter-spacing:-0.01em;}.cls-115{letter-spacing:-0.01em;}.cls-116{letter-spacing:0.01em;}.cls-117{letter-spacing:0em;}.cls-118{letter-spacing:-0.01em;}.cls-119{letter-spacing:-0.06em;}.cls-120{letter-spacing:-0.01em;}.cls-121{letter-spacing:-0.03em;}.cls-122{letter-spacing:0.01em;}.cls-123{letter-spacing:-0.01em;}.cls-124{letter-spacing:-0.02em;}.cls-125{letter-spacing:0em;}.cls-126{letter-spacing:0em;}.cls-127{letter-spacing:0.02em;}.cls-128{letter-spacing:0em;}.cls-129{letter-spacing:0em;}.cls-130{letter-spacing:0.02em;}.cls-131{letter-spacing:0em;}.cls-132{letter-spacing:-0.02em;}.cls-133{letter-spacing:0.02em;}.cls-134{letter-spacing:-0.01em;}.cls-135{letter-spacing:-0.04em;}.cls-136{letter-spacing:0.01em;}.cls-137{letter-spacing:0em;}.cls-138{letter-spacing:0em;}.cls-140{letter-spacing:-0.02em;}.cls-141{letter-spacing:-0.03em;}.cls-142{letter-spacing:-0.05em;}.cls-143{font-size:20px;}.cls-144{letter-spacing:-0.02em;}.cls-145{letter-spacing:0em;}.cls-146{letter-spacing:0em;}.cls-147{letter-spacing:-0.01em;}.cls-148{letter-spacing:0.01em;}.cls-149{letter-spacing:0em;}.cls-150{letter-spacing:-0.01em;}.cls-151{letter-spacing:0em;}.cls-152{clip-path:url(#clip-path-34);}.cls-153{clip-path:url(#clip-path-35);}.cls-154{clip-path:url(#clip-path-36);}.cls-155{clip-path:url(#clip-path-37);}.cls-156{clip-path:url(#clip-path-38);}.cls-157{clip-path:url(#clip-path-39);}.cls-158{clip-path:url(#clip-path-40);}.cls-159{clip-path:url(#clip-path-41);}.cls-160{clip-path:url(#clip-path-42);}.cls-161{fill:#5ab8b0;}.cls-162{stroke:#588fa5;}.cls-163{fill:#588fa5;}.cls-164{stroke-dasharray:0 20.34;}.cls-165{stroke-dasharray:0 23.17;}.cls-166{stroke-dasharray:0 24.29;}.cls-167{stroke-dasharray:0 23.9;}.cls-168{stroke-dasharray:0 22.17;}.cls-169{clip-path:url(#clip-path-45);}.cls-170{clip-path:url(#clip-path-46);}.cls-171{clip-path:url(#clip-path-47);}.cls-172{clip-path:url(#clip-path-48);}</style><clipPath id="clip-path"><rect class="cls-1" width="1190.55" height="841.89"/></clipPath><clipPath id="clip-path-3"><rect class="cls-1" width="1190.55" height="841.89"/></clipPath><clipPath id="clip-path-4"><rect class="cls-1" x="528.31" y="336.51" width="114.38" height="190.83"/></clipPath><clipPath id="clip-path-5"><rect class="cls-1" x="834.73" y="291.49" width="75.06" height="351.07"/></clipPath><clipPath id="clip-path-6"><rect class="cls-1" x="695.86" y="269.74" width="84.61" height="95.17"/></clipPath><clipPath id="clip-path-7"><rect class="cls-1" x="624.27" y="433.42" width="107.34" height="171.88"/></clipPath><clipPath id="clip-path-9"><rect class="cls-1" x="677.46" y="289.99" width="173.14" height="354.19"/></clipPath><clipPath id="clip-path-10"><rect class="cls-1" x="689.63" y="130.28" width="146.41" height="126.97"/></clipPath><clipPath id="clip-path-11"><rect class="cls-1" x="599.75" y="230.58" width="73.28" height="74.33"/></clipPath><clipPath id="clip-path-12"><rect class="cls-1" x="807.53" y="130.73" width="83.2" height="104.1"/></clipPath><clipPath id="clip-path-14"><rect class="cls-1" x="408.78" y="141.82" width="626.5" height="133.96"/></clipPath><clipPath id="clip-path-15"><rect class="cls-1" x="552.4" y="242.31" width="163.42" height="359.5"/></clipPath><clipPath id="clip-path-16"><rect class="cls-1" x="695.03" y="171.79" width="199.04" height="202.16"/></clipPath><clipPath id="clip-path-17"><rect class="cls-1" x="779.9" y="371.09" width="39.35" height="29.35"/></clipPath><clipPath id="clip-path-18"><rect class="cls-1" x="790.27" y="479.06" width="37.96" height="27.96"/></clipPath><clipPath id="clip-path-19"><rect class="cls-1" x="645.02" y="605.88" width="43.45" height="33.45"/></clipPath><clipPath id="clip-path-20"><rect class="cls-1" x="775.03" y="640.78" width="43.45" height="33.45"/></clipPath><clipPath id="clip-path-21"><rect class="cls-1" x="35.77" y="273.16" width="42.73" height="33.45"/></clipPath><clipPath id="clip-path-22"><rect class="cls-1" x="777.78" y="503.56" width="37.96" height="27.96"/></clipPath><clipPath id="clip-path-23"><rect class="cls-1" x="740.83" y="499.8" width="35.19" height="25.19"/></clipPath><clipPath id="clip-path-24"><rect class="cls-1" x="634.5" y="605.88" width="35.19" height="25.19"/></clipPath><clipPath id="clip-path-25"><rect class="cls-1" x="629.79" y="599.51" width="35.19" height="25.19"/></clipPath><clipPath id="clip-path-26"><rect class="cls-1" x="594.76" y="587.91" width="32.28" height="22.29"/></clipPath><clipPath id="clip-path-27"><rect class="cls-1" x="764.33" y="422.39" width="33.11" height="23.11"/></clipPath><clipPath id="clip-path-28"><rect class="cls-1" x="793.72" y="423.91" width="26.81" height="16.81"/></clipPath><clipPath id="clip-path-30"><rect class="cls-1" x="20.62" y="339.38" width="69.64" height="35.48"/></clipPath><clipPath id="clip-path-31"><rect class="cls-1" x="-6.48" y="483.17" width="123.85" height="80.27"/></clipPath><clipPath id="clip-path-32"><rect class="cls-1" x="20.62" y="438.99" width="69.64" height="33.45"/></clipPath><clipPath id="clip-path-34"><rect class="cls-1" x="416.55" y="676.86" width="114.02" height="127.2"/></clipPath><clipPath id="clip-path-35"><rect class="cls-1" x="598.32" y="733.98" width="130.68" height="70.08"/></clipPath><clipPath id="clip-path-36"><rect class="cls-1" x="786.83" y="785.85" width="65.9" height="18.21"/></clipPath><clipPath id="clip-path-37"><rect class="cls-1" x="527.1" y="719.49" width="90.64" height="84.56"/></clipPath><clipPath id="clip-path-38"><rect class="cls-1" x="413.78" y="657.08" width="31.76" height="50.92"/></clipPath><clipPath id="clip-path-39"><rect class="cls-1" x="715.61" y="757.77" width="78.35" height="46.28"/></clipPath><clipPath id="clip-path-40"><rect class="cls-1" x="654.66" y="665.38" width="268.8" height="85.1"/></clipPath><clipPath id="clip-path-41"><rect class="cls-1" x="413.13" y="588.13" width="236.5" height="113.03"/></clipPath><clipPath id="clip-path-42"><rect class="cls-1" x="646.79" y="353.85" width="89.52" height="82.98"/></clipPath><clipPath id="clip-path-45"><rect class="cls-1" x="728.18" y="527.62" width="43.33" height="33.33"/></clipPath><clipPath id="clip-path-46"><rect class="cls-1" x="719.03" y="611.76" width="31.17" height="21.17"/></clipPath><clipPath id="clip-path-47"><rect class="cls-1" x="699.51" y="541.54" width="26.77" height="16.77"/></clipPath><clipPath id="clip-path-48"><rect class="cls-1" x="602.02" y="553.29" width="26.77" height="16.77"/></clipPath></defs><g class="cls-2"><g id="Calque_1" data-name="Calque 1"><g class="cls-3"><g class="cls-3"><path d="M93.29,53.54l4.89-.48c0,2.34,1.32,3.72,3.36,3.72a2.71,2.71,0,0,0,3-3c0-1.92-1.14-2.91-3.6-2.91H99.83v-3.3h1.08c2.1,0,3.18-1.08,3.18-2.91a2.5,2.5,0,0,0-2.76-2.73c-2,0-3.06,1.41-3.06,3.78l-4.77-.63c0-4.17,3.12-6.81,8.07-6.81s7.5,2.16,7.5,5.82A5,5,0,0,1,104.9,49c3.09.48,4.74,2.22,4.74,5.13,0,4-3.18,6.42-8.13,6.42S93.35,57.8,93.29,53.54Zm24,6.51h-5.13V55.13h5.13Zm5.22-14.76a5.39,5.39,0,0,1-3.63,1.17H118V42.14h.57a4.54,4.54,0,0,0,4.8-3.39h3.93v21.3h-4.83Zm22.08-6.54V52.4a4,4,0,1,0,7.92,0V38.75h5.07V52.61c0,4.86-3.36,8-9,8s-9-3.09-9-8V38.75Zm17.07,0h5.61l6.84,12.15a22.16,22.16,0,0,1,1.29,2.76h.06c0-.84,0-1.71,0-2.73V38.75h4.65v21.3h-5.4l-7.08-12.27a18.35,18.35,0,0,1-1.26-2.61h-.06c0,.87,0,1.77,0,2.82V60.05h-4.65ZM199.28,56.3v3.75H184.49V38.75h14.58V42.5h-9.51v4.8h9V51h-9V56.3Zm25.88,0v3.75H210.38V38.75H225V42.5h-9.5v4.8h9V51h-9V56.3Zm1.39-.69L230.3,53a6.17,6.17,0,0,0,5.79,3.66c2,0,3.65-.75,3.65-2.43s-.92-2.19-3.08-2.64l-2.85-.6c-3.72-.81-5.88-2.82-5.88-6.39,0-3.9,3.18-6.33,8.31-6.33,3.77,0,6.95,1.38,8.45,4.23l-3.3,2.79A6,6,0,0,0,235.91,42c-2,0-3.3.84-3.3,2.19s.84,2.07,3.09,2.58l3.09.66c3.77.84,5.81,2.64,5.81,6.3,0,4.05-3.12,6.84-8.69,6.84C231.32,60.56,228,58.61,226.55,55.61ZM264.7,45.44c0,4.23-3,6.87-7.76,6.87h-4.26v7.74h-5.07V38.75h9.45C261.68,38.75,264.7,41.39,264.7,45.44Zm-5.3.15c0-2-1.29-3.18-3.57-3.18h-3.15v6.36h3.15C258.08,48.77,259.4,47.6,259.4,45.59Zm7.92-6.84h5.07V55.94H281v4.11H267.32ZM297.1,55.07h-7.86l-1.62,5h-5.07l7.74-21.3h5.79l7.74,21.3h-5.1Zm-1.17-3.57L294,45.56a25.65,25.65,0,0,1-.78-3h-.06a20.83,20.83,0,0,1-.78,3l-1.95,5.94Zm10.5-12.75H312l6.84,12.15a22.16,22.16,0,0,1,1.29,2.76h.06c0-.84,0-1.71,0-2.73V38.75h4.65v21.3h-5.4l-7.08-12.27a18.35,18.35,0,0,1-1.26-2.61h-.06c0,.87,0,1.77,0,2.82V60.05h-4.65ZM342,55.07h-7.86l-1.62,5h-5.07l7.74-21.3H341l7.74,21.3h-5.1Zm-1.17-3.57-1.95-5.94a25.65,25.65,0,0,1-.78-3h-.06a20.83,20.83,0,0,1-.78,3l-1.95,5.94Zm10.5-12.75h8.49c6.39,0,10.53,4.26,10.53,10.53s-4.14,10.77-10.59,10.77h-8.43Zm8.22,17.58c3.6,0,5.58-3.24,5.58-7s-1.86-6.81-5.52-6.81h-3.21V56.33Zm28.68,0v3.75H373.48V38.75h14.58V42.5h-9.51v4.8h9V51h-9V56.3Zm28.2-10.86c0,4.23-3,6.87-7.77,6.87h-4.26v7.74h-5.07V38.75h9.45C413.44,38.75,416.47,41.39,416.47,45.44Zm-5.31.15c0-2-1.29-3.18-3.57-3.18h-3.15v6.36h3.15C409.84,48.77,411.16,47.6,411.16,45.59ZM418,49.4c0-6.87,4.11-11.16,10.5-11.16S439,42.53,439,49.4s-4.11,11.16-10.5,11.16S418,56.24,418,49.4Zm15.78,0c0-4.5-1.95-7.2-5.28-7.2s-5.31,2.7-5.31,7.2,2,7.2,5.31,7.2S433.81,53.9,433.81,49.4Zm13-10.65V52.4a4,4,0,1,0,7.92,0V38.75h5.07V52.61c0,4.86-3.36,8-9,8s-9-3.09-9-8V38.75ZM472,51.89H469v8.16H463.9V38.75h9.36c5.4,0,7.8,2.64,7.8,6.54a5.89,5.89,0,0,1-4.17,5.85l4.71,8.91h-5.49ZM469,48.41h3.27c2.46,0,3.54-1.2,3.54-3.12s-1-3-3.54-3H469Zm23.13-9.66h5.07V55.94h8.64v4.11H492.1ZM523.51,56.3v3.75H508.72V38.75H523.3V42.5h-9.51v4.8h9V51h-9V56.3Zm28.2,4.5a6,6,0,0,0,1.68-.24v3.93a13.67,13.67,0,0,1-2.25.18c-3.6,0-5.94-1.53-7-4.11h-.42c-6.39,0-10.5-4.32-10.5-11.16s4.11-11.16,10.5-11.16,10.5,4.29,10.5,11.16c0,5-2.22,8.7-5.91,10.29A4.89,4.89,0,0,0,551.71,60.8Zm-8-4.2c3.33,0,5.28-2.7,5.28-7.2s-1.95-7.2-5.28-7.2-5.31,2.7-5.31,7.2S540.43,56.6,543.76,56.6Zm18.3-17.85V52.4a4,4,0,1,0,7.92,0V38.75h5.07V52.61c0,4.86-3.36,8-9,8s-9-3.09-9-8V38.75ZM591,55.07h-7.86l-1.62,5H576.4l7.74-21.3h5.79l7.74,21.3h-5.1Zm-1.17-3.57-1.95-5.94a25.65,25.65,0,0,1-.78-3H587a20.83,20.83,0,0,1-.78,3l-2,5.94Zm18.63.39h-3.06v8.16h-5.07V38.75h9.36c5.4,0,7.8,2.64,7.8,6.54a5.89,5.89,0,0,1-4.17,5.85L618,60.05h-5.49Zm-3.06-3.48h3.27c2.46,0,3.54-1.2,3.54-3.12s-1-3-3.54-3h-3.27Zm30.57-5.64h-6.21V60.05h-5V42.77h-6.18v-4h17.43Zm2.4,17.28V38.75h5.07v21.3Zm24.3-3.75v3.75H647.83V38.75h14.58V42.5H652.9v4.8h9V51h-9V56.3Zm11.82-4.41h-3.06v8.16h-5.07V38.75h9.36c5.4,0,7.8,2.64,7.8,6.54a5.89,5.89,0,0,1-4.17,5.85L684,60.05h-5.49Zm-3.06-3.48h3.27c2.46,0,3.54-1.2,3.54-3.12s-1.05-3-3.54-3h-3.27Z"/><text class="cls-4" transform="translate(92.63 95.99)">Une i<tspan class="cls-5" x="70.77" y="0">m</tspan><tspan x="95.94" y="0">pla</tspan><tspan class="cls-6" x="137.91" y="0">n</tspan><tspan class="cls-7" x="155.07" y="0">t</tspan><tspan class="cls-8" x="165.33" y="0">a</tspan><tspan x="181.11" y="0">tion lin</tspan><tspan class="cls-9" x="274.98" y="0">é</tspan><tspan x="291.12" y="0">ai</tspan><tspan class="cls-10" x="315.17" y="0">r</tspan><tspan x="325.41" y="0">e qui </tspan><tspan class="cls-11" x="400.22" y="0">s</tspan><tspan x="414.26" y="0">’inscrit dans le PDQ de </tspan><tspan class="cls-12" x="733.76" y="0">2</tspan><tspan class="cls-13" x="749.36" y="0">0</tspan><tspan class="cls-14" x="768.62" y="0">12</tspan></text><text class="cls-4" transform="translate(92.63 131.99)">3 ai<tspan class="cls-15" x="49.23" y="0">r</tspan><tspan x="59.46" y="0">es d’i</tspan><tspan class="cls-5" x="131.25" y="0">m</tspan><tspan x="156.42" y="0">pla</tspan><tspan class="cls-16" x="198.39" y="0">n</tspan><tspan class="cls-7" x="215.52" y="0">t</tspan><tspan class="cls-17" x="225.78" y="0">a</tspan><tspan x="241.56" y="0">tion</tspan></text><g class="cls-18"><g class="cls-19"><g class="cls-20"><polygon points="593.06 343.51 633.69 355.32 575.11 526.34 537.31 514.15 593.06 343.51"/></g></g><g class="cls-21"><g class="cls-22"><polygon class="cls-23" points="843.73 299.99 891.83 298.49 900.8 640.15 852.71 641.56 843.73 299.99"/></g></g><g class="cls-21"><g class="cls-24"><polygon class="cls-23" points="771.47 289.9 726.8 276.74 704.86 350.64 749.42 363.91 771.47 289.9"/></g></g><g class="cls-21"><g class="cls-25"><polygon class="cls-23" points="678.04 440.42 722.6 453.74 677.53 604.29 633.27 591.39 678.04 440.42"/></g></g></g><line class="cls-26" x1="691.81" y1="555.11" x2="681.4" y2="592"/><line class="cls-27" x1="655.6" y1="597.66" x2="644.43" y2="594.34"/><line class="cls-28" x1="639.65" y1="569.51" x2="674.74" y2="451.18"/><path class="cls-29" d="M677.94,440.42h0M633.27,591h0m44.67,13.27h0m20.8-73.77h0"/><line class="cls-30" x1="712.34" y1="325.82" x2="723.57" y2="289.01"/><line class="cls-31" x1="749.39" y1="283.08" x2="760.43" y2="286.25"/><line class="cls-32" x1="766.15" y1="307.42" x2="763.48" y2="316.42"/><path class="cls-29" d="M760.82,325.42h0m10.65-36h0m-44.16-12.68h0m-22.45,73.62h0"/><g class="cls-18"><g class="cls-33"><g class="cls-34"><polygon class="cls-35" points="686.46 610.87 832.82 643.06 841.61 643.18 832.39 303.45 779.24 296.99 686.46 610.87"/></g></g><g class="cls-21"><g class="cls-36"><path class="cls-37" d="M819.64,142.91c3.12,3.11,4.58,6,7.09,14.74,1.13,4-.85,18.7-6,28.06-6.29,11.53-13.32,22.39-10.77,28.06,2.47,5.5,11.62,7.37,14.45,17,3.06,10.39.85,17.29-10.48,23.81s-25.55-8-50.14-12.76c-25-4.81-39.16-10.53-51.91-19-14.52-9.68-15.07-19-11.39-31.85s10-22.67,18.19-33.87c4.41-6.06,8.79-14.17,24.38-17.58,19.39-4.23,32.88-1.13,51-1.13s22.4,1.42,25.51,4.54"/></g></g><path class="cls-38" d="M941.86,137.75C942.4,141.27,955,224,955,226.53c0,2.3-.62,24.59-1.78,30.39-.44,2.2-2.22,8.68-4.47,16.88-3.58,13-8,29.21-9.42,36.69a63.4,63.4,0,0,0,0,25.68c.29,1.67,3.4,18.33,7.71,41.39,12.76,68.33,36.52,195.5,36.94,200.58l.15,1.77a118.79,118.79,0,0,1,.42,21.38c-.82,10-4.62,27.13-9,36.68-3.5,7.71-20.46,30.22-31.86,38.12-13.59,9.42-28.64,16.18-39.26,17.63-14.11,1.93-29.73,3.27-48.3,0l-13.09-2.25c-18.8-3.2-50.26-8.58-59.48-10.51-12.07-2.52-24.29-6.2-24.41-6.24L422.83,569.52"/><path class="cls-38" d="M941.2,137.85c.14.86,13.11,86.18,13.11,88.68,0,2.87-.67,24.78-1.76,30.26-.44,2.17-2.3,9-4.47,16.83-3.57,13-8,29.24-9.42,36.75a64,64,0,0,0,0,25.91c.3,1.68,3.41,18.34,7.72,41.41,12.76,68.31,36.51,195.46,36.93,200.5l.15,1.78a118.61,118.61,0,0,1,.41,21.27c-.81,10-4.59,27-8.9,36.46-3.48,7.65-20.31,30-31.63,37.84-13.51,9.37-28.45,16.08-39,17.52-14.06,1.93-29.61,3.26-48.09,0-2.27-.4-7-1.21-13.1-2.24-18.79-3.21-50.25-8.58-59.46-10.51-12-2.52-24.23-6.19-24.35-6.23L423,568.88"/><path class="cls-38" d="M953.49,137.75c.1.71,10.78,71,11.62,78,.94,7.81,1.94,27.55,0,37.8-.79,4.14-3.18,12.64-6,22.48-4.23,15-9,32-9.36,38.14-.55,9.95,2.66,31.42,4,37.9.41,2,42.22,219.12,43.09,233.9.69,11.74-.67,30.28-4.55,41.51-4.76,13.79-9.54,23-17.62,34.11-6.72,9.2-25.06,25.54-33.85,30.14-8.62,4.52-26.55,12-40.64,13.93-14.27,2-22.81,1.12-32.7.12-2.25-.23-4.57-.47-7.06-.69-17.68-1.52-53.29-8.09-65.52-10.49-15.71-3.09-368.68-113.17-372.24-114.28"/><path class="cls-38" d="M952.83,137.85c.1.71,10.78,70.94,11.62,77.94.93,7.78,1.93,27.43,0,37.6-.78,4.12-3.28,13-5.94,22.43-4.23,15-9,32.05-9.37,38.28-.56,10,2.66,31.57,4,38.07,2,10.06,42.25,219.66,43.08,233.81.69,11.67-.66,30.1-4.51,41.26-4.74,13.71-9.49,22.91-17.53,33.92-6.67,9.15-24.9,25.38-33.62,30S914.11,703,900.1,705c-14.18,2-22.69,1.12-32.53.11-2.25-.23-4.58-.47-7.08-.68-17.64-1.52-53.22-8.08-65.44-10.48-15.68-3.08-368.61-113.16-372.17-114.27"/><path class="cls-38" d="M955,225.62c.79,4.33,78.69,433,81.14,443.46,2.54,10.87,19.36,45.69,27.31,57.79,7.57,11.52,44.91,80.16,48.58,90.07"/><path class="cls-38" d="M954.32,225.74c.78,4.33,78.69,433,81.14,443.49,2.55,10.92,19.42,45.87,27.4,58,8.47,12.88,45.19,81,48.51,89.93"/><path class="cls-38" d="M966.74,175.69c.78,4.29,77.92,429.69,80.28,436.77.77,2.33,1.21,3.94,1.67,5.64a132,132,0,0,0,5.19,15.32c2.42,6.22,19.44,37.62,35.91,68,15.2,28,29.55,54.51,30.93,58.45"/><path class="cls-38" d="M966.08,175.81c3.18,17.54,77.93,429.74,80.3,436.86.77,2.31,1.21,3.91,1.67,5.6a131,131,0,0,0,5.21,15.39c2.43,6.26,19.47,37.68,35.94,68.06,15.19,28,29.53,54.47,30.89,58.36"/><path class="cls-38" d="M878.65,695.54c6.19.82,151.75,20.26,164.86,25.32,13.76,5.31,32.81,16.42,40,23.32"/><path class="cls-38" d="M878.56,696.2c1.52.2,151.68,20.25,164.71,25.28,13.69,5.28,32.64,16.33,39.77,23.18"/><path class="cls-38" d="M878.58,706.67c6.15.82,150.63,20.17,157.78,23.84,1.68.86,3.83,1.84,6.32,3,8.17,3.71,19.35,8.8,27.2,15.78a97.75,97.75,0,0,1,16.51,19.35"/><path class="cls-38" d="M878.49,707.33c1.51.2,150.52,20.16,157.57,23.78,1.69.87,3.85,1.85,6.34,3,8.13,3.7,19.26,8.77,27,15.68a97,97,0,0,1,16.38,19.2"/><g class="cls-19"><g class="cls-39"><polygon points="631.14 237.58 654.38 245.8 650.13 259.13 664.02 263.94 650.98 303.91 623.77 294.56 625.75 288.04 608.75 282.37 620.43 246.09 628.02 248.07 631.14 237.58"/></g></g><g class="cls-19"><g class="cls-40"><polygon points="867.55 137.73 864.43 151.98 872.16 179.97 881.72 193.08 877.47 199.1 871.09 227.8 842.32 233.83 838.85 227.8 816.53 211.5 824.32 199.46 834.95 143.47 826.45 137.8 867.55 137.73"/></g></g></g><line class="cls-41" x1="712.68" y1="252.95" x2="805.95" y2="284.04"/><line class="cls-42" x1="808.85" y1="283.98" x2="968.34" y2="253.08"/><line class="cls-43" x1="971.35" y1="253.48" x2="978.5" y2="255.57"/><line class="cls-44" x1="980.37" y1="257.77" x2="983.35" y2="264.41"/><line class="cls-45" x1="984.12" y1="267.33" x2="1059.28" y2="691.28"/><line class="cls-46" x1="1057.84" y1="693.5" x2="1047.36" y2="701.56"/><line class="cls-47" x1="1045.2" y1="703.65" x2="1040.44" y2="708.81"/><line class="cls-48" x1="1038.7" y1="711.11" x2="1032.91" y2="719.68"/><line class="cls-49" x1="1032.04" y1="718.39" x2="1030.85" y2="711.15"/><line class="cls-50" x1="1029.53" y1="711.65" x2="1024.32" y2="718.56"/><line class="cls-51" x1="1021.97" y1="720.96" x2="1021.08" y2="721.77"/><line class="cls-52" x1="1018.5" y1="723.72" x2="1015.94" y2="725.43"/><line class="cls-53" x1="1013.09" y1="725.68" x2="974" y2="719.63"/><line class="cls-54" x1="971.07" y1="718.92" x2="592.49" y2="610.05"/><line class="cls-55" x1="592.16" y1="607.87" x2="655.48" y2="418.82"/><line class="cls-56" x1="657.69" y1="418.49" x2="707.59" y2="435.13"/><line class="cls-57" x1="709.15" y1="433.55" x2="726.92" y2="379.69"/><line class="cls-58" x1="725.35" y1="378.1" x2="675.45" y2="360.93"/><line class="cls-55" x1="675.15" y1="358.71" x2="710.48" y2="253.27"/><path class="cls-59" d="M710.79,252.32h0M674.51,360.61h0m52.72,18.14h0m-18.7,56.69h0M655.8,417.87h0m-64.27,191.9h0M973,719.47h0m42.09,6.52h0m5.11-3.4h0m3.54-3.26h0m6.94-9.21h0m1.7,10.34h0m7.37-10.91h0m6.81-7.37h0m12.9-9.92h0m-75.69-426.9h0m-4.25-9.49h0m-10.21-3h0M806.89,284.35h0"/><g class="cls-18"><g class="cls-33"><g class="cls-61"><line class="cls-62" x1="983.69" y1="243.47" x2="825.75" y2="265.29"/><line class="cls-63" x1="782.16" y1="259.54" x2="445.95" y2="170.58"/><path class="cls-64" d="M431.33,166.71h0M811.39,267.28h0m201-27.78h0"/><polygon class="cls-65" points="1026.28 237.58 1001.41 220.14 1007.08 261.12 1026.28 237.58"/><polygon class="cls-65" points="417.78 163.13 434 188.81 444.58 148.82 417.78 163.13"/></g></g><g class="cls-66"><g class="cls-67"><line class="cls-68" x1="679.78" y1="292.11" x2="583.36" y2="572.78"/><path class="cls-64" d="M578.29,587.55h0m111.64-325h0"/><polygon class="cls-65" points="694.49 249.31 667.7 263.63 706.82 277.07 694.49 249.31"/><polygon class="cls-65" points="573.73 600.8 600.52 586.48 561.4 573.04 573.73 600.8"/></g></g><g class="cls-66"><g class="cls-69"><line class="cls-70" x1="798.32" y1="232.97" x2="799.69" y2="317.6"/><line class="cls-70" x1="792.84" y1="233.06" x2="794.22" y2="317.69"/><polygon class="cls-71" points="795.43 223.98 781.82 239.12 809.54 238.67 795.43 223.98"/><polygon class="cls-71" points="797.1 326.67 810.72 311.54 783 311.99 797.1 326.67"/></g></g><g class="cls-72"><g class="cls-73"><path class="cls-74" d="M799.58,399.43a10.67,10.67,0,1,0-10.68-10.67,10.67,10.67,0,0,0,10.68,10.67"/></g></g><g class="cls-72"><g class="cls-75"><path class="cls-74" d="M809.25,506a10,10,0,1,0-10-10,10,10,0,0,0,10,10"/></g></g><g class="cls-72"><g class="cls-76"><path class="cls-74" d="M666.75,638.33A12.73,12.73,0,1,0,654,625.61a12.72,12.72,0,0,0,12.73,12.72"/></g></g><g class="cls-72"><g class="cls-77"><path class="cls-74" d="M796.76,673.23A12.73,12.73,0,1,0,784,660.5a12.72,12.72,0,0,0,12.73,12.73"/></g></g><g class="cls-72"><g class="cls-78"><path class="cls-74" d="M57.13,305.61a12.73,12.73,0,1,0-12.36-12.72,12.54,12.54,0,0,0,12.36,12.72"/></g></g><g class="cls-72"><g class="cls-79"><path class="cls-74" d="M796.76,530.52a10,10,0,1,0-10-10,10,10,0,0,0,10,10"/></g></g><g class="cls-72"><g class="cls-80"><path class="cls-74" d="M758.43,524a8.6,8.6,0,1,0-8.6-8.6,8.59,8.59,0,0,0,8.6,8.6"/></g></g><g class="cls-72"><g class="cls-81"><path class="cls-74" d="M652.09,630.07a8.6,8.6,0,1,0-8.59-8.59,8.59,8.59,0,0,0,8.59,8.59"/></g></g><g class="cls-72"><g class="cls-82"><path class="cls-74" d="M647.39,623.71a8.6,8.6,0,1,0-8.6-8.6,8.6,8.6,0,0,0,8.6,8.6"/></g></g><g class="cls-72"><g class="cls-83"><path class="cls-74" d="M610.9,609.19a7.14,7.14,0,1,0-7.14-7.14,7.14,7.14,0,0,0,7.14,7.14"/></g></g><g class="cls-72"><g class="cls-84"><path class="cls-74" d="M780.89,444.5a7.56,7.56,0,1,0-7.56-7.55,7.55,7.55,0,0,0,7.56,7.55"/></g></g><g class="cls-72"><g class="cls-85"><path class="cls-74" d="M807.13,439.72a4.41,4.41,0,1,0-4.41-4.4,4.41,4.41,0,0,0,4.41,4.4"/></g></g></g><line class="cls-86" x1="55.44" y1="667.44" x2="66.35" y2="667.44"/><path class="cls-29" d="M77.26,667.44h0m-43.64,0h0"/><path class="cls-87" d="M80.51,615.68v8m-4.18-8v8m-4.17-8v8m-4.18-8v8m-4.18-8v8m-4.18-8v8m-4.18-8v8m-4.18-8v8m-4.18-8v8m-4.17-8v8m-4.18-8v8m-4.18-8v8m-4.18-8v8"/><g class="cls-18"><g class="cls-66"><g class="cls-88"><line class="cls-89" x1="55.44" y1="360.12" x2="63.88" y2="360.12"/><path class="cls-90" d="M72.31,360.12h0m-33.74,0h0"/><polygon class="cls-65" points="29.62 360.12 44.4 373.86 44.4 346.38 29.62 360.12"/><polygon class="cls-65" points="81.26 360.12 66.48 346.38 66.48 373.86 81.26 360.12"/></g></g><g class="cls-66"><g class="cls-91"><line class="cls-70" x1="38.65" y1="523.56" x2="72.23" y2="523.56"/><line class="cls-70" x1="38.65" y1="529.04" x2="72.23" y2="529.04"/><polygon class="cls-71" points="29.62 526.3 44.53 540.16 44.53 512.44 29.62 526.3"/><polygon class="cls-71" points="81.26 526.3 66.35 512.44 66.35 540.16 81.26 526.3"/></g></g><g class="cls-33"><g class="cls-92"><rect class="cls-35" x="29.62" y="445.99" width="51.64" height="25.45"/></g></g></g><text class="cls-93" transform="translate(92.69 240)">P<tspan class="cls-94" x="15.77" y="0">r</tspan><tspan class="cls-95" x="25.56" y="0">é</tspan><tspan class="cls-96" x="38.98" y="0">s</tspan><tspan x="51.33" y="0">e</tspan><tspan class="cls-97" x="64.82" y="0">r</tspan><tspan class="cls-98" x="75.19" y="0">v</tspan><tspan class="cls-99" x="87.7" y="0">a</tspan><tspan x="101.21" y="0">tion du </tspan><tspan class="cls-100" x="187.34" y="0">p</tspan><tspan class="cls-101" x="202.03" y="0">a</tspan><tspan x="215.57" y="0">trimoine </tspan></text><text class="cls-93" transform="translate(92.69 264)"><tspan class="cls-102">e</tspan><tspan x="12.74" y="0">xi</tspan><tspan class="cls-103" x="33.36" y="0">s</tspan><tspan class="cls-104" x="45.89" y="0">t</tspan><tspan x="55.51" y="0">a</tspan><tspan class="cls-99" x="69.26" y="0">n</tspan><tspan x="83.64" y="0">t</tspan></text><text class="cls-105" transform="translate(92.69 292)">Arb<tspan class="cls-106" x="35.38" y="0">r</tspan><tspan x="43.05" y="0">es habi</tspan><tspan class="cls-107" x="114.95" y="0">t</tspan><tspan class="cls-108" x="122.52" y="0">a</tspan><tspan class="cls-109" x="134.33" y="0">t</tspan><tspan x="141.92" y="0">s conse</tspan><tspan class="cls-110" x="217.97" y="0">r</tspan><tspan class="cls-109" x="226.27" y="0">v</tspan><tspan class="cls-111" x="236.47" y="0">és </tspan><tspan class="cls-112" x="265.01" y="0">(</tspan><tspan x="271.26" y="0">15 </tspan></text><text class="cls-105" transform="translate(92.69 316)">sur 3<tspan class="cls-113" x="49.72" y="0">4</tspan><tspan x="62.3" y="0">) sous </tspan><tspan class="cls-106" x="127.27" y="0">r</tspan><tspan x="134.95" y="0">ése</tspan><tspan class="cls-110" x="169.4" y="0">r</tspan><tspan class="cls-109" x="177.69" y="0">v</tspan><tspan class="cls-111" x="187.9" y="0">e du parking </tspan></text><text class="cls-105" transform="translate(92.69 340)">sou<tspan class="cls-114" x="35.79" y="0">t</tspan><tspan x="43.34" y="0">er</tspan><tspan class="cls-115" x="62.92" y="0">r</tspan><tspan x="70.55" y="0">ain</tspan></text><text class="cls-105" transform="translate(92.69 364.01)"><tspan class="cls-116">C</tspan><tspan x="15.64" y="0">o</tspan><tspan class="cls-108" x="27.85" y="0">n</tspan><tspan x="40.61" y="0">ne</tspan><tspan class="cls-117" x="65.14" y="0">c</tspan><tspan x="76.67" y="0">tivi</tspan><tspan class="cls-118" x="106.04" y="0">t</tspan><tspan class="cls-111" x="113.56" y="0">é biologiques à l</tspan><tspan class="cls-119" x="275.08" y="0">’</tspan><tspan x="279.04" y="0">échelle </tspan></text><text class="cls-105" transform="translate(92.69 388.01)">du <tspan class="cls-114" x="31.39" y="0">t</tspan><tspan x="38.94" y="0">erri</tspan><tspan class="cls-118" x="72.05" y="0">t</tspan><tspan class="cls-111" x="79.57" y="0">oi</tspan><tspan class="cls-120" x="97.48" y="0">r</tspan><tspan x="105.14" y="0">e</tspan></text><text class="cls-93" transform="translate(92.69 432)"><tspan class="cls-121">V</tspan><tspan x="15.48" y="0">alori</tspan><tspan class="cls-122" x="67.37" y="0">s</tspan><tspan class="cls-123" x="79.82" y="0">a</tspan><tspan x="93.36" y="0">tion de la bi</tspan><tspan class="cls-104" x="227.35" y="0">o</tspan><tspan x="241.32" y="0">di</tspan><tspan class="cls-124" x="263.16" y="0">v</tspan><tspan x="275.56" y="0">e</tspan><tspan class="cls-125" x="289.05" y="0">r</tspan><tspan x="298.92" y="0">si</tspan><tspan class="cls-94" x="318.24" y="0">t</tspan><tspan class="cls-126" x="327.64" y="0">é</tspan></text><text class="cls-105" transform="translate(92.69 456)">Su<tspan class="cls-127" x="26.22" y="0">r</tspan><tspan class="cls-106" x="34.56" y="0">f</tspan><tspan class="cls-128" x="41.91" y="0">a</tspan><tspan class="cls-129" x="53.68" y="0">ces esp</tspan><tspan class="cls-109" x="129.31" y="0">a</tspan><tspan class="cls-129" x="141.06" y="0">ces </tspan><tspan class="cls-109" x="181.17" y="0">v</tspan><tspan x="191.38" y="0">e</tspan><tspan class="cls-130" x="203.12" y="0">r</tspan><tspan class="cls-131" x="211.33" y="0">t</tspan><tspan class="cls-111" x="218.94" y="0">s</tspan></text><text class="cls-105" transform="translate(92.69 480)"><tspan class="cls-106">(</tspan><tspan class="cls-132" x="6.4" y="0">7</tspan><tspan class="cls-120" x="16.94" y="0">5</tspan><tspan class="cls-129" x="29.17" y="0">% de la su</tspan><tspan class="cls-133" x="129.45" y="0">r</tspan><tspan class="cls-106" x="137.76" y="0">f</tspan><tspan class="cls-131" x="145.11" y="0">a</tspan><tspan x="156.88" y="0">ce d</tspan><tspan class="cls-109" x="198.96" y="0">e</tspan><tspan x="210.63" y="0">v</tspan><tspan class="cls-115" x="220.92" y="0">r</tspan><tspan x="228.55" y="0">a </tspan><tspan class="cls-117" x="246.22" y="0">ê</tspan><tspan x="257.92" y="0">t</tspan><tspan class="cls-106" x="265.6" y="0">r</tspan><tspan x="273.28" y="0">e dédiée </tspan></text><text class="cls-105" transform="translate(92.69 504)">à la biodi<tspan class="cls-134" x="90.73" y="0">v</tspan><tspan x="100.91" y="0">e</tspan><tspan class="cls-128" x="112.66" y="0">r</tspan><tspan x="120.43" y="0">si</tspan><tspan class="cls-114" x="137.08" y="0">t</tspan><tspan class="cls-135" x="144.63" y="0">é</tspan><tspan x="155.52" y="0">)</tspan></text><text class="cls-105" transform="translate(92.69 528.01)"><tspan class="cls-116">C</tspan><tspan x="15.64" y="0">o</tspan><tspan class="cls-108" x="27.85" y="0">n</tspan><tspan x="40.61" y="0">ne</tspan><tspan class="cls-117" x="65.14" y="0">c</tspan><tspan x="76.67" y="0">tivi</tspan><tspan class="cls-118" x="106.04" y="0">t</tspan><tspan class="cls-111" x="113.56" y="0">é biologique à l</tspan><tspan class="cls-119" x="264.13" y="0">’</tspan><tspan x="268.09" y="0">échelle </tspan></text><text class="cls-105" transform="translate(92.69 552.01)">du p<tspan class="cls-106" x="44.22" y="0">r</tspan><tspan x="51.9" y="0">oj</tspan><tspan class="cls-117" x="69.72" y="0">e</tspan><tspan x="81.42" y="0">t</tspan></text><text class="cls-93" transform="translate(92.69 600)">Nui<tspan class="cls-122" x="39.84" y="0">s</tspan><tspan x="52.3" y="0">an</tspan><tspan class="cls-136" x="80.66" y="0">c</tspan><tspan class="cls-95" x="94.17" y="0">e</tspan><tspan x="107.59" y="0">s </tspan><tspan class="cls-104" x="125.76" y="0">s</tspan><tspan x="138.12" y="0">ono</tspan><tspan class="cls-137" x="180.43" y="0">r</tspan><tspan class="cls-138" x="190.22" y="0">e</tspan><tspan class="cls-126" x="203.66" y="0">s</tspan></text><text class="cls-139" transform="translate(308.59 600)"> </text><text class="cls-105" transform="translate(92.69 624)"><tspan class="cls-115">F</tspan><tspan class="cls-131" x="12.56" y="0">a</tspan><tspan x="24.33" y="0">ç</tspan><tspan class="cls-128" x="35.9" y="0">a</tspan><tspan class="cls-129" x="47.67" y="0">des p</tspan><tspan class="cls-120" x="101.97" y="0">r</tspan><tspan class="cls-117" x="109.62" y="0">o</tspan><tspan class="cls-114" x="121.79" y="0">t</tspan><tspan x="129.34" y="0">é</tspan><tspan class="cls-140" x="141.08" y="0">g</tspan><tspan x="152.46" y="0">és des nuisances </tspan></text><text class="cls-105" transform="translate(92.69 648)">sono<tspan class="cls-106" x="48.16" y="0">r</tspan><tspan x="55.83" y="0">es </tspan><tspan class="cls-141" x="84.37" y="0">(</tspan><tspan x="90.24" y="0">e</tspan><tspan class="cls-120" x="101.99" y="0">n</tspan><tspan class="cls-142" x="114.6" y="0">v</tspan><tspan class="cls-129" x="123.81" y="0">. 310m/l) </tspan></text><text class="cls-105" transform="translate(92.69 672)"><tspan class="cls-115">F</tspan><tspan class="cls-131" x="12.56" y="0">a</tspan><tspan x="24.33" y="0">ç</tspan><tspan class="cls-128" x="35.9" y="0">a</tspan><tspan class="cls-129" x="47.67" y="0">des </tspan><tspan class="cls-140" x="89.14" y="0">e</tspan><tspan class="cls-129" x="100.56" y="0">xposés aux nuisances </tspan></text><text class="cls-105" transform="translate(92.69 696.01)">sono<tspan class="cls-106" x="48.16" y="0">r</tspan><tspan x="55.83" y="0">es </tspan><tspan class="cls-141" x="84.37" y="0">(</tspan><tspan x="90.24" y="0">e</tspan><tspan class="cls-120" x="101.99" y="0">n</tspan><tspan class="cls-142" x="114.6" y="0">v</tspan><tspan class="cls-129" x="123.81" y="0">. 250m/l)</tspan></text><text class="cls-143" transform="translate(1002.29 288)"><tspan class="cls-144">V</tspan><tspan x="11.58" y="0">e</tspan><tspan class="cls-145" x="22.26" y="0">r</tspan><tspan x="29.32" y="0">s le corridor </tspan></text><text class="cls-143" transform="translate(1011.96 312)">du c<tspan class="cls-146" x="39.06" y="0">o</tspan><tspan class="cls-147" x="50.14" y="0">t</tspan><tspan x="56.98" y="0">eau de </tspan></text><text class="cls-143" transform="translate(1044.12 336)"><tspan class="cls-148">L</tspan><tspan x="10.98" y="0">an</tspan><tspan class="cls-9" x="33.36" y="0">c</tspan><tspan class="cls-149" x="43.8" y="0">y</tspan></text><text class="cls-143" transform="translate(466.33 240)"><tspan class="cls-144">V</tspan><tspan x="11.58" y="0">e</tspan><tspan class="cls-145" x="22.26" y="0">r</tspan><tspan x="29.32" y="0">s le corridor </tspan></text><text class="cls-143" transform="translate(494.31 264)">du <tspan class="cls-144" x="28.54" y="0">V</tspan><tspan x="40.12" y="0">oi</tspan><tspan class="cls-150" x="56.4" y="0">r</tspan><tspan class="cls-146" x="63.38" y="0">e</tspan><tspan class="cls-151" x="74.04" y="0">t</tspan></text><g class="cls-18"><g class="cls-19"><g class="cls-152"><polygon points="425.55 803.05 447.17 744.78 431.57 738.99 451.42 683.86 521.58 709.37 502.8 762.87 492.17 760.13 476.93 803.05 425.55 803.05"/></g></g><g class="cls-19"><g class="cls-153"><polygon points="611.4 803.05 612.68 798.95 607.32 797.19 623.62 740.98 720 769.61 710.08 803.05 611.4 803.05"/></g></g><g class="cls-19"><g class="cls-154"><polygon points="795.83 803.05 843.73 803.05 798.1 792.85 795.83 803.05"/></g></g><g class="cls-21"><g class="cls-155"><polygon class="cls-37" points="557.01 726.49 608.74 742.39 604.21 756.99 584.22 751.47 570.12 803.05 536.1 803.05 541.98 786.5 559.79 790.13 573.31 748.21 552.47 741.68 557.01 726.49"/></g></g><g class="cls-21"><g class="cls-156"><polygon class="cls-37" points="422.78 664.08 425.55 666.14 422.78 673.23 436.54 679.04 426.05 707 422.78 706.56 422.78 664.08"/></g></g><g class="cls-21"><g class="cls-157"><polygon class="cls-37" points="724.61 803.05 780.24 803.05 784.96 775.27 735.02 764.77 724.61 803.05"/></g></g><g class="cls-21"><g class="cls-158"><polygon class="cls-37" points="663.66 707 668.98 672.38 914.46 740.98 912.75 749.48 663.66 707"/></g></g><g class="cls-21"><g class="cls-159"><polygon class="cls-37" points="640.63 658.37 627.16 700.16 422.63 624.68 422.13 595.27 640.63 658.37"/></g></g><g class="cls-72"><g class="cls-160"><polygon class="cls-161" points="674.48 360.85 727.31 378.82 708.66 435.83 655.8 417.54 674.48 360.85"/></g></g><path class="cls-162" d="M693.09,378.05,694,404.9m-16.26,13L689.33,380q3.43-3.26,7.94-.4l8.88,39.13"/></g><polygon class="cls-163" points="690 412.23 696.57 412.46 696.51 414.01 690.58 414.57 690 412.23"/><g class="cls-18"><path class="cls-163" d="M697.39,399.16h0a2.12,2.12,0,1,0,2,2.19,2.11,2.11,0,0,0-2-2.19"/><path class="cls-163" d="M698.28,404.91a1.64,1.64,0,0,0-1.71-1.09,2.12,2.12,0,0,0-1.33,1.48v.05a3.33,3.33,0,0,1-3.76-.76l-.15-.09-.17,0-.16,0-.17,0-.16,0-.14.09-.14.1-.1.14-.09.14-.05.17,0,.17,0,.17,0,.17.08.16.08.15.13.11-.12-.13a5.47,5.47,0,0,0,3.44,1.52,3.58,3.58,0,0,0,.8,0l0,0a12.38,12.38,0,0,1-.88,2q-4.44-.79-8.13,3.19l-.06.18v.37l0,.19,0,.18.09.16.09.16.14.13.13.13.17.08.16.09.18,0,.18,0,.18,0,.18,0,.17-.07,1-1,.39-.35.6-.37.84-.41.57-.22.52-.16.68-.09h.9l1,.1a4.64,4.64,0,0,0,2,.07,3.66,3.66,0,0,0,1.4-1.85q1.74-3.37,1.14-5.17"/></g><line class="cls-164" x1="843.73" y1="318.83" x2="843.73" y2="308.66"/><line class="cls-165" x1="866.91" y1="298.49" x2="878.49" y2="298.49"/><line class="cls-166" x1="890.84" y1="322.76" x2="900.41" y2="626.2"/><line class="cls-167" x1="876.95" y1="639.95" x2="865.03" y2="640.76"/><line class="cls-168" x1="852.43" y1="619.4" x2="850.73" y2="564"/><path class="cls-29" d="M850.39,552.92h0m2.72,88.64h0m47.69-3.23h0M890.08,298.49h0m-46.35,0h0m0,40.67h0"/><g class="cls-18"><g class="cls-72"><g class="cls-169"><path class="cls-74" d="M749.84,560a12.67,12.67,0,1,0-12.66-12.67A12.67,12.67,0,0,0,749.84,560"/></g></g><g class="cls-72"><g class="cls-170"><path class="cls-74" d="M734.61,631.93a6.59,6.59,0,1,0-6.58-6.58,6.58,6.58,0,0,0,6.58,6.58"/></g></g><g class="cls-72"><g class="cls-171"><path class="cls-74" d="M712.9,557.31a4.39,4.39,0,1,0-4.39-4.39,4.39,4.39,0,0,0,4.39,4.39"/></g></g><g class="cls-72"><g class="cls-172"><path class="cls-74" d="M615.4,569.06a4.39,4.39,0,1,0-4.38-4.38,4.38,4.38,0,0,0,4.38,4.38"/></g></g></g><path class="cls-87" d="M703.64,531,696,528.66m8.82-1.55-7.67-2.3m8.82-1.55L698.27,521m8.82-1.56-7.67-2.29m8.82-1.56-7.67-2.29m8.82-1.55-7.67-2.29m8.82-1.56-7.67-2.29m8.82-1.56L704,501.73m8.82-1.56-7.67-2.29m8.82-1.55-7.67-2.3m8.82-1.55-7.67-2.29m8.82-1.56-7.67-2.29m8.82-1.56-7.67-2.29m8.82-1.55-7.67-2.29m8.82-1.56-7.67-2.29m8.82-1.56L713.22,471m8.82-1.56-7.67-2.29m8.82-1.55-7.67-2.29m8.82-1.56-7.66-2.29m8.81-1.56-7.66-2.29m5.24-6.05-2.3,7.66m-1.55-8.82-2.3,7.66m-1.54-8.81-2.3,7.66M711.53,446l-2.3,7.66m-1.54-8.81-2.31,7.66m-1.54-8.82-2.3,7.66M700,442.58l-2.3,7.66m-1.54-8.82-2.3,7.66m-1.55-8.81-2.3,7.66m-1.54-8.82-2.3,7.66M684.61,438l-2.3,7.66m-1.55-8.82-2.3,7.66"/><path class="cls-87" d="M755.63,328.18l7.71,2.15m-8.84,1.91,7.71,2.14m-8.84,1.91,7.71,2.15m-8.84,1.91L760,342.5m-8.84,1.91,7.71,2.14M750,348.46l7.71,2.15m-8.84,1.91,7.71,2.14m-8.84,1.91,7.71,2.15m-8.84,1.91,7.71,2.14m-5.2-3.24-2.22,7.69m-1.83-8.85-2.21,7.68M741,357.2l-2.22,7.69M737,356l-2.21,7.69m-1.83-8.86-2.22,7.69m-1.82-8.85-2.22,7.68m-1.83-8.85-2.22,7.69m-1.82-8.86-2.22,7.69m-1.83-8.86-2.22,7.69M712.7,349l-2.22,7.68m-1.83-8.85-2.22,7.69"/><path class="cls-87" d="M854.77,542.23l-8,.28m7.85-4.31-8,.29m7.85-4.32-8,.28m7.85-4.31-8,.28m7.85-4.32-8,.29m7.85-4.31-8,.28m7.85-4.32-8,.29m7.85-4.32-8,.29M853.6,510l-8,.29m7.85-4.32-8,.29m7.85-4.32-8,.29m7.85-4.32-8,.29m7.85-4.32-8,.29m7.85-4.32-8,.29m7.85-4.32-8,.29m7.85-4.32-8,.29m7.85-4.32-8,.29m7.85-4.32-8,.29m7.85-4.32-8,.29m7.85-4.32-8,.29m7.85-4.32-8,.29m7.85-4.32-8,.29m7.85-4.32-8,.29m7.85-4.32-8,.29m7.85-4.32-8,.29m7.84-4.32-8,.29m7.85-4.32-8,.29m7.85-4.32-8,.29m7.85-4.32-8,.29m7.85-4.32-8,.29m7.84-4.32-8,.29m7.85-4.32-8,.29m7.85-4.33-8,.3m7.85-4.32-8,.28m7.85-4.32-8,.29m7.84-4.31-8,.28m7.85-4.32-8,.29m7.85-4.32-8,.29m7.85-4.32-8,.29m7.85-4.32-8,.29m7.84-4.32-8,.29m7.85-4.32-8,.29m7.85-4.32-8,.29m7.85-4.32-8,.29m7.85-4.32-8,.29m7.84-4.32-8,.29m7.85-4.32-8,.29m7.85-4.32-8,.29m7.85-4.32-8,.29"/></g></g></g></g></svg>