<svg xmlns="http://www.w3.org/2000/svg" xmlns:xlink="http://www.w3.org/1999/xlink" viewBox="0 0 1190.55 841.89"><defs><style>.cls-1,.cls-144,.cls-145,.cls-146,.cls-147,.cls-148,.cls-149,.cls-150,.cls-151,.cls-152,.cls-153,.cls-154,.cls-155,.cls-156,.cls-157,.cls-158,.cls-159,.cls-160,.cls-161,.cls-162,.cls-163,.cls-164,.cls-183,.cls-24,.cls-29,.cls-30,.cls-31,.cls-32,.cls-33,.cls-34,.cls-35,.cls-36,.cls-37,.cls-38,.cls-39,.cls-40,.cls-41,.cls-42,.cls-43,.cls-44,.cls-45,.cls-46,.cls-47,.cls-65,.cls-66,.cls-67,.cls-70,.cls-71,.cls-74,.cls-78,.cls-79,.cls-80,.cls-82{fill:none;}.cls-2{isolation:isolate;}.cls-3{clip-path:url(#clip-path);}.cls-4{font-size:30px;font-family:GTAmerica-LightItalic, GT America;font-style:italic;}.cls-134,.cls-165,.cls-4,.cls-97{font-weight:300;}.cls-5{letter-spacing:0em;}.cls-6{letter-spacing:0em;}.cls-7{letter-spacing:-0.01em;}.cls-8{letter-spacing:-0.01em;}.cls-9{letter-spacing:0em;}.cls-10{letter-spacing:0.03em;}.cls-11{letter-spacing:-0.02em;}.cls-12{letter-spacing:0em;}.cls-13{letter-spacing:0em;}.cls-14{letter-spacing:-0.01em;}.cls-15{letter-spacing:-0.01em;}.cls-16{letter-spacing:-0.02em;}.cls-17{clip-path:url(#clip-path-3);}.cls-18{opacity:0.5;}.cls-19{clip-path:url(#clip-path-4);}.cls-20{fill:#f39797;}.cls-21{clip-path:url(#clip-path-5);}.cls-22{clip-path:url(#clip-path-6);}.cls-23{clip-path:url(#clip-path-7);}.cls-144,.cls-145,.cls-146,.cls-147,.cls-148,.cls-149,.cls-150,.cls-151,.cls-152,.cls-153,.cls-154,.cls-155,.cls-156,.cls-157,.cls-158,.cls-159,.cls-160,.cls-161,.cls-162,.cls-163,.cls-164,.cls-24,.cls-65,.cls-66,.cls-67{stroke:#000;}.cls-24{stroke-width:0.33px;}.cls-25{opacity:0.2;}.cls-26{clip-path:url(#clip-path-8);}.cls-27{clip-path:url(#clip-path-9);}.cls-28{clip-path:url(#clip-path-10);}.cls-29,.cls-30,.cls-31,.cls-32,.cls-33,.cls-34,.cls-35,.cls-36,.cls-37,.cls-38,.cls-39,.cls-40,.cls-41,.cls-42,.cls-43,.cls-44,.cls-45,.cls-46,.cls-47{stroke:#cd1719;}.cls-144,.cls-145,.cls-146,.cls-147,.cls-148,.cls-149,.cls-150,.cls-151,.cls-152,.cls-153,.cls-154,.cls-155,.cls-156,.cls-157,.cls-158,.cls-159,.cls-160,.cls-161,.cls-162,.cls-163,.cls-29,.cls-30,.cls-31,.cls-32,.cls-33,.cls-34,.cls-35,.cls-36,.cls-37,.cls-38,.cls-39,.cls-40,.cls-41,.cls-42,.cls-43,.cls-44,.cls-45,.cls-46,.cls-47,.cls-65,.cls-66,.cls-70,.cls-71,.cls-78,.cls-79,.cls-80,.cls-82{stroke-linecap:round;stroke-linejoin:round;}.cls-29{stroke-dasharray:0 1.99;}.cls-30{stroke-dasharray:0 1.99;}.cls-31{stroke-dasharray:0 2.13;}.cls-32{stroke-dasharray:0 2.08;}.cls-33{stroke-dasharray:0 2;}.cls-34{stroke-dasharray:0 2.03;}.cls-35{stroke-dasharray:0 2.01;}.cls-36{stroke-dasharray:0 1.88;}.cls-37{stroke-dasharray:0 2.1;}.cls-38{stroke-dasharray:0 1.92;}.cls-39{stroke-dasharray:0 2.41;}.cls-40{stroke-dasharray:0 2.04;}.cls-41{stroke-dasharray:0 2.03;}.cls-42{stroke-dasharray:0 2.01;}.cls-43{stroke-dasharray:0 2;}.cls-44{stroke-dasharray:0 1.99;}.cls-45{stroke-dasharray:0 1.99;}.cls-46{stroke-dasharray:0 1.99;}.cls-48{clip-path:url(#clip-path-12);}.cls-49{fill:#5c782a;}.cls-50,.cls-68{opacity:0.8;}.cls-51{clip-path:url(#clip-path-13);}.cls-52{fill:#69b75c;}.cls-53{opacity:0.6;}.cls-54{clip-path:url(#clip-path-14);}.cls-55{fill:#cd1719;}.cls-56{clip-path:url(#clip-path-15);}.cls-57{clip-path:url(#clip-path-16);}.cls-58{clip-path:url(#clip-path-17);}.cls-59{clip-path:url(#clip-path-18);}.cls-60{clip-path:url(#clip-path-19);}.cls-61{clip-path:url(#clip-path-20);}.cls-62{clip-path:url(#clip-path-21);}.cls-63{clip-path:url(#clip-path-22);}.cls-64{clip-path:url(#clip-path-23);}.cls-144,.cls-145,.cls-146,.cls-147,.cls-148,.cls-149,.cls-150,.cls-151,.cls-152,.cls-153,.cls-154,.cls-155,.cls-156,.cls-157,.cls-158,.cls-159,.cls-160,.cls-161,.cls-162,.cls-163,.cls-65,.cls-66{stroke-width:8px;}.cls-65{stroke-dasharray:0 22.58;}.cls-67{stroke-width:1.5px;}.cls-68{mix-blend-mode:multiply;}.cls-69{clip-path:url(#clip-path-25);}.cls-70,.cls-71,.cls-78,.cls-79,.cls-80,.cls-82{stroke:#5baf31;}.cls-70,.cls-71{stroke-width:8.1px;}.cls-70{stroke-dasharray:0 17.63;}.cls-72{fill:#5baf31;}.cls-73{clip-path:url(#clip-path-26);}.cls-74{stroke:#4d7f34;stroke-width:2.73px;}.cls-75{fill:#4d7f34;}.cls-76{clip-path:url(#clip-path-27);}.cls-77{clip-path:url(#clip-path-28);}.cls-78,.cls-79,.cls-80,.cls-82{stroke-width:15px;}.cls-78{stroke-dasharray:0 28.99;}.cls-79{stroke-dasharray:0 28.93;}.cls-81{clip-path:url(#clip-path-29);}.cls-82{stroke-dasharray:0 31.24;}.cls-83{clip-path:url(#clip-path-30);}.cls-134,.cls-84{font-size:24px;}.cls-84{font-family:GTAmerica-Bold, GT America;font-weight:700;}.cls-85{letter-spacing:0em;}.cls-86{letter-spacing:0em;}.cls-87{letter-spacing:0.01em;}.cls-88{letter-spacing:0em;}.cls-89{letter-spacing:0.02em;}.cls-90{letter-spacing:-0.01em;}.cls-91{letter-spacing:-0.01em;}.cls-92{letter-spacing:0em;}.cls-93{letter-spacing:-0.03em;}.cls-94{letter-spacing:0.01em;}.cls-95{letter-spacing:0em;}.cls-96{letter-spacing:-0.01em;}.cls-97{font-size:22px;}.cls-134,.cls-165,.cls-97{font-family:GTAmerica-Light, GT America;}.cls-98{letter-spacing:-0.01em;}.cls-99{letter-spacing:0em;}.cls-100{letter-spacing:-0.01em;}.cls-101{letter-spacing:0em;}.cls-102{letter-spacing:0em;}.cls-103{letter-spacing:0.02em;}.cls-104{letter-spacing:0em;}.cls-105{letter-spacing:-0.01em;}.cls-106{letter-spacing:-0.01em;}.cls-107{letter-spacing:0em;}.cls-108{letter-spacing:-0.01em;}.cls-109{letter-spacing:-0.01em;}.cls-110{letter-spacing:0.01em;}.cls-111{letter-spacing:-0.06em;}.cls-112{letter-spacing:-0.01em;}.cls-113{letter-spacing:-0.01em;}.cls-114{letter-spacing:-0.03em;}.cls-115{letter-spacing:0.01em;}.cls-116{letter-spacing:-0.01em;}.cls-117{letter-spacing:-0.02em;}.cls-118{letter-spacing:0em;}.cls-119{letter-spacing:0em;}.cls-120{letter-spacing:0.02em;}.cls-121{letter-spacing:0em;}.cls-122{letter-spacing:0.02em;}.cls-123{letter-spacing:-0.03em;}.cls-124{letter-spacing:0.02em;}.cls-125{letter-spacing:-0.01em;}.cls-126{letter-spacing:0em;}.cls-127{letter-spacing:0.02em;}.cls-128{letter-spacing:-0.01em;}.cls-129{letter-spacing:-0.01em;}.cls-130{letter-spacing:-0.04em;}.cls-131{letter-spacing:0.01em;}.cls-132{letter-spacing:0.01em;}.cls-133{letter-spacing:0em;}.cls-135{letter-spacing:0em;}.cls-136{letter-spacing:-0.01em;}.cls-137{letter-spacing:-0.03em;}.cls-138{letter-spacing:-0.01em;}.cls-139{letter-spacing:-0.05em;}.cls-140{letter-spacing:-0.02em;}.cls-141{letter-spacing:-0.02em;}.cls-142{letter-spacing:0em;}.cls-143{letter-spacing:0em;}.cls-144{stroke-dasharray:0 26.75;}.cls-145{stroke-dasharray:0 24.62;}.cls-146{stroke-dasharray:0 18.54;}.cls-147{stroke-dasharray:0 19.16;}.cls-148{stroke-dasharray:0 19.03;}.cls-149{stroke-dasharray:0 26.97;}.cls-150{stroke-dasharray:0 21.87;}.cls-151{stroke-dasharray:0 19.37;}.cls-152{stroke-dasharray:0 34.81;}.cls-153{stroke-dasharray:0 23.13;}.cls-154{stroke-dasharray:0 23;}.cls-155{stroke-dasharray:0 19;}.cls-156{stroke-dasharray:0 22.99;}.cls-157{stroke-dasharray:0 25.9;}.cls-158{stroke-dasharray:0 19.66;}.cls-159{stroke-dasharray:0 25.64;}.cls-160{stroke-dasharray:0 27.41;}.cls-161{stroke-dasharray:0 25.14;}.cls-162{stroke-dasharray:0 19.35;}.cls-163{stroke-dasharray:0 21.99;}.cls-164{stroke-width:3px;}.cls-165{font-size:20px;}.cls-166{letter-spacing:-0.02em;}.cls-167{letter-spacing:0em;}.cls-168{letter-spacing:0em;}.cls-169{letter-spacing:-0.01em;}.cls-170{letter-spacing:0em;}.cls-171{letter-spacing:0.01em;}.cls-172{letter-spacing:0em;}.cls-173{letter-spacing:0em;}.cls-174{letter-spacing:0em;}.cls-175{letter-spacing:0.02em;}.cls-176{letter-spacing:0.01em;}.cls-177{letter-spacing:0.04em;}.cls-178{letter-spacing:0.02em;}.cls-179{letter-spacing:0.02em;}.cls-180{letter-spacing:0em;}.cls-181{clip-path:url(#clip-path-32);}.cls-182{fill:#5ab8b0;}.cls-183{stroke:#588fa5;}.cls-184{fill:#588fa5;}.cls-185{clip-path:url(#clip-path-34);}.cls-186{clip-path:url(#clip-path-35);}.cls-187{clip-path:url(#clip-path-36);}.cls-188{clip-path:url(#clip-path-37);}.cls-189{clip-path:url(#clip-path-38);}.cls-190{clip-path:url(#clip-path-39);}.cls-191{clip-path:url(#clip-path-40);}.cls-192{clip-path:url(#clip-path-41);}</style><clipPath id="clip-path"><rect class="cls-1" width="1190.55" height="841.89"/></clipPath><clipPath id="clip-path-3"><rect class="cls-1" width="1190.55" height="841.89"/></clipPath><clipPath id="clip-path-4"><rect class="cls-1" x="804.97" y="277.84" width="118.91" height="136.69"/></clipPath><clipPath id="clip-path-5"><rect class="cls-1" x="731.28" y="300.52" width="120.05" height="136.13"/></clipPath><clipPath id="clip-path-6"><rect class="cls-1" x="611.43" y="468.19" width="209.99" height="130.6"/></clipPath><clipPath id="clip-path-7"><rect class="cls-1" x="728.16" y="507.16" width="218.41" height="152"/></clipPath><clipPath id="clip-path-8"><rect class="cls-1" x="528.31" y="336.52" width="114.38" height="190.84"/></clipPath><clipPath id="clip-path-9"><rect class="cls-1" x="599.75" y="230.79" width="73.28" height="74.33"/></clipPath><clipPath id="clip-path-10"><rect class="cls-1" x="807.53" y="130.93" width="83.2" height="104.1"/></clipPath><clipPath id="clip-path-12"><rect class="cls-1" x="689.63" y="130.48" width="146.41" height="126.97"/></clipPath><clipPath id="clip-path-13"><rect class="cls-1" x="621.31" y="245.03" width="165.29" height="254.59"/></clipPath><clipPath id="clip-path-14"><rect class="cls-1" x="836.45" y="505.43" width="41.74" height="31.74"/></clipPath><clipPath id="clip-path-15"><rect class="cls-1" x="729.62" y="529.45" width="43.79" height="33.79"/></clipPath><clipPath id="clip-path-16"><rect class="cls-1" x="646.55" y="607.19" width="43.79" height="33.79"/></clipPath><clipPath id="clip-path-17"><rect class="cls-1" x="635.89" y="607.19" width="35.42" height="25.42"/></clipPath><clipPath id="clip-path-18"><rect class="cls-1" x="631.12" y="600.74" width="35.42" height="25.42"/></clipPath><clipPath id="clip-path-19"><rect class="cls-1" x="595.62" y="588.98" width="32.48" height="22.48"/></clipPath><clipPath id="clip-path-20"><rect class="cls-1" x="662.19" y="593.1" width="32.48" height="22.48"/></clipPath><clipPath id="clip-path-21"><rect class="cls-1" x="863.3" y="426.12" width="33.32" height="23.32"/></clipPath><clipPath id="clip-path-22"><rect class="cls-1" x="700.43" y="543.63" width="26.93" height="16.93"/></clipPath><clipPath id="clip-path-23"><rect class="cls-1" x="37.63" y="295.77" width="43.45" height="33.45"/></clipPath><clipPath id="clip-path-25"><rect class="cls-1" x="23.46" y="343.62" width="71.15" height="35.48"/></clipPath><clipPath id="clip-path-26"><rect class="cls-1" x="-3.65" y="482.29" width="125.36" height="80.27"/></clipPath><clipPath id="clip-path-27"><rect class="cls-1" x="23.46" y="439.71" width="71.15" height="33.45"/></clipPath><clipPath id="clip-path-28"><rect class="cls-1" x="478.56" y="158.83" width="553.71" height="116.24"/></clipPath><clipPath id="clip-path-29"><rect class="cls-1" x="549.39" y="241.6" width="163.42" height="359.5"/></clipPath><clipPath id="clip-path-30"><rect class="cls-1" x="664.04" y="159.75" width="169.98" height="179.22"/></clipPath><clipPath id="clip-path-32"><rect class="cls-1" x="646.79" y="353.85" width="89.52" height="82.98"/></clipPath><clipPath id="clip-path-34"><rect class="cls-1" x="416.55" y="676.86" width="114.02" height="127.2"/></clipPath><clipPath id="clip-path-35"><rect class="cls-1" x="598.32" y="733.98" width="130.68" height="70.08"/></clipPath><clipPath id="clip-path-36"><rect class="cls-1" x="786.83" y="785.85" width="65.9" height="18.21"/></clipPath><clipPath id="clip-path-37"><rect class="cls-1" x="527.1" y="719.49" width="90.64" height="84.56"/></clipPath><clipPath id="clip-path-38"><rect class="cls-1" x="413.78" y="657.08" width="31.76" height="50.92"/></clipPath><clipPath id="clip-path-39"><rect class="cls-1" x="715.61" y="757.77" width="78.35" height="46.28"/></clipPath><clipPath id="clip-path-40"><rect class="cls-1" x="654.66" y="665.38" width="268.8" height="85.1"/></clipPath><clipPath id="clip-path-41"><rect class="cls-1" x="413.13" y="588.28" width="236.5" height="112.88"/></clipPath></defs><g class="cls-2"><g id="Calque_1" data-name="Calque 1"><g class="cls-3"><g class="cls-3"><path d="M93.29,53.54l4.89-.48c0,2.34,1.32,3.72,3.36,3.72a2.71,2.71,0,0,0,3-3c0-1.92-1.14-2.91-3.6-2.91H99.83v-3.3h1.08c2.1,0,3.18-1.08,3.18-2.91a2.5,2.5,0,0,0-2.76-2.73c-2,0-3.06,1.41-3.06,3.78l-4.77-.63c0-4.17,3.12-6.81,8.07-6.81s7.5,2.16,7.5,5.82A5,5,0,0,1,104.9,49c3.09.48,4.74,2.22,4.74,5.13,0,4-3.18,6.42-8.13,6.42S93.35,57.8,93.29,53.54Zm24,6.51h-5.13V55.13h5.13Zm2.37-6.51,4.89-.48c0,2.34,1.32,3.72,3.36,3.72a2.71,2.71,0,0,0,3-3c0-1.92-1.14-2.91-3.6-2.91h-1.11v-3.3h1.08c2.1,0,3.18-1.08,3.18-2.91a2.5,2.5,0,0,0-2.76-2.73c-2,0-3.06,1.41-3.06,3.78l-4.77-.63c0-4.17,3.12-6.81,8.07-6.81,4.8,0,7.5,2.16,7.5,5.82A5,5,0,0,1,131.24,49c3.09.48,4.74,2.22,4.74,5.13,0,4-3.18,6.42-8.13,6.42S119.69,57.8,119.63,53.54Zm31.56-14.79V52.4a4,4,0,1,0,7.92,0V38.75h5.07V52.61c0,4.86-3.36,8-9,8s-9-3.09-9-8V38.75Zm17.07,0h5.61l6.84,12.15A22.16,22.16,0,0,1,182,53.66h.06c0-.84,0-1.71,0-2.73V38.75h4.65v21.3h-5.4L174.2,47.78a18.35,18.35,0,0,1-1.26-2.61h-.06c0,.87,0,1.77,0,2.82V60.05h-4.65ZM205.91,56.3v3.75H191.12V38.75H205.7V42.5h-9.51v4.8h9V51h-9V56.3ZM234,45.44c0,4.23-3,6.87-7.76,6.87H222v7.74h-5.07V38.75h9.45C231,38.75,234,41.39,234,45.44Zm-5.3.15c0-2-1.29-3.18-3.57-3.18H222v6.36h3.15C227.36,48.77,228.68,47.6,228.68,45.59Zm7.92-6.84h5.07V55.94h8.64v4.11H236.6Zm29.79,16.32h-7.86l-1.62,5h-5.07l7.74-21.3h5.79l7.73,21.3H268Zm-1.17-3.57-2-5.94a25.65,25.65,0,0,1-.78-3h-.06a20.83,20.83,0,0,1-.78,3L259.7,51.5Zm8.16-2.07c0-6.72,4-11.19,10.44-11.19,5.42,0,8.84,3,9.41,7.65l-5.13.9c-.3-2.82-1.85-4.47-4.4-4.47-3.24,0-5.13,2.73-5.13,7.08s1.92,7.05,5.28,7.05c2.37,0,3.95-1.62,4.37-4.38l5.13,1.11c-1,4.5-4.32,7.38-9.59,7.38C277,60.56,273.38,56.15,273.38,49.43Zm37.7,6.87v3.75H296.3V38.75h14.57V42.5h-9.5v4.8h9V51h-9V56.3Zm23.73-1.23H327l-1.62,5h-5.06L328,38.75h5.79l7.74,21.3h-5.1Zm-1.17-3.57-1.95-5.94a25.65,25.65,0,0,1-.78-3h-.06a20.83,20.83,0,0,1-.78,3l-1.95,5.94Zm10.5-12.75h5.61l6.84,12.15a22.16,22.16,0,0,1,1.29,2.76h.06c0-.84,0-1.71,0-2.73V38.75h4.65v21.3h-5.4l-7.08-12.27a18.35,18.35,0,0,1-1.26-2.61h-.06c0,.87,0,1.77,0,2.82V60.05h-4.65ZM367,60.05V38.75h5.07v21.3Zm9.51-21.3h7l3.93,13a14.92,14.92,0,0,1,.51,2.58H388a16.5,16.5,0,0,1,.54-2.64l3.75-13h7.05v21.3h-4.62V45.53a21.43,21.43,0,0,1,.12-2.4h-.09a12.12,12.12,0,0,1-.45,2.07L390,60.05h-4.26L381.25,45.2a10,10,0,0,1-.45-2h-.09c.06.72.12,1.53.12,2.37V60.05h-4.32Zm42,17.55v3.75H403.75V38.75h14.58V42.5h-9.51v4.8h9V51h-9V56.3Zm-5.43-18.84h-3.66l3-3.54h4.17ZM437,56.3v3.75H422.23V38.75h14.58V42.5H427.3v4.8h9V51h-9V56.3Zm25.77,0v3.75H448V38.75h14.58V42.5h-9.51v4.8h9V51h-9V56.3ZM482,42.77h-6.21V60.05h-5V42.77h-6.18v-4H482Zm14.4-4V52.4a4,4,0,1,0,7.92,0V38.75h5.07V52.61c0,4.86-3.36,8-9,8s-9-3.09-9-8V38.75Zm17.07,0h5.61l6.84,12.15a22.16,22.16,0,0,1,1.29,2.76h.06c0-.84,0-1.71,0-2.73V38.75h4.65v21.3h-5.4l-7.08-12.27a18.35,18.35,0,0,1-1.26-2.61h-.06c0,.87,0,1.77,0,2.82V60.05h-4.65Zm30.15,0h5.61l6.84,12.15a22.16,22.16,0,0,1,1.29,2.76h.06c0-.84,0-1.71,0-2.73V38.75h4.65v21.3h-5.4l-7.08-12.27a18.35,18.35,0,0,1-1.26-2.61h-.06c0,.87,0,1.77,0,2.82V60.05h-4.65ZM565.15,49.4c0-6.87,4.11-11.16,10.5-11.16s10.5,4.29,10.5,11.16S582,60.56,575.65,60.56,565.15,56.24,565.15,49.4Zm15.78,0c0-4.5-1.95-7.2-5.28-7.2s-5.31,2.7-5.31,7.2,2,7.2,5.31,7.2S580.93,53.9,580.93,49.4Zm13-10.65V52.4a4,4,0,1,0,7.92,0V38.75h5.07V52.61c0,4.86-3.36,8-9,8s-9-3.09-9-8V38.75Zm14.91,0h5.4l4,13.74a17.44,17.44,0,0,1,.66,2.94H619a18,18,0,0,1,.69-2.94l4-13.74h5.4l-7.17,21.3H616ZM646.12,56.3v3.75H631.33V38.75h14.58V42.5H636.4v4.8h9V51h-9V56.3Zm16.74-1.23H655l-1.62,5h-5.07l7.74-21.3h5.79l7.74,21.3h-5.1Zm-1.17-3.57-2-5.94a25.65,25.65,0,0,1-.78-3h-.06a20.83,20.83,0,0,1-.78,3l-2,5.94ZM676,38.75V52.4a4,4,0,1,0,7.92,0V38.75H689V52.61c0,4.86-3.36,8-9,8s-9-3.09-9-8V38.75Zm41.46,6.69c0,4.23-3,6.87-7.77,6.87H705.4v7.74h-5.07V38.75h9.45C714.4,38.75,717.43,41.39,717.43,45.44Zm-5.31.15c0-2-1.29-3.18-3.57-3.18H705.4v6.36h3.15C710.8,48.77,712.12,47.6,712.12,45.59Zm18.18,9.48h-7.86l-1.62,5h-5.07l7.74-21.3h5.79L737,60.05h-5.1Zm-1.17-3.57-2-5.94a25.65,25.65,0,0,1-.78-3h-.06a20.83,20.83,0,0,1-.78,3l-1.95,5.94Zm18.63.39H744.7v8.16h-5.07V38.75H749c5.4,0,7.8,2.64,7.8,6.54a5.89,5.89,0,0,1-4.17,5.85l4.71,8.91h-5.49Zm-3.06-3.48H748c2.46,0,3.54-1.2,3.54-3.12s-1-3-3.54-3H744.7Zm13.86,1c0-6.72,4-11.19,10.44-11.19,5.43,0,8.85,3,9.42,7.65l-5.13.9c-.3-2.82-1.86-4.47-4.41-4.47-3.24,0-5.13,2.73-5.13,7.08s1.92,7.05,5.28,7.05c2.37,0,4-1.62,4.38-4.38l5.13,1.11c-1,4.5-4.32,7.38-9.6,7.38C762.19,60.56,758.56,56.15,758.56,49.43Z"/><text class="cls-4" transform="translate(92.63 95.99)">Des es<tspan class="cls-5" x="91.95" y="0">p</tspan><tspan class="cls-6" x="109.44" y="0">a</tspan><tspan x="125.64" y="0">ces publics di</tspan><tspan class="cls-7" x="313.49" y="0">v</tspan><tspan x="327.14" y="0">e</tspan><tspan class="cls-8" x="343.4" y="0">r</tspan><tspan class="cls-9" x="353.9" y="0">siﬁés pour le qua</tspan><tspan class="cls-10" x="587.6" y="0">r</tspan><tspan x="599.15" y="0">tier</tspan></text><text class="cls-4" transform="translate(92.63 131.99)">2 ai<tspan class="cls-11" x="48.27" y="0">r</tspan><tspan x="58.5" y="0">es d’i</tspan><tspan class="cls-12" x="130.29" y="0">m</tspan><tspan class="cls-13" x="155.46" y="0">pla</tspan><tspan class="cls-14" x="197.43" y="0">n</tspan><tspan class="cls-15" x="214.56" y="0">t</tspan><tspan class="cls-16" x="224.82" y="0">a</tspan><tspan x="240.6" y="0">tions</tspan></text><g class="cls-17"><g class="cls-18"><g class="cls-19"><polygon class="cls-20" points="813.98 301 892.78 284.84 914.89 406.17 878.61 413.54 862.94 330.27 821.91 338.7 813.98 301"/></g></g><g class="cls-18"><g class="cls-21"><polygon class="cls-20" points="740.27 314.32 777.69 307.52 794.7 390.86 834.95 383.49 842.32 420.9 762.95 435.64 740.27 314.32"/></g></g><g class="cls-18"><g class="cls-22"><polygon class="cls-20" points="812.42 487.8 801.36 524.51 768.05 515.01 676.92 531.74 656.94 597.79 620.42 586.85 646.67 498.57 770.18 475.19 812.42 487.8"/></g></g><g class="cls-18"><g class="cls-23"><polygon class="cls-20" points="900.72 514.16 937.57 525.22 916.31 597.79 859.9 658.16 737.16 621.6 748.5 584.46 847.42 613.94 882.01 577.38 900.72 514.16"/></g></g><path class="cls-24" d="M955,225.82c.79,4.33,78.69,433,81.14,443.46,2.54,10.87,19.36,45.69,27.31,57.8,7.57,11.51,44.91,80.16,48.58,90.06"/><path class="cls-24" d="M954.32,225.94c.78,4.33,78.69,433,81.14,443.5,2.55,10.91,19.42,45.86,27.4,58,8.47,12.88,45.19,81,48.51,89.94"/><path class="cls-24" d="M966.74,230.07c.78,4.3,77.92,429.7,80.28,436.78.77,2.33,1.21,3.93,1.67,5.63a131.26,131.26,0,0,0,5.19,15.33c2.42,6.21,19.44,37.61,35.91,68,15.2,28,29.55,54.51,30.93,58.45"/><path class="cls-24" d="M966.08,230.19c3.18,17.55,77.93,429.74,80.3,436.87.77,2.31,1.21,3.91,1.67,5.6a132.27,132.27,0,0,0,5.21,15.39c2.43,6.26,19.47,37.67,35.94,68.06,15.19,28,29.53,54.46,30.89,58.35"/><path class="cls-24" d="M878.65,695.74c6.19.82,151.75,20.27,164.86,25.33,13.76,5.3,32.81,16.41,40,23.31"/><path class="cls-24" d="M878.56,696.4c1.52.2,151.68,20.26,164.71,25.29C1057,727,1075.91,738,1083,744.86"/><path class="cls-24" d="M878.58,706.88c6.15.82,150.63,20.17,157.78,23.84,1.68.86,3.83,1.84,6.32,3,8.17,3.72,19.35,8.81,27.2,15.78a97.34,97.34,0,0,1,16.51,19.36"/><path class="cls-24" d="M878.49,707.54c1.51.2,150.52,20.15,157.57,23.77,1.69.87,3.85,1.85,6.34,3,8.13,3.7,19.26,8.76,27,15.67a97,97,0,0,1,16.38,19.2"/><g class="cls-25"><g class="cls-26"><polygon points="593.06 343.52 633.69 355.33 575.11 526.35 537.31 514.16 593.06 343.52"/></g></g><g class="cls-25"><g class="cls-27"><polygon points="631.14 237.79 654.38 246.01 650.13 259.33 664.02 264.15 650.98 304.12 623.77 294.76 625.75 288.24 608.75 282.57 620.43 246.29 628.02 248.28 631.14 237.79"/></g></g><g class="cls-25"><g class="cls-28"><polygon points="867.55 137.93 864.43 152.18 872.16 180.17 881.72 193.28 877.47 199.31 871.09 228.01 842.32 234.03 838.85 228.01 816.53 211.71 824.32 199.66 834.95 143.68 826.45 138.01 867.55 137.93"/></g></g></g><line class="cls-29" x1="712.68" y1="253.15" x2="805.95" y2="284.24"/><line class="cls-30" x1="808.85" y1="284.18" x2="968.34" y2="253.28"/><line class="cls-31" x1="971.35" y1="253.69" x2="978.5" y2="255.77"/><line class="cls-32" x1="980.37" y1="257.97" x2="983.35" y2="264.62"/><line class="cls-33" x1="984.12" y1="267.53" x2="1059.28" y2="691.48"/><line class="cls-34" x1="1057.84" y1="693.7" x2="1047.36" y2="701.77"/><line class="cls-35" x1="1045.2" y1="703.86" x2="1040.44" y2="709.02"/><line class="cls-36" x1="1038.7" y1="711.31" x2="1032.91" y2="719.89"/><line class="cls-37" x1="1032.04" y1="718.6" x2="1030.85" y2="711.36"/><line class="cls-38" x1="1029.53" y1="711.86" x2="1024.32" y2="718.77"/><line class="cls-39" x1="1021.97" y1="721.16" x2="1021.08" y2="721.98"/><line class="cls-40" x1="1018.5" y1="723.93" x2="1015.94" y2="725.63"/><line class="cls-41" x1="1013.09" y1="725.89" x2="974" y2="719.83"/><line class="cls-42" x1="971.07" y1="719.12" x2="592.49" y2="610.25"/><line class="cls-43" x1="592.16" y1="608.08" x2="655.48" y2="419.02"/><line class="cls-44" x1="657.69" y1="418.7" x2="707.59" y2="435.33"/><line class="cls-45" x1="709.15" y1="433.75" x2="726.92" y2="379.9"/><line class="cls-46" x1="725.35" y1="378.3" x2="675.45" y2="361.13"/><line class="cls-43" x1="675.15" y1="358.91" x2="710.48" y2="253.48"/><path class="cls-47" d="M710.79,252.53h0M674.51,360.81h0M727.23,379h0m-18.7,56.7h0M655.8,418.07h0M591.53,610h0M973,719.68h0m42.09,6.52h0m5.11-3.41h0m3.54-3.25h0m6.94-9.22h0m1.7,10.35h0m7.37-10.91h0m6.81-7.37h0m12.9-9.93h0M983.77,265.57h0m-4.25-9.5h0m-10.21-3h0M806.89,284.56h0"/><g class="cls-17"><g class="cls-18"><g class="cls-48"><path class="cls-49" d="M819.64,143.11c3.12,3.12,4.58,5.95,7.09,14.74,1.13,4-.85,18.71-6,28.06-6.29,11.53-13.32,22.4-10.77,28.07,2.47,5.49,11.62,7.37,14.45,17,3.06,10.39.85,17.3-10.48,23.81s-25.55-8-50.14-12.75c-25-4.82-39.16-10.53-51.91-19-14.52-9.68-15.07-19-11.39-31.84s10-22.68,18.19-33.88c4.41-6.05,8.79-14.17,24.38-17.57,19.39-4.23,32.88-1.14,51-1.14s22.4,1.42,25.51,4.54"/></g></g><path class="cls-24" d="M941.86,137.75C942.4,141.27,955,224,955,226.53c0,2.3-.62,24.59-1.78,30.39-.44,2.2-2.22,8.68-4.47,16.88-3.58,13-8,29.21-9.42,36.69a63.4,63.4,0,0,0,0,25.68c.29,1.67,3.4,18.33,7.71,41.39,12.76,68.33,36.52,195.5,36.94,200.58l.15,1.77a118.79,118.79,0,0,1,.42,21.38c-.82,10-4.62,27.13-9,36.68-3.5,7.71-20.46,30.22-31.86,38.12-13.59,9.42-28.64,16.18-39.26,17.63-14.11,1.93-29.73,3.27-48.3,0l-13.09-2.25c-18.8-3.2-50.26-8.58-59.48-10.51-12.07-2.52-24.29-6.2-24.41-6.24L422.83,569.52"/><path class="cls-24" d="M941.2,137.85c.14.86,13.11,86.18,13.11,88.68,0,2.87-.67,24.78-1.76,30.26-.44,2.17-2.3,9-4.47,16.83-3.57,13-8,29.24-9.42,36.75a64,64,0,0,0,0,25.91c.3,1.68,3.41,18.34,7.72,41.41,12.76,68.31,36.51,195.46,36.93,200.5l.15,1.78a118.61,118.61,0,0,1,.41,21.27c-.81,10-4.59,27-8.9,36.46-3.48,7.65-20.31,30-31.63,37.84-13.51,9.37-28.45,16.08-39,17.52-14.06,1.93-29.61,3.26-48.09,0-2.27-.4-7-1.21-13.1-2.24-18.79-3.21-50.25-8.58-59.46-10.51-12-2.52-24.23-6.19-24.35-6.23L423,568.88"/><path class="cls-24" d="M953.49,137.75c.1.71,10.78,71,11.62,78,.94,7.81,1.94,27.55,0,37.8-.79,4.14-3.18,12.64-6,22.48-4.23,15-9,32-9.36,38.14-.55,9.95,2.66,31.42,4,37.9.41,2,42.22,219.12,43.09,233.9.69,11.74-.67,30.28-4.55,41.51-4.76,13.79-9.54,23-17.62,34.11-6.72,9.2-25.06,25.54-33.85,30.14-8.62,4.52-26.55,12-40.64,13.93-14.27,2-22.81,1.12-32.7.12-2.25-.23-4.57-.47-7.06-.69-17.68-1.52-53.29-8.09-65.52-10.49-15.71-3.09-368.68-113.17-372.24-114.28"/><path class="cls-24" d="M952.83,137.85c.1.71,10.78,70.94,11.62,77.94.93,7.78,1.93,27.43,0,37.6-.78,4.12-3.28,13-5.94,22.43-4.23,15-9,32.05-9.37,38.28-.56,10,2.66,31.57,4,38.07,2,10.06,42.25,219.66,43.08,233.81.69,11.67-.66,30.1-4.51,41.26-4.74,13.71-9.49,22.91-17.53,33.92-6.67,9.15-24.9,25.38-33.62,30S914.11,703,900.1,705c-14.18,2-22.69,1.12-32.53.11-2.25-.23-4.58-.47-7.08-.68-17.64-1.52-53.22-8.08-65.44-10.48-15.68-3.08-368.61-113.16-372.17-114.27"/><g class="cls-50"><g class="cls-51"><polygon class="cls-52" points="630.31 493.97 646.81 498.61 770.32 475.19 740.27 314.27 777.6 307.52 771.08 272.58 710.79 252.03 674.65 361.13 727.09 379.13 708.52 435.64 655.8 418.11 630.31 493.97"/></g></g><g class="cls-53"><g class="cls-54"><path class="cls-55" d="M857.32,536.17a11.87,11.87,0,1,0-11.87-11.87,11.86,11.86,0,0,0,11.87,11.87"/></g></g><g class="cls-53"><g class="cls-56"><path class="cls-55" d="M751.52,562.25a12.9,12.9,0,1,0-12.9-12.9,12.9,12.9,0,0,0,12.9,12.9"/></g></g><g class="cls-53"><g class="cls-57"><path class="cls-55" d="M668.45,640a12.9,12.9,0,1,0-12.9-12.89A12.89,12.89,0,0,0,668.45,640"/></g></g><g class="cls-53"><g class="cls-58"><path class="cls-55" d="M653.6,631.61a8.71,8.71,0,1,0-8.71-8.71,8.71,8.71,0,0,0,8.71,8.71"/></g></g><g class="cls-53"><g class="cls-59"><path class="cls-55" d="M648.83,625.16a8.71,8.71,0,1,0-8.71-8.71,8.71,8.71,0,0,0,8.71,8.71"/></g></g><g class="cls-53"><g class="cls-60"><path class="cls-55" d="M611.86,610.45a7.24,7.24,0,1,0-7.24-7.24,7.24,7.24,0,0,0,7.24,7.24"/></g></g><g class="cls-53"><g class="cls-61"><path class="cls-55" d="M678.43,614.58a7.24,7.24,0,1,0-7.24-7.24,7.24,7.24,0,0,0,7.24,7.24"/></g></g><g class="cls-53"><g class="cls-62"><path class="cls-55" d="M880,448.44a7.66,7.66,0,1,0-7.66-7.66,7.66,7.66,0,0,0,7.66,7.66"/></g></g><g class="cls-53"><g class="cls-63"><path class="cls-55" d="M713.9,559.56a4.47,4.47,0,1,0-4.47-4.47,4.47,4.47,0,0,0,4.47,4.47"/></g></g><g class="cls-53"><g class="cls-64"><path class="cls-55" d="M59.35,328.22a12.73,12.73,0,1,0-12.72-12.73,12.73,12.73,0,0,0,12.72,12.73"/></g></g></g><line class="cls-65" x1="59.03" y1="667.95" x2="70.32" y2="667.95"/><path class="cls-66" d="M81.61,668h0m-45.15,0h0"/><path class="cls-67" d="M84.86,616.19v8m-4.31-8v8m-4.3-8v8m-4.31-8v8m-4.3-8v8m-4.3-8v8m-4.31-8v8m-4.3-8v8m-4.31-8v8m-4.3-8v8m-4.31-8v8m-4.3-8v8m-4.31-8v8"/><g class="cls-17"><g class="cls-68"><g class="cls-69"><line class="cls-70" x1="59.03" y1="364.36" x2="67.84" y2="364.36"/><path class="cls-71" d="M76.66,364.36h0m-35.26,0h0"/><polygon class="cls-72" points="32.46 364.36 47.23 378.1 47.23 350.62 32.46 364.36"/><polygon class="cls-72" points="85.61 364.36 70.83 350.62 70.83 378.1 85.61 364.36"/></g></g><g class="cls-68"><g class="cls-73"><line class="cls-74" x1="41.49" y1="522.69" x2="76.58" y2="522.69"/><line class="cls-74" x1="41.49" y1="528.17" x2="76.58" y2="528.17"/><polygon class="cls-75" points="32.46 525.43 47.37 539.29 47.37 511.57 32.46 525.43"/><polygon class="cls-75" points="85.61 525.43 70.69 511.57 70.69 539.29 85.61 525.43"/></g></g><g class="cls-50"><g class="cls-76"><rect class="cls-52" x="32.46" y="446.71" width="53.15" height="25.45"/></g></g><g class="cls-50"><g class="cls-77"><line class="cls-78" x1="980.67" y1="242.76" x2="822.74" y2="264.58"/><line class="cls-79" x1="780.45" y1="259.03" x2="515.06" y2="187.42"/><path class="cls-80" d="M501.09,183.65h0m307.29,82.92h0m201-27.78h0"/><polygon class="cls-72" points="1023.27 236.87 998.4 219.43 1004.07 260.41 1023.27 236.87"/><polygon class="cls-72" points="487.56 180 503.65 205.77 514.43 165.82 487.56 180"/></g></g><g class="cls-68"><g class="cls-81"><line class="cls-82" x1="676.77" y1="291.4" x2="580.35" y2="572.07"/><path class="cls-80" d="M575.28,586.84h0m111.64-325h0"/><polygon class="cls-72" points="691.48 248.6 664.69 262.92 703.81 276.36 691.48 248.6"/><polygon class="cls-72" points="570.72 600.1 597.51 585.77 558.39 572.33 570.72 600.1"/></g></g><g class="cls-68"><g class="cls-83"><line class="cls-74" x1="766.85" y1="213.46" x2="737.8" y2="292.96"/><line class="cls-74" x1="761.7" y1="211.58" x2="732.65" y2="291.08"/><polygon class="cls-75" points="767.37 204.04 749.23 213.29 775.28 222.81 767.37 204.04"/><polygon class="cls-75" points="732.13 300.5 750.27 291.26 724.22 281.74 732.13 300.5"/></g></g></g><text class="cls-84" transform="translate(97.65 264)">P<tspan class="cls-85" x="15.77" y="0">r</tspan><tspan class="cls-86" x="25.56" y="0">é</tspan><tspan class="cls-87" x="39" y="0">s</tspan><tspan class="cls-88" x="51.36" y="0">e</tspan><tspan class="cls-89" x="64.85" y="0">r</tspan><tspan class="cls-90" x="75.22" y="0">v</tspan><tspan class="cls-91" x="87.72" y="0">a</tspan><tspan x="101.25" y="0">tion du </tspan><tspan class="cls-92" x="187.39" y="0">p</tspan><tspan class="cls-91" x="202.08" y="0">a</tspan><tspan x="215.61" y="0">trimoine </tspan></text><text class="cls-84" transform="translate(97.65 288)"><tspan class="cls-93">e</tspan><tspan x="12.74" y="0">xi</tspan><tspan class="cls-94" x="33.36" y="0">s</tspan><tspan class="cls-95" x="45.89" y="0">t</tspan><tspan x="55.49" y="0">a</tspan><tspan class="cls-96" x="69.24" y="0">n</tspan><tspan x="83.62" y="0">t</tspan></text><text class="cls-97" transform="translate(97.65 312)">Arb<tspan class="cls-98" x="35.38" y="0">r</tspan><tspan class="cls-99" x="43.05" y="0">es habi</tspan><tspan class="cls-100" x="114.95" y="0">t</tspan><tspan class="cls-101" x="122.52" y="0">a</tspan><tspan class="cls-102" x="134.31" y="0">t</tspan><tspan class="cls-99" x="141.9" y="0">s conse</tspan><tspan class="cls-103" x="217.95" y="0">r</tspan><tspan class="cls-104" x="226.24" y="0">v</tspan><tspan x="236.45" y="0">és </tspan><tspan class="cls-105" x="264.99" y="0">(</tspan><tspan x="271.23" y="0">9 sur 3</tspan><tspan class="cls-106" x="339.39" y="0">4</tspan><tspan x="351.99" y="0">) </tspan></text><text class="cls-97" transform="translate(97.65 336)">sous <tspan class="cls-98" x="52.58" y="0">r</tspan><tspan class="cls-99" x="60.26" y="0">ése</tspan><tspan class="cls-103" x="94.71" y="0">r</tspan><tspan class="cls-104" x="103" y="0">v</tspan><tspan class="cls-107" x="113.21" y="0">e du parking sou</tspan><tspan class="cls-108" x="278.36" y="0">t</tspan><tspan class="cls-107" x="285.89" y="0">er</tspan><tspan class="cls-109" x="305.47" y="0">r</tspan><tspan class="cls-107" x="313.1" y="0">ain</tspan></text><text class="cls-97" transform="translate(97.65 360)"><tspan class="cls-110">C</tspan><tspan class="cls-107" x="15.64" y="0">o</tspan><tspan class="cls-101" x="27.85" y="0">n</tspan><tspan class="cls-99" x="40.59" y="0">ne</tspan><tspan class="cls-101" x="65.12" y="0">c</tspan><tspan x="76.65" y="0">tivi</tspan><tspan class="cls-106" x="106.02" y="0">t</tspan><tspan x="113.54" y="0">é biologiques à l</tspan><tspan class="cls-111" x="275.06" y="0">’</tspan><tspan x="279.02" y="0">échelle </tspan></text><text class="cls-97" transform="translate(97.65 384.01)">du <tspan class="cls-112" x="31.39" y="0">t</tspan><tspan class="cls-107" x="38.94" y="0">erri</tspan><tspan class="cls-112" x="72.05" y="0">t</tspan><tspan class="cls-99" x="79.59" y="0">oi</tspan><tspan class="cls-113" x="97.5" y="0">r</tspan><tspan class="cls-99" x="105.16" y="0">e</tspan></text><text class="cls-84" transform="translate(97.65 432)"><tspan class="cls-114">V</tspan><tspan x="15.48" y="0">alori</tspan><tspan class="cls-115" x="67.37" y="0">s</tspan><tspan class="cls-116" x="79.82" y="0">a</tspan><tspan x="93.36" y="0">tion de la bi</tspan><tspan class="cls-87" x="227.35" y="0">o</tspan><tspan x="241.32" y="0">di</tspan><tspan class="cls-117" x="263.16" y="0">v</tspan><tspan class="cls-88" x="275.56" y="0">e</tspan><tspan class="cls-118" x="289.05" y="0">r</tspan><tspan class="cls-88" x="298.92" y="0">si</tspan><tspan class="cls-119" x="318.24" y="0">t</tspan><tspan class="cls-88" x="327.64" y="0">é</tspan></text><text class="cls-97" transform="translate(97.65 456)">Su<tspan class="cls-120" x="26.22" y="0">r</tspan><tspan class="cls-106" x="34.56" y="0">f</tspan><tspan class="cls-121" x="41.91" y="0">a</tspan><tspan x="53.68" y="0">ces esp</tspan><tspan class="cls-102" x="129.31" y="0">a</tspan><tspan x="141.06" y="0">ces </tspan><tspan class="cls-104" x="181.17" y="0">v</tspan><tspan x="191.37" y="0">e</tspan><tspan class="cls-122" x="203.12" y="0">r</tspan><tspan class="cls-121" x="211.33" y="0">t</tspan><tspan class="cls-99" x="218.94" y="0">s</tspan></text><text class="cls-97" transform="translate(97.65 480)"><tspan class="cls-123">(</tspan><tspan class="cls-99" x="5.9" y="0">su</tspan><tspan class="cls-124" x="29.48" y="0">r</tspan><tspan class="cls-125" x="37.82" y="0">f</tspan><tspan class="cls-126" x="45.14" y="0">a</tspan><tspan class="cls-107" x="56.91" y="0">ce insu</tspan><tspan class="cls-127" x="128.13" y="0">f</tspan><tspan class="cls-99" x="136.11" y="0">ﬁsa</tspan><tspan class="cls-128" x="172.1" y="0">n</tspan><tspan class="cls-129" x="184.66" y="0">t</tspan><tspan x="192.21" y="0">e pour la </tspan></text><text class="cls-97" transform="translate(97.65 504)">biodi<tspan class="cls-104" x="49.48" y="0">v</tspan><tspan class="cls-99" x="59.68" y="0">e</tspan><tspan class="cls-121" x="71.43" y="0">r</tspan><tspan x="79.2" y="0">si</tspan><tspan class="cls-106" x="95.85" y="0">t</tspan><tspan class="cls-130" x="103.38" y="0">é</tspan><tspan x="114.27" y="0">)</tspan></text><text class="cls-97" transform="translate(97.65 528.01)"><tspan class="cls-110">C</tspan><tspan class="cls-107" x="15.64" y="0">o</tspan><tspan class="cls-101" x="27.85" y="0">n</tspan><tspan class="cls-99" x="40.59" y="0">ne</tspan><tspan class="cls-101" x="65.12" y="0">c</tspan><tspan x="76.65" y="0">tivi</tspan><tspan class="cls-106" x="106.02" y="0">t</tspan><tspan x="113.54" y="0">é biologique à l</tspan><tspan class="cls-111" x="264.11" y="0">’</tspan><tspan x="268.07" y="0">échelle </tspan></text><text class="cls-97" transform="translate(97.65 552.01)">du p<tspan class="cls-106" x="44.22" y="0">r</tspan><tspan class="cls-99" x="51.9" y="0">oj</tspan><tspan class="cls-101" x="69.72" y="0">e</tspan><tspan x="81.42" y="0">t</tspan></text><text class="cls-84" transform="translate(97.65 600)">Nui<tspan class="cls-131" x="39.84" y="0">s</tspan><tspan x="52.32" y="0">an</tspan><tspan class="cls-132" x="80.69" y="0">c</tspan><tspan class="cls-86" x="94.2" y="0">e</tspan><tspan x="107.64" y="0">s </tspan><tspan class="cls-87" x="125.81" y="0">s</tspan><tspan x="138.17" y="0">ono</tspan><tspan class="cls-119" x="180.48" y="0">r</tspan><tspan class="cls-133" x="190.27" y="0">e</tspan><tspan x="203.71" y="0">s</tspan></text><text class="cls-134" transform="translate(313.55 600)"> </text><text class="cls-97" transform="translate(97.65 624)"><tspan class="cls-109">F</tspan><tspan class="cls-121" x="12.56" y="0">a</tspan><tspan x="24.33" y="0">ç</tspan><tspan class="cls-102" x="35.9" y="0">a</tspan><tspan x="47.65" y="0">des p</tspan><tspan class="cls-125" x="101.95" y="0">r</tspan><tspan class="cls-135" x="109.6" y="0">o</tspan><tspan class="cls-106" x="121.79" y="0">t</tspan><tspan class="cls-99" x="129.31" y="0">é</tspan><tspan class="cls-136" x="141.06" y="0">g</tspan><tspan x="152.46" y="0">és des nuisances </tspan></text><text class="cls-97" transform="translate(97.65 648)">sono<tspan class="cls-106" x="48.16" y="0">r</tspan><tspan x="55.83" y="0">es </tspan><tspan class="cls-137" x="84.37" y="0">(</tspan><tspan x="90.24" y="0">e</tspan><tspan class="cls-138" x="101.99" y="0">n</tspan><tspan class="cls-139" x="114.6" y="0">v</tspan><tspan x="123.81" y="0">. 194m/l) </tspan></text><text class="cls-97" transform="translate(97.65 672)"><tspan class="cls-109">F</tspan><tspan class="cls-121" x="12.56" y="0">a</tspan><tspan x="24.33" y="0">ç</tspan><tspan class="cls-102" x="35.9" y="0">a</tspan><tspan x="47.65" y="0">des </tspan><tspan class="cls-140" x="89.12" y="0">e</tspan><tspan x="100.54" y="0">xposés aux nuisances </tspan></text><text class="cls-97" transform="translate(97.65 696.01)">sono<tspan class="cls-106" x="48.16" y="0">r</tspan><tspan x="55.83" y="0">es </tspan><tspan class="cls-137" x="84.37" y="0">(</tspan><tspan x="90.24" y="0">e</tspan><tspan class="cls-138" x="101.99" y="0">n</tspan><tspan class="cls-139" x="114.6" y="0">v</tspan><tspan x="123.81" y="0">. 480m/l)</tspan></text><text class="cls-97" transform="translate(97.65 720.01)"><tspan class="cls-141">R</tspan><tspan class="cls-142" x="14.12" y="0">é</tspan><tspan class="cls-102" x="25.76" y="0">v</tspan><tspan class="cls-99" x="35.97" y="0">erbé</tspan><tspan class="cls-109" x="80.23" y="0">r</tspan><tspan class="cls-143" x="87.87" y="0">a</tspan><tspan x="99.66" y="0">tion sur les </tspan><tspan class="cls-138" x="215.55" y="0">f</tspan><tspan class="cls-102" x="222.88" y="0">a</tspan><tspan x="234.63" y="0">ç</tspan><tspan class="cls-121" x="246.2" y="0">a</tspan><tspan x="257.97" y="0">des</tspan></text><line class="cls-144" x1="840.19" y1="295.45" x2="879.52" y2="287.49"/><line class="cls-145" x1="897.08" y1="309.06" x2="912.66" y2="393.81"/><line class="cls-146" x1="896.74" y1="409.73" x2="887.67" y2="411.63"/><line class="cls-147" x1="875.06" y1="394.7" x2="873.28" y2="385.29"/><path class="cls-66" d="M871.51,375.87h0m7.09,37.66h0m36.29-7.61h0M892.63,284.84h0M814,300.76h0"/><line class="cls-148" x1="838.49" y1="402.02" x2="840.41" y2="411.34"/><line class="cls-149" x1="815.82" y1="425.66" x2="776.06" y2="433.15"/><path class="cls-66" d="M762.8,435.64h0m79.52-15h0m-7.66-37.27h0"/><line class="cls-150" x1="791.44" y1="481.37" x2="801.93" y2="484.47"/><line class="cls-151" x1="806.89" y1="506.13" x2="804.12" y2="515.41"/><line class="cls-152" x1="767.91" y1="515.06" x2="784.63" y2="519.87"/><line class="cls-153" x1="745.16" y1="519.24" x2="688.29" y2="529.69"/><line class="cls-154" x1="670.2" y1="553.78" x2="660.14" y2="586.78"/><line class="cls-155" x1="638.61" y1="592.28" x2="629.52" y2="589.53"/><line class="cls-156" x1="626.97" y1="564.73" x2="643.31" y2="509.63"/><path class="cls-66" d="M646.58,498.61h0m-26.15,88.16h0m36.36,11h0m20.12-66h0m91-16.72h0m33.44,9.63h0m11.07-37.13h0m-42-12.37h0"/><line class="cls-157" x1="822.76" y1="606.26" x2="760.75" y2="587.66"/><line class="cls-158" x1="742.75" y1="602.79" x2="739.95" y2="612.21"/><line class="cls-159" x1="761.73" y1="628.94" x2="847.74" y2="654.51"/><line class="cls-160" x1="878.65" y1="638.04" x2="906.57" y2="607.85"/><line class="cls-161" x1="923.1" y1="573.71" x2="933.95" y2="537.58"/><line class="cls-162" x1="919.07" y1="519.85" x2="909.82" y2="517.01"/><line class="cls-163" x1="894.33" y1="535.25" x2="884.98" y2="566.88"/><path class="cls-66" d="M881.86,577.42h0m18.71-63.25h0m37,11.37h0m-21.7,72.25h0M860,658.17h0M737.16,621.64h0m11.19-37.7h0m99.21,29.76h0"/><path class="cls-67" d="M877.58,576.07l5.83,5.48M874.79,579l5.82,5.48M872,582l5.82,5.48M869.2,585l5.83,5.49m-8.62-2.52,5.83,5.49m-8.62-2.52,5.82,5.48m-8.62-2.51,5.83,5.48M858,596.85l5.83,5.48m-8.62-2.52,5.82,5.48m-8.61-2.51,5.82,5.48m-8.62-2.51,5.83,5.48m-8.62-2.52,5.83,5.49"/><path class="cls-67" d="M764.72,472.15l1.5,7.86m-5.56-7.09,1.5,7.86m-5.57-7.08,1.5,7.86m-5.56-7.09,1.5,7.86m-5.56-7.08,1.5,7.86M744.41,476l1.49,7.86m-5.56-7.08,1.5,7.85m-5.56-7.08,1.5,7.86m-5.56-7.08,1.5,7.85m-5.57-7.08,1.5,7.86m-5.56-7.09,1.5,7.86M720,480.67l1.5,7.86M716,481.44l1.49,7.86m-5.56-7.08,1.5,7.86M707.84,483l1.5,7.86m-5.56-7.08,1.5,7.86m-5.56-7.09,1.49,7.86m-5.56-7.08,1.5,7.86m-5.56-7.09,1.5,7.86m-5.56-7.09,1.5,7.86m-5.57-7.08,1.5,7.86m-5.56-7.08,1.5,7.85m-5.56-7.08,1.5,7.86M671.28,490l1.49,7.86m-5.56-7.08,1.5,7.86m-5.56-7.09,1.5,7.86m-5.56-7.08,1.5,7.86M655,493.06l1.5,7.86M651,493.84l1.5,7.85"/><path class="cls-67" d="M766.6,433.26l-7.87,1.47m7.13-5.41L758,430.8m7.12-5.42-7.86,1.48m7.12-5.41-7.86,1.47m7.13-5.41L755.78,419m7.13-5.41L755,415m7.13-5.41-7.86,1.48m7.12-5.42-7.86,1.48m7.12-5.41-7.86,1.47m7.13-5.41-7.87,1.47m7.13-5.41-7.86,1.47m7.12-5.41-7.86,1.48m7.12-5.41-7.86,1.47m7.12-5.41-7.86,1.47m7.13-5.41-7.87,1.47m7.13-5.41-7.86,1.48m7.12-5.41-7.86,1.47m7.12-5.41-7.86,1.47m7.13-5.41-7.87,1.47m7.13-5.41-7.87,1.48m7.13-5.42L744,356m7.12-5.41L743.24,352m7.12-5.41-7.86,1.47m7.13-5.41-7.87,1.47m7.13-5.41L741,340.23m7.13-5.42-7.86,1.48m7.12-5.41-7.86,1.47m7.12-5.41-7.86,1.47m7.13-5.41-7.87,1.47m7.13-5.41-7.86,1.48m7.12-5.42-7.86,1.48m7,1.35-1.47-7.86m5.41,7.13-1.47-7.87m5.41,7.13L750,308.62m5.41,7.12-1.48-7.86m5.41,7.13-1.47-7.87m5.41,7.13-1.47-7.87m5.41,7.13-1.47-7.86m5.41,7.12-1.47-7.86m5.41,7.13-1.48-7.87m.2,4.83,7.84-1.61m-7,5.53,7.84-1.6m-7,5.53,7.84-1.61m-7,5.53,7.84-1.61m-7,5.54,7.84-1.61m-7,5.53,7.83-1.61m-7,5.54,7.84-1.61m-7,5.53,7.83-1.61m-7,5.54,7.84-1.61m-7,5.53,7.83-1.61m-7,5.54,7.84-1.61m-7,5.53,7.84-1.61m-7,5.53,7.84-1.6m-7,5.53,7.84-1.61m-7,5.53,7.84-1.6m-7,5.53,7.84-1.61m-7,5.53,7.83-1.6m-7,5.53,7.84-1.61m-7,5.53,7.83-1.6m-7,5.53L797,382m-7,5.53,7.83-1.6m-7,5.53,7.84-1.61m.49,4.38-1.34-7.88m5.29,7.21-1.34-7.88m5.29,7.21L805.61,385m5.29,7.22-1.34-7.89m5.29,7.21-1.34-7.88m5.29,7.21L817.45,383m5.3,7.21-1.35-7.89m5.3,7.22-1.35-7.89m5.3,7.22L829.3,381m5.3,7.21-1.35-7.88"/><path class="cls-67" d="M874.45,370.42l-7.86,1.5m7.11-5.45L865.84,368m7.1-5.45-7.86,1.5m7.11-5.45-7.86,1.49m7.11-5.45-7.86,1.5m7.1-5.46-7.86,1.5m7.11-5.45-7.86,1.49m7.11-5.45-7.86,1.5m7.1-5.45-7.86,1.49m7.11-5.45-7.86,1.5m7.11-5.46-7.86,1.5m.29-5.52,1.6,7.84m-5.54-7,1.6,7.84m-5.55-7,1.6,7.84m-5.55-7,1.6,7.84m-5.54-7,1.6,7.83m-5.55-7,1.6,7.84m-5.54-7,1.6,7.84m-5.55-7,1.6,7.84m-5.54-7,1.6,7.83m-5.55-7,1.6,7.84m0-5.22-7.83,1.64m7-5.58-7.83,1.64m7-5.58L816,330.47m7-5.58-7.84,1.63m7-5.57-7.83,1.63m7-5.57-7.83,1.63m7-5.58-7.83,1.64m7-5.58-7.83,1.64m7-5.58L811,306.82m7-5.58-7.83,1.63"/><polyline class="cls-164" points="958.68 442.77 842.32 419.53 868.22 385.4"/><polygon points="871.37 381.26 860.67 383.12 872.45 392.07 871.37 381.26"/><polyline class="cls-164" points="963.21 469.13 806.74 506.27 880.78 560.45"/><polygon points="884.98 563.53 882.92 552.86 874.19 564.8 884.98 563.53"/><polyline class="cls-164" points="666.71 630.99 744.38 521.61 810.6 599.26"/><polygon points="813.98 603.21 814.44 592.36 803.18 601.96 813.98 603.21"/><text class="cls-165" transform="translate(1004.87 288)"><tspan class="cls-166">V</tspan><tspan x="11.58" y="0">e</tspan><tspan class="cls-167" x="22.26" y="0">r</tspan><tspan x="29.32" y="0">s le corridor </tspan></text><text class="cls-165" transform="translate(1014.53 312)">du c<tspan class="cls-168" x="39.06" y="0">o</tspan><tspan class="cls-169" x="50.12" y="0">t</tspan><tspan class="cls-170" x="56.96" y="0">eau de </tspan></text><text class="cls-165" transform="translate(1046.69 336)"><tspan class="cls-171">L</tspan><tspan class="cls-172" x="10.98" y="0">an</tspan><tspan class="cls-173" x="33.36" y="0">c</tspan><tspan x="43.8" y="0">y</tspan></text><text class="cls-165" transform="translate(463.47 240)"><tspan class="cls-174">V</tspan><tspan class="cls-175" x="11.94" y="0">e</tspan><tspan class="cls-176" x="22.96" y="0">r</tspan><tspan class="cls-175" x="30.34" y="0">s</tspan><tspan class="cls-177" x="40.64" y="0"> </tspan><tspan class="cls-178" x="46.82" y="0">l</tspan><tspan class="cls-175" x="52.52" y="0">e</tspan><tspan class="cls-177" x="63.54" y="0"> </tspan><tspan class="cls-179" x="69.72" y="0">corri</tspan><tspan class="cls-178" x="112.46" y="0">d</tspan><tspan class="cls-179" x="124.54" y="0">o</tspan><tspan x="135.98" y="0">r </tspan></text><text class="cls-165" transform="translate(494.55 264)">du <tspan class="cls-166" x="28.54" y="0">V</tspan><tspan class="cls-172" x="40.12" y="0">oi</tspan><tspan class="cls-8" x="56.4" y="0">r</tspan><tspan class="cls-180" x="63.38" y="0">e</tspan><tspan x="74.04" y="0">t</tspan></text><line class="cls-164" x1="32.46" y1="717.2" x2="80.4" y2="717.2"/><polygon points="85.61 717.2 77.65 709.8 77.65 724.59 85.61 717.2"/><g class="cls-17"><g class="cls-53"><g class="cls-181"><polygon class="cls-182" points="674.48 360.85 727.31 378.82 708.66 435.83 655.8 417.54 674.48 360.85"/></g></g><path class="cls-183" d="M693.09,378.05,694,404.9m-16.26,13L689.33,380q3.43-3.26,7.94-.4l8.88,39.13"/></g><polygon class="cls-184" points="690 412.23 696.57 412.46 696.51 414.01 690.58 414.57 690 412.23"/><g class="cls-17"><path class="cls-184" d="M697.39,399.16h0a2.12,2.12,0,1,0,2,2.19,2.11,2.11,0,0,0-2-2.19"/><path class="cls-184" d="M698.28,404.91a1.64,1.64,0,0,0-1.71-1.09,2.12,2.12,0,0,0-1.33,1.48v.05a3.33,3.33,0,0,1-3.76-.76l-.15-.09-.17,0-.16,0-.17,0-.16,0-.14.09-.14.1-.1.14-.09.14-.05.17,0,.17,0,.17,0,.17.08.16.08.15.13.11-.12-.13a5.47,5.47,0,0,0,3.44,1.52,3.58,3.58,0,0,0,.8,0l0,0a12.38,12.38,0,0,1-.88,2q-4.44-.79-8.13,3.19l-.06.18v.37l0,.19,0,.18.09.16.09.16.14.13.13.13.17.08.16.09.18,0,.18,0,.18,0,.18,0,.17-.07,1-1,.39-.35.6-.37.84-.41.57-.22.52-.16.68-.09h.9l1,.1a4.64,4.64,0,0,0,2,.07,3.66,3.66,0,0,0,1.4-1.85q1.74-3.37,1.14-5.17"/><g class="cls-25"><g class="cls-185"><polygon points="425.55 803.05 447.17 744.78 431.57 738.99 451.42 683.86 521.58 709.37 502.8 762.87 492.17 760.13 476.93 803.05 425.55 803.05"/></g></g><g class="cls-25"><g class="cls-186"><polygon points="611.4 803.05 612.68 798.95 607.32 797.19 623.62 740.98 720 769.61 710.08 803.05 611.4 803.05"/></g></g><g class="cls-25"><g class="cls-187"><polygon points="795.83 803.05 843.73 803.05 798.1 792.85 795.83 803.05"/></g></g><g class="cls-18"><g class="cls-188"><polygon class="cls-49" points="557.01 726.49 608.74 742.39 604.21 756.99 584.22 751.47 570.12 803.05 536.1 803.05 541.98 786.5 559.79 790.13 573.31 748.21 552.47 741.68 557.01 726.49"/></g></g><g class="cls-18"><g class="cls-189"><polygon class="cls-49" points="422.78 664.08 425.55 666.14 422.78 673.23 436.54 679.04 426.05 707 422.78 706.56 422.78 664.08"/></g></g><g class="cls-18"><g class="cls-190"><polygon class="cls-49" points="724.61 803.05 780.24 803.05 784.96 775.27 735.02 764.77 724.61 803.05"/></g></g><g class="cls-18"><g class="cls-191"><polygon class="cls-49" points="663.66 707 668.98 672.38 914.46 740.98 912.75 749.48 663.66 707"/></g></g><g class="cls-18"><g class="cls-192"><polygon class="cls-49" points="640.63 658.37 627.16 700.16 422.63 624.68 422.13 595.27 640.63 658.37"/></g></g></g></g></g></g></g></svg>