<svg xmlns="http://www.w3.org/2000/svg" xmlns:xlink="http://www.w3.org/1999/xlink" viewBox="0 0 1190.55 841.89"><defs><style>.cls-1,.cls-101,.cls-102,.cls-103,.cls-104,.cls-105,.cls-106,.cls-107,.cls-110,.cls-127,.cls-128,.cls-129,.cls-13,.cls-152,.cls-153,.cls-154,.cls-155,.cls-26,.cls-32,.cls-36,.cls-37,.cls-38,.cls-39,.cls-40,.cls-41,.cls-42,.cls-43,.cls-44,.cls-45,.cls-46,.cls-47,.cls-48,.cls-49,.cls-50,.cls-51,.cls-52,.cls-53,.cls-54,.cls-57,.cls-63,.cls-64,.cls-65,.cls-66,.cls-67,.cls-68,.cls-69,.cls-73,.cls-74,.cls-75,.cls-76,.cls-77,.cls-78,.cls-79,.cls-80,.cls-81,.cls-82,.cls-85,.cls-87,.cls-88,.cls-91,.cls-93,.cls-94,.cls-95,.cls-96,.cls-97,.cls-98,.cls-99{fill:none;}.cls-2{isolation:isolate;}.cls-3{clip-path:url(#clip-path);}.cls-4{clip-path:url(#clip-path-3);}.cls-5{opacity:0.5;}.cls-6{clip-path:url(#clip-path-4);}.cls-7{fill:#5c782a;}.cls-8{clip-path:url(#clip-path-5);}.cls-9{clip-path:url(#clip-path-6);}.cls-10{clip-path:url(#clip-path-7);}.cls-11{opacity:0.6;}.cls-12{clip-path:url(#clip-path-8);}.cls-13,.cls-36,.cls-37,.cls-38,.cls-39,.cls-40,.cls-41,.cls-42,.cls-43,.cls-44,.cls-45,.cls-46,.cls-47,.cls-48,.cls-49,.cls-50,.cls-51,.cls-52,.cls-53,.cls-54{stroke:#cd1719;}.cls-13{stroke-width:5px;}.cls-14{clip-path:url(#clip-path-9);}.cls-15{opacity:0.2;}.cls-16{clip-path:url(#clip-path-10);}.cls-17{clip-path:url(#clip-path-11);}.cls-18{clip-path:url(#clip-path-12);}.cls-19{clip-path:url(#clip-path-13);}.cls-20{clip-path:url(#clip-path-14);}.cls-21{clip-path:url(#clip-path-15);}.cls-22{clip-path:url(#clip-path-16);}.cls-23{clip-path:url(#clip-path-17);}.cls-24{opacity:0.4;mix-blend-mode:multiply;}.cls-25{clip-path:url(#clip-path-18);}.cls-26,.cls-85,.cls-87,.cls-88,.cls-91{stroke:#5baf31;}.cls-26,.cls-85{stroke-width:20px;}.cls-26{stroke-dasharray:12.4 12.4;}.cls-27{fill:#5baf31;}.cls-28{clip-path:url(#clip-path-19);}.cls-29{clip-path:url(#clip-path-20);}.cls-30{clip-path:url(#clip-path-21);}.cls-31{clip-path:url(#clip-path-22);}.cls-101,.cls-102,.cls-103,.cls-104,.cls-105,.cls-106,.cls-107,.cls-32,.cls-63,.cls-64,.cls-65,.cls-66,.cls-67,.cls-68,.cls-69,.cls-73,.cls-74,.cls-75,.cls-76,.cls-77,.cls-78,.cls-79,.cls-80,.cls-81,.cls-82,.cls-93,.cls-94,.cls-95,.cls-96,.cls-97,.cls-98,.cls-99{stroke:#000;}.cls-32{stroke-width:0.33px;}.cls-33{clip-path:url(#clip-path-23);}.cls-34{clip-path:url(#clip-path-24);}.cls-35{clip-path:url(#clip-path-25);}.cls-101,.cls-102,.cls-103,.cls-104,.cls-105,.cls-106,.cls-107,.cls-127,.cls-128,.cls-129,.cls-152,.cls-153,.cls-154,.cls-155,.cls-36,.cls-37,.cls-38,.cls-39,.cls-40,.cls-41,.cls-42,.cls-43,.cls-44,.cls-45,.cls-46,.cls-47,.cls-48,.cls-49,.cls-50,.cls-51,.cls-52,.cls-53,.cls-54,.cls-63,.cls-64,.cls-65,.cls-66,.cls-67,.cls-68,.cls-69,.cls-73,.cls-74,.cls-75,.cls-76,.cls-77,.cls-78,.cls-79,.cls-80,.cls-81,.cls-82,.cls-93,.cls-94,.cls-95,.cls-96,.cls-97,.cls-98,.cls-99{stroke-linecap:round;stroke-linejoin:round;}.cls-36{stroke-dasharray:0 1.99;}.cls-37{stroke-dasharray:0 1.99;}.cls-38{stroke-dasharray:0 2.13;}.cls-39{stroke-dasharray:0 2.08;}.cls-40{stroke-dasharray:0 2;}.cls-41{stroke-dasharray:0 2.03;}.cls-42{stroke-dasharray:0 2.01;}.cls-43{stroke-dasharray:0 1.88;}.cls-44{stroke-dasharray:0 2.1;}.cls-45{stroke-dasharray:0 1.92;}.cls-46{stroke-dasharray:0 2.41;}.cls-47{stroke-dasharray:0 2.04;}.cls-48{stroke-dasharray:0 2.03;}.cls-49{stroke-dasharray:0 2.01;}.cls-50{stroke-dasharray:0 2;}.cls-51{stroke-dasharray:0 1.99;}.cls-52{stroke-dasharray:0 1.99;}.cls-53{stroke-dasharray:0 1.99;}.cls-55{opacity:0.9;}.cls-56{clip-path:url(#clip-path-27);}.cls-127,.cls-128,.cls-129,.cls-152,.cls-153,.cls-154,.cls-155,.cls-57{stroke:#ffcf1b;}.cls-57{stroke-width:1.87px;}.cls-58{fill:#ffcf1b;}.cls-59{clip-path:url(#clip-path-28);}.cls-60{clip-path:url(#clip-path-29);}.cls-61{clip-path:url(#clip-path-30);}.cls-62{clip-path:url(#clip-path-31);}.cls-101,.cls-102,.cls-103,.cls-104,.cls-105,.cls-106,.cls-107,.cls-127,.cls-128,.cls-129,.cls-152,.cls-153,.cls-154,.cls-155,.cls-63,.cls-64,.cls-65,.cls-66,.cls-67,.cls-68,.cls-69,.cls-73,.cls-74,.cls-75,.cls-76,.cls-77,.cls-78,.cls-79,.cls-80,.cls-81,.cls-82,.cls-93,.cls-94,.cls-95,.cls-96,.cls-97,.cls-98,.cls-99{stroke-width:3px;}.cls-63{stroke-dasharray:0 5.87;}.cls-64{stroke-dasharray:0 6.05;}.cls-65{stroke-dasharray:0 5.97;}.cls-66{stroke-dasharray:0 5.87;}.cls-67{stroke-dasharray:0 6.18;}.cls-68{stroke-dasharray:0 6.95;}.cls-70{clip-path:url(#clip-path-32);}.cls-71{clip-path:url(#clip-path-33);}.cls-72{clip-path:url(#clip-path-34);}.cls-73{stroke-dasharray:0 5.92;}.cls-74{stroke-dasharray:0 5.85;}.cls-75{stroke-dasharray:0 6.02;}.cls-76{stroke-dasharray:0 5.86;}.cls-77{stroke-dasharray:0 5.86;}.cls-78{stroke-dasharray:0 6.06;}.cls-79{stroke-dasharray:0 5.82;}.cls-80{stroke-dasharray:0 5.9;}.cls-81{stroke-dasharray:0 5.87;}.cls-82{stroke-dasharray:0 5.85;}.cls-83{opacity:0.3;}.cls-84{clip-path:url(#clip-path-35);}.cls-86{fill:#fff;}.cls-88{stroke-miterlimit:10;}.cls-89{clip-path:url(#clip-path-37);}.cls-90{clip-path:url(#clip-path-38);}.cls-91{stroke-width:10px;stroke-dasharray:12.39 12.39;}.cls-92{clip-path:url(#clip-path-39);}.cls-93{stroke-dasharray:0 5.7;}.cls-94{stroke-dasharray:0 5.53;}.cls-95{stroke-dasharray:0 6.02;}.cls-96{stroke-dasharray:0 6.31;}.cls-97{stroke-dasharray:0 6.14;}.cls-98{stroke-dasharray:0 5.29;}.cls-99{stroke-dasharray:0 6.31;}.cls-100{clip-path:url(#clip-path-40);}.cls-101{stroke-dasharray:0 5.69;}.cls-102{stroke-dasharray:0 5.46;}.cls-103{stroke-dasharray:0 6.07;}.cls-104{stroke-dasharray:0 5.69;}.cls-105{stroke-dasharray:0 6.07;}.cls-106{stroke-dasharray:0 5.56;}.cls-107{stroke-dasharray:0 5.7;}.cls-108{clip-path:url(#clip-path-41);}.cls-109{fill:#5ab8b0;}.cls-110{stroke:#588fa5;}.cls-111{fill:#588fa5;}.cls-112{font-size:24px;font-family:GTAmerica-Light, GT America;}.cls-112,.cls-136{font-weight:300;}.cls-113{letter-spacing:-0.01em;}.cls-114{letter-spacing:-0.01em;}.cls-115{letter-spacing:0em;}.cls-116{letter-spacing:-0.01em;}.cls-117{letter-spacing:0em;}.cls-118{letter-spacing:-0.06em;}.cls-119{letter-spacing:-0.01em;}.cls-120{letter-spacing:-0.01em;}.cls-121{letter-spacing:-0.01em;}.cls-122{letter-spacing:0em;}.cls-123{letter-spacing:0em;}.cls-124{letter-spacing:0.02em;}.cls-125{letter-spacing:0.01em;}.cls-126{clip-path:url(#clip-path-44);}.cls-127{stroke-dasharray:0 6.14;}.cls-128{stroke-dasharray:0 6.05;}.cls-130,.cls-136{font-size:30px;}.cls-130{fill:#e5007d;font-family:GTAmerica-Bold, GT America;font-weight:700;}.cls-131{letter-spacing:-0.08em;}.cls-132{letter-spacing:-0.02em;}.cls-133{letter-spacing:-0.02em;}.cls-134{letter-spacing:0em;}.cls-135{letter-spacing:0em;}.cls-136{font-family:GTAmerica-LightItalic, GT America;font-style:italic;}.cls-137{letter-spacing:-0.01em;}.cls-138{letter-spacing:-0.01em;}.cls-139{letter-spacing:0em;}.cls-140{letter-spacing:-0.02em;}.cls-141{letter-spacing:-0.01em;}.cls-142{letter-spacing:0.03em;}.cls-143{letter-spacing:-0.02em;}.cls-144{letter-spacing:-0.01em;}.cls-145{letter-spacing:-0.02em;}.cls-146{letter-spacing:-0.01em;}.cls-147{letter-spacing:-0.01em;}.cls-148{letter-spacing:0em;}.cls-149{letter-spacing:-0.01em;}.cls-150{letter-spacing:-0.01em;}.cls-151{clip-path:url(#clip-path-47);}.cls-152{stroke-dasharray:0 6.01;}.cls-153{stroke-dasharray:0 5.76;}.cls-154{stroke-dasharray:0 6.79;}.cls-155{stroke-dasharray:0 6.24;}</style><clipPath id="clip-path"><rect class="cls-1" width="1190.55" height="841.89"/></clipPath><clipPath id="clip-path-3"><rect class="cls-1" width="1190.55" height="841.89"/></clipPath><clipPath id="clip-path-4"><rect class="cls-1" x="593.01" y="245.29" width="346.89" height="379.69"/></clipPath><clipPath id="clip-path-5"><rect class="cls-1" x="595.49" y="245.17" width="199.28" height="330.98"/></clipPath><clipPath id="clip-path-6"><rect class="cls-1" x="753.93" y="437.78" width="149.11" height="173.72"/></clipPath><clipPath id="clip-path-7"><rect class="cls-1" x="792.54" y="278.46" width="78.9" height="136.48"/></clipPath><clipPath id="clip-path-8"><rect class="cls-1" x="849.27" y="294.22" width="65.1" height="115.49"/></clipPath><clipPath id="clip-path-9"><rect class="cls-1" x="740.35" y="445.78" width="208.37" height="219.46"/></clipPath><clipPath id="clip-path-10"><rect class="cls-1" x="416.55" y="676.86" width="114.02" height="127.2"/></clipPath><clipPath id="clip-path-11"><rect class="cls-1" x="598.32" y="733.98" width="130.68" height="70.08"/></clipPath><clipPath id="clip-path-12"><rect class="cls-1" x="786.83" y="785.85" width="65.9" height="18.21"/></clipPath><clipPath id="clip-path-13"><rect class="cls-1" x="527.1" y="719.49" width="90.64" height="84.56"/></clipPath><clipPath id="clip-path-14"><rect class="cls-1" x="413.78" y="657.08" width="31.76" height="50.92"/></clipPath><clipPath id="clip-path-15"><rect class="cls-1" x="715.61" y="757.77" width="78.35" height="46.28"/></clipPath><clipPath id="clip-path-16"><rect class="cls-1" x="654.66" y="665.38" width="268.8" height="85.1"/></clipPath><clipPath id="clip-path-17"><rect class="cls-1" x="413.13" y="588.28" width="236.5" height="112.88"/></clipPath><clipPath id="clip-path-18"><rect class="cls-1" x="544.88" y="244.11" width="170.76" height="356.98"/></clipPath><clipPath id="clip-path-19"><rect class="cls-1" x="689.63" y="130.28" width="146.41" height="126.97"/></clipPath><clipPath id="clip-path-20"><rect class="cls-1" x="926.16" y="371.61" width="56.98" height="175.67"/></clipPath><clipPath id="clip-path-21"><rect class="cls-1" x="952.94" y="365.23" width="62.51" height="178.08"/></clipPath><clipPath id="clip-path-22"><rect class="cls-1" x="985.83" y="359.28" width="63.07" height="177.8"/></clipPath><clipPath id="clip-path-23"><rect class="cls-1" x="528.31" y="336.31" width="114.38" height="190.83"/></clipPath><clipPath id="clip-path-24"><rect class="cls-1" x="599.75" y="230.58" width="73.28" height="74.33"/></clipPath><clipPath id="clip-path-25"><rect class="cls-1" x="807.53" y="130.73" width="83.2" height="104.1"/></clipPath><clipPath id="clip-path-27"><rect class="cls-1" x="711.64" y="634.06" width="122.19" height="168.5"/></clipPath><clipPath id="clip-path-28"><rect class="cls-1" x="480.35" y="553.97" width="142.76" height="195.35"/></clipPath><clipPath id="clip-path-29"><rect class="cls-1" x="907.23" y="622.54" width="150.54" height="216.71"/></clipPath><clipPath id="clip-path-30"><rect class="cls-1" x="912.35" y="603.06" width="253.33" height="114.07"/></clipPath><clipPath id="clip-path-31"><rect class="cls-1" x="827.65" y="290.19" width="85.63" height="118.32"/></clipPath><clipPath id="clip-path-32"><rect class="cls-1" x="852.97" y="251.65" width="97.35" height="66.07"/></clipPath><clipPath id="clip-path-33"><rect class="cls-1" x="879.21" y="537.1" width="111.64" height="162.11"/></clipPath><clipPath id="clip-path-34"><rect class="cls-1" x="742.02" y="447.48" width="205.62" height="216.48"/></clipPath><clipPath id="clip-path-35"><rect class="cls-1" x="502.7" y="149.03" width="457.04" height="138.89"/></clipPath><clipPath id="clip-path-37"><rect class="cls-1" x="1038.68" y="177.96" width="146.13" height="74.78"/></clipPath><clipPath id="clip-path-38"><rect class="cls-1" x="949.11" y="214.49" width="99.64" height="46.67"/></clipPath><clipPath id="clip-path-39"><rect class="cls-1" x="717.05" y="303.31" width="89.99" height="139.76"/></clipPath><clipPath id="clip-path-40"><rect class="cls-1" x="607.96" y="466.98" width="125.99" height="126.48"/></clipPath><clipPath id="clip-path-41"><rect class="cls-1" x="646.79" y="353.85" width="89.52" height="82.98"/></clipPath><clipPath id="clip-path-44"><rect class="cls-1" x="705.87" y="294.04" width="109.93" height="295.02"/></clipPath><clipPath id="clip-path-47"><rect class="cls-1" x="705.87" y="422.29" width="169.68" height="28"/></clipPath></defs><title>Plan de travail</title><g class="cls-2"><g id="Calque_1" data-name="Calque 1"><g class="cls-3"><g class="cls-3"><g class="cls-4"><g class="cls-5"><g class="cls-6"><path class="cls-7" d="M775.56,376.44l21,7.09-19.28,57-48.21-15,18.45-58.51-20-7.09,15.13-48.19,48.75,15.88ZM723.46,491.7l-16.22,48.58-20.75-6.8L667.08,591l-48.62-16.16,19-57.63,21.12,7,16.19-48.65Zm165.8,22-56-18.74L846.42,456l84.48,28.74-28.07-81.07L861.73,406l-3.85-61.66-19.73-6.74,13.09-38.92,8.56,2.89c-.77-15.89-1.33-26.9-1.33-26.9l-51.66,9.92-95.88-32.32L674.48,360.62l52.89,18.23L708.8,435.69l-53-17.86L602,578.27S748.12,623.79,749.35,624l15.95-47.13L871,611.52l23-28.15Z"/></g></g><g class="cls-5"><g class="cls-8"><path class="cls-7" d="M618.38,575.15l-13.89-4.68L656,417.32,708.72,435l18.42-56.83-53-18.14,36.73-107.89,74.89,25.63-2.55,47.05-40.82-13L727.31,360l20.19,7.37L729.35,425.6l48.19,15S767.48,460.63,758,470.84c-5.78,6.21-34.72,20.83-34.72,20.83L674.5,475.09l-15.92,49.45L637.51,517Z"/></g></g><g class="cls-5"><g class="cls-9"><path class="cls-7" d="M766.77,576.57s-5.1-35.44-3.54-43.94S803.34,447.31,808,445s39.26,11,39.26,11l-12.9,38.78,55.42,18.56,4.25,70L871.68,610.5Z"/></g></g><g class="cls-5"><g class="cls-10"><path class="cls-7" d="M862.44,406.91s-32.4,10.92-41.22,5.53-20.86-119-19.58-122.6,6.94-4.82,9.49-4.25,40.26,12.47,40.26,12.47l-13.47,39.69,21,7.51Z"/></g></g><g class="cls-11"><g class="cls-12"><polyline class="cls-13" points="865.98 303.59 897.05 314.14 902.72 403.54 861.73 406.06 860.77 391.55"/></g></g><g class="cls-11"><g class="cls-14"><polyline class="cls-13" points="833.39 495.01 846.42 455.95 929.62 484.02 937.16 602.14 889.61 661.32 752.49 615.86 755.21 607.35"/></g></g><g class="cls-15"><g class="cls-16"><polygon points="425.55 803.05 447.17 744.78 431.57 738.99 451.42 683.86 521.58 709.37 502.8 762.87 492.17 760.13 476.93 803.05 425.55 803.05"/></g></g><g class="cls-15"><g class="cls-17"><polygon points="611.4 803.05 612.68 798.95 607.32 797.19 623.62 740.98 720 769.61 710.08 803.05 611.4 803.05"/></g></g><g class="cls-15"><g class="cls-18"><polygon points="795.83 803.05 843.73 803.05 798.1 792.85 795.83 803.05"/></g></g><g class="cls-5"><g class="cls-19"><polygon class="cls-7" points="557.01 726.49 608.74 742.39 604.21 756.99 584.22 751.47 570.12 803.05 536.1 803.05 541.98 786.5 559.79 790.13 573.31 748.21 552.47 741.68 557.01 726.49"/></g></g><g class="cls-5"><g class="cls-20"><polygon class="cls-7" points="422.78 664.08 425.55 666.14 422.78 673.23 436.54 679.04 426.05 707 422.78 706.56 422.78 664.08"/></g></g><g class="cls-5"><g class="cls-21"><polygon class="cls-7" points="724.61 803.05 780.24 803.05 784.96 775.27 735.02 764.77 724.61 803.05"/></g></g><g class="cls-5"><g class="cls-22"><polygon class="cls-7" points="663.66 707 668.98 672.38 914.46 740.98 912.75 749.48 663.66 707"/></g></g><g class="cls-5"><g class="cls-23"><polygon class="cls-7" points="640.63 658.37 627.16 700.16 422.63 624.68 422.13 595.27 640.63 658.37"/></g></g><g class="cls-24"><g class="cls-25"><line class="cls-26" x1="686" y1="267.79" x2="574.52" y2="583.42"/><polygon class="cls-27" points="691.89 251.11 659.07 268.3 706.64 285.1 691.89 251.11"/><polygon class="cls-27" points="568.63 600.1 601.45 582.91 553.88 566.11 568.63 600.1"/></g></g><g class="cls-5"><g class="cls-28"><path class="cls-7" d="M819.64,142.91c3.12,3.11,4.58,6,7.09,14.74,1.13,4-.85,18.7-6,28.06-6.29,11.53-13.32,22.39-10.77,28.06,2.47,5.5,11.62,7.37,14.45,17,3.06,10.39.85,17.29-10.48,23.81s-25.55-8-50.14-12.76c-25-4.81-39.16-10.53-51.91-19-14.52-9.68-15.07-19-11.39-31.85s10-22.67,18.19-33.87c4.41-6.06,8.79-14.17,24.38-17.58,19.39-4.23,32.88-1.13,51-1.13s22.4,1.42,25.51,4.54"/></g></g><g class="cls-5"><g class="cls-29"><polygon points="935.16 380.31 942.67 378.61 974.13 546.27 966.76 546.27 935.16 380.31"/></g></g><g class="cls-5"><g class="cls-30"><polygon points="961.94 374.78 974.13 372.23 1006.45 539.75 993.69 542.31 961.94 374.78"/></g></g><g class="cls-5"><g class="cls-31"><polygon points="1026.29 536.07 1039.9 533.8 1008.43 366.28 994.83 368.83 1026.29 536.07"/></g></g><path class="cls-32" d="M941.86,137.75C942.4,141.27,955,224,955,226.53c0,2.3-.62,24.59-1.78,30.39-.44,2.2-2.22,8.68-4.47,16.88-3.58,13-8,29.21-9.42,36.69a63.4,63.4,0,0,0,0,25.68c.29,1.67,3.4,18.33,7.71,41.39,12.76,68.33,36.52,195.5,36.94,200.58l.15,1.77a118.79,118.79,0,0,1,.42,21.38c-.82,10-4.62,27.13-9,36.68-3.5,7.71-20.46,30.22-31.86,38.12-13.59,9.42-28.64,16.18-39.26,17.63-14.11,1.93-29.73,3.27-48.3,0l-13.09-2.25c-18.8-3.2-50.26-8.58-59.48-10.51-12.07-2.52-24.29-6.2-24.41-6.24L422.83,569.52"/><path class="cls-32" d="M941.2,137.85c.14.86,13.11,86.18,13.11,88.68,0,2.87-.67,24.78-1.76,30.26-.44,2.17-2.3,9-4.47,16.83-3.57,13-8,29.24-9.42,36.75a64,64,0,0,0,0,25.91c.3,1.68,3.41,18.34,7.72,41.41,12.76,68.31,36.51,195.46,36.93,200.5l.15,1.78a118.61,118.61,0,0,1,.41,21.27c-.81,10-4.59,27-8.9,36.46-3.48,7.65-20.31,30-31.63,37.84-13.51,9.37-28.45,16.08-39,17.52-14.06,1.93-29.61,3.26-48.09,0-2.27-.4-7-1.21-13.1-2.24-18.79-3.21-50.25-8.58-59.46-10.51-12-2.52-24.23-6.19-24.35-6.23L423,568.88"/><path class="cls-32" d="M953.49,137.75c.1.71,10.78,71,11.62,78,.94,7.81,1.94,27.55,0,37.8-.79,4.14-3.18,12.64-6,22.48-4.23,15-9,32-9.36,38.14-.55,9.95,2.66,31.42,4,37.9.41,2,42.22,219.12,43.09,233.9.69,11.74-.67,30.28-4.55,41.51-4.76,13.79-9.54,23-17.62,34.11-6.72,9.2-25.06,25.54-33.85,30.14-8.62,4.52-26.55,12-40.64,13.93-14.27,2-22.81,1.12-32.7.12-2.25-.23-4.57-.47-7.06-.69-17.68-1.52-53.29-8.09-65.52-10.49-15.71-3.09-368.68-113.17-372.24-114.28"/><path class="cls-32" d="M952.83,137.85c.1.71,10.78,70.94,11.62,77.94.93,7.78,1.93,27.43,0,37.6-.78,4.12-3.28,13-5.94,22.43-4.23,15-9,32.05-9.37,38.28-.56,10,2.66,31.57,4,38.07,2,10.06,42.25,219.66,43.08,233.81.69,11.67-.66,30.1-4.51,41.26-4.74,13.71-9.49,22.91-17.53,33.92-6.67,9.15-24.9,25.38-33.62,30S914.11,703,900.1,705c-14.18,2-22.69,1.12-32.53.11-2.25-.23-4.58-.47-7.08-.68-17.64-1.52-53.22-8.08-65.44-10.48-15.68-3.08-368.61-113.16-372.17-114.27"/><path class="cls-32" d="M955,225.62c.79,4.33,78.69,433,81.14,443.46,2.54,10.87,19.36,45.69,27.31,57.79,7.57,11.52,44.91,80.16,48.58,90.07"/><path class="cls-32" d="M954.32,225.74c.78,4.33,78.69,433,81.14,443.49,2.55,10.92,19.42,45.87,27.4,58,8.47,12.88,45.19,81,48.51,89.93"/><path class="cls-32" d="M966.74,175.69c.78,4.29,77.92,429.69,80.28,436.77.77,2.33,1.21,3.94,1.67,5.64a132,132,0,0,0,5.19,15.32c2.42,6.22,19.44,37.62,35.91,68,15.2,28,29.55,54.51,30.93,58.45"/><path class="cls-32" d="M966.08,175.81c3.18,17.54,77.93,429.74,80.3,436.86.77,2.31,1.21,3.91,1.67,5.6a131,131,0,0,0,5.21,15.39c2.43,6.26,19.47,37.68,35.94,68.06,15.19,28,29.53,54.47,30.89,58.36"/><path class="cls-32" d="M878.65,695.54c6.19.82,151.75,20.26,164.86,25.32,13.76,5.31,32.81,16.42,40,23.32"/><path class="cls-32" d="M878.56,696.2c1.52.2,151.68,20.25,164.71,25.28,13.69,5.28,32.64,16.33,39.77,23.18"/><path class="cls-32" d="M878.58,706.67c6.15.82,150.63,20.17,157.78,23.84,1.68.86,3.83,1.84,6.32,3,8.17,3.71,19.35,8.8,27.2,15.78a97.75,97.75,0,0,1,16.51,19.35"/><path class="cls-32" d="M878.49,707.33c1.51.2,150.52,20.16,157.57,23.78,1.69.87,3.85,1.85,6.34,3,8.13,3.7,19.26,8.77,27,15.68a97,97,0,0,1,16.38,19.2"/><g class="cls-15"><g class="cls-33"><polygon points="593.06 343.31 633.69 355.13 575.11 526.15 537.31 513.96 593.06 343.31"/></g></g><g class="cls-15"><g class="cls-34"><polygon points="631.14 237.58 654.38 245.8 650.13 259.13 664.02 263.94 650.98 303.91 623.77 294.56 625.75 288.04 608.75 282.37 620.43 246.09 628.02 248.07 631.14 237.58"/></g></g><g class="cls-15"><g class="cls-35"><polygon points="867.55 137.73 864.43 151.98 872.16 179.97 881.72 193.08 877.47 199.1 871.09 227.8 842.32 233.83 838.85 227.8 816.53 211.5 824.32 199.46 834.95 143.47 826.45 137.8 867.55 137.73"/></g></g></g><line class="cls-36" x1="712.68" y1="252.95" x2="805.95" y2="284.04"/><line class="cls-37" x1="808.85" y1="283.98" x2="968.34" y2="253.08"/><line class="cls-38" x1="971.35" y1="253.48" x2="978.5" y2="255.57"/><line class="cls-39" x1="980.37" y1="257.77" x2="983.35" y2="264.41"/><line class="cls-40" x1="984.12" y1="267.33" x2="1059.28" y2="691.28"/><line class="cls-41" x1="1057.84" y1="693.5" x2="1047.36" y2="701.56"/><line class="cls-42" x1="1045.2" y1="703.65" x2="1040.44" y2="708.81"/><line class="cls-43" x1="1038.7" y1="711.11" x2="1032.91" y2="719.68"/><line class="cls-44" x1="1032.04" y1="718.39" x2="1030.85" y2="711.15"/><line class="cls-45" x1="1029.53" y1="711.65" x2="1024.32" y2="718.56"/><line class="cls-46" x1="1021.97" y1="720.96" x2="1021.08" y2="721.77"/><line class="cls-47" x1="1018.5" y1="723.72" x2="1015.94" y2="725.43"/><line class="cls-48" x1="1013.09" y1="725.68" x2="974" y2="719.63"/><line class="cls-49" x1="971.07" y1="718.92" x2="592.49" y2="610.05"/><line class="cls-50" x1="592.16" y1="607.87" x2="655.48" y2="418.82"/><line class="cls-51" x1="657.69" y1="418.49" x2="707.59" y2="435.13"/><line class="cls-52" x1="709.15" y1="433.55" x2="726.92" y2="379.69"/><line class="cls-53" x1="725.35" y1="378.1" x2="675.45" y2="360.93"/><line class="cls-50" x1="675.15" y1="358.71" x2="710.48" y2="253.27"/><path class="cls-54" d="M710.79,252.32h0M674.51,360.61h0m52.72,18.14h0m-18.7,56.69h0M655.8,417.87h0m-64.27,191.9h0M973,719.47h0m42.09,6.52h0m5.11-3.4h0m3.54-3.26h0m6.94-9.21h0m1.7,10.34h0m7.37-10.91h0m6.81-7.37h0m12.9-9.92h0m-75.69-426.9h0m-4.25-9.49h0m-10.21-3h0M806.89,284.35h0"/><g class="cls-4"><g class="cls-55"><g class="cls-56"><path class="cls-57" d="M769.72,757.74,760,755.56m10.89-2.87-9.76-2.17M772,747.65l-9.76-2.18m10.88-2.87-9.76-2.18m10.89-2.87-9.76-2.18m10.89-2.87-9.76-2.18m10.88-2.87-9.76-2.18m10.89-2.87-9.76-2.18m10.89-2.86L769,715.18m10.89-2.87-9.76-2.18M781,707.26l-9.76-2.18m10.89-2.87L772.36,700m10.89-2.87L773.49,695m10.88-2.87-9.76-2.18m10.89-2.87-9.76-2.17"/><polygon class="cls-58" points="783.08 674.97 764 688.08 794.77 694.95 783.08 674.97"/><polygon class="cls-58" points="762.38 767.66 781.47 754.55 750.69 747.68 762.38 767.66"/></g></g><g class="cls-55"><g class="cls-59"><path class="cls-57" d="M543.15,697.31l-9.54-3m11.07-1.83-9.54-3m11.07-1.83-9.54-3m11.07-1.84-9.54-3m11.07-1.83-9.54-3m11.07-1.83-9.54-3m11.07-1.83-9.54-3m11.07-1.83-9.54-3m11.07-1.83-9.54-3m11.07-1.83-9.54-3m11.07-1.83-9.54-3M560,644l-9.54-3m11.07-1.83-9.54-3M563,634.33l-9.54-3m11.07-1.83-9.54-3m11.07-1.84-9.54-3m11.07-1.83-9.54-3M569.16,615l-9.54-3"/><polygon class="cls-58" points="567.79 602.68 547.64 614.11 577.71 623.6 567.79 602.68"/><polygon class="cls-58" points="534.99 706.56 555.13 695.14 525.06 685.64 534.99 706.56"/></g></g><g class="cls-55"><g class="cls-60"><path class="cls-57" d="M988.86,785.5l-10,.17m9.91-5.35-10,.18m9.91-5.35-10,.17m9.91-5.34-10,.17m9.91-5.34-10,.17m9.91-5.34-10,.17m9.91-5.35-10,.18m9.91-5.35-10,.17m9.91-5.34-10,.17m9.91-5.34-10,.17m9.91-5.34L978,734m9.91-5.35-10,.18m9.91-5.35-10,.17m9.91-5.34-10,.17m9.91-5.34-10,.17m9.91-5.35-10,.18m9.91-5.35-10,.17m9.91-5.34-10,.17m9.91-5.34-10,.17m9.91-5.34-10,.17m9.91-5.35-10,.18"/><polygon class="cls-58" points="984.05 796.86 999.53 779.63 968 780.17 984.05 796.86"/></g></g><g class="cls-55"><g class="cls-61"><path class="cls-57" d="M963,664.94l6.15-7.89m-2.15,11,6.15-7.89m-2.15,11,6.15-7.88m-2.15,11,6.14-7.88m2.86,9.78-3.17-9.49m8,7.89-3.14-9.49m8,7.91-3.13-9.5m7.93,7.93-3.1-9.51m7.91,8-3.07-9.52m7.87,8-3-9.53m7.84,8-3-9.54m7.8,8.05-2.93-9.56m7.74,8.11-2.85-9.59m7.65,8.19-2.72-9.62m7.47,8.34-2.43-9.7m6.88,8.79-1.4-9.9m6.11,9.36-.75-10m5.38,9.83.12-10m4.91,10.16.19-10m5,10v-10m5.07,10v-10m5.07,10v-10m5.07,10v-10m5.07,10v-10m5.06,10v-10m5.07,10v-10m5.07,10v-10m5.07,10v-10m5.07,10v-10m5.07,10v-10m5.06,10v-10"/><polygon class="cls-58" points="1123.02 654.77 1106.07 639 1106.07 670.54 1123.02 654.77"/><polygon class="cls-58" points="957.2 654.06 960.87 676.92 980.26 652.06 957.2 654.06"/></g></g><g class="cls-5"><g class="cls-62"><line class="cls-63" x1="840.02" y1="332.05" x2="850.31" y2="301.47"/><line class="cls-64" x1="856.97" y1="300.62" x2="894.22" y2="313.2"/><line class="cls-65" x1="897.46" y1="320.12" x2="902.59" y2="400.56"/><line class="cls-66" x1="896.91" y1="403.89" x2="864.66" y2="405.83"/><line class="cls-67" x1="861.35" y1="399.84" x2="858.07" y2="347.44"/><line class="cls-68" x1="851.3" y1="342.1" x2="841.44" y2="338.73"/><path class="cls-69" d="M838.15,337.61h0m19.73,6.74h0M861.73,406h0m41-2.47h0m-5.7-89.38h0m-45.84-15.47h0"/></g></g><g class="cls-24"><g class="cls-70"><path class="cls-58" d="M912,313.92c16.21,5,28.71-17.9,27.63-36.45-1.11-19.27-12.41-13.47-30.79-10.89-15.19,2.12-44.25,7.59-44.89,16.72s33.39,26.13,48,30.62"/></g></g><g class="cls-24"><g class="cls-71"><path class="cls-58" d="M956,545.47c-13.11-10.16,4.64,26.94-14.7,65-21.54,42.46-61.38,57.79-49.49,70.61,16,17.27,74.13-28.44,80.79-54.1,10.93-42.11-4.75-72.37-16.6-81.55"/></g></g><g class="cls-5"><g class="cls-72"><line class="cls-73" x1="930.02" y1="489.9" x2="936.95" y2="599.18"/><line class="cls-74" x1="933.48" y1="606.7" x2="891.44" y2="659.18"/><line class="cls-75" x1="883.9" y1="659.56" x2="755.37" y2="616.81"/><line class="cls-76" x1="754.34" y1="610.28" x2="764.38" y2="579.64"/><line class="cls-77" x1="770.86" y1="578.68" x2="868.22" y2="610.61"/><line class="cls-78" x1="874.84" y1="606.83" x2="892.13" y2="585.72"/><line class="cls-79" x1="893.65" y1="577.56" x2="889.46" y2="516.57"/><line class="cls-80" x1="883.66" y1="511.79" x2="836.1" y2="495.87"/><line class="cls-81" x1="835.18" y1="489.37" x2="845.49" y2="458.76"/><line class="cls-82" x1="851.97" y1="457.85" x2="926.88" y2="483.05"/><path class="cls-69" d="M929.65,484h0m-83.23-28h0M833.3,494.93h0m56,18.74h0m4.79,69.7h0m-23,28.15h0M765.3,576.85h0m-12.78,39h0m137.09,45.6h0m47.52-59.32h0"/></g></g><g class="cls-83"><g class="cls-84"><polyline class="cls-85" points="933.4 251.8 810.29 276.57 528.37 176.66"/><polygon class="cls-27" points="950.74 248.31 919.17 228.94 929.12 278.4 950.74 248.31"/><polygon class="cls-27" points="511.7 170.75 528.85 203.59 545.7 156.03 511.7 170.75"/></g></g><rect class="cls-86" x="582.87" y="169.84" width="48.34" height="63.49" rx="12"/><rect class="cls-87" x="582.87" y="169.84" width="48.34" height="63.49" rx="12"/><path class="cls-27" d="M612.83,172.28h-.27a2.73,2.73,0,1,0,0,5.46h.53a2.73,2.73,0,1,0,0-5.46Z"/><path class="cls-27" d="M600.12,183.52h-.19a2,2,0,1,0,0,4h.39a2,2,0,0,0,0-4Z"/><path class="cls-27" d="M613.63,200.54v-7.18h-1.55v7.18l0,.21-.09.19-.1.19-.15.14-.16.14-.2.08-.2.08h-.42l-.2-.08-.2-.08-.15-.14-.16-.14-.1-.19-.09-.19,0-.21v-7.18a3.39,3.39,0,0,1-1.58-.28q-.68-3,.48-11a20.08,20.08,0,0,0-2.86,8l-.06.15-.1.12-.1.12-.14.08-.14.07-.16,0-.16,0-.15,0-.15,0-.13-.09-.13-.09-.08-.14-.09-.13,0-.16,0-.15,0-.16q1.89-10.72,8-11.12h.38l1,0v0q6,.51,7.86,11.11l0,.16,0,.15,0,.16-.09.13-.08.14-.13.09-.12.09-.16,0-.15,0-.16,0-.15,0-.14-.07-.14-.08-.11-.12-.1-.12,0-.15a20.39,20.39,0,0,0-2.86-8q1.14,7.92.48,11a3.47,3.47,0,0,1-1.59.28v7.18l0,.21-.09.19-.1.19-.15.14-.16.14-.2.08-.2.08h-.42l-.2-.08-.2-.08-.15-.14-.16-.14-.09-.19-.1-.19Zm-1-21.95,1,0-1,0Z"/></g><polygon class="cls-27" points="602.47 201.31 602.47 190.58 604.03 191.4 604.16 191.43 604.3 191.42 604.44 191.42 604.57 191.37 604.7 191.32 604.82 191.25 604.93 191.17 605.02 191.06 605.11 190.95 605.16 190.82 605.22 190.7 605.24 190.56 605.26 190.42 605.24 190.29 605.22 190.15 605.16 190.02 605.1 189.9 605.01 189.79 604.92 189.68 604.81 189.6 604.7 189.53 604.57 189.48 604.43 189.44 604.29 189.43 602.27 188.37 597.79 188.37 594.99 194.31 594.93 194.49 594.94 194.68 594.95 194.86 595.03 195.03 595.12 195.21 595.25 195.34 595.39 195.47 595.57 195.53 595.75 195.6 595.93 195.6 596.12 195.6 596.3 195.53 596.48 195.46 596.61 195.33 596.75 195.2 596.83 195.03 597.78 193.31 597.78 201.31 597.88 201.42 597.99 201.52 598.11 201.62 598.24 201.68 598.38 201.75 598.52 201.78 598.67 201.82 598.82 201.82 598.97 201.82 599.12 201.78 599.26 201.75 599.39 201.68 599.53 201.62 599.64 201.52 599.76 201.42 599.85 201.31 599.85 195.69 600.3 195.69 600.3 201.31 600.39 201.44 600.51 201.54 600.63 201.65 600.77 201.72 600.91 201.8 601.07 201.83 601.22 201.87 601.38 201.87 601.54 201.87 601.7 201.83 601.85 201.8 601.99 201.72 602.13 201.65 602.25 201.54 602.37 201.44 602.47 201.31"/><rect class="cls-27" x="588.7" y="203.48" width="36.68" height="2.13"/><g class="cls-4"><path class="cls-88" d="M613.77,210l-2.61-1.52c-.26-.15-.29-.39-.11-.7h3.62c.26-.27.85-.27,1.77,0,.56.9.33,1.48-.67,1.73Zm4.85,12.22h-7.54m2.15-10.31,5.39,10.31m-10.23-.54,5.38-11.94m-13.46,2.17,8.08,9.77m-8.08-9.77h12.92m-15.61-3.8h3.77L596,222.17m18.72-6h0a6.68,6.68,0,0,0-3,8.34,6.61,6.61,0,1,0,5.87-9.15m-19.22.43h0a6.58,6.58,0,0,0-8,2.74,6.71,6.71,0,0,0,1.2,8.41,6.55,6.55,0,0,0,8.41.38,6.69,6.69,0,0,0,1.94-8.26m0,0-.18-.36-.22-.34-.22-.33-.25-.31"/><g class="cls-83"><g class="cls-89"><line class="cls-85" x1="1064.9" y1="229.33" x2="1158.59" y2="207.36"/><polygon class="cls-27" points="1047.68 233.37 1079.86 251.74 1068.34 202.62 1047.68 233.37"/><polygon class="cls-27" points="1175.81 203.33 1143.64 184.96 1155.15 234.08 1175.81 203.33"/></g></g><g class="cls-24"><g class="cls-90"><line class="cls-91" x1="968.33" y1="245.6" x2="1029.53" y2="236.04"/><polygon class="cls-27" points="958.11 247.2 977.3 260.16 972.43 229.01 958.11 247.2"/><polygon class="cls-27" points="1039.75 234.45 1020.56 221.49 1025.43 252.64 1039.75 234.45"/></g></g><g class="cls-5"><g class="cls-92"><line class="cls-93" x1="748.09" y1="313.58" x2="788.72" y2="326.8"/><line class="cls-93" x1="789.67" y1="333.1" x2="776.44" y2="373.73"/><line class="cls-94" x1="780.8" y1="378.21" x2="793.91" y2="382.64"/><line class="cls-95" x1="794.61" y1="389.23" x2="778.22" y2="437.72"/><line class="cls-96" x1="771.23" y1="438.7" x2="732.06" y2="426.54"/><line class="cls-97" x1="730.89" y1="419.75" x2="746.57" y2="370.01"/><line class="cls-98" x1="742.51" y1="365.32" x2="730.04" y2="360.89"/><line class="cls-99" x1="729.44" y1="353.98" x2="741.73" y2="314.82"/><path class="cls-69" d="M742.68,311.81h0M727.55,360h0m20,7.09h0M729.05,425.6h0m48.21,15h0m19.27-57h0m-21-7.09h0m15.87-48.76h0"/></g></g><g class="cls-5"><g class="cls-100"><line class="cls-93" x1="680.22" y1="477.28" x2="720.76" y2="490.8"/><line class="cls-101" x1="721.66" y1="497.1" x2="708.14" y2="537.59"/><line class="cls-102" x1="702.05" y1="538.58" x2="689.09" y2="534.33"/><line class="cls-103" x1="684.55" y1="539.23" x2="668.05" y2="588.09"/><line class="cls-104" x1="661.68" y1="589.17" x2="621.16" y2="575.71"/><line class="cls-105" x1="620.37" y1="569.05" x2="636.56" y2="520.06"/><line class="cls-106" x1="642.79" y1="518.92" x2="655.99" y2="523.26"/><line class="cls-107" x1="660.43" y1="518.72" x2="673.92" y2="478.19"/><path class="cls-69" d="M674.82,475.48h0m-16.19,48.65h0m-21.12-7h0m-19,57.63h0M667.08,591h0m19.41-57.49h0m20.75,6.8h0m16.22-48.58h0"/></g></g><g class="cls-11"><g class="cls-108"><polygon class="cls-109" points="674.48 360.85 727.31 378.82 708.66 435.83 655.8 417.54 674.48 360.85"/></g></g><path class="cls-110" d="M693.09,378.05,694,404.9m-16.26,13L689.33,380q3.43-3.26,7.94-.4l8.88,39.13"/></g><polygon class="cls-111" points="690 412.23 696.57 412.46 696.51 414.01 690.58 414.57 690 412.23"/><g class="cls-4"><path class="cls-111" d="M697.39,399.16h0a2.12,2.12,0,1,0,2,2.19,2.11,2.11,0,0,0-2-2.19"/><path class="cls-111" d="M698.28,404.91a1.64,1.64,0,0,0-1.71-1.09,2.12,2.12,0,0,0-1.33,1.48v.05a3.33,3.33,0,0,1-3.76-.76l-.15-.09-.17,0-.16,0-.17,0-.16,0-.14.09-.14.1-.1.14-.09.14-.05.17,0,.17,0,.17,0,.17.08.16.08.15.13.11-.12-.13a5.47,5.47,0,0,0,3.44,1.52,3.58,3.58,0,0,0,.8,0l0,0a12.38,12.38,0,0,1-.88,2q-4.44-.79-8.13,3.19l-.06.18v.37l0,.19,0,.18.09.16.09.16.14.13.13.13.17.08.16.09.18,0,.18,0,.18,0,.18,0,.17-.07,1-1,.39-.35.6-.37.84-.41.57-.22.52-.16.68-.09h.9l1,.1a4.64,4.64,0,0,0,2,.07,3.66,3.66,0,0,0,1.4-1.85q1.74-3.37,1.14-5.17"/></g><text class="cls-112" transform="translate(36 276)">•</text><text class="cls-112" transform="translate(43.25 276)"> </text><text class="cls-112" transform="translate(54 276)">Une co<tspan class="cls-113" x="76.13" y="0">n</tspan><tspan x="89.85" y="0">tinui</tspan><tspan class="cls-114" x="138.38" y="0">t</tspan><tspan x="146.59" y="0">é </tspan><tspan class="cls-115" x="165.77" y="0">v</tspan><tspan x="176.9" y="0">é</tspan><tspan class="cls-116" x="189.72" y="0">g</tspan><tspan class="cls-117" x="202.13" y="0">é</tspan><tspan class="cls-115" x="214.89" y="0">t</tspan><tspan x="223.17" y="0">ale à </tspan></text><text class="cls-112" transform="translate(54 300)">l<tspan class="cls-118" x="6.46" y="0">’</tspan><tspan x="10.78" y="0">échelle du se</tspan><tspan class="cls-117" x="154.2" y="0">c</tspan><tspan class="cls-119" x="166.77" y="0">t</tspan><tspan x="175.01" y="0">eur </tspan></text><text class="cls-112" transform="translate(36 348)">•</text><text class="cls-112" transform="translate(43.25 348)"> </text><text class="cls-112" transform="translate(54 348)">Un <tspan class="cls-120" x="37.37" y="0">g</tspan><tspan class="cls-121" x="50.02" y="0">r</tspan><tspan x="58.34" y="0">and pa</tspan><tspan class="cls-114" x="132.57" y="0">r</tspan><tspan class="cls-122" x="140.95" y="0">c habi</tspan><tspan class="cls-114" x="207.24" y="0">t</tspan><tspan x="215.45" y="0">é </tspan><tspan class="cls-123" x="234.62" y="0">e</tspan><tspan x="247.39" y="0">t ou</tspan><tspan class="cls-115" x="289.22" y="0">v</tspan><tspan x="300.36" y="0">e</tspan><tspan class="cls-124" x="313.17" y="0">r</tspan><tspan x="322.15" y="0">t</tspan></text><text class="cls-112" transform="translate(36 396)">•</text><text class="cls-112" transform="translate(43.25 396)"> </text><text class="cls-112" transform="translate(54 396)"><tspan class="cls-125">D</tspan><tspan x="17.38" y="0">es perméabili</tspan><tspan class="cls-114" x="162.74" y="0">t</tspan><tspan x="170.95" y="0">és no</tspan><tspan class="cls-114" x="229.34" y="0">r</tspan><tspan x="237.72" y="0">d-sud</tspan></text><g class="cls-4"><g class="cls-55"><g class="cls-126"><path class="cls-127" d="M795.06,312.3c2.51,21,10.55,90.11,10.24,107"/><path class="cls-128" d="M802.71,427.93c-12.57,26.69-71,133-80.36,152.39"/><path class="cls-129" d="M721.13,583.09h0M805,422.36h0M794.33,306.2h0"/><polygon class="cls-58" points="793.7 301.04 787.32 309.83 802.01 308.04 793.7 301.04"/><polygon class="cls-58" points="719.6 588.06 729.01 582.63 714.87 578.28 719.6 588.06"/></g></g><rect class="cls-86" x="591.79" y="391.54" width="48.34" height="63.49" rx="12"/><rect class="cls-87" x="591.79" y="391.54" width="48.34" height="63.49" rx="12"/><path class="cls-27" d="M621.75,394h-.26a2.73,2.73,0,1,0,0,5.46H622a2.73,2.73,0,1,0,0-5.46Z"/><path class="cls-27" d="M609,405.22h-.19a2,2,0,0,0,0,4h.39a2,2,0,0,0,0-4Z"/><path class="cls-27" d="M622.55,422.24v-7.18H621v7.18l0,.21-.09.19-.09.19-.16.14-.16.14-.2.08-.19.08h-.43l-.2-.08-.19-.08-.16-.14-.16-.14-.09-.19-.1-.19,0-.21v-7.18a3.39,3.39,0,0,1-1.58-.28q-.67-3,.48-11a20.24,20.24,0,0,0-2.86,8l0,.15-.11.12-.1.12-.14.08-.14.07-.16,0-.15,0-.16,0-.15-.05-.13-.09-.12-.09-.09-.14-.08-.13,0-.16,0-.15,0-.16q1.89-10.73,8-11.12h.38l1,0v0q6,.51,7.86,11.11l0,.16,0,.15,0,.16-.08.13-.09.14-.13.09-.12.09-.16.05-.15,0-.15,0-.16,0-.14-.07-.14-.08-.11-.12-.1-.12-.05-.15a20.39,20.39,0,0,0-2.86-8q1.14,7.92.48,11a3.47,3.47,0,0,1-1.59.28v7.18l0,.21-.09.19-.09.19-.16.14-.16.14-.2.08-.19.08h-.43l-.2-.08-.19-.08-.16-.14-.16-.14-.09-.19-.1-.19Zm-1-21.95,1,0-1,0Z"/></g><polygon class="cls-27" points="611.39 423.01 611.39 412.28 612.95 413.1 613.09 413.13 613.22 413.12 613.36 413.12 613.49 413.07 613.63 413.03 613.74 412.95 613.85 412.87 613.94 412.76 614.03 412.65 614.09 412.53 614.14 412.4 614.16 412.26 614.18 412.12 614.16 411.99 614.14 411.85 614.08 411.72 614.03 411.6 613.94 411.49 613.85 411.38 613.73 411.3 613.62 411.23 613.49 411.18 613.36 411.14 613.22 411.13 611.19 410.07 606.71 410.07 603.91 416.01 603.85 416.19 603.86 416.38 603.88 416.56 603.96 416.74 604.04 416.91 604.18 417.04 604.32 417.17 604.49 417.24 604.67 417.3 604.86 417.3 605.05 417.3 605.22 417.23 605.4 417.16 605.53 417.03 605.67 416.9 605.75 416.73 606.71 415.01 606.71 423.01 606.8 423.13 606.91 423.22 607.03 423.32 607.16 423.38 607.3 423.45 607.44 423.49 607.59 423.52 607.74 423.52 607.89 423.52 608.04 423.49 608.18 423.45 608.32 423.38 608.45 423.32 608.57 423.22 608.68 423.13 608.77 423.01 608.77 417.39 609.22 417.39 609.22 423.01 609.31 423.14 609.43 423.24 609.55 423.35 609.69 423.42 609.83 423.5 609.99 423.53 610.14 423.57 610.3 423.57 610.46 423.57 610.62 423.53 610.77 423.5 610.92 423.42 611.06 423.35 611.18 423.24 611.3 423.14 611.39 423.01"/><rect class="cls-27" x="597.62" y="425.18" width="36.68" height="2.13"/><g class="cls-4"><path class="cls-88" d="M622.7,431.65l-2.62-1.52c-.25-.15-.29-.39-.11-.7h3.62c.26-.27.85-.27,1.77,0,.56.9.33,1.48-.67,1.74Zm4.84,12.23H620m2.15-10.32,5.39,10.32m-10.23-.55,5.38-11.94m-13.46,2.17,8.08,9.77m-8.08-9.77h12.92m-15.61-3.8h3.77l-5.39,14.12m18.72-6h0a6.68,6.68,0,0,0-2.95,8.34,6.59,6.59,0,0,0,7.87,3.92,6.66,6.66,0,0,0-2-13.07m-19.23.43h0a6.56,6.56,0,0,0-8,2.74,6.69,6.69,0,0,0,1.19,8.41A6.55,6.55,0,0,0,609,449a6.69,6.69,0,0,0,1.94-8.26m0,0-.18-.36-.22-.34-.21-.33-.26-.31"/></g><path d="M93.29,53.54l4.89-.48c0,2.34,1.32,3.72,3.36,3.72a2.71,2.71,0,0,0,3-3c0-1.92-1.14-2.91-3.6-2.91H99.83v-3.3h1.08c2.1,0,3.18-1.08,3.18-2.91a2.5,2.5,0,0,0-2.76-2.73c-2,0-3.06,1.41-3.06,3.78l-4.77-.63c0-4.17,3.12-6.81,8.07-6.81s7.5,2.16,7.5,5.82A5,5,0,0,1,104.9,49c3.09.48,4.74,2.22,4.74,5.13,0,4-3.18,6.42-8.13,6.42S93.35,57.8,93.29,53.54Zm24,6.51h-5.13V55.13h5.13Zm16.17-4.8v4.8h-4.77v-4.8h-9.6V52l9-13.26h5.34v13h3.12v3.54ZM128.9,43.16h-.06a10,10,0,0,1-1.2,2.16l-3,4.56a13.47,13.47,0,0,1-1.38,1.83h5.55V45.53C128.84,44.42,128.84,43.91,128.9,43.16Z"/><text class="cls-130" transform="translate(136.79 60.05)"><tspan xml:space="preserve"> UN </tspan><tspan class="cls-131" x="59.46" y="0">P</tspan><tspan x="76.68" y="0">A</tspan><tspan class="cls-132" x="98.76" y="0">R</tspan><tspan x="119.07" y="0">C OUVE</tspan><tspan class="cls-133" x="231.36" y="0">R</tspan><tspan x="251.58" y="0">T </tspan><tspan class="cls-134" x="276.81" y="0">E</tspan><tspan class="cls-135" x="295.38" y="0">T HABITÉ</tspan></text><text class="cls-136" transform="translate(92.63 95.99)">Une inscri<tspan class="cls-137" x="137.55" y="0">p</tspan><tspan x="154.74" y="0">tion dans les co</tspan><tspan class="cls-138" x="369.74" y="0">n</tspan><tspan class="cls-139" x="386.87" y="0">tinui</tspan><tspan class="cls-140" x="447.59" y="0">t</tspan><tspan x="457.52" y="0">és </tspan><tspan class="cls-141" x="496.61" y="0">v</tspan><tspan x="510.29" y="0">e</tspan><tspan class="cls-142" x="526.55" y="0">r</tspan><tspan class="cls-143" x="538.1" y="0">t</tspan><tspan x="548.06" y="0">es ale</tspan><tspan class="cls-144" x="627.77" y="0">n</tspan><tspan class="cls-145" x="644.9" y="0">t</tspan><tspan x="654.86" y="0">ou</tspan><tspan class="cls-146" x="689.06" y="0">r</tspan><tspan class="cls-139" x="699.56" y="0">s</tspan></text><text class="cls-136" transform="translate(92.63 131.99)">4 ai<tspan class="cls-147" x="49.41" y="0">r</tspan><tspan x="59.67" y="0">es d’i</tspan><tspan class="cls-148" x="131.46" y="0">m</tspan><tspan x="156.63" y="0">pla</tspan><tspan class="cls-149" x="198.6" y="0">n</tspan><tspan class="cls-150" x="215.76" y="0">t</tspan><tspan class="cls-145" x="226.02" y="0">a</tspan><tspan x="241.77" y="0">tion</tspan></text><g class="cls-4"><g class="cls-55"><g class="cls-151"><path class="cls-152" d="M855.55,436c-9.71-1.75-28.95-4.84-38.78-3.68"/><path class="cls-153" d="M808.35,434.62C798.49,438,785,443.44,778.79,446"/><path class="cls-154" d="M769.42,447.77a65.12,65.12,0,0,1-10.11-1.14"/><path class="cls-155" d="M750,444.26l-27.08-7.35"/><path class="cls-129" d="M719.9,436.1h0m36.1,9.79h0M776.13,447h0m37.7-14.17h0m47.62,4.24h0"/><polygon class="cls-58" points="866.55 438.13 860.24 429.29 857.27 443.78 866.55 438.13"/><polygon class="cls-58" points="714.87 434.73 720.61 443.96 724.49 429.68 714.87 434.73"/></g></g></g></g></g></g></g></svg>