<svg xmlns="http://www.w3.org/2000/svg" xmlns:xlink="http://www.w3.org/1999/xlink" viewBox="0 0 1190.55 841.89"><defs><style>.cls-1,.cls-102,.cls-106,.cls-107,.cls-108,.cls-110,.cls-182,.cls-183,.cls-184,.cls-185,.cls-186,.cls-187,.cls-188,.cls-189,.cls-44,.cls-47,.cls-51,.cls-52,.cls-53,.cls-54,.cls-55,.cls-56,.cls-57,.cls-58,.cls-59,.cls-60,.cls-61,.cls-62,.cls-63,.cls-64,.cls-65,.cls-66,.cls-67,.cls-68,.cls-69,.cls-71,.cls-72,.cls-73,.cls-74,.cls-75,.cls-76,.cls-77,.cls-78,.cls-79,.cls-80,.cls-81,.cls-94,.cls-95,.cls-98,.cls-99{fill:none;}.cls-2{isolation:isolate;}.cls-3{clip-path:url(#clip-path);}.cls-4{font-size:30px;font-family:GTAmerica-LightItalic, GT America;font-style:italic;}.cls-127,.cls-163,.cls-171,.cls-4{font-weight:300;}.cls-5{letter-spacing:0.03em;}.cls-6{letter-spacing:-0.01em;}.cls-7{letter-spacing:0.02em;}.cls-8{letter-spacing:-0.02em;}.cls-9{letter-spacing:-0.01em;}.cls-10{letter-spacing:0em;}.cls-11{letter-spacing:-0.01em;}.cls-12{letter-spacing:-0.01em;}.cls-13{letter-spacing:-0.01em;}.cls-14{letter-spacing:-0.01em;}.cls-15{letter-spacing:0em;}.cls-16{letter-spacing:-0.02em;}.cls-17{letter-spacing:0em;}.cls-18{letter-spacing:-0.01em;}.cls-19{letter-spacing:-0.02em;}.cls-20{clip-path:url(#clip-path-3);}.cls-21,.cls-96{opacity:0.8;}.cls-22{clip-path:url(#clip-path-4);}.cls-23{fill:#69b75c;}.cls-24{clip-path:url(#clip-path-5);}.cls-25{clip-path:url(#clip-path-6);}.cls-26{opacity:0.5;}.cls-27{clip-path:url(#clip-path-7);}.cls-28{fill:#f39797;}.cls-29{clip-path:url(#clip-path-8);}.cls-30{clip-path:url(#clip-path-9);}.cls-31{opacity:0.2;}.cls-32{clip-path:url(#clip-path-10);}.cls-33{clip-path:url(#clip-path-11);}.cls-34{clip-path:url(#clip-path-12);}.cls-35{clip-path:url(#clip-path-13);}.cls-36{fill:#5c782a;}.cls-37{clip-path:url(#clip-path-14);}.cls-38{clip-path:url(#clip-path-15);}.cls-39{clip-path:url(#clip-path-16);}.cls-40{clip-path:url(#clip-path-17);}.cls-41{opacity:0.6;}.cls-42{clip-path:url(#clip-path-18);}.cls-43{fill:#5ab8b0;}.cls-44{stroke:#588fa5;}.cls-45{fill:#588fa5;}.cls-46{clip-path:url(#clip-path-20);}.cls-182,.cls-183,.cls-184,.cls-185,.cls-186,.cls-187,.cls-188,.cls-189,.cls-47,.cls-71,.cls-72,.cls-73,.cls-74,.cls-75,.cls-76,.cls-77,.cls-78,.cls-79,.cls-80,.cls-81,.cls-94,.cls-95{stroke:#000;}.cls-47{stroke-width:0.33px;}.cls-48{clip-path:url(#clip-path-21);}.cls-49{clip-path:url(#clip-path-22);}.cls-50{clip-path:url(#clip-path-23);}.cls-51,.cls-52,.cls-53,.cls-54,.cls-55,.cls-56,.cls-57,.cls-58,.cls-59,.cls-60,.cls-61,.cls-62,.cls-63,.cls-64,.cls-65,.cls-66,.cls-67,.cls-68,.cls-69{stroke:#cd1719;}.cls-106,.cls-107,.cls-108,.cls-110,.cls-182,.cls-183,.cls-184,.cls-185,.cls-186,.cls-187,.cls-188,.cls-189,.cls-51,.cls-52,.cls-53,.cls-54,.cls-55,.cls-56,.cls-57,.cls-58,.cls-59,.cls-60,.cls-61,.cls-62,.cls-63,.cls-64,.cls-65,.cls-66,.cls-67,.cls-68,.cls-69,.cls-71,.cls-72,.cls-73,.cls-74,.cls-75,.cls-76,.cls-77,.cls-78,.cls-79,.cls-80,.cls-94,.cls-98,.cls-99{stroke-linecap:round;stroke-linejoin:round;}.cls-51{stroke-dasharray:0 1.99;}.cls-52{stroke-dasharray:0 1.99;}.cls-53{stroke-dasharray:0 2.13;}.cls-54{stroke-dasharray:0 2.08;}.cls-55{stroke-dasharray:0 2;}.cls-56{stroke-dasharray:0 2.03;}.cls-57{stroke-dasharray:0 2.01;}.cls-58{stroke-dasharray:0 1.88;}.cls-59{stroke-dasharray:0 2.1;}.cls-60{stroke-dasharray:0 1.92;}.cls-61{stroke-dasharray:0 2.41;}.cls-62{stroke-dasharray:0 2.04;}.cls-63{stroke-dasharray:0 2.03;}.cls-64{stroke-dasharray:0 2.01;}.cls-65{stroke-dasharray:0 2;}.cls-66{stroke-dasharray:0 1.99;}.cls-67{stroke-dasharray:0 1.99;}.cls-68{stroke-dasharray:0 1.99;}.cls-70{opacity:0.9;}.cls-182,.cls-183,.cls-184,.cls-185,.cls-186,.cls-187,.cls-188,.cls-189,.cls-71,.cls-72,.cls-73,.cls-74,.cls-75,.cls-76,.cls-77,.cls-78,.cls-79,.cls-80,.cls-94{stroke-width:8px;}.cls-71{stroke-dasharray:0 25.62;}.cls-72{stroke-dasharray:0 21.86;}.cls-73{stroke-dasharray:0 20.31;}.cls-74{stroke-dasharray:0 25.59;}.cls-75{stroke-dasharray:0 20.38;}.cls-77{stroke-dasharray:0 29.87;}.cls-78{stroke-dasharray:0 22.23;}.cls-79{stroke-dasharray:0 25.66;}.cls-80{stroke-dasharray:0 20.17;}.cls-81{stroke-width:1.5px;}.cls-82{clip-path:url(#clip-path-27);}.cls-83{fill:#cd1719;}.cls-84{clip-path:url(#clip-path-28);}.cls-85{clip-path:url(#clip-path-29);}.cls-86{clip-path:url(#clip-path-30);}.cls-87{clip-path:url(#clip-path-31);}.cls-88{clip-path:url(#clip-path-32);}.cls-89{clip-path:url(#clip-path-33);}.cls-90{clip-path:url(#clip-path-34);}.cls-91{clip-path:url(#clip-path-35);}.cls-92{clip-path:url(#clip-path-36);}.cls-93{clip-path:url(#clip-path-37);}.cls-94{stroke-dasharray:0 22.58;}.cls-95{stroke-width:3px;}.cls-96{mix-blend-mode:multiply;}.cls-97{clip-path:url(#clip-path-39);}.cls-106,.cls-107,.cls-108,.cls-110,.cls-98,.cls-99{stroke:#5baf31;}.cls-98,.cls-99{stroke-width:8.1px;}.cls-98{stroke-dasharray:0 17.63;}.cls-100{fill:#5baf31;}.cls-101{clip-path:url(#clip-path-40);}.cls-102{stroke:#4d7f34;stroke-width:2.73px;}.cls-103{fill:#4d7f34;}.cls-104{clip-path:url(#clip-path-41);}.cls-105{clip-path:url(#clip-path-42);}.cls-106,.cls-107,.cls-108,.cls-110{stroke-width:15px;}.cls-106{stroke-dasharray:0 28.99;}.cls-107{stroke-dasharray:0 29.64;}.cls-109{clip-path:url(#clip-path-43);}.cls-110{stroke-dasharray:0 31.24;}.cls-111{clip-path:url(#clip-path-44);}.cls-112{clip-path:url(#clip-path-45);}.cls-113{clip-path:url(#clip-path-46);}.cls-114{clip-path:url(#clip-path-47);}.cls-115,.cls-163{font-size:24px;}.cls-115{font-family:GTAmerica-Bold, GT America;font-weight:700;}.cls-116{letter-spacing:0em;}.cls-117{letter-spacing:0em;}.cls-118{letter-spacing:0.01em;}.cls-119{letter-spacing:0.02em;}.cls-120{letter-spacing:-0.01em;}.cls-121{letter-spacing:-0.01em;}.cls-122{letter-spacing:0em;}.cls-123{letter-spacing:-0.01em;}.cls-124{letter-spacing:-0.03em;}.cls-125{letter-spacing:0.01em;}.cls-126{letter-spacing:-0.01em;}.cls-127{font-size:22px;}.cls-127,.cls-163,.cls-171{font-family:GTAmerica-Light, GT America;}.cls-128{letter-spacing:-0.01em;}.cls-129{letter-spacing:0em;}.cls-130{letter-spacing:0em;}.cls-131{letter-spacing:0em;}.cls-132{letter-spacing:0em;}.cls-133{letter-spacing:0em;}.cls-134{letter-spacing:0.02em;}.cls-135{letter-spacing:0em;}.cls-136{letter-spacing:-0.01em;}.cls-137{letter-spacing:-0.01em;}.cls-138{letter-spacing:-0.01em;}.cls-139{letter-spacing:-0.01em;}.cls-140{letter-spacing:0.01em;}.cls-141{letter-spacing:0em;}.cls-142{letter-spacing:-0.06em;}.cls-143{letter-spacing:-0.01em;}.cls-144{letter-spacing:-0.01em;}.cls-145{letter-spacing:-0.03em;}.cls-146{letter-spacing:0.01em;}.cls-147{letter-spacing:-0.01em;}.cls-148{letter-spacing:0em;}.cls-149{letter-spacing:-0.01em;}.cls-150{letter-spacing:0em;}.cls-151{letter-spacing:0.02em;}.cls-152{letter-spacing:0em;}.cls-153{letter-spacing:0.02em;}.cls-154{letter-spacing:0em;}.cls-155{letter-spacing:0.02em;}.cls-156{letter-spacing:-0.01em;}.cls-157{letter-spacing:0em;}.cls-158{letter-spacing:-0.04em;}.cls-159{letter-spacing:0.01em;}.cls-160{letter-spacing:0em;}.cls-161{letter-spacing:0em;}.cls-162{letter-spacing:0em;}.cls-164{letter-spacing:-0.01em;}.cls-165{letter-spacing:-0.02em;}.cls-166{letter-spacing:-0.03em;}.cls-167{letter-spacing:-0.05em;}.cls-168{letter-spacing:-0.01em;}.cls-169{letter-spacing:0.03em;}.cls-170{letter-spacing:-0.02em;}.cls-171{font-size:20px;}.cls-172{letter-spacing:-0.02em;}.cls-173{letter-spacing:0em;}.cls-174{letter-spacing:0em;}.cls-175{letter-spacing:0em;}.cls-176{letter-spacing:-0.01em;}.cls-177{letter-spacing:0.01em;}.cls-178{letter-spacing:0em;}.cls-179{letter-spacing:0em;}.cls-180{letter-spacing:-0.01em;}.cls-181{clip-path:url(#clip-path-49);}.cls-182{stroke-dasharray:0 20.28;}.cls-183{stroke-dasharray:0 23.97;}.cls-184{stroke-dasharray:0 25.19;}.cls-185{stroke-dasharray:0 23.64;}.cls-186{stroke-dasharray:0 21.96;}.cls-187{stroke-dasharray:0 20.08;}.cls-188{stroke-dasharray:0 22.22;}.cls-189{stroke-dasharray:0 24.27;}</style><clipPath id="clip-path"><rect class="cls-1" width="1190.55" height="841.89"/></clipPath><clipPath id="clip-path-3"><rect class="cls-1" width="1190.55" height="841.89"/></clipPath><clipPath id="clip-path-4"><rect class="cls-1" x="595.49" y="245.17" width="199.28" height="330.98"/></clipPath><clipPath id="clip-path-5"><rect class="cls-1" x="753.93" y="437.78" width="149.11" height="173.72"/></clipPath><clipPath id="clip-path-6"><rect class="cls-1" x="792.54" y="278.46" width="78.9" height="136.48"/></clipPath><clipPath id="clip-path-7"><rect class="cls-1" x="829.15" y="291.69" width="82.63" height="115.32"/></clipPath><clipPath id="clip-path-8"><rect class="cls-1" x="718.55" y="304.81" width="86.99" height="136.76"/></clipPath><clipPath id="clip-path-9"><rect class="cls-1" x="609.46" y="468.48" width="122.99" height="123.48"/></clipPath><clipPath id="clip-path-10"><rect class="cls-1" x="416.55" y="676.86" width="114.02" height="127.2"/></clipPath><clipPath id="clip-path-11"><rect class="cls-1" x="598.32" y="733.98" width="130.68" height="70.08"/></clipPath><clipPath id="clip-path-12"><rect class="cls-1" x="786.83" y="785.85" width="65.9" height="18.21"/></clipPath><clipPath id="clip-path-13"><rect class="cls-1" x="527.1" y="719.49" width="90.64" height="84.56"/></clipPath><clipPath id="clip-path-14"><rect class="cls-1" x="413.78" y="657.08" width="31.76" height="50.92"/></clipPath><clipPath id="clip-path-15"><rect class="cls-1" x="715.61" y="757.77" width="78.35" height="46.28"/></clipPath><clipPath id="clip-path-16"><rect class="cls-1" x="654.66" y="665.38" width="268.8" height="85.1"/></clipPath><clipPath id="clip-path-17"><rect class="cls-1" x="413.13" y="588.28" width="236.5" height="112.88"/></clipPath><clipPath id="clip-path-18"><rect class="cls-1" x="646.79" y="353.85" width="89.52" height="82.98"/></clipPath><clipPath id="clip-path-20"><rect class="cls-1" x="689.63" y="130.28" width="146.41" height="126.97"/></clipPath><clipPath id="clip-path-21"><rect class="cls-1" x="528.31" y="336.31" width="114.38" height="190.83"/></clipPath><clipPath id="clip-path-22"><rect class="cls-1" x="599.75" y="230.58" width="73.28" height="74.33"/></clipPath><clipPath id="clip-path-23"><rect class="cls-1" x="807.53" y="130.73" width="83.2" height="104.1"/></clipPath><clipPath id="clip-path-27"><rect class="cls-1" x="792.24" y="478.37" width="37.98" height="27.98"/></clipPath><clipPath id="clip-path-28"><rect class="cls-1" x="728.88" y="528.55" width="43.48" height="33.48"/></clipPath><clipPath id="clip-path-29"><rect class="cls-1" x="646.82" y="605.34" width="43.48" height="33.48"/></clipPath><clipPath id="clip-path-30"><rect class="cls-1" x="776.98" y="640.28" width="43.48" height="33.48"/></clipPath><clipPath id="clip-path-31"><rect class="cls-1" x="779.73" y="502.91" width="37.98" height="27.98"/></clipPath><clipPath id="clip-path-32"><rect class="cls-1" x="742.74" y="499.14" width="35.21" height="25.21"/></clipPath><clipPath id="clip-path-33"><rect class="cls-1" x="636.29" y="605.34" width="35.21" height="25.21"/></clipPath><clipPath id="clip-path-34"><rect class="cls-1" x="631.57" y="598.97" width="35.21" height="25.21"/></clipPath><clipPath id="clip-path-35"><rect class="cls-1" x="662.27" y="591.43" width="32.3" height="22.3"/></clipPath><clipPath id="clip-path-36"><rect class="cls-1" x="795.69" y="423.16" width="26.82" height="16.82"/></clipPath><clipPath id="clip-path-37"><rect class="cls-1" x="35.5" y="311.11" width="43.45" height="33.45"/></clipPath><clipPath id="clip-path-39"><rect class="cls-1" x="21.33" y="366.76" width="71.15" height="35.48"/></clipPath><clipPath id="clip-path-40"><rect class="cls-1" x="-5.77" y="475.73" width="125.36" height="80.27"/></clipPath><clipPath id="clip-path-41"><rect class="cls-1" x="21.33" y="456.57" width="71.15" height="33.45"/></clipPath><clipPath id="clip-path-42"><rect class="cls-1" x="443.13" y="154.27" width="590.93" height="122.22"/></clipPath><clipPath id="clip-path-43"><rect class="cls-1" x="551.17" y="243.02" width="163.42" height="359.5"/></clipPath><clipPath id="clip-path-44"><rect class="cls-1" x="743.72" y="333.89" width="169.98" height="179.22"/></clipPath><clipPath id="clip-path-45"><rect class="cls-1" x="705.89" y="212.86" width="162.89" height="152.16"/></clipPath><clipPath id="clip-path-46"><rect class="cls-1" x="643.71" y="164.68" width="169.98" height="179.22"/></clipPath><clipPath id="clip-path-47"><rect class="cls-1" x="662.51" y="404.68" width="188.4" height="180.82"/></clipPath><clipPath id="clip-path-49"><rect class="cls-1" x="745.02" y="449.01" width="201.55" height="211.95"/></clipPath></defs><g class="cls-2"><g id="Calque_1" data-name="Calque 1"><g class="cls-3"><g class="cls-3"><path d="M93.29,53.54l4.89-.48c0,2.34,1.32,3.72,3.36,3.72a2.71,2.71,0,0,0,3-3c0-1.92-1.14-2.91-3.6-2.91H99.83v-3.3h1.08c2.1,0,3.18-1.08,3.18-2.91a2.5,2.5,0,0,0-2.76-2.73c-2,0-3.06,1.41-3.06,3.78l-4.77-.63c0-4.17,3.12-6.81,8.07-6.81s7.5,2.16,7.5,5.82A5,5,0,0,1,104.9,49c3.09.48,4.74,2.22,4.74,5.13,0,4-3.18,6.42-8.13,6.42S93.35,57.8,93.29,53.54Zm24,6.51h-5.13V55.13h5.13Zm16.17-4.8v4.8h-4.77v-4.8h-9.6V52l9-13.26h5.34v13h3.12v3.54ZM128.9,43.16h-.06a10,10,0,0,1-1.2,2.16l-3,4.56a13.47,13.47,0,0,1-1.38,1.83h5.55V45.53C128.84,44.42,128.84,43.91,128.9,43.16Zm22.23-4.41V52.4a4,4,0,1,0,7.92,0V38.75h5.07V52.61c0,4.86-3.36,8-9,8s-9-3.09-9-8V38.75Zm17.07,0h5.61l6.84,12.15a22.16,22.16,0,0,1,1.29,2.76H182c0-.84,0-1.71,0-2.73V38.75h4.65v21.3h-5.4l-7.08-12.27a18.35,18.35,0,0,1-1.26-2.61h-.06c0,.87,0,1.77,0,2.82V60.05H168.2Zm47.36,22a6,6,0,0,0,1.68-.24v3.93a13.67,13.67,0,0,1-2.25.18c-3.6,0-5.93-1.53-7-4.11h-.42c-6.39,0-10.5-4.32-10.5-11.16s4.11-11.16,10.5-11.16,10.49,4.29,10.49,11.16c0,5-2.22,8.7-5.91,10.29A4.89,4.89,0,0,0,215.56,60.8Zm-7.94-4.2c3.33,0,5.27-2.7,5.27-7.2s-1.94-7.2-5.27-7.2-5.31,2.7-5.31,7.2S204.29,56.6,207.62,56.6Zm18.3-17.85V52.4a3.7,3.7,0,0,0,4,4.05c2.51,0,4-1.56,4-4.05V38.75h5.07V52.61c0,4.86-3.36,8-9,8s-9-3.09-9-8V38.75ZM254.8,55.07H247l-1.62,5h-5.07L248,38.75h5.78l7.74,21.3h-5.1Zm-1.17-3.57-1.95-5.94a25.65,25.65,0,0,1-.78-3h-.06a22.24,22.24,0,0,1-.77,3l-1.95,5.94Zm18.63.39H269.2v8.16h-5.06V38.75h9.35c5.4,0,7.8,2.64,7.8,6.54a5.89,5.89,0,0,1-4.17,5.85l4.71,8.91h-5.49Zm-3.06-3.48h3.27c2.46,0,3.54-1.2,3.54-3.12s-1.05-3-3.54-3H269.2Zm30.57-5.64h-6.21V60.05h-5V42.77h-6.18v-4h17.43Zm2.4,17.28V38.75h5.07v21.3Zm24.3-3.75v3.75H311.68V38.75h14.58V42.5h-9.51v4.8h9V51h-9V56.3Zm11.82-4.41h-3.06v8.16h-5.07V38.75h9.36c5.4,0,7.8,2.64,7.8,6.54a5.89,5.89,0,0,1-4.17,5.85l4.71,8.91h-5.49Zm-3.06-3.48h3.27c2.46,0,3.54-1.2,3.54-3.12s-1.05-3-3.54-3h-3.27Zm40.23-3c0,4.23-3,6.87-7.77,6.87h-4.26v7.74h-5.07V38.75h9.45C372.43,38.75,375.46,41.39,375.46,45.44Zm-5.31.15c0-2-1.29-3.18-3.57-3.18h-3.15v6.36h3.15C368.83,48.77,370.15,47.6,370.15,45.59ZM392.86,56.3v3.75H378.07V38.75h14.58V42.5h-9.51v4.8h9V51h-9V56.3Zm11.82-4.41h-3.06v8.16h-5.07V38.75h9.36c5.4,0,7.8,2.64,7.8,6.54a5.89,5.89,0,0,1-4.17,5.85l4.71,8.91h-5.49Zm-3.06-3.48h3.27c2.46,0,3.54-1.2,3.54-3.12s-1.05-3-3.54-3h-3.27Zm15.72-9.66h7l3.93,13a14.92,14.92,0,0,1,.51,2.58h.06a16.5,16.5,0,0,1,.54-2.64l3.75-13h7.05v21.3h-4.62V45.53a21.43,21.43,0,0,1,.12-2.4h-.09a12.12,12.12,0,0,1-.45,2.07l-4.29,14.85h-4.26L422.08,45.2a10,10,0,0,1-.45-2h-.09c.06.72.12,1.53.12,2.37V60.05h-4.32Zm42,17.55v3.75H444.58V38.75h14.58V42.5h-9.51v4.8h9V51h-9V56.3Zm-5.43-18.84h-3.66l3-3.54h4.17Zm22.17,17.61h-7.86l-1.62,5h-5.07l7.74-21.3h5.79l7.74,21.3h-5.1Zm-1.17-3.57L473,45.56a25.65,25.65,0,0,1-.78-3h-.06a20.83,20.83,0,0,1-.78,3l-1.95,5.94Zm27.72,2.55c0,3.36-2.37,6-7.23,6h-10V38.75H495c4.86,0,7.08,2.37,7.08,5.49A4.76,4.76,0,0,1,498.28,49,4.8,4.8,0,0,1,502.66,54.05ZM490.51,42.32v5.19h3.18c2.28,0,3.15-1.17,3.15-2.61s-1-2.58-3.15-2.58Zm6.87,11.31c0-1.65-1.11-2.76-3.24-2.76h-3.63v5.61H494C496.33,56.48,497.38,55.25,497.38,53.63Zm8.49-14.88h5.07V55.94h8.64v4.11H505.87ZM537.28,56.3v3.75H522.49V38.75h14.58V42.5h-9.51v4.8h9V51h-9V56.3Z"/><text class="cls-4" transform="translate(92.63 95.99)">Un qua<tspan class="cls-5" x="97.92" y="0">r</tspan><tspan x="109.47" y="0">tier qui </tspan><tspan class="cls-6" x="213.27" y="0">o</tspan><tspan class="cls-7" x="229.83" y="0">f</tspan><tspan x="240.75" y="0">f</tspan><tspan class="cls-8" x="251.01" y="0">r</tspan><tspan x="261.27" y="0">e une multitude de chemineme</tspan><tspan class="cls-9" x="682.91" y="0">n</tspan><tspan class="cls-10" x="700.07" y="0">t</tspan><tspan x="710.48" y="0">s </tspan></text><text class="cls-4" transform="translate(92.63 131.99)">dans une ambiance <tspan class="cls-11" x="274.14" y="0">v</tspan><tspan class="cls-12" x="287.79" y="0">é</tspan><tspan class="cls-13" x="303.84" y="0">g</tspan><tspan class="cls-11" x="319.35" y="0">é</tspan><tspan class="cls-14" x="335.22" y="0">t</tspan><tspan class="cls-15" x="345.48" y="0">alisée</tspan></text><text class="cls-4" transform="translate(92.63 167.99)">4 ai<tspan class="cls-16" x="49.41" y="0">r</tspan><tspan x="59.64" y="0">es d’i</tspan><tspan class="cls-17" x="131.43" y="0">m</tspan><tspan class="cls-15" x="156.6" y="0">pla</tspan><tspan class="cls-18" x="198.57" y="0">n</tspan><tspan class="cls-14" x="215.7" y="0">t</tspan><tspan class="cls-19" x="225.96" y="0">a</tspan><tspan x="241.74" y="0">tion</tspan></text><g class="cls-20"><g class="cls-21"><g class="cls-22"><path class="cls-23" d="M618.38,575.15l-13.89-4.68L656,417.32,708.72,435l18.42-56.83-53-18.14,36.73-107.89,74.89,25.63-2.55,47.05-40.82-13L727.31,360l20.19,7.37L729.35,425.6l48.19,15S767.48,460.63,758,470.84c-5.78,6.21-34.72,20.83-34.72,20.83L674.5,475.09l-15.92,49.45L637.51,517Z"/></g></g><g class="cls-21"><g class="cls-24"><path class="cls-23" d="M766.77,576.57s-5.1-35.44-3.54-43.94S803.34,447.31,808,445s39.26,11,39.26,11l-12.9,38.78,55.42,18.56,4.25,70L871.68,610.5Z"/></g></g><g class="cls-21"><g class="cls-25"><path class="cls-23" d="M862.44,406.91s-32.4,10.92-41.22,5.53-20.86-119-19.58-122.6,6.94-4.82,9.49-4.25,40.26,12.47,40.26,12.47l-13.47,39.69,21,7.51Z"/></g></g><g class="cls-26"><g class="cls-27"><polygon class="cls-28" points="838.15 337.61 851.24 298.69 897.08 314.16 902.78 403.54 861.73 406.01 857.88 344.35 838.15 337.61"/></g></g><g class="cls-26"><g class="cls-29"><polygon class="cls-28" points="742.68 311.81 791.43 327.69 775.56 376.44 796.53 383.53 777.26 440.57 729.05 425.61 747.5 367.09 727.55 360 742.68 311.81"/></g></g><g class="cls-26"><g class="cls-30"><polygon class="cls-28" points="674.82 475.48 723.46 491.7 707.24 540.28 686.5 533.48 667.08 590.97 618.46 574.81 637.51 517.18 658.63 524.13 674.82 475.48"/></g></g><g class="cls-31"><g class="cls-32"><polygon points="425.55 803.05 447.17 744.78 431.57 738.99 451.42 683.86 521.58 709.37 502.8 762.87 492.17 760.13 476.93 803.05 425.55 803.05"/></g></g><g class="cls-31"><g class="cls-33"><polygon points="611.4 803.05 612.68 798.95 607.32 797.19 623.62 740.98 720 769.61 710.08 803.05 611.4 803.05"/></g></g><g class="cls-31"><g class="cls-34"><polygon points="795.83 803.05 843.73 803.05 798.1 792.85 795.83 803.05"/></g></g><g class="cls-26"><g class="cls-35"><polygon class="cls-36" points="557.01 726.49 608.74 742.39 604.21 756.99 584.22 751.47 570.12 803.05 536.1 803.05 541.98 786.5 559.79 790.13 573.31 748.21 552.47 741.68 557.01 726.49"/></g></g><g class="cls-26"><g class="cls-37"><polygon class="cls-36" points="422.78 664.08 425.55 666.14 422.78 673.23 436.54 679.04 426.05 707 422.78 706.56 422.78 664.08"/></g></g><g class="cls-26"><g class="cls-38"><polygon class="cls-36" points="724.61 803.05 780.24 803.05 784.96 775.27 735.02 764.77 724.61 803.05"/></g></g><g class="cls-26"><g class="cls-39"><polygon class="cls-36" points="663.66 707 668.98 672.38 914.46 740.98 912.75 749.48 663.66 707"/></g></g><g class="cls-26"><g class="cls-40"><polygon class="cls-36" points="640.63 658.37 627.16 700.16 422.63 624.68 422.13 595.27 640.63 658.37"/></g></g><g class="cls-41"><g class="cls-42"><polygon class="cls-43" points="674.48 360.85 727.31 378.82 708.66 435.83 655.8 417.54 674.48 360.85"/></g></g><path class="cls-44" d="M693.09,378.05,694,404.9m-16.26,13L689.33,380q3.43-3.26,7.94-.4l8.88,39.13"/></g><polygon class="cls-45" points="690 412.23 696.57 412.46 696.51 414.01 690.58 414.57 690 412.23"/><g class="cls-20"><path class="cls-45" d="M697.39,399.16h0a2.12,2.12,0,1,0,2,2.19,2.11,2.11,0,0,0-2-2.19"/><path class="cls-45" d="M698.28,404.91a1.64,1.64,0,0,0-1.71-1.09,2.12,2.12,0,0,0-1.33,1.48v.05a3.33,3.33,0,0,1-3.76-.76l-.15-.09-.17,0-.16,0-.17,0-.16,0-.14.09-.14.1-.1.14-.09.14-.05.17,0,.17,0,.17,0,.17.08.16.08.15.13.11-.12-.13a5.47,5.47,0,0,0,3.44,1.52,3.58,3.58,0,0,0,.8,0l0,0a12.38,12.38,0,0,1-.88,2q-4.44-.79-8.13,3.19l-.06.18v.37l0,.19,0,.18.09.16.09.16.14.13.13.13.17.08.16.09.18,0,.18,0,.18,0,.18,0,.17-.07,1-1,.39-.35.6-.37.84-.41.57-.22.52-.16.68-.09h.9l1,.1a4.64,4.64,0,0,0,2,.07,3.66,3.66,0,0,0,1.4-1.85q1.74-3.37,1.14-5.17"/><g class="cls-26"><g class="cls-46"><path class="cls-36" d="M819.64,142.91c3.12,3.11,4.58,6,7.09,14.74,1.13,4-.85,18.7-6,28.06-6.29,11.53-13.32,22.39-10.77,28.06,2.47,5.5,11.62,7.37,14.45,17,3.06,10.39.85,17.29-10.48,23.81s-25.55-8-50.14-12.76c-25-4.81-39.16-10.53-51.91-19-14.52-9.68-15.07-19-11.39-31.85s10-22.67,18.19-33.87c4.41-6.06,8.79-14.17,24.38-17.58,19.39-4.23,32.88-1.13,51-1.13s22.4,1.42,25.51,4.54"/></g></g><path class="cls-47" d="M941.86,137.75C942.4,141.27,955,224,955,226.53c0,2.3-.62,24.59-1.78,30.39-.44,2.2-2.22,8.68-4.47,16.88-3.58,13-8,29.21-9.42,36.69a63.4,63.4,0,0,0,0,25.68c.29,1.67,3.4,18.33,7.71,41.39,12.76,68.33,36.52,195.5,36.94,200.58l.15,1.77a118.79,118.79,0,0,1,.42,21.38c-.82,10-4.62,27.13-9,36.68-3.5,7.71-20.46,30.22-31.86,38.12-13.59,9.42-28.64,16.18-39.26,17.63-14.11,1.93-29.73,3.27-48.3,0l-13.09-2.25c-18.8-3.2-50.26-8.58-59.48-10.51-12.07-2.52-24.29-6.2-24.41-6.24L422.83,569.52"/><path class="cls-47" d="M941.2,137.85c.14.86,13.11,86.18,13.11,88.68,0,2.87-.67,24.78-1.76,30.26-.44,2.17-2.3,9-4.47,16.83-3.57,13-8,29.24-9.42,36.75a64,64,0,0,0,0,25.91c.3,1.68,3.41,18.34,7.72,41.41,12.76,68.31,36.51,195.46,36.93,200.5l.15,1.78a118.61,118.61,0,0,1,.41,21.27c-.81,10-4.59,27-8.9,36.46-3.48,7.65-20.31,30-31.63,37.84-13.51,9.37-28.45,16.08-39,17.52-14.06,1.93-29.61,3.26-48.09,0-2.27-.4-7-1.21-13.1-2.24-18.79-3.21-50.25-8.58-59.46-10.51-12-2.52-24.23-6.19-24.35-6.23L423,568.88"/><path class="cls-47" d="M953.49,137.75c.1.71,10.78,71,11.62,78,.94,7.81,1.94,27.55,0,37.8-.79,4.14-3.18,12.64-6,22.48-4.23,15-9,32-9.36,38.14-.55,9.95,2.66,31.42,4,37.9.41,2,42.22,219.12,43.09,233.9.69,11.74-.67,30.28-4.55,41.51-4.76,13.79-9.54,23-17.62,34.11-6.72,9.2-25.06,25.54-33.85,30.14-8.62,4.52-26.55,12-40.64,13.93-14.27,2-22.81,1.12-32.7.12-2.25-.23-4.57-.47-7.06-.69-17.68-1.52-53.29-8.09-65.52-10.49-15.71-3.09-368.68-113.17-372.24-114.28"/><path class="cls-47" d="M952.83,137.85c.1.71,10.78,70.94,11.62,77.94.93,7.78,1.93,27.43,0,37.6-.78,4.12-3.28,13-5.94,22.43-4.23,15-9,32.05-9.37,38.28-.56,10,2.66,31.57,4,38.07,2,10.06,42.25,219.66,43.08,233.81.69,11.67-.66,30.1-4.51,41.26-4.74,13.71-9.49,22.91-17.53,33.92-6.67,9.15-24.9,25.38-33.62,30S914.11,703,900.1,705c-14.18,2-22.69,1.12-32.53.11-2.25-.23-4.58-.47-7.08-.68-17.64-1.52-53.22-8.08-65.44-10.48-15.68-3.08-368.61-113.16-372.17-114.27"/><path class="cls-47" d="M955,225.62c.79,4.33,78.69,433,81.14,443.46,2.54,10.87,19.36,45.69,27.31,57.79,7.57,11.52,44.91,80.16,48.58,90.07"/><path class="cls-47" d="M954.32,225.74c.78,4.33,78.69,433,81.14,443.49,2.55,10.92,19.42,45.87,27.4,58,8.47,12.88,45.19,81,48.51,89.93"/><path class="cls-47" d="M966.74,175.69c.78,4.29,77.92,429.69,80.28,436.77.77,2.33,1.21,3.94,1.67,5.64a132,132,0,0,0,5.19,15.32c2.42,6.22,19.44,37.62,35.91,68,15.2,28,29.55,54.51,30.93,58.45"/><path class="cls-47" d="M966.08,175.81c3.18,17.54,77.93,429.74,80.3,436.86.77,2.31,1.21,3.91,1.67,5.6a131,131,0,0,0,5.21,15.39c2.43,6.26,19.47,37.68,35.94,68.06,15.19,28,29.53,54.47,30.89,58.36"/><path class="cls-47" d="M878.65,695.54c6.19.82,151.75,20.26,164.86,25.32,13.76,5.31,32.81,16.42,40,23.32"/><path class="cls-47" d="M878.56,696.2c1.52.2,151.68,20.25,164.71,25.28,13.69,5.28,32.64,16.33,39.77,23.18"/><path class="cls-47" d="M878.58,706.67c6.15.82,150.63,20.17,157.78,23.84,1.68.86,3.83,1.84,6.32,3,8.17,3.71,19.35,8.8,27.2,15.78a97.75,97.75,0,0,1,16.51,19.35"/><path class="cls-47" d="M878.49,707.33c1.51.2,150.52,20.16,157.57,23.78,1.69.87,3.85,1.85,6.34,3,8.13,3.7,19.26,8.77,27,15.68a97,97,0,0,1,16.38,19.2"/><g class="cls-31"><g class="cls-48"><polygon points="593.06 343.31 633.69 355.13 575.11 526.15 537.31 513.96 593.06 343.31"/></g></g><g class="cls-31"><g class="cls-49"><polygon points="631.14 237.58 654.38 245.8 650.13 259.13 664.02 263.94 650.98 303.91 623.77 294.56 625.75 288.04 608.75 282.37 620.43 246.09 628.02 248.07 631.14 237.58"/></g></g><g class="cls-31"><g class="cls-50"><polygon points="867.55 137.73 864.43 151.98 872.16 179.97 881.72 193.08 877.47 199.1 871.09 227.8 842.32 233.83 838.85 227.8 816.53 211.5 824.32 199.46 834.95 143.47 826.45 137.8 867.55 137.73"/></g></g></g><line class="cls-51" x1="712.68" y1="252.95" x2="805.95" y2="284.04"/><line class="cls-52" x1="808.85" y1="283.98" x2="968.34" y2="253.08"/><line class="cls-53" x1="971.35" y1="253.48" x2="978.5" y2="255.57"/><line class="cls-54" x1="980.37" y1="257.77" x2="983.35" y2="264.41"/><line class="cls-55" x1="984.12" y1="267.33" x2="1059.28" y2="691.28"/><line class="cls-56" x1="1057.84" y1="693.5" x2="1047.36" y2="701.56"/><line class="cls-57" x1="1045.2" y1="703.65" x2="1040.44" y2="708.81"/><line class="cls-58" x1="1038.7" y1="711.11" x2="1032.91" y2="719.68"/><line class="cls-59" x1="1032.04" y1="718.39" x2="1030.85" y2="711.15"/><line class="cls-60" x1="1029.53" y1="711.65" x2="1024.32" y2="718.56"/><line class="cls-61" x1="1021.97" y1="720.96" x2="1021.08" y2="721.77"/><line class="cls-62" x1="1018.5" y1="723.72" x2="1015.94" y2="725.43"/><line class="cls-63" x1="1013.09" y1="725.68" x2="974" y2="719.63"/><line class="cls-64" x1="971.07" y1="718.92" x2="592.49" y2="610.05"/><line class="cls-65" x1="592.16" y1="607.87" x2="655.48" y2="418.82"/><line class="cls-66" x1="657.69" y1="418.49" x2="707.59" y2="435.13"/><line class="cls-67" x1="709.15" y1="433.55" x2="726.92" y2="379.69"/><line class="cls-68" x1="725.35" y1="378.1" x2="675.45" y2="360.93"/><line class="cls-65" x1="675.15" y1="358.71" x2="710.48" y2="253.27"/><path class="cls-69" d="M710.79,252.32h0M674.51,360.61h0m52.72,18.14h0m-18.7,56.69h0M655.8,417.87h0m-64.27,191.9h0M973,719.47h0m42.09,6.52h0m5.11-3.4h0m3.54-3.26h0m6.94-9.21h0m1.7,10.34h0m7.37-10.91h0m6.81-7.37h0m12.9-9.92h0m-75.69-426.9h0m-4.25-9.49h0m-10.21-3h0M806.89,284.35h0"/><line class="cls-71" x1="715.35" y1="515.98" x2="711.3" y2="528.13"/><line class="cls-72" x1="686.55" y1="533.23" x2="696.9" y2="536.75"/><line class="cls-73" x1="680.08" y1="552.47" x2="670.37" y2="581.34"/><line class="cls-74" x1="642.8" y1="583.06" x2="630.63" y2="579.1"/><line class="cls-75" x1="624.81" y1="555.78" x2="634.34" y2="526.72"/><path class="cls-76" d="M637.51,517h0m-19,58.11h0M667.13,591h0m19.42-57.74h0m20.69,7h0m16.22-48.61h0"/><line class="cls-77" x1="786.74" y1="412.07" x2="791.2" y2="397.81"/><line class="cls-78" x1="774.55" y1="376.61" x2="785.1" y2="380.09"/><line class="cls-79" x1="782.77" y1="352.31" x2="786.88" y2="340.15"/><line class="cls-80" x1="771.71" y1="322.05" x2="781.35" y2="325.02"/><path class="cls-76" d="M771.71,322.05h0M791,328h0m-16.45,48.61h0m21.12,6.95h0m-17.83,57h0"/><path class="cls-81" d="M723.39,486.79l-2.53,7.58m-1.38-8.89-2.54,7.59m-1.38-8.9L713,491.76m-1.37-8.9-2.54,7.59m-1.38-8.9-2.54,7.59m-1.38-8.9-2.53,7.59m-1.38-8.9-2.54,7.59m-1.38-8.9-2.54,7.59m-1.38-8.9-2.53,7.59m-1.38-8.9-2.54,7.59m-1.38-8.9-2.54,7.59m-1.37-8.9L677.78,480m-5.16-3.79,7.59,2.52m-8.89,1.4,7.59,2.52M670,484l7.6,2.53m-8.9,1.39,7.59,2.52m-8.89,1.4,7.59,2.52m-8.89,1.4,7.59,2.52m-8.89,1.4,7.59,2.52m-8.9,1.4,7.59,2.52m-8.89,1.39,7.59,2.53m-8.89,1.39,7.59,2.53m-8.89,1.39,7.59,2.53m-8.9,1.39,7.6,2.52m-4.47-2.16-2.3,7.66m-1.65-8.85-2.3,7.66m-1.66-8.84-2.3,7.66m-1.65-8.85-2.3,7.66m-1.66-8.85-2.3,7.67m-1.65-8.85-2.3,7.66"/><path class="cls-81" d="M778.28,436.53l-2.34,7.65m-1.55-8.84L772.05,443m-1.55-8.84-2.34,7.65M766.61,433l-2.34,7.65m-1.55-8.84-2.34,7.65m-1.55-8.84-2.34,7.65m-1.55-8.84L752.6,437m-1.55-8.84-2.34,7.65M747.16,427l-2.34,7.65m-1.55-8.84-2.34,7.65m-1.55-8.84L737,432.28m-1.55-8.84-2.34,7.65m-1.54-8.84-2.35,7.65m4.89-5.8-7.63-2.41m8.86-1.46-7.63-2.42m8.86-1.46L729,413.93m8.86-1.46-7.63-2.42m8.86-1.45-7.63-2.42m8.86-1.46-7.63-2.42m8.86-1.46-7.63-2.42m8.86-1.45-7.62-2.42m8.85-1.46-7.62-2.42m8.85-1.46-7.62-2.42m8.85-1.45-7.62-2.42m8.85-1.46L740.06,379m8.85-1.46-7.62-2.42m8.86-1.46-7.63-2.42m8.86-1.45-7.63-2.42m2.47-4.45-3.07,7.38m-.69-8.95-3.07,7.39m-.69-8.95-3.06,7.39m-.69-9-3.07,7.39m-.69-9-3.07,7.39m3.47-4.94L724,356.78m8.85-1.5-7.64-2.38m8.85-1.51L726.37,349m8.84-1.51-7.63-2.38m8.84-1.51-7.64-2.37m8.85-1.51L730,337.36m8.85-1.5-7.64-2.38m8.85-1.51-7.64-2.37m8.85-1.51-7.64-2.38m8.85-1.5-7.64-2.38m8.85-1.51L736,317.94m8.85-1.5-7.64-2.38m4.1,1.8,2.57-7.57m1.29,8.88,2.56-7.58m1.29,8.88,2.57-7.57m1.28,8.88,2.57-7.58m1.29,8.88,2.56-7.57m1.29,8.88,2.56-7.58m1.29,8.88,2.57-7.58m1.28,8.89,2.57-7.58"/><g class="cls-20"><g class="cls-41"><g class="cls-82"><path class="cls-83" d="M811.23,505.35a10,10,0,1,0-10-10,10,10,0,0,0,10,10"/></g></g><g class="cls-41"><g class="cls-84"><path class="cls-83" d="M750.62,561a12.74,12.74,0,1,0-12.74-12.74A12.74,12.74,0,0,0,750.62,561"/></g></g><g class="cls-41"><g class="cls-85"><path class="cls-83" d="M668.56,637.82a12.74,12.74,0,1,0-12.74-12.74,12.74,12.74,0,0,0,12.74,12.74"/></g></g><g class="cls-41"><g class="cls-86"><path class="cls-83" d="M798.72,672.76A12.74,12.74,0,1,0,786,660a12.74,12.74,0,0,0,12.74,12.74"/></g></g><g class="cls-41"><g class="cls-87"><path class="cls-83" d="M798.72,529.89a10,10,0,1,0-10-10,10,10,0,0,0,10,10"/></g></g><g class="cls-41"><g class="cls-88"><path class="cls-83" d="M760.35,523.35a8.61,8.61,0,1,0-8.61-8.61,8.6,8.6,0,0,0,8.61,8.61"/></g></g><g class="cls-41"><g class="cls-89"><path class="cls-83" d="M653.89,629.55a8.61,8.61,0,1,0-8.6-8.6,8.6,8.6,0,0,0,8.6,8.6"/></g></g><g class="cls-41"><g class="cls-90"><path class="cls-83" d="M649.18,623.18a8.61,8.61,0,1,0-8.61-8.61,8.62,8.62,0,0,0,8.61,8.61"/></g></g><g class="cls-41"><g class="cls-91"><path class="cls-83" d="M678.42,612.73a7.15,7.15,0,1,0-7.15-7.15,7.15,7.15,0,0,0,7.15,7.15"/></g></g><g class="cls-41"><g class="cls-92"><path class="cls-83" d="M809.11,439a4.41,4.41,0,1,0-4.42-4.41,4.41,4.41,0,0,0,4.42,4.41"/></g></g><g class="cls-41"><g class="cls-93"><path class="cls-83" d="M57.23,343.56A12.73,12.73,0,1,0,44.5,330.83a12.72,12.72,0,0,0,12.73,12.73"/></g></g></g><line class="cls-94" x1="56.91" y1="662.35" x2="68.19" y2="662.35"/><path class="cls-76" d="M79.48,662.35h0m-45.15,0h0"/><line class="cls-95" x1="30.33" y1="710.11" x2="78.28" y2="710.11"/><polygon points="83.48 710.12 75.52 702.72 75.52 717.51 83.48 710.12"/><path class="cls-81" d="M82.73,610.6v8m-4.3-8v8m-4.31-8v8m-4.3-8v8m-4.31-8v8m-4.3-8v8m-4.3-8v8m-4.31-8v8m-4.3-8v8m-4.31-8v8m-4.3-8v8m-4.31-8v8m-4.3-8v8"/><g class="cls-20"><g class="cls-96"><g class="cls-97"><line class="cls-98" x1="56.91" y1="387.5" x2="65.72" y2="387.5"/><path class="cls-99" d="M74.53,387.5h0m-35.25,0h0"/><polygon class="cls-100" points="30.33 387.5 45.11 401.24 45.11 373.76 30.33 387.5"/><polygon class="cls-100" points="83.48 387.5 68.7 373.76 68.7 401.24 83.48 387.5"/></g></g><g class="cls-96"><g class="cls-101"><line class="cls-102" x1="39.36" y1="516.13" x2="74.45" y2="516.13"/><line class="cls-102" x1="39.36" y1="521.6" x2="74.45" y2="521.6"/><polygon class="cls-103" points="30.33 518.87 45.24 532.73 45.24 505.01 30.33 518.87"/><polygon class="cls-103" points="83.48 518.87 68.57 505.01 68.57 532.73 83.48 518.87"/></g></g><g class="cls-21"><g class="cls-104"><rect class="cls-23" x="30.33" y="463.57" width="53.15" height="25.45"/></g></g><g class="cls-21"><g class="cls-105"><line class="cls-106" x1="982.46" y1="244.18" x2="824.52" y2="266"/><line class="cls-107" x1="781.46" y1="260.59" x2="480.05" y2="182.94"/><path class="cls-108" d="M465.7,179.24h0M810.16,268h0m201-27.78h0"/><polygon class="cls-100" points="1025.06 238.29 1000.18 220.84 1005.85 261.83 1025.06 238.29"/><polygon class="cls-100" points="452.13 175.75 468.51 201.33 478.83 161.27 452.13 175.75"/></g></g><g class="cls-96"><g class="cls-109"><line class="cls-110" x1="678.56" y1="292.81" x2="582.13" y2="573.49"/><path class="cls-108" d="M577.06,588.26h0m111.65-325h0"/><polygon class="cls-100" points="693.26 250.02 666.47 264.34 705.59 277.78 693.26 250.02"/><polygon class="cls-100" points="572.5 601.51 599.3 587.19 560.17 573.75 572.5 601.51"/></g></g><g class="cls-96"><g class="cls-111"><line class="cls-102" x1="846.53" y1="387.6" x2="817.48" y2="467.1"/><line class="cls-102" x1="841.38" y1="385.72" x2="812.34" y2="465.22"/><polygon class="cls-103" points="847.05 378.18 828.91 387.43 854.96 396.94 847.05 378.18"/><polygon class="cls-103" points="811.81 474.64 829.95 465.39 803.9 455.88 811.81 474.64"/></g></g><g class="cls-96"><g class="cls-112"><line class="cls-102" x1="816.26" y1="303.25" x2="750.78" y2="281.08"/><line class="cls-102" x1="818.02" y1="298.06" x2="752.53" y2="275.89"/><polygon class="cls-103" points="825.69 303.55 816.01 285.64 807.12 311.9 825.69 303.55"/><polygon class="cls-103" points="743.1 275.58 752.78 293.5 761.67 267.24 743.1 275.58"/></g></g><g class="cls-96"><g class="cls-113"><line class="cls-102" x1="746.52" y1="218.39" x2="717.47" y2="297.89"/><line class="cls-102" x1="741.37" y1="216.51" x2="712.33" y2="296.01"/><polygon class="cls-103" points="747.04 208.97 728.91 218.22 754.95 227.73 747.04 208.97"/><polygon class="cls-103" points="711.8 305.43 729.94 296.19 703.9 286.67 711.8 305.43"/></g></g><g class="cls-96"><g class="cls-114"><line class="cls-102" x1="736.92" y1="460.24" x2="786.58" y2="528.77"/><line class="cls-102" x1="732.48" y1="463.45" x2="782.15" y2="531.99"/><polygon class="cls-103" points="729.4 454.53 726.93 474.74 749.38 458.47 729.4 454.53"/><polygon class="cls-103" points="789.67 537.69 792.14 517.49 769.69 533.75 789.67 537.69"/></g></g></g><text class="cls-115" transform="translate(97.77 288)">P<tspan class="cls-116" x="15.77" y="0">r</tspan><tspan class="cls-117" x="25.56" y="0">é</tspan><tspan class="cls-118" x="38.98" y="0">s</tspan><tspan x="51.34" y="0">e</tspan><tspan class="cls-119" x="64.82" y="0">r</tspan><tspan class="cls-120" x="75.19" y="0">v</tspan><tspan class="cls-121" x="87.69" y="0">a</tspan><tspan x="101.21" y="0">tion du </tspan><tspan class="cls-122" x="187.34" y="0">p</tspan><tspan class="cls-123" x="202.03" y="0">a</tspan><tspan x="215.57" y="0">trimoine </tspan></text><text class="cls-115" transform="translate(97.77 312)"><tspan class="cls-124">e</tspan><tspan x="12.74" y="0">xi</tspan><tspan class="cls-125" x="33.36" y="0">s</tspan><tspan class="cls-118" x="45.89" y="0">t</tspan><tspan x="55.51" y="0">a</tspan><tspan class="cls-126" x="69.26" y="0">n</tspan><tspan x="83.64" y="0">t</tspan></text><text class="cls-127" transform="translate(97.77 336)">Arb<tspan class="cls-128" x="35.38" y="0">r</tspan><tspan class="cls-129" x="43.05" y="0">es habi</tspan><tspan class="cls-130" x="114.95" y="0">t</tspan><tspan class="cls-131" x="122.52" y="0">a</tspan><tspan class="cls-132" x="134.33" y="0">t</tspan><tspan class="cls-133" x="141.92" y="0">s conse</tspan><tspan class="cls-134" x="217.97" y="0">r</tspan><tspan class="cls-135" x="226.27" y="0">v</tspan><tspan x="236.47" y="0">és </tspan><tspan class="cls-136" x="265.01" y="0">(</tspan><tspan x="271.26" y="0">10 sur 3</tspan><tspan class="cls-137" x="349.4" y="0">4</tspan><tspan x="361.98" y="0">) </tspan></text><text class="cls-127" transform="translate(97.77 360)">sous <tspan class="cls-128" x="52.58" y="0">r</tspan><tspan class="cls-129" x="60.26" y="0">ése</tspan><tspan class="cls-134" x="94.71" y="0">r</tspan><tspan class="cls-135" x="103" y="0">v</tspan><tspan x="113.21" y="0">e du parking sou</tspan><tspan class="cls-138" x="278.36" y="0">t</tspan><tspan x="285.89" y="0">er</tspan><tspan class="cls-139" x="305.46" y="0">r</tspan><tspan x="313.1" y="0">ain</tspan></text><text class="cls-127" transform="translate(97.77 384)"><tspan class="cls-140">C</tspan><tspan x="15.64" y="0">o</tspan><tspan class="cls-131" x="27.85" y="0">n</tspan><tspan x="40.61" y="0">ne</tspan><tspan class="cls-141" x="65.14" y="0">c</tspan><tspan class="cls-129" x="76.67" y="0">tivi</tspan><tspan class="cls-128" x="106.04" y="0">t</tspan><tspan x="113.56" y="0">é biologiques à l</tspan><tspan class="cls-142" x="275.08" y="0">’</tspan><tspan x="279.04" y="0">échelle </tspan></text><text class="cls-127" transform="translate(97.77 408.01)">du <tspan class="cls-143" x="31.39" y="0">t</tspan><tspan x="38.94" y="0">erri</tspan><tspan class="cls-138" x="72.05" y="0">t</tspan><tspan x="79.57" y="0">oi</tspan><tspan class="cls-144" x="97.48" y="0">r</tspan><tspan class="cls-129" x="105.14" y="0">e</tspan></text><text class="cls-115" transform="translate(97.77 456)"><tspan class="cls-145">V</tspan><tspan x="15.48" y="0">alori</tspan><tspan class="cls-146" x="67.37" y="0">s</tspan><tspan class="cls-147" x="79.82" y="0">a</tspan><tspan x="93.36" y="0">tion de la bi</tspan><tspan class="cls-148" x="227.35" y="0">o</tspan><tspan x="241.32" y="0">di</tspan><tspan class="cls-149" x="263.16" y="0">v</tspan><tspan x="275.56" y="0">e</tspan><tspan class="cls-150" x="289.05" y="0">r</tspan><tspan x="298.92" y="0">si</tspan><tspan class="cls-116" x="318.24" y="0">t</tspan><tspan x="327.64" y="0">é</tspan></text><text class="cls-127" transform="translate(97.77 480)">Su<tspan class="cls-151" x="26.22" y="0">r</tspan><tspan class="cls-138" x="34.56" y="0">f</tspan><tspan class="cls-152" x="41.91" y="0">a</tspan><tspan class="cls-129" x="53.68" y="0">ces esp</tspan><tspan class="cls-135" x="129.31" y="0">a</tspan><tspan x="141.06" y="0">ces </tspan><tspan class="cls-135" x="181.17" y="0">v</tspan><tspan x="191.37" y="0">e</tspan><tspan class="cls-153" x="203.12" y="0">r</tspan><tspan class="cls-154" x="211.33" y="0">t</tspan><tspan x="218.94" y="0">s</tspan></text><text class="cls-127" transform="translate(97.77 504)"><tspan class="cls-136">(</tspan><tspan x="6.25" y="0">80% de la su</tspan><tspan class="cls-155" x="133.14" y="0">r</tspan><tspan class="cls-138" x="141.46" y="0">f</tspan><tspan class="cls-152" x="148.81" y="0">a</tspan><tspan x="160.58" y="0">ce d</tspan><tspan class="cls-156" x="202.66" y="0">e</tspan><tspan x="214.3" y="0">v</tspan><tspan class="cls-139" x="224.59" y="0">r</tspan><tspan x="232.23" y="0">a </tspan><tspan class="cls-157" x="249.89" y="0">ê</tspan><tspan x="261.6" y="0">t</tspan><tspan class="cls-128" x="269.28" y="0">r</tspan><tspan class="cls-129" x="276.95" y="0">e dédiée </tspan></text><text class="cls-127" transform="translate(97.77 528)">à la biodi<tspan class="cls-156" x="90.73" y="0">v</tspan><tspan x="100.91" y="0">e</tspan><tspan class="cls-152" x="112.66" y="0">r</tspan><tspan x="120.43" y="0">si</tspan><tspan class="cls-143" x="137.08" y="0">t</tspan><tspan class="cls-158" x="144.63" y="0">é</tspan><tspan x="155.52" y="0">)</tspan></text><text class="cls-127" transform="translate(97.77 552.01)"><tspan class="cls-140">C</tspan><tspan x="15.64" y="0">o</tspan><tspan class="cls-131" x="27.85" y="0">n</tspan><tspan x="40.61" y="0">ne</tspan><tspan class="cls-141" x="65.14" y="0">c</tspan><tspan class="cls-129" x="76.67" y="0">tivi</tspan><tspan class="cls-128" x="106.04" y="0">t</tspan><tspan x="113.56" y="0">é biologique à l</tspan><tspan class="cls-142" x="264.13" y="0">’</tspan><tspan class="cls-129" x="268.09" y="0">échelle </tspan></text><text class="cls-127" transform="translate(97.77 576.01)">du p<tspan class="cls-128" x="44.22" y="0">r</tspan><tspan class="cls-129" x="51.9" y="0">oj</tspan><tspan class="cls-141" x="69.72" y="0">e</tspan><tspan x="81.42" y="0">t</tspan></text><text class="cls-115" transform="translate(97.77 624)">Nui<tspan class="cls-146" x="39.84" y="0">s</tspan><tspan x="52.3" y="0">an</tspan><tspan class="cls-159" x="80.66" y="0">c</tspan><tspan class="cls-117" x="94.18" y="0">e</tspan><tspan x="107.59" y="0">s </tspan><tspan class="cls-118" x="125.76" y="0">s</tspan><tspan class="cls-160" x="138.12" y="0">ono</tspan><tspan class="cls-161" x="180.43" y="0">r</tspan><tspan class="cls-162" x="190.22" y="0">e</tspan><tspan x="203.66" y="0">s</tspan></text><text class="cls-163" transform="translate(313.67 624)"> </text><text class="cls-127" transform="translate(97.77 648)"><tspan class="cls-164">F</tspan><tspan class="cls-152" x="12.56" y="0">a</tspan><tspan x="24.33" y="0">ç</tspan><tspan class="cls-152" x="35.9" y="0">a</tspan><tspan class="cls-129" x="47.67" y="0">des p</tspan><tspan class="cls-137" x="101.97" y="0">r</tspan><tspan class="cls-141" x="109.62" y="0">o</tspan><tspan class="cls-143" x="121.79" y="0">t</tspan><tspan x="129.34" y="0">é</tspan><tspan class="cls-165" x="141.08" y="0">g</tspan><tspan x="152.46" y="0">és des nuisances </tspan></text><text class="cls-127" transform="translate(97.77 672)">sono<tspan class="cls-128" x="48.16" y="0">r</tspan><tspan x="55.83" y="0">es </tspan><tspan class="cls-166" x="84.37" y="0">(</tspan><tspan x="90.24" y="0">e</tspan><tspan class="cls-144" x="101.99" y="0">n</tspan><tspan class="cls-167" x="114.6" y="0">v</tspan><tspan x="123.81" y="0">. </tspan><tspan class="cls-168" x="134.88" y="0">2</tspan><tspan class="cls-169" x="146.5" y="0">7</tspan><tspan x="158.18" y="0">7m/l) </tspan></text><text class="cls-127" transform="translate(97.77 696)"><tspan class="cls-164">F</tspan><tspan class="cls-152" x="12.56" y="0">a</tspan><tspan x="24.33" y="0">ç</tspan><tspan class="cls-152" x="35.9" y="0">a</tspan><tspan class="cls-129" x="47.67" y="0">des </tspan><tspan class="cls-165" x="89.14" y="0">e</tspan><tspan x="100.56" y="0">xposés aux nuisances </tspan></text><text class="cls-127" transform="translate(97.77 720.01)">sono<tspan class="cls-128" x="48.16" y="0">r</tspan><tspan x="55.83" y="0">es </tspan><tspan class="cls-166" x="84.37" y="0">(</tspan><tspan x="90.24" y="0">e</tspan><tspan class="cls-144" x="101.99" y="0">n</tspan><tspan class="cls-167" x="114.6" y="0">v</tspan><tspan x="123.81" y="0">. 400m/l)</tspan></text><text class="cls-127" transform="translate(97.77 744.01)"><tspan class="cls-170">R</tspan><tspan class="cls-130" x="14.12" y="0">é</tspan><tspan class="cls-135" x="25.76" y="0">v</tspan><tspan x="35.97" y="0">erbé</tspan><tspan class="cls-139" x="80.23" y="0">r</tspan><tspan class="cls-141" x="87.87" y="0">a</tspan><tspan class="cls-129" x="99.66" y="0">tion sur les </tspan><tspan class="cls-137" x="215.55" y="0">f</tspan><tspan class="cls-135" x="222.88" y="0">a</tspan><tspan x="234.63" y="0">ç</tspan><tspan class="cls-152" x="246.2" y="0">a</tspan><tspan x="257.97" y="0">des</tspan></text><text class="cls-171" transform="translate(1005.86 288)"><tspan class="cls-172">V</tspan><tspan class="cls-173" x="11.58" y="0">e</tspan><tspan class="cls-174" x="22.26" y="0">r</tspan><tspan x="29.32" y="0">s le corridor </tspan></text><text class="cls-171" transform="translate(1015.52 312)">du c<tspan class="cls-175" x="39.06" y="0">o</tspan><tspan class="cls-176" x="50.14" y="0">t</tspan><tspan class="cls-173" x="56.98" y="0">eau de </tspan></text><text class="cls-171" transform="translate(1047.68 336)"><tspan class="cls-177">L</tspan><tspan class="cls-178" x="10.98" y="0">an</tspan><tspan class="cls-179" x="33.36" y="0">c</tspan><tspan x="43.8" y="0">y</tspan></text><text class="cls-171" transform="translate(465.86 240)"><tspan class="cls-172">V</tspan><tspan x="11.58" y="0">e</tspan><tspan class="cls-174" x="22.26" y="0">r</tspan><tspan x="29.32" y="0">s le corridor </tspan></text><text class="cls-171" transform="translate(493.84 264)">du <tspan class="cls-172" x="28.54" y="0">V</tspan><tspan class="cls-178" x="40.12" y="0">oi</tspan><tspan class="cls-180" x="56.4" y="0">r</tspan><tspan class="cls-175" x="63.38" y="0">e</tspan><tspan x="74.04" y="0">t</tspan></text><g class="cls-20"><g class="cls-26"><g class="cls-181"><polygon class="cls-28" points="930.13 484.16 937.57 601.21 890.19 659.96 754.02 614.84 766.77 576.28 871.65 610.53 894.05 583.37 889.79 513.36 834.38 494.79 847.27 456.01 930.13 484.16"/></g></g></g><path class="cls-81" d="M766.24,580.32l2.49-7.61m1.32,8.85,2.48-7.6m1.33,8.85,2.48-7.6m1.32,8.85,2.49-7.61m1.32,8.85,2.49-7.6m1.32,8.85,2.49-7.61m1.32,8.85,2.49-7.6M792.9,589l2.48-7.6m1.33,8.84,2.48-7.6m1.32,8.85,2.49-7.6m1.32,8.84,2.49-7.6m1.32,8.85,2.49-7.6m1.32,8.85,2.49-7.61m1.32,8.85,2.49-7.6m1.32,8.85,2.48-7.6m1.33,8.84,2.48-7.6m1.32,8.85,2.49-7.6M831,601.5l2.49-7.61m1.32,8.85,2.49-7.6M838.6,604l2.49-7.61m1.32,8.85,2.48-7.6m1.33,8.85,2.48-7.61m1.32,8.85,2.49-7.6m1.32,8.85,2.49-7.6m1.32,8.85,2.49-7.61m1.32,8.85,2.49-7.6m1.32,8.85,2.49-7.61m1.32,8.85,2.48-7.6m4.75,4.47-6.17-5.1m8.72,2-6.16-5.1m8.71,2-6.16-5.1m8.72,2-6.17-5.1m8.72,2-6.16-5.1m8.72,2-6.17-5.1m8.72,2-6.16-5.1m8.71,2-6.16-5.1m8.72,2-6.17-5.1m7.24-1.58-8,.55m7.71-4.55-8,.56m7.7-4.56-8,.56m7.7-4.55-8,.55m7.7-4.55-8,.55m7.71-4.55-8,.56m7.7-4.56-8,.56m7.7-4.55-8,.55m7.7-4.55-8,.55m7.71-4.55-8,.56m7.7-4.56-8,.56m7.7-4.55-8,.55m7.7-4.55-8,.55m7.71-4.55-8,.56m7.7-4.55-8,.55m7.7-4.55-8,.55m7.71-4.55-8,.55m3.37-6.79-2.61,7.56M885,507.94l-2.61,7.56m-1.18-8.87-2.61,7.56m-1.18-8.87-2.61,7.56M873.6,504,871,511.57m-1.17-8.87-2.61,7.56M866,501.39,863.42,509m-1.18-8.87-2.61,7.56m-1.18-8.87-2.61,7.56m-1.17-8.87L852.06,505m-1.18-8.87-2.61,7.56m-1.18-8.87-2.61,7.57m-1.18-8.87-2.61,7.56m-1.17-8.87-2.61,7.56m-1.18-8.87-2.61,7.56m6.1-6.23-7.61-2.47m8.84-1.34L832.84,486m8.85-1.34-7.61-2.47m8.85-1.34-7.61-2.48m8.85-1.33-7.61-2.48m8.84-1.34-7.61-2.47m8.85-1.34L839,466.92m8.85-1.34-7.61-2.47m8.85-1.34-7.61-2.47m8.84-1.34-7.61-2.47"/><line class="cls-182" x1="760.48" y1="594.98" x2="757.25" y2="604.59"/><line class="cls-183" x1="776.74" y1="621.83" x2="879" y2="656.2"/><line class="cls-184" x1="906.1" y1="640.34" x2="929.7" y2="610.83"/><line class="cls-185" x1="936" y1="577.4" x2="930.54" y2="494.86"/><line class="cls-186" x1="909.02" y1="475.86" x2="857.15" y2="457.85"/><path class="cls-76" d="M846.78,454.25h0m83,28.82h0M937.56,601h0m-47.2,59h0M754,614.2h0m12.92-38.44h0"/><line class="cls-187" x1="882.5" y1="404.93" x2="892.52" y2="404.43"/><line class="cls-188" x1="901.26" y1="381.76" x2="898.04" y2="326.3"/><line class="cls-189" x1="874.32" y1="307.7" x2="862.78" y2="303.94"/><path class="cls-76" d="M851.24,300.19h0m46.15,15h0m5.16,88.73h0m-40.11,2h0"/><path class="cls-81" d="M846.65,299.91l7.58,2.54m-8.87,1.3,7.59,2.54m-8.88,1.3,7.59,2.54m-8.87,1.3,7.58,2.54m-8.87,1.3,7.59,2.54m-8.87,1.3,7.58,2.54m-8.87,1.3,7.59,2.55m-8.88,1.29,7.59,2.55m-8.87,1.3,7.58,2.54m-8.87,1.3,7.59,2.54m-4.19,5.24,2.72-7.52m1.09,8.9,2.72-7.52m1.09,8.9,2.72-7.52m1.08,8.9,2.73-7.53m1.08,8.91,2.73-7.53m1.08,8.9,2.72-7.52m-5.09,8,8-.46m-7.75,4.5,8-.46m-7.76,4.51,8-.46m-7.75,4.5,8-.46m-7.75,4.5,8-.46m-7.76,4.5,8-.46m-7.75,4.51,8-.46m-7.75,4.5,8-.46M857,382l8-.47M857.24,386l8-.46m-7.75,4.5,8-.46m-7.76,4.5,8-.46m-7.75,4.51,8-.46m-7.75,4.5,8-.46m-7.76,4.51,8-.47"/></g></g></g></g></svg>