<svg id="Calque_1" data-name="Calque 1" xmlns="http://www.w3.org/2000/svg" xmlns:xlink="http://www.w3.org/1999/xlink" viewBox="0 0 1190.55 841.89"><defs><style>.cls-1,.cls-3{fill:none;}.cls-2{clip-path:url(#clip-path);}.cls-3{stroke:#2f77b0;stroke-miterlimit:10;stroke-width:1.25px;}.cls-17,.cls-38,.cls-4{font-size:25px;}.cls-17,.cls-4{font-family:GTAmerica-Light, GT America;font-weight:300;}.cls-5{letter-spacing:-0.02em;}.cls-6{letter-spacing:0em;}.cls-7{letter-spacing:0em;}.cls-8{letter-spacing:0em;}.cls-9{letter-spacing:-0.01em;}.cls-10{letter-spacing:0.02em;}.cls-11{letter-spacing:0em;}.cls-12{letter-spacing:0em;}.cls-13{letter-spacing:-0.01em;}.cls-14{letter-spacing:-0.01em;}.cls-15{letter-spacing:-0.01em;}.cls-16{letter-spacing:-0.01em;}.cls-17{fill:#2f77b0;}.cls-18{letter-spacing:-0.04em;}.cls-19{letter-spacing:0.01em;}.cls-20{letter-spacing:-0.01em;}.cls-21{letter-spacing:-0.01em;}.cls-22{letter-spacing:-0.01em;}.cls-23{clip-path:url(#clip-path-3);}.cls-24{opacity:0.8;}.cls-25{clip-path:url(#clip-path-4);}.cls-26{fill:#f59e00;}.cls-27{clip-path:url(#clip-path-5);}.cls-28{clip-path:url(#clip-path-6);}.cls-29{fill:#ffce00;}.cls-30{clip-path:url(#clip-path-7);}.cls-31{clip-path:url(#clip-path-8);}.cls-32{fill:#a8ba00;}.cls-33{clip-path:url(#clip-path-9);}.cls-34{clip-path:url(#clip-path-10);}.cls-35{fill:#008ea5;}.cls-36{clip-path:url(#clip-path-11);}.cls-37,.cls-38{fill:#fff;}.cls-38{font-family:GTAmerica-Bold, GT America;font-weight:700;}.cls-39{letter-spacing:-0.09em;}.cls-40{letter-spacing:0.01em;}.cls-41{letter-spacing:-0.02em;}</style><clipPath id="clip-path"><rect class="cls-1" width="1190.55" height="841.89"/></clipPath><clipPath id="clip-path-3"><rect class="cls-1" width="1190.55" height="841.89"/></clipPath><clipPath id="clip-path-4"><rect class="cls-1" x="218.18" y="107.14" width="320.95" height="210.58"/></clipPath><clipPath id="clip-path-5"><rect class="cls-1" x="722.87" y="523.61" width="147.31" height="82.14"/></clipPath><clipPath id="clip-path-6"><rect class="cls-1" x="646.92" y="188.02" width="320.95" height="210.58"/></clipPath><clipPath id="clip-path-7"><rect class="cls-1" x="787.52" y="616.62" width="182.32" height="109.29"/></clipPath><clipPath id="clip-path-8"><rect class="cls-1" x="430.78" y="358.1" width="320.95" height="210.58"/></clipPath><clipPath id="clip-path-9"><rect class="cls-1" x="497.27" y="293.96" width="103.04" height="66.47"/></clipPath><clipPath id="clip-path-10"><rect class="cls-1" x="218.18" y="515.33" width="320.95" height="210.58"/></clipPath><clipPath id="clip-path-11"><rect class="cls-1" x="616.57" y="107.14" width="124.3" height="82.14"/></clipPath></defs><g class="cls-2"><g class="cls-2"><path d="M97.76,45.29a5.39,5.39,0,0,1-3.63,1.17h-.84V42.14h.57a4.54,4.54,0,0,0,4.8-3.39h3.93v21.3H97.76Zm14.58,14.76h-5.13V55.13h5.13Zm9.06-4.44L125.15,53a6.17,6.17,0,0,0,5.79,3.66c2,0,3.66-.75,3.66-2.43s-.93-2.19-3.09-2.64l-2.85-.6c-3.72-.81-5.88-2.82-5.88-6.39,0-3.9,3.18-6.33,8.31-6.33,3.78,0,7,1.38,8.46,4.23l-3.3,2.79A6,6,0,0,0,130.76,42c-2,0-3.3.84-3.3,2.19s.84,2.07,3.09,2.58l3.09.66c3.78.84,5.82,2.64,5.82,6.3,0,4.05-3.12,6.84-8.7,6.84C126.17,60.56,122.87,58.61,121.4,55.61Zm25.26-3.27-7.08-13.59h5.34l3.75,7.86a7.25,7.25,0,0,1,.51,1.56h.06a7.25,7.25,0,0,1,.51-1.56l3.72-7.86h5.37l-7.08,13.59v7.71h-5.1ZM161,38.75h5.61l6.84,12.15a22.16,22.16,0,0,1,1.29,2.76h.06c0-.84,0-1.71,0-2.73V38.75h4.65v21.3H174l-7.08-12.27a18.35,18.35,0,0,1-1.26-2.61h-.06c0,.87,0,1.77,0,2.82V60.05H161Zm38.28,4H193V60.05h-5V42.77h-6.18v-4h17.43ZM220,60.05h-5.07V51.2h-8.19v8.85h-5.07V38.75h5.07V47.3h8.19V38.75H220Zm19.23-3.75v3.75H224.42V38.75H239V42.5h-9.51v4.8h9V51h-9V56.3Zm-9.27-18.84-3.48-3.54h4.17l3,3.54Zm10.64,18.15L244.33,53a6.17,6.17,0,0,0,5.79,3.66c2,0,3.66-.75,3.66-2.43s-.93-2.19-3.09-2.64l-2.85-.6c-3.72-.81-5.88-2.82-5.88-6.39,0-3.9,3.18-6.33,8.31-6.33,3.78,0,7,1.38,8.46,4.23l-3.3,2.79A6,6,0,0,0,249.94,42c-2,0-3.3.84-3.3,2.19s.84,2.07,3.09,2.58l3.09.66c3.78.84,5.82,2.64,5.82,6.3,0,4.05-3.12,6.84-8.7,6.84C245.35,60.56,242.05,58.61,240.58,55.61Zm35.85.69v3.75H261.64V38.75h14.58V42.5h-9.51v4.8h9V51h-9V56.3Zm11.1-17.55H296c6.39,0,10.53,4.26,10.53,10.53S302.41,60.05,296,60.05h-8.43Zm8.22,17.58c3.6,0,5.58-3.24,5.58-7s-1.86-6.81-5.52-6.81H292.6V56.33Zm28.68,0v3.75H309.64V38.75h14.58V42.5h-9.51v4.8h9V51h-9V56.3Zm11.1-17.55h5.07V55.94h8.64v4.11H335.53Zm29.79,16.32h-7.86l-1.62,5h-5.07l7.74-21.3h5.79L372,60.05h-5.1Zm-1.17-3.57-1.95-5.94a25.65,25.65,0,0,1-.78-3h-.06a20.83,20.83,0,0,1-.78,3l-1.95,5.94Zm16.56-2.07c0-6.72,4-11.19,10.44-11.19,5.43,0,8.85,3,9.42,7.65l-5.13.9c-.3-2.82-1.86-4.47-4.41-4.47-3.24,0-5.13,2.73-5.13,7.08s1.92,7.05,5.28,7.05c2.37,0,4-1.62,4.38-4.38l5.13,1.11c-1,4.5-4.32,7.38-9.6,7.38C384.34,60.56,380.71,56.15,380.71,49.43Zm21.72,0c0-6.87,4.11-11.16,10.5-11.16s10.5,4.29,10.5,11.16-4.11,11.16-10.5,11.16S402.43,56.24,402.43,49.4Zm15.78,0c0-4.5-1.95-7.2-5.28-7.2s-5.31,2.7-5.31,7.2,2,7.2,5.31,7.2S418.21,53.9,418.21,49.4Zm8.31-10.65h5.61L439,50.9a22.16,22.16,0,0,1,1.29,2.76h.06c0-.84,0-1.71,0-2.73V38.75h4.65v21.3h-5.4l-7.08-12.27a18.35,18.35,0,0,1-1.26-2.61h-.06c0,.87,0,1.77,0,2.82V60.05h-4.65ZM448,49.43c0-6.72,4-11.19,10.44-11.19,5.43,0,8.85,3,9.42,7.65l-5.13.9c-.3-2.82-1.86-4.47-4.41-4.47-3.24,0-5.13,2.73-5.13,7.08s1.92,7.05,5.28,7.05c2.37,0,4-1.62,4.38-4.38L468,53.18c-1,4.5-4.32,7.38-9.6,7.38C451.66,60.56,448,56.15,448,49.43Zm37.71,6.87v3.75H471V38.75h14.58V42.5H476v4.8h9V51h-9V56.3Zm11.82-4.41H494.5v8.16h-5.07V38.75h9.36c5.4,0,7.8,2.64,7.8,6.54a5.89,5.89,0,0,1-4.17,5.85l4.71,8.91h-5.49Zm-3.06-3.48h3.27c2.46,0,3.54-1.2,3.54-3.12s-1.05-3-3.54-3H494.5Zm30.57-5.64h-6.21V60.05h-5V42.77h-6.18v-4h17.43Zm12.42,12.3h-7.86l-1.62,5h-5.07l7.74-21.3h5.79l7.74,21.3h-5.1Zm-1.17-3.57-2-5.94a25.65,25.65,0,0,1-.78-3h-.06a20.83,20.83,0,0,1-.78,3l-2,5.94Zm23.19-8.73H553.3V60.05h-5V42.77h-6.18v-4h17.43Zm2.4,17.28V38.75H567v21.3Zm8.16-10.65c0-6.87,4.11-11.16,10.5-11.16s10.5,4.29,10.5,11.16S587,60.56,580.57,60.56,570.07,56.24,570.07,49.4Zm15.78,0c0-4.5-2-7.2-5.28-7.2s-5.31,2.7-5.31,7.2,2,7.2,5.31,7.2S585.85,53.9,585.85,49.4Zm8.31-10.65h5.61l6.84,12.15a22.16,22.16,0,0,1,1.29,2.76H608c0-.84,0-1.71,0-2.73V38.75h4.65v21.3h-5.4L600.1,47.78a18.35,18.35,0,0,1-1.26-2.61h-.06c0,.87,0,1.77,0,2.82V60.05h-4.65Zm30.27,21.3V38.75h5.07v21.3Z"/><line class="cls-3" x1="591.78" y1="806.5" x2="765.57" y2="806.5"/><text class="cls-4" transform="translate(195.82 768)"><tspan class="cls-5">R</tspan><tspan x="16.05" y="0">e</tspan><tspan class="cls-6" x="29.4" y="0">s</tspan><tspan class="cls-7" x="41.75" y="0">titution d</tspan><tspan class="cls-8" x="144.95" y="0">é</tspan><tspan class="cls-9" x="158.25" y="0">t</tspan><tspan x="166.85" y="0">aillée de la séance de conce</tspan><tspan class="cls-10" x="484.64" y="0">r</tspan><tspan class="cls-9" x="493.99" y="0">t</tspan><tspan class="cls-11" x="502.59" y="0">a</tspan><tspan x="516.02" y="0">tion I du 10 o</tspan><tspan class="cls-12" x="661.89" y="0">c</tspan><tspan class="cls-13" x="675.02" y="0">t</tspan><tspan x="683.57" y="0">ob</tspan><tspan class="cls-14" x="712.14" y="0">r</tspan><tspan x="720.87" y="0">e </tspan><tspan class="cls-15" x="740.84" y="0">2</tspan><tspan x="754.12" y="0">0</tspan><tspan class="cls-16" x="769.96" y="0">2</tspan><tspan x="783.24" y="0">0</tspan></text><text class="cls-4" transform="translate(424.97 804)">disponible sur </text><text class="cls-17" transform="translate(591.77 804)">pa<tspan class="cls-10" x="28.02" y="0">r</tspan><tspan class="cls-7" x="37.37" y="0">ticipe</tspan><tspan class="cls-18" x="100.12" y="0">r</tspan><tspan class="cls-19" x="107.92" y="0">.</tspan><tspan class="cls-20" x="114.25" y="0">g</tspan><tspan class="cls-21" x="127.17" y="0">e</tspan><tspan class="cls-22" x="140.27" y="0">.</tspan><tspan class="cls-7" x="146.05" y="0">ch</tspan></text><g class="cls-23"><g class="cls-24"><g class="cls-25"><rect class="cls-26" x="227.18" y="114.14" width="302.95" height="202.58" rx="15"/></g></g><g class="cls-24"><g class="cls-27"><rect class="cls-26" x="731.87" y="530.61" width="129.31" height="74.15" rx="15"/></g></g><g class="cls-24"><g class="cls-28"><rect class="cls-29" x="655.92" y="195.02" width="302.95" height="202.58" rx="15"/></g></g><g class="cls-24"><g class="cls-30"><rect class="cls-29" x="796.52" y="623.62" width="164.32" height="101.29" rx="15"/></g></g><g class="cls-24"><g class="cls-31"><rect class="cls-32" x="439.78" y="365.1" width="302.95" height="202.58" rx="15"/></g></g><g class="cls-24"><g class="cls-33"><rect class="cls-32" x="506.27" y="300.96" width="85.04" height="58.47" rx="15"/></g></g><g class="cls-24"><g class="cls-34"><rect class="cls-35" x="227.18" y="522.33" width="302.95" height="202.58" rx="15"/></g></g><g class="cls-24"><g class="cls-36"><rect class="cls-35" x="625.57" y="114.14" width="106.3" height="74.15" rx="15"/></g></g></g><path class="cls-37" d="M273.84,204.81a4.48,4.48,0,0,1-3,1h-.7v-3.6h.47a3.78,3.78,0,0,0,4-2.83h3.27v17.75h-4Zm7.3,3.4c0-5.85,2.78-9.27,7.47-9.27s7.5,3.42,7.5,9.27-2.77,9.27-7.5,9.27S281.14,214.06,281.14,208.21Zm10.82,0c0-4-1.2-6.15-3.35-6.15s-3.32,2.15-3.32,6.15,1.2,6.15,3.32,6.15S292,212.21,292,208.21Zm11.91,0c0-5.73,3.42-9.3,8.74-9.3s8.75,3.57,8.75,9.3-3.42,9.29-8.75,9.29S303.87,213.93,303.87,208.24Zm13.14,0c0-3.75-1.62-6-4.4-6s-4.42,2.25-4.42,6,1.65,6,4.42,6S317,212,317,208.24Zm6.13,0c0-5.6,3.3-9.32,8.7-9.32,4.52,0,7.37,2.5,7.85,6.37l-4.28.75c-.25-2.35-1.55-3.72-3.67-3.72-2.7,0-4.27,2.27-4.27,5.9s1.6,5.87,4.39,5.87c2,0,3.3-1.35,3.65-3.65l4.28.92c-.85,3.75-3.6,6.15-8,6.15C326.17,217.53,323.14,213.86,323.14,208.26Zm31.6-5.55h-5.18v14.4h-4.19v-14.4h-5.15v-3.35h14.52Zm-.05,5.53c0-5.73,3.43-9.3,8.75-9.3s8.75,3.57,8.75,9.3-3.43,9.29-8.75,9.29S354.69,213.93,354.69,208.24Zm13.15,0c0-3.75-1.63-6-4.4-6s-4.42,2.25-4.42,6,1.64,6,4.42,6S367.84,212,367.84,208.24Zm21.27,3.87c0,2.8-2,5-6,5h-8.32V199.36h8c4.05,0,5.9,2,5.9,4.58a4,4,0,0,1-3.2,3.92A4,4,0,0,1,389.11,212.11ZM379,202.34v4.32h2.65c1.9,0,2.62-1,2.62-2.17s-.8-2.15-2.62-2.15Zm5.72,9.42c0-1.37-.92-2.3-2.7-2.3h-3v4.67h2.92C383.84,214.13,384.71,213.11,384.71,211.76Zm13.85-1.45H396v6.8h-4.22V199.36h7.8c4.5,0,6.5,2.2,6.5,5.45a4.92,4.92,0,0,1-3.48,4.88l3.93,7.42H402Zm-2.55-2.9h2.73c2.05,0,2.95-1,2.95-2.6s-.88-2.47-2.95-2.47H396ZM421.44,214v3.13H409.12V199.36h12.14v3.13h-7.92v4h7.5v3.1h-7.5V214Zm8.13.18a38.58,38.58,0,0,0,6.27-4.57c1.7-1.68,2.37-3,2.37-4.78s-.8-2.7-2.25-2.7-2.35,1-2.35,2.65a8.56,8.56,0,0,0,.18,1.43l-4.1-.38a6.75,6.75,0,0,1-.15-1.37c0-3.35,2.55-5.5,6.62-5.5s6.35,2,6.35,5.57a8.4,8.4,0,0,1-3.12,6.37,24.15,24.15,0,0,1-4.33,3h7.6v3.2H429.57Zm14.67-5.95c0-5.85,2.77-9.27,7.47-9.27s7.5,3.42,7.5,9.27-2.77,9.27-7.5,9.27S444.24,214.06,444.24,208.21Zm10.82,0c0-4-1.2-6.15-3.35-6.15s-3.32,2.15-3.32,6.15,1.2,6.15,3.32,6.15S455.06,212.21,455.06,208.21Zm5.73,5.95a38.14,38.14,0,0,0,6.27-4.57c1.7-1.68,2.38-3,2.38-4.78s-.8-2.7-2.25-2.7-2.35,1-2.35,2.65a8.43,8.43,0,0,0,.17,1.43l-4.1-.38a6.75,6.75,0,0,1-.15-1.37c0-3.35,2.55-5.5,6.63-5.5s6.35,2,6.35,5.57a8.41,8.41,0,0,1-3.13,6.37,24,24,0,0,1-4.32,3h7.6v3.2h-13.1Zm14.67-5.95c0-5.85,2.78-9.27,7.48-9.27s7.49,3.42,7.49,9.27-2.77,9.27-7.49,9.27S475.46,214.06,475.46,208.21Zm10.83,0c0-4-1.2-6.15-3.35-6.15s-3.33,2.15-3.33,6.15,1.2,6.15,3.33,6.15S486.29,212.21,486.29,208.21Z"/><text class="cls-38" transform="translate(284.57 247.11)">EN PRÉSENTIEL</text><path class="cls-37" d="M688.87,305.83c0-5.05,2.32-10,6.09-14.09h-8.47v-3.35H699v3.1a19.77,19.77,0,0,0-5.7,14v.62h-4.39Zm14.17,0c0-5.05,2.33-10,6.1-14.09h-8.47v-3.35h12.47v3.1a19.73,19.73,0,0,0-5.7,14v.62H703ZM735.64,294c0,3.53-2.48,5.72-6.48,5.72h-3.55v6.45h-4.22V288.39h7.87C733.11,288.39,735.64,290.59,735.64,294Zm-4.43.13c0-1.68-1.07-2.65-3-2.65h-2.63v5.3h2.63C730.11,296.74,731.21,295.76,731.21,294.09ZM746.36,302h-6.55l-1.34,4.15h-4.23l6.45-17.74h4.82L752,306.13h-4.25Zm-1-3-1.63-4.95a22.14,22.14,0,0,1-.65-2.5h-.05a17.19,17.19,0,0,1-.65,2.5L740.79,299Zm15.52.33h-2.55v6.79h-4.22V288.39h7.8c4.5,0,6.5,2.2,6.5,5.45a4.91,4.91,0,0,1-3.48,4.87l3.93,7.42h-4.58Zm-2.55-2.9h2.73c2,0,2.95-1,2.95-2.6s-.88-2.48-2.95-2.48h-2.73Zm25.48-4.7h-5.18v14.39h-4.2V291.74h-5.14v-3.35h14.52Zm2,14.39V288.39h4.22v17.74Zm6.8-8.84c0-5.6,3.3-9.33,8.7-9.33,4.52,0,7.37,2.5,7.85,6.38l-4.28.75c-.25-2.35-1.55-3.73-3.67-3.73-2.7,0-4.28,2.28-4.28,5.9s1.6,5.87,4.4,5.87c2,0,3.3-1.35,3.65-3.64l4.28.92c-.85,3.75-3.6,6.15-8,6.15C795.66,306.56,792.64,302.88,792.64,297.29Zm19.1,8.84V288.39H816v17.74ZM833.91,294c0,3.53-2.47,5.72-6.47,5.72h-3.55v6.45h-4.22V288.39h7.87C831.39,288.39,833.91,290.59,833.91,294Zm-4.42.13c0-1.68-1.08-2.65-3-2.65h-2.62v5.3h2.62C828.39,296.74,829.49,295.76,829.49,294.09ZM844.64,302h-6.55l-1.35,4.15h-4.23L839,288.39h4.83l6.44,17.74H846Zm-1-3L842,294.06a20.2,20.2,0,0,1-.65-2.5h0a17.19,17.19,0,0,1-.65,2.5L839.06,299Zm8.75-10.62h4.68l5.69,10.12a19.3,19.3,0,0,1,1.08,2.3h0c0-.7,0-1.42,0-2.27V288.39h3.88v17.74h-4.5l-5.9-10.22a15.55,15.55,0,0,1-1.05-2.17h0c0,.72,0,1.47,0,2.35v10h-3.88Zm31.9,3.35h-5.17v14.39h-4.2V291.74h-5.15v-3.35h14.52Zm3.45,14.39h-4.27V302h4.27Zm15.6-3.12v3.12H891V288.39h12.14v3.12h-7.92v4h7.5v3.1h-7.5V303Zm6.93,3.12H906V302h4.28Zm1.37-3.7,3.13-2.2a5.12,5.12,0,0,0,4.82,3c1.7,0,3-.62,3-2s-.77-1.82-2.57-2.2l-2.38-.5c-3.1-.67-4.9-2.35-4.9-5.32,0-3.25,2.65-5.28,6.93-5.28,3.14,0,5.79,1.15,7,3.53L924,293.81a5,5,0,0,0-4.57-2.72c-1.67,0-2.75.7-2.75,1.82s.7,1.73,2.58,2.15l2.57.55c3.15.7,4.85,2.2,4.85,5.25,0,3.37-2.6,5.7-7.25,5.7C915.64,306.56,912.89,304.93,911.66,302.43Z"/><text class="cls-38" transform="translate(522.54 481.76)">3 <tspan class="cls-39" x="21.27" y="0">A</tspan><tspan x="37.42" y="0">TE</tspan><tspan class="cls-40" x="67.67" y="0">L</tspan><tspan x="81.52" y="0">IE</tspan><tspan class="cls-41" x="104.85" y="0">R</tspan><tspan class="cls-7" x="121.8" y="0">S</tspan></text><text class="cls-38" transform="translate(257.82 636.76)">2 </text><text class="cls-38" transform="translate(278.67 636.76)">QU<tspan class="cls-11" x="37.1" y="0">ES</tspan><tspan x="68.1" y="0">TIONNAIR</tspan><tspan class="cls-11" x="191.57" y="0">E</tspan><tspan x="206.95" y="0">S</tspan></text></g></g></svg>