<svg id="Calque_1" data-name="Calque 1" xmlns="http://www.w3.org/2000/svg" xmlns:xlink="http://www.w3.org/1999/xlink" viewBox="0 0 1190.55 841.89"><defs><style>.cls-1,.cls-7{fill:none;}.cls-2{clip-path:url(#clip-path);}.cls-3{clip-path:url(#clip-path-3);}.cls-4{opacity:0.6;}.cls-5{clip-path:url(#clip-path-4);}.cls-6{fill:#eadfde;}.cls-7{stroke:#283583;stroke-miterlimit:10;stroke-width:1.5px;}.cls-13,.cls-34,.cls-8{font-size:30px;font-family:GTAmerica-Light, GT America;font-weight:300;}.cls-9{letter-spacing:0em;}.cls-10{letter-spacing:0em;}.cls-11{letter-spacing:-0.01em;}.cls-12{letter-spacing:-0.01em;}.cls-13{fill:#283583;}.cls-14{letter-spacing:0.02em;}.cls-15{letter-spacing:-0.04em;}.cls-16{letter-spacing:0.02em;}.cls-17{letter-spacing:-0.01em;}.cls-18{letter-spacing:-0.01em;}.cls-19{letter-spacing:-0.02em;}.cls-20{letter-spacing:0em;}.cls-21{letter-spacing:0.02em;}.cls-22{letter-spacing:-0.01em;}.cls-23{letter-spacing:0em;}.cls-24{letter-spacing:0em;}.cls-25{letter-spacing:-0.01em;}.cls-26{letter-spacing:0em;}.cls-27{letter-spacing:-0.01em;}.cls-28{letter-spacing:-0.01em;}.cls-29{letter-spacing:0em;}.cls-30{letter-spacing:-0.01em;}.cls-31{letter-spacing:0.02em;}.cls-32{letter-spacing:0em;}.cls-33{letter-spacing:-0.01em;}.cls-34{fill:#e5007d;}</style><clipPath id="clip-path"><rect class="cls-1" width="1190.55" height="841.89"/></clipPath><clipPath id="clip-path-3"><rect class="cls-1" width="1190.55" height="841.89"/></clipPath><clipPath id="clip-path-4"><rect class="cls-1" x="27" y="158.83" width="1136.55" height="288.63"/></clipPath></defs><title>Plan de travail</title><g class="cls-2"><g class="cls-2"><g class="cls-3"><g class="cls-4"><g class="cls-5"><rect class="cls-6" x="36" y="165.83" width="1118.55" height="280.63"/></g></g></g><line class="cls-7" x1="590.81" y1="207" x2="799.37" y2="207"/><text class="cls-8" transform="translate(36 204)">Un que<tspan class="cls-9" x="97.44" y="0">s</tspan><tspan x="112.26" y="0">tio</tspan><tspan class="cls-10" x="147.15" y="0">n</tspan><tspan x="164.52" y="0">nai</tspan><tspan class="cls-11" x="205.86" y="0">r</tspan><tspan x="216.33" y="0">e en li</tspan><tspan class="cls-12" x="297.54" y="0">g</tspan><tspan x="313.35" y="0">ne disponible sur </tspan></text><text class="cls-13" transform="translate(590.81 204)">pa<tspan class="cls-14" x="33.63" y="0">r</tspan><tspan x="44.82" y="0">ticipe</tspan><tspan class="cls-15" x="120.12" y="0">r</tspan><tspan class="cls-16" x="129.48" y="0">.</tspan><tspan class="cls-17" x="137.07" y="0">g</tspan><tspan class="cls-18" x="152.61" y="0">e</tspan><tspan class="cls-11" x="168.33" y="0">.</tspan><tspan x="175.26" y="0">ch</tspan></text><text class="cls-8" transform="translate(36 276)"><tspan class="cls-19">P</tspan><tspan x="17.76" y="0">erm</tspan><tspan class="cls-20" x="69.66" y="0">e</tspan><tspan class="cls-21" x="85.65" y="0">t</tspan><tspan x="96.57" y="0">t</tspan><tspan class="cls-22" x="107.04" y="0">r</tspan><tspan x="117.45" y="0">a de co</tspan><tspan class="cls-23" x="215.58" y="0">m</tspan><tspan class="cls-24" x="240.72" y="0">pl</tspan><tspan class="cls-20" x="266.28" y="0">é</tspan><tspan class="cls-25" x="282.27" y="0">t</tspan><tspan class="cls-26" x="292.56" y="0">er les discu</tspan><tspan class="cls-27" x="447.53" y="0">s</tspan><tspan x="462.23" y="0">sions d</tspan><tspan class="cls-28" x="559.55" y="0">’</tspan><tspan class="cls-26" x="566.39" y="0">aujou</tspan><tspan class="cls-11" x="641.27" y="0">r</tspan><tspan x="651.74" y="0">d’hui : </tspan></text><text class="cls-8" transform="translate(36 312)">•</text><text class="cls-8" transform="translate(45.06 312)"> </text><text class="cls-8" transform="translate(54 312)"><tspan class="cls-29">é</tspan><tspan class="cls-30" x="15.87" y="0">v</tspan><tspan x="29.7" y="0">aluer les scénarios</tspan></text><text class="cls-8" transform="translate(36 348)">•</text><text class="cls-8" transform="translate(45.06 348)"> </text><text class="cls-8" transform="translate(54 348)">ajou<tspan class="cls-25" x="57.66" y="0">t</tspan><tspan x="67.95" y="0">er des obse</tspan><tspan class="cls-31" x="224.4" y="0">r</tspan><tspan class="cls-30" x="235.71" y="0">v</tspan><tspan class="cls-32" x="249.54" y="0">a</tspan><tspan x="265.65" y="0">tion</tspan><tspan class="cls-33" x="317.96" y="0">s</tspan><tspan x="332.58" y="0">, des </tspan><tspan class="cls-11" x="404.24" y="0">r</tspan><tspan x="414.71" y="0">ema</tspan><tspan class="cls-11" x="472.07" y="0">r</tspan><tspan x="482.54" y="0">que</tspan><tspan class="cls-18" x="533.27" y="0">s</tspan><tspan x="547.91" y="0">, des p</tspan><tspan class="cls-30" x="637.07" y="0">r</tspan><tspan class="cls-26" x="647.54" y="0">opositions</tspan></text><text class="cls-8" transform="translate(36 420)">A <tspan class="cls-11" x="27.87" y="0">r</tspan><tspan class="cls-26" x="38.34" y="0">e</tspan><tspan class="cls-20" x="54.36" y="0">m</tspan><tspan class="cls-24" x="79.53" y="0">plir d’ici au plus </tspan><tspan class="cls-29" x="302.54" y="0">t</tspan><tspan x="312.87" y="0">a</tspan><tspan class="cls-11" x="329" y="0">r</tspan><tspan x="339.47" y="0">d le </tspan></text><text class="cls-34" transform="translate(433.01 420)">XXX</text><path d="M107.31,55.26v4.8h-4.77v-4.8h-9.6V52l9-13.26h5.34v13h3.12v3.54Zm-4.53-12.09h-.06a10,10,0,0,1-1.2,2.16l-3,4.56a13.47,13.47,0,0,1-1.38,1.83h5.55V45.54C102.72,44.43,102.72,43.92,102.78,43.17ZM117.6,60.06h-5.13V55.14h5.13Zm28.44.75a6,6,0,0,0,1.68-.24V64.5a13.67,13.67,0,0,1-2.25.18c-3.6,0-5.94-1.53-7-4.11h-.42c-6.39,0-10.5-4.32-10.5-11.16s4.11-11.16,10.5-11.16,10.5,4.29,10.5,11.16c0,5-2.22,8.7-5.91,10.29A4.89,4.89,0,0,0,146,60.81Zm-7.95-4.2c3.33,0,5.28-2.7,5.28-7.2s-2-7.2-5.28-7.2-5.31,2.7-5.31,7.2S134.76,56.61,138.09,56.61Zm18.3-17.85V52.41a4,4,0,1,0,7.92,0V38.76h5.07V52.62c0,4.86-3.36,8-9,8s-9-3.09-9-8V38.76Zm31.86,17.55v3.75H173.46V38.76H188v3.75h-9.51v4.8h9V51h-9v5.28Zm1.38-.69L193.38,53a6.17,6.17,0,0,0,5.79,3.66c2,0,3.66-.75,3.66-2.43s-.93-2.19-3.09-2.64l-2.85-.6c-3.72-.81-5.88-2.82-5.88-6.39,0-3.9,3.18-6.33,8.31-6.33,3.78,0,7,1.38,8.46,4.23l-3.3,2.79A6,6,0,0,0,199,42c-2,0-3.3.84-3.3,2.19s.84,2.07,3.09,2.58l3.09.66c3.78.84,5.82,2.64,5.82,6.3,0,4.05-3.12,6.84-8.7,6.84C194.4,60.57,191.1,58.62,189.63,55.62Zm36.42-12.84h-6.21V60.06h-5V42.78h-6.18v-4h17.43Zm2.4,17.28V38.76h5.07v21.3Zm8.16-10.65c0-6.87,4.11-11.16,10.5-11.16s10.5,4.29,10.5,11.16-4.11,11.16-10.5,11.16S236.61,56.25,236.61,49.41Zm15.78,0c0-4.5-1.95-7.2-5.28-7.2s-5.31,2.7-5.31,7.2,2,7.2,5.31,7.2S252.39,53.91,252.39,49.41Zm8.31-10.65h5.61l6.84,12.15a22.16,22.16,0,0,1,1.29,2.76h.06c0-.84,0-1.71,0-2.73V38.76h4.65v21.3h-5.4l-7.08-12.27a18.35,18.35,0,0,1-1.26-2.61h-.06c0,.87,0,1.77,0,2.82V60.06H260.7Zm22.86,0h5.61L296,50.91a22.16,22.16,0,0,1,1.29,2.76h.06c0-.84,0-1.71,0-2.73V38.76H302v21.3h-5.4L289.5,47.79a18.35,18.35,0,0,1-1.26-2.61h-.06c0,.87,0,1.77,0,2.82V60.06h-4.65Zm35.61,16.32h-7.86l-1.62,5h-5.07l7.74-21.3h5.79l7.74,21.3h-5.1ZM318,51.51l-1.95-5.94a25.65,25.65,0,0,1-.78-3h-.06a20.83,20.83,0,0,1-.78,3l-1.95,5.94Zm10.5,8.55V38.76h5.07v21.3Zm17.64-8.16h-3.06v8.16H338V38.76h9.36c5.4,0,7.8,2.64,7.8,6.54A5.89,5.89,0,0,1,351,51.15l4.71,8.91h-5.49Zm-3.06-3.48h3.27c2.46,0,3.54-1.2,3.54-3.12s-1.05-3-3.54-3h-3.27Zm30.51,7.89v3.75H358.8V38.76h14.58v3.75h-9.51v4.8h9V51h-9v5.28Zm25.89,0v3.75H384.69V38.76h14.58v3.75h-9.51v4.8h9V51h-9v5.28Zm3.69-17.55h5.61l6.84,12.15a22.16,22.16,0,0,1,1.29,2.76H417c0-.84,0-1.71,0-2.73V38.76h4.65v21.3h-5.4l-7.08-12.27a18.35,18.35,0,0,1-1.26-2.61h-.06c0,.87,0,1.77,0,2.82V60.06h-4.65Zm30.27,0h5.07V56h8.64v4.11H433.44Zm16.62,21.3V38.76h5.06v21.3Zm8.16-10.62c0-6.69,4-11.19,10.55-11.19,5.58,0,8.61,3,9.27,6.54l-5,.93a4.1,4.1,0,0,0-4.29-3.66c-3.39,0-5.34,2.82-5.34,7.32s1.83,7.29,5.4,7.29a4.49,4.49,0,0,0,4.71-4.38v-.45h-5.25V48.21h9.87V60.06h-3.6l-.21-3.12c-1.08,2.28-3.45,3.63-6.66,3.63C461.79,60.57,458.22,56.19,458.22,49.44Zm23.69-10.68h5.61l6.84,12.15a22.16,22.16,0,0,1,1.29,2.76h.06c0-.84,0-1.71,0-2.73V38.76h4.65v21.3h-5.4l-7.08-12.27a18.35,18.35,0,0,1-1.26-2.61h-.06c0,.87,0,1.77,0,2.82V60.06h-4.65Zm37.65,17.55v3.75H504.77V38.76h14.58v3.75h-9.51v4.8h9V51h-9v5.28Z"/></g></g></svg>