<svg id="Calque_1" data-name="Calque 1" xmlns="http://www.w3.org/2000/svg" xmlns:xlink="http://www.w3.org/1999/xlink" viewBox="0 0 1190.55 841.89"><defs><style>.cls-1{fill:none;}.cls-2{clip-path:url(#clip-path);}.cls-20,.cls-21,.cls-3,.cls-34,.cls-46{font-size:30px;}.cls-3{font-family:GTAmerica-Bold, GT America;font-weight:700;}.cls-4{letter-spacing:-0.02em;}.cls-5{letter-spacing:0.01em;}.cls-6{letter-spacing:0em;}.cls-7{letter-spacing:-0.02em;}.cls-8{letter-spacing:-0.09em;}.cls-9{letter-spacing:0em;}.cls-10{letter-spacing:0.02em;}.cls-11{letter-spacing:-0.01em;}.cls-12{letter-spacing:0.01em;}.cls-13{clip-path:url(#clip-path-3);}.cls-14{opacity:0.6;}.cls-15{clip-path:url(#clip-path-4);}.cls-16{fill:#eadfde;}.cls-17{clip-path:url(#clip-path-5);}.cls-18{clip-path:url(#clip-path-6);}.cls-19{clip-path:url(#clip-path-7);}.cls-20,.cls-21,.cls-34,.cls-46{font-family:GTAmerica-Light, GT America;font-weight:300;}.cls-21{letter-spacing:0.3em;}.cls-22{letter-spacing:-0.02em;}.cls-23{letter-spacing:0em;}.cls-24{letter-spacing:0.02em;}.cls-25{letter-spacing:0em;}.cls-26{letter-spacing:0em;}.cls-27{letter-spacing:-0.01em;}.cls-28{letter-spacing:-0.01em;}.cls-29{letter-spacing:-0.01em;}.cls-30{letter-spacing:0.15em;}.cls-31{letter-spacing:-0.01em;}.cls-32{letter-spacing:0em;}.cls-33{letter-spacing:-0.02em;}.cls-34{letter-spacing:-0.12em;}.cls-35{letter-spacing:0em;}.cls-36{letter-spacing:-0.01em;}.cls-37{letter-spacing:0.02em;}.cls-38{letter-spacing:-0.01em;}.cls-39{letter-spacing:-0.01em;}.cls-40{letter-spacing:0em;}.cls-41{letter-spacing:0.93em;}.cls-42{letter-spacing:0.93em;}.cls-43{letter-spacing:0.93em;}.cls-44{letter-spacing:0em;}.cls-45{letter-spacing:-0.01em;}.cls-46{fill:#e5007d;}.cls-47{letter-spacing:-0.01em;}.cls-48{letter-spacing:0em;}.cls-49{letter-spacing:0.13em;}.cls-50{letter-spacing:-0.01em;}</style><clipPath id="clip-path"><rect class="cls-1" width="1190.55" height="841.89"/></clipPath><clipPath id="clip-path-3"><rect class="cls-1" width="1190.55" height="841.89"/></clipPath><clipPath id="clip-path-4"><rect class="cls-1" x="27" y="185.92" width="1136.55" height="58.86"/></clipPath><clipPath id="clip-path-5"><rect class="cls-1" x="27" y="257.49" width="1136.55" height="58.86"/></clipPath><clipPath id="clip-path-6"><rect class="cls-1" x="27" y="329.07" width="1136.55" height="58.86"/></clipPath><clipPath id="clip-path-7"><rect class="cls-1" x="27" y="583.48" width="1136.55" height="58.86"/></clipPath></defs><title>Plan de travail</title><g class="cls-2"><g class="cls-2"><text class="cls-3" transform="translate(92.63 60.05)">O<tspan class="cls-4" x="22.74" y="0">R</tspan><tspan class="cls-5" x="43.02" y="0">G</tspan><tspan class="cls-6" x="65.55" y="0">ANI</tspan><tspan class="cls-7" x="120" y="0">S</tspan><tspan class="cls-8" x="138.33" y="0">A</tspan><tspan class="cls-9" x="157.68" y="0">TION DE </tspan><tspan class="cls-10" x="286.02" y="0">L</tspan><tspan x="303.03" y="0">A DISC</tspan><tspan class="cls-11" x="404.49" y="0">U</tspan><tspan class="cls-12" x="426.08" y="0">S</tspan><tspan x="445.17" y="0">SION</tspan></text><g class="cls-13"><g class="cls-14"><g class="cls-15"><rect class="cls-16" x="36" y="192.92" width="1118.55" height="50.86"/></g></g><g class="cls-14"><g class="cls-17"><rect class="cls-16" x="36" y="264.5" width="1118.55" height="50.86"/></g></g><g class="cls-14"><g class="cls-18"><rect class="cls-16" x="36" y="336.07" width="1118.55" height="50.86"/></g></g><g class="cls-14"><g class="cls-19"><rect class="cls-16" x="36" y="590.48" width="1118.55" height="50.86"/></g></g></g><text class="cls-20" transform="translate(36 228)">1.</text><text class="cls-21" transform="translate(54.93 228)"> <tspan class="cls-6" x="17.07" y="0"> </tspan></text><text class="cls-20" transform="translate(108 228)"><tspan class="cls-22">R</tspan><tspan x="19.26" y="0">e</tspan><tspan class="cls-23" x="35.28" y="0">s</tspan><tspan class="cls-9" x="50.1" y="0">titution de la séance de conce</tspan><tspan class="cls-24" x="457.61" y="0">r</tspan><tspan class="cls-23" x="468.83" y="0">t</tspan><tspan class="cls-25" x="479.18" y="0">a</tspan><tspan x="495.26" y="0">tion I du 10 o</tspan><tspan class="cls-26" x="670.31" y="0">c</tspan><tspan class="cls-27" x="686.06" y="0">t</tspan><tspan x="696.35" y="0">ob</tspan><tspan class="cls-28" x="730.64" y="0">r</tspan><tspan class="cls-9" x="741.11" y="0">e </tspan><tspan class="cls-29" x="765.08" y="0">2</tspan><tspan class="cls-9" x="781.01" y="0">0</tspan><tspan class="cls-29" x="800.03" y="0">2</tspan><tspan x="815.96" y="0">0</tspan></text><text class="cls-20" transform="translate(36 300)">2.</text><text class="cls-20" transform="translate(59.4 300)"><tspan class="cls-30"> </tspan><tspan x="12.6" y="0"> </tspan></text><text class="cls-20" transform="translate(108 300)">Ide<tspan class="cls-31" x="42.27" y="0">n</tspan><tspan x="59.4" y="0">tiﬁc</tspan><tspan class="cls-25" x="111.42" y="0">a</tspan><tspan x="127.5" y="0">tion des thèmes </tspan><tspan class="cls-32" x="352.5" y="0">e</tspan><tspan class="cls-9" x="368.49" y="0">t enjeux</tspan></text><text class="cls-20" transform="translate(36 372)"><tspan class="cls-33">3</tspan><tspan x="16.5" y="0">. </tspan></text><text class="cls-34" transform="translate(67.56 372)"> <tspan class="cls-6" x="4.44" y="0"> </tspan></text><text class="cls-20" transform="translate(108 372)">P<tspan class="cls-28" x="18.24" y="0">r</tspan><tspan class="cls-9" x="28.71" y="0">ése</tspan><tspan class="cls-31" x="75.69" y="0">n</tspan><tspan class="cls-35" x="92.82" y="0">t</tspan><tspan class="cls-32" x="103.14" y="0">a</tspan><tspan x="119.25" y="0">tion </tspan><tspan class="cls-25" x="179.52" y="0">e</tspan><tspan x="195.48" y="0">t discu</tspan><tspan class="cls-36" x="287.25" y="0">s</tspan><tspan x="301.98" y="0">sion au</tspan><tspan class="cls-28" x="400.07" y="0">t</tspan><tspan class="cls-9" x="410.33" y="0">our de 4 scénario</tspan><tspan class="cls-31" x="645.2" y="0">s</tspan><tspan x="659.84" y="0">, di</tspan><tspan class="cls-37" x="700.37" y="0">f</tspan><tspan class="cls-38" x="711.26" y="0">f</tspan><tspan x="721.04" y="0">é</tspan><tspan class="cls-28" x="737.06" y="0">r</tspan><tspan x="747.53" y="0">e</tspan><tspan class="cls-39" x="763.55" y="0">n</tspan><tspan class="cls-40" x="780.71" y="0">t</tspan><tspan x="791.09" y="0">s </tspan><tspan class="cls-26" x="813.98" y="0">e</tspan><tspan x="829.97" y="0">t co</tspan><tspan class="cls-39" x="880.82" y="0">n</tspan><tspan x="897.98" y="0">t</tspan><tspan class="cls-39" x="908.45" y="0">r</tspan><tspan x="918.86" y="0">a</tspan><tspan class="cls-23" x="935" y="0">s</tspan><tspan class="cls-27" x="949.81" y="0">t</tspan><tspan x="960.1" y="0">és</tspan></text><text class="cls-20" transform="translate(36 444)"><tspan class="cls-41"> </tspan><tspan class="cls-42" x="36" y="0" xml:space="preserve">  </tspan><tspan class="cls-43" x="107.94" y="0"> </tspan><tspan x="143.94" y="0"> </tspan></text><text class="cls-20" transform="translate(216 444)">Scénario « Une esplan<tspan class="cls-23" x="302.73" y="0">a</tspan><tspan x="318.75" y="0">de pour le qua</tspan><tspan class="cls-24" x="513.23" y="0">r</tspan><tspan x="524.45" y="0">tier » - 15</tspan><tspan class="cls-44" x="648.77" y="0">m</tspan><tspan x="673.91" y="0">n</tspan></text><text class="cls-20" transform="translate(36 480)"><tspan class="cls-41"> </tspan><tspan class="cls-42" x="36" y="0" xml:space="preserve">  </tspan><tspan class="cls-43" x="107.94" y="0"> </tspan><tspan x="143.94" y="0"> </tspan></text><text class="cls-20" transform="translate(216 480)">Scénario « Une pièce de n<tspan class="cls-25" x="352.71" y="0">a</tspan><tspan x="368.79" y="0">tu</tspan><tspan class="cls-45" x="396.48" y="0">r</tspan><tspan x="406.92" y="0">e » - 15</tspan><tspan class="cls-32" x="502.31" y="0">m</tspan><tspan x="527.48" y="0">n</tspan></text><text class="cls-20" transform="translate(36 516)"><tspan class="cls-41"> </tspan><tspan class="cls-42" x="36" y="0" xml:space="preserve">  </tspan><tspan class="cls-43" x="107.94" y="0"> </tspan><tspan x="143.94" y="0"> </tspan></text><text class="cls-20" transform="translate(216 516)">Scénario « Une pl<tspan class="cls-23" x="238.2" y="0">a</tspan><tspan class="cls-9" x="254.22" y="0">ce animée » - 15</tspan><tspan class="cls-32" x="471.92" y="0">m</tspan><tspan x="497.09" y="0">n</tspan></text><text class="cls-20" transform="translate(36 552)"><tspan class="cls-41"> </tspan><tspan class="cls-42" x="36" y="0" xml:space="preserve">  </tspan><tspan class="cls-43" x="107.94" y="0"> </tspan><tspan x="143.94" y="0"> </tspan></text><text class="cls-20" transform="translate(216 552)">Scénario « </text><text class="cls-46" transform="translate(365.91 552)">Un pa<tspan class="cls-28" x="80.34" y="0">r</tspan><tspan class="cls-9" x="90.81" y="0">c ou</tspan><tspan class="cls-47" x="148.41" y="0">v</tspan><tspan x="162.3" y="0">e</tspan><tspan class="cls-24" x="178.32" y="0">r</tspan><tspan x="189.54" y="0">t </tspan><tspan class="cls-26" x="207.96" y="0">e</tspan><tspan x="223.95" y="0">t habi</tspan><tspan class="cls-27" x="301.5" y="0">t</tspan><tspan x="311.79" y="0">é</tspan></text><text class="cls-20" transform="translate(693.63 552)"><tspan xml:space="preserve"> » - 15</tspan><tspan class="cls-48" x="79.38" y="0">m</tspan><tspan class="cls-9" x="104.55" y="0">n</tspan></text><text class="cls-20" transform="translate(36 624)"><tspan class="cls-39">4</tspan><tspan x="17.13" y="0">.</tspan></text><text class="cls-20" transform="translate(60.24 624)"><tspan class="cls-49"> </tspan><tspan x="11.76" y="0"> </tspan></text><text class="cls-20" transform="translate(108 624)">Bilan de la discu<tspan class="cls-45" x="224.22" y="0">s</tspan><tspan x="238.92" y="0">sion </tspan><tspan class="cls-25" x="303.66" y="0">e</tspan><tspan x="319.62" y="0">t que</tspan><tspan class="cls-23" x="388.76" y="0">s</tspan><tspan x="403.58" y="0">tio</tspan><tspan class="cls-32" x="438.47" y="0">n</tspan><tspan x="455.87" y="0">nai</tspan><tspan class="cls-50" x="497.21" y="0">r</tspan><tspan x="507.65" y="0">e en li</tspan><tspan class="cls-27" x="588.86" y="0">g</tspan><tspan x="604.64" y="0">ne</tspan></text><g class="cls-13"><path d="M182.32,508.05l.33-1c-.92-2.95-1.71-5.95-2.78-8.85a9.18,9.18,0,0,1,.5-7.59c5.83-12.61,4.83-24.84-3.43-36-8.1-10.91-19.31-15.57-32.8-13.68-14.09,2-23.85,10-28.33,23.37-4.37,13.06-1.73,25.27,8,35.24,9.9,10.13,22.33,13.65,35.55,8.87,7.94-2.88,15-5,22.94-.42m-62.52-6.88c-7.91-9.48-11.26-20.1-9.28-32.1s8.85-21.06,19.2-27.63c-8.21-12.94-19.39-21.17-34.35-23.26-18.52-2.6-33.86,4-45.08,18.68-11,14.47-12.63,30.67-5.49,47.46a11,11,0,0,1,.54,8.31c-1.39,4.21-2.69,8.45-4.16,13.11,5.61-.78,10.73-1.62,15.87-2.15a7.47,7.47,0,0,1,4.48,1A49.31,49.31,0,0,0,81,512.26c14.52,2.07,27.37-1.66,38.77-11.09m13.58-61.58c12.29-5,24.15-4.28,35.48,2.2,17.09,9.76,23.92,31.73,15.88,49.82a11.28,11.28,0,0,0-.42,6.52c.74,3.47,2.24,6.78,3.24,10.22.31,1.07.53,2.81,0,3.34s-2.31.47-3.43.21c-4.05-.93-8-2.11-12.09-3a5.77,5.77,0,0,0-3.57.25c-16.24,8.28-31.41,6.56-45.86-4.83-1.92,1.37-3.88,2.95-6,4.26-18.45,11.28-37,11.36-55.83.76A10.58,10.58,0,0,0,55,508.05c-5.17.45-10.3,1.37-15.45,2.08-3.13.43-4.12-.64-3.2-3.65,1.59-5.19,3.39-10.31,4.89-15.52a6.67,6.67,0,0,0-.28-4.21,51.54,51.54,0,0,1,45.85-72.87c18.21-.42,32.67,6.9,43.55,21.43,1,1.29,1.87,2.63,3,4.28"/><path d="M71.5,467.05a4.17,4.17,0,1,1-4.17-4.17,4.17,4.17,0,0,1,4.17,4.17"/><path d="M91.52,467.05a4.17,4.17,0,1,1-4.17-4.17,4.17,4.17,0,0,1,4.17,4.17"/><path d="M108.65,467.05a4.17,4.17,0,1,1-4.17-4.17,4.17,4.17,0,0,1,4.17,4.17"/><path d="M136.94,476.68a4.17,4.17,0,1,1-4.17-4.17,4.17,4.17,0,0,1,4.17,4.17"/><path d="M150.83,476.68a4.17,4.17,0,1,1-4.17-4.17,4.17,4.17,0,0,1,4.17,4.17"/><path d="M165.18,476.68a4.17,4.17,0,1,1-4.17-4.17,4.17,4.17,0,0,1,4.17,4.17"/></g></g></g></svg>