<svg id="Calque_1" data-name="Calque 1" xmlns="http://www.w3.org/2000/svg" xmlns:xlink="http://www.w3.org/1999/xlink" viewBox="0 0 1190.55 841.89"><defs><style>.cls-1{fill:none;}.cls-2{clip-path:url(#clip-path);}</style><clipPath id="clip-path"><rect class="cls-1" width="1190.55" height="841.89"/></clipPath></defs><g class="cls-2"><path d="M93.5,56.51A45.06,45.06,0,0,0,101,51c2-2,2.85-3.6,2.85-5.73s-1-3.24-2.7-3.24-2.82,1.2-2.82,3.18a10.13,10.13,0,0,0,.21,1.71l-4.92-.45a8.15,8.15,0,0,1-.18-1.65c0-4,3.06-6.6,8-6.6S109,40.67,109,44.93c0,2.88-1.23,5.31-3.75,7.65a28.91,28.91,0,0,1-5.19,3.63h9.12v3.84H93.5Zm24,3.54h-5.13V55.13h5.13Zm11.34,0V38.75h5.07v21.3Zm9.51-21.3h8.49c6.39,0,10.53,4.26,10.53,10.53s-4.14,10.77-10.59,10.77h-8.43Zm8.22,17.58c3.6,0,5.58-3.24,5.58-7s-1.86-6.81-5.52-6.81h-3.21V56.33Zm28.68,0v3.75H160.43V38.75H175V42.5H165.5v4.8h9V51h-9V56.3Zm3.69-17.55h5.61l6.84,12.15a22.16,22.16,0,0,1,1.29,2.76h.06c0-.84,0-1.71,0-2.73V38.75h4.65v21.3h-5.4l-7.08-12.27a18.35,18.35,0,0,1-1.26-2.61h-.06c0,.87,0,1.77,0,2.82V60.05h-4.65Zm38.28,4H211V60.05h-5V42.77h-6.18v-4h17.43Zm2.4,17.28V38.75h5.07v21.3Zm14.58-17.46v4.92h9v3.78h-9v8.76H229.1V38.75h14.58v3.84Zm12.54,17.46V38.75h5.07v21.3Zm8.16-10.62c0-6.72,4-11.19,10.44-11.19,5.43,0,8.85,3,9.42,7.65l-5.13.9c-.3-2.82-1.86-4.47-4.41-4.47-3.24,0-5.13,2.73-5.13,7.08s1.92,7.05,5.28,7.05c2.37,0,4-1.62,4.38-4.38l5.13,1.11c-1,4.5-4.32,7.38-9.6,7.38C258.5,60.56,254.87,56.15,254.87,49.43Zm34.91,5.64h-7.86l-1.62,5h-5.07L283,38.75h5.79l7.74,21.3h-5.1Zm-1.17-3.57-1.95-5.94a25.65,25.65,0,0,1-.78-3h-.06a20.83,20.83,0,0,1-.78,3l-2,5.94Zm23.19-8.73h-6.21V60.05h-5V42.77h-6.18v-4H311.8Zm2.4,17.28V38.75h5.07v21.3Zm8.16-10.65c0-6.87,4.11-11.16,10.5-11.16s10.5,4.29,10.5,11.16-4.11,11.16-10.5,11.16S322.36,56.24,322.36,49.4Zm15.78,0c0-4.5-1.95-7.2-5.28-7.2s-5.31,2.7-5.31,7.2,2,7.2,5.31,7.2S338.14,53.9,338.14,49.4Zm8.31-10.65h5.61L358.9,50.9a22.16,22.16,0,0,1,1.29,2.76h.06c0-.84,0-1.71,0-2.73V38.75h4.65v21.3h-5.4l-7.08-12.27a18.35,18.35,0,0,1-1.26-2.61h-.06c0,.87,0,1.77,0,2.82V60.05h-4.65Zm30.27,0h8.49c6.39,0,10.53,4.26,10.53,10.53s-4.14,10.77-10.59,10.77h-8.43Zm8.22,17.58c3.6,0,5.58-3.24,5.58-7s-1.86-6.81-5.52-6.81h-3.21V56.33Zm28.68,0v3.75H398.83V38.75h14.58V42.5H403.9v4.8h9V51h-9V56.3Zm1.38-.69L418.75,53a6.17,6.17,0,0,0,5.79,3.66c2,0,3.66-.75,3.66-2.43s-.93-2.19-3.09-2.64l-2.85-.6c-3.72-.81-5.88-2.82-5.88-6.39,0-3.9,3.18-6.33,8.31-6.33,3.78,0,7,1.38,8.46,4.23l-3.3,2.79A6,6,0,0,0,424.36,42c-2,0-3.3.84-3.3,2.19s.84,2.07,3.09,2.58l3.09.66c3.78.84,5.82,2.64,5.82,6.3,0,4.05-3.12,6.84-8.7,6.84C419.77,60.56,416.47,58.61,415,55.61Zm43.89-12.84h-6.21V60.05h-5V42.77h-6.18v-4h17.43Zm20.73,17.28h-5.07V51.2h-8.19v8.85h-5.07V38.75h5.07V47.3h8.19V38.75h5.07Zm19.23-3.75v3.75H484.06V38.75h14.58V42.5h-9.51v4.8h9V51h-9V56.3Zm-9.27-18.84-3.48-3.54h4.17l3,3.54Zm13,1.29h7l3.93,13a14.92,14.92,0,0,1,.51,2.58H514a16.5,16.5,0,0,1,.54-2.64l3.75-13h7.05v21.3h-4.62V45.53a21.43,21.43,0,0,1,.12-2.4h-.09a12.12,12.12,0,0,1-.45,2.07L516,60.05h-4.26L507.28,45.2a10,10,0,0,1-.45-2h-.09c.06.72.12,1.53.12,2.37V60.05h-4.32Zm42,17.55v3.75H529.78V38.75h14.58V42.5h-9.51v4.8h9V51h-9V56.3Zm1.38-.69L549.7,53a6.17,6.17,0,0,0,5.79,3.66c2,0,3.66-.75,3.66-2.43s-.93-2.19-3.09-2.64l-2.85-.6c-3.72-.81-5.88-2.82-5.88-6.39,0-3.9,3.18-6.33,8.31-6.33,3.78,0,7,1.38,8.46,4.23l-3.3,2.79A6,6,0,0,0,555.31,42c-2,0-3.3.84-3.3,2.19s.84,2.07,3.09,2.58l3.09.66c3.78.84,5.82,2.64,5.82,6.3,0,4.05-3.12,6.84-8.7,6.84C550.72,60.56,547.42,58.61,546,55.61Zm43.26.69v3.75H574.42V38.75H589V42.5h-9.51v4.8h9V51h-9V56.3Zm19.23-13.53h-6.21V60.05h-5V42.77H591v-4h17.43ZM633,56.3v3.75H618.25V38.75h14.58V42.5h-9.51v4.8h9V51h-9V56.3Zm3.69-17.55h5.61l6.84,12.15a22.16,22.16,0,0,1,1.29,2.76h.06c0-.84,0-1.71,0-2.73V38.75h4.65v21.3h-5.4l-7.08-12.27a18.35,18.35,0,0,1-1.26-2.61h-.06c0,.87,0,1.77,0,2.82V60.05h-4.65ZM661,60.41a16,16,0,0,1-3.15-.27V56a15.56,15.56,0,0,0,2,.15c1.92,0,3.09-.9,3.09-3.42v-14h5.07v15C668.08,58.37,665.32,60.41,661,60.41ZM687,56.3v3.75H672.16V38.75h14.58V42.5h-9.51v4.8h9V51h-9V56.3Zm8.4-17.55V52.4a4,4,0,1,0,7.92,0V38.75h5.07V52.61c0,4.86-3.36,8-9,8s-9-3.09-9-8V38.75ZM717.22,49l-6.63-10.23h5.61l3.51,6a6.82,6.82,0,0,1,.63,1.35h.06a6.82,6.82,0,0,1,.63-1.35l3.6-6h5.49l-6.6,10.53,7.11,10.77h-5.7l-3.87-6.3a8.37,8.37,0,0,1-.84-1.59h-.06a8.27,8.27,0,0,1-.81,1.65l-3.69,6.24h-5.49Z"/><path d="M93.77,94.22a71,71,0,0,0,7.5-6.36c2.52-2.61,3.48-4.59,3.48-7.17,0-2.85-1.56-4.53-4.2-4.53a4,4,0,0,0-4.29,4.29,10.11,10.11,0,0,0,.24,1.92l-2.22-.21a6.9,6.9,0,0,1-.21-1.74c0-3.78,2.46-6.18,6.6-6.18,4,0,6.39,2.31,6.39,6.42,0,2.94-1.38,5.52-4.38,8.52a44.1,44.1,0,0,1-5.94,4.89h10.65v2H93.77Zm20.1,1.83h-2.82V92.69h2.82ZM128,90.29v5.76h-2.1V90.29h-10V88.76l9.63-14H128v13.8h3.45v1.74ZM126,77h-.06a11.48,11.48,0,0,1-1.29,2.34l-4.74,7a19.66,19.66,0,0,1-1.68,2.28h7.71V79.73C125.9,78.32,125.9,77.93,126,77Zm30.51,17.1v2h-13.2V74.75h13v2H145.58v7.41h10.17v2H145.58v7.95Zm5.13-19.32h2.82L174.29,91a19.23,19.23,0,0,1,1.26,2.46h.06c-.06-.81-.09-1.47-.09-2.61V74.75h2.1v21.3H174.8l-9.87-16.29a16,16,0,0,1-1.26-2.46h-.06c.06.72.09,1.47.09,2.61V96.05h-2.1Zm19.35,0h2.46l5.46,16a24.45,24.45,0,0,1,.87,3h.09a24.45,24.45,0,0,1,.87-3l5.46-16h2.46l-7.56,21.3h-2.55Zm21,21.3V74.75h2.31v21.3ZM217.76,87h-4.89v9.09h-2.31V74.75h7.62c5.49,0,6.93,3.06,6.93,6.09a5.65,5.65,0,0,1-4.89,5.82l5.55,9.39h-2.64Zm-4.89-2H218c3.45,0,4.68-1.83,4.68-4.14s-1.2-4.11-4.68-4.11h-5.1Zm15.26.42c0-6.93,3.78-11.16,9.6-11.16s9.6,4.23,9.6,11.16-3.78,11.16-9.6,11.16S228.13,92.18,228.13,85.4Zm16.77,0c0-5.64-2.67-9.18-7.17-9.18s-7.17,3.54-7.17,9.18,2.7,9.18,7.17,9.18S244.9,91,244.9,85.4ZM252,74.75h2.82L264.67,91a19.23,19.23,0,0,1,1.26,2.46H266c-.06-.81-.09-1.47-.09-2.61V74.75H268v21.3h-2.82l-9.87-16.29a16,16,0,0,1-1.26-2.46H254c.06.72.09,1.47.09,2.61V96.05H252Zm22.32,0h2.82L287,91a19.23,19.23,0,0,1,1.26,2.46h.06c-.06-.81-.09-1.47-.09-2.61V74.75h2.1v21.3H287.5l-9.87-16.29a16,16,0,0,1-1.26-2.46h-.06c.06.72.09,1.47.09,2.61V96.05h-2.1Zm35.52,19.32v2h-13.2V74.75h13v2H298.93v7.41H309.1v2H298.93v7.95ZM315,74.75h3.27l6.21,17a8.19,8.19,0,0,1,.51,1.83H325a8.48,8.48,0,0,1,.54-1.83l6.18-17H335v21.3h-2.16v-17a15.7,15.7,0,0,1,.12-2.13h-.12a19.8,19.8,0,0,1-.6,2.25l-6.15,16.86h-2.25l-6.15-16.86a15.51,15.51,0,0,1-.63-2.25H317c.06.66.09,1.35.09,2.13v17H315Zm39.57,19.32v2h-13.2V74.75h13v2H343.63v7.41H353.8v2H343.63v7.95Zm5.13-19.32h2.82L372.34,91a19.23,19.23,0,0,1,1.26,2.46h.06c-.06-.81-.09-1.47-.09-2.61V74.75h2.1v21.3h-2.82L363,79.76a16,16,0,0,1-1.26-2.46h-.06c.06.72.09,1.47.09,2.61V96.05h-2.1Zm35.55,2h-6.87V96.05H386V76.73h-6.87v-2H395.2Z"/><path d="M53,164.24V168H38.21v-21.3H52.78v3.75h-9.5v4.8h9V159h-9v5.28Z"/><path d="M56.47,153h4.62v2.88a5.17,5.17,0,0,1,5-3.24c3.24,0,4.89,2.07,4.89,6.06V168h-4.8v-8.64c0-2.07-.72-3.06-2.25-3.06s-2.61,1.29-2.61,3.6V168H56.47Z"/><path d="M71.72,173.87v-3.45a10.92,10.92,0,0,0,1.29.06c1.41,0,1.92-.54,1.92-2.52V153h4.79v15.3c0,3.6-1.34,5.76-5.75,5.76A15.17,15.17,0,0,1,71.72,173.87Zm3.09-27.42h5v4.38h-5Z"/><path d="M97.57,161.57H87.16a3.23,3.23,0,0,0,3.45,3.33,3.48,3.48,0,0,0,3.27-2.1l3.54,1.62a7.33,7.33,0,0,1-6.87,3.93c-5,0-8-2.85-8-7.71s2.94-8,7.62-8,7.35,2.73,7.35,7.5Zm-4.65-2.82c0-2.13-1-3.27-2.79-3.27s-2.91,1.26-3,3.39h5.76Z"/><path d="M100.36,162.71V153h4.8v8.88c0,1.86.75,2.82,2.16,2.82,1.57,0,2.52-1.23,2.52-3.12V153h4.83v15h-4.59v-2.73a4.84,4.84,0,0,1-4.68,3.09C101.86,168.35,100.36,166.22,100.36,162.71Z"/><path d="M122.39,160.19l-5.11-7.2h5.34l1.83,3a5.8,5.8,0,0,1,.72,1.53h.06A6.53,6.53,0,0,1,126,156l1.77-3h5.07l-5,7.14,5.52,7.86H128l-2.19-3.42A5.74,5.74,0,0,1,125,163h-.06a8.75,8.75,0,0,1-.81,1.56L121.9,168h-5Z"/><path d="M148,168h-4.82V146.24H148Z"/><path d="M152.08,146.45h5v4.38h-5Zm.09,6.54H157v15h-4.83Z"/><path d="M174.85,161.57H164.44a3.23,3.23,0,0,0,3.45,3.33,3.48,3.48,0,0,0,3.27-2.1l3.54,1.62a7.33,7.33,0,0,1-6.87,3.93c-5,0-8-2.85-8-7.71s2.94-8,7.62-8,7.35,2.73,7.35,7.5Zm-4.65-2.82c0-2.13-1-3.27-2.79-3.27s-2.91,1.26-3,3.39h5.76Zm-.93-7.77h-3.69l3.3-4.68h4.53Z"/><path d="M176.29,164.87l2.76-2a5.56,5.56,0,0,0,4.74,2.25c1.65,0,2.43-.54,2.43-1.35s-.48-1.11-2.13-1.35l-2.34-.42c-3.09-.51-4.65-2-4.65-4.59,0-2.85,2.49-4.74,6.6-4.74,3,0,5.55,1,6.78,2.79L188,157.64a6.17,6.17,0,0,0-4.56-1.8c-1.41,0-2.1.42-2.1,1.26s.48,1,1.65,1.23l3,.51c3.09.51,4.38,2,4.38,4.56,0,3-2.4,4.95-6.63,4.95C180.43,168.35,177.7,167.15,176.29,164.87Z"/><path d="M199.3,163.91a3.74,3.74,0,0,1,1.53-3.24,10.57,10.57,0,0,1,4.71-1.47l3.63-.51v-.51c0-1.71-.72-2.46-2.22-2.46a2.16,2.16,0,0,0-2.4,2.22h-4.77c.24-3.33,2.94-5.31,7.2-5.31,4.83,0,7,1.89,7,6.21v5a16.32,16.32,0,0,0,.42,4.17h-4.68a14.39,14.39,0,0,1-.24-2.37c-.75,1.68-2.67,2.73-5,2.73C201.37,168.35,199.3,166.58,199.3,163.91ZM205.24,151l-4.17-4.68h4.53l3.3,4.68Zm4.08,11.28v-1.2l-2.58.42c-1.77.33-2.58,1-2.58,2.07s.84,1.74,2.1,1.74A2.89,2.89,0,0,0,209.32,162.26Z"/><path d="M230.11,168h-4.83V146.24h4.83Z"/><path d="M234.22,154.28c1.74-.57,2.16-1.26,2.16-2.61v-.06H234v-4.92h5.13v4.65c0,2.46-1.08,4-3.9,4.89Z"/><path d="M254.74,161.57H244.33a3.23,3.23,0,0,0,3.45,3.33,3.48,3.48,0,0,0,3.27-2.1l3.54,1.62a7.33,7.33,0,0,1-6.87,3.93c-4.95,0-7.95-2.85-7.95-7.71s2.94-8,7.62-8,7.35,2.73,7.35,7.5Zm-4.65-2.82c0-2.13-1-3.27-2.79-3.27s-2.91,1.26-3,3.39h5.76Z"/><path d="M257.77,153h4.62v2.88a5.16,5.16,0,0,1,5-3.24c3.24,0,4.89,2.07,4.89,6.06V168h-4.8v-8.64c0-2.07-.72-3.06-2.25-3.06s-2.61,1.29-2.61,3.6V168h-4.83Z"/><path d="M273.7,153h4.95l2.43,8.85a18,18,0,0,1,.45,2.13h.06a13.48,13.48,0,0,1,.45-2.13l2.43-8.85h4.95l-5.25,15h-5.25Z"/><path d="M291.46,146.45h5v4.38h-5Zm.09,6.54h4.83v15h-4.83Z"/><path d="M309.94,152.63h.3v4.59a8.44,8.44,0,0,0-.9,0,4.32,4.32,0,0,0-2.91.9,4.93,4.93,0,0,0-1.2,3.78V168H300.4V153h4.53v3.87C305.71,154.16,307.36,152.63,309.94,152.63Z"/><path d="M311.5,160.46c0-5.16,3.36-7.83,7.77-7.83s7.8,2.67,7.8,7.83-3.36,7.89-7.8,7.89S311.5,165.62,311.5,160.46Zm10.77,0c0-3.09-1.11-4.5-3-4.5s-3,1.41-3,4.5,1.11,4.56,3,4.56S322.27,163.52,322.27,160.46Z"/><path d="M330,153h4.62v2.88a5.16,5.16,0,0,1,5-3.24c3.24,0,4.89,2.07,4.89,6.06V168h-4.8v-8.64c0-2.07-.72-3.06-2.25-3.06s-2.61,1.29-2.61,3.6V168H330Z"/><path d="M348.22,153h4.62v2.88a5.16,5.16,0,0,1,5-3.24c3.24,0,4.89,2.07,4.89,6.06V168h-4.8v-8.64c0-2.07-.72-3.06-2.25-3.06-1.68,0-2.61,1.29-2.61,3.6V168h-4.83Z"/><path d="M380.32,161.57H369.91a3.23,3.23,0,0,0,3.45,3.33,3.48,3.48,0,0,0,3.27-2.1l3.54,1.62a7.33,7.33,0,0,1-6.87,3.93c-4.95,0-7.95-2.85-7.95-7.71s2.94-8,7.62-8,7.35,2.73,7.35,7.5Zm-4.65-2.82c0-2.13-1-3.27-2.79-3.27s-2.91,1.26-3,3.39h5.76Z"/><path d="M388,153v2.7a4.68,4.68,0,0,1,4.62-3.06,4.12,4.12,0,0,1,4.26,3.09,5.06,5.06,0,0,1,4.8-3.09c2.91,0,4.62,2,4.62,5.55V168h-4.8V159.2c0-2-.63-2.91-2-2.91s-2.25,1.08-2.25,3.09V168h-4.8v-8.82c0-1.95-.66-2.88-2-2.88s-2.25,1.11-2.25,3.12V168h-4.83V153Z"/><path d="M423.88,161.57H413.47a3.23,3.23,0,0,0,3.45,3.33,3.48,3.48,0,0,0,3.27-2.1l3.54,1.62a7.33,7.33,0,0,1-6.87,3.93c-4.95,0-7.95-2.85-7.95-7.71s2.94-8,7.62-8,7.35,2.73,7.35,7.5Zm-4.65-2.82c0-2.13-1-3.27-2.79-3.27s-2.91,1.26-3,3.39h5.76Z"/><path d="M426.91,153h4.62v2.88a5.16,5.16,0,0,1,5-3.24c3.24,0,4.89,2.07,4.89,6.06V168h-4.8v-8.64c0-2.07-.72-3.06-2.25-3.06-1.68,0-2.61,1.29-2.61,3.6V168h-4.83Z"/><path d="M443,153h2.61v-3.6l4.8-1.86V153H454v3.21h-3.57V162a2,2,0,0,0,2.19,2.28,6.27,6.27,0,0,0,1.38-.15V168a13.74,13.74,0,0,1-2.73.3c-4,0-5.64-1.8-5.64-5.1v-7H443Z"/><path d="M468.91,165.71l-.3,2.28h-4.29V146.24h4.83V155a4.85,4.85,0,0,1,4.44-2.4c3.69,0,6,3.12,6,7.86s-2.4,7.86-6.18,7.86A4.82,4.82,0,0,1,468.91,165.71Zm5.76-5.22c0-2.85-1-4.53-2.88-4.5s-2.76,1.47-2.76,3.87v1.26c0,2.43,1,3.9,2.79,3.9S474.67,163.4,474.67,160.49Z"/><path d="M481.48,163.91a3.74,3.74,0,0,1,1.53-3.24,10.57,10.57,0,0,1,4.71-1.47l3.63-.51v-.51c0-1.71-.72-2.46-2.22-2.46a2.16,2.16,0,0,0-2.4,2.22H482c.24-3.33,2.94-5.31,7.2-5.31,4.83,0,7,1.89,7,6.21v5a16.32,16.32,0,0,0,.42,4.17h-4.68a14.39,14.39,0,0,1-.24-2.37c-.75,1.68-2.67,2.73-5,2.73C483.55,168.35,481.48,166.58,481.48,163.91Zm9.9-12.93-2.1-3.15L487.21,151H483.7l3.18-4.68h4.8l3.18,4.68Zm.12,11.28v-1.2l-2.58.42c-1.77.33-2.58,1-2.58,2.07s.84,1.74,2.1,1.74A2.89,2.89,0,0,0,491.5,162.26Z"/><path d="M497.77,153h2.61v-3.6l4.8-1.86V153h3.57v3.21h-3.57V162a2,2,0,0,0,2.19,2.28,6.27,6.27,0,0,0,1.38-.15V168a13.74,13.74,0,0,1-2.73.3c-4,0-5.64-1.8-5.64-5.1v-7h-2.61Z"/><path d="M511.42,146.45h5v4.38h-5Zm.09,6.54h4.83v15h-4.83Z"/><path d="M38.15,229.64a2.37,2.37,0,1,1,4.74,0,2.37,2.37,0,0,1-4.74,0Z"/><path d="M68.54,233.78H59.36L57.11,240H54.68l8.12-21.3h2.32l8.1,21.3H70.78Zm-.73-2-3.14-8.73c-.3-.84-.49-1.41-.7-2.07h0c-.21.66-.37,1.23-.7,2.07l-3.14,8.73Z"/><path d="M75.34,235.7l2.14-.36c.36,2.13,1.89,3.27,4.26,3.27,2.19,0,3.42-1.05,3.42-2.55s-.85-2.1-2.44-2.4l-2.9-.57c-2.49-.48-3.9-1.83-3.9-4.11,0-2.52,2.13-4.35,5.51-4.35s5.5,1.47,5.79,4.14l-2.09.45c-.3-1.83-1.59-2.88-3.79-2.88s-3.38,1-3.38,2.55c0,1.41.93,2.1,2.49,2.4l2.94.57c2.66.54,3.83,1.83,3.83,4,0,2.67-2,4.47-5.54,4.47S75.83,238.7,75.34,235.7Z"/><path d="M90.08,235.7l2.13-.36c.35,2.13,1.88,3.27,4.26,3.27,2.18,0,3.42-1.05,3.42-2.55s-.85-2.1-2.44-2.4l-2.9-.57c-2.5-.48-3.91-1.83-3.91-4.11,0-2.52,2.13-4.35,5.52-4.35s5.49,1.47,5.79,4.14l-2.1.45c-.3-1.83-1.59-2.88-3.78-2.88s-3.39,1-3.39,2.55c0,1.41.93,2.1,2.5,2.4l2.93.57c2.67.54,3.84,1.83,3.84,4,0,2.67-2,4.47-5.55,4.47S90.55,238.7,90.08,235.7Z"/><path d="M106,234.5V225H108v9.3c0,2.94,1.38,4.26,3.42,4.26,2.73,0,4.38-2.34,4.38-5.37V225h2.1v15h-2V236.9a5.14,5.14,0,0,1-4.86,3.45C107.35,240.35,106,238.07,106,234.5Z"/><path d="M130.24,224.63a3.63,3.63,0,0,1,.57,0v2h-.24a4.39,4.39,0,0,0-3.21,1.14c-1.38,1.38-1.65,3.39-1.65,5.28V240h-2.07V225h2v3.66C126.28,226.34,127.93,224.63,130.24,224.63Z"/><path d="M145.66,233H134.77c0,3.39,1.89,5.46,4.8,5.46a4.21,4.21,0,0,0,4.23-3.21l1.77.72a6.07,6.07,0,0,1-6.15,4.35c-4.26,0-6.75-2.73-6.75-7.77s2.52-8,6.66-8,6.33,2.4,6.33,7Zm-2.13-2c0-3.09-1.56-4.74-4.23-4.74s-4.47,1.92-4.53,5h8.76Z"/><path d="M156.7,224.63a3.63,3.63,0,0,1,.57,0v2H157a4.39,4.39,0,0,0-3.21,1.14c-1.38,1.38-1.65,3.39-1.65,5.28V240H150.1V225h2v3.66C152.74,226.34,154.39,224.63,156.7,224.63Z"/><path d="M167.32,232.49c0-4.62,2.61-7.86,6.42-7.86a4.78,4.78,0,0,1,4.71,3.09v-9.48h2.1V240h-2v-3.18a5.23,5.23,0,0,1-5.07,3.54C169.78,240.35,167.32,237.17,167.32,232.49Zm11.16.33v-.63c0-3.42-1.65-5.7-4.44-5.7s-4.5,2.25-4.5,6,1.68,6,4.47,6S178.48,236.15,178.48,232.82Z"/><path d="M198,233H187.06c0,3.39,1.89,5.46,4.8,5.46a4.21,4.21,0,0,0,4.23-3.21l1.77.72a6.07,6.07,0,0,1-6.15,4.35c-4.26,0-6.75-2.73-6.75-7.77s2.52-8,6.66-8,6.33,2.4,6.33,7Zm-2.13-2c0-3.09-1.56-4.74-4.23-4.74s-4.47,1.92-4.53,5h8.76Z"/><path d="M201,235.7l2.13-.36c.36,2.13,1.89,3.27,4.26,3.27,2.19,0,3.42-1.05,3.42-2.55s-.84-2.1-2.43-2.4l-2.91-.57c-2.49-.48-3.9-1.83-3.9-4.11,0-2.52,2.13-4.35,5.52-4.35s5.49,1.47,5.79,4.14l-2.1.45c-.3-1.83-1.59-2.88-3.78-2.88s-3.39,1-3.39,2.55c0,1.41.93,2.1,2.49,2.4l2.94.57c2.67.54,3.84,1.83,3.84,4,0,2.67-2,4.47-5.55,4.47S201.46,238.7,201,235.7Z"/><path d="M223.87,232.49c0-4.89,2.61-7.86,6.81-7.86a5.67,5.67,0,0,1,6.06,5.43l-2.13.24c-.3-2.49-1.74-3.84-4-3.84-2.79,0-4.5,2.25-4.5,6s1.71,6.06,4.59,6.06c2.25,0,3.66-1.35,4-3.84l2,.3c-.54,3.39-2.76,5.37-6.06,5.37C226.51,240.35,223.87,237.32,223.87,232.49Z"/><path d="M239.65,232.49c0-4.89,2.73-7.86,6.9-7.86s6.87,3,6.87,7.86-2.73,7.86-6.87,7.86S239.65,237.38,239.65,232.49Zm11.55,0c0-3.9-1.77-6-4.65-6s-4.68,2.13-4.68,6,1.77,6,4.68,6S251.2,236.39,251.2,232.49Z"/><path d="M257.71,225h2v3.3a5.11,5.11,0,0,1,5.13-3.66c3.36,0,5.1,2.07,5.1,6.09V240h-2.1v-9.15c0-2.91-1.26-4.41-3.63-4.41-2.7,0-4.41,2.16-4.41,5.67V240h-2.07Z"/><path d="M273.73,235.7l2.13-.36c.36,2.13,1.89,3.27,4.26,3.27,2.19,0,3.42-1.05,3.42-2.55s-.84-2.1-2.43-2.4l-2.91-.57c-2.49-.48-3.9-1.83-3.9-4.11,0-2.52,2.13-4.35,5.52-4.35s5.49,1.47,5.79,4.14l-2.1.45c-.3-1.83-1.59-2.88-3.78-2.88s-3.39,1-3.39,2.55c0,1.41.93,2.1,2.49,2.4l2.94.57c2.67.54,3.84,1.83,3.84,4,0,2.67-2,4.47-5.55,4.47S274.21,238.7,273.73,235.7Z"/><path d="M287.74,225h2.76v-4l2.1-.9V225h3.87v1.74H292.6v9c0,1.77.78,2.55,2.34,2.55a6.12,6.12,0,0,0,1.53-.18V240a7.07,7.07,0,0,1-2.07.27c-2.91,0-3.9-1.77-3.9-4.44v-9.09h-2.76Z"/><path d="M300,234.5V225h2.07v9.3c0,2.94,1.38,4.26,3.42,4.26,2.73,0,4.38-2.34,4.38-5.37V225H312v15h-2V236.9a5.14,5.14,0,0,1-4.86,3.45C301.36,240.35,300,238.07,300,234.5Z"/><path d="M316.24,232.49c0-4.89,2.61-7.86,6.81-7.86a5.67,5.67,0,0,1,6.06,5.43l-2.13.24c-.3-2.49-1.74-3.84-4-3.84-2.79,0-4.5,2.25-4.5,6s1.71,6.06,4.59,6.06c2.25,0,3.66-1.35,4.05-3.84l2,.3c-.54,3.39-2.76,5.37-6.06,5.37C318.88,240.35,316.24,237.32,316.24,232.49Z"/><path d="M331.15,225h2.76v-4l2.1-.9V225h3.87v1.74H336v9c0,1.77.78,2.55,2.34,2.55a6.12,6.12,0,0,0,1.53-.18V240a7.07,7.07,0,0,1-2.07.27c-2.91,0-3.9-1.77-3.9-4.44v-9.09h-2.76Z"/><path d="M343.69,219h2.37v3.3h-2.37Zm.15,6h2.07v15h-2.07Z"/><path d="M350.2,232.49c0-4.89,2.73-7.86,6.9-7.86s6.87,3,6.87,7.86-2.73,7.86-6.87,7.86S350.2,237.38,350.2,232.49Zm11.55,0c0-3.9-1.77-6-4.65-6s-4.68,2.13-4.68,6,1.77,6,4.68,6S361.75,236.39,361.75,232.49Z"/><path d="M368.26,225h2v3.3a5.11,5.11,0,0,1,5.13-3.66c3.36,0,5.1,2.07,5.1,6.09V240h-2.1v-9.15c0-2.91-1.26-4.41-3.63-4.41-2.7,0-4.41,2.16-4.41,5.67V240h-2.07Z"/><path d="M384.28,235.7l2.13-.36c.36,2.13,1.89,3.27,4.26,3.27,2.19,0,3.42-1.05,3.42-2.55s-.84-2.1-2.43-2.4l-2.91-.57c-2.49-.48-3.9-1.83-3.9-4.11,0-2.52,2.13-4.35,5.52-4.35s5.49,1.47,5.79,4.14l-2.1.45c-.3-1.83-1.59-2.88-3.78-2.88s-3.39,1-3.39,2.55c0,1.41.93,2.1,2.49,2.4l2.94.57c2.67.54,3.84,1.83,3.84,4,0,2.67-2,4.47-5.55,4.47S384.76,238.7,384.28,235.7Z"/><path d="M420.16,233H409.27c0,3.39,1.89,5.46,4.8,5.46a4.21,4.21,0,0,0,4.23-3.21l1.77.72a6.07,6.07,0,0,1-6.15,4.35c-4.26,0-6.75-2.73-6.75-7.77s2.52-8,6.66-8,6.33,2.4,6.33,7Zm-2.13-2c0-3.09-1.56-4.74-4.23-4.74s-4.47,1.92-4.53,5H418Z"/><path d="M422.35,225h2.76v-4l2.1-.9V225h3.87v1.74h-3.87v9c0,1.77.78,2.55,2.34,2.55a6.12,6.12,0,0,0,1.53-.18V240a7.07,7.07,0,0,1-2.07.27c-2.91,0-3.9-1.77-3.9-4.44v-9.09h-2.76Z"/><path d="M442.54,234.5V225h2.07v9.3c0,2.94,1.38,4.26,3.42,4.26,2.73,0,4.38-2.34,4.38-5.37V225h2.1v15h-2V236.9a5.14,5.14,0,0,1-4.86,3.45C443.92,240.35,442.54,238.07,442.54,234.5Z"/><path d="M460.21,225h2v3.3a5.11,5.11,0,0,1,5.13-3.66c3.36,0,5.1,2.07,5.1,6.09V240h-2.1v-9.15c0-2.91-1.26-4.41-3.63-4.41-2.7,0-4.41,2.16-4.41,5.67V240h-2.07Z"/><path d="M484.18,232.49c0-4.89,2.61-7.86,6.81-7.86a5.67,5.67,0,0,1,6.06,5.43l-2.13.24c-.3-2.49-1.74-3.84-4-3.84-2.79,0-4.5,2.25-4.5,6s1.71,6.06,4.59,6.06c2.25,0,3.66-1.35,4.05-3.84l2,.3c-.54,3.39-2.76,5.37-6.06,5.37C486.82,240.35,484.18,237.32,484.18,232.49Z"/><path d="M501.52,218.24h2.07v9.93a5.14,5.14,0,0,1,5.13-3.54c3.27,0,5,2.07,5,6.06V240h-2.1v-9.18c0-2.88-1.23-4.38-3.6-4.38-2.73,0-4.44,2.16-4.44,5.67V240h-2.07Z"/><path d="M517.6,236a3.79,3.79,0,0,1,1.83-3.36,12.9,12.9,0,0,1,4.92-1.35l3.33-.39v-.24c0-3.09-1.08-4.32-3.63-4.32-2.25,0-3.63,1.17-3.75,3.3h-2.25c.18-3.09,2.52-5,6-5,4,0,5.76,1.86,5.76,6.21v3.9a21.14,21.14,0,0,0,.48,5.25h-2.19a20.58,20.58,0,0,1-.27-3,5.14,5.14,0,0,1-5.22,3.36C519.58,240.35,517.6,238.61,517.6,236Zm10.11-2.58v-1l-4.26.6c-2.55.36-3.66,1.23-3.66,2.88s1.26,2.64,3.27,2.64C525.85,238.61,527.71,236.51,527.71,233.45Z"/><path d="M535.09,225h2v3.3a5.11,5.11,0,0,1,5.13-3.66c3.36,0,5.1,2.07,5.1,6.09V240h-2.1v-9.15c0-2.91-1.26-4.41-3.63-4.41-2.7,0-4.41,2.16-4.41,5.67V240h-2.07Z"/><path d="M550,225h2.76v-4l2.1-.9V225h3.87v1.74h-3.87v9c0,1.77.78,2.55,2.34,2.55a6.12,6.12,0,0,0,1.53-.18V240a7.07,7.07,0,0,1-2.07.27c-2.91,0-3.9-1.77-3.9-4.44v-9.09H550Z"/><path d="M562.57,219h2.37v3.3h-2.37Zm.15,6h2.07v15h-2.07Z"/><path d="M582.07,233H571.18c0,3.39,1.89,5.46,4.8,5.46a4.21,4.21,0,0,0,4.23-3.21L582,236a6.07,6.07,0,0,1-6.15,4.35c-4.26,0-6.75-2.73-6.75-7.77s2.52-8,6.66-8,6.33,2.4,6.33,7Zm-2.13-2c0-3.09-1.56-4.74-4.23-4.74s-4.47,1.92-4.53,5h8.76Z"/><path d="M593.11,224.63a3.63,3.63,0,0,1,.57,0v2h-.24a4.39,4.39,0,0,0-3.21,1.14c-1.38,1.38-1.65,3.39-1.65,5.28V240h-2.07V225h2v3.66C589.15,226.34,590.8,224.63,593.11,224.63Z"/><path d="M603.73,232.49c0-4.62,2.61-7.86,6.42-7.86a4.78,4.78,0,0,1,4.71,3.09v-9.48H617V240h-2v-3.18a5.23,5.23,0,0,1-5.07,3.54C606.19,240.35,603.73,237.17,603.73,232.49Zm11.16.33v-.63c0-3.42-1.65-5.7-4.44-5.7s-4.5,2.25-4.5,6,1.68,6,4.47,6S614.89,236.15,614.89,232.82Z"/><path d="M622.33,234.5V225h2.07v9.3c0,2.94,1.38,4.26,3.42,4.26,2.73,0,4.38-2.34,4.38-5.37V225h2.1v15h-2V236.9a5.14,5.14,0,0,1-4.86,3.45C623.71,240.35,622.33,238.07,622.33,234.5Z"/><path d="M646.6,224.63a3.63,3.63,0,0,1,.57,0v2h-.24a4.39,4.39,0,0,0-3.21,1.14c-1.38,1.38-1.65,3.39-1.65,5.28V240H640V225h2v3.66C642.64,226.34,644.29,224.63,646.6,224.63Z"/><path d="M649.06,236a3.79,3.79,0,0,1,1.83-3.36,12.9,12.9,0,0,1,4.92-1.35l3.33-.39v-.24c0-3.09-1.08-4.32-3.63-4.32-2.25,0-3.63,1.17-3.75,3.3h-2.25c.18-3.09,2.52-5,6-5,4,0,5.76,1.86,5.76,6.21v3.9a21.14,21.14,0,0,0,.48,5.25h-2.19a20.58,20.58,0,0,1-.27-3,5.14,5.14,0,0,1-5.22,3.36C651,240.35,649.06,238.61,649.06,236Zm10.11-2.58v-1l-4.26.6c-2.55.36-3.66,1.23-3.66,2.88s1.26,2.64,3.27,2.64C657.31,238.61,659.17,236.51,659.17,233.45Z"/><path d="M668.68,237l-.39,3H666.7V218.24h2.06v9.81a5.22,5.22,0,0,1,5-3.42c3.7,0,6.09,3.21,6.09,7.86s-2.46,7.86-6.23,7.86A5.2,5.2,0,0,1,668.68,237Zm9-4.5c0-3.63-1.63-6-4.5-6s-4.44,2.25-4.44,5.7v.72c0,3.33,1.68,5.58,4.38,5.58S677.68,236.15,677.68,232.49Z"/><path d="M686.41,240h-2.07V218.24h2.07Z"/><path d="M703.84,233H693c0,3.39,1.89,5.46,4.8,5.46a4.21,4.21,0,0,0,4.22-3.21l1.78.72a6.08,6.08,0,0,1-6.16,4.35c-4.25,0-6.75-2.73-6.75-7.77s2.53-8,6.67-8,6.33,2.4,6.33,7Zm-2.13-2c0-3.09-1.57-4.74-4.24-4.74s-4.46,1.92-4.52,5h8.76Z"/><path d="M38.15,301.64a2.37,2.37,0,1,1,4.74,0,2.37,2.37,0,0,1-4.74,0Z"/><path d="M64.34,302.9H59.45V312H57.14v-21.3h7.62c5.49,0,6.92,3.06,6.92,6.09a5.65,5.65,0,0,1-4.88,5.82L72.34,312H69.71Zm-4.89-2h5.1c3.45,0,4.67-1.83,4.67-4.14s-1.2-4.11-4.67-4.11h-5.1Z"/><path d="M87.68,305H76.79c0,3.39,1.89,5.46,4.8,5.46a4.21,4.21,0,0,0,4.22-3.21l1.78.72a6.08,6.08,0,0,1-6.16,4.35c-4.25,0-6.75-2.73-6.75-7.77s2.53-7.95,6.66-7.95,6.34,2.4,6.34,7Zm-2.13-2c0-3.09-1.57-4.74-4.24-4.74s-4.47,1.92-4.52,5h8.76Zm-3.33-8.46h-2l3-4.29h2.57Z"/><path d="M91.67,306.5V297h2.06v9.3c0,2.94,1.38,4.26,3.42,4.26,2.73,0,4.38-2.34,4.38-5.37V297h2.1v15h-2V308.9a5.14,5.14,0,0,1-4.86,3.45C93.05,312.35,91.67,310.07,91.67,306.5Z"/><path d="M107.11,297h2.76v-4l2.1-.9V297h3.87v1.74H112v9c0,1.77.78,2.55,2.34,2.55a6.12,6.12,0,0,0,1.53-.18V312a7.07,7.07,0,0,1-2.07.27c-2.91,0-3.9-1.77-3.9-4.44v-9.09h-2.76Z"/><path d="M119.65,291H122v3.3h-2.37Zm.15,6h2.07v15H119.8Z"/><path d="M129.79,312h-2.07V290.24h2.07Z"/><path d="M135.49,291h2.37v3.3h-2.37Zm.15,6h2.07v15h-2.07Z"/><path d="M142,307.7l2.13-.36c.36,2.13,1.89,3.27,4.26,3.27,2.19,0,3.42-1.05,3.42-2.55s-.84-2.1-2.43-2.4l-2.91-.57c-2.49-.48-3.9-1.83-3.9-4.11,0-2.52,2.13-4.35,5.52-4.35s5.49,1.47,5.79,4.14l-2.1.45c-.3-1.83-1.59-2.88-3.78-2.88s-3.39,1-3.39,2.55c0,1.41.93,2.1,2.49,2.4l2.94.57c2.67.54,3.84,1.83,3.84,4,0,2.67-2,4.47-5.55,4.47S142.48,310.7,142,307.7Z"/><path d="M169.93,305H159c0,3.39,1.89,5.46,4.8,5.46a4.21,4.21,0,0,0,4.23-3.21l1.77.72a6.07,6.07,0,0,1-6.15,4.35c-4.26,0-6.75-2.73-6.75-7.77s2.52-7.95,6.66-7.95,6.33,2.4,6.33,7Zm-2.13-2c0-3.09-1.56-4.74-4.23-4.74s-4.47,1.92-4.53,5h8.76Z"/><path d="M181,296.63a3.63,3.63,0,0,1,.57,0v2h-.24a4.39,4.39,0,0,0-3.21,1.14c-1.38,1.38-1.65,3.39-1.65,5.28V312h-2.07V297h1.95v3.66C177,298.34,178.66,296.63,181,296.63Z"/><path d="M191.59,307.7l2.13-.36c.36,2.13,1.89,3.27,4.26,3.27,2.19,0,3.42-1.05,3.42-2.55s-.84-2.1-2.43-2.4l-2.91-.57c-2.49-.48-3.9-1.83-3.9-4.11,0-2.52,2.13-4.35,5.52-4.35s5.49,1.47,5.79,4.14l-2.1.45c-.3-1.83-1.59-2.88-3.78-2.88s-3.39,1-3.39,2.55c0,1.41.93,2.1,2.49,2.4l2.94.57c2.67.54,3.84,1.83,3.84,4,0,2.67-2,4.47-5.55,4.47S192.07,310.7,191.59,307.7Z"/><path d="M207.49,306.5V297h2.07v9.3c0,2.94,1.38,4.26,3.42,4.26,2.73,0,4.38-2.34,4.38-5.37V297h2.1v15h-2V308.9a5.14,5.14,0,0,1-4.86,3.45C208.87,312.35,207.49,310.07,207.49,306.5Z"/><path d="M231.76,296.63a3.63,3.63,0,0,1,.57,0v2h-.24a4.39,4.39,0,0,0-3.21,1.14c-1.38,1.38-1.65,3.39-1.65,5.28V312h-2.07V297h2v3.66C227.8,298.34,229.45,296.63,231.76,296.63Z"/><path d="M243.79,297h2v3.18a5.32,5.32,0,0,1,5.13-3.54c3.69,0,6.09,3.15,6.09,7.86s-2.55,7.86-6.24,7.86a5.06,5.06,0,0,1-4.89-3.18v8.67h-2.07Zm11,7.5c0-3.72-1.62-6-4.38-6s-4.56,2.34-4.56,5.64v.66c0,3.36,1.68,5.7,4.44,5.7S254.77,308.21,254.77,304.49Z"/><path d="M263.5,312h-2.07V290.24h2.07Z"/><path d="M268,308a3.79,3.79,0,0,1,1.83-3.36,12.9,12.9,0,0,1,4.92-1.35l3.33-.39v-.24c0-3.09-1.08-4.32-3.63-4.32-2.25,0-3.63,1.17-3.75,3.3h-2.25c.18-3.09,2.52-5,6-5,4,0,5.76,1.86,5.76,6.21v3.9a21.14,21.14,0,0,0,.48,5.25h-2.19a20.58,20.58,0,0,1-.27-3,5.14,5.14,0,0,1-5.22,3.36C270,312.35,268,310.61,268,308Zm10.11-2.58v-1l-4.26.6c-2.55.36-3.66,1.23-3.66,2.88s1.26,2.64,3.27,2.64C276.25,310.61,278.11,308.51,278.11,305.45Z"/><path d="M284,304.49c0-4.89,2.61-7.86,6.81-7.86a5.67,5.67,0,0,1,6.06,5.43l-2.13.24c-.3-2.49-1.74-3.84-4-3.84-2.79,0-4.5,2.25-4.5,6s1.71,6.06,4.59,6.06c2.25,0,3.66-1.35,4.05-3.84l2,.3c-.54,3.39-2.76,5.37-6.06,5.37C286.6,312.35,284,309.32,284,304.49Z"/><path d="M312.73,305H301.84c0,3.39,1.89,5.46,4.8,5.46a4.21,4.21,0,0,0,4.23-3.21l1.77.72a6.07,6.07,0,0,1-6.15,4.35c-4.26,0-6.75-2.73-6.75-7.77s2.52-7.95,6.66-7.95,6.33,2.4,6.33,7Zm-2.13-2c0-3.09-1.56-4.74-4.23-4.74s-4.47,1.92-4.53,5h8.76Z"/><path d="M327.34,312h-2.07V290.24h2.07Z"/><path d="M344.77,305H333.88c0,3.39,1.89,5.46,4.8,5.46a4.21,4.21,0,0,0,4.23-3.21l1.77.72a6.07,6.07,0,0,1-6.15,4.35c-4.26,0-6.75-2.73-6.75-7.77s2.52-7.95,6.66-7.95,6.33,2.4,6.33,7Zm-2.13-2c0-3.09-1.56-4.74-4.23-4.74s-4.47,1.92-4.53,5h8.76Z"/><path d="M347.8,307.7l2.13-.36c.36,2.13,1.89,3.27,4.26,3.27,2.19,0,3.42-1.05,3.42-2.55s-.84-2.1-2.43-2.4l-2.91-.57c-2.49-.48-3.9-1.83-3.9-4.11,0-2.52,2.13-4.35,5.52-4.35s5.49,1.47,5.79,4.14l-2.1.45c-.3-1.83-1.59-2.88-3.78-2.88s-3.39,1-3.39,2.55c0,1.41.93,2.1,2.49,2.4l2.94.57c2.67.54,3.84,1.83,3.84,4,0,2.67-2,4.47-5.55,4.47S348.28,310.7,347.8,307.7Z"/><path d="M369.88,297h2.76v-4l2.1-.9V297h3.87v1.74h-3.87v9c0,1.77.78,2.55,2.34,2.55a6.12,6.12,0,0,0,1.53-.18V312a7.07,7.07,0,0,1-2.07.27c-2.91,0-3.9-1.77-3.9-4.44v-9.09h-2.76Z"/><path d="M393.94,305H383.05c0,3.39,1.89,5.46,4.8,5.46a4.21,4.21,0,0,0,4.23-3.21l1.77.72a6.07,6.07,0,0,1-6.15,4.35c-4.26,0-6.75-2.73-6.75-7.77s2.52-7.95,6.66-7.95,6.33,2.4,6.33,7Zm-2.13-2c0-3.09-1.56-4.74-4.23-4.74s-4.47,1.92-4.53,5h8.76Z"/><path d="M405,296.63a3.63,3.63,0,0,1,.57,0v2h-.24a4.39,4.39,0,0,0-3.21,1.14c-1.38,1.38-1.65,3.39-1.65,5.28V312h-2.07V297h1.95v3.66C401,298.34,402.67,296.63,405,296.63Z"/><path d="M415.66,296.63a3.63,3.63,0,0,1,.57,0v2H416a4.39,4.39,0,0,0-3.21,1.14c-1.38,1.38-1.65,3.39-1.65,5.28V312h-2.07V297H411v3.66C411.7,298.34,413.35,296.63,415.66,296.63Z"/><path d="M431.11,305H420.22c0,3.39,1.89,5.46,4.8,5.46a4.21,4.21,0,0,0,4.23-3.21L431,308a6.07,6.07,0,0,1-6.15,4.35c-4.26,0-6.75-2.73-6.75-7.77s2.52-7.95,6.66-7.95,6.33,2.4,6.33,7Zm-2.13-2c0-3.09-1.56-4.74-4.23-4.74s-4.47,1.92-4.53,5H429Z"/><path d="M434.14,307.7l2.13-.36c.36,2.13,1.89,3.27,4.26,3.27,2.19,0,3.42-1.05,3.42-2.55s-.84-2.1-2.43-2.4l-2.91-.57c-2.49-.48-3.9-1.83-3.9-4.11,0-2.52,2.13-4.35,5.52-4.35s5.49,1.47,5.79,4.14l-2.1.45c-.3-1.83-1.59-2.88-3.78-2.88s-3.39,1-3.39,2.55c0,1.41.93,2.1,2.49,2.4l2.94.57c2.67.54,3.84,1.83,3.84,4,0,2.67-2,4.47-5.55,4.47S434.62,310.7,434.14,307.7Z"/><path d="M457,304.49c0-4.62,2.61-7.86,6.42-7.86a4.78,4.78,0,0,1,4.71,3.09v-9.48h2.1V312h-2v-3.18a5.23,5.23,0,0,1-5.07,3.54C459.49,312.35,457,309.17,457,304.49Zm11.16.33v-.63c0-3.42-1.65-5.7-4.44-5.7s-4.5,2.25-4.5,6,1.68,6,4.47,6S468.19,308.15,468.19,304.82Z"/><path d="M475.33,296.93a2.57,2.57,0,0,0,1.59-2.82v-.06h-1.5v-3.36h2.85v3.18c0,2.22-.57,3.3-2.37,4.14Z"/><path d="M493.06,305H482.17c0,3.39,1.89,5.46,4.8,5.46a4.21,4.21,0,0,0,4.23-3.21L493,308a6.07,6.07,0,0,1-6.15,4.35c-4.26,0-6.75-2.73-6.75-7.77s2.52-7.95,6.66-7.95,6.33,2.4,6.33,7Zm-2.13-2c0-3.09-1.56-4.74-4.23-4.74s-4.47,1.92-4.53,5h8.76Z"/><path d="M500.26,304.22,495.13,297h2.49l2.91,4.32c.51.78.81,1.29,1,1.68h0a15.43,15.43,0,0,1,1-1.68l2.76-4.32h2.58l-5,7.38L508.3,312h-2.49l-3.33-4.83a13.89,13.89,0,0,1-.93-1.62h0c-.18.33-.48.87-1,1.65l-3.3,4.8h-2.49Z"/><path d="M509.86,304.49c0-4.89,2.61-7.86,6.81-7.86a5.67,5.67,0,0,1,6.06,5.43l-2.13.24c-.3-2.49-1.74-3.84-4-3.84-2.79,0-4.5,2.25-4.5,6s1.71,6.06,4.59,6.06c2.25,0,3.66-1.35,4.05-3.84l2,.3c-.54,3.39-2.76,5.37-6.06,5.37C512.5,312.35,509.86,309.32,509.86,304.49Z"/><path d="M525.7,308a3.79,3.79,0,0,1,1.83-3.36,12.9,12.9,0,0,1,4.92-1.35l3.33-.39v-.24c0-3.09-1.08-4.32-3.63-4.32-2.25,0-3.63,1.17-3.75,3.3h-2.25c.18-3.09,2.52-5,6-5,4,0,5.76,1.86,5.76,6.21v3.9a21.14,21.14,0,0,0,.48,5.25h-2.19a20.58,20.58,0,0,1-.27-3,5.14,5.14,0,0,1-5.22,3.36C527.68,312.35,525.7,310.61,525.7,308Zm10.11-2.58v-1l-4.26.6c-2.55.36-3.66,1.23-3.66,2.88s1.26,2.64,3.27,2.64C534,310.61,535.81,308.51,535.81,305.45Z"/><path d="M540.52,297h2.28l3.72,10.62c.27.84.48,1.53.63,2.22h.09c.15-.69.39-1.38.66-2.22L551.62,297h2.28l-5.55,15h-2.28Z"/><path d="M555.52,308a3.79,3.79,0,0,1,1.83-3.36,12.9,12.9,0,0,1,4.92-1.35l3.33-.39v-.24c0-3.09-1.08-4.32-3.63-4.32-2.25,0-3.63,1.17-3.75,3.3H556c.18-3.09,2.52-5,6-5,4,0,5.76,1.86,5.76,6.21v3.9a21.14,21.14,0,0,0,.48,5.25H566a20.58,20.58,0,0,1-.27-3,5.14,5.14,0,0,1-5.22,3.36C557.5,312.35,555.52,310.61,555.52,308Zm10.11-2.58v-1l-4.26.6c-2.55.36-3.66,1.23-3.66,2.88s1.26,2.64,3.27,2.64C563.77,310.61,565.63,308.51,565.63,305.45Z"/><path d="M570.76,297h2.76v-4l2.1-.9V297h3.87v1.74h-3.87v9c0,1.77.78,2.55,2.34,2.55a6.12,6.12,0,0,0,1.53-.18V312a7.07,7.07,0,0,1-2.07.27c-2.91,0-3.9-1.77-3.9-4.44v-9.09h-2.76Z"/><path d="M583.3,291h2.37v3.3H583.3Zm.15,6h2.07v15h-2.07Z"/><path d="M589.81,304.49c0-4.89,2.73-7.86,6.9-7.86s6.87,3,6.87,7.86-2.73,7.86-6.87,7.86S589.81,309.38,589.81,304.49Zm11.55,0c0-3.9-1.77-6-4.65-6s-4.68,2.13-4.68,6,1.77,6,4.68,6S601.36,308.39,601.36,304.49Z"/><path d="M607.87,297h2v3.3a5.11,5.11,0,0,1,5.13-3.66c3.36,0,5.1,2.07,5.1,6.09V312H618v-9.15c0-2.91-1.26-4.41-3.63-4.41-2.7,0-4.41,2.16-4.41,5.67V312h-2.07Z"/><path d="M38.15,373.64a2.37,2.37,0,1,1,4.74,0,2.37,2.37,0,0,1-4.74,0Z"/><path d="M59,362.69v13.8c0,3.63,2,5.94,5.64,5.94s5.66-2.31,5.66-5.94v-13.8h2.34v13.95c0,4.71-2.84,7.86-8,7.86s-8-3.15-8-7.86V362.69Z"/><path d="M76,369h2.76v-4l2.1-.9V369h3.87v1.74H80.81v9c0,1.77.78,2.55,2.34,2.55a6.12,6.12,0,0,0,1.53-.18V384a7.07,7.07,0,0,1-2.07.27c-2.91,0-3.9-1.77-3.9-4.44v-9.09H76Z"/><path d="M88.49,363h2.36v3.3H88.49Zm.15,6h2.07v15H88.64Z"/><path d="M98.62,384H96.55V362.24h2.07Z"/><path d="M104.33,363h2.36v3.3h-2.36Zm.14,6h2.08v15h-2.08Z"/><path d="M110.84,379.7l2.13-.36c.35,2.13,1.88,3.27,4.25,3.27,2.19,0,3.42-1.05,3.42-2.55s-.84-2.1-2.43-2.4l-2.91-.57c-2.49-.48-3.9-1.83-3.9-4.11,0-2.52,2.13-4.35,5.52-4.35s5.49,1.47,5.79,4.14l-2.1.45c-.3-1.83-1.59-2.88-3.78-2.88s-3.39,1-3.39,2.55c0,1.41.93,2.1,2.49,2.4l2.94.57c2.67.54,3.84,1.83,3.84,4,0,2.67-2,4.47-5.55,4.47S111.31,382.7,110.84,379.7Z"/><path d="M138.76,377H127.87c0,3.39,1.89,5.46,4.8,5.46a4.21,4.21,0,0,0,4.23-3.21l1.77.72a6.07,6.07,0,0,1-6.15,4.35c-4.26,0-6.75-2.73-6.75-7.77s2.52-7.95,6.66-7.95,6.33,2.4,6.33,7Zm-2.13-2c0-3.09-1.56-4.74-4.23-4.74s-4.47,1.92-4.53,5h8.76Z"/><path d="M149.8,368.63a3.63,3.63,0,0,1,.57,0v2h-.24a4.39,4.39,0,0,0-3.21,1.14c-1.38,1.38-1.65,3.39-1.65,5.28V384H143.2V369h2v3.66C145.84,370.34,147.49,368.63,149.8,368.63Z"/><path d="M160.42,376.49c0-4.62,2.61-7.86,6.42-7.86a4.78,4.78,0,0,1,4.71,3.09v-9.48h2.1V384h-2v-3.18a5.23,5.23,0,0,1-5.07,3.54C162.88,384.35,160.42,381.17,160.42,376.49Zm11.16.33v-.63c0-3.42-1.65-5.7-4.44-5.7s-4.5,2.25-4.5,6,1.68,6,4.47,6S171.58,380.15,171.58,376.82Z"/><path d="M191.05,377H180.16c0,3.39,1.89,5.46,4.8,5.46a4.21,4.21,0,0,0,4.23-3.21L191,380a6.07,6.07,0,0,1-6.15,4.35c-4.26,0-6.75-2.73-6.75-7.77s2.52-7.95,6.66-7.95,6.33,2.4,6.33,7Zm-2.13-2c0-3.09-1.56-4.74-4.23-4.74s-4.47,1.92-4.53,5h8.76Z"/><path d="M194.08,379.7l2.13-.36c.36,2.13,1.89,3.27,4.26,3.27,2.19,0,3.42-1.05,3.42-2.55s-.84-2.1-2.43-2.4l-2.91-.57c-2.49-.48-3.9-1.83-3.9-4.11,0-2.52,2.13-4.35,5.52-4.35s5.49,1.47,5.79,4.14l-2.1.45c-.3-1.83-1.59-2.88-3.78-2.88s-3.39,1-3.39,2.55c0,1.41.93,2.1,2.49,2.4l2.94.57c2.67.54,3.84,1.83,3.84,4,0,2.67-2,4.47-5.55,4.47S194.56,382.7,194.08,379.7Z"/><path d="M220.33,369v2.91a4.47,4.47,0,0,1,4.44-3.27,4.23,4.23,0,0,1,4.32,3.21,4.76,4.76,0,0,1,4.62-3.21c2.94,0,4.62,2,4.62,5.55V384h-2.1v-9.63c0-2.55-1.08-3.93-3.15-3.93-2.28,0-3.69,1.68-3.69,4.44V384h-2.07v-9.75c0-2.43-1.14-3.81-3.12-3.81-2.28,0-3.75,1.86-3.75,4.8V384h-2.07V369Z"/><path d="M242.23,380a3.79,3.79,0,0,1,1.83-3.36,12.9,12.9,0,0,1,4.92-1.35l3.33-.39v-.24c0-3.09-1.08-4.32-3.63-4.32-2.25,0-3.63,1.17-3.75,3.3h-2.25c.18-3.09,2.52-5,6-5,4,0,5.76,1.86,5.76,6.21v3.9a21.14,21.14,0,0,0,.48,5.25H252.7a20.58,20.58,0,0,1-.27-3,5.14,5.14,0,0,1-5.22,3.36C244.21,384.35,242.23,382.61,242.23,380Zm10.11-2.58v-1l-4.26.6c-2.55.36-3.66,1.23-3.66,2.88s1.26,2.64,3.27,2.64C250.48,382.61,252.34,380.51,252.34,377.45Z"/><path d="M257.44,369h2.76v-4l2.1-.9V369h3.87v1.74H262.3v9c0,1.77.78,2.55,2.34,2.55a6.12,6.12,0,0,0,1.53-.18V384a7.07,7.07,0,0,1-2.07.27c-2.91,0-3.9-1.77-3.9-4.44v-9.09h-2.76Z"/><path d="M281.53,377H270.64c0,3.39,1.89,5.46,4.8,5.46a4.21,4.21,0,0,0,4.23-3.21l1.77.72a6.07,6.07,0,0,1-6.15,4.35c-4.26,0-6.75-2.73-6.75-7.77s2.52-7.95,6.66-7.95,6.33,2.4,6.33,7Zm-2.13-2c0-3.09-1.56-4.74-4.23-4.74s-4.47,1.92-4.53,5h8.76Zm-3.33-8.46h-2l3-4.29h2.58Z"/><path d="M292.57,368.63a3.63,3.63,0,0,1,.57,0v2h-.24a4.39,4.39,0,0,0-3.21,1.14c-1.38,1.38-1.65,3.39-1.65,5.28V384H286V369h1.95v3.66C288.61,370.34,290.26,368.63,292.57,368.63Z"/><path d="M296.5,363h2.37v3.3H296.5Zm.15,6h2.07v15h-2.07Z"/><path d="M303.07,380a3.79,3.79,0,0,1,1.83-3.36,12.9,12.9,0,0,1,4.92-1.35l3.33-.39v-.24c0-3.09-1.08-4.32-3.63-4.32-2.25,0-3.63,1.17-3.75,3.3h-2.25c.18-3.09,2.52-5,6-5,4,0,5.76,1.86,5.76,6.21v3.9a21.14,21.14,0,0,0,.48,5.25h-2.19a20.58,20.58,0,0,1-.27-3,5.14,5.14,0,0,1-5.22,3.36C305.05,384.35,303.07,382.61,303.07,380Zm10.11-2.58v-1l-4.26.6c-2.55.36-3.66,1.23-3.66,2.88s1.26,2.64,3.27,2.64C311.32,382.61,313.18,380.51,313.18,377.45Z"/><path d="M320.11,378.5V369h2.07v9.3c0,2.94,1.38,4.26,3.42,4.26,2.73,0,4.38-2.34,4.38-5.37V369h2.1v15h-2V380.9a5.14,5.14,0,0,1-4.86,3.45C321.49,384.35,320.11,382.07,320.11,378.5Z"/><path d="M341,376.22,335.86,369h2.49l2.91,4.32c.51.78.81,1.29,1,1.68h0a15.43,15.43,0,0,1,1-1.68l2.76-4.32h2.58l-5,7.38L349,384h-2.49l-3.33-4.83a13.89,13.89,0,0,1-.93-1.62h0c-.18.33-.48.87-1,1.65L338,384h-2.49Z"/><path d="M359,376.49c0-4.62,2.61-7.86,6.42-7.86a4.78,4.78,0,0,1,4.71,3.09v-9.48h2.1V384h-2v-3.18a5.23,5.23,0,0,1-5.07,3.54C361.42,384.35,359,381.17,359,376.49Zm11.16.33v-.63c0-3.42-1.65-5.7-4.44-5.7s-4.5,2.25-4.5,6,1.68,6,4.47,6S370.12,380.15,370.12,376.82Z"/><path d="M377.56,378.5V369h2.07v9.3c0,2.94,1.38,4.26,3.42,4.26,2.73,0,4.38-2.34,4.38-5.37V369h2.1v15h-2V380.9a5.14,5.14,0,0,1-4.86,3.45C378.94,384.35,377.56,382.07,377.56,378.5Z"/><path d="M401.83,368.63a3.63,3.63,0,0,1,.57,0v2h-.24a4.39,4.39,0,0,0-3.21,1.14c-1.38,1.38-1.65,3.39-1.65,5.28V384h-2.07V369h1.95v3.66C397.87,370.34,399.52,368.63,401.83,368.63Z"/><path d="M404.26,380a3.79,3.79,0,0,1,1.83-3.36,12.9,12.9,0,0,1,4.92-1.35l3.33-.39v-.24c0-3.09-1.08-4.32-3.63-4.32-2.25,0-3.63,1.17-3.75,3.3h-2.25c.18-3.09,2.52-5,6-5,4,0,5.76,1.86,5.76,6.21v3.9a21.14,21.14,0,0,0,.48,5.25h-2.19a20.58,20.58,0,0,1-.27-3,5.14,5.14,0,0,1-5.22,3.36C406.24,384.35,404.26,382.61,404.26,380Zm10.11-2.58v-1l-4.26.6c-2.55.36-3.66,1.23-3.66,2.88s1.26,2.64,3.27,2.64C412.51,382.61,414.37,380.51,414.37,377.45Z"/><path d="M423.88,381l-.39,3H421.9V362.24H424v9.81a5.2,5.2,0,0,1,5-3.42c3.69,0,6.09,3.21,6.09,7.86s-2.46,7.86-6.24,7.86A5.2,5.2,0,0,1,423.88,381Zm9-4.5c0-3.63-1.62-6-4.5-6s-4.44,2.25-4.44,5.7v.72c0,3.33,1.68,5.58,4.38,5.58C431.17,382.49,432.88,380.15,432.88,376.49Z"/><path d="M441.61,384h-2.07V362.24h2.07Z"/><path d="M459,377H448.15c0,3.39,1.89,5.46,4.8,5.46a4.21,4.21,0,0,0,4.23-3.21L459,380a6.07,6.07,0,0,1-6.15,4.35c-4.26,0-6.75-2.73-6.75-7.77s2.52-7.95,6.66-7.95,6.33,2.4,6.33,7Zm-2.13-2c0-3.09-1.56-4.74-4.23-4.74s-4.47,1.92-4.53,5h8.76Z"/><path d="M462.07,379.7l2.13-.36c.36,2.13,1.89,3.27,4.26,3.27,2.19,0,3.42-1.05,3.42-2.55s-.84-2.1-2.43-2.4l-2.91-.57c-2.49-.48-3.9-1.83-3.9-4.11,0-2.52,2.13-4.35,5.52-4.35s5.49,1.47,5.79,4.14l-2.1.45c-.3-1.83-1.59-2.88-3.78-2.88s-3.39,1-3.39,2.55c0,1.41.93,2.1,2.49,2.4l2.94.57c2.67.54,3.84,1.83,3.84,4,0,2.67-2,4.47-5.55,4.47S462.55,382.7,462.07,379.7Z"/><path d="M38.15,445.64a2.37,2.37,0,1,1,4.74,0,2.37,2.37,0,0,1-4.74,0Z"/><path d="M57.14,456v-21.3h2.31V456Z"/><path d="M65.44,441h2v3.3a5.09,5.09,0,0,1,5.12-3.66c3.36,0,5.1,2.07,5.1,6.09V456h-2.1v-9.15c0-2.91-1.26-4.41-3.62-4.41-2.71,0-4.42,2.16-4.42,5.67V456H65.44Z"/><path d="M80.39,441h2.75v-4l2.11-.9V441h3.86v1.74H85.25v9c0,1.77.77,2.55,2.34,2.55a6.09,6.09,0,0,0,1.52-.18V456a7,7,0,0,1-2.06.27c-2.91,0-3.91-1.77-3.91-4.44v-9.09H80.39Z"/><path d="M104.44,449H93.55c0,3.39,1.89,5.46,4.8,5.46a4.21,4.21,0,0,0,4.23-3.21l1.77.72a6.07,6.07,0,0,1-6.15,4.35c-4.26,0-6.75-2.73-6.75-7.77s2.52-7.95,6.66-7.95,6.33,2.4,6.33,7Zm-2.13-2c0-3.09-1.56-4.74-4.23-4.74s-4.47,1.92-4.53,5h8.76ZM99,438.59H97l3-4.29h2.58Z"/><path d="M117.88,442a4.86,4.86,0,0,1,1.5,3.63c0,2.91-2.07,5.07-5.46,5.07a6.18,6.18,0,0,1-2.88-.66,1.81,1.81,0,0,0-1.29,1.65c0,1,.75,1.71,2.55,1.71h3.93c3.24,0,4.89,1.47,4.89,4.08,0,2.82-2.22,4.68-7.23,4.68s-6.72-1.89-6.72-4.17a3.31,3.31,0,0,1,2.52-3.18,2.65,2.65,0,0,1-1.8-2.58,3,3,0,0,1,2.13-2.88,5,5,0,0,1-1.56-3.72c0-2.91,2.1-5,5.46-5a6.35,6.35,0,0,1,2.94.66,3.45,3.45,0,0,1,3.54-2.7,4.51,4.51,0,0,1,.87.09v1.86a4.18,4.18,0,0,0-1-.12A2.4,2.4,0,0,0,117.88,442Zm-5.64,13.23c-.42,0-.81,0-1.17-.06a2.63,2.63,0,0,0-1.83,2.46c0,2,2,2.79,4.89,2.79,3.72,0,4.89-1.17,4.89-2.82s-1.11-2.37-3.27-2.37Zm5.16-9.57a3.48,3.48,0,1,0-3.48,3.42A3.3,3.3,0,0,0,117.4,445.7Z"/><path d="M131.26,440.63a3.63,3.63,0,0,1,.57,0v2h-.24a4.39,4.39,0,0,0-3.21,1.14c-1.38,1.38-1.65,3.39-1.65,5.28V456h-2.07V441h2v3.66C127.3,442.34,129,440.63,131.26,440.63Z"/><path d="M146.71,449H135.82c0,3.39,1.89,5.46,4.8,5.46a4.21,4.21,0,0,0,4.23-3.21l1.77.72a6.07,6.07,0,0,1-6.15,4.35c-4.26,0-6.75-2.73-6.75-7.77s2.52-7.95,6.66-7.95,6.33,2.4,6.33,7Zm-2.13-2c0-3.09-1.56-4.74-4.23-4.74s-4.47,1.92-4.53,5h8.76Z"/><path d="M157.75,440.63a3.63,3.63,0,0,1,.57,0v2h-.24a4.39,4.39,0,0,0-3.21,1.14c-1.38,1.38-1.65,3.39-1.65,5.28V456h-2.07V441h1.95v3.66C153.79,442.34,155.44,440.63,157.75,440.63Z"/><path d="M172,456h-2.07V434.24H172Z"/><path d="M189.43,449H178.54c0,3.39,1.89,5.46,4.8,5.46a4.21,4.21,0,0,0,4.23-3.21l1.77.72a6.07,6.07,0,0,1-6.15,4.35c-4.26,0-6.75-2.73-6.75-7.77s2.52-7.95,6.66-7.95,6.33,2.4,6.33,7Zm-2.13-2c0-3.09-1.56-4.74-4.23-4.74s-4.47,1.92-4.53,5h8.76Z"/><path d="M208.42,440.63a3.63,3.63,0,0,1,.57,0v2h-.24a4.39,4.39,0,0,0-3.21,1.14c-1.38,1.38-1.65,3.39-1.65,5.28V456h-2.07V441h2v3.66C204.46,442.34,206.11,440.63,208.42,440.63Z"/><path d="M223.87,449H213c0,3.39,1.89,5.46,4.8,5.46a4.21,4.21,0,0,0,4.23-3.21l1.77.72a6.07,6.07,0,0,1-6.15,4.35c-4.26,0-6.75-2.73-6.75-7.77s2.52-7.95,6.66-7.95,6.33,2.4,6.33,7Zm-2.13-2c0-3.09-1.56-4.74-4.23-4.74s-4.47,1.92-4.53,5h8.76Z"/><path d="M226.9,448.49c0-4.89,2.61-7.86,6.81-7.86a5.67,5.67,0,0,1,6.06,5.43l-2.13.24c-.3-2.49-1.74-3.84-4-3.84-2.79,0-4.5,2.25-4.5,6s1.71,6.06,4.59,6.06c2.25,0,3.66-1.35,4-3.84l2,.3c-.54,3.39-2.76,5.37-6.06,5.37C229.54,456.35,226.9,453.32,226.9,448.49Z"/><path d="M242.41,461.87V460a6.48,6.48,0,0,0,1.05.09c1.95,0,2.88-1.08,3.6-3.12l.39-1.11-6-14.88h2.34l4,10.71a19.5,19.5,0,0,1,.66,2h.06q.22-.86.63-2.07L252.82,441h2.25l-5.85,16c-1.35,3.69-3,5-5.49,5A6.55,6.55,0,0,1,242.41,461.87Z"/><path d="M256.72,448.49c0-4.89,2.61-7.86,6.81-7.86a5.67,5.67,0,0,1,6.06,5.43l-2.13.24c-.3-2.49-1.74-3.84-4-3.84-2.79,0-4.5,2.25-4.5,6s1.71,6.06,4.59,6.06c2.25,0,3.66-1.35,4.05-3.84l2,.3c-.54,3.39-2.76,5.37-6.06,5.37C259.36,456.35,256.72,453.32,256.72,448.49Z"/><path d="M276.13,456h-2.07V434.24h2.07Z"/><path d="M280.63,452a3.79,3.79,0,0,1,1.83-3.36,12.9,12.9,0,0,1,4.92-1.35l3.33-.39v-.24c0-3.09-1.08-4.32-3.63-4.32-2.25,0-3.63,1.17-3.75,3.3h-2.25c.18-3.09,2.52-5,6-5,4,0,5.76,1.86,5.76,6.21v3.9a21.14,21.14,0,0,0,.48,5.25H291.1a20.58,20.58,0,0,1-.27-3,5.14,5.14,0,0,1-5.22,3.36C282.61,456.35,280.63,454.61,280.63,452Zm10.11-2.58v-1l-4.26.6c-2.55.36-3.66,1.23-3.66,2.88s1.26,2.64,3.27,2.64C288.88,454.61,290.74,452.51,290.74,449.45Z"/><path d="M306.88,442a4.86,4.86,0,0,1,1.5,3.63c0,2.91-2.07,5.07-5.46,5.07a6.18,6.18,0,0,1-2.88-.66,1.81,1.81,0,0,0-1.29,1.65c0,1,.75,1.71,2.55,1.71h3.93c3.24,0,4.89,1.47,4.89,4.08,0,2.82-2.22,4.68-7.23,4.68s-6.72-1.89-6.72-4.17a3.31,3.31,0,0,1,2.52-3.18,2.65,2.65,0,0,1-1.8-2.58,3,3,0,0,1,2.13-2.88,5,5,0,0,1-1.56-3.72c0-2.91,2.1-5,5.46-5a6.35,6.35,0,0,1,2.94.66,3.45,3.45,0,0,1,3.54-2.7,4.51,4.51,0,0,1,.87.09v1.86a4.18,4.18,0,0,0-1-.12A2.4,2.4,0,0,0,306.88,442Zm-5.64,13.23c-.42,0-.81,0-1.17-.06a2.63,2.63,0,0,0-1.83,2.46c0,2,1.95,2.79,4.89,2.79,3.72,0,4.89-1.17,4.89-2.82s-1.11-2.37-3.27-2.37Zm5.16-9.57a3.48,3.48,0,1,0-3.48,3.42A3.3,3.3,0,0,0,306.4,445.7Z"/><path d="M325,449H314.08c0,3.39,1.89,5.46,4.8,5.46a4.21,4.21,0,0,0,4.23-3.21l1.77.72a6.07,6.07,0,0,1-6.15,4.35c-4.26,0-6.75-2.73-6.75-7.77s2.52-7.95,6.66-7.95,6.33,2.4,6.33,7Zm-2.13-2c0-3.09-1.56-4.74-4.23-4.74s-4.47,1.92-4.53,5h8.76Z"/><path d="M348.94,449H338.05c0,3.39,1.89,5.46,4.8,5.46a4.21,4.21,0,0,0,4.23-3.21l1.77.72a6.07,6.07,0,0,1-6.15,4.35c-4.26,0-6.75-2.73-6.75-7.77s2.52-7.95,6.66-7.95,6.33,2.4,6.33,7Zm-2.13-2c0-3.09-1.56-4.74-4.23-4.74s-4.47,1.92-4.53,5h8.76Z"/><path d="M351.13,441h2.76v-4l2.1-.9V441h3.87v1.74H356v9c0,1.77.78,2.55,2.34,2.55a6.12,6.12,0,0,0,1.53-.18V456a7.07,7.07,0,0,1-2.07.27c-2.91,0-3.9-1.77-3.9-4.44v-9.09h-2.76Z"/><path d="M374,456h-2.07V434.24H374Z"/><path d="M378.49,452a3.79,3.79,0,0,1,1.83-3.36,12.9,12.9,0,0,1,4.92-1.35l3.33-.39v-.24c0-3.09-1.08-4.32-3.63-4.32-2.25,0-3.63,1.17-3.75,3.3h-2.25c.18-3.09,2.52-5,6-5,4,0,5.76,1.86,5.76,6.21v3.9a21.14,21.14,0,0,0,.48,5.25H389a20.58,20.58,0,0,1-.27-3,5.14,5.14,0,0,1-5.22,3.36C380.47,456.35,378.49,454.61,378.49,452Zm10.11-2.58v-1l-4.26.6c-2.55.36-3.66,1.23-3.66,2.88s1.26,2.64,3.27,2.64C386.74,454.61,388.6,452.51,388.6,449.45Z"/><path d="M412.93,442a4.86,4.86,0,0,1,1.5,3.63c0,2.91-2.07,5.07-5.46,5.07a6.18,6.18,0,0,1-2.88-.66,1.81,1.81,0,0,0-1.29,1.65c0,1,.75,1.71,2.55,1.71h3.93c3.24,0,4.89,1.47,4.89,4.08,0,2.82-2.22,4.68-7.23,4.68s-6.72-1.89-6.72-4.17a3.31,3.31,0,0,1,2.52-3.18,2.65,2.65,0,0,1-1.8-2.58,3,3,0,0,1,2.13-2.88,5,5,0,0,1-1.56-3.72c0-2.91,2.1-5,5.46-5a6.35,6.35,0,0,1,2.94.66,3.45,3.45,0,0,1,3.54-2.7,4.51,4.51,0,0,1,.87.09v1.86a4.18,4.18,0,0,0-1-.12A2.4,2.4,0,0,0,412.93,442Zm-5.64,13.23c-.42,0-.81,0-1.17-.06a2.63,2.63,0,0,0-1.83,2.46c0,2,1.95,2.79,4.89,2.79,3.72,0,4.89-1.17,4.89-2.82s-1.11-2.37-3.27-2.37Zm5.16-9.57a3.48,3.48,0,1,0-3.48,3.42A3.3,3.3,0,0,0,412.45,445.7Z"/><path d="M431,449H420.13c0,3.39,1.89,5.46,4.8,5.46a4.21,4.21,0,0,0,4.23-3.21l1.77.72a6.07,6.07,0,0,1-6.15,4.35c-4.26,0-6.75-2.73-6.75-7.77s2.52-7.95,6.66-7.95,6.33,2.4,6.33,7Zm-2.13-2c0-3.09-1.56-4.74-4.23-4.74s-4.47,1.92-4.53,5h8.76Z"/><path d="M434.05,451.7l2.13-.36c.36,2.13,1.89,3.27,4.26,3.27,2.19,0,3.42-1.05,3.42-2.55s-.84-2.1-2.43-2.4l-2.91-.57c-2.49-.48-3.9-1.83-3.9-4.11,0-2.52,2.13-4.35,5.52-4.35s5.49,1.47,5.79,4.14l-2.1.45c-.3-1.83-1.59-2.88-3.78-2.88s-3.39,1-3.39,2.55c0,1.41.93,2.1,2.49,2.4l2.94.57c2.67.54,3.84,1.83,3.84,4,0,2.67-2,4.47-5.55,4.47S434.53,454.7,434.05,451.7Z"/><path d="M448.06,441h2.76v-4l2.1-.9V441h3.87v1.74h-3.87v9c0,1.77.78,2.55,2.34,2.55a6.12,6.12,0,0,0,1.53-.18V456a7.07,7.07,0,0,1-2.07.27c-2.91,0-3.9-1.77-3.9-4.44v-9.09h-2.76Z"/><path d="M460.6,435H463v3.3H460.6Zm.15,6h2.07v15h-2.07Z"/><path d="M467.11,448.49c0-4.89,2.73-7.86,6.9-7.86s6.87,3,6.87,7.86-2.73,7.86-6.87,7.86S467.11,453.38,467.11,448.49Zm11.55,0c0-3.9-1.77-6-4.65-6s-4.68,2.13-4.68,6,1.77,6,4.68,6S478.66,452.39,478.66,448.49Z"/><path d="M485.17,441h2v3.3a5.11,5.11,0,0,1,5.13-3.66c3.36,0,5.1,2.07,5.1,6.09V456h-2.1v-9.15c0-2.91-1.26-4.41-3.63-4.41-2.7,0-4.41,2.16-4.41,5.67V456h-2.07Z"/><path d="M509.14,448.49c0-4.62,2.61-7.86,6.42-7.86a4.78,4.78,0,0,1,4.71,3.09v-9.48h2.1V456h-2v-3.18a5.23,5.23,0,0,1-5.07,3.54C511.6,456.35,509.14,453.17,509.14,448.49Zm11.16.33v-.63c0-3.42-1.65-5.7-4.44-5.7s-4.5,2.25-4.5,6,1.68,6,4.47,6S520.3,452.15,520.3,448.82Z"/><path d="M539.77,449H528.88c0,3.39,1.89,5.46,4.8,5.46a4.21,4.21,0,0,0,4.23-3.21l1.77.72a6.07,6.07,0,0,1-6.15,4.35c-4.26,0-6.75-2.73-6.75-7.77s2.52-7.95,6.66-7.95,6.33,2.4,6.33,7Zm-2.13-2c0-3.09-1.56-4.74-4.23-4.74s-4.47,1.92-4.53,5h8.76Z"/><path d="M542.8,451.7l2.13-.36c.36,2.13,1.89,3.27,4.26,3.27,2.19,0,3.42-1.05,3.42-2.55s-.84-2.1-2.43-2.4l-2.91-.57c-2.49-.48-3.9-1.83-3.9-4.11,0-2.52,2.13-4.35,5.52-4.35s5.49,1.47,5.79,4.14l-2.1.45c-.3-1.83-1.59-2.88-3.78-2.88s-3.39,1-3.39,2.55c0,1.41.93,2.1,2.49,2.4l2.94.57c2.67.54,3.84,1.83,3.84,4,0,2.67-2,4.47-5.55,4.47S543.28,454.7,542.8,451.7Z"/><path d="M565.69,448.49c0-4.62,2.61-7.86,6.42-7.86a4.78,4.78,0,0,1,4.71,3.09v-9.48h2.1V456h-2v-3.18a5.23,5.23,0,0,1-5.07,3.54C568.15,456.35,565.69,453.17,565.69,448.49Zm11.16.33v-.63c0-3.42-1.65-5.7-4.44-5.7s-4.5,2.25-4.5,6,1.68,6,4.47,6S576.85,452.15,576.85,448.82Z"/><path d="M596.32,449H585.43c0,3.39,1.89,5.46,4.8,5.46a4.21,4.21,0,0,0,4.23-3.21l1.77.72a6.07,6.07,0,0,1-6.15,4.35c-4.26,0-6.75-2.73-6.75-7.77s2.52-7.95,6.66-7.95,6.33,2.4,6.33,7Zm-2.13-2c0-3.09-1.56-4.74-4.23-4.74s-4.47,1.92-4.53,5h8.76Zm-3.33-8.46h-2l3-4.29h2.58Z"/><path d="M599.35,448.49c0-4.89,2.61-7.86,6.81-7.86a5.67,5.67,0,0,1,6.06,5.43l-2.13.24c-.3-2.49-1.74-3.84-4-3.84-2.79,0-4.5,2.25-4.5,6s1.71,6.06,4.59,6.06c2.25,0,3.66-1.35,4.05-3.84l2,.3c-.54,3.39-2.76,5.37-6.06,5.37C602,456.35,599.35,453.32,599.35,448.49Z"/><path d="M616.69,434.24h2.07v9.93a5.14,5.14,0,0,1,5.13-3.54c3.27,0,5,2.07,5,6.06V456h-2.1v-9.18c0-2.88-1.23-4.38-3.6-4.38-2.73,0-4.44,2.16-4.44,5.67V456h-2.07Z"/><path d="M645.7,449H634.81c0,3.39,1.89,5.46,4.8,5.46a4.21,4.21,0,0,0,4.23-3.21l1.77.72a6.07,6.07,0,0,1-6.15,4.35c-4.26,0-6.75-2.73-6.75-7.77s2.52-7.95,6.66-7.95,6.33,2.4,6.33,7Zm-2.13-2c0-3.09-1.56-4.74-4.23-4.74s-4.47,1.92-4.53,5h8.76Z"/><path d="M647.89,441h2.76v-4l2.1-.9V441h3.87v1.74h-3.87v9c0,1.77.78,2.55,2.34,2.55a6.12,6.12,0,0,0,1.53-.18V456a7.07,7.07,0,0,1-2.07.27c-2.91,0-3.9-1.77-3.9-4.44v-9.09h-2.76Z"/><path d="M659.08,451.7l2.13-.36c.36,2.13,1.89,3.27,4.26,3.27,2.19,0,3.42-1.05,3.42-2.55s-.84-2.1-2.43-2.4l-2.91-.57c-2.49-.48-3.9-1.83-3.9-4.11,0-2.52,2.13-4.35,5.52-4.35s5.49,1.47,5.79,4.14l-2.1.45c-.3-1.83-1.59-2.88-3.78-2.88s-3.39,1-3.39,2.55c0,1.41.93,2.1,2.49,2.4l2.94.57c2.67.54,3.84,1.83,3.84,4,0,2.67-2,4.47-5.55,4.47S659.56,454.7,659.08,451.7Z"/><path d="M682,451.7l2.13-.36c.36,2.13,1.89,3.27,4.26,3.27,2.19,0,3.42-1.05,3.42-2.55s-.84-2.1-2.43-2.4l-2.91-.57c-2.49-.48-3.9-1.83-3.9-4.11,0-2.52,2.13-4.35,5.52-4.35s5.49,1.47,5.79,4.14l-2.1.45c-.3-1.83-1.59-2.88-3.78-2.88s-3.39,1-3.39,2.55c0,1.41.93,2.1,2.49,2.4l2.94.57c2.67.54,3.84,1.83,3.84,4,0,2.67-2,4.47-5.55,4.47S682.45,454.7,682,451.7Z"/><path d="M697.87,450.5V441h2.07v9.3c0,2.94,1.38,4.26,3.42,4.26,2.73,0,4.38-2.34,4.38-5.37V441h2.1v15h-2V452.9a5.14,5.14,0,0,1-4.86,3.45C699.25,456.35,697.87,454.07,697.87,450.5Z"/><path d="M722.14,440.63a3.63,3.63,0,0,1,.57,0v2h-.24a4.39,4.39,0,0,0-3.21,1.14c-1.38,1.38-1.65,3.39-1.65,5.28V456h-2.07V441h2v3.66C718.18,442.34,719.83,440.63,722.14,440.63Z"/><path d="M736.39,456h-2.07V434.24h2.07Z"/><path d="M753.82,449H742.93c0,3.39,1.89,5.46,4.8,5.46a4.21,4.21,0,0,0,4.23-3.21l1.77.72a6.07,6.07,0,0,1-6.15,4.35c-4.26,0-6.75-2.73-6.75-7.77s2.52-7.95,6.66-7.95,6.33,2.4,6.33,7Zm-2.13-2c0-3.09-1.56-4.74-4.23-4.74s-4.47,1.92-4.53,5h8.76Z"/><path d="M764.8,451.7l2.13-.36c.36,2.13,1.89,3.27,4.26,3.27,2.19,0,3.42-1.05,3.42-2.55s-.84-2.1-2.43-2.4l-2.91-.57c-2.49-.48-3.9-1.83-3.9-4.11,0-2.52,2.13-4.35,5.52-4.35s5.49,1.47,5.79,4.14l-2.1.45c-.3-1.83-1.59-2.88-3.78-2.88s-3.39,1-3.39,2.55c0,1.41.93,2.1,2.49,2.4l2.94.57c2.67.54,3.84,1.83,3.84,4,0,2.67-2,4.47-5.55,4.47S765.28,454.7,764.8,451.7Z"/><path d="M781,435h2.37v3.3H781Zm.15,6h2.07v15h-2.07Z"/><path d="M786.7,441h2.76v-4l2.1-.9V441h3.87v1.74h-3.87v9c0,1.77.78,2.55,2.34,2.55a6.12,6.12,0,0,0,1.53-.18V456a7.07,7.07,0,0,1-2.07.27c-2.91,0-3.9-1.77-3.9-4.44v-9.09H786.7Z"/><path d="M810.76,449H799.87c0,3.39,1.89,5.46,4.8,5.46a4.21,4.21,0,0,0,4.23-3.21l1.77.72a6.07,6.07,0,0,1-6.15,4.35c-4.26,0-6.75-2.73-6.75-7.77s2.52-7.95,6.66-7.95,6.33,2.4,6.33,7Zm-2.13-2c0-3.09-1.56-4.74-4.23-4.74s-4.47,1.92-4.53,5h8.76Z"/><path d="M38.15,517.64a2.37,2.37,0,1,1,4.74,0,2.37,2.37,0,0,1-4.74,0Z"/><path d="M55.49,517.34c0-6.51,3.42-11.16,9.6-11.16,5.88,0,7.73,4.11,8.09,6.48l-2.3.3a5.49,5.49,0,0,0-5.88-4.8c-4.56,0-7.14,3.78-7.14,9.21,0,5.07,2.31,9.12,7.16,9.12,5.53,0,6.45-4.71,6.45-6.81v-.75H64.88v-2h8.69v11H71.86l-.33-3.87c-.93,2.61-3.48,4.38-6.86,4.38C58.88,528.5,55.49,523.73,55.49,517.34Z"/><path d="M90.47,521H79.58c0,3.39,1.89,5.46,4.8,5.46a4.21,4.21,0,0,0,4.22-3.21l1.78.72a6.08,6.08,0,0,1-6.16,4.35c-4.25,0-6.74-2.73-6.74-7.77s2.52-8,6.66-8,6.33,2.4,6.33,7Zm-2.13-2c0-3.09-1.57-4.74-4.24-4.74s-4.46,1.92-4.52,5h8.76Z"/><path d="M93.5,523.7l2.13-.36c.35,2.13,1.88,3.27,4.26,3.27,2.18,0,3.41-1.05,3.41-2.55s-.84-2.1-2.43-2.4l-2.9-.57c-2.5-.48-3.91-1.83-3.91-4.11,0-2.52,2.13-4.35,5.52-4.35s5.49,1.47,5.79,4.14l-2.1.45c-.3-1.83-1.59-2.88-3.78-2.88s-3.39,1-3.39,2.55c0,1.41.93,2.1,2.49,2.4l2.94.57c2.67.54,3.84,1.83,3.84,4,0,2.67-2,4.47-5.55,4.47S94,526.7,93.5,523.7Z"/><path d="M107.51,513h2.75v-4l2.11-.9V513h3.86v1.74h-3.86v9c0,1.77.77,2.55,2.34,2.55a6.09,6.09,0,0,0,1.52-.18V528a7,7,0,0,1-2.06.27c-2.91,0-3.91-1.77-3.91-4.44v-9.09h-2.75Z"/><path d="M120.05,507h2.36v3.3h-2.36Zm.14,6h2.07v15h-2.07Z"/><path d="M126.55,520.49c0-4.89,2.73-7.86,6.9-7.86s6.87,3,6.87,7.86-2.73,7.86-6.87,7.86S126.55,525.38,126.55,520.49Zm11.55,0c0-3.9-1.77-6-4.65-6s-4.68,2.13-4.68,6,1.77,6,4.68,6S138.1,524.39,138.1,520.49Z"/><path d="M144.61,513h2v3.3a5.11,5.11,0,0,1,5.13-3.66c3.36,0,5.1,2.07,5.1,6.09V528h-2.1v-9.15c0-2.91-1.26-4.41-3.63-4.41-2.7,0-4.41,2.16-4.41,5.67V528h-2.07Z"/><path d="M168.58,520.49c0-4.62,2.61-7.86,6.42-7.86a4.78,4.78,0,0,1,4.71,3.09v-9.48h2.1V528h-2v-3.18a5.23,5.23,0,0,1-5.07,3.54C171,528.35,168.58,525.17,168.58,520.49Zm11.16.33v-.63c0-3.42-1.65-5.7-4.44-5.7s-4.5,2.25-4.5,6,1.68,6,4.47,6S179.74,524.15,179.74,520.82Z"/><path d="M199.21,521H188.32c0,3.39,1.89,5.46,4.8,5.46a4.21,4.21,0,0,0,4.23-3.21l1.77.72a6.07,6.07,0,0,1-6.15,4.35c-4.26,0-6.75-2.73-6.75-7.77s2.52-8,6.66-8,6.33,2.4,6.33,7Zm-2.13-2c0-3.09-1.56-4.74-4.23-4.74s-4.47,1.92-4.53,5h8.76Z"/><path d="M202.24,523.7l2.13-.36c.36,2.13,1.89,3.27,4.26,3.27,2.19,0,3.42-1.05,3.42-2.55s-.84-2.1-2.43-2.4l-2.91-.57c-2.49-.48-3.9-1.83-3.9-4.11,0-2.52,2.13-4.35,5.52-4.35s5.49,1.47,5.79,4.14l-2.1.45c-.3-1.83-1.59-2.88-3.78-2.88s-3.39,1-3.39,2.55c0,1.41.93,2.1,2.49,2.4l2.94.57c2.67.54,3.84,1.83,3.84,4,0,2.67-2,4.47-5.55,4.47S202.72,526.7,202.24,523.7Z"/><path d="M225.13,523.7l2.13-.36c.36,2.13,1.89,3.27,4.26,3.27,2.19,0,3.42-1.05,3.42-2.55s-.84-2.1-2.43-2.4l-2.91-.57c-2.49-.48-3.9-1.83-3.9-4.11,0-2.52,2.13-4.35,5.52-4.35s5.49,1.47,5.79,4.14l-2.1.45c-.3-1.83-1.59-2.88-3.78-2.88s-3.39,1-3.39,2.55c0,1.41.93,2.1,2.49,2.4l2.94.57c2.67.54,3.84,1.83,3.84,4,0,2.67-2,4.47-5.55,4.47S225.61,526.7,225.13,523.7Z"/><path d="M239.68,533.87V532a6.48,6.48,0,0,0,1,.09c2,0,2.88-1.08,3.6-3.12l.39-1.11-6-14.88h2.34l4,10.71a19.5,19.5,0,0,1,.66,2h.06q.22-.86.63-2.07L250.09,513h2.25l-5.85,16c-1.35,3.69-3,5-5.49,5A6.55,6.55,0,0,1,239.68,533.87Z"/><path d="M253.75,523.7l2.13-.36c.36,2.13,1.89,3.27,4.26,3.27,2.19,0,3.42-1.05,3.42-2.55s-.84-2.1-2.43-2.4l-2.91-.57c-2.49-.48-3.9-1.83-3.9-4.11,0-2.52,2.13-4.35,5.52-4.35s5.49,1.47,5.79,4.14l-2.1.45c-.3-1.83-1.59-2.88-3.78-2.88s-3.39,1-3.39,2.55c0,1.41.93,2.1,2.49,2.4l2.94.57c2.67.54,3.84,1.83,3.84,4,0,2.67-2,4.47-5.55,4.47S254.23,526.7,253.75,523.7Z"/><path d="M267.76,513h2.76v-4l2.1-.9V513h3.87v1.74h-3.87v9c0,1.77.78,2.55,2.34,2.55a6.12,6.12,0,0,0,1.53-.18V528a7.07,7.07,0,0,1-2.07.27c-2.91,0-3.9-1.77-3.9-4.44v-9.09h-2.76Z"/><path d="M291.85,521H281c0,3.39,1.89,5.46,4.8,5.46a4.21,4.21,0,0,0,4.23-3.21l1.77.72a6.07,6.07,0,0,1-6.15,4.35c-4.26,0-6.75-2.73-6.75-7.77s2.52-8,6.66-8,6.33,2.4,6.33,7Zm-7.53-10.44-3.57-4.29h2.58l3,4.29Zm5.4,8.46c0-3.09-1.56-4.74-4.23-4.74s-4.47,1.92-4.53,5h8.76Z"/><path d="M298.24,513v2.91a4.47,4.47,0,0,1,4.44-3.27,4.23,4.23,0,0,1,4.32,3.21,4.76,4.76,0,0,1,4.62-3.21c2.94,0,4.62,2,4.62,5.55V528h-2.1v-9.63c0-2.55-1.08-3.93-3.15-3.93-2.28,0-3.69,1.68-3.69,4.44V528h-2.07v-9.75c0-2.43-1.14-3.81-3.12-3.81-2.28,0-3.75,1.86-3.75,4.8V528h-2.07V513Z"/><path d="M333.07,521H322.18c0,3.39,1.89,5.46,4.8,5.46a4.21,4.21,0,0,0,4.23-3.21L333,524a6.07,6.07,0,0,1-6.15,4.35c-4.26,0-6.75-2.73-6.75-7.77s2.52-8,6.66-8,6.33,2.4,6.33,7Zm-2.13-2c0-3.09-1.56-4.74-4.23-4.74s-4.47,1.92-4.53,5h8.76Z"/><path d="M336.1,523.7l2.13-.36c.36,2.13,1.89,3.27,4.26,3.27,2.19,0,3.42-1.05,3.42-2.55s-.84-2.1-2.43-2.4l-2.91-.57c-2.49-.48-3.9-1.83-3.9-4.11,0-2.52,2.13-4.35,5.52-4.35s5.49,1.47,5.79,4.14l-2.1.45c-.3-1.83-1.59-2.88-3.78-2.88s-3.39,1-3.39,2.55c0,1.41.93,2.1,2.49,2.4l2.94.57c2.67.54,3.84,1.83,3.84,4,0,2.67-2,4.47-5.55,4.47S336.58,526.7,336.1,523.7Z"/><path d="M372,521H361.09c0,3.39,1.89,5.46,4.8,5.46a4.21,4.21,0,0,0,4.23-3.21l1.77.72a6.07,6.07,0,0,1-6.15,4.35c-4.26,0-6.75-2.73-6.75-7.77s2.52-8,6.66-8,6.33,2.4,6.33,7Zm-2.13-2c0-3.09-1.56-4.74-4.23-4.74s-4.47,1.92-4.53,5h8.76Zm-3.33-8.46h-2l3-4.29h2.58Z"/><path d="M376.42,513h2v3.3a5.11,5.11,0,0,1,5.13-3.66c3.36,0,5.1,2.07,5.1,6.09V528h-2.1v-9.15c0-2.91-1.26-4.41-3.63-4.41-2.7,0-4.41,2.16-4.41,5.67V528h-2.07Z"/><path d="M405.43,521H394.54c0,3.39,1.89,5.46,4.8,5.46a4.21,4.21,0,0,0,4.23-3.21l1.77.72a6.07,6.07,0,0,1-6.15,4.35c-4.26,0-6.75-2.73-6.75-7.77s2.52-8,6.66-8,6.33,2.4,6.33,7Zm-2.13-2c0-3.09-1.56-4.74-4.23-4.74s-4.47,1.92-4.53,5h8.76Z"/><path d="M416.47,512.63a3.63,3.63,0,0,1,.57,0v2h-.24a4.39,4.39,0,0,0-3.21,1.14c-1.38,1.38-1.65,3.39-1.65,5.28V528h-2.07V513h1.95v3.66C412.51,514.34,414.16,512.63,416.47,512.63Z"/><path d="M429.1,514a4.86,4.86,0,0,1,1.5,3.63c0,2.91-2.07,5.07-5.46,5.07a6.18,6.18,0,0,1-2.88-.66,1.81,1.81,0,0,0-1.29,1.65c0,1,.75,1.71,2.55,1.71h3.93c3.24,0,4.89,1.47,4.89,4.08,0,2.82-2.22,4.68-7.23,4.68s-6.72-1.89-6.72-4.17a3.31,3.31,0,0,1,2.52-3.18,2.65,2.65,0,0,1-1.8-2.58,3,3,0,0,1,2.13-2.88,5,5,0,0,1-1.56-3.72c0-2.91,2.1-5,5.46-5a6.35,6.35,0,0,1,2.94.66,3.45,3.45,0,0,1,3.54-2.7,4.51,4.51,0,0,1,.87.09v1.86a4.18,4.18,0,0,0-1-.12A2.4,2.4,0,0,0,429.1,514Zm-5.64,13.23c-.42,0-.81,0-1.17-.06a2.63,2.63,0,0,0-1.83,2.46c0,2,2,2.79,4.89,2.79,3.72,0,4.89-1.17,4.89-2.82s-1.11-2.37-3.27-2.37Zm5.16-9.57a3.48,3.48,0,1,0-3.48,3.42A3.3,3.3,0,0,0,428.62,517.7Z"/><path d="M447.19,521H436.3c0,3.39,1.89,5.46,4.8,5.46a4.21,4.21,0,0,0,4.23-3.21l1.77.72a6.07,6.07,0,0,1-6.15,4.35c-4.26,0-6.75-2.73-6.75-7.77s2.52-8,6.66-8,6.33,2.4,6.33,7Zm-2.13-2c0-3.09-1.56-4.74-4.23-4.74s-4.47,1.92-4.53,5h8.76Zm-3.33-8.46h-2l3-4.29h2.58Z"/><path d="M449.38,513h2.76v-4l2.1-.9V513h3.87v1.74h-3.87v9c0,1.77.78,2.55,2.34,2.55a6.12,6.12,0,0,0,1.53-.18V528a7.07,7.07,0,0,1-2.07.27c-2.91,0-3.9-1.77-3.9-4.44v-9.09h-2.76Z"/><path d="M461.92,507h2.37v3.3h-2.37Zm.15,6h2.07v15h-2.07Z"/><path d="M479.56,525a5.1,5.1,0,0,1-4.95,3.36c-3.69,0-6.18-3.09-6.18-7.86s2.67-7.86,6.39-7.86a4.81,4.81,0,0,1,4.83,3.18l.45-2.82h1.56v20.85h-2.1Zm0-4.11v-.75c0-3.36-1.65-5.64-4.47-5.64s-4.47,2.25-4.47,6,1.65,6,4.44,6S479.59,524.21,479.59,520.88Z"/><path d="M486.88,522.5V513H489v9.3c0,2.94,1.38,4.26,3.42,4.26,2.73,0,4.38-2.34,4.38-5.37V513h2.1v15h-2V524.9a5.14,5.14,0,0,1-4.86,3.45C488.26,528.35,486.88,526.07,486.88,522.5Z"/><path d="M516.13,521H505.24c0,3.39,1.89,5.46,4.8,5.46a4.21,4.21,0,0,0,4.23-3.21L516,524a6.07,6.07,0,0,1-6.15,4.35c-4.26,0-6.75-2.73-6.75-7.77s2.52-8,6.66-8,6.33,2.4,6.33,7Zm-2.13-2c0-3.09-1.56-4.74-4.23-4.74s-4.47,1.92-4.53,5H514Z"/><path d="M519.16,523.7l2.13-.36c.36,2.13,1.89,3.27,4.26,3.27,2.19,0,3.42-1.05,3.42-2.55s-.84-2.1-2.43-2.4l-2.91-.57c-2.49-.48-3.9-1.83-3.9-4.11,0-2.52,2.13-4.35,5.52-4.35s5.49,1.47,5.79,4.14l-2.1.45c-.3-1.83-1.59-2.88-3.78-2.88s-3.39,1-3.39,2.55c0,1.41.93,2.1,2.49,2.4l2.94.57c2.67.54,3.84,1.83,3.84,4,0,2.67-2,4.47-5.55,4.47S519.64,526.7,519.16,523.7Z"/></g></svg>