<svg id="Calque_1" data-name="Calque 1" xmlns="http://www.w3.org/2000/svg" xmlns:xlink="http://www.w3.org/1999/xlink" viewBox="0 0 1190.55 841.89"><defs><style>.cls-1{fill:none;}.cls-2{clip-path:url(#clip-path);}.cls-3{fill:#fff;}.cls-4{clip-path:url(#clip-path-2);}.cls-5{clip-path:url(#clip-path-3);}</style><clipPath id="clip-path"><rect class="cls-1" width="1190.55" height="841.89"/></clipPath><clipPath id="clip-path-2"><rect class="cls-1" x="36" y="183.48" width="1118.55" height="622.41"/></clipPath><clipPath id="clip-path-3"><rect class="cls-1" x="34.92" y="182.28" width="1120.75" height="624.77"/></clipPath></defs><g class="cls-2"><path d="M93.29,53.54l4.89-.48c0,2.34,1.32,3.72,3.36,3.72a2.71,2.71,0,0,0,3-3c0-1.92-1.14-2.91-3.6-2.91H99.83v-3.3h1.08c2.1,0,3.18-1.08,3.18-2.91a2.5,2.5,0,0,0-2.76-2.73c-2,0-3.06,1.41-3.06,3.78l-4.77-.63c0-4.17,3.12-6.81,8.07-6.81s7.5,2.16,7.5,5.82A5,5,0,0,1,104.9,49c3.09.48,4.74,2.22,4.74,5.13,0,4-3.18,6.42-8.13,6.42S93.35,57.8,93.29,53.54Zm24,6.51h-5.13V55.13h5.13Zm28.44.75a6,6,0,0,0,1.68-.24v3.93a13.67,13.67,0,0,1-2.25.18c-3.6,0-5.94-1.53-7-4.11h-.42c-6.39,0-10.5-4.32-10.5-11.16s4.11-11.16,10.5-11.16,10.5,4.29,10.5,11.16c0,5-2.22,8.7-5.91,10.29A4.89,4.89,0,0,0,145.7,60.8Zm-7.95-4.2c3.33,0,5.28-2.7,5.28-7.2s-1.95-7.2-5.28-7.2-5.31,2.7-5.31,7.2S134.42,56.6,137.75,56.6Zm18.3-17.85V52.4a4,4,0,1,0,7.92,0V38.75H169V52.61c0,4.86-3.36,8-9,8s-9-3.09-9-8V38.75Zm28.89,16.32h-7.86l-1.62,5h-5.07l7.74-21.3h5.79l7.74,21.3h-5.1Zm-1.17-3.57-2-5.94a25.65,25.65,0,0,1-.78-3H181a20.83,20.83,0,0,1-.78,3l-1.95,5.94ZM207,42.77h-6.2V60.05h-5V42.77h-6.18v-4H207Zm10.54,9.12h-3.06v8.16h-5.07V38.75h9.36c5.39,0,7.79,2.64,7.79,6.54a5.89,5.89,0,0,1-4.17,5.85l4.71,8.91h-5.49Zm-3.06-3.48h3.27c2.45,0,3.53-1.2,3.53-3.12s-1-3-3.53-3h-3.27Zm30.5,7.89v3.75H230.15V38.75h14.57V42.5h-9.51v4.8h9V51h-9V56.3Zm8.83-.69L257.5,53a6.17,6.17,0,0,0,5.79,3.66c2,0,3.66-.75,3.66-2.43S266,52,263.86,51.56L261,51c-3.72-.81-5.88-2.82-5.88-6.39,0-3.9,3.18-6.33,8.31-6.33,3.78,0,7,1.38,8.46,4.23l-3.3,2.79A6,6,0,0,0,263.11,42c-2,0-3.3.84-3.3,2.19s.84,2.07,3.09,2.58l3.09.66c3.78.84,5.82,2.64,5.82,6.3,0,4.05-3.12,6.84-8.7,6.84C258.52,60.56,255.22,58.61,253.76,55.61Zm19.71-6.18c0-6.72,4-11.19,10.43-11.19,5.43,0,8.85,3,9.42,7.65l-5.13.9c-.3-2.82-1.86-4.47-4.41-4.47-3.24,0-5.13,2.73-5.13,7.08s1.92,7.05,5.28,7.05c2.37,0,4-1.62,4.38-4.38l5.13,1.11c-1,4.5-4.32,7.38-9.6,7.38C277.1,60.56,273.47,56.15,273.47,49.43Zm37.7,6.87v3.75H296.38V38.75H311V42.5h-9.51v4.8h9V51h-9V56.3Zm-5.43-18.84h-3.66l3-3.54h4.17Zm9.12,1.29h5.61l6.84,12.15a22.16,22.16,0,0,1,1.29,2.76h.06c0-.84,0-1.71,0-2.73V38.75h4.65v21.3h-5.4L320.8,47.78a18.35,18.35,0,0,1-1.26-2.61h-.06c0,.87,0,1.77,0,2.82V60.05h-4.65Zm35.61,16.32h-7.86l-1.62,5h-5.07l7.74-21.3h5.79l7.74,21.3h-5.1ZM349.3,51.5l-1.95-5.94a25.65,25.65,0,0,1-.78-3h-.06a20.83,20.83,0,0,1-.78,3l-2,5.94Zm18.63.39h-3.06v8.16H359.8V38.75h9.36c5.4,0,7.8,2.64,7.8,6.54a5.89,5.89,0,0,1-4.17,5.85l4.71,8.91H372Zm-3.06-3.48h3.27c2.46,0,3.54-1.2,3.54-3.12s-1.05-3-3.54-3h-3.27Zm15.72,11.64V38.75h5.07v21.3Zm8.16-10.65c0-6.87,4.11-11.16,10.5-11.16s10.5,4.29,10.5,11.16-4.11,11.16-10.5,11.16S388.75,56.24,388.75,49.4Zm15.78,0c0-4.5-1.95-7.2-5.28-7.2s-5.31,2.7-5.31,7.2,2,7.2,5.31,7.2S404.53,53.9,404.53,49.4Zm5.79,6.21L414.07,53a6.17,6.17,0,0,0,5.79,3.66c2,0,3.66-.75,3.66-2.43s-.93-2.19-3.09-2.64l-2.85-.6c-3.72-.81-5.88-2.82-5.88-6.39,0-3.9,3.18-6.33,8.31-6.33,3.78,0,7,1.38,8.46,4.23l-3.3,2.79A6,6,0,0,0,419.68,42c-2,0-3.3.84-3.3,2.19s.84,2.07,3.09,2.58l3.09.66c3.78.84,5.82,2.64,5.82,6.3,0,4.05-3.12,6.84-8.7,6.84C415.09,60.56,411.79,58.61,410.32,55.61Z"/><path d="M94.64,81.2c0-6.06,2.94-13,10.73-13,4.24,0,8.08,2,8.16,7.5L111.2,76c0-4.08-2.64-5.73-5.88-5.73-5.94,0-8.16,5.85-8.16,10.8,0,5.91,3,7.47,6.12,7.47,3.75,0,5.7-2.1,6.66-5.55l2.25.36c-1,4-3.51,7.23-8.88,7.23C98.6,90.56,94.64,88,94.64,81.2Z"/><path d="M115.28,83.9c0-4.05,2-9.21,7.8-9.21,3.12,0,6.33,1.53,6.33,6.51,0,4-2,9.21-7.83,9.21C118.49,90.41,115.28,88.88,115.28,83.9Zm11.88-2.58c0-3.69-2.1-4.8-4.2-4.8-4.29,0-5.43,4.38-5.43,7.26,0,3.69,2.1,4.8,4.2,4.8C126,88.58,127.16,84.2,127.16,81.32Z"/><path d="M135,75.05h2l-.56,3.24a5.32,5.32,0,0,1,5.18-3.6c2.1,0,4.62.9,4.62,4.8a12.76,12.76,0,0,1-.18,2l-1.47,8.55h-2.1L144,81.41a11,11,0,0,0,.14-1.53,3,3,0,0,0-3.3-3.33c-3.45,0-4.59,3.21-5,5.61l-1.41,7.89h-2.06Z"/><path d="M149.9,75.05h2.79l.68-4,2.29-.9-.88,4.86h3.84l-.3,1.74h-3.83L153,85.46c-.45,2.49.79,2.88,2,2.88a7.51,7.51,0,0,0,1.33-.12L156,90.08a6.42,6.42,0,0,1-1.71.24c-2.23,0-4.08-1.29-3.4-5.16l1.5-8.37H149.6Z"/><path d="M168.88,74.69a4.35,4.35,0,0,1,1,.09l-.39,2.07a3.11,3.11,0,0,0-.84-.09,3.77,3.77,0,0,0-2.66.9,8.37,8.37,0,0,0-2.59,5.16L162,90.05H160l2.63-15h2l-.68,3.9C164.83,76.4,166.21,74.69,168.88,74.69Z"/><path d="M169.72,86.15A4,4,0,0,1,171.1,83a8.38,8.38,0,0,1,5.07-1.68l4.59-.36.09-.51c.42-2.82-.51-4-3.09-4s-3.93,1.08-4.32,3.3h-2.13c.45-3.33,2.82-5,6.3-5,4.23,0,6,2,5.25,6.48l-.66,3.72a27.85,27.85,0,0,0-.42,5.16h-2.19a21,21,0,0,1,.27-3,5.61,5.61,0,0,1-5.34,3.36C171.73,90.41,169.72,88.88,169.72,86.15Zm10.62-2.64.18-1-4,.3c-3.33.27-4.56,1.47-4.56,3.27s1.35,2.61,3,2.61C177.7,88.67,179.77,86.6,180.34,83.51Z"/><path d="M189.25,75.05h2.07l-2.64,15h-2.07Zm.81-6h2.4l-.6,3.3h-2.37Z"/><path d="M197,75.05h2l-.57,3.24a5.34,5.34,0,0,1,5.19-3.6c2.1,0,4.62.9,4.62,4.8a12.76,12.76,0,0,1-.18,2l-1.47,8.55h-2.1L206,81.41a9.74,9.74,0,0,0,.15-1.53,3,3,0,0,0-3.3-3.33c-3.45,0-4.59,3.21-5,5.61l-1.41,7.89h-2.07Z"/><path d="M211.93,75.05h2.79l.69-4,2.28-.9-.87,4.86h3.84l-.3,1.74h-3.84L215,85.46c-.45,2.49.78,2.88,2,2.88a7.41,7.41,0,0,0,1.32-.12L218,90.08a6.36,6.36,0,0,1-1.71.24c-2.22,0-4.08-1.29-3.39-5.16l1.5-8.37h-2.79Z"/><path d="M223.42,83.09v.54c0,3.69,2,4.92,4.38,4.92s3.54-1.26,4.32-3.21l1.74.75a6.19,6.19,0,0,1-6.15,4.32c-3,0-6.36-1.47-6.36-6.63,0-4.17,2.22-9.09,7.65-9.09,3.48,0,5.85,2,5.85,5.79a7.8,7.8,0,0,1-.42,2.61Zm.21-1.71h9a4.27,4.27,0,0,0,.15-1.17A3.51,3.51,0,0,0,229,76.34C225.91,76.34,224.2,78.53,223.63,81.38Z"/><path d="M237,85.73l2.1-.33c.27,2.43,2,3.27,4.14,3.27,2.76,0,3.51-1.44,3.51-2.79S246,84,244.54,83.63l-2.61-.6c-2.25-.48-3.36-1.92-3.36-3.81,0-2.46,2-4.53,5.58-4.53,2.88,0,5.82,1.23,5.88,4.2l-2,.45c-.12-2.16-2-2.94-4-2.94-2.4,0-3.36,1.17-3.36,2.64,0,1.26.66,1.89,2.37,2.28l2.49.57c2.58.6,3.42,2,3.42,3.9,0,2.43-1.89,4.62-5.85,4.62C240.25,90.41,237.34,89.24,237,85.73Z"/><path d="M260.38,84.08c0-4,2.07-9.39,7.32-9.39a4.7,4.7,0,0,1,4.83,3.39l1.68-9.78h2.1l-3.84,21.75h-2l.51-2.91a5.73,5.73,0,0,1-5.19,3.27C263.29,90.41,260.38,88.82,260.38,84.08Zm11.22-.6.15-.72c.81-4.23-1.26-6.21-3.9-6.21-4,0-5.22,4.44-5.22,7.38,0,3.87,2.19,4.62,3.87,4.62C269.47,88.55,271.09,86.15,271.6,83.48Z"/><path d="M278.83,85.79A15,15,0,0,1,279,83.6l1.5-8.55h2.07l-1.5,8.64a9,9,0,0,0-.18,1.71c0,2.58,1.83,3.15,3.27,3.15,3.3,0,4.41-3.21,4.83-5.61l1.38-7.89h2.13l-2.67,15h-2l.6-3.3a5.14,5.14,0,0,1-5,3.66C281.35,90.41,278.83,89.48,278.83,85.79Z"/><path d="M306.19,75.05h2l-.6,3.18a5.74,5.74,0,0,1,5.19-3.54c2.52,0,5.49,1.47,5.49,6.27,0,4.08-2.16,9.45-7.26,9.45a4.79,4.79,0,0,1-4.89-3.18l-1.53,8.67H302.5ZM316,81c0-3.6-2-4.47-3.78-4.47-3.21,0-4.8,2.91-5.22,5.37l-.18,1c-.57,3.24.75,5.64,3.75,5.64C314.89,88.55,316,83.69,316,81Z"/><path d="M334.51,80.48a7.8,7.8,0,0,1-.42,2.61h-11v.54c0,3.69,2,4.92,4.38,4.92s3.54-1.26,4.32-3.21l1.74.75a6.19,6.19,0,0,1-6.15,4.32c-3,0-6.36-1.47-6.36-6.63,0-4.17,2.22-9.09,7.65-9.09C332.14,74.69,334.51,76.7,334.51,80.48Zm-2-.27a3.51,3.51,0,0,0-3.84-3.87c-3.06,0-4.77,2.19-5.34,5h9A4.27,4.27,0,0,0,332.47,80.21Zm-2.25-7.56h-2L332,68.36h2.58Z"/><path d="M346.3,74.69a4.35,4.35,0,0,1,1,.09l-.39,2.07a3.11,3.11,0,0,0-.84-.09,3.8,3.8,0,0,0-2.67.9,8.37,8.37,0,0,0-2.58,5.16l-1.32,7.23h-2.07l2.64-15h2l-.69,3.9C342.25,76.4,343.63,74.69,346.3,74.69Z"/><path d="M350.74,75.05h2.07l-2.64,15H348.1Zm.81-6H354l-.6,3.3H351Z"/><path d="M358.51,75.05h2L360,78a4.67,4.67,0,0,1,4.56-3.27A3.59,3.59,0,0,1,368.47,78a5.11,5.11,0,0,1,4.8-3.33c2,0,4.38,1,4.38,4.47a9.83,9.83,0,0,1-.18,1.77l-1.65,9.12h-2.1l1.62-9a6.52,6.52,0,0,0,.15-1.44c0-2.46-1.47-3.09-2.82-3.09-2.85,0-3.87,2.7-4.29,5.16l-1.5,8.34h-2.07l1.62-9a9.31,9.31,0,0,0,.12-1.47c0-2.49-1.53-3-2.76-3-3,0-4,2.82-4.41,5.28l-1.44,8.22h-2.07Z"/><path d="M383.05,83.09v.54c0,3.69,2,4.92,4.38,4.92s3.54-1.26,4.32-3.21l1.74.75a6.19,6.19,0,0,1-6.15,4.32c-3,0-6.36-1.47-6.36-6.63,0-4.17,2.22-9.09,7.65-9.09,3.48,0,5.85,2,5.85,5.79a7.8,7.8,0,0,1-.42,2.61Zm.21-1.71h9a4.27,4.27,0,0,0,.15-1.17,3.51,3.51,0,0,0-3.84-3.87C385.54,76.34,383.83,78.53,383.26,81.38Zm5-8.73-4.35-4.29h2.61l3.69,4.29Z"/><path d="M397.36,75.05h2.79l.69-4,2.28-.9-.87,4.86h3.84l-.3,1.74H402l-1.53,8.67c-.45,2.49.78,2.88,2,2.88a7.41,7.41,0,0,0,1.32-.12l-.33,1.86a6.36,6.36,0,0,1-1.71.24c-2.22,0-4.08-1.29-3.39-5.16l1.5-8.37h-2.79Z"/><path d="M416.35,74.69a4.35,4.35,0,0,1,1,.09l-.39,2.07a3.11,3.11,0,0,0-.84-.09,3.8,3.8,0,0,0-2.67.9,8.37,8.37,0,0,0-2.58,5.16l-1.32,7.23h-2.07l2.64-15h2l-.69,3.9C412.3,76.4,413.68,74.69,416.35,74.69Z"/><path d="M419.62,83.09v.54c0,3.69,2,4.92,4.38,4.92s3.54-1.26,4.32-3.21l1.74.75a6.19,6.19,0,0,1-6.15,4.32c-3,0-6.36-1.47-6.36-6.63,0-4.17,2.22-9.09,7.65-9.09,3.48,0,5.85,2,5.85,5.79a7.8,7.8,0,0,1-.42,2.61Zm.21-1.71h9a4.27,4.27,0,0,0,.15-1.17,3.51,3.51,0,0,0-3.84-3.87C422.11,76.34,420.4,78.53,419.83,81.38Z"/><rect class="cls-3" x="36" y="121.89" width="1122.43" height="51.02"/><path d="M44.72,137.8l2.64,6.2H45.6l-2.5-6.06H39.84L38.76,144H37.22l2.5-14.2h4.62c2.4,0,4.46,1,4.46,3.68C48.8,135.42,47.72,137.3,44.72,137.8Zm2.4-4.3c0-1.92-1.36-2.38-2.78-2.38H41.06l-1,5.5h3C46.28,136.62,47.12,135,47.12,133.5Z"/><path d="M51.16,139.36v.36c0,2.46,1.32,3.28,2.92,3.28A2.91,2.91,0,0,0,57,140.86l1.16.5a4.12,4.12,0,0,1-4.1,2.88c-2,0-4.24-1-4.24-4.42,0-2.78,1.48-6.06,5.1-6.06a3.57,3.57,0,0,1,3.9,3.86,5.2,5.2,0,0,1-.28,1.74Zm.14-1.14h6a2.85,2.85,0,0,0,.1-.78,2.34,2.34,0,0,0-2.56-2.58C52.82,134.86,51.68,136.32,51.3,138.22Z"/><path d="M60.72,134h1.86l.46-2.64,1.52-.6L64,134h2.56l-.2,1.16H63.78l-1,5.78c-.3,1.66.52,1.92,1.36,1.92a4.94,4.94,0,0,0,.88-.08L64.78,144a4.24,4.24,0,0,1-1.14.16c-1.48,0-2.72-.86-2.26-3.44l1-5.58H60.52Z"/><path d="M73.38,133.76a2.9,2.9,0,0,1,.64.06l-.26,1.38a2.07,2.07,0,0,0-.56-.06,2.53,2.53,0,0,0-1.78.6,5.58,5.58,0,0,0-1.72,3.44L68.82,144H67.44l1.76-10h1.32l-.46,2.6C70.68,134.9,71.6,133.76,73.38,133.76Z"/><path d="M73.92,141.4a2.69,2.69,0,0,1,.92-2.08,5.58,5.58,0,0,1,3.38-1.12l3.06-.24.06-.34c.28-1.88-.34-2.7-2.06-2.7s-2.62.72-2.88,2.2H75c.3-2.22,1.88-3.36,4.2-3.36,2.82,0,4,1.32,3.5,4.32l-.44,2.48A18.57,18.57,0,0,0,82,144H80.5a14,14,0,0,1,.18-2,3.74,3.74,0,0,1-3.56,2.24C75.26,144.24,73.92,143.22,73.92,141.4ZM81,139.64l.12-.68-2.64.2c-2.22.18-3,1-3,2.18s.9,1.74,2,1.74C79.24,143.08,80.62,141.7,81,139.64Z"/><path d="M86.94,134h1.38l-1.76,10H85.18Zm.54-4h1.6l-.4,2.2H87.1Z"/><path d="M90.64,134H92.5l.46-2.64,1.52-.6L93.9,134h2.56l-.2,1.16H93.7l-1,5.78c-.3,1.66.52,1.92,1.36,1.92a4.94,4.94,0,0,0,.88-.08L94.7,144a4.24,4.24,0,0,1-1.14.16c-1.48,0-2.72-.86-2.26-3.44l1-5.58H90.44Z"/><path d="M102.54,140c0-2.68,1.38-6.26,4.88-6.26a3.13,3.13,0,0,1,3.22,2.26l1.12-6.52h1.4L110.6,144h-1.32l.34-1.94a3.82,3.82,0,0,1-3.46,2.18C104.48,144.24,102.54,143.18,102.54,140Zm7.48-.4.1-.48c.54-2.82-.84-4.14-2.6-4.14-2.64,0-3.48,3-3.48,4.92,0,2.58,1.46,3.08,2.58,3.08C108.6,143,109.68,141.4,110,139.62Z"/><path d="M115.8,139.36v.36c0,2.46,1.32,3.28,2.92,3.28a2.91,2.91,0,0,0,2.88-2.14l1.16.5a4.12,4.12,0,0,1-4.1,2.88c-2,0-4.24-1-4.24-4.42,0-2.78,1.48-6.06,5.1-6.06a3.57,3.57,0,0,1,3.9,3.86,5.2,5.2,0,0,1-.28,1.74Zm.14-1.14h6a2.85,2.85,0,0,0,.1-.78,2.34,2.34,0,0,0-2.56-2.58C117.46,134.86,116.32,136.32,115.94,138.22Z"/><path d="M134.62,132.72a3,3,0,0,1-2.62,1.06h-.64l.22-1.32H132a3.29,3.29,0,0,0,3.28-2.36h1.24L134.1,144h-1.48Z"/><path d="M137.6,142.78c1.74-1.1,4.12-2.74,5.58-3.88s3.36-2.8,3.36-5.18a2.41,2.41,0,0,0-2.7-2.64,2.88,2.88,0,0,0-3.08,3.16,5.35,5.35,0,0,0,.06.84l-1.44-.14a3.86,3.86,0,0,1-.08-.84c0-2.3,1.46-4.3,4.66-4.3,2,0,4.14.78,4.14,3.72,0,2.54-1.56,4.3-4,6.24a36.45,36.45,0,0,1-4.22,2.92h6.84l-.22,1.32h-9.08Z"/><path d="M151.12,134h1.32l-.34,1.94a3.12,3.12,0,0,1,3-2.18,2.39,2.39,0,0,1,2.62,2.22,3.41,3.41,0,0,1,3.2-2.22,2.71,2.71,0,0,1,2.92,3,6.55,6.55,0,0,1-.12,1.18l-1.1,6.08h-1.4l1.08-6a4.35,4.35,0,0,0,.1-1c0-1.64-1-2.06-1.88-2.06-1.9,0-2.58,1.8-2.86,3.44l-1,5.56h-1.38l1.08-6a6.21,6.21,0,0,0,.08-1c0-1.66-1-2-1.84-2-2,0-2.64,1.88-2.94,3.52l-1,5.48h-1.38Z"/><path d="M171.08,141.4a2.69,2.69,0,0,1,.92-2.08,5.58,5.58,0,0,1,3.38-1.12l3.06-.24.06-.34c.28-1.88-.34-2.7-2.06-2.7s-2.62.72-2.88,2.2h-1.42c.3-2.22,1.88-3.36,4.2-3.36,2.82,0,4,1.32,3.5,4.32l-.44,2.48a18.57,18.57,0,0,0-.28,3.44h-1.46a14,14,0,0,1,.18-2,3.74,3.74,0,0,1-3.56,2.24C172.42,144.24,171.08,143.22,171.08,141.4Zm7.08-1.76.12-.68-2.64.2c-2.22.18-3,1-3,2.18s.9,1.74,2,1.74C176.4,143.08,177.78,141.7,178.16,139.64Z"/><path d="M182.68,141.16a10,10,0,0,1,.12-1.46l1-5.7h1.38l-1,5.76a6,6,0,0,0-.12,1.14,1.94,1.94,0,0,0,2.18,2.1c2.2,0,2.94-2.14,3.22-3.74l.92-5.26h1.42L190,144H188.7l.4-2.2a3.43,3.43,0,0,1-3.36,2.44A2.8,2.8,0,0,1,182.68,141.16Z"/><path d="M199.42,134h1.86l.46-2.64,1.52-.6-.58,3.24h2.56l-.2,1.16h-2.56l-1,5.78c-.3,1.66.52,1.92,1.36,1.92a4.94,4.94,0,0,0,.88-.08l-.22,1.24a4.24,4.24,0,0,1-1.14.16c-1.48,0-2.72-.86-2.26-3.44l1-5.58h-1.86Z"/><path d="M212.08,133.76a2.9,2.9,0,0,1,.64.06l-.26,1.38a2.07,2.07,0,0,0-.56-.06,2.53,2.53,0,0,0-1.78.6,5.58,5.58,0,0,0-1.72,3.44l-.88,4.82h-1.38l1.76-10h1.32l-.46,2.6C209.38,134.9,210.3,133.76,212.08,133.76Z"/><path d="M212.62,141.4a2.69,2.69,0,0,1,.92-2.08,5.58,5.58,0,0,1,3.38-1.12L220,138l.06-.34c.28-1.88-.34-2.7-2.06-2.7s-2.62.72-2.88,2.2h-1.42c.3-2.22,1.88-3.36,4.2-3.36,2.82,0,4,1.32,3.5,4.32l-.44,2.48a18.57,18.57,0,0,0-.28,3.44H219.2a14,14,0,0,1,.18-2,3.74,3.74,0,0,1-3.56,2.24C214,144.24,212.62,143.22,212.62,141.4Zm7.08-1.76.12-.68-2.64.2c-2.22.18-3,1-3,2.18s.9,1.74,2,1.74C217.94,143.08,219.32,141.7,219.7,139.64Z"/><path d="M225.64,134H227l-.34,1.94a3.12,3.12,0,0,1,3-2.18,2.39,2.39,0,0,1,2.62,2.22,3.41,3.41,0,0,1,3.2-2.22,2.71,2.71,0,0,1,2.92,3,6.55,6.55,0,0,1-.12,1.18l-1.1,6.08h-1.4l1.08-6a4.35,4.35,0,0,0,.1-1c0-1.64-1-2.06-1.88-2.06-1.9,0-2.58,1.8-2.86,3.44l-1,5.56h-1.38l1.08-6a6.21,6.21,0,0,0,.08-1c0-1.66-1-2-1.84-2-2,0-2.64,1.88-2.94,3.52l-1,5.48h-1.38Z"/><path d="M252,137.78l-.22,1.32H246l.22-1.32Z"/><path d="M266.88,137.8l2.64,6.2h-1.76l-2.5-6.06H262L260.92,144h-1.54l2.5-14.2h4.62c2.4,0,4.46,1,4.46,3.68C271,135.42,269.88,137.3,266.88,137.8Zm2.4-4.3c0-1.92-1.36-2.38-2.78-2.38h-3.28l-1,5.5h3C268.44,136.62,269.28,135,269.28,133.5Z"/><path d="M273.32,139.36v.36c0,2.46,1.32,3.28,2.92,3.28a2.91,2.91,0,0,0,2.88-2.14l1.16.5a4.12,4.12,0,0,1-4.1,2.88c-2,0-4.24-1-4.24-4.42,0-2.78,1.48-6.06,5.1-6.06a3.57,3.57,0,0,1,3.9,3.86,5.2,5.2,0,0,1-.28,1.74Zm.14-1.14h6a2.85,2.85,0,0,0,.1-.78,2.34,2.34,0,0,0-2.56-2.58C275,134.86,273.84,136.32,273.46,138.22Z"/><path d="M282.88,134h1.86l.46-2.64,1.52-.6-.58,3.24h2.56l-.2,1.16h-2.56l-1,5.78c-.3,1.66.52,1.92,1.36,1.92a4.94,4.94,0,0,0,.88-.08l-.22,1.24a4.24,4.24,0,0,1-1.14.16c-1.48,0-2.72-.86-2.26-3.44l1-5.58h-1.86Z"/><path d="M295.54,133.76a2.9,2.9,0,0,1,.64.06l-.26,1.38a2.07,2.07,0,0,0-.56-.06,2.53,2.53,0,0,0-1.78.6,5.58,5.58,0,0,0-1.72,3.44L291,144H289.6l1.76-10h1.32l-.46,2.6C292.84,134.9,293.76,133.76,295.54,133.76Z"/><path d="M296.08,141.4a2.69,2.69,0,0,1,.92-2.08,5.58,5.58,0,0,1,3.38-1.12l3.06-.24.06-.34c.28-1.88-.34-2.7-2.06-2.7s-2.62.72-2.88,2.2h-1.42c.3-2.22,1.88-3.36,4.2-3.36,2.82,0,4,1.32,3.5,4.32l-.44,2.48a18.57,18.57,0,0,0-.28,3.44h-1.46a14,14,0,0,1,.18-2,3.74,3.74,0,0,1-3.56,2.24C297.42,144.24,296.08,143.22,296.08,141.4Zm7.08-1.76.12-.68-2.64.2c-2.22.18-3,1-3,2.18s.9,1.74,2,1.74C301.4,143.08,302.78,141.7,303.16,139.64Z"/><path d="M309.1,134h1.38l-1.76,10h-1.38Zm.54-4h1.6l-.4,2.2h-1.58Z"/><path d="M312.8,134h1.86l.46-2.64,1.52-.6-.58,3.24h2.56l-.2,1.16h-2.56l-1,5.78c-.3,1.66.52,1.92,1.36,1.92a4.94,4.94,0,0,0,.88-.08l-.22,1.24a4.24,4.24,0,0,1-1.14.16c-1.48,0-2.72-.86-2.26-3.44l1-5.58H312.6Z"/><path d="M324.7,140c0-2.68,1.38-6.26,4.88-6.26A3.13,3.13,0,0,1,332.8,136l1.12-6.52h1.4L332.76,144h-1.32l.34-1.94a3.82,3.82,0,0,1-3.46,2.18C326.64,144.24,324.7,143.18,324.7,140Zm7.48-.4.1-.48c.54-2.82-.84-4.14-2.6-4.14-2.64,0-3.48,3-3.48,4.92,0,2.58,1.46,3.08,2.58,3.08C330.76,143,331.84,141.4,332.18,139.62Z"/><path d="M338,139.36v.36c0,2.46,1.32,3.28,2.92,3.28a2.91,2.91,0,0,0,2.88-2.14l1.16.5a4.12,4.12,0,0,1-4.1,2.88c-2,0-4.24-1-4.24-4.42,0-2.78,1.48-6.06,5.1-6.06a3.57,3.57,0,0,1,3.9,3.86,5.2,5.2,0,0,1-.28,1.74Zm.14-1.14h6a2.85,2.85,0,0,0,.1-.78,2.34,2.34,0,0,0-2.56-2.58C339.62,134.86,338.48,136.32,338.1,138.22Z"/><path d="M354.56,134h1.32l-.34,1.94a3.12,3.12,0,0,1,3-2.18A2.39,2.39,0,0,1,361.2,136a3.41,3.41,0,0,1,3.2-2.22,2.71,2.71,0,0,1,2.92,3,6.55,6.55,0,0,1-.12,1.18L366.1,144h-1.4l1.08-6a4.35,4.35,0,0,0,.1-1c0-1.64-1-2.06-1.88-2.06-1.9,0-2.58,1.8-2.86,3.44l-1,5.56h-1.38l1.08-6a6.21,6.21,0,0,0,.08-1c0-1.66-1-2-1.84-2-2,0-2.64,1.88-2.94,3.52l-1,5.48H352.8Z"/><path d="M371.38,134h1.38L371,144h-1.38Zm.54-4h1.6l-.4,2.2h-1.58Z"/><path d="M376.56,134h1.32l-.38,2.16a3.56,3.56,0,0,1,3.46-2.4c1.4,0,3.08.6,3.08,3.2a8.51,8.51,0,0,1-.12,1.34l-1,5.7h-1.4l1-5.76a6.5,6.5,0,0,0,.1-1,2,2,0,0,0-2.2-2.22c-2.3,0-3.06,2.14-3.34,3.74l-.94,5.26H374.8Z"/><path d="M401.58,139.1c0,2.5-1.38,5.2-4.82,5.2-2.42,0-4.66-1.38-4.66-6,0-3.82,1.4-8.54,6-8.54,1.94,0,4,.84,4.32,3.48l-1.42.3a2.69,2.69,0,0,0-2.9-2.54c-2.88,0-4.14,2.48-4.44,6.14a4.05,4.05,0,0,1,3.84-2.46A4,4,0,0,1,401.58,139.1Zm-1.5.08c0-2.58-1.66-3.22-3-3.22a3.77,3.77,0,0,0-3.56,2.72c0,3.32,1.54,4.38,3.24,4.38C399.34,143.06,400.08,140.88,400.08,139.18Z"/><path d="M405.32,134h1.32l-.34,1.94a3.12,3.12,0,0,1,3-2.18A2.39,2.39,0,0,1,412,136a3.41,3.41,0,0,1,3.2-2.22,2.71,2.71,0,0,1,2.92,3,6.55,6.55,0,0,1-.12,1.18l-1.1,6.08h-1.4l1.08-6a4.35,4.35,0,0,0,.1-1c0-1.64-1-2.06-1.88-2.06-1.9,0-2.58,1.8-2.86,3.44l-1,5.56h-1.38l1.08-6a6.21,6.21,0,0,0,.08-1c0-1.66-1-2-1.84-2-2,0-2.64,1.88-2.94,3.52l-1,5.48h-1.38Z"/><path d="M425.28,141.4a2.66,2.66,0,0,1,.92-2.08,5.58,5.58,0,0,1,3.38-1.12l3.06-.24.06-.34c.28-1.88-.34-2.7-2.06-2.7s-2.62.72-2.88,2.2h-1.42c.3-2.22,1.88-3.36,4.2-3.36,2.82,0,4,1.32,3.5,4.32l-.44,2.48a18.57,18.57,0,0,0-.28,3.44h-1.46a14,14,0,0,1,.18-2,3.74,3.74,0,0,1-3.56,2.24C426.61,144.24,425.28,143.22,425.28,141.4Zm7.08-1.76.12-.68-2.64.2c-2.22.18-3,1-3,2.18s.9,1.74,2,1.74C430.6,143.08,432,141.7,432.36,139.64Zm-2-7.24-2.9-2.86h1.74l2.46,2.86Z"/><path d="M443.32,144h-1.38l2.56-14.5h1.38Z"/><path d="M446.82,141.4a2.66,2.66,0,0,1,.92-2.08,5.58,5.58,0,0,1,3.38-1.12l3.06-.24.06-.34c.28-1.88-.34-2.7-2.06-2.7s-2.62.72-2.88,2.2h-1.42c.3-2.22,1.88-3.36,4.2-3.36,2.82,0,4,1.32,3.5,4.32l-.44,2.48a18.57,18.57,0,0,0-.28,3.44H453.4a14,14,0,0,1,.18-2,3.74,3.74,0,0,1-3.56,2.24C448.16,144.24,446.82,143.22,446.82,141.4Zm7.08-1.76L454,139l-2.64.2c-2.22.18-3,1-3,2.18s.9,1.74,2,1.74C452.14,143.08,453.52,141.7,453.9,139.64Z"/><path d="M464.86,144h-1.39L466,129.5h1.39Z"/><path d="M470.51,134h1.39l-1.77,10h-1.38Zm.54-4h1.61l-.41,2.2h-1.58Z"/><path d="M475.7,134H477l-.34,1.94a3.12,3.12,0,0,1,3-2.18,2.39,2.39,0,0,1,2.62,2.22,3.41,3.41,0,0,1,3.2-2.22,2.71,2.71,0,0,1,2.92,3,6.55,6.55,0,0,1-.12,1.18l-1.1,6.08h-1.4l1.08-6a4.35,4.35,0,0,0,.1-1c0-1.64-1-2.06-1.88-2.06-1.9,0-2.58,1.8-2.86,3.44l-1,5.56H479.9l1.08-6a6.21,6.21,0,0,0,.08-1c0-1.66-1-2-1.84-2-2,0-2.64,1.88-2.94,3.52l-1,5.48h-1.38Z"/><path d="M492.51,134h1.39l-1.77,10h-1.38Zm.54-4h1.61l-.41,2.2h-1.58Z"/><path d="M496.21,134h1.86l.46-2.64,1.52-.6-.58,3.24H502l-.19,1.16h-2.56l-1,5.78c-.3,1.66.52,1.92,1.36,1.92a4.86,4.86,0,0,0,.88-.08l-.21,1.24a4.37,4.37,0,0,1-1.15.16c-1.48,0-2.72-.86-2.26-3.44l1-5.58H496Z"/><path d="M503.85,139.36v.36c0,2.46,1.32,3.28,2.93,3.28a2.91,2.91,0,0,0,2.88-2.14l1.16.5a4.13,4.13,0,0,1-4.11,2.88c-2,0-4.24-1-4.24-4.42,0-2.78,1.48-6.06,5.1-6.06a3.58,3.58,0,0,1,3.91,3.86,5.2,5.2,0,0,1-.28,1.74Zm.14-1.14h6a2.85,2.85,0,0,0,.1-.78,2.34,2.34,0,0,0-2.56-2.58C505.51,134.86,504.37,136.32,504,138.22Z"/><path d="M518.57,140c0-2.68,1.38-6.26,4.88-6.26a3.14,3.14,0,0,1,3.23,2.26l1.12-6.52h1.4L526.64,144h-1.32l.34-1.94a3.84,3.84,0,0,1-3.47,2.18C520.51,144.24,518.57,143.18,518.57,140Zm7.49-.4.1-.48c.54-2.82-.84-4.14-2.61-4.14-2.64,0-3.48,3-3.48,4.92,0,2.58,1.46,3.08,2.59,3.08C524.64,143,525.72,141.4,526.06,139.62Z"/><path d="M531.83,139.36v.36c0,2.46,1.32,3.28,2.92,3.28a2.93,2.93,0,0,0,2.89-2.14l1.16.5a4.14,4.14,0,0,1-4.11,2.88c-2,0-4.24-1-4.24-4.42,0-2.78,1.48-6.06,5.1-6.06a3.58,3.58,0,0,1,3.91,3.86,5.2,5.2,0,0,1-.28,1.74Zm.14-1.14h6a2.48,2.48,0,0,0,.11-.78,2.34,2.34,0,0,0-2.57-2.58C533.49,134.86,532.35,136.32,532,138.22Z"/><path d="M548.45,134h1.32l-.4,2.12a3.83,3.83,0,0,1,3.46-2.36c1.69,0,3.67,1,3.67,4.18,0,2.72-1.44,6.3-4.85,6.3a3.2,3.2,0,0,1-3.26-2.12l-1,5.78H546Zm6.54,4c0-2.4-1.33-3-2.52-3-2.14,0-3.2,1.94-3.48,3.58l-.12.66c-.38,2.16.5,3.76,2.5,3.76C554.25,143,555,139.76,555,138Z"/><path d="M564.36,133.76a2.86,2.86,0,0,1,.63.06l-.25,1.38a2.21,2.21,0,0,0-.57-.06,2.53,2.53,0,0,0-1.78.6,5.58,5.58,0,0,0-1.72,3.44l-.88,4.82h-1.38l1.76-10h1.32l-.46,2.6C561.65,134.9,562.57,133.76,564.36,133.76Z"/><path d="M565.15,139.9c0-2.7,1.32-6.14,5.2-6.14,2.08,0,4.22,1,4.22,4.34,0,2.7-1.32,6.14-5.22,6.14C567.29,144.24,565.15,143.22,565.15,139.9Zm7.92-1.72c0-2.46-1.4-3.2-2.8-3.2-2.86,0-3.62,2.92-3.62,4.84,0,2.46,1.4,3.2,2.8,3.2C572.31,143,573.07,140.1,573.07,138.18Z"/><path d="M578.31,134h1.32l-.4,2.12a3.83,3.83,0,0,1,3.46-2.36c1.68,0,3.67,1,3.67,4.18,0,2.72-1.45,6.3-4.85,6.3a3.2,3.2,0,0,1-3.26-2.12l-1,5.78h-1.38Zm6.54,4c0-2.4-1.34-3-2.52-3-2.14,0-3.2,1.94-3.48,3.58l-.12.66c-.38,2.16.5,3.76,2.5,3.76C584.11,143,584.85,139.76,584.85,138Z"/><path d="M594.21,133.76a2.9,2.9,0,0,1,.64.06l-.26,1.38a2.07,2.07,0,0,0-.56-.06,2.53,2.53,0,0,0-1.78.6,5.58,5.58,0,0,0-1.72,3.44l-.88,4.82h-1.38L590,134h1.32l-.46,2.6C591.51,134.9,592.43,133.76,594.21,133.76Z"/><path d="M597.17,134h1.38l-1.76,10h-1.38Zm.54-4h1.6l-.4,2.2h-1.58Z"/><path d="M609.51,137.62a5.2,5.2,0,0,1-.28,1.74h-7.34v.36c0,2.46,1.32,3.28,2.92,3.28a2.91,2.91,0,0,0,2.88-2.14l1.16.5a4.12,4.12,0,0,1-4.1,2.88c-2,0-4.24-1-4.24-4.42,0-2.78,1.48-6.06,5.1-6.06A3.57,3.57,0,0,1,609.51,137.62Zm-1.36-.18a2.34,2.34,0,0,0-2.56-2.58c-2,0-3.18,1.46-3.56,3.36h6A2.85,2.85,0,0,0,608.15,137.44Zm-1.5-5h-1.32l2.48-2.86h1.72Z"/><path d="M611.45,134h1.86l.46-2.64,1.52-.6-.58,3.24h2.56l-.2,1.16h-2.56l-1,5.78c-.3,1.66.52,1.92,1.36,1.92a4.94,4.94,0,0,0,.88-.08l-.22,1.24a4.24,4.24,0,0,1-1.14.16c-1.48,0-2.72-.86-2.26-3.44l1-5.58h-1.86Z"/><path d="M626.73,137.62a5.2,5.2,0,0,1-.28,1.74h-7.34v.36c0,2.46,1.32,3.28,2.92,3.28a2.91,2.91,0,0,0,2.88-2.14l1.16.5a4.12,4.12,0,0,1-4.1,2.88c-2,0-4.24-1-4.24-4.42,0-2.78,1.48-6.06,5.1-6.06A3.57,3.57,0,0,1,626.73,137.62Zm-1.36-.18a2.34,2.34,0,0,0-2.56-2.58c-2,0-3.18,1.46-3.56,3.36h6A2.85,2.85,0,0,0,625.37,137.44Zm-1.5-5h-1.32l2.48-2.86h1.72Z"/><path d="M640,137.78l-.22,1.32H634l.22-1.32Z"/><path d="M651.15,131.12l-.88,4.94h6.78l-.24,1.32h-6.76l-.94,5.3h7.24l-.22,1.32h-8.8l2.5-14.2h8.66l-.24,1.32Z"/><path d="M661.11,134h1.32l-.38,2.16a3.56,3.56,0,0,1,3.46-2.4c1.4,0,3.08.6,3.08,3.2a8.51,8.51,0,0,1-.12,1.34l-1,5.7h-1.4l1-5.76a6.5,6.5,0,0,0,.1-1A2,2,0,0,0,665,135c-2.3,0-3.06,2.14-3.34,3.74l-.94,5.26h-1.38Z"/><path d="M670.89,139.84c0-2.64,1.34-6.08,5.14-6.08,2.14,0,3.88,1.1,3.84,3.62l-1.34.16A2.33,2.33,0,0,0,676,135c-2.8,0-3.62,2.86-3.62,4.86,0,2.42,1.38,3.18,2.72,3.18a2.9,2.9,0,0,0,2.88-2.56l1.36.2a4.16,4.16,0,0,1-4.3,3.58C673,144.24,670.89,143.2,670.89,139.84Z"/><path d="M683.11,144h-1.38l2.56-14.5h1.38Z"/><path d="M686.61,141.4a2.69,2.69,0,0,1,.92-2.08,5.58,5.58,0,0,1,3.38-1.12L694,138l.06-.34c.28-1.88-.34-2.7-2.06-2.7s-2.62.72-2.88,2.2h-1.42c.3-2.22,1.88-3.36,4.2-3.36,2.82,0,4,1.32,3.5,4.32l-.44,2.48a18.57,18.57,0,0,0-.28,3.44h-1.46a14,14,0,0,1,.18-2,3.74,3.74,0,0,1-3.56,2.24C688,144.24,686.61,143.22,686.61,141.4Zm7.08-1.76.12-.68-2.64.2c-2.22.18-3,1-3,2.18s.9,1.74,2,1.74C691.93,143.08,693.31,141.7,693.69,139.64Z"/><path d="M697.63,134h1.48l1.24,7.08c.08.56.14,1,.16,1.48h.06c.18-.46.42-.92.7-1.48L705,134h1.54l-5.46,10h-1.52Z"/><path d="M708,139.36v.36c0,2.46,1.32,3.28,2.92,3.28a2.91,2.91,0,0,0,2.88-2.14l1.16.5a4.12,4.12,0,0,1-4.1,2.88c-2,0-4.24-1-4.24-4.42,0-2.78,1.48-6.06,5.1-6.06a3.57,3.57,0,0,1,3.9,3.86,5.2,5.2,0,0,1-.28,1.74Zm.14-1.14h6a2.85,2.85,0,0,0,.1-.78,2.34,2.34,0,0,0-2.56-2.58C709.63,134.86,708.49,136.32,708.11,138.22Z"/><path d="M725.47,129.5h1.38L725.71,136a3.66,3.66,0,0,1,3.5-2.26,2.75,2.75,0,0,1,3,3.06,7.79,7.79,0,0,1-.12,1.26l-1,5.92h-1.4l1.06-5.92c0-.22.08-.62.08-1a1.88,1.88,0,0,0-2.12-2.08c-2.24,0-3.12,1.9-3.44,3.74l-.94,5.26h-1.38Z"/><path d="M734.47,139.9c0-2.7,1.32-6.14,5.2-6.14,2.08,0,4.22,1,4.22,4.34,0,2.7-1.32,6.14-5.22,6.14C736.61,144.24,734.47,143.22,734.47,139.9Zm7.92-1.72c0-2.46-1.4-3.2-2.8-3.2-2.86,0-3.62,2.92-3.62,4.84,0,2.46,1.4,3.2,2.8,3.2C741.63,143,742.39,140.1,742.39,138.18Z"/><path d="M751.79,133.76a2.9,2.9,0,0,1,.64.06l-.26,1.38a2.07,2.07,0,0,0-.56-.06,2.53,2.53,0,0,0-1.78.6,5.58,5.58,0,0,0-1.72,3.44l-.88,4.82h-1.38l1.76-10h1.32l-.46,2.6C749.09,134.9,750,133.76,751.79,133.76Z"/><path d="M752.37,141.12l1.4-.22c.18,1.62,1.34,2.18,2.76,2.18,1.84,0,2.34-1,2.34-1.86s-.5-1.28-1.5-1.5l-1.74-.4a2.51,2.51,0,0,1-2.24-2.54c0-1.64,1.3-3,3.72-3,1.92,0,3.88.82,3.92,2.8l-1.36.3c-.08-1.44-1.3-2-2.64-2-1.6,0-2.24.78-2.24,1.76s.44,1.26,1.58,1.52l1.66.38c1.72.4,2.28,1.32,2.28,2.6,0,1.62-1.26,3.08-3.9,3.08C754.51,144.24,752.57,143.46,752.37,141.12Z"/><path d="M769.83,134h1.32l-.4,2.12a3.83,3.83,0,0,1,3.46-2.36c1.68,0,3.66,1,3.66,4.18,0,2.72-1.44,6.3-4.84,6.3a3.2,3.2,0,0,1-3.26-2.12l-1,5.78h-1.38Zm6.54,4c0-2.4-1.34-3-2.52-3-2.14,0-3.2,1.94-3.48,3.58l-.12.66c-.38,2.16.5,3.76,2.5,3.76C775.63,143,776.37,139.76,776.37,138Z"/><path d="M788.71,137.62a5.2,5.2,0,0,1-.28,1.74h-7.34v.36c0,2.46,1.32,3.28,2.92,3.28a2.91,2.91,0,0,0,2.88-2.14l1.16.5a4.12,4.12,0,0,1-4.1,2.88c-2,0-4.24-1-4.24-4.42,0-2.78,1.48-6.06,5.1-6.06A3.57,3.57,0,0,1,788.71,137.62Zm-1.36-.18a2.34,2.34,0,0,0-2.56-2.58c-2,0-3.18,1.46-3.56,3.36h6A2.85,2.85,0,0,0,787.35,137.44Zm-1.5-5h-1.32l2.48-2.86h1.72Z"/><path d="M796.57,133.76a2.9,2.9,0,0,1,.64.06L797,135.2a2.07,2.07,0,0,0-.56-.06,2.53,2.53,0,0,0-1.78.6,5.58,5.58,0,0,0-1.72,3.44L792,144h-1.38l1.76-10h1.32l-.46,2.6C793.87,134.9,794.79,133.76,796.57,133.76Z"/><path d="M799.53,134h1.38l-1.76,10h-1.38Zm.54-4h1.6l-.4,2.2h-1.58Z"/><path d="M804.71,134H806l-.34,1.94a3.12,3.12,0,0,1,3-2.18,2.39,2.39,0,0,1,2.62,2.22,3.41,3.41,0,0,1,3.2-2.22,2.71,2.71,0,0,1,2.92,3,6.55,6.55,0,0,1-.12,1.18l-1.1,6.08h-1.4l1.08-6a4.35,4.35,0,0,0,.1-1c0-1.64-1-2.06-1.88-2.06-1.9,0-2.58,1.8-2.86,3.44l-1,5.56h-1.38l1.08-6a6.21,6.21,0,0,0,.08-1c0-1.66-1-2-1.84-2-2,0-2.64,1.88-2.94,3.52l-1,5.48H803Z"/><path d="M821.07,139.36v.36c0,2.46,1.32,3.28,2.92,3.28a2.91,2.91,0,0,0,2.88-2.14l1.16.5a4.12,4.12,0,0,1-4.1,2.88c-2,0-4.24-1-4.24-4.42,0-2.78,1.48-6.06,5.1-6.06a3.57,3.57,0,0,1,3.9,3.86,5.2,5.2,0,0,1-.28,1.74Zm.14-1.14h6a2.85,2.85,0,0,0,.1-.78,2.34,2.34,0,0,0-2.56-2.58C822.73,134.86,821.59,136.32,821.21,138.22Zm3.32-5.82-2.9-2.86h1.74l2.46,2.86Z"/><path d="M830.63,134h1.86l.46-2.64,1.52-.6-.58,3.24h2.56l-.2,1.16h-2.56l-1,5.78c-.3,1.66.52,1.92,1.36,1.92a4.94,4.94,0,0,0,.88-.08l-.22,1.24a4.24,4.24,0,0,1-1.14.16c-1.48,0-2.72-.86-2.26-3.44l1-5.58h-1.86Z"/><path d="M843.29,133.76a2.9,2.9,0,0,1,.64.06l-.26,1.38a2.07,2.07,0,0,0-.56-.06,2.53,2.53,0,0,0-1.78.6,5.58,5.58,0,0,0-1.72,3.44l-.88,4.82h-1.38l1.76-10h1.32l-.46,2.6C840.59,134.9,841.51,133.76,843.29,133.76Z"/><path d="M845.47,139.36v.36c0,2.46,1.32,3.28,2.92,3.28a2.91,2.91,0,0,0,2.88-2.14l1.16.5a4.12,4.12,0,0,1-4.1,2.88c-2,0-4.24-1-4.24-4.42,0-2.78,1.48-6.06,5.1-6.06a3.57,3.57,0,0,1,3.9,3.86,5.2,5.2,0,0,1-.28,1.74Zm.14-1.14h6a2.85,2.85,0,0,0,.1-.78,2.34,2.34,0,0,0-2.56-2.58C847.13,134.86,846,136.32,845.61,138.22Z"/><path d="M854,145.92a2,2,0,0,0,1.38-1.8l0-.12h-1l.38-2.24h1.9l-.38,2.12c-.32,1.88-1.14,2.48-2.06,2.76Z"/><path d="M866.69,134H868l-.4,2.12a3.83,3.83,0,0,1,3.46-2.36c1.68,0,3.66,1,3.66,4.18,0,2.72-1.44,6.3-4.84,6.3a3.2,3.2,0,0,1-3.26-2.12l-1,5.78h-1.38Zm6.54,4c0-2.4-1.34-3-2.52-3-2.14,0-3.2,1.94-3.48,3.58l-.12.66c-.38,2.16.5,3.76,2.5,3.76C872.49,143,873.23,139.76,873.23,138Z"/><path d="M878.13,144h-1.38l2.56-14.5h1.38Z"/><path d="M881.63,141.4a2.69,2.69,0,0,1,.92-2.08,5.58,5.58,0,0,1,3.38-1.12L889,138l.06-.34c.28-1.88-.34-2.7-2.06-2.7s-2.62.72-2.88,2.2h-1.42c.3-2.22,1.88-3.36,4.2-3.36,2.82,0,4,1.32,3.5,4.32l-.44,2.48a18.57,18.57,0,0,0-.28,3.44h-1.46a14,14,0,0,1,.18-2,3.74,3.74,0,0,1-3.56,2.24C883,144.24,881.63,143.22,881.63,141.4Zm7.08-1.76.12-.68-2.64.2c-2.22.18-3,1-3,2.18s.9,1.74,2,1.74C887,143.08,888.33,141.7,888.71,139.64Z"/><path d="M892.73,139.84c0-2.64,1.34-6.08,5.14-6.08,2.14,0,3.88,1.1,3.84,3.62l-1.34.16a2.33,2.33,0,0,0-2.52-2.56c-2.8,0-3.62,2.86-3.62,4.86,0,2.42,1.38,3.18,2.72,3.18a2.9,2.9,0,0,0,2.88-2.56l1.36.2a4.16,4.16,0,0,1-4.3,3.58C894.87,144.24,892.73,143.2,892.73,139.84Z"/><path d="M904.77,139.36v.36c0,2.46,1.32,3.28,2.92,3.28a2.91,2.91,0,0,0,2.88-2.14l1.16.5a4.12,4.12,0,0,1-4.1,2.88c-2,0-4.24-1-4.24-4.42,0-2.78,1.48-6.06,5.1-6.06a3.57,3.57,0,0,1,3.9,3.86,5.2,5.2,0,0,1-.28,1.74Zm.14-1.14h6a2.85,2.85,0,0,0,.1-.78,2.34,2.34,0,0,0-2.56-2.58C906.43,134.86,905.29,136.32,904.91,138.22Z"/><path d="M919.49,140c0-2.68,1.38-6.26,4.88-6.26a3.13,3.13,0,0,1,3.22,2.26l1.12-6.52h1.4L927.55,144h-1.32l.34-1.94a3.82,3.82,0,0,1-3.46,2.18C921.43,144.24,919.49,143.18,919.49,140Zm7.48-.4.1-.48c.54-2.82-.84-4.14-2.6-4.14-2.64,0-3.48,3-3.48,4.92,0,2.58,1.46,3.08,2.58,3.08C925.55,143,926.63,141.4,927,139.62Z"/><path d="M932.75,139.36v.36c0,2.46,1.32,3.28,2.92,3.28a2.91,2.91,0,0,0,2.88-2.14l1.16.5a4.12,4.12,0,0,1-4.1,2.88c-2,0-4.24-1-4.24-4.42,0-2.78,1.48-6.06,5.1-6.06a3.57,3.57,0,0,1,3.9,3.86,5.2,5.2,0,0,1-.28,1.74Zm.14-1.14h6a2.85,2.85,0,0,0,.1-.78,2.34,2.34,0,0,0-2.56-2.58C934.41,134.86,933.27,136.32,932.89,138.22Z"/><path d="M944.63,147.82l.22-1.22a3.42,3.42,0,0,0,1,.18c.88,0,1.28-.44,1.46-1.46l2-11.32h1.42l-2,11.46c-.3,1.68-1,2.58-2.68,2.58A4,4,0,0,1,944.63,147.82ZM949.85,130h1.6l-.4,2.2h-1.58Z"/><path d="M954,139.36v.36c0,2.46,1.32,3.28,2.92,3.28a2.91,2.91,0,0,0,2.88-2.14l1.16.5a4.12,4.12,0,0,1-4.1,2.88c-2,0-4.24-1-4.24-4.42,0-2.78,1.48-6.06,5.1-6.06a3.57,3.57,0,0,1,3.9,3.86,5.2,5.2,0,0,1-.28,1.74Zm.14-1.14h6a2.85,2.85,0,0,0,.1-.78,2.34,2.34,0,0,0-2.56-2.58C955.67,134.86,954.53,136.32,954.15,138.22Z"/><path d="M963.89,141.16a10,10,0,0,1,.12-1.46l1-5.7h1.38l-1,5.76a6,6,0,0,0-.12,1.14,1.94,1.94,0,0,0,2.18,2.1c2.2,0,2.94-2.14,3.22-3.74l.92-5.26H973l-1.78,10h-1.32l.4-2.2a3.43,3.43,0,0,1-3.36,2.44A2.8,2.8,0,0,1,963.89,141.16Z"/><path d="M978.09,138.82,975.53,134h1.66l1.42,2.88a7.58,7.58,0,0,1,.48,1.12h0c.2-.28.48-.64.86-1.12l2.36-2.88h1.72l-4.22,4.92,2.72,5.08H981l-1.64-3.22a8.37,8.37,0,0,1-.46-1.08h0c-.14.22-.42.58-.84,1.1l-2.68,3.2h-1.84Z"/><g class="cls-4"><g class="cls-5"><image width="4670" height="2604" transform="translate(34.92 182.28) scale(0.24 0.24)" xlink:href="Sans%20titre%20-%2021.png"/></g></g></g></svg>