<svg id="Calque_1" data-name="Calque 1" xmlns="http://www.w3.org/2000/svg" xmlns:xlink="http://www.w3.org/1999/xlink" viewBox="0 0 1190.55 841.89"><defs><style>.cls-1{fill:none;}.cls-2{clip-path:url(#clip-path);}.cls-3{fill:#575756;}.cls-4{clip-path:url(#clip-path-2);}.cls-5{clip-path:url(#clip-path-3);}.cls-6{clip-path:url(#clip-path-4);}.cls-7{clip-path:url(#clip-path-5);}.cls-8{clip-path:url(#clip-path-6);}.cls-9{clip-path:url(#clip-path-7);}.cls-10{clip-path:url(#clip-path-8);}.cls-11{clip-path:url(#clip-path-9);}</style><clipPath id="clip-path"><rect class="cls-1" width="1190.55" height="841.89"/></clipPath><clipPath id="clip-path-2"><rect class="cls-1" x="36" y="330.14" width="270.64" height="150.8"/></clipPath><clipPath id="clip-path-3"><rect class="cls-1" x="35.27" y="329.11" width="272.4" height="152.86"/></clipPath><clipPath id="clip-path-4"><rect class="cls-1" x="318.64" y="432.57" width="270.64" height="150.8"/></clipPath><clipPath id="clip-path-5"><rect class="cls-1" x="317.91" y="431.53" width="272.4" height="152.86"/></clipPath><clipPath id="clip-path-6"><rect class="cls-1" x="601.28" y="519.02" width="270.64" height="150.8"/></clipPath><clipPath id="clip-path-7"><rect class="cls-1" x="600.54" y="517.99" width="272.4" height="152.86"/></clipPath><clipPath id="clip-path-8"><rect class="cls-1" x="883.78" y="603.21" width="270.64" height="150.8"/></clipPath><clipPath id="clip-path-9"><rect class="cls-1" x="883.05" y="602.18" width="272.4" height="152.86"/></clipPath></defs><g class="cls-2"><path d="M107.3,55.25v4.8h-4.77v-4.8h-9.6V52l9-13.26h5.34v13h3.12v3.54Zm-4.53-12.09h-.06a10,10,0,0,1-1.2,2.16l-3,4.56a13.47,13.47,0,0,1-1.38,1.83h5.55V45.53C102.71,44.42,102.71,43.91,102.77,43.16Zm14.82,16.89h-5.13V55.13h5.13Zm28.56-6c0,3.36-2.37,6-7.23,6h-10V38.75h9.6c4.86,0,7.08,2.37,7.08,5.49A4.76,4.76,0,0,1,141.77,49,4.8,4.8,0,0,1,146.15,54.05ZM134,42.32v5.19h3.18c2.28,0,3.15-1.17,3.15-2.61s-1-2.58-3.15-2.58Zm6.87,11.31c0-1.65-1.11-2.76-3.24-2.76H134v5.61h3.51C139.82,56.48,140.87,55.25,140.87,53.63Zm8.49,6.42V38.75h5.07v21.3Zm9.51-21.3h5.07V55.94h8.64v4.11H158.87Zm29.78,16.32h-7.86l-1.62,5H174.1l7.74-21.3h5.79l7.74,21.3h-5.1Zm-1.17-3.57-1.95-5.94a25.65,25.65,0,0,1-.78-3h-.06a20.83,20.83,0,0,1-.78,3L182,51.5ZM198,38.75h5.61l6.84,12.15a22.16,22.16,0,0,1,1.29,2.76h.06c0-.84,0-1.71,0-2.73V38.75h4.65v21.3H211l-7.08-12.27a18.35,18.35,0,0,1-1.26-2.61h-.06c0,.87,0,1.77,0,2.82V60.05H198Zm30.27,0h8.49c6.39,0,10.53,4.26,10.53,10.53s-4.14,10.77-10.59,10.77h-8.43Zm8.22,17.58c3.6,0,5.58-3.24,5.58-7s-1.86-6.81-5.52-6.81h-3.21V56.33Zm28.68,0v3.75H250.36V38.75h14.58V42.5h-9.51v4.8h9V51h-9V56.3Zm1.38-.69L270.28,53a6.17,6.17,0,0,0,5.79,3.66c2,0,3.66-.75,3.66-2.43s-.93-2.19-3.09-2.64l-2.85-.6c-3.72-.81-5.88-2.82-5.88-6.39,0-3.9,3.18-6.33,8.31-6.33,3.78,0,7,1.38,8.46,4.23l-3.3,2.79A6,6,0,0,0,275.89,42c-2,0-3.3.84-3.3,2.19s.84,2.07,3.09,2.58l3.09.66c3.78.84,5.82,2.64,5.82,6.3,0,4.05-3.12,6.84-8.7,6.84C271.3,60.56,268,58.61,266.53,55.61ZM295,38.75h8.49C309.88,38.75,314,43,314,49.28s-4.14,10.77-10.59,10.77H295Zm8.22,17.58c3.6,0,5.58-3.24,5.58-7s-1.86-6.81-5.52-6.81h-3.21V56.33Zm13.89,3.72V38.75h5.07v21.3Zm7.23-4.44L328.09,53a6.17,6.17,0,0,0,5.79,3.66c2,0,3.66-.75,3.66-2.43s-.93-2.19-3.09-2.64L331.6,51c-3.72-.81-5.88-2.82-5.88-6.39,0-3.9,3.18-6.33,8.31-6.33,3.78,0,7,1.38,8.46,4.23l-3.3,2.79A6,6,0,0,0,333.7,42c-2,0-3.3.84-3.3,2.19s.84,2.07,3.09,2.58l3.09.66c3.78.84,5.82,2.64,5.82,6.3,0,4.05-3.12,6.84-8.7,6.84C329.11,60.56,325.81,58.61,324.34,55.61Zm19.71-6.18c0-6.72,4-11.19,10.44-11.19,5.43,0,8.85,3,9.42,7.65l-5.13.9c-.3-2.82-1.86-4.47-4.41-4.47-3.24,0-5.13,2.73-5.13,7.08s1.92,7.05,5.28,7.05c2.37,0,4-1.62,4.38-4.38L364,53.18c-1,4.5-4.32,7.38-9.6,7.38C347.68,60.56,344.05,56.15,344.05,49.43Zm27.63-10.68V52.4a4,4,0,1,0,7.92,0V38.75h5.07V52.61c0,4.86-3.36,8-9,8s-9-3.09-9-8V38.75Zm14.61,16.86L390,53a6.17,6.17,0,0,0,5.79,3.66c2,0,3.66-.75,3.66-2.43s-.93-2.19-3.09-2.64l-2.85-.6c-3.72-.81-5.88-2.82-5.88-6.39,0-3.9,3.18-6.33,8.31-6.33,3.78,0,7,1.38,8.46,4.23l-3.3,2.79A6,6,0,0,0,395.65,42c-2,0-3.3.84-3.3,2.19s.84,2.07,3.09,2.58l3.09.66c3.78.84,5.82,2.64,5.82,6.3,0,4.05-3.12,6.84-8.7,6.84C391.06,60.56,387.76,58.61,386.29,55.61Zm19.08,0L409.12,53a6.17,6.17,0,0,0,5.79,3.66c2,0,3.66-.75,3.66-2.43s-.93-2.19-3.09-2.64l-2.85-.6c-3.72-.81-5.88-2.82-5.88-6.39,0-3.9,3.18-6.33,8.31-6.33,3.78,0,7,1.38,8.46,4.23l-3.3,2.79A6,6,0,0,0,414.73,42c-2,0-3.3.84-3.3,2.19s.84,2.07,3.09,2.58l3.09.66c3.78.84,5.82,2.64,5.82,6.3,0,4.05-3.12,6.84-8.7,6.84C410.14,60.56,406.84,58.61,405.37,55.61Zm21.06,4.44V38.75h5.07v21.3Zm8.16-10.65c0-6.87,4.11-11.16,10.5-11.16s10.5,4.29,10.5,11.16-4.11,11.16-10.5,11.16S434.59,56.24,434.59,49.4Zm15.78,0c0-4.5-1.95-7.2-5.28-7.2s-5.31,2.7-5.31,7.2,2,7.2,5.31,7.2S450.37,53.9,450.37,49.4Zm8.31-10.65h5.61l6.84,12.15a22.16,22.16,0,0,1,1.29,2.76h.06c0-.84,0-1.71,0-2.73V38.75h4.65v21.3h-5.4l-7.08-12.27a18.35,18.35,0,0,1-1.26-2.61h-.06c0,.87,0,1.77,0,2.82V60.05h-4.65Zm20.58,16.86L483,53a6.17,6.17,0,0,0,5.79,3.66c2,0,3.66-.75,3.66-2.43s-.93-2.19-3.09-2.64l-2.85-.6c-3.72-.81-5.88-2.82-5.88-6.39,0-3.9,3.18-6.33,8.31-6.33,3.78,0,7,1.38,8.46,4.23l-3.3,2.79A6,6,0,0,0,488.62,42c-2,0-3.3.84-3.3,2.19s.84,2.07,3.09,2.58l3.09.66c3.78.84,5.82,2.64,5.82,6.3,0,4.05-3.12,6.84-8.7,6.84C484,60.56,480.73,58.61,479.26,55.61Z"/><path d="M320.11,257.9l3.79-4.62h1.65l-3.69,4.62,3.69,4.61h-1.67Zm4.15,0,3.8-4.62h1.64L326,257.9l3.67,4.61H328Z"/><path d="M340,248.24v10.21c0,2.69,1.48,4.4,4.17,4.4s4.2-1.71,4.2-4.4V248.24h1.73v10.32c0,3.49-2.11,5.82-5.93,5.82s-5.88-2.33-5.88-5.82V248.24Z"/><path d="M354.16,252.9h1.47v2.44a3.77,3.77,0,0,1,3.79-2.71c2.49,0,3.78,1.54,3.78,4.51V264h-1.56v-6.77c0-2.15-.93-3.26-2.68-3.26-2,0-3.27,1.59-3.27,4.19V264h-1.53Z"/><path d="M375.63,258.85h-8.06c0,2.51,1.4,4,3.55,4a3.1,3.1,0,0,0,3.13-2.37l1.31.53a4.49,4.49,0,0,1-4.55,3.22c-3.15,0-5-2-5-5.75s1.86-5.89,4.93-5.89,4.68,1.78,4.68,5.15Zm-1.58-1.47c0-2.28-1.15-3.5-3.13-3.5s-3.3,1.42-3.35,3.7h6.48Z"/><path d="M384.8,252.9h1.46v2.35a4,4,0,0,1,3.8-2.62c2.73,0,4.51,2.33,4.51,5.82s-1.89,5.82-4.62,5.82a3.74,3.74,0,0,1-3.62-2.36v6.42H384.8Zm8.12,5.55c0-2.75-1.19-4.44-3.24-4.44s-3.37,1.73-3.37,4.17v.49c0,2.49,1.24,4.22,3.28,4.22S392.92,261.2,392.92,258.45Z"/><path d="M397.63,248.46h1.75v2.44h-1.75Zm.11,4.44h1.53V264h-1.53Z"/><path d="M412.06,258.85H404c0,2.51,1.4,4,3.55,4a3.1,3.1,0,0,0,3.13-2.37l1.31.53a4.5,4.5,0,0,1-4.55,3.22c-3.15,0-5-2-5-5.75s1.86-5.89,4.93-5.89,4.68,1.78,4.68,5.15Zm-5.57-7.73L403.85,248h1.9l2.2,3.17Zm4,6.26c0-2.28-1.15-3.5-3.13-3.5s-3.31,1.42-3.35,3.7h6.48Z"/><path d="M414.3,258.45c0-3.62,1.93-5.82,5-5.82a4.2,4.2,0,0,1,4.49,4l-1.58.18a2.85,2.85,0,0,0-3-2.84c-2.06,0-3.33,1.66-3.33,4.44s1.27,4.48,3.4,4.48c1.67,0,2.71-1,3-2.84l1.49.22a4.32,4.32,0,0,1-4.49,4C416.25,264.27,414.3,262,414.3,258.45Z"/><path d="M435.59,258.85h-8.06c0,2.51,1.4,4,3.55,4a3.1,3.1,0,0,0,3.13-2.37l1.31.53a4.49,4.49,0,0,1-4.55,3.22c-3.15,0-5-2-5-5.75s1.86-5.89,4.93-5.89,4.68,1.78,4.68,5.15ZM434,257.38c0-2.28-1.15-3.5-3.13-3.5s-3.3,1.42-3.35,3.7H434Z"/><path d="M443.72,258.45c0-3.42,1.93-5.82,4.75-5.82a3.53,3.53,0,0,1,3.48,2.29v-7h1.56V264H452v-2.35a3.87,3.87,0,0,1-3.75,2.62C445.54,264.27,443.72,261.91,443.72,258.45Zm8.25.24v-.46c0-2.53-1.22-4.22-3.28-4.22s-3.33,1.67-3.33,4.44,1.24,4.44,3.31,4.44S452,261.16,452,258.69Z"/><path d="M466.38,258.85h-8.06c0,2.51,1.4,4,3.56,4a3.12,3.12,0,0,0,3.13-2.37l1.31.53a4.51,4.51,0,0,1-4.56,3.22c-3.15,0-5-2-5-5.75s1.86-5.89,4.93-5.89,4.68,1.78,4.68,5.15Zm-1.57-1.47c0-2.28-1.16-3.5-3.13-3.5s-3.31,1.42-3.36,3.7h6.49Z"/><path d="M475.55,252.9H477v2.44a3.77,3.77,0,0,1,3.79-2.71c2.49,0,3.78,1.54,3.78,4.51V264H483v-6.77c0-2.15-.93-3.26-2.68-3.26-2,0-3.27,1.59-3.27,4.19V264h-1.53Z"/><path d="M487.45,261.07a2.82,2.82,0,0,1,1.35-2.49,9.84,9.84,0,0,1,3.65-1l2.46-.28v-.18c0-2.29-.8-3.2-2.69-3.2a2.46,2.46,0,0,0-2.77,2.44h-1.67c.14-2.28,1.87-3.73,4.42-3.73,3,0,4.26,1.38,4.26,4.6v2.88a15.8,15.8,0,0,0,.36,3.89H495.2a15.09,15.09,0,0,1-.2-2.22,3.82,3.82,0,0,1-3.86,2.49C488.92,264.27,487.45,263,487.45,261.07Zm7.48-1.91v-.71l-3.15.44c-1.89.27-2.71.91-2.71,2.14s.93,2,2.42,2C493.56,263,494.93,261.43,494.93,259.16Z"/><path d="M498.73,252.9h2V250l1.55-.67v3.6h2.87v1.29h-2.87v6.66c0,1.31.58,1.88,1.74,1.88a4.49,4.49,0,0,0,1.13-.13V264a5.36,5.36,0,0,1-1.53.2c-2.16,0-2.89-1.31-2.89-3.29v-6.72h-2Z"/><path d="M507.79,259.94v-7h1.53v6.88c0,2.18,1,3.16,2.53,3.16,2,0,3.24-1.74,3.24-4V252.9h1.55V264h-1.46v-2.29a3.81,3.81,0,0,1-3.6,2.56C508.81,264.27,507.79,262.58,507.79,259.94Z"/><path d="M525.74,252.63a2.08,2.08,0,0,1,.43,0v1.51H526a3.27,3.27,0,0,0-2.38.84,5.35,5.35,0,0,0-1.22,3.91V264h-1.53V252.9h1.44v2.71A3.72,3.72,0,0,1,525.74,252.63Z"/><path d="M537.18,258.85h-8.06c0,2.51,1.4,4,3.55,4a3.11,3.11,0,0,0,3.13-2.37l1.31.53a4.5,4.5,0,0,1-4.55,3.22c-3.15,0-5-2-5-5.75s1.87-5.89,4.93-5.89,4.69,1.78,4.69,5.15Zm-1.58-1.47c0-2.28-1.15-3.5-3.13-3.5s-3.31,1.42-3.35,3.7h6.48Z"/><path d="M545,262.51l3.68-4.61-3.71-4.62h1.65l3.82,4.62-3.78,4.61Zm4.15,0,3.68-4.61-3.7-4.62h1.64l3.82,4.62-3.8,4.61Z"/><path d="M323.71,299.39l-1.39,7.83c-.46,2.65.73,3.86,3,3.86,2.57,0,3.32-1.6,3.67-3.64l1.42-8.05h1.39l-1.51,8.51c-.43,2.36-1.67,4.4-5.06,4.4-3.2,0-4.87-1.77-4.25-5.24l1.37-7.67Z"/><path d="M334.75,303.12h1.18l-.34,1.92a3.15,3.15,0,0,1,3.07-2.13,2.51,2.51,0,0,1,2.74,2.84,7.85,7.85,0,0,1-.11,1.19l-.87,5.06h-1.24l.9-5.11a5.18,5.18,0,0,0,.09-.91,1.76,1.76,0,0,0-1.95-2c-2,0-2.72,1.9-3,3.32l-.83,4.67h-1.23Z"/><path d="M358.46,301.77l-.19,1.12a2.29,2.29,0,0,0-.73-.11,1.34,1.34,0,0,0-1.42,1.12,2.49,2.49,0,0,1,.55,1.69,3.2,3.2,0,0,1-3.46,3.28,3.75,3.75,0,0,1-1.81-.4c-.89.28-1.14.71-1.14,1.11,0,.64.55.84,1.7.88l1.58.05c1.35,0,2.92.35,2.92,2.18,0,1.39-.91,3-4.53,3-1.87,0-3.86-.45-3.86-2.29,0-.91.5-1.66,2-2.12a1.34,1.34,0,0,1-.95-1.33c0-.76.47-1.42,1.74-1.86a2.54,2.54,0,0,1-.72-1.89,3.22,3.22,0,0,1,3.48-3.28,3.58,3.58,0,0,1,1.92.48,2.25,2.25,0,0,1,2.25-1.69A2.87,2.87,0,0,1,358.46,301.77Zm-6.67,9.79a8.23,8.23,0,0,1-.93-.07c-1.22.39-1.54,1-1.54,1.65,0,1.26,1.33,1.51,2.7,1.51,2.56,0,3.14-1,3.14-1.8,0-1.08-.87-1.24-1.81-1.26Zm3.71-5.88a1.77,1.77,0,0,0-2-1.81,2.08,2.08,0,0,0-2.18,2.23,1.76,1.76,0,0,0,2,1.82A2.1,2.1,0,0,0,355.5,305.68Z"/><path d="M364,302.91a2.37,2.37,0,0,1,.57,0l-.23,1.23a1.7,1.7,0,0,0-.5-.06,2.24,2.24,0,0,0-1.58.54,5,5,0,0,0-1.53,3.05L360,312h-1.22l1.56-8.88h1.17l-.41,2.31C361.64,303.92,362.46,302.91,364,302.91Z"/><path d="M364.86,309.69a2.39,2.39,0,0,1,.81-1.85,5,5,0,0,1,3-1l2.71-.21.06-.31c.25-1.66-.31-2.39-1.83-2.39a2.24,2.24,0,0,0-2.56,1.95H365.8c.27-2,1.67-3,3.73-3,2.5,0,3.55,1.17,3.11,3.83l-.39,2.21A15.69,15.69,0,0,0,372,312h-1.3a12.38,12.38,0,0,1,.16-1.78,3.31,3.31,0,0,1-3.16,2C366.05,312.21,364.86,311.31,364.86,309.69Zm6.28-1.56.11-.6-2.34.17c-2,.16-2.7.87-2.7,1.94s.8,1.54,1.76,1.54A3.33,3.33,0,0,0,371.14,308.13Z"/><path d="M376.77,303.12H378l-.34,1.92a3.15,3.15,0,0,1,3.07-2.13,2.52,2.52,0,0,1,2.74,2.84,7.85,7.85,0,0,1-.11,1.19l-.87,5.06H381.2l.9-5.11a5.18,5.18,0,0,0,.09-.91,1.76,1.76,0,0,0-1.95-2c-2,0-2.72,1.9-3,3.32l-.83,4.67h-1.23Z"/><path d="M385.76,308.47c0-2.38,1.23-5.56,4.33-5.56a2.77,2.77,0,0,1,2.86,2l1-5.79h1.24L392.92,312h-1.17l.3-1.72a3.39,3.39,0,0,1-3.07,1.93C387.48,312.21,385.76,311.27,385.76,308.47Zm6.64-.36.09-.43c.48-2.5-.74-3.67-2.31-3.67-2.34,0-3.09,2.63-3.09,4.37,0,2.29,1.3,2.73,2.29,2.73C391.14,311.11,392.1,309.69,392.4,308.11Z"/><path d="M403.38,307.88v.32c0,2.18,1.17,2.91,2.59,2.91a2.57,2.57,0,0,0,2.56-1.9l1,.45a3.66,3.66,0,0,1-3.64,2.55c-1.78,0-3.77-.87-3.77-3.92,0-2.47,1.32-5.38,4.53-5.38a3.18,3.18,0,0,1,3.47,3.42,4.84,4.84,0,0,1-.25,1.55Zm.12-1h5.35a2.71,2.71,0,0,0,.09-.7,2.08,2.08,0,0,0-2.28-2.29C404.85,303.88,403.84,305.18,403.5,306.87Z"/><path d="M411.8,309.44l1.24-.19c.16,1.44,1.19,1.93,2.45,1.93,1.64,0,2.08-.85,2.08-1.65s-.44-1.13-1.33-1.33l-1.55-.36a2.22,2.22,0,0,1-2-2.25c0-1.46,1.16-2.68,3.31-2.68,1.7,0,3.44.73,3.48,2.48l-1.21.27c-.07-1.28-1.15-1.74-2.34-1.74-1.43,0-2,.69-2,1.56s.39,1.12,1.4,1.35l1.47.34c1.53.36,2,1.17,2,2.31,0,1.44-1.12,2.73-3.47,2.73C413.7,312.21,412,311.52,411.8,309.44Z"/><path d="M422.93,303.12h1.18l-.36,1.88a3.39,3.39,0,0,1,3.07-2.09c1.49,0,3.25.87,3.25,3.71,0,2.41-1.28,5.59-4.3,5.59a2.83,2.83,0,0,1-2.89-1.88l-.91,5.13h-1.22Zm5.81,3.53c0-2.13-1.19-2.64-2.24-2.64-1.9,0-2.84,1.72-3.09,3.18l-.1.58c-.34,1.92.44,3.34,2.22,3.34C428.08,311.11,428.74,308.23,428.74,306.65Z"/><path d="M431.69,309.69a2.39,2.39,0,0,1,.81-1.85,5,5,0,0,1,3-1l2.71-.21.06-.31c.25-1.66-.31-2.39-1.83-2.39a2.24,2.24,0,0,0-2.56,1.95h-1.26c.27-2,1.67-3,3.73-3,2.5,0,3.55,1.17,3.11,3.83l-.39,2.21a15.69,15.69,0,0,0-.25,3.05h-1.3a12.38,12.38,0,0,1,.16-1.78,3.31,3.31,0,0,1-3.16,2C432.88,312.21,431.69,311.31,431.69,309.69Zm6.28-1.56.11-.6-2.34.17c-2,.16-2.7.87-2.7,1.94s.8,1.54,1.76,1.54A3.33,3.33,0,0,0,438,308.13Z"/><path d="M441.88,308.31c0-2.35,1.19-5.4,4.57-5.4,1.9,0,3.44,1,3.41,3.21l-1.19.14a2.07,2.07,0,0,0-2.24-2.27c-2.49,0-3.22,2.54-3.22,4.32,0,2.15,1.23,2.82,2.42,2.82a2.59,2.59,0,0,0,2.56-2.27l1.2.17a3.68,3.68,0,0,1-3.81,3.18C443.78,312.21,441.88,311.29,441.88,308.31Z"/><path d="M452.91,307.88v.32c0,2.18,1.17,2.91,2.59,2.91a2.57,2.57,0,0,0,2.56-1.9l1,.45a3.65,3.65,0,0,1-3.64,2.55c-1.78,0-3.76-.87-3.76-3.92,0-2.47,1.31-5.38,4.52-5.38a3.18,3.18,0,0,1,3.47,3.42,4.58,4.58,0,0,1-.25,1.55Zm.13-1h5.34a2.71,2.71,0,0,0,.09-.7,2.08,2.08,0,0,0-2.27-2.29C454.38,303.88,453.37,305.18,453,306.87Z"/><path d="M467.31,303.12h1.32l1.1,6.29c.07.49.12.9.14,1.31h.05c.16-.41.38-.82.63-1.31l3.32-6.29h1.37L470.39,312H469Z"/><path d="M483.58,306.33a4.58,4.58,0,0,1-.25,1.55h-6.51v.32c0,2.18,1.17,2.91,2.59,2.91a2.58,2.58,0,0,0,2.56-1.9l1,.45a3.67,3.67,0,0,1-3.64,2.55c-1.78,0-3.77-.87-3.77-3.92,0-2.47,1.31-5.38,4.53-5.38A3.17,3.17,0,0,1,483.58,306.33Zm-1.21-.16a2.07,2.07,0,0,0-2.27-2.29c-1.81,0-2.82,1.3-3.16,3h5.35A2.75,2.75,0,0,0,482.37,306.17ZM481,301.7h-1.17l2.2-2.54h1.53Z"/><path d="M494.59,301.77l-.19,1.12a2.29,2.29,0,0,0-.73-.11,1.34,1.34,0,0,0-1.42,1.12,2.54,2.54,0,0,1,.55,1.69,3.2,3.2,0,0,1-3.46,3.28,3.81,3.81,0,0,1-1.82-.4c-.88.28-1.13.71-1.13,1.11,0,.64.55.84,1.7.88l1.58.05c1.35,0,2.92.35,2.92,2.18,0,1.39-.91,3-4.53,3-1.87,0-3.86-.45-3.86-2.29,0-.91.5-1.66,2-2.12a1.35,1.35,0,0,1-.94-1.33c0-.76.47-1.42,1.74-1.86a2.54,2.54,0,0,1-.72-1.89,3.22,3.22,0,0,1,3.48-3.28,3.58,3.58,0,0,1,1.92.48,2.25,2.25,0,0,1,2.25-1.69A2.87,2.87,0,0,1,494.59,301.77Zm-6.67,9.79a8.23,8.23,0,0,1-.93-.07c-1.22.39-1.54,1-1.54,1.65,0,1.26,1.33,1.51,2.7,1.51,2.55,0,3.14-1,3.14-1.8,0-1.08-.87-1.24-1.81-1.26Zm3.71-5.88a1.77,1.77,0,0,0-2-1.81,2.08,2.08,0,0,0-2.18,2.23,1.76,1.76,0,0,0,2,1.82A2.1,2.1,0,0,0,491.63,305.68Z"/><path d="M502.91,306.33a4.84,4.84,0,0,1-.25,1.55h-6.52v.32c0,2.18,1.17,2.91,2.59,2.91a2.57,2.57,0,0,0,2.56-1.9l1,.45a3.66,3.66,0,0,1-3.64,2.55c-1.78,0-3.77-.87-3.77-3.92,0-2.47,1.32-5.38,4.53-5.38A3.18,3.18,0,0,1,502.91,306.33Zm-1.21-.16a2.08,2.08,0,0,0-2.28-2.29c-1.81,0-2.82,1.3-3.16,3h5.35A2.71,2.71,0,0,0,501.7,306.17Zm-1.33-4.47h-1.18l2.21-2.54h1.52Z"/><path d="M505,303.12h1.65l.41-2.34,1.35-.54-.52,2.88h2.28l-.18,1h-2.28l-.9,5.13c-.27,1.48.46,1.71,1.21,1.71a4.77,4.77,0,0,0,.78-.07l-.2,1.1a3.73,3.73,0,0,1-1,.14c-1.31,0-2.42-.76-2-3.05l.89-5h-1.65Z"/><path d="M510.74,309.69a2.39,2.39,0,0,1,.81-1.85,5,5,0,0,1,3-1l2.72-.21.06-.31c.24-1.66-.31-2.39-1.83-2.39a2.24,2.24,0,0,0-2.56,1.95h-1.26c.26-2,1.67-3,3.73-3,2.5,0,3.55,1.17,3.11,3.83l-.39,2.21a15.69,15.69,0,0,0-.25,3.05h-1.3a12.38,12.38,0,0,1,.16-1.78,3.31,3.31,0,0,1-3.16,2C511.93,312.21,510.74,311.31,510.74,309.69Zm6.28-1.56.11-.6-2.34.17c-2,.16-2.7.87-2.7,1.94s.79,1.54,1.75,1.54A3.33,3.33,0,0,0,517,308.13Z"/><path d="M522.4,312h-1.22l2.27-12.88h1.23Z"/><path d="M527.77,303.12H529L527.43,312h-1.22Zm.48-3.55h1.42l-.36,1.95h-1.4Z"/><path d="M530.73,309.44l1.25-.19c.16,1.44,1.19,1.93,2.45,1.93,1.63,0,2.08-.85,2.08-1.65s-.45-1.13-1.34-1.33l-1.54-.36a2.22,2.22,0,0,1-2-2.25c0-1.46,1.15-2.68,3.3-2.68,1.71,0,3.45.73,3.48,2.48l-1.2.27c-.07-1.28-1.16-1.74-2.35-1.74-1.42,0-2,.69-2,1.56s.39,1.12,1.41,1.35l1.47.34c1.53.36,2,1.17,2,2.31,0,1.44-1.12,2.73-3.47,2.73C532.63,312.21,530.91,311.52,530.73,309.44Z"/><path d="M548.23,306.33a4.58,4.58,0,0,1-.25,1.55h-6.52v.32c0,2.18,1.17,2.91,2.59,2.91a2.57,2.57,0,0,0,2.56-1.9l1,.45a3.65,3.65,0,0,1-3.64,2.55c-1.78,0-3.76-.87-3.76-3.92,0-2.47,1.31-5.38,4.52-5.38A3.18,3.18,0,0,1,548.23,306.33Zm-1.21-.16a2.08,2.08,0,0,0-2.27-2.29c-1.82,0-2.83,1.3-3.17,3h5.35A2.71,2.71,0,0,0,547,306.17Zm-1.33-4.47h-1.17l2.2-2.54h1.53Z"/><path d="M557,307.88v.32c0,2.18,1.17,2.91,2.59,2.91a2.57,2.57,0,0,0,2.56-1.9l1,.45a3.66,3.66,0,0,1-3.64,2.55c-1.78,0-3.77-.87-3.77-3.92,0-2.47,1.32-5.38,4.53-5.38a3.17,3.17,0,0,1,3.46,3.42,4.83,4.83,0,0,1-.24,1.55Zm.12-1h5.35a2.71,2.71,0,0,0,.09-.7,2.08,2.08,0,0,0-2.28-2.29C558.42,303.88,557.41,305.18,557.07,306.87Z"/><path d="M565.76,303.12h1.65l.41-2.34,1.35-.54-.52,2.88h2.27l-.17,1h-2.28l-.9,5.13c-.27,1.48.46,1.71,1.21,1.71a4.77,4.77,0,0,0,.78-.07l-.2,1.1a3.73,3.73,0,0,1-1,.14c-1.31,0-2.42-.76-2-3.05l.89-5h-1.65Z"/><path d="M321.77,327.11H323l-.36,1.89a3.4,3.4,0,0,1,3.07-2.1c1.49,0,3.25.87,3.25,3.71,0,2.42-1.28,5.6-4.3,5.6a2.84,2.84,0,0,1-2.89-1.89l-.91,5.14h-1.22Zm5.81,3.54c0-2.13-1.19-2.65-2.24-2.65-1.9,0-2.84,1.72-3.09,3.18l-.1.59c-.34,1.92.44,3.34,2.22,3.34C326.92,335.11,327.58,332.23,327.58,330.65Z"/><path d="M335.89,326.9a2.94,2.94,0,0,1,.57.05l-.23,1.23a1.67,1.67,0,0,0-.5-.05,2.28,2.28,0,0,0-1.58.53,5,5,0,0,0-1.53,3l-.78,4.28h-1.22l1.56-8.88h1.17l-.41,2.31C333.49,327.91,334.31,326.9,335.89,326.9Z"/><path d="M336.6,332.35c0-2.4,1.17-5.45,4.62-5.45,1.85,0,3.75.91,3.75,3.85,0,2.4-1.17,5.46-4.64,5.46C338.5,336.21,336.6,335.3,336.6,332.35Zm7-1.53c0-2.18-1.25-2.84-2.49-2.84-2.54,0-3.22,2.6-3.22,4.3,0,2.19,1.25,2.84,2.49,2.84C343,335.12,343.64,332.53,343.64,330.82Z"/><path d="M346.72,327.11h1.66l.41-2.34,1.34-.53-.51,2.87h2.27l-.17,1h-2.28l-.9,5.14c-.27,1.47.46,1.7,1.2,1.7a4.79,4.79,0,0,0,.79-.07l-.2,1.1a3.73,3.73,0,0,1-1,.14c-1.32,0-2.42-.76-2-3l.89-5h-1.65Z"/><path d="M360.29,330.33a4.77,4.77,0,0,1-.24,1.54h-6.52v.32c0,2.19,1.17,2.92,2.59,2.92a2.59,2.59,0,0,0,2.56-1.9l1,.44a3.67,3.67,0,0,1-3.64,2.56c-1.78,0-3.77-.87-3.77-3.93,0-2.47,1.32-5.38,4.53-5.38A3.17,3.17,0,0,1,360.29,330.33Zm-1.2-.16a2.08,2.08,0,0,0-2.28-2.29c-1.81,0-2.82,1.29-3.16,3H359A2.63,2.63,0,0,0,359.09,330.17Zm-1.34-4.48h-1.17l2.2-2.54h1.53Z"/><path d="M371,325.76l-.2,1.12a2.3,2.3,0,0,0-.73-.1,1.34,1.34,0,0,0-1.42,1.12,2.44,2.44,0,0,1,.55,1.68,3.2,3.2,0,0,1-3.46,3.29,3.75,3.75,0,0,1-1.81-.41c-.89.28-1.14.71-1.14,1.12,0,.64.55.83,1.7.87l1.59.05c1.35,0,2.91.36,2.91,2.19,0,1.38-.91,3-4.53,3-1.87,0-3.86-.44-3.86-2.29,0-.91.5-1.65,2-2.11a1.35,1.35,0,0,1-.94-1.34c0-.76.46-1.42,1.74-1.86a2.5,2.5,0,0,1-.73-1.88,3.22,3.22,0,0,1,3.48-3.29,3.58,3.58,0,0,1,1.92.48,2.27,2.27,0,0,1,2.25-1.69A3,3,0,0,1,371,325.76Zm-6.68,9.79a8.23,8.23,0,0,1-.93-.07c-1.22.39-1.54,1-1.54,1.65,0,1.26,1.33,1.51,2.7,1.51,2.56,0,3.14-1,3.14-1.79,0-1.09-.87-1.25-1.81-1.26Zm3.71-5.88a1.77,1.77,0,0,0-2-1.81,2.08,2.08,0,0,0-2.18,2.24,1.75,1.75,0,0,0,2,1.81A2.09,2.09,0,0,0,368,329.67Z"/><path d="M379,330.33a4.52,4.52,0,0,1-.25,1.54h-6.52v.32c0,2.19,1.17,2.92,2.59,2.92a2.59,2.59,0,0,0,2.56-1.9l1,.44a3.67,3.67,0,0,1-3.64,2.56c-1.78,0-3.77-.87-3.77-3.93,0-2.47,1.32-5.38,4.53-5.38A3.18,3.18,0,0,1,379,330.33Zm-1.21-.16a2.08,2.08,0,0,0-2.27-2.29c-1.82,0-2.83,1.29-3.17,3h5.35A2.63,2.63,0,0,0,377.77,330.17Zm-1.33-4.48h-1.18l2.21-2.54H379Z"/><path d="M387,327.11h1.17l-.35,1.89a3.39,3.39,0,0,1,3.07-2.1c1.49,0,3.25.87,3.25,3.71,0,2.42-1.28,5.6-4.3,5.6a2.84,2.84,0,0,1-2.89-1.89l-.91,5.14h-1.23Zm5.81,3.54c0-2.13-1.19-2.65-2.24-2.65-1.9,0-2.84,1.72-3.09,3.18l-.11.59c-.34,1.92.45,3.34,2.22,3.34C392.12,335.11,392.78,332.23,392.78,330.65Z"/><path d="M395.74,332.35c0-2.4,1.17-5.45,4.62-5.45,1.85,0,3.75.91,3.75,3.85,0,2.4-1.17,5.46-4.64,5.46C397.64,336.21,395.74,335.3,395.74,332.35Zm7-1.53c0-2.18-1.25-2.84-2.49-2.84-2.54,0-3.22,2.6-3.22,4.3,0,2.19,1.25,2.84,2.49,2.84C402.1,335.12,402.78,332.53,402.78,330.82Z"/><path d="M406.15,333.47a7.66,7.66,0,0,1,.11-1.29l.88-5.07h1.23l-.89,5.12a5.31,5.31,0,0,0-.1,1,1.73,1.73,0,0,0,1.93,1.87c1.95,0,2.61-1.9,2.86-3.33l.82-4.67h1.26L412.67,336H411.5l.35-1.95a3,3,0,0,1-3,2.17A2.49,2.49,0,0,1,406.15,333.47Z"/><path d="M421.33,326.9a2.94,2.94,0,0,1,.57.05l-.23,1.23a1.67,1.67,0,0,0-.5-.05,2.28,2.28,0,0,0-1.58.53,4.92,4.92,0,0,0-1.52,3l-.78,4.28h-1.23l1.56-8.88h1.17l-.4,2.31C418.94,327.91,419.75,326.9,421.33,326.9Z"/><path d="M428.42,336h-1.23l2.28-12.87h1.22Z"/><path d="M433,331.87v.32c0,2.19,1.17,2.92,2.59,2.92a2.59,2.59,0,0,0,2.56-1.9l1,.44a3.67,3.67,0,0,1-3.64,2.56c-1.78,0-3.77-.87-3.77-3.93,0-2.47,1.32-5.38,4.53-5.38a3.17,3.17,0,0,1,3.46,3.43,4.77,4.77,0,0,1-.24,1.54Zm.12-1h5.35a2.63,2.63,0,0,0,.09-.69,2.08,2.08,0,0,0-2.28-2.29C434.51,327.88,433.5,329.17,433.16,330.86Z"/><path d="M452.36,334.23a3.12,3.12,0,0,1-3,2c-1.6,0-3.27-.94-3.27-3.75,0-2.38,1.21-5.56,4.37-5.56a2.85,2.85,0,0,1,2.89,1.92l.57-1.71h.91l-2.19,12.35h-1.24Zm.39-2.13.09-.42c.48-2.51-.75-3.68-2.31-3.68-2.34,0-3.09,2.63-3.09,4.37,0,2.29,1.3,2.74,2.29,2.74C451.49,335.11,452.45,333.69,452.75,332.1Z"/><path d="M457,333.47a8.87,8.87,0,0,1,.11-1.29l.88-5.07h1.23l-.89,5.12a5.31,5.31,0,0,0-.1,1,1.73,1.73,0,0,0,1.93,1.87c2,0,2.61-1.9,2.86-3.33l.82-4.67h1.26L463.48,336h-1.17l.35-1.95a3,3,0,0,1-3,2.17A2.49,2.49,0,0,1,457,333.47Z"/><path d="M466.51,333.69a2.39,2.39,0,0,1,.82-1.85,5,5,0,0,1,3-1l2.72-.21.05-.3c.25-1.67-.3-2.4-1.83-2.4a2.23,2.23,0,0,0-2.55,1.95h-1.26c.26-2,1.67-3,3.73-3,2.5,0,3.55,1.17,3.1,3.84l-.39,2.2a17.46,17.46,0,0,0-.25,3.05h-1.29a12.25,12.25,0,0,1,.16-1.77,3.32,3.32,0,0,1-3.16,2C467.7,336.21,466.51,335.3,466.51,333.69Zm6.29-1.57.11-.6-2.35.18c-2,.16-2.7.87-2.7,1.93s.8,1.55,1.76,1.55A3.35,3.35,0,0,0,472.8,332.12Z"/><path d="M481.79,326.9a3.1,3.1,0,0,1,.57.05l-.23,1.23a1.75,1.75,0,0,0-.5-.05,2.24,2.24,0,0,0-1.58.53,4.93,4.93,0,0,0-1.53,3l-.78,4.28h-1.23l1.57-8.88h1.17l-.41,2.31C479.39,327.91,480.21,326.9,481.79,326.9Z"/><path d="M483.6,327.11h1.65l.41-2.34,1.35-.53-.51,2.87h2.27l-.18,1h-2.27l-.91,5.14c-.27,1.47.46,1.7,1.21,1.7a4.68,4.68,0,0,0,.78-.07l-.19,1.1a3.75,3.75,0,0,1-1,.14c-1.31,0-2.41-.76-2-3l.88-5h-1.65Z"/><path d="M491.13,327.11h1.23L490.79,336h-1.22Zm.48-3.55H493l-.36,1.95h-1.4Z"/><path d="M495.32,331.87v.32c0,2.19,1.17,2.92,2.59,2.92a2.59,2.59,0,0,0,2.56-1.9l1,.44a3.66,3.66,0,0,1-3.64,2.56c-1.78,0-3.76-.87-3.76-3.93,0-2.47,1.31-5.38,4.53-5.38a3.18,3.18,0,0,1,3.46,3.43,4.52,4.52,0,0,1-.25,1.54Zm.13-1h5.34a2.63,2.63,0,0,0,.09-.69,2.08,2.08,0,0,0-2.27-2.29C496.79,327.88,495.78,329.17,495.45,330.86Z"/><path d="M509.07,326.9a2.9,2.9,0,0,1,.56.05l-.23,1.23a1.63,1.63,0,0,0-.49-.05,2.24,2.24,0,0,0-1.58.53,4.93,4.93,0,0,0-1.53,3L505,336h-1.23l1.56-8.88h1.18l-.41,2.31C506.67,327.91,507.49,326.9,509.07,326.9Z"/><path class="cls-3" d="M322.74,349.93a2.73,2.73,0,0,1-2.17,1H320v-1.18h.34a2.56,2.56,0,0,0,2.59-2.09H324V360h-1.3Z"/><path class="cls-3" d="M331.88,357.65a2.25,2.25,0,0,1,1.09-2,7.75,7.75,0,0,1,2.92-.8l2-.23v-.15c0-1.83-.64-2.56-2.15-2.56a2,2,0,0,0-2.22,2h-1.34c.11-1.83,1.5-3,3.54-3,2.39,0,3.42,1.1,3.42,3.68v2.32a12.82,12.82,0,0,0,.28,3.11h-1.3a12.35,12.35,0,0,1-.16-1.78,3,3,0,0,1-3.09,2C333.06,360.21,331.88,359.18,331.88,357.65Zm6-1.53v-.57l-2.53.36c-1.51.21-2.17.73-2.17,1.71s.75,1.56,1.94,1.56A2.77,2.77,0,0,0,337.88,356.12Z"/><path class="cls-3" d="M342.17,347.55h1.4v1.95h-1.4Zm.09,3.56h1.23V360h-1.23Z"/><path class="cls-3" d="M350.78,350.89a2,2,0,0,1,.34,0v1.21H351a2.65,2.65,0,0,0-1.91.67,4.3,4.3,0,0,0-1,3.14V360h-1.22v-8.89H348v2.17A3,3,0,0,1,350.78,350.89Z"/><path class="cls-3" d="M359.94,355.87h-6.45c0,2,1.12,3.24,2.84,3.24a2.49,2.49,0,0,0,2.51-1.9l1.05.42a3.6,3.6,0,0,1-3.65,2.58c-2.52,0-4-1.61-4-4.6s1.49-4.72,3.95-4.72,3.75,1.43,3.75,4.13Zm-1.26-1.17c0-1.83-.93-2.81-2.51-2.81s-2.65,1.14-2.68,3h5.19Z"/><path class="cls-3" d="M366.46,355.55c0-2.74,1.55-4.66,3.8-4.66a2.85,2.85,0,0,1,2.8,1.83V347.1h1.24V360h-1.17v-1.89a3.1,3.1,0,0,1-3,2.1C367.92,360.21,366.46,358.33,366.46,355.55Zm6.62.2v-.38c0-2-1-3.38-2.64-3.38s-2.67,1.34-2.67,3.56,1,3.56,2.65,3.56S373.08,357.72,373.08,355.75Z"/><path class="cls-3" d="M377.31,351.07a1.52,1.52,0,0,0,.94-1.67v0h-.88v-2h1.69v1.88a2.25,2.25,0,0,1-1.41,2.46Z"/><path class="cls-3" d="M381.92,347.55h1.41v1.95h-1.41Zm.09,3.56h1.23V360H382Z"/><path class="cls-3" d="M387.77,351.11v1.72a2.66,2.66,0,0,1,2.64-1.94,2.51,2.51,0,0,1,2.56,1.9,2.82,2.82,0,0,1,2.74-1.9c1.74,0,2.74,1.21,2.74,3.29V360H397.2v-5.71c0-1.51-.64-2.33-1.86-2.33s-2.19,1-2.19,2.63V360h-1.23v-5.78c0-1.44-.68-2.26-1.85-2.26-1.35,0-2.22,1.1-2.22,2.85V360h-1.23v-8.89Z"/><path class="cls-3" d="M401.53,351.11h1.17V353a3.17,3.17,0,0,1,3.05-2.1c2.18,0,3.61,1.87,3.61,4.66s-1.52,4.66-3.7,4.66a3,3,0,0,1-2.9-1.88v5.14h-1.23Zm6.51,4.44c0-2.2-1-3.56-2.6-3.56s-2.7,1.39-2.7,3.35v.39c0,2,1,3.38,2.63,3.38S408,357.76,408,355.55Z"/><path class="cls-3" d="M413.22,360H412V347.1h1.23Z"/><path class="cls-3" d="M415.89,357.65a2.24,2.24,0,0,1,1.08-2,7.86,7.86,0,0,1,2.92-.8l2-.23v-.15c0-1.83-.64-2.56-2.16-2.56a2,2,0,0,0-2.22,2h-1.33c.1-1.83,1.49-3,3.54-3,2.38,0,3.41,1.1,3.41,3.68v2.32a12.25,12.25,0,0,0,.29,3.11h-1.3a12.35,12.35,0,0,1-.16-1.78,3.05,3.05,0,0,1-3.1,2C417.06,360.21,415.89,359.18,415.89,357.65Zm6-1.53v-.57l-2.53.36c-1.51.21-2.17.73-2.17,1.71s.75,1.56,1.94,1.56A2.77,2.77,0,0,0,421.89,356.12Z"/><path class="cls-3" d="M426.26,351.11h1.18v1.95a3,3,0,0,1,3-2.17c2,0,3,1.23,3,3.61V360h-1.24v-5.43c0-1.72-.75-2.61-2.15-2.61-1.61,0-2.62,1.28-2.62,3.36V360h-1.23Z"/><path class="cls-3" d="M435.11,351.11h1.63v-2.35l1.25-.54v2.89h2.29v1H438v5.33c0,1,.46,1.52,1.39,1.52a3.64,3.64,0,0,0,.9-.11V360a4.06,4.06,0,0,1-1.22.16c-1.73,0-2.32-1.05-2.32-2.63v-5.39h-1.63Z"/><path class="cls-3" d="M441.74,357.65a2.25,2.25,0,0,1,1.09-2,7.75,7.75,0,0,1,2.92-.8l2-.23v-.15c0-1.83-.64-2.56-2.15-2.56a2,2,0,0,0-2.22,2H442c.11-1.83,1.5-3,3.54-3,2.39,0,3.42,1.1,3.42,3.68v2.32a12.82,12.82,0,0,0,.28,3.11H448a12.35,12.35,0,0,1-.16-1.78,3,3,0,0,1-3.09,2C442.92,360.21,441.74,359.18,441.74,357.65Zm6-1.53v-.57l-2.53.36c-1.51.21-2.17.73-2.17,1.71s.75,1.56,1.94,1.56A2.77,2.77,0,0,0,447.74,356.12Z"/><path class="cls-3" d="M450.78,351.11h1.64v-2.35l1.25-.54v2.89H456v1h-2.29v5.33c0,1,.46,1.52,1.38,1.52a3.66,3.66,0,0,0,.91-.11V360a4.08,4.08,0,0,1-1.23.16c-1.72,0-2.31-1.05-2.31-2.63v-5.39h-1.64Z"/><path class="cls-3" d="M458.22,347.55h1.41v1.95h-1.41Zm.09,3.56h1.23V360h-1.23Z"/><path class="cls-3" d="M462.08,355.55c0-2.9,1.62-4.66,4.09-4.66s4.08,1.76,4.08,4.66-1.62,4.66-4.08,4.66S462.08,358.45,462.08,355.55Zm6.85,0c0-2.31-1.05-3.57-2.76-3.57s-2.77,1.26-2.77,3.57,1.05,3.58,2.77,3.58S468.93,357.87,468.93,355.55Z"/><path class="cls-3" d="M472.79,351.11H474v1.95a3,3,0,0,1,3-2.17c2,0,3,1.23,3,3.61V360h-1.25v-5.43c0-1.72-.75-2.61-2.15-2.61-1.6,0-2.62,1.28-2.62,3.36V360h-1.23Z"/><path d="M36.82,137.9l3.8-4.62h1.64l-3.68,4.62,3.68,4.61H40.6Zm4.15,0,3.8-4.62h1.64l-3.68,4.62,3.66,4.61H44.75Z"/><path d="M57.89,128.24v10.21c0,2.69,1.49,4.4,4.17,4.4s4.2-1.71,4.2-4.4V128.24H68v10.32c0,3.49-2.11,5.82-5.93,5.82s-5.88-2.33-5.88-5.82V128.24Z"/><path d="M72.36,132.9h1.47v2.44a3.78,3.78,0,0,1,3.8-2.71c2.48,0,3.77,1.54,3.77,4.51V144H79.85v-6.77c0-2.15-.94-3.26-2.69-3.26-2,0-3.26,1.59-3.26,4.19V144H72.36Z"/><path d="M94.14,138.85H86.08c0,2.51,1.4,4,3.56,4a3.12,3.12,0,0,0,3.13-2.37l1.31.53a4.51,4.51,0,0,1-4.56,3.22c-3.15,0-5-2-5-5.75s1.86-5.89,4.93-5.89,4.68,1.78,4.68,5.15Zm-1.57-1.47c0-2.28-1.16-3.5-3.13-3.5s-3.31,1.42-3.36,3.7h6.49Z"/><path d="M113.1,138.85H105c0,2.51,1.4,4,3.55,4a3.1,3.1,0,0,0,3.13-2.37l1.31.53a4.49,4.49,0,0,1-4.55,3.22c-3.15,0-5-2-5-5.75s1.86-5.89,4.93-5.89,4.68,1.78,4.68,5.15Zm-1.58-1.47c0-2.28-1.15-3.5-3.13-3.5s-3.3,1.42-3.35,3.7h6.48Z"/><path d="M115.63,140.83l1.58-.27a2.84,2.84,0,0,0,3.15,2.42c1.62,0,2.53-.78,2.53-1.89s-.62-1.55-1.8-1.77l-2.15-.43c-1.84-.35-2.89-1.35-2.89-3,0-1.86,1.58-3.22,4.09-3.22s4.06,1.09,4.28,3.07l-1.55.33a2.5,2.5,0,0,0-2.8-2.13c-1.53,0-2.51.71-2.51,1.89s.69,1.55,1.85,1.77l2.17.42c2,.4,2.84,1.36,2.84,3,0,2-1.48,3.31-4.1,3.31S116,143.05,115.63,140.83Z"/><path d="M128,132.9h1.47v2.35a3.94,3.94,0,0,1,3.79-2.62c2.73,0,4.51,2.33,4.51,5.82s-1.89,5.82-4.62,5.82a3.74,3.74,0,0,1-3.62-2.36v6.42H128Zm8.13,5.55c0-2.75-1.2-4.44-3.25-4.44s-3.37,1.73-3.37,4.17v.49c0,2.49,1.24,4.22,3.29,4.22S136.17,141.2,136.17,138.45Z"/><path d="M142.91,144h-1.53V127.9h1.53Z"/><path d="M146.53,141.07a2.81,2.81,0,0,1,1.36-2.49,9.78,9.78,0,0,1,3.64-1l2.46-.28v-.18c0-2.29-.8-3.2-2.68-3.2a2.47,2.47,0,0,0-2.78,2.44h-1.66c.13-2.28,1.86-3.73,4.41-3.73,3,0,4.27,1.38,4.27,4.6v2.88a15.9,15.9,0,0,0,.35,3.89h-1.62a15.09,15.09,0,0,1-.2-2.22,3.81,3.81,0,0,1-3.86,2.49C148,144.27,146.53,143,146.53,141.07Zm7.48-1.91v-.71l-3.15.44c-1.89.27-2.71.91-2.71,2.14s.94,1.95,2.42,1.95C152.64,143,154,141.43,154,139.16Z"/><path d="M159.76,132.9h1.47v2.44a3.78,3.78,0,0,1,3.8-2.71c2.48,0,3.77,1.54,3.77,4.51V144h-1.55v-6.77c0-2.15-.94-3.26-2.69-3.26-2,0-3.26,1.59-3.26,4.19V144h-1.54Z"/><path d="M172,141.07a2.81,2.81,0,0,1,1.36-2.49,9.78,9.78,0,0,1,3.64-1l2.46-.28v-.18c0-2.29-.8-3.2-2.68-3.2a2.47,2.47,0,0,0-2.78,2.44h-1.66c.13-2.28,1.86-3.73,4.41-3.73,3,0,4.27,1.38,4.27,4.6v2.88a15.9,15.9,0,0,0,.35,3.89h-1.62a15.09,15.09,0,0,1-.2-2.22,3.81,3.81,0,0,1-3.86,2.49C173.44,144.27,172,143,172,141.07Zm7.49-1.91v-.71l-3.16.44c-1.88.27-2.71.91-2.71,2.14S174.53,143,176,143C178.08,143,179.46,141.43,179.46,139.16Z"/><path d="M184.09,138.45c0-3.42,1.94-5.82,4.76-5.82a3.54,3.54,0,0,1,3.48,2.29v-7h1.56V144h-1.47v-2.35a3.88,3.88,0,0,1-3.75,2.62C185.92,144.27,184.09,141.91,184.09,138.45Zm8.26.24v-.46c0-2.53-1.22-4.22-3.28-4.22s-3.33,1.67-3.33,4.44,1.24,4.44,3.31,4.44S192.35,141.16,192.35,138.69Z"/><path d="M207.07,138.85H199c0,2.51,1.4,4,3.56,4a3.12,3.12,0,0,0,3.13-2.37l1.31.53a4.51,4.51,0,0,1-4.56,3.22c-3.15,0-5-2-5-5.75s1.86-5.89,4.93-5.89,4.68,1.78,4.68,5.15Zm-1.57-1.47c0-2.28-1.16-3.5-3.13-3.5s-3.31,1.42-3.36,3.7h6.49Z"/><path d="M217.44,132.9h1.46v2.35a4,4,0,0,1,3.8-2.62c2.73,0,4.51,2.33,4.51,5.82s-1.89,5.82-4.62,5.82a3.74,3.74,0,0,1-3.62-2.36v6.42h-1.53Zm8.13,5.55c0-2.75-1.2-4.44-3.25-4.44s-3.37,1.73-3.37,4.17v.49c0,2.49,1.24,4.22,3.28,4.22S225.57,141.2,225.57,138.45Z"/><path d="M229.63,138.45c0-3.62,2-5.82,5.1-5.82s5.09,2.2,5.09,5.82-2,5.82-5.09,5.82S229.63,142.07,229.63,138.45Zm8.54,0c0-2.89-1.3-4.46-3.44-4.46s-3.46,1.57-3.46,4.46,1.31,4.46,3.46,4.46S238.17,141.34,238.17,138.45Z"/><path d="M243,139.94v-7h1.53v6.88c0,2.18,1,3.16,2.53,3.16,2,0,3.24-1.74,3.24-4V132.9h1.56V144h-1.47v-2.29a3.81,3.81,0,0,1-3.6,2.56C244,144.27,243,142.58,243,139.94Z"/><path d="M261.22,132.63a2,2,0,0,1,.42,0v1.51h-.18a3.25,3.25,0,0,0-2.37.84,5.31,5.31,0,0,0-1.23,3.91V144h-1.53V132.9h1.45v2.71A3.71,3.71,0,0,1,261.22,132.63Z"/><path d="M273,144h-1.53V127.9H273Z"/><path d="M286.17,138.85h-8.06c0,2.51,1.4,4,3.55,4a3.1,3.1,0,0,0,3.13-2.37l1.31.53a4.49,4.49,0,0,1-4.55,3.22c-3.15,0-5-2-5-5.75s1.86-5.89,4.93-5.89,4.68,1.78,4.68,5.15Zm-1.58-1.47c0-2.28-1.15-3.5-3.13-3.5s-3.3,1.42-3.35,3.7h6.48Z"/><path d="M45.3,165.78a3.77,3.77,0,0,1-3.66,2.49c-2.73,0-4.57-2.29-4.57-5.82s2-5.82,4.72-5.82A3.57,3.57,0,0,1,45.37,159l.33-2.08h1.16v15.43H45.3Zm0-3v-.56c0-2.49-1.22-4.17-3.3-4.17s-3.31,1.66-3.31,4.44,1.22,4.44,3.28,4.44S45.32,165.2,45.32,162.74Z"/><path d="M50.72,163.94v-7h1.53v6.88c0,2.18,1,3.15,2.53,3.15,2,0,3.24-1.73,3.24-4V156.9h1.56V168H58.11v-2.29a3.81,3.81,0,0,1-3.6,2.56C51.74,168.27,50.72,166.58,50.72,163.94Z"/><path d="M62.79,165.07a2.81,2.81,0,0,1,1.36-2.49,9.46,9.46,0,0,1,3.64-1l2.46-.29v-.17c0-2.29-.79-3.2-2.68-3.2a2.46,2.46,0,0,0-2.78,2.44H63.13c.13-2.29,1.86-3.73,4.42-3.73,3,0,4.26,1.38,4.26,4.6v2.88a15.9,15.9,0,0,0,.35,3.89H70.54a16.59,16.59,0,0,1-.2-2.22,3.81,3.81,0,0,1-3.86,2.49C64.26,168.27,62.79,167,62.79,165.07Zm7.49-1.91v-.71l-3.16.44c-1.88.27-2.7.91-2.7,2.13s.93,2,2.41,2C68.9,167,70.28,165.42,70.28,163.16Z"/><path d="M80.62,156.63a2.88,2.88,0,0,1,.42,0v1.51h-.17a3.24,3.24,0,0,0-2.38.85,5.34,5.34,0,0,0-1.22,3.9V168H75.74V156.9h1.44v2.71A3.71,3.71,0,0,1,80.62,156.63Z"/><path d="M82.38,156.9h2V154L86,153.3v3.6h2.87v1.29H86v6.66c0,1.31.58,1.88,1.73,1.88a4.52,4.52,0,0,0,1.14-.13V168a5.38,5.38,0,0,1-1.54.2c-2.15,0-2.88-1.31-2.88-3.29v-6.72h-2Z"/><path d="M91.65,152.46h1.76v2.44H91.65Zm.12,4.44H93.3V168H91.77Z"/><path d="M106.08,162.85H98c0,2.51,1.39,4,3.55,4a3.12,3.12,0,0,0,3.13-2.38l1.31.54a4.5,4.5,0,0,1-4.55,3.22c-3.16,0-5-2-5-5.75s1.87-5.89,4.93-5.89,4.68,1.78,4.68,5.15Zm-1.57-1.47c0-2.28-1.16-3.51-3.13-3.51s-3.31,1.43-3.35,3.71h6.48Z"/><path d="M114.25,156.63a3.1,3.1,0,0,1,.43,0v1.51h-.18a3.24,3.24,0,0,0-2.38.85,5.34,5.34,0,0,0-1.22,3.9V168h-1.53V156.9h1.44v2.71A3.71,3.71,0,0,1,114.25,156.63Z"/><path d="M121.76,166.51l3.68-4.62-3.7-4.61h1.64l3.82,4.61-3.78,4.62Zm4.15,0,3.68-4.62-3.7-4.61h1.64l3.82,4.61-3.8,4.62Z"/><path d="M40.42,203.39,39,211.22c-.46,2.65.73,3.86,3,3.86,2.58,0,3.32-1.6,3.68-3.64l1.42-8.05H48.5L47,211.9c-.42,2.36-1.67,4.4-5.06,4.4-3.19,0-4.86-1.77-4.24-5.24l1.36-7.67Z"/><path d="M51.74,207.12h1.17L52.57,209a3.15,3.15,0,0,1,3.07-2.13,2.51,2.51,0,0,1,2.74,2.84,7.85,7.85,0,0,1-.11,1.19L57.4,216H56.16l.9-5.11a5.18,5.18,0,0,0,.09-.91,1.76,1.76,0,0,0-1.95-2c-2,0-2.72,1.9-3,3.32L51.4,216H50.17Z"/><path d="M62.27,211.88v.32c0,2.18,1.17,2.91,2.59,2.91a2.57,2.57,0,0,0,2.56-1.9l1,.45a3.66,3.66,0,0,1-3.64,2.55c-1.78,0-3.77-.87-3.77-3.92,0-2.47,1.32-5.38,4.53-5.38A3.17,3.17,0,0,1,69,210.33a4.83,4.83,0,0,1-.24,1.55Zm.12-1h5.35a2.71,2.71,0,0,0,.09-.7,2.08,2.08,0,0,0-2.28-2.29C63.74,207.88,62.73,209.18,62.39,210.87Z"/><path d="M78.89,207.12h1.23L78.55,216H77.33Zm.48-3.55h1.42l-.36,2H79Z"/><path d="M84.11,207.12h1.17l-.3,1.72a2.77,2.77,0,0,1,2.7-1.93,2.12,2.12,0,0,1,2.33,2,3,3,0,0,1,2.84-2,2.4,2.4,0,0,1,2.59,2.64,5.88,5.88,0,0,1-.1,1l-1,5.4H93.12l1-5.31a3.84,3.84,0,0,0,.08-.85c0-1.46-.87-1.83-1.66-1.83-1.69,0-2.3,1.6-2.54,3.05L89.07,216H87.84l1-5.35a5.83,5.83,0,0,0,.07-.87c0-1.47-.9-1.77-1.63-1.77-1.76,0-2.35,1.67-2.61,3.12L83.77,216H82.55Z"/><path d="M99.65,207.12h1.17l-.35,1.88a3.38,3.38,0,0,1,3.07-2.09c1.49,0,3.25.87,3.25,3.71,0,2.41-1.28,5.59-4.3,5.59a2.83,2.83,0,0,1-2.89-1.88l-.91,5.13H97.47Zm5.81,3.53c0-2.13-1.19-2.64-2.24-2.64-1.9,0-2.84,1.72-3.09,3.18l-.11.58c-.33,1.92.45,3.34,2.22,3.34C104.8,215.11,105.46,212.23,105.46,210.65Z"/><path d="M110.43,216h-1.22l2.27-12.88h1.22Z"/><path d="M114.16,213.69a2.4,2.4,0,0,1,.82-1.85,5,5,0,0,1,3-1l2.72-.21,0-.31c.25-1.66-.3-2.39-1.83-2.39a2.24,2.24,0,0,0-2.56,1.95H115.1c.27-2,1.67-3,3.73-3,2.51,0,3.55,1.17,3.11,3.83l-.39,2.21a16.52,16.52,0,0,0-.25,3.05H120a14,14,0,0,1,.16-1.78,3.3,3.3,0,0,1-3.16,2C115.35,216.21,114.16,215.31,114.16,213.69Zm6.29-1.56.1-.6-2.34.17c-2,.16-2.7.87-2.7,1.94s.8,1.54,1.76,1.54A3.34,3.34,0,0,0,120.45,212.13Z"/><path d="M126.34,207.12h1.18l-.34,1.92a3.15,3.15,0,0,1,3.07-2.13,2.52,2.52,0,0,1,2.74,2.84,7.85,7.85,0,0,1-.11,1.19L132,216h-1.24l.9-5.11a5.18,5.18,0,0,0,.09-.91,1.76,1.76,0,0,0-1.95-2c-2,0-2.72,1.9-3,3.32L126,216h-1.23Z"/><path d="M135.79,207.12h1.65l.41-2.34,1.35-.54-.51,2.88H141l-.18,1h-2.27l-.91,5.13c-.26,1.48.47,1.71,1.21,1.71a4.68,4.68,0,0,0,.78-.07l-.19,1.1a3.73,3.73,0,0,1-1,.14c-1.32,0-2.42-.76-2-3l.89-5h-1.66Z"/><path d="M141.87,213.69a2.39,2.39,0,0,1,.81-1.85,5,5,0,0,1,3-1l2.72-.21.06-.31c.24-1.66-.31-2.39-1.83-2.39a2.24,2.24,0,0,0-2.56,1.95h-1.26c.26-2,1.67-3,3.73-3,2.5,0,3.55,1.17,3.11,3.83l-.4,2.21A16.36,16.36,0,0,0,149,216h-1.3a12.38,12.38,0,0,1,.16-1.78,3.31,3.31,0,0,1-3.16,2C143.06,216.21,141.87,215.31,141.87,213.69Zm6.28-1.56.11-.6-2.34.17c-2,.16-2.7.87-2.7,1.94s.8,1.54,1.75,1.54A3.33,3.33,0,0,0,148.15,212.13Z"/><path d="M152.42,207.12h1.65l.41-2.34,1.35-.54-.52,2.88h2.27l-.17,1h-2.28l-.9,5.13c-.27,1.48.46,1.71,1.2,1.71a4.79,4.79,0,0,0,.79-.07L156,216a3.73,3.73,0,0,1-1,.14c-1.32,0-2.42-.76-2-3l.89-5h-1.65Z"/><path d="M160.57,207.12h1.22L160.23,216H159Zm.48-3.55h1.42l-.36,2h-1.4Z"/><path d="M164.15,212.36c0-2.4,1.18-5.45,4.62-5.45,1.85,0,3.75.9,3.75,3.85,0,2.4-1.17,5.45-4.64,5.45C166.05,216.21,164.15,215.31,164.15,212.36Zm7-1.53c0-2.18-1.25-2.84-2.49-2.84-2.54,0-3.21,2.59-3.21,4.3,0,2.18,1.24,2.84,2.48,2.84C170.51,215.13,171.19,212.54,171.19,210.83Z"/><path d="M176.44,207.12h1.18l-.34,1.92a3.15,3.15,0,0,1,3.07-2.13,2.52,2.52,0,0,1,2.74,2.84,7.85,7.85,0,0,1-.11,1.19l-.87,5.06h-1.24l.9-5.11a5.18,5.18,0,0,0,.09-.91,1.76,1.76,0,0,0-2-2c-2,0-2.72,1.9-3,3.32l-.83,4.67h-1.23Z"/><path d="M193.08,216h-1.22l2.27-12.88h1.23Z"/><path d="M198.73,207.12H200L198.39,216h-1.22Zm.48-3.55h1.42l-.35,2h-1.4Z"/><path d="M204,207.12h1.18l-.34,1.92a3.15,3.15,0,0,1,3.07-2.13,2.52,2.52,0,0,1,2.74,2.84,7.85,7.85,0,0,1-.11,1.19l-.87,5.06h-1.24l.9-5.11a5.18,5.18,0,0,0,.09-.91,1.76,1.76,0,0,0-2-2c-2,0-2.72,1.9-3,3.32l-.83,4.67h-1.23Z"/><path d="M221.25,210.33a4.58,4.58,0,0,1-.25,1.55h-6.51v.32c0,2.18,1.17,2.91,2.59,2.91a2.58,2.58,0,0,0,2.56-1.9l1,.45a3.67,3.67,0,0,1-3.64,2.55c-1.78,0-3.77-.87-3.77-3.92,0-2.47,1.31-5.38,4.53-5.38A3.17,3.17,0,0,1,221.25,210.33Zm-1.21-.16a2.08,2.08,0,0,0-2.27-2.29c-1.81,0-2.82,1.3-3.16,3H220A2.75,2.75,0,0,0,220,210.17Zm-1.33-4.47h-1.17l2.2-2.54h1.53Z"/><path d="M223.15,213.69a2.4,2.4,0,0,1,.82-1.85,5,5,0,0,1,3-1l2.72-.21.05-.31c.25-1.66-.3-2.39-1.83-2.39a2.24,2.24,0,0,0-2.56,1.95h-1.26c.27-2,1.67-3,3.73-3,2.51,0,3.56,1.17,3.11,3.83l-.39,2.21a17.46,17.46,0,0,0-.25,3.05H229a11.1,11.1,0,0,1,.16-1.78,3.31,3.31,0,0,1-3.17,2C224.34,216.21,223.15,215.31,223.15,213.69Zm6.29-1.56.11-.6-2.35.17c-2,.16-2.7.87-2.7,1.94s.8,1.54,1.76,1.54A3.34,3.34,0,0,0,229.44,212.13Z"/><path d="M235.34,207.12h1.22L235,216h-1.23Zm.48-3.55h1.42l-.36,2h-1.4Z"/><path d="M244.27,206.91a2.37,2.37,0,0,1,.57.05l-.23,1.23a1.7,1.7,0,0,0-.5-.06,2.2,2.2,0,0,0-1.58.54,4.9,4.9,0,0,0-1.53,3.05l-.78,4.28H239l1.57-8.88h1.17l-.41,2.31C241.87,207.92,242.69,206.91,244.27,206.91Z"/><path d="M246.83,211.88v.32c0,2.18,1.17,2.91,2.59,2.91a2.58,2.58,0,0,0,2.56-1.9l1,.45a3.66,3.66,0,0,1-3.64,2.55c-1.78,0-3.77-.87-3.77-3.92,0-2.47,1.32-5.38,4.53-5.38a3.17,3.17,0,0,1,3.46,3.42,4.58,4.58,0,0,1-.25,1.55Zm.12-1h5.35a2.75,2.75,0,0,0,.08-.7,2.07,2.07,0,0,0-2.27-2.29C248.3,207.88,247.29,209.18,247,210.87Z"/><path d="M268,214.24a3.11,3.11,0,0,1-3,2c-1.6,0-3.27-.94-3.27-3.74,0-2.38,1.21-5.56,4.37-5.56a2.86,2.86,0,0,1,2.9,1.91l.56-1.7h.91l-2.18,12.34h-1.25Zm.4-2.13.08-.43c.48-2.5-.74-3.67-2.31-3.67-2.34,0-3.09,2.63-3.09,4.37,0,2.29,1.3,2.73,2.3,2.73C267.14,215.11,268.1,213.69,268.41,212.11Z"/><path d="M273.24,213.48a9,9,0,0,1,.1-1.3l.89-5.06h1.23l-.89,5.11a5.55,5.55,0,0,0-.11,1,1.72,1.72,0,0,0,1.94,1.86c2,0,2.61-1.9,2.86-3.32l.81-4.67h1.26L279.75,216h-1.17l.36-1.95a3.06,3.06,0,0,1-3,2.16A2.48,2.48,0,0,1,273.24,213.48Z"/><path d="M285.33,207.12h1.22L285,216h-1.22Zm.48-3.55h1.42l-.36,2h-1.4Z"/><path d="M36.5,237.44l1.24-.2a2.14,2.14,0,0,0,2.45,1.94c1.64,0,2.08-.86,2.08-1.65s-.44-1.14-1.33-1.34l-1.55-.35a2.24,2.24,0,0,1-2-2.26c0-1.45,1.16-2.68,3.31-2.68,1.7,0,3.44.73,3.48,2.49l-1.21.26c-.07-1.28-1.15-1.74-2.34-1.74-1.43,0-2,.7-2,1.57s.39,1.11,1.4,1.34l1.47.34c1.53.36,2,1.17,2,2.31,0,1.44-1.12,2.74-3.47,2.74C38.4,240.21,36.67,239.51,36.5,237.44Z"/><path d="M46.35,231.08a1.81,1.81,0,0,0,1.23-1.6l0-.11h-.91l.35-2h1.69l-.34,1.89c-.3,1.67-1,2.2-1.83,2.45Z"/><path d="M51,231.11h1.23L50.71,240H49.48Zm.48-3.55h1.42l-.35,1.95h-1.4Z"/><path d="M55.64,231.11h1.17L56.48,233a3.16,3.16,0,0,1,3.07-2.13,2.52,2.52,0,0,1,2.74,2.84,7.63,7.63,0,0,1-.11,1.19L61.31,240H60.07l.9-5.11a6.21,6.21,0,0,0,.09-.91,1.76,1.76,0,0,0-2-2c-2,0-2.72,1.9-3,3.32L55.3,240H54.08Z"/><path d="M64,237.44l1.24-.2a2.14,2.14,0,0,0,2.45,1.94c1.64,0,2.08-.86,2.08-1.65s-.44-1.14-1.33-1.34l-1.55-.35a2.23,2.23,0,0,1-2-2.26c0-1.45,1.15-2.68,3.3-2.68,1.7,0,3.44.73,3.48,2.49l-1.21.26c-.07-1.28-1.15-1.74-2.34-1.74-1.42,0-2,.7-2,1.57s.39,1.11,1.4,1.34l1.48.34c1.52.36,2,1.17,2,2.31,0,1.44-1.12,2.74-3.46,2.74C65.89,240.21,64.17,239.51,64,237.44Z"/><path d="M73.14,236.3c0-2.35,1.19-5.4,4.56-5.4,1.9,0,3.45,1,3.41,3.21l-1.19.15A2.08,2.08,0,0,0,77.68,232c-2.48,0-3.21,2.54-3.21,4.32,0,2.15,1.22,2.82,2.41,2.82a2.57,2.57,0,0,0,2.56-2.27l1.21.18a3.7,3.7,0,0,1-3.82,3.18C75,240.21,73.14,239.28,73.14,236.3Z"/><path d="M88,230.9a3.1,3.1,0,0,1,.57,0l-.23,1.23a1.75,1.75,0,0,0-.5-.05,2.24,2.24,0,0,0-1.58.53,4.93,4.93,0,0,0-1.53,3.05L83.9,240H82.67l1.57-8.88h1.17L85,233.42C85.55,231.91,86.37,230.9,88,230.9Z"/><path d="M90.58,231.11H91.8L90.24,240H89Zm.47-3.55h1.43l-.36,1.95h-1.4Z"/><path d="M93.86,231.11h1.65l.41-2.34,1.35-.53-.51,2.87H99l-.18,1H96.58l-.91,5.14c-.26,1.47.46,1.7,1.21,1.7a4.68,4.68,0,0,0,.78-.07l-.19,1.1a3.75,3.75,0,0,1-1,.14c-1.31,0-2.41-.76-2-3.05l.88-5H93.68Z"/><path d="M104.43,236.46c0-2.38,1.22-5.56,4.33-5.56a2.78,2.78,0,0,1,2.86,2l1-5.79h1.24L111.59,240h-1.18l.31-1.72a3.41,3.41,0,0,1-3.08,1.94C106.15,240.21,104.43,239.27,104.43,236.46Zm6.64-.36.09-.42c.48-2.51-.75-3.68-2.31-3.68-2.34,0-3.09,2.63-3.09,4.37,0,2.29,1.3,2.74,2.29,2.74C109.81,239.11,110.77,237.69,111.07,236.1Z"/><path d="M114.69,237.69a2.39,2.39,0,0,1,.82-1.85,5,5,0,0,1,3-1l2.72-.21,0-.3c.25-1.67-.3-2.4-1.83-2.4a2.23,2.23,0,0,0-2.55,1.95h-1.27c.27-2,1.67-3,3.73-3,2.51,0,3.56,1.17,3.11,3.84l-.39,2.2a17.46,17.46,0,0,0-.25,3.05h-1.29a11,11,0,0,1,.16-1.77,3.32,3.32,0,0,1-3.16,2C115.88,240.21,114.69,239.3,114.69,237.69Zm6.29-1.57.11-.6-2.35.18c-2,.16-2.7.87-2.7,1.93s.8,1.55,1.76,1.55A3.35,3.35,0,0,0,121,236.12Z"/><path d="M126.25,231.11h1.18l-.34,1.92a3.16,3.16,0,0,1,3.07-2.13,2.51,2.51,0,0,1,2.74,2.84,7.63,7.63,0,0,1-.11,1.19l-.87,5.06h-1.24l.9-5.11a5.09,5.09,0,0,0,.09-.91,1.76,1.76,0,0,0-1.95-2c-2,0-2.72,1.9-3,3.32l-.83,4.67h-1.23Z"/><path d="M134.6,237.44l1.24-.2a2.15,2.15,0,0,0,2.46,1.94c1.63,0,2.07-.86,2.07-1.65s-.44-1.14-1.33-1.34l-1.54-.35a2.24,2.24,0,0,1-2-2.26c0-1.45,1.15-2.68,3.3-2.68,1.71,0,3.45.73,3.48,2.49l-1.21.26c-.07-1.28-1.15-1.74-2.34-1.74-1.42,0-2,.7-2,1.57s.39,1.11,1.4,1.34l1.48.34c1.53.36,2,1.17,2,2.31,0,1.44-1.12,2.74-3.46,2.74C136.5,240.21,134.78,239.51,134.6,237.44Z"/><path d="M149.84,240h-1.23l2.28-12.87h1.22Z"/><path d="M154.46,235.87v.32c0,2.19,1.17,2.92,2.59,2.92a2.59,2.59,0,0,0,2.56-1.9l1,.44a3.67,3.67,0,0,1-3.64,2.56c-1.78,0-3.77-.87-3.77-3.93,0-2.47,1.32-5.38,4.53-5.38a3.17,3.17,0,0,1,3.46,3.43,4.77,4.77,0,0,1-.24,1.54Zm.12-1h5.35a2.63,2.63,0,0,0,.09-.69,2.08,2.08,0,0,0-2.28-2.29C155.93,231.88,154.92,233.17,154.58,234.86Z"/><path d="M178,230.67c0,1.85-1.17,4-5,4h-2.9l-.94,5.31h-1.37L170,227.38H174C176,227.38,178,228.15,178,230.67Zm-1.47.07c0-1.72-1.19-2.18-2.66-2.18h-2.67l-.89,4.95h2.51C175.89,233.51,176.55,232,176.55,230.74Z"/><path d="M180.92,227.38h3.59c2.86,0,5.41,1.53,5.41,5.56,0,3.73-2.18,7.05-7.28,7.05H178.7Zm1.76,11.44c4.31,0,5.75-2.93,5.75-5.81,0-3.3-1.86-4.45-4-4.45h-2.38l-1.81,10.26Z"/><path d="M201.13,241.08a3.86,3.86,0,0,0,1-.13l-.2,1.23a4.74,4.74,0,0,1-1,.1,3,3,0,0,1-3.09-2,6.37,6.37,0,0,1-.9.06c-2.67,0-5.3-1.44-5.3-5.6,0-3.55,1.83-7.62,6.43-7.62,2.67,0,5.3,1.44,5.3,5.6,0,2.94-1.26,6.25-4.32,7.28A2.16,2.16,0,0,0,201.13,241.08Zm-4.16-2c3.72,0,4.94-3.6,4.94-6.39,0-3.48-1.95-4.48-3.83-4.48-3.72,0-4.94,3.61-4.94,6.4C193.14,238.13,195.09,239.12,197,239.12Z"/><path d="M209.42,236.46c0-2.38,1.23-5.56,4.34-5.56a2.78,2.78,0,0,1,2.86,2l1-5.79h1.24L216.58,240h-1.17l.3-1.72a3.39,3.39,0,0,1-3.07,1.94C211.15,240.21,209.42,239.27,209.42,236.46Zm6.65-.36.08-.42c.48-2.51-.74-3.68-2.3-3.68-2.35,0-3.09,2.63-3.09,4.37,0,2.29,1.29,2.74,2.29,2.74C214.8,239.11,215.76,237.69,216.07,236.1Z"/><path d="M221.2,235.87v.32c0,2.19,1.17,2.92,2.59,2.92a2.59,2.59,0,0,0,2.56-1.9l1,.44a3.67,3.67,0,0,1-3.64,2.56c-1.78,0-3.77-.87-3.77-3.93,0-2.47,1.32-5.38,4.53-5.38a3.18,3.18,0,0,1,3.47,3.43,4.78,4.78,0,0,1-.25,1.54Zm.12-1h5.35a2.63,2.63,0,0,0,.09-.69,2.08,2.08,0,0,0-2.28-2.29C222.67,231.88,221.66,233.17,221.32,234.86Z"/><path d="M233.56,238.91c1.54-1,3.66-2.43,4.95-3.45s3-2.48,3-4.6a2.14,2.14,0,0,0-2.4-2.34,2.56,2.56,0,0,0-2.73,2.81,4.24,4.24,0,0,0,0,.74l-1.28-.12a3.74,3.74,0,0,1-.07-.75c0-2,1.3-3.82,4.14-3.82,1.74,0,3.67.7,3.67,3.31,0,2.25-1.38,3.82-3.58,5.54a32.28,32.28,0,0,1-3.75,2.59h6.07l-.19,1.17h-8.07Z"/><path d="M243.9,235.23c0-3.09,1.24-7.85,5.61-7.85,2.24,0,4.14,1.23,4.14,5,0,3.07-1.23,7.85-5.62,7.85C245.81,240.26,243.9,239,243.9,235.23Zm8.43-2.93c0-3-1.44-3.82-2.86-3.82-3.3,0-4.24,4-4.24,6.86s1.42,3.82,2.86,3.82C251.37,239.16,252.33,235.18,252.33,232.3Z"/><path d="M258.55,230a2.71,2.71,0,0,1-2.33.94h-.57l.2-1.17h.39a2.93,2.93,0,0,0,2.91-2.1h1.1L258.09,240h-1.32Z"/><path d="M261.19,238.91c1.55-1,3.66-2.43,5-3.45s3-2.48,3-4.6a2.14,2.14,0,0,0-2.4-2.34,2.56,2.56,0,0,0-2.73,2.81,5.5,5.5,0,0,0,.05.74l-1.28-.12a3.74,3.74,0,0,1-.07-.75c0-2,1.3-3.82,4.14-3.82,1.74,0,3.68.7,3.68,3.31,0,2.25-1.39,3.82-3.59,5.54a32.28,32.28,0,0,1-3.75,2.59h6.08l-.2,1.17H261Z"/><path class="cls-3" d="M36.71,260.48l1.28-.14a2.78,2.78,0,0,0,3,2.82c1.83,0,2.79-.9,2.79-2.59s-1-2.46-2.9-2.46h-.78V257h.67c1.71,0,2.58-.88,2.58-2.28a2.21,2.21,0,0,0-2.52-2.28c-1.73,0-2.73,1.05-2.73,3l-1.24-.25c0-2.37,1.53-3.81,4-3.81s3.77,1.23,3.77,3.25a2.8,2.8,0,0,1-2.31,2.85,2.88,2.88,0,0,1,2.73,3.06c0,2.37-1.58,3.74-4.14,3.74S36.78,262.79,36.71,260.48Z"/><path class="cls-3" d="M51.69,261.65a2.25,2.25,0,0,1,1.09-2,7.75,7.75,0,0,1,2.92-.8l2-.23v-.15c0-1.83-.64-2.56-2.15-2.56a2,2,0,0,0-2.22,2H52c.11-1.83,1.5-3,3.54-3,2.39,0,3.42,1.1,3.42,3.68v2.32A12.82,12.82,0,0,0,59.2,264H57.9a12.35,12.35,0,0,1-.16-1.78,3,3,0,0,1-3.09,2C52.87,264.21,51.69,263.18,51.69,261.65Zm6-1.53v-.57l-2.53.36c-1.51.21-2.17.73-2.17,1.71s.75,1.56,1.94,1.56A2.77,2.77,0,0,0,57.69,260.12Z"/><path class="cls-3" d="M62,251.55h1.4v1.95H62Zm.09,3.56H63.3V264H62.07Z"/><path class="cls-3" d="M70.59,254.89a2,2,0,0,1,.34,0v1.21h-.14a2.65,2.65,0,0,0-1.91.67,4.3,4.3,0,0,0-1,3.14V264H66.68v-8.89h1.15v2.17A3,3,0,0,1,70.59,254.89Z"/><path class="cls-3" d="M79.75,259.87H73.3c0,2,1.12,3.24,2.84,3.24a2.49,2.49,0,0,0,2.51-1.9l1,.42a3.6,3.6,0,0,1-3.65,2.58c-2.52,0-4-1.61-4-4.6s1.49-4.72,4-4.72,3.75,1.43,3.75,4.13Zm-1.26-1.17c0-1.83-.92-2.81-2.51-2.81s-2.65,1.14-2.68,3h5.19Z"/><path class="cls-3" d="M81.55,261.46l1.27-.22a2.27,2.27,0,0,0,2.52,1.94c1.3,0,2-.62,2-1.51s-.5-1.25-1.44-1.42l-1.73-.34c-1.47-.29-2.31-1.09-2.31-2.44s1.26-2.58,3.27-2.58,3.26.87,3.44,2.46l-1.25.26a2,2,0,0,0-2.24-1.71c-1.23,0-2,.57-2,1.52s.55,1.24,1.48,1.42l1.74.34c1.58.32,2.28,1.08,2.28,2.38,0,1.59-1.19,2.65-3.29,2.65S81.84,263.24,81.55,261.46Z"/><path class="cls-3" d="M95.13,259.55c0-2.74,1.55-4.66,3.81-4.66a2.83,2.83,0,0,1,2.79,1.83V251.1H103V264H101.8v-1.89a3.1,3.1,0,0,1-3,2.1C96.59,264.21,95.13,262.33,95.13,259.55Zm6.62.2v-.38c0-2-1-3.38-2.64-3.38s-2.66,1.34-2.66,3.56,1,3.56,2.65,3.56S101.75,261.72,101.75,259.75Z"/><path class="cls-3" d="M106,255.07a1.53,1.53,0,0,0,1-1.67v0H106v-2h1.69v1.88a2.25,2.25,0,0,1-1.41,2.46Z"/><path class="cls-3" d="M110.59,251.55H112v1.95h-1.41Zm.09,3.56h1.23V264h-1.23Z"/><path class="cls-3" d="M116.45,255.11v1.72a2.65,2.65,0,0,1,2.63-1.94,2.51,2.51,0,0,1,2.56,1.9,2.82,2.82,0,0,1,2.74-1.9c1.74,0,2.74,1.21,2.74,3.29V264h-1.24v-5.71c0-1.51-.65-2.33-1.87-2.33s-2.19,1-2.19,2.63V264h-1.23v-5.78c0-1.44-.67-2.26-1.85-2.26-1.35,0-2.22,1.1-2.22,2.85V264h-1.23v-8.89Z"/><path class="cls-3" d="M130.22,255.11h1.17V257a3.17,3.17,0,0,1,3.05-2.1c2.18,0,3.61,1.87,3.61,4.66s-1.52,4.66-3.7,4.66a3,3,0,0,1-2.9-1.88v5.14h-1.23Zm6.51,4.44c0-2.2-1-3.56-2.6-3.56s-2.7,1.39-2.7,3.35v.39c0,2,1,3.38,2.63,3.38S136.73,261.76,136.73,259.55Z"/><path class="cls-3" d="M141.91,264h-1.23V251.1h1.23Z"/><path class="cls-3" d="M144.58,261.65a2.24,2.24,0,0,1,1.08-2,7.8,7.8,0,0,1,2.92-.8l2-.23v-.15c0-1.83-.64-2.56-2.16-2.56a2,2,0,0,0-2.22,2h-1.34c.11-1.83,1.5-3,3.55-3,2.38,0,3.41,1.1,3.41,3.68v2.32a12.25,12.25,0,0,0,.29,3.11h-1.3a12.35,12.35,0,0,1-.16-1.78,3.05,3.05,0,0,1-3.1,2C145.75,264.21,144.58,263.18,144.58,261.65Zm6-1.53v-.57l-2.52.36c-1.51.21-2.17.73-2.17,1.71s.74,1.56,1.94,1.56A2.76,2.76,0,0,0,150.57,260.12Z"/><path class="cls-3" d="M155,255.11h1.18v1.95a3,3,0,0,1,3-2.17c2,0,3,1.23,3,3.61V264H161v-5.43c0-1.72-.75-2.61-2.16-2.61-1.6,0-2.61,1.28-2.61,3.36V264H155Z"/><path class="cls-3" d="M163.81,255.11h1.64v-2.35l1.25-.54v2.89H169v1H166.7v5.33c0,1,.46,1.52,1.38,1.52a3.66,3.66,0,0,0,.91-.11V264a4.08,4.08,0,0,1-1.23.16c-1.72,0-2.31-1.05-2.31-2.63v-5.39h-1.64Z"/><path class="cls-3" d="M170.45,261.65a2.25,2.25,0,0,1,1.09-2,7.74,7.74,0,0,1,2.91-.8l2-.23v-.15c0-1.83-.64-2.56-2.15-2.56a2,2,0,0,0-2.23,2h-1.33c.11-1.83,1.49-3,3.54-3,2.38,0,3.41,1.1,3.41,3.68v2.32A12.25,12.25,0,0,0,178,264h-1.3a12.35,12.35,0,0,1-.16-1.78,3.05,3.05,0,0,1-3.1,2C171.63,264.21,170.45,263.18,170.45,261.65Zm6-1.53v-.57l-2.53.36c-1.51.21-2.17.73-2.17,1.71s.75,1.56,1.94,1.56A2.77,2.77,0,0,0,176.45,260.12Z"/><path class="cls-3" d="M179.49,255.11h1.64v-2.35l1.24-.54v2.89h2.3v1h-2.3v5.33c0,1,.47,1.52,1.39,1.52a3.66,3.66,0,0,0,.91-.11V264a4.12,4.12,0,0,1-1.23.16c-1.73,0-2.31-1.05-2.31-2.63v-5.39h-1.64Z"/><path class="cls-3" d="M186.93,251.55h1.4v1.95h-1.4Zm.09,3.56h1.23V264H187Z"/><path class="cls-3" d="M190.79,259.55c0-2.9,1.62-4.66,4.09-4.66s4.08,1.76,4.08,4.66-1.62,4.66-4.08,4.66S190.79,262.45,190.79,259.55Zm6.85,0c0-2.31-1-3.57-2.76-3.57s-2.77,1.26-2.77,3.57,1,3.58,2.77,3.58S197.64,261.87,197.64,259.55Z"/><path class="cls-3" d="M201.5,255.11h1.17v1.95a3,3,0,0,1,3.05-2.17c2,0,3,1.23,3,3.61V264H207.5v-5.43c0-1.72-.75-2.61-2.16-2.61-1.6,0-2.61,1.28-2.61,3.36V264H201.5Z"/><path d="M602.1,329.88l3.81-4.63h1.64l-3.69,4.63,3.69,4.63h-1.67Zm4.16,0,3.81-4.63h1.65l-3.7,4.63,3.67,4.63h-1.64Z"/><path d="M621.67,320.19v10.25c0,2.69,1.49,4.4,4.18,4.4s4.21-1.71,4.21-4.4V320.19h1.74v10.36c0,3.49-2.12,5.83-5.95,5.83S620,334,620,330.55V320.19Z"/><path d="M635.9,324.87h1.47v2.45a3.78,3.78,0,0,1,3.8-2.72c2.5,0,3.79,1.54,3.79,4.52V336H643.4v-6.79c0-2.16-.94-3.27-2.69-3.27-2,0-3.28,1.6-3.28,4.21V336H635.9Z"/><path d="M657.42,330.84h-8.08c0,2.51,1.41,4.05,3.57,4.05a3.12,3.12,0,0,0,3.13-2.38l1.32.53a4.51,4.51,0,0,1-4.57,3.23c-3.16,0-5-2-5-5.77s1.87-5.9,4.94-5.9,4.69,1.78,4.69,5.17Zm-1.58-1.47c0-2.3-1.15-3.52-3.13-3.52s-3.32,1.42-3.37,3.72h6.5Z"/><path d="M666.26,324.87h1.47v2.36a4,4,0,0,1,3.81-2.63c2.74,0,4.52,2.34,4.52,5.84s-1.89,5.83-4.63,5.83a3.77,3.77,0,0,1-3.63-2.36v6.43h-1.54Zm8.15,5.57c0-2.77-1.2-4.46-3.25-4.46s-3.38,1.74-3.38,4.19v.49c0,2.49,1.25,4.23,3.29,4.23S674.41,333.2,674.41,330.44Z"/><path d="M680.89,336h-1.53V319.86h1.53Z"/><path d="M684.23,333.06a2.8,2.8,0,0,1,1.36-2.49,9.47,9.47,0,0,1,3.65-1l2.47-.29v-.18c0-2.29-.8-3.21-2.69-3.21a2.46,2.46,0,0,0-2.78,2.45h-1.67c.13-2.29,1.87-3.74,4.43-3.74,3,0,4.27,1.38,4.27,4.61v2.9a15.38,15.38,0,0,0,.36,3.89H692a15.1,15.1,0,0,1-.2-2.23,3.82,3.82,0,0,1-3.87,2.5C685.7,336.27,684.23,335,684.23,333.06Zm7.5-1.91v-.71l-3.16.44c-1.89.27-2.71.91-2.71,2.14s.93,2,2.42,2C690.35,335,691.73,333.42,691.73,331.15Z"/><path d="M696.08,330.44c0-3.63,1.93-5.84,5-5.84a4.21,4.21,0,0,1,4.5,4l-1.58.18a2.86,2.86,0,0,0-3-2.85c-2.07,0-3.34,1.67-3.34,4.45s1.27,4.5,3.41,4.5c1.67,0,2.71-1,3-2.85l1.5.22a4.32,4.32,0,0,1-4.5,4C698,336.27,696.08,334,696.08,330.44Z"/><path d="M717.43,330.84h-8.09c0,2.51,1.41,4.05,3.57,4.05a3.14,3.14,0,0,0,3.14-2.38l1.31.53a4.51,4.51,0,0,1-4.56,3.23c-3.17,0-5-2-5-5.77s1.87-5.9,4.94-5.9,4.7,1.78,4.7,5.17Zm-1.58-1.47c0-2.3-1.16-3.52-3.14-3.52s-3.32,1.42-3.37,3.72h6.51Z"/><path d="M725.26,333.06a2.8,2.8,0,0,1,1.36-2.49,9.47,9.47,0,0,1,3.65-1l2.47-.29v-.18c0-2.29-.8-3.21-2.69-3.21a2.47,2.47,0,0,0-2.78,2.45H725.6c.13-2.29,1.87-3.74,4.43-3.74,3,0,4.27,1.38,4.27,4.61v2.9a15.38,15.38,0,0,0,.36,3.89H733a16.6,16.6,0,0,1-.2-2.23,3.82,3.82,0,0,1-3.87,2.5C726.73,336.27,725.26,335,725.26,333.06Zm7.51-1.91v-.71l-3.17.44c-1.89.27-2.71.91-2.71,2.14s.93,2,2.43,2C731.39,335,732.77,333.42,732.77,331.15Z"/><path d="M738.24,324.87h1.47v2.45a3.8,3.8,0,0,1,3.81-2.72c2.49,0,3.78,1.54,3.78,4.52V336h-1.55v-6.79c0-2.16-.94-3.27-2.7-3.27-2,0-3.27,1.6-3.27,4.21V336h-1.54Z"/><path d="M751.07,320.42h1.76v2.45h-1.76Zm.11,4.45h1.53V336h-1.53Z"/><path d="M758.39,324.87V327a3.33,3.33,0,0,1,3.3-2.43,3.14,3.14,0,0,1,3.2,2.38,3.54,3.54,0,0,1,3.43-2.38c2.18,0,3.43,1.52,3.43,4.12V336h-1.56v-7.15c0-1.89-.8-2.91-2.34-2.91-1.69,0-2.73,1.24-2.73,3.29V336h-1.54v-7.23c0-1.81-.85-2.83-2.32-2.83-1.69,0-2.78,1.38-2.78,3.56V336H757V324.87Z"/><path d="M784.24,330.84h-8.08c0,2.51,1.4,4.05,3.56,4.05a3.13,3.13,0,0,0,3.14-2.38l1.31.53a4.5,4.5,0,0,1-4.56,3.23c-3.16,0-5-2-5-5.77s1.87-5.9,4.94-5.9,4.7,1.78,4.7,5.17Zm-1.58-1.47c0-2.3-1.16-3.52-3.14-3.52s-3.32,1.42-3.36,3.72h6.5Zm-2.47-6.28h-1.47l2.2-3.19h1.92Z"/><path d="M796.13,330.84h-8.08c0,2.51,1.4,4.05,3.56,4.05a3.13,3.13,0,0,0,3.14-2.38l1.31.53a4.5,4.5,0,0,1-4.56,3.23c-3.16,0-5-2-5-5.77s1.87-5.9,4.94-5.9,4.7,1.78,4.7,5.17Zm-1.58-1.47c0-2.3-1.16-3.52-3.14-3.52s-3.32,1.42-3.36,3.72h6.5Z"/><path d="M813.56,330.84h-8.08c0,2.51,1.4,4.05,3.56,4.05a3.13,3.13,0,0,0,3.14-2.38l1.32.53a4.52,4.52,0,0,1-4.57,3.23c-3.16,0-5-2-5-5.77s1.87-5.9,4.94-5.9,4.7,1.78,4.7,5.17ZM812,329.37c0-2.3-1.16-3.52-3.14-3.52s-3.31,1.42-3.36,3.72H812Z"/><path d="M815.19,324.87h2v-2.94l1.55-.67v3.61h2.88v1.29h-2.88v6.68c0,1.31.58,1.89,1.74,1.89a4.52,4.52,0,0,0,1.14-.13V336a5.43,5.43,0,0,1-1.54.2c-2.16,0-2.89-1.31-2.89-3.29v-6.75h-2Z"/><path d="M829.82,331.93v-7.06h1.53v6.9c0,2.18,1,3.16,2.54,3.16,2,0,3.25-1.73,3.25-4v-6.08h1.56V336h-1.47v-2.29a3.82,3.82,0,0,1-3.61,2.56C830.84,336.27,829.82,334.58,829.82,331.93Z"/><path d="M842.93,324.87h1.47v2.45a3.8,3.8,0,0,1,3.81-2.72c2.49,0,3.78,1.54,3.78,4.52V336h-1.56v-6.79c0-2.16-.93-3.27-2.69-3.27-2,0-3.28,1.6-3.28,4.21V336h-1.53Z"/><path d="M603.39,348.87h1.47v2.45a3.8,3.8,0,0,1,3.81-2.72c2.49,0,3.78,1.54,3.78,4.52V360h-1.56v-6.79c0-2.16-.93-3.27-2.69-3.27-2,0-3.27,1.6-3.27,4.21V360h-1.54Z"/><path d="M615.28,354.44c0-3.63,2-5.84,5.12-5.84s5.1,2.21,5.1,5.84-2,5.83-5.1,5.83S615.28,358.06,615.28,354.44Zm8.57,0c0-2.9-1.31-4.48-3.45-4.48s-3.47,1.58-3.47,4.48,1.31,4.47,3.47,4.47S623.85,357.33,623.85,354.44Z"/><path d="M628.35,355.93v-7.06h1.53v6.9c0,2.18,1,3.16,2.54,3.16,2,0,3.25-1.73,3.25-4v-6.08h1.56V360h-1.47v-2.29a3.81,3.81,0,0,1-3.6,2.56C629.37,360.27,628.35,358.58,628.35,355.93Z"/><path d="M639.59,348.87h1.69l2.76,7.88c.2.62.36,1.14.47,1.65h.07c.11-.51.29-1,.49-1.65l2.76-7.88h1.69L645.4,360h-1.69Z"/><path d="M660.38,354.84H652.3c0,2.51,1.41,4.05,3.57,4.05a3.12,3.12,0,0,0,3.13-2.38l1.32.53a4.51,4.51,0,0,1-4.57,3.23c-3.16,0-5-2-5-5.77s1.87-5.9,4.94-5.9,4.69,1.78,4.69,5.17Zm-1.58-1.47c0-2.3-1.15-3.52-3.13-3.52s-3.32,1.42-3.37,3.72h6.5Z"/><path d="M662.68,357.06a2.8,2.8,0,0,1,1.36-2.49,9.47,9.47,0,0,1,3.65-1l2.47-.29v-.18c0-2.29-.8-3.21-2.69-3.21a2.48,2.48,0,0,0-2.79,2.45H663c.14-2.29,1.87-3.74,4.43-3.74,3,0,4.28,1.38,4.28,4.61v2.9a16,16,0,0,0,.35,3.89h-1.62a15.1,15.1,0,0,1-.2-2.23,3.82,3.82,0,0,1-3.87,2.5C664.15,360.27,662.68,359,662.68,357.06Zm7.5-1.91v-.71l-3.16.44c-1.89.27-2.72.91-2.72,2.14s.94,2,2.43,2C668.8,359,670.18,357.42,670.18,355.15Z"/><path d="M675.33,355.93v-7.06h1.53v6.9c0,2.18,1,3.16,2.54,3.16,2,0,3.25-1.73,3.25-4v-6.08h1.56V360h-1.47v-2.29a3.82,3.82,0,0,1-3.61,2.56C676.35,360.27,675.33,358.58,675.33,355.93Z"/><path d="M694.34,348.87h1.47v2.36a4,4,0,0,1,3.81-2.63c2.73,0,4.51,2.34,4.51,5.84s-1.89,5.83-4.63,5.83a3.75,3.75,0,0,1-3.62-2.36v6.43h-1.54Zm8.15,5.57c0-2.77-1.21-4.46-3.25-4.46s-3.39,1.74-3.39,4.19v.49c0,2.49,1.25,4.23,3.3,4.23S702.49,357.2,702.49,354.44Z"/><path d="M706.32,357.06a2.79,2.79,0,0,1,1.35-2.49,9.58,9.58,0,0,1,3.66-1l2.47-.29v-.18c0-2.29-.8-3.21-2.7-3.21a2.47,2.47,0,0,0-2.78,2.45h-1.67c.13-2.29,1.87-3.74,4.43-3.74,3,0,4.27,1.38,4.27,4.61v2.9a15.86,15.86,0,0,0,.36,3.89h-1.62a13.85,13.85,0,0,1-.2-2.23,3.83,3.83,0,0,1-3.88,2.5C707.79,360.27,706.32,359,706.32,357.06Zm7.5-1.91v-.71l-3.16.44c-1.89.27-2.72.91-2.72,2.14s.94,2,2.43,2C712.44,359,713.82,357.42,713.82,355.15Z"/><path d="M724.19,348.6a3.1,3.1,0,0,1,.43,0v1.52h-.18a3.26,3.26,0,0,0-2.38.84,5.35,5.35,0,0,0-1.23,3.92V360H719.3V348.87h1.44v2.72A3.73,3.73,0,0,1,724.19,348.6Z"/><path d="M726,354.44c0-3.63,1.94-5.84,5.05-5.84a4.21,4.21,0,0,1,4.5,4l-1.58.18a2.85,2.85,0,0,0-3-2.85c-2.07,0-3.34,1.67-3.34,4.45s1.27,4.5,3.4,4.5c1.67,0,2.72-1,3-2.85l1.49.22a4.32,4.32,0,0,1-4.5,4C728,360.27,726,358,726,354.44Z"/><path d="M743.27,358.51l3.7-4.63-3.72-4.63h1.65l3.83,4.63-3.79,4.63Zm4.17,0,3.69-4.63-3.71-4.63h1.64l3.83,4.63-3.81,4.63Z"/><path d="M604.59,395.36h3.59c2.87,0,5.44,1.53,5.44,5.57,0,3.74-2.19,7.07-7.31,7.07h-3.95Zm1.76,11.47c4.33,0,5.77-2.94,5.77-5.83,0-3.31-1.87-4.47-4-4.47h-2.39L604,406.83Z"/><path d="M616.24,403.87v.32c0,2.19,1.17,2.92,2.6,2.92a2.58,2.58,0,0,0,2.56-1.91l1,.45a3.66,3.66,0,0,1-3.65,2.56c-1.78,0-3.77-.87-3.77-3.93,0-2.48,1.32-5.4,4.54-5.4a3.19,3.19,0,0,1,3.47,3.44,4.58,4.58,0,0,1-.25,1.55Zm.12-1h5.36a2.63,2.63,0,0,0,.09-.69,2.08,2.08,0,0,0-2.28-2.3C617.71,399.86,616.7,401.16,616.36,402.85Z"/><path d="M624.32,405.44l1.25-.2c.16,1.44,1.19,1.94,2.46,1.94,1.64,0,2.08-.85,2.08-1.65s-.44-1.14-1.34-1.34l-1.54-.36a2.23,2.23,0,0,1-2-2.26c0-1.46,1.16-2.69,3.31-2.69,1.71,0,3.46.73,3.49,2.5l-1.21.26c-.07-1.28-1.15-1.74-2.35-1.74-1.42,0-2,.69-2,1.57s.39,1.12,1.4,1.35l1.48.34c1.53.35,2,1.17,2,2.31,0,1.44-1.12,2.74-3.47,2.74C626.23,408.21,624.5,407.52,624.32,405.44Z"/><path d="M639.36,403.87v.32c0,2.19,1.17,2.92,2.6,2.92a2.58,2.58,0,0,0,2.56-1.91l1,.45a3.67,3.67,0,0,1-3.65,2.56c-1.78,0-3.77-.87-3.77-3.93,0-2.48,1.31-5.4,4.54-5.4a3.19,3.19,0,0,1,3.47,3.44,4.58,4.58,0,0,1-.25,1.55Zm.12-1h5.36a2.63,2.63,0,0,0,.09-.69,2.08,2.08,0,0,0-2.28-2.3C640.83,399.86,639.82,401.16,639.48,402.85Z"/><path d="M647.44,405.44l1.25-.2c.16,1.44,1.19,1.94,2.46,1.94,1.63,0,2.08-.85,2.08-1.65s-.45-1.14-1.34-1.34l-1.55-.36a2.23,2.23,0,0,1-2-2.26c0-1.46,1.16-2.69,3.31-2.69,1.71,0,3.46.73,3.49,2.5l-1.21.26c-.07-1.28-1.16-1.74-2.35-1.74-1.42,0-2,.69-2,1.57s.39,1.12,1.4,1.35l1.48.34c1.53.35,2,1.17,2,2.31,0,1.44-1.12,2.74-3.47,2.74C649.35,408.21,647.62,407.52,647.44,405.44Z"/><path d="M658.27,399.1h1.18l-.36,1.88a3.41,3.41,0,0,1,3.08-2.1c1.5,0,3.26.88,3.26,3.73,0,2.42-1.28,5.6-4.31,5.6a2.84,2.84,0,0,1-2.9-1.88l-.91,5.14h-1.23Zm5.82,3.54c0-2.14-1.19-2.65-2.24-2.65-1.91,0-2.85,1.72-3.1,3.18l-.11.59c-.33,1.93.45,3.35,2.23,3.35C663.43,407.11,664.09,404.23,664.09,402.64Z"/><path d="M666.73,405.69a2.42,2.42,0,0,1,.82-1.86,5,5,0,0,1,3-1l2.72-.22.06-.3c.25-1.67-.31-2.4-1.84-2.4a2.24,2.24,0,0,0-2.56,1.95h-1.27c.27-2,1.68-3,3.74-3,2.51,0,3.57,1.18,3.12,3.85l-.39,2.21a15.83,15.83,0,0,0-.25,3.06h-1.3a12.38,12.38,0,0,1,.16-1.78,3.31,3.31,0,0,1-3.17,2C667.92,408.21,666.73,407.31,666.73,405.69Zm6.3-1.57.11-.61-2.35.18c-2,.16-2.71.87-2.71,1.94s.81,1.55,1.77,1.55A3.34,3.34,0,0,0,673,404.12Z"/><path d="M676.63,404.3c0-2.35,1.2-5.42,4.58-5.42,1.91,0,3.46,1,3.42,3.23l-1.19.14a2.08,2.08,0,0,0-2.25-2.28c-2.49,0-3.22,2.55-3.22,4.33,0,2.15,1.23,2.83,2.42,2.83a2.59,2.59,0,0,0,2.57-2.28l1.21.18a3.7,3.7,0,0,1-3.83,3.18C678.54,408.21,676.63,407.29,676.63,404.3Z"/><path d="M687.36,403.87v.32c0,2.19,1.17,2.92,2.6,2.92a2.58,2.58,0,0,0,2.56-1.91l1,.45a3.66,3.66,0,0,1-3.65,2.56c-1.78,0-3.77-.87-3.77-3.93,0-2.48,1.32-5.4,4.54-5.4a3.19,3.19,0,0,1,3.47,3.44,4.58,4.58,0,0,1-.25,1.55Zm.12-1h5.36a2.63,2.63,0,0,0,.09-.69,2.08,2.08,0,0,0-2.28-2.3C688.83,399.86,687.82,401.16,687.48,402.85Z"/><path d="M695.44,405.44l1.25-.2c.16,1.44,1.19,1.94,2.46,1.94,1.64,0,2.08-.85,2.08-1.65s-.44-1.14-1.34-1.34l-1.54-.36a2.23,2.23,0,0,1-2-2.26c0-1.46,1.16-2.69,3.31-2.69,1.71,0,3.46.73,3.49,2.5l-1.21.26c-.07-1.28-1.15-1.74-2.35-1.74-1.42,0-2,.69-2,1.57s.39,1.12,1.4,1.35l1.48.34c1.53.35,2,1.17,2,2.31,0,1.44-1.12,2.74-3.47,2.74C697.35,408.21,695.62,407.52,695.44,405.44Z"/><path d="M710.9,399.1h1.18l-.36,1.88a3.41,3.41,0,0,1,3.08-2.1c1.5,0,3.26.88,3.26,3.73,0,2.42-1.28,5.6-4.31,5.6a2.84,2.84,0,0,1-2.9-1.88l-.91,5.14h-1.23Zm5.82,3.54c0-2.14-1.19-2.65-2.24-2.65-1.9,0-2.85,1.72-3.1,3.18l-.1.59c-.34,1.93.44,3.35,2.22,3.35C716.07,407.11,716.72,404.23,716.72,402.64Z"/><path d="M720.08,405.47a9,9,0,0,1,.1-1.3l.89-5.07h1.23l-.89,5.13a5.36,5.36,0,0,0-.11,1,1.74,1.74,0,0,0,2,1.87c2,0,2.61-1.91,2.86-3.33l.82-4.68h1.27l-1.59,8.9h-1.18l.36-2a3,3,0,0,1-3,2.17A2.49,2.49,0,0,1,720.08,405.47Z"/><path d="M731.58,406.24l-.53,1.76h-.95l2.28-12.91h1.23l-1,5.7a3.34,3.34,0,0,1,3-1.91c1.5,0,3.26.88,3.26,3.73,0,2.38-1.27,5.6-4.31,5.6A2.88,2.88,0,0,1,731.58,406.24Zm5.91-3.62c0-2.12-1.21-2.63-2.24-2.63a3.23,3.23,0,0,0-3,2.81l-.14.68c-.43,2,.3,3.63,2.24,3.63C736.8,407.11,737.49,404.23,737.49,402.62Z"/><path d="M741.86,408h-1.23l2.28-12.91h1.23Z"/><path d="M746.9,399.1h1.23l-1.57,8.9h-1.23Zm.48-3.56h1.42l-.35,1.95H747Z"/><path d="M749.87,404.3c0-2.35,1.2-5.42,4.58-5.42,1.9,0,3.45,1,3.42,3.23l-1.19.14a2.08,2.08,0,0,0-2.25-2.28c-2.49,0-3.22,2.55-3.22,4.33,0,2.15,1.23,2.83,2.42,2.83a2.58,2.58,0,0,0,2.56-2.28l1.22.18a3.7,3.7,0,0,1-3.83,3.18C751.78,408.21,749.87,407.29,749.87,404.3Z"/><path d="M759,405.44l1.24-.2a2.15,2.15,0,0,0,2.46,1.94c1.64,0,2.09-.85,2.09-1.65s-.45-1.14-1.34-1.34l-1.55-.36a2.22,2.22,0,0,1-2-2.26c0-1.46,1.15-2.69,3.31-2.69,1.71,0,3.45.73,3.49,2.5l-1.21.26c-.07-1.28-1.16-1.74-2.35-1.74-1.43,0-2,.69-2,1.57s.39,1.12,1.41,1.35l1.48.34c1.53.35,2,1.17,2,2.31,0,1.44-1.12,2.74-3.47,2.74C760.93,408.21,759.21,407.52,759,405.44Z"/><path d="M772.8,404.46c0-2.39,1.23-5.58,4.34-5.58a2.8,2.8,0,0,1,2.87,2l1-5.81h1.24L780,408H778.8l.3-1.73a3.39,3.39,0,0,1-3.08,1.94C774.52,408.21,772.8,407.27,772.8,404.46Zm6.66-.36.08-.43c.49-2.51-.74-3.68-2.31-3.68-2.35,0-3.1,2.63-3.1,4.38,0,2.29,1.3,2.74,2.3,2.74C778.19,407.11,779.15,405.69,779.46,404.1Z"/><path d="M785,399.1h1.23l-1.56,8.9h-1.23Zm.49-3.56h1.42l-.36,1.95h-1.4Z"/><path d="M788.13,399.1h1.32l1.1,6.3a11.87,11.87,0,0,1,.15,1.32h0c.16-.41.37-.82.62-1.32l3.33-6.3h1.37l-4.86,8.9h-1.35Z"/><path d="M797.34,403.87v.32c0,2.19,1.17,2.92,2.6,2.92a2.58,2.58,0,0,0,2.56-1.91l1,.45a3.68,3.68,0,0,1-3.65,2.56c-1.79,0-3.78-.87-3.78-3.93,0-2.48,1.32-5.4,4.54-5.4a3.18,3.18,0,0,1,3.47,3.44,4.58,4.58,0,0,1-.25,1.55Zm.12-1h5.36a2.26,2.26,0,0,0,.09-.69,2.08,2.08,0,0,0-2.28-2.3C798.82,399.86,797.8,401.16,797.46,402.85Z"/><path d="M811.13,398.88a2.23,2.23,0,0,1,.56.06l-.23,1.23a1.61,1.61,0,0,0-.5-.06,2.22,2.22,0,0,0-1.58.54,4.93,4.93,0,0,0-1.53,3.06l-.79,4.29h-1.22l1.56-8.9h1.18l-.41,2.31C808.72,399.9,809.54,398.88,811.13,398.88Z"/><path d="M811.66,405.44l1.25-.2a2.14,2.14,0,0,0,2.45,1.94c1.64,0,2.09-.85,2.09-1.65s-.45-1.14-1.34-1.34l-1.55-.36a2.23,2.23,0,0,1-2-2.26c0-1.46,1.16-2.69,3.31-2.69,1.71,0,3.45.73,3.49,2.5l-1.21.26c-.07-1.28-1.16-1.74-2.35-1.74-1.43,0-2,.69-2,1.57s.4,1.12,1.41,1.35l1.48.34c1.53.35,2,1.17,2,2.31,0,1.44-1.12,2.74-3.47,2.74C813.57,408.21,811.84,407.52,811.66,405.44Z"/><path d="M822.47,399.1h1.23l-1.57,8.9H820.9Zm.48-3.56h1.43l-.36,1.95h-1.41Z"/><path d="M830.84,400.13h-2.3l-1.4,7.87h-1.23l1.39-7.87h-1.68l.18-1h1.68l.26-1.62a2.64,2.64,0,0,1,2.74-2.5,3.4,3.4,0,0,1,1.25.22l-.19,1.07a2.76,2.76,0,0,0-1-.18c-1.11,0-1.43.66-1.59,1.51l-.27,1.5H831Zm2.33-1h1.23l-1.57,8.9h-1.22Zm.48-3.56h1.43l-.36,1.95h-1.4Z"/><path d="M844.16,402.32a4.58,4.58,0,0,1-.25,1.55h-6.53v.32c0,2.19,1.17,2.92,2.6,2.92a2.58,2.58,0,0,0,2.56-1.91l1,.45a3.68,3.68,0,0,1-3.65,2.56c-1.79,0-3.78-.87-3.78-3.93,0-2.48,1.32-5.4,4.54-5.4A3.18,3.18,0,0,1,844.16,402.32Zm-1.21-.16a2.08,2.08,0,0,0-2.28-2.3c-1.81,0-2.83,1.3-3.17,3h5.36A2.26,2.26,0,0,0,843,402.16Zm-1.33-4.49h-1.18l2.21-2.54h1.53Z"/><path d="M845.47,405.44l1.24-.2a2.15,2.15,0,0,0,2.46,1.94c1.64,0,2.08-.85,2.08-1.65s-.44-1.14-1.33-1.34l-1.55-.36a2.23,2.23,0,0,1-2-2.26c0-1.46,1.16-2.69,3.32-2.69,1.71,0,3.45.73,3.49,2.5l-1.22.26c-.07-1.28-1.15-1.74-2.35-1.74-1.42,0-2,.69-2,1.57s.39,1.12,1.41,1.35l1.47.34c1.54.35,2,1.17,2,2.31,0,1.44-1.13,2.74-3.48,2.74C847.37,408.21,845.64,407.52,845.47,405.44Z"/><path d="M603.77,423.09h1.17l-.35,1.89a3.4,3.4,0,0,1,3.08-2.11c1.49,0,3.26.88,3.26,3.73,0,2.42-1.29,5.61-4.31,5.61a2.87,2.87,0,0,1-2.91-1.89l-.9,5.14h-1.23Zm5.82,3.54c0-2.14-1.19-2.65-2.24-2.65-1.91,0-2.85,1.73-3.1,3.19l-.11.58c-.34,1.93.45,3.35,2.23,3.35C608.93,431.1,609.59,428.22,609.59,426.63Z"/><path d="M612.57,428.34c0-2.4,1.17-5.47,4.63-5.47,1.85,0,3.75.91,3.75,3.87,0,2.4-1.17,5.47-4.64,5.47C614.47,432.21,612.57,431.3,612.57,428.34Zm7-1.53c0-2.19-1.25-2.85-2.49-2.85-2.55,0-3.23,2.6-3.23,4.31,0,2.19,1.25,2.85,2.5,2.85C618.94,431.12,619.62,428.52,619.62,426.81Z"/><path d="M623,429.46a9.11,9.11,0,0,1,.11-1.3l.89-5.07h1.23l-.89,5.13a5.36,5.36,0,0,0-.11,1,1.73,1.73,0,0,0,1.94,1.87c2,0,2.62-1.9,2.87-3.33l.82-4.68h1.27l-1.59,8.9h-1.18l.36-2a3.05,3.05,0,0,1-3,2.18A2.5,2.5,0,0,1,623,429.46Z"/><path d="M638.23,422.87a2.26,2.26,0,0,1,.57.06l-.23,1.23a1.61,1.61,0,0,0-.5-.06,2.22,2.22,0,0,0-1.58.54A4.93,4.93,0,0,0,635,427.7l-.79,4.29h-1.23l1.57-8.9h1.18l-.41,2.31C635.83,423.89,636.65,422.87,638.23,422.87Z"/><path d="M645.34,432h-1.23l2.28-12.91h1.23Z"/><path d="M650,427.86v.32c0,2.19,1.18,2.92,2.6,2.92a2.59,2.59,0,0,0,2.56-1.9l1,.44a3.68,3.68,0,0,1-3.65,2.57c-1.78,0-3.78-.88-3.78-3.94,0-2.48,1.32-5.4,4.54-5.4a3.18,3.18,0,0,1,3.47,3.44,4.83,4.83,0,0,1-.24,1.55Zm.13-1h5.36a2.75,2.75,0,0,0,.08-.7,2.08,2.08,0,0,0-2.27-2.3C651.45,423.85,650.43,425.15,650.1,426.85Z"/><path d="M669.35,430.23a3.14,3.14,0,0,1-3,2c-1.61,0-3.28-.95-3.28-3.76,0-2.39,1.21-5.58,4.38-5.58a2.86,2.86,0,0,1,2.9,1.93l.57-1.71h.91l-2.19,12.37H668.4Zm.39-2.14.09-.43c.48-2.51-.75-3.68-2.32-3.68-2.35,0-3.09,2.63-3.09,4.38,0,2.3,1.29,2.74,2.29,2.74C668.48,431.1,669.44,429.68,669.74,428.09Z"/><path d="M674,429.46a9.11,9.11,0,0,1,.11-1.3l.89-5.07h1.23l-.89,5.13a5.36,5.36,0,0,0-.11,1,1.73,1.73,0,0,0,1.94,1.87c2,0,2.62-1.9,2.87-3.33l.82-4.68h1.26L680.5,432h-1.18l.36-2a3.05,3.05,0,0,1-3,2.18A2.5,2.5,0,0,1,674,429.46Z"/><path d="M683.54,429.68a2.42,2.42,0,0,1,.82-1.86,5,5,0,0,1,3-1l2.73-.22,0-.3c.25-1.67-.3-2.4-1.83-2.4a2.24,2.24,0,0,0-2.57,2h-1.26c.27-2,1.67-3,3.74-3,2.51,0,3.56,1.18,3.11,3.85l-.39,2.21a17.63,17.63,0,0,0-.25,3.06h-1.3a14,14,0,0,1,.16-1.78,3.32,3.32,0,0,1-3.17,2C684.74,432.21,683.54,431.3,683.54,429.68Zm6.31-1.57.11-.61-2.35.18c-2,.16-2.71.88-2.71,1.94s.8,1.55,1.76,1.55A3.36,3.36,0,0,0,689.85,428.11Z"/><path d="M698.86,422.87a2.26,2.26,0,0,1,.57.06l-.23,1.23a1.61,1.61,0,0,0-.5-.06,2.22,2.22,0,0,0-1.58.54,4.93,4.93,0,0,0-1.54,3.06L694.8,432h-1.23l1.57-8.9h1.18l-.41,2.31C696.46,423.89,697.28,422.87,698.86,422.87Z"/><path d="M700.7,423.09h1.65l.41-2.35,1.36-.54-.52,2.89h2.28l-.18,1h-2.28l-.91,5.15c-.26,1.48.47,1.71,1.21,1.71a4.79,4.79,0,0,0,.79-.07l-.2,1.1a3.73,3.73,0,0,1-1,.14c-1.32,0-2.42-.76-2-3.06l.89-5h-1.66Z"/><path d="M708.25,423.09h1.23l-1.57,8.9h-1.23Zm.48-3.56h1.42l-.35,2h-1.41Z"/><path d="M712.45,427.86v.32c0,2.19,1.18,2.92,2.6,2.92a2.61,2.61,0,0,0,2.57-1.9l1,.44a3.68,3.68,0,0,1-3.65,2.57c-1.78,0-3.78-.88-3.78-3.94,0-2.48,1.32-5.4,4.54-5.4a3.19,3.19,0,0,1,3.48,3.44,4.58,4.58,0,0,1-.25,1.55Zm.13-1h5.36a2.71,2.71,0,0,0,.09-.7,2.09,2.09,0,0,0-2.28-2.3C713.93,423.85,712.92,425.15,712.58,426.85Z"/><path d="M726.24,422.87a2.37,2.37,0,0,1,.57.06l-.23,1.23a1.7,1.7,0,0,0-.5-.06,2.24,2.24,0,0,0-1.59.54A5,5,0,0,0,723,427.7l-.78,4.29H721l1.57-8.9h1.17l-.41,2.31C723.83,423.89,724.65,422.87,726.24,422.87Z"/><path class="cls-3" d="M602,454.92a41.39,41.39,0,0,0,4.45-3.78c1.49-1.49,2.06-2.61,2.06-4.07a2.52,2.52,0,0,0-5-.14,6,6,0,0,0,.14,1.14l-1.32-.13a4.53,4.53,0,0,1-.12-1c0-2.17,1.48-3.54,3.93-3.54s3.77,1.33,3.77,3.68c0,1.69-.82,3.17-2.59,4.88a27,27,0,0,1-3.53,2.9H610V456H602Z"/><path class="cls-3" d="M616.52,453.65a2.25,2.25,0,0,1,1.09-2,7.75,7.75,0,0,1,2.92-.8l2-.23v-.15c0-1.83-.64-2.56-2.15-2.56a2,2,0,0,0-2.22,2h-1.34c.11-1.83,1.5-3,3.54-3,2.39,0,3.42,1.1,3.42,3.68v2.32A12.82,12.82,0,0,0,624,456h-1.3a12.35,12.35,0,0,1-.16-1.78,3,3,0,0,1-3.09,2C617.7,456.21,616.52,455.18,616.52,453.65Zm6-1.53v-.57l-2.53.36c-1.51.21-2.17.73-2.17,1.71s.75,1.56,1.94,1.56A2.77,2.77,0,0,0,622.52,452.12Z"/><path class="cls-3" d="M626.81,443.55h1.4v1.95h-1.4Zm.09,3.56h1.23V456H626.9Z"/><path class="cls-3" d="M635.42,446.89a2,2,0,0,1,.34,0v1.21h-.14a2.65,2.65,0,0,0-1.91.67,4.3,4.3,0,0,0-1,3.14V456h-1.22v-8.89h1.15v2.17A3,3,0,0,1,635.42,446.89Z"/><path class="cls-3" d="M644.58,451.87h-6.45c0,2,1.12,3.24,2.84,3.24a2.49,2.49,0,0,0,2.51-1.9l1,.42a3.6,3.6,0,0,1-3.65,2.58c-2.52,0-4-1.61-4-4.6s1.5-4.72,4-4.72,3.75,1.43,3.75,4.13Zm-1.26-1.17c0-1.83-.92-2.81-2.51-2.81s-2.65,1.14-2.68,3h5.19Z"/><path class="cls-3" d="M646.38,453.46l1.27-.22a2.27,2.27,0,0,0,2.52,1.94c1.3,0,2-.62,2-1.51s-.5-1.25-1.44-1.42l-1.73-.34c-1.47-.29-2.31-1.09-2.31-2.44s1.26-2.58,3.27-2.58,3.26.87,3.44,2.46l-1.25.26a2,2,0,0,0-2.24-1.71c-1.23,0-2,.57-2,1.52s.55,1.24,1.48,1.42l1.74.34c1.58.32,2.28,1.08,2.28,2.38,0,1.59-1.19,2.65-3.29,2.65S646.67,455.24,646.38,453.46Z"/><path class="cls-3" d="M660,451.55c0-2.74,1.55-4.66,3.81-4.66a2.83,2.83,0,0,1,2.79,1.83V443.1h1.25V456h-1.18v-1.89a3.09,3.09,0,0,1-3,2.1C661.42,456.21,660,454.33,660,451.55Zm6.62.2v-.38c0-2-1-3.38-2.63-3.38s-2.67,1.34-2.67,3.56,1,3.56,2.65,3.56S666.58,453.72,666.58,451.75Z"/><path class="cls-3" d="M670.81,447.07a1.53,1.53,0,0,0,1-1.67v0h-.89v-2h1.69v1.88a2.25,2.25,0,0,1-1.41,2.46Z"/><path class="cls-3" d="M675.42,443.55h1.41v1.95h-1.41Zm.09,3.56h1.23V456h-1.23Z"/><path class="cls-3" d="M681.28,447.11v1.72a2.65,2.65,0,0,1,2.63-1.94,2.51,2.51,0,0,1,2.56,1.9,2.82,2.82,0,0,1,2.74-1.9c1.75,0,2.74,1.21,2.74,3.29V456h-1.24v-5.71c0-1.51-.64-2.33-1.87-2.33s-2.19,1-2.19,2.63V456h-1.23v-5.78c0-1.44-.67-2.26-1.85-2.26-1.35,0-2.22,1.1-2.22,2.85V456h-1.23v-8.89Z"/><path class="cls-3" d="M695.05,447.11h1.17V449a3.17,3.17,0,0,1,3-2.1c2.19,0,3.61,1.87,3.61,4.66s-1.51,4.66-3.7,4.66a3,3,0,0,1-2.9-1.88v5.14h-1.23Zm6.51,4.44c0-2.2-1-3.56-2.6-3.56s-2.7,1.39-2.7,3.35v.39c0,2,1,3.38,2.63,3.38S701.56,453.76,701.56,451.55Z"/><path class="cls-3" d="M706.74,456h-1.23V443.1h1.23Z"/><path class="cls-3" d="M709.41,453.65a2.24,2.24,0,0,1,1.08-2,7.8,7.8,0,0,1,2.92-.8l2-.23v-.15c0-1.83-.64-2.56-2.16-2.56a2,2,0,0,0-2.22,2h-1.33c.1-1.83,1.49-3,3.54-3,2.38,0,3.41,1.1,3.41,3.68v2.32a12.25,12.25,0,0,0,.29,3.11h-1.3a12.35,12.35,0,0,1-.16-1.78,3.05,3.05,0,0,1-3.1,2C710.58,456.21,709.41,455.18,709.41,453.65Zm6-1.53v-.57l-2.53.36c-1.51.21-2.17.73-2.17,1.71s.75,1.56,1.94,1.56A2.77,2.77,0,0,0,715.41,452.12Z"/><path class="cls-3" d="M719.78,447.11H721v1.95a3,3,0,0,1,3-2.17c2,0,3,1.23,3,3.61V456h-1.24v-5.43c0-1.72-.75-2.61-2.15-2.61-1.61,0-2.62,1.28-2.62,3.36V456h-1.23Z"/><path class="cls-3" d="M728.64,447.11h1.64v-2.35l1.25-.54v2.89h2.29v1h-2.29v5.33c0,1,.46,1.52,1.38,1.52a3.66,3.66,0,0,0,.91-.11V456a4.08,4.08,0,0,1-1.23.16c-1.72,0-2.31-1.05-2.31-2.63v-5.39h-1.64Z"/><path class="cls-3" d="M735.3,453.65a2.24,2.24,0,0,1,1.08-2,7.86,7.86,0,0,1,2.92-.8l2-.23v-.15c0-1.83-.64-2.56-2.15-2.56a2,2,0,0,0-2.23,2h-1.33c.1-1.83,1.49-3,3.54-3,2.38,0,3.41,1.1,3.41,3.68v2.32a12.25,12.25,0,0,0,.29,3.11h-1.3a12.35,12.35,0,0,1-.16-1.78,3.05,3.05,0,0,1-3.1,2C736.47,456.21,735.3,455.18,735.3,453.65Zm6-1.53v-.57l-2.53.36c-1.51.21-2.17.73-2.17,1.71s.75,1.56,1.94,1.56A2.77,2.77,0,0,0,741.3,452.12Z"/><path class="cls-3" d="M744.34,447.11H746v-2.35l1.24-.54v2.89h2.3v1h-2.3v5.33c0,1,.46,1.52,1.39,1.52a3.78,3.78,0,0,0,.91-.11V456a4.12,4.12,0,0,1-1.23.16c-1.73,0-2.31-1.05-2.31-2.63v-5.39h-1.64Z"/><path class="cls-3" d="M751.78,443.55h1.4v1.95h-1.4Zm.09,3.56h1.22V456h-1.22Z"/><path class="cls-3" d="M755.64,451.55c0-2.9,1.62-4.66,4.09-4.66s4.07,1.76,4.07,4.66-1.61,4.66-4.07,4.66S755.64,454.45,755.64,451.55Zm6.85,0c0-2.31-1-3.57-2.76-3.57s-2.77,1.26-2.77,3.57,1,3.58,2.77,3.58S762.49,453.87,762.49,451.55Z"/><path class="cls-3" d="M766.35,447.11h1.17v1.95a3,3,0,0,1,3.05-2.17c2,0,3,1.23,3,3.61V456h-1.24v-5.43c0-1.72-.75-2.61-2.16-2.61-1.6,0-2.61,1.28-2.61,3.36V456h-1.23Z"/><path d="M884.74,425.88l3.8-4.62h1.65l-3.7,4.62,3.7,4.63h-1.67Zm4.16,0,3.8-4.62h1.65l-3.7,4.62,3.68,4.63h-1.65Z"/><path d="M904.07,416.2v10.24c0,2.69,1.49,4.4,4.18,4.4s4.2-1.71,4.2-4.4V416.2h1.74v10.35c0,3.49-2.11,5.83-5.94,5.83s-5.9-2.34-5.9-5.83V416.2Z"/><path d="M918.28,420.88h1.47v2.44a3.78,3.78,0,0,1,3.8-2.71c2.49,0,3.78,1.54,3.78,4.52V432h-1.55v-6.78c0-2.16-.94-3.28-2.7-3.28-2,0-3.27,1.61-3.27,4.21V432h-1.53Z"/><path d="M943.7,429.78a3.78,3.78,0,0,1-3.67,2.49c-2.73,0-4.58-2.29-4.58-5.83s2-5.83,4.74-5.83a3.57,3.57,0,0,1,3.58,2.36l.33-2.09h1.16v15.46H943.7Zm0-3v-.56c0-2.49-1.23-4.18-3.32-4.18s-3.31,1.67-3.31,4.45,1.22,4.45,3.29,4.45S943.73,429.2,943.73,426.73Z"/><path d="M949.13,427.93v-7.05h1.53v6.89c0,2.18,1,3.16,2.54,3.16,2,0,3.25-1.73,3.25-4v-6.07H958V432h-1.46v-2.29a3.82,3.82,0,0,1-3.61,2.56C950.15,432.27,949.13,430.58,949.13,427.93Z"/><path d="M961.23,429.06a2.82,2.82,0,0,1,1.36-2.49,9.65,9.65,0,0,1,3.64-1l2.47-.29v-.18c0-2.29-.8-3.2-2.69-3.2a2.47,2.47,0,0,0-2.78,2.45h-1.67c.14-2.29,1.87-3.74,4.43-3.74,3,0,4.27,1.38,4.27,4.61v2.89a15.38,15.38,0,0,0,.36,3.89H969a15.09,15.09,0,0,1-.2-2.22,3.82,3.82,0,0,1-3.87,2.49C962.7,432.27,961.23,431,961.23,429.06Zm7.5-1.91v-.71l-3.16.44c-1.89.27-2.72.92-2.72,2.14s.94,2,2.43,2C967.35,431,968.73,429.42,968.73,427.15Z"/><path d="M979.09,420.61a2.88,2.88,0,0,1,.42,0v1.52h-.18A3.29,3.29,0,0,0,977,423a5.36,5.36,0,0,0-1.22,3.92V432H974.2V420.88h1.44v2.71A3.72,3.72,0,0,1,979.09,420.61Z"/><path d="M980.85,420.88h2v-2.94l1.56-.67v3.61h2.87v1.29h-2.87v6.67c0,1.31.58,1.89,1.74,1.89a4.49,4.49,0,0,0,1.13-.13V432a5.36,5.36,0,0,1-1.53.2c-2.16,0-2.9-1.31-2.9-3.29v-6.74h-2Z"/><path d="M990.14,416.43h1.76v2.44h-1.76Zm.11,4.45h1.54V432h-1.54Z"/><path d="M1004.6,426.84h-8.07c0,2.51,1.4,4.05,3.56,4.05a3.12,3.12,0,0,0,3.13-2.38l1.32.53a4.51,4.51,0,0,1-4.56,3.23c-3.16,0-5-2-5-5.76s1.87-5.9,4.94-5.9,4.69,1.78,4.69,5.16Zm-1.58-1.47c0-2.29-1.15-3.51-3.13-3.51s-3.32,1.42-3.36,3.71H1003Z"/><path d="M1012.79,420.61a3,3,0,0,1,.42,0v1.52H1013a3.27,3.27,0,0,0-2.38.84,5.36,5.36,0,0,0-1.22,3.92V432h-1.54V420.88h1.45v2.71A3.71,3.71,0,0,1,1012.79,420.61Z"/><path d="M1021.13,420.88h1.47v2.35a3.94,3.94,0,0,1,3.8-2.62c2.74,0,4.52,2.34,4.52,5.83s-1.89,5.83-4.63,5.83a3.77,3.77,0,0,1-3.63-2.36v6.43h-1.53Zm8.14,5.56c0-2.76-1.2-4.45-3.25-4.45s-3.38,1.73-3.38,4.18v.49c0,2.49,1.25,4.23,3.29,4.23S1029.27,429.2,1029.27,426.44Z"/><path d="M1042.68,426.84h-8.07c0,2.51,1.4,4.05,3.56,4.05a3.12,3.12,0,0,0,3.13-2.38l1.31.53a4.5,4.5,0,0,1-4.56,3.23c-3.16,0-5-2-5-5.76s1.87-5.9,4.94-5.9,4.69,1.78,4.69,5.16Zm-1.58-1.47c0-2.29-1.15-3.51-3.14-3.51s-3.31,1.42-3.35,3.71h6.49Z"/><path d="M1050.87,420.61a3,3,0,0,1,.42,0v1.52h-.18a3.27,3.27,0,0,0-2.38.84,5.36,5.36,0,0,0-1.22,3.92V432H1046V420.88h1.45v2.71A3.71,3.71,0,0,1,1050.87,420.61Z"/><path d="M1055.34,420.88V423a3.32,3.32,0,0,1,3.29-2.42,3.14,3.14,0,0,1,3.2,2.38,3.54,3.54,0,0,1,3.43-2.38c2.18,0,3.42,1.51,3.42,4.12V432h-1.55v-7.14c0-1.89-.8-2.92-2.34-2.92-1.69,0-2.74,1.25-2.74,3.3V432h-1.53v-7.23c0-1.8-.85-2.83-2.31-2.83-1.7,0-2.79,1.38-2.79,3.56V432h-1.53V420.88Z"/><path d="M1081.16,426.84h-8.08c0,2.51,1.41,4.05,3.56,4.05a3.13,3.13,0,0,0,3.14-2.38l1.31.53a4.5,4.5,0,0,1-4.56,3.23c-3.16,0-5-2-5-5.76s1.87-5.9,4.94-5.9,4.69,1.78,4.69,5.16Zm-1.58-1.47c0-2.29-1.16-3.51-3.14-3.51s-3.31,1.42-3.36,3.71h6.5Zm-2.47-6.27h-1.47l2.21-3.18h1.91Z"/><path d="M1083.45,429.06a2.82,2.82,0,0,1,1.36-2.49,9.65,9.65,0,0,1,3.65-1l2.47-.29v-.18c0-2.29-.81-3.2-2.7-3.2a2.47,2.47,0,0,0-2.78,2.45h-1.67c.14-2.29,1.87-3.74,4.43-3.74,3,0,4.27,1.38,4.27,4.61v2.89a15.38,15.38,0,0,0,.36,3.89h-1.63a16.59,16.59,0,0,1-.2-2.22,3.81,3.81,0,0,1-3.87,2.49C1084.92,432.27,1083.45,431,1083.45,429.06Zm7.5-1.91v-.71l-3.16.44c-1.89.27-2.72.92-2.72,2.14s.94,2,2.43,2C1089.57,431,1091,429.42,1091,427.15Z"/><path d="M1098,429.78l-.29,2.22h-1.18V415.87h1.53v7.28a3.87,3.87,0,0,1,3.74-2.54c2.74,0,4.52,2.38,4.52,5.83s-1.83,5.83-4.63,5.83A3.85,3.85,0,0,1,1098,429.78Zm6.67-3.34c0-2.69-1.2-4.45-3.34-4.45s-3.29,1.67-3.29,4.23v.53c0,2.47,1.25,4.14,3.25,4.14S1104.67,429.15,1104.67,426.44Z"/><path d="M1111.14,432h-1.53V415.87h1.53Z"/><path d="M1124.07,426.84H1116c0,2.51,1.4,4.05,3.56,4.05a3.13,3.13,0,0,0,3.14-2.38l1.31.53a4.5,4.5,0,0,1-4.56,3.23c-3.16,0-5-2-5-5.76s1.87-5.9,4.94-5.9,4.7,1.78,4.7,5.16Zm-1.58-1.47c0-2.29-1.16-3.51-3.14-3.51s-3.31,1.42-3.36,3.71h6.5Z"/><path d="M1125.78,430.51l3.69-4.63-3.72-4.62h1.65l3.83,4.62-3.78,4.63Zm4.16,0,3.69-4.63-3.71-4.62h1.64l3.83,4.62-3.81,4.63Z"/><path d="M888.34,467.37,887,475.21c-.47,2.66.72,3.87,3,3.87,2.58,0,3.33-1.61,3.69-3.65l1.42-8.06h1.39l-1.51,8.52c-.43,2.37-1.68,4.41-5.07,4.41-3.21,0-4.88-1.78-4.26-5.25l1.37-7.68Z"/><path d="M899.05,471.11h1.18l-.34,1.92a3.17,3.17,0,0,1,3.08-2.14,2.53,2.53,0,0,1,2.74,2.85,7.85,7.85,0,0,1-.11,1.19l-.87,5.07h-1.24l.9-5.12a5.18,5.18,0,0,0,.09-.91,1.77,1.77,0,0,0-2-2c-2,0-2.72,1.91-3,3.33l-.83,4.68h-1.23Z"/><path d="M918.7,478.24a3.12,3.12,0,0,1-3,2c-1.6,0-3.27-.94-3.27-3.75,0-2.38,1.21-5.57,4.37-5.57a2.85,2.85,0,0,1,2.9,1.92l.57-1.7h.91L919,483.47h-1.24Zm.39-2.14.09-.42c.48-2.51-.75-3.69-2.31-3.69-2.35,0-3.1,2.64-3.1,4.38,0,2.3,1.3,2.74,2.3,2.74C917.83,479.11,918.79,477.69,919.09,476.1Z"/><path d="M923.31,477.47a7.74,7.74,0,0,1,.11-1.29l.88-5.07h1.23l-.89,5.12a5.31,5.31,0,0,0-.1,1,1.73,1.73,0,0,0,1.94,1.87c1.95,0,2.61-1.9,2.86-3.33l.82-4.67h1.26L929.84,480h-1.18l.36-2a3,3,0,0,1-3,2.17A2.49,2.49,0,0,1,923.31,477.47Z"/><path d="M932.88,477.69a2.4,2.4,0,0,1,.82-1.85,5,5,0,0,1,3-1l2.72-.21.05-.31c.25-1.67-.3-2.4-1.83-2.4a2.24,2.24,0,0,0-2.56,2h-1.26c.26-2,1.67-3,3.73-3,2.51,0,3.56,1.18,3.12,3.84l-.4,2.21A16.51,16.51,0,0,0,940,480h-1.3a11.1,11.1,0,0,1,.16-1.78,3.32,3.32,0,0,1-3.17,2C934.07,480.21,932.88,479.31,932.88,477.69Zm6.3-1.57.11-.6-2.35.17c-2,.17-2.71.88-2.71,1.94s.81,1.55,1.77,1.55A3.35,3.35,0,0,0,939.18,476.12Z"/><path d="M948.18,470.89a2.94,2.94,0,0,1,.57.05l-.23,1.23a2.08,2.08,0,0,0-.5-.05,2.28,2.28,0,0,0-1.58.53,5,5,0,0,0-1.53,3.06l-.78,4.29H942.9l1.57-8.89h1.17l-.41,2.31C945.78,471.9,946.6,470.89,948.18,470.89Z"/><path d="M950,471.11h1.65l.41-2.35,1.35-.54-.51,2.89h2.28l-.18,1h-2.28l-.91,5.14c-.26,1.48.46,1.71,1.21,1.71a4.79,4.79,0,0,0,.79-.07l-.2,1.1a3.73,3.73,0,0,1-1,.14c-1.32,0-2.42-.76-2-3.06l.89-5h-1.65Z"/><path d="M957.56,471.11h1.23L957.22,480H956Zm.48-3.56h1.43l-.36,1.95H957.7Z"/><path d="M961.76,475.87v.32c0,2.19,1.18,2.92,2.6,2.92a2.59,2.59,0,0,0,2.56-1.9l1,.44a3.65,3.65,0,0,1-3.64,2.56c-1.78,0-3.78-.87-3.78-3.93,0-2.47,1.32-5.39,4.54-5.39a3.18,3.18,0,0,1,3.47,3.43,4.58,4.58,0,0,1-.25,1.55Zm.13-1h5.35a2.71,2.71,0,0,0,.09-.7,2.08,2.08,0,0,0-2.28-2.29C963.24,471.87,962.22,473.17,961.89,474.86Z"/><path d="M975.53,470.89a2.94,2.94,0,0,1,.57.05l-.23,1.23a2.08,2.08,0,0,0-.5-.05,2.26,2.26,0,0,0-1.58.53,5,5,0,0,0-1.53,3.06l-.78,4.29h-1.23l1.56-8.89H973l-.41,2.31C973.13,471.9,974,470.89,975.53,470.89Z"/><path d="M987.47,478.24a3.12,3.12,0,0,1-3,2c-1.6,0-3.27-.94-3.27-3.75,0-2.38,1.21-5.57,4.38-5.57a2.86,2.86,0,0,1,2.9,1.92l.57-1.7h.9l-2.18,12.36h-1.25Zm.4-2.14.08-.42c.48-2.51-.74-3.69-2.31-3.69-2.35,0-3.1,2.64-3.1,4.38,0,2.3,1.3,2.74,2.3,2.74C986.6,479.11,987.56,477.69,987.87,476.1Z"/><path d="M992.08,477.47a9,9,0,0,1,.11-1.29l.89-5.07h1.23l-.89,5.12a5.36,5.36,0,0,0-.11,1,1.73,1.73,0,0,0,1.94,1.87c2,0,2.62-1.9,2.86-3.33l.82-4.67h1.27L998.61,480h-1.17l.35-2a3,3,0,0,1-3,2.17A2.49,2.49,0,0,1,992.08,477.47Z"/><path d="M1003.58,471.11h1.22l-1.56,8.89H1002Zm.48-3.56h1.42l-.35,1.95h-1.41Z"/><path d="M1011.26,476.35c0-2.4,1.18-5.46,4.63-5.46,1.85,0,3.75.91,3.75,3.86,0,2.4-1.17,5.46-4.64,5.46C1013.17,480.21,1011.26,479.31,1011.26,476.35Zm7-1.53c0-2.19-1.24-2.84-2.49-2.84-2.54,0-3.22,2.59-3.22,4.3,0,2.19,1.24,2.85,2.49,2.85C1017.63,479.13,1018.31,476.53,1018.31,474.82Z"/><path d="M1026.5,472.14h-2.3l-1.41,7.86h-1.22l1.39-7.86h-1.68l.18-1h1.67l.27-1.62a2.64,2.64,0,0,1,2.74-2.5,3.39,3.39,0,0,1,1.24.22l-.19,1.07a2.76,2.76,0,0,0-1-.18c-1.1,0-1.42.66-1.58,1.51l-.27,1.5h2.31Z"/><path d="M1033,472.14h-2.3l-1.41,7.86H1028l1.38-7.86h-1.67l.18-1h1.67l.27-1.62a2.64,2.64,0,0,1,2.74-2.5,3.39,3.39,0,0,1,1.24.22l-.19,1.07a2.76,2.76,0,0,0-1-.18c-1.1,0-1.42.66-1.58,1.51l-.27,1.5h2.31Z"/><path d="M1039,470.89a2.94,2.94,0,0,1,.57.05l-.23,1.23a2.08,2.08,0,0,0-.5-.05,2.28,2.28,0,0,0-1.58.53,5,5,0,0,0-1.53,3.06L1035,480h-1.23l1.57-8.89h1.17l-.41,2.31C1036.6,471.9,1037.42,470.89,1039,470.89Z"/><path d="M1041,475.87v.32c0,2.19,1.18,2.92,2.6,2.92a2.59,2.59,0,0,0,2.56-1.9l1,.44a3.65,3.65,0,0,1-3.64,2.56c-1.78,0-3.78-.87-3.78-3.93,0-2.47,1.32-5.39,4.54-5.39a3.18,3.18,0,0,1,3.47,3.43,4.58,4.58,0,0,1-.25,1.55Zm.13-1h5.35a2.33,2.33,0,0,0,.09-.7,2.08,2.08,0,0,0-2.28-2.29C1042.44,471.87,1041.42,473.17,1041.09,474.86Z"/><path d="M1054.47,477.47a8.87,8.87,0,0,1,.1-1.29l.89-5.07h1.23l-.89,5.12a5.31,5.31,0,0,0-.1,1,1.73,1.73,0,0,0,1.93,1.87c2,0,2.62-1.9,2.87-3.33l.82-4.67h1.26L1061,480h-1.18l.36-2a3,3,0,0,1-3,2.17A2.49,2.49,0,0,1,1054.47,477.47Z"/><path d="M1066,471.11h1.18l-.34,1.92a3.17,3.17,0,0,1,3.08-2.14,2.53,2.53,0,0,1,2.74,2.85,7.85,7.85,0,0,1-.11,1.19l-.87,5.07h-1.25l.91-5.12a6.35,6.35,0,0,0,.09-.91,1.77,1.77,0,0,0-2-2c-2,0-2.72,1.91-3,3.33l-.83,4.68h-1.23Z"/><path d="M1075.89,475.87v.32c0,2.19,1.18,2.92,2.6,2.92a2.59,2.59,0,0,0,2.56-1.9l1,.44a3.65,3.65,0,0,1-3.64,2.56c-1.78,0-3.78-.87-3.78-3.93,0-2.47,1.32-5.39,4.54-5.39a3.18,3.18,0,0,1,3.47,3.43,4.58,4.58,0,0,1-.25,1.55Zm.13-1h5.35a2.71,2.71,0,0,0,.09-.7,2.08,2.08,0,0,0-2.28-2.29C1077.37,471.87,1076.35,473.17,1076,474.86Z"/><path d="M886.39,495.11h1.17l-.3,1.72a2.76,2.76,0,0,1,2.7-1.93,2.12,2.12,0,0,1,2.33,2,3,3,0,0,1,2.85-2,2.41,2.41,0,0,1,2.6,2.65,6.05,6.05,0,0,1-.11,1.05l-1,5.4h-1.24l1-5.31a4.05,4.05,0,0,0,.09-.86c0-1.46-.88-1.83-1.68-1.83-1.69,0-2.29,1.6-2.54,3.06l-.89,4.94h-1.23l1-5.35a4.81,4.81,0,0,0,.07-.87c0-1.48-.9-1.78-1.63-1.78-1.76,0-2.35,1.67-2.62,3.13l-.85,4.87h-1.23Z"/><path d="M900.09,501.48a9,9,0,0,1,.1-1.3l.89-5.07h1.23l-.89,5.12a5.41,5.41,0,0,0-.1,1,1.72,1.72,0,0,0,1.93,1.86c2,0,2.62-1.9,2.87-3.32l.82-4.68h1.26L906.62,504h-1.18l.36-1.95a3,3,0,0,1-3,2.17A2.49,2.49,0,0,1,900.09,501.48Z"/><path d="M911.33,504h-1.22l2.27-12.89h1.23Z"/><path d="M915.05,495.11h1.66l.41-2.35,1.35-.53-.52,2.88h2.28l-.18,1h-2.27l-.91,5.14c-.27,1.48.46,1.71,1.21,1.71a4.68,4.68,0,0,0,.78-.07l-.19,1.1a3.81,3.81,0,0,1-1,.14c-1.32,0-2.42-.76-2-3.06l.89-5h-1.65Z"/><path d="M922.6,495.11h1.22L922.26,504H921Zm.48-3.56h1.42l-.36,2h-1.4Z"/><path d="M925.89,495.11h1.65l.41-2.35,1.35-.53-.51,2.88h2.28l-.18,1h-2.28l-.91,5.14c-.26,1.48.47,1.71,1.21,1.71a4.79,4.79,0,0,0,.79-.07l-.2,1.1a3.73,3.73,0,0,1-1,.14c-1.32,0-2.42-.76-2-3.06l.89-5h-1.66Z"/><path d="M932.17,501.48a9.11,9.11,0,0,1,.11-1.3l.89-5.07h1.22l-.89,5.12a5.41,5.41,0,0,0-.1,1,1.72,1.72,0,0,0,1.94,1.86c1.95,0,2.61-1.9,2.86-3.32l.82-4.68h1.26L938.7,504h-1.17l.35-1.95a3,3,0,0,1-3,2.17A2.49,2.49,0,0,1,932.17,501.48Z"/><path d="M942,500.46c0-2.38,1.23-5.56,4.34-5.56a2.79,2.79,0,0,1,2.87,2l1-5.8h1.25L949.16,504H948l.3-1.72a3.4,3.4,0,0,1-3.08,1.94C943.72,504.22,942,503.28,942,500.46Zm6.66-.35.09-.43c.48-2.51-.75-3.68-2.32-3.68-2.35,0-3.09,2.63-3.09,4.37,0,2.3,1.3,2.74,2.29,2.74C947.38,503.11,948.34,501.69,948.65,500.11Z"/><path d="M953.79,499.88v.32c0,2.19,1.17,2.91,2.6,2.91a2.57,2.57,0,0,0,2.56-1.9l1,.45a3.67,3.67,0,0,1-3.65,2.56c-1.78,0-3.77-.87-3.77-3.93,0-2.48,1.32-5.39,4.54-5.39a3.18,3.18,0,0,1,3.47,3.43,4.58,4.58,0,0,1-.25,1.55Zm.12-1h5.36a2.63,2.63,0,0,0,.09-.69,2.09,2.09,0,0,0-2.28-2.3C955.27,495.87,954.25,497.17,953.91,498.86Z"/><path d="M966.89,500.46c0-2.38,1.22-5.56,4.34-5.56a2.78,2.78,0,0,1,2.86,2l1-5.8h1.24L974.06,504h-1.18l.3-1.72a3.39,3.39,0,0,1-3.07,1.94C968.61,504.22,966.89,503.28,966.89,500.46Zm6.65-.35.09-.43c.48-2.51-.75-3.68-2.31-3.68-2.35,0-3.1,2.63-3.1,4.37,0,2.3,1.3,2.74,2.3,2.74C972.28,503.11,973.24,501.69,973.54,500.11Z"/><path d="M978.68,499.88v.32c0,2.19,1.18,2.91,2.6,2.91a2.57,2.57,0,0,0,2.56-1.9l1,.45a3.68,3.68,0,0,1-3.65,2.56c-1.78,0-3.77-.87-3.77-3.93,0-2.48,1.31-5.39,4.53-5.39a3.17,3.17,0,0,1,3.47,3.43,4.58,4.58,0,0,1-.25,1.55Zm.13-1h5.35a2.26,2.26,0,0,0,.09-.69,2.09,2.09,0,0,0-2.28-2.3C980.16,495.87,979.15,497.17,978.81,498.86Z"/><path d="M991.82,500.3c0-2.34,1.19-5.4,4.57-5.4,1.9,0,3.45,1,3.41,3.22l-1.19.14a2.07,2.07,0,0,0-2.24-2.28c-2.49,0-3.22,2.55-3.22,4.32,0,2.16,1.23,2.83,2.42,2.83a2.57,2.57,0,0,0,2.56-2.27l1.21.17a3.7,3.7,0,0,1-3.82,3.19C993.72,504.22,991.82,503.29,991.82,500.3Z"/><path d="M1003.74,491.11H1005l-1,5.8a3.25,3.25,0,0,1,3.11-2,2.44,2.44,0,0,1,2.67,2.72,7,7,0,0,1-.1,1.12l-.93,5.26h-1.24l.94-5.26a8.48,8.48,0,0,0,.07-.89,1.67,1.67,0,0,0-1.89-1.85c-2,0-2.77,1.69-3.06,3.32l-.83,4.68h-1.23Z"/><path d="M1013,499.88v.32c0,2.19,1.18,2.91,2.6,2.91a2.57,2.57,0,0,0,2.56-1.9l1,.45a3.66,3.66,0,0,1-3.64,2.56c-1.78,0-3.78-.87-3.78-3.93,0-2.48,1.32-5.39,4.54-5.39a3.18,3.18,0,0,1,3.47,3.43,4.58,4.58,0,0,1-.25,1.55Zm.13-1h5.35a2.63,2.63,0,0,0,.09-.69,2.09,2.09,0,0,0-2.28-2.3C1014.45,495.87,1013.43,497.17,1013.1,498.86Z"/><path d="M1023,495.11h1.17l-.3,1.72a2.76,2.76,0,0,1,2.7-1.93,2.12,2.12,0,0,1,2.33,2,3,3,0,0,1,2.85-2,2.41,2.41,0,0,1,2.6,2.65,6.05,6.05,0,0,1-.11,1.05l-1,5.4h-1.24l1-5.31a4.05,4.05,0,0,0,.09-.86c0-1.46-.88-1.83-1.68-1.83-1.69,0-2.29,1.6-2.54,3.06L1028,504h-1.23l1-5.35a4.81,4.81,0,0,0,.07-.87c0-1.48-.9-1.78-1.63-1.78-1.76,0-2.35,1.67-2.62,3.13l-.85,4.87h-1.23Z"/><path d="M1038,495.11h1.23l-1.57,8.89h-1.23Zm.48-3.56h1.42l-.35,2h-1.41Z"/><path d="M1042.6,495.11h1.17l-.33,1.92a3.15,3.15,0,0,1,3.07-2.13,2.51,2.51,0,0,1,2.74,2.84,7.53,7.53,0,0,1-.1,1.19l-.88,5.07H1047l.91-5.12a6.21,6.21,0,0,0,.09-.91,1.77,1.77,0,0,0-2-2c-2,0-2.72,1.9-3,3.32l-.84,4.68H1041Z"/><path d="M1052.53,499.88v.32c0,2.19,1.17,2.91,2.6,2.91a2.58,2.58,0,0,0,2.56-1.9l1,.45a3.68,3.68,0,0,1-3.65,2.56c-1.78,0-3.77-.87-3.77-3.93,0-2.48,1.32-5.39,4.54-5.39a3.18,3.18,0,0,1,3.47,3.43,4.58,4.58,0,0,1-.25,1.55Zm.12-1H1058a2.63,2.63,0,0,0,.09-.69,2.09,2.09,0,0,0-2.28-2.3C1054,495.87,1053,497.17,1052.65,498.86Z"/><path d="M1062.58,495.11h1.18l-.31,1.72a2.78,2.78,0,0,1,2.71-1.93,2.12,2.12,0,0,1,2.33,2,3,3,0,0,1,2.84-2,2.41,2.41,0,0,1,2.6,2.65,6,6,0,0,1-.1,1.05l-1,5.4h-1.25l1-5.31a4.05,4.05,0,0,0,.09-.86c0-1.46-.87-1.83-1.67-1.83-1.69,0-2.3,1.6-2.55,3.06l-.89,4.94h-1.22l1-5.35a5.93,5.93,0,0,0,.07-.87c0-1.48-.91-1.78-1.64-1.78-1.76,0-2.35,1.67-2.61,3.13l-.86,4.87H1061Z"/><path d="M1077.14,499.88v.32c0,2.19,1.17,2.91,2.59,2.91a2.59,2.59,0,0,0,2.57-1.9l1,.45a3.68,3.68,0,0,1-3.65,2.56c-1.78,0-3.77-.87-3.77-3.93,0-2.48,1.32-5.39,4.54-5.39a3.18,3.18,0,0,1,3.47,3.43,4.84,4.84,0,0,1-.25,1.55Zm.12-1h5.36a2.63,2.63,0,0,0,.09-.69,2.09,2.09,0,0,0-2.28-2.3C1078.61,495.87,1077.6,497.17,1077.26,498.86Z"/><path d="M1087.19,495.11h1.18L1088,497a3.15,3.15,0,0,1,3.08-2.13,2.51,2.51,0,0,1,2.73,2.84,7.53,7.53,0,0,1-.1,1.19l-.87,5.07h-1.25l.91-5.12a6.21,6.21,0,0,0,.09-.91,1.77,1.77,0,0,0-2-2c-2.05,0-2.72,1.9-3,3.32l-.84,4.68h-1.22Z"/><path d="M1096.05,495.11h1.66l.41-2.35,1.35-.53-.52,2.88h2.28l-.18,1h-2.28l-.9,5.14c-.27,1.48.46,1.71,1.21,1.71a4.68,4.68,0,0,0,.78-.07l-.2,1.1a3.68,3.68,0,0,1-1,.14c-1.32,0-2.42-.76-2-3.06l.89-5h-1.66Z"/><path d="M1101.57,501.44l1.24-.19a2.15,2.15,0,0,0,2.46,1.94c1.64,0,2.08-.86,2.08-1.66s-.44-1.14-1.33-1.33l-1.55-.36a2.22,2.22,0,0,1-2-2.26c0-1.46,1.15-2.68,3.31-2.68,1.7,0,3.45.72,3.48,2.49l-1.21.26c-.07-1.28-1.15-1.74-2.35-1.74-1.42,0-2,.69-2,1.57s.39,1.12,1.41,1.35l1.47.33c1.53.36,2,1.18,2,2.32,0,1.44-1.12,2.74-3.47,2.74C1103.47,504.22,1101.75,503.52,1101.57,501.44Z"/><path d="M884.71,524.47c0-2.39,1.23-5.57,4.34-5.57a2.8,2.8,0,0,1,2.87,2l1-5.8h1.24L891.88,528h-1.17l.3-1.73a3.38,3.38,0,0,1-3.08,1.94C886.44,528.22,884.71,527.28,884.71,524.47Zm6.66-.36.09-.42c.48-2.51-.75-3.69-2.32-3.69-2.35,0-3.09,2.64-3.09,4.38,0,2.3,1.3,2.74,2.29,2.74C890.1,527.12,891.07,525.7,891.37,524.11Z"/><path d="M895,525.7a2.39,2.39,0,0,1,.82-1.85,4.93,4.93,0,0,1,3-1l2.73-.21.05-.31c.25-1.67-.3-2.4-1.83-2.4a2.23,2.23,0,0,0-2.56,2h-1.27c.27-2,1.67-3,3.74-3,2.51,0,3.56,1.17,3.11,3.84L902.4,525a16.68,16.68,0,0,0-.25,3.06h-1.3a14,14,0,0,1,.16-1.78,3.31,3.31,0,0,1-3.16,2C896.19,528.22,895,527.32,895,525.7Zm6.3-1.57.1-.6-2.34.17c-2,.16-2.71.88-2.71,1.94s.8,1.55,1.76,1.55A3.36,3.36,0,0,0,901.3,524.13Z"/><path d="M906.58,519.11h1.18l-.34,1.92a3.17,3.17,0,0,1,3.08-2.13,2.52,2.52,0,0,1,2.74,2.85,7.85,7.85,0,0,1-.11,1.19l-.87,5.07H911l.91-5.12A6.35,6.35,0,0,0,912,522a1.77,1.77,0,0,0-2-2c-2,0-2.72,1.91-3,3.33l-.84,4.68H905Z"/><path d="M915,525.45l1.24-.2c.16,1.44,1.19,1.94,2.46,1.94,1.63,0,2.08-.85,2.08-1.65s-.45-1.14-1.34-1.34l-1.54-.35a2.24,2.24,0,0,1-2-2.26c0-1.46,1.16-2.69,3.31-2.69,1.71,0,3.45.73,3.49,2.49l-1.21.27c-.07-1.28-1.16-1.75-2.35-1.75-1.42,0-2,.7-2,1.57s.39,1.12,1.4,1.35l1.48.34c1.53.36,2,1.17,2,2.31,0,1.44-1.12,2.74-3.47,2.74C916.85,528.22,915.12,527.53,915,525.45Z"/><path d="M929.2,525.48a7.86,7.86,0,0,1,.11-1.3l.89-5.07h1.22l-.89,5.13a5.31,5.31,0,0,0-.1,1,1.73,1.73,0,0,0,1.94,1.87c2,0,2.61-1.9,2.86-3.33l.82-4.68h1.26l-1.58,8.9h-1.18l.36-2a3,3,0,0,1-3,2.17A2.49,2.49,0,0,1,929.2,525.48Z"/><path d="M940.69,519.11h1.18l-.34,1.92a3.18,3.18,0,0,1,3.08-2.13,2.52,2.52,0,0,1,2.74,2.85,7.85,7.85,0,0,1-.11,1.19l-.87,5.07h-1.25l.91-5.12a6.35,6.35,0,0,0,.09-.91,1.77,1.77,0,0,0-2-2c-2,0-2.72,1.91-3,3.33l-.83,4.68h-1.23Z"/><path d="M950.62,523.88v.32c0,2.19,1.18,2.92,2.6,2.92a2.59,2.59,0,0,0,2.56-1.9l1,.44a3.66,3.66,0,0,1-3.64,2.56c-1.78,0-3.78-.87-3.78-3.93,0-2.47,1.32-5.39,4.54-5.39a3.17,3.17,0,0,1,3.47,3.43,4.58,4.58,0,0,1-.25,1.55Zm.13-1h5.35a2.33,2.33,0,0,0,.09-.7,2.08,2.08,0,0,0-2.28-2.29C952.1,519.88,951.08,521.18,950.75,522.87Z"/><path d="M963.47,525.7a2.39,2.39,0,0,1,.82-1.85,4.94,4.94,0,0,1,3-1l2.72-.21.05-.31c.25-1.67-.3-2.4-1.83-2.4a2.24,2.24,0,0,0-2.56,2h-1.27c.27-2,1.68-3,3.74-3,2.51,0,3.56,1.17,3.11,3.84l-.39,2.21a17.63,17.63,0,0,0-.25,3.06h-1.3a14,14,0,0,1,.16-1.78,3.31,3.31,0,0,1-3.16,2C964.66,528.22,963.47,527.32,963.47,525.7Zm6.3-1.57.11-.6-2.35.17c-2,.16-2.71.88-2.71,1.94s.8,1.55,1.76,1.55A3.36,3.36,0,0,0,969.77,524.13Z"/><path d="M975.05,519.11h1.18l-.3,1.73a2.76,2.76,0,0,1,2.7-1.94,2.13,2.13,0,0,1,2.33,2,3,3,0,0,1,2.85-2,2.41,2.41,0,0,1,2.6,2.65,6,6,0,0,1-.11,1.05l-1,5.41h-1.25l1-5.32a3.9,3.9,0,0,0,.08-.85c0-1.46-.87-1.84-1.67-1.84-1.69,0-2.29,1.6-2.54,3.06l-.89,5h-1.23l1-5.36a5.83,5.83,0,0,0,.07-.87c0-1.47-.9-1.78-1.63-1.78-1.77,0-2.35,1.68-2.62,3.13l-.85,4.88h-1.23Z"/><path d="M990,526.25l-.53,1.76h-1l2.28-12.9h1.23l-1,5.69a3.33,3.33,0,0,1,3-1.9c1.5,0,3.26.87,3.26,3.72,0,2.38-1.26,5.6-4.3,5.6A2.88,2.88,0,0,1,990,526.25Zm5.91-3.61c0-2.12-1.21-2.64-2.25-2.64a3.23,3.23,0,0,0-3,2.81l-.14.68c-.43,2,.3,3.63,2.24,3.63C995.23,527.12,995.93,524.24,995.93,522.64Z"/><path d="M1000.53,519.11h1.23l-1.56,8.9H999Zm.48-3.55h1.43l-.36,2h-1.4Z"/><path d="M1003.22,525.7a2.39,2.39,0,0,1,.82-1.85,4.94,4.94,0,0,1,3-1l2.72-.21.05-.31c.25-1.67-.3-2.4-1.83-2.4a2.24,2.24,0,0,0-2.56,2h-1.27c.27-2,1.68-3,3.74-3,2.51,0,3.56,1.17,3.11,3.84l-.39,2.21a17.63,17.63,0,0,0-.25,3.06h-1.29a11.1,11.1,0,0,1,.16-1.78,3.33,3.33,0,0,1-3.17,2C1004.41,528.22,1003.22,527.32,1003.22,525.7Zm6.3-1.57.11-.6-2.35.17c-2,.16-2.71.88-2.71,1.94s.8,1.55,1.76,1.55A3.36,3.36,0,0,0,1009.52,524.13Z"/><path d="M1014.8,519.11H1016l-.34,1.92a3.18,3.18,0,0,1,3.08-2.13,2.52,2.52,0,0,1,2.74,2.85,7.85,7.85,0,0,1-.11,1.19l-.87,5.07h-1.24l.9-5.12a5.18,5.18,0,0,0,.09-.91,1.77,1.77,0,0,0-2-2c-2,0-2.72,1.91-3,3.33l-.83,4.68h-1.23Z"/><path d="M1023.51,524.31c0-2.35,1.19-5.41,4.57-5.41,1.9,0,3.45,1,3.42,3.22l-1.2.14a2.08,2.08,0,0,0-2.24-2.28c-2.49,0-3.22,2.55-3.22,4.33,0,2.15,1.23,2.83,2.42,2.83a2.58,2.58,0,0,0,2.56-2.28l1.21.18a3.69,3.69,0,0,1-3.82,3.18C1025.41,528.22,1023.51,527.3,1023.51,524.31Z"/><path d="M1034.22,523.88v.32c0,2.19,1.17,2.92,2.6,2.92a2.59,2.59,0,0,0,2.56-1.9l1,.44a3.68,3.68,0,0,1-3.65,2.56c-1.78,0-3.77-.87-3.77-3.93,0-2.47,1.32-5.39,4.54-5.39a3.18,3.18,0,0,1,3.47,3.43,4.58,4.58,0,0,1-.25,1.55Zm.12-1h5.36a2.71,2.71,0,0,0,.09-.7,2.08,2.08,0,0,0-2.28-2.29C1035.7,519.88,1034.68,521.18,1034.34,522.87Z"/><path d="M1047.49,519.11h1.32l1.1,6.3c.07.5.13.91.15,1.32h0c.16-.41.37-.82.62-1.32l3.33-6.3h1.37l-4.86,8.9h-1.35Z"/><path d="M1063.47,522.33a4.58,4.58,0,0,1-.25,1.55h-6.53v.32c0,2.19,1.18,2.92,2.6,2.92a2.59,2.59,0,0,0,2.56-1.9l1,.44a3.66,3.66,0,0,1-3.64,2.56c-1.78,0-3.78-.87-3.78-3.93,0-2.47,1.32-5.39,4.54-5.39A3.17,3.17,0,0,1,1063.47,522.33Zm-1.21-.16a2.08,2.08,0,0,0-2.28-2.29c-1.81,0-2.82,1.3-3.16,3h5.35A2.33,2.33,0,0,0,1062.26,522.17Zm-1.33-4.48h-1.18l2.21-2.54h1.53Z"/><path d="M1074.18,517.76l-.19,1.12a2.3,2.3,0,0,0-.73-.1,1.35,1.35,0,0,0-1.43,1.12,2.47,2.47,0,0,1,.56,1.69,3.21,3.21,0,0,1-3.47,3.29,3.82,3.82,0,0,1-1.82-.41c-.89.28-1.14.71-1.14,1.12,0,.64.55.84,1.71.87l1.58.06c1.36,0,2.92.35,2.92,2.18,0,1.39-.9,3-4.53,3-1.87,0-3.87-.44-3.87-2.29,0-.91.5-1.66,2-2.12a1.35,1.35,0,0,1-.94-1.33c0-.77.46-1.43,1.74-1.87a2.54,2.54,0,0,1-.73-1.89,3.22,3.22,0,0,1,3.49-3.29,3.56,3.56,0,0,1,1.92.48,2.27,2.27,0,0,1,2.26-1.69A2.87,2.87,0,0,1,1074.18,517.76Zm-6.69,9.81a6.18,6.18,0,0,1-.92-.08c-1.23.39-1.55,1-1.55,1.66,0,1.26,1.33,1.51,2.7,1.51,2.57,0,3.15-1,3.15-1.8,0-1.08-.87-1.24-1.81-1.26Zm3.72-5.89a1.77,1.77,0,0,0-2-1.82,2.09,2.09,0,0,0-2.19,2.24,1.77,1.77,0,0,0,2,1.82A2.1,2.1,0,0,0,1071.21,521.68Z"/><path d="M1082.19,522.33a4.58,4.58,0,0,1-.25,1.55h-6.53v.32c0,2.19,1.18,2.92,2.6,2.92a2.59,2.59,0,0,0,2.56-1.9l1,.44a3.66,3.66,0,0,1-3.64,2.56c-1.78,0-3.78-.87-3.78-3.93,0-2.47,1.32-5.39,4.54-5.39A3.18,3.18,0,0,1,1082.19,522.33Zm-1.21-.16a2.08,2.08,0,0,0-2.28-2.29c-1.81,0-2.83,1.3-3.16,3h5.35A2.71,2.71,0,0,0,1081,522.17Zm-1.33-4.48h-1.18l2.21-2.54h1.53Z"/><path d="M1083.92,519.11h1.65l.41-2.34,1.35-.54-.51,2.88h2.27l-.17,1h-2.28l-.91,5.14c-.27,1.47.46,1.71,1.21,1.71a3.82,3.82,0,0,0,.78-.08l-.19,1.11a3.75,3.75,0,0,1-1,.14c-1.31,0-2.42-.77-2-3.06l.89-5h-1.65Z"/><path d="M1089.4,525.7a2.35,2.35,0,0,1,.82-1.85,4.91,4.91,0,0,1,3-1l2.72-.21.06-.31c.25-1.67-.3-2.4-1.83-2.4a2.24,2.24,0,0,0-2.57,2h-1.26c.27-2,1.67-3,3.74-3,2.5,0,3.55,1.17,3.11,3.84l-.39,2.21a15.83,15.83,0,0,0-.25,3.06h-1.3a12.38,12.38,0,0,1,.16-1.78,3.31,3.31,0,0,1-3.17,2C1090.59,528.22,1089.4,527.32,1089.4,525.7Zm6.3-1.57.1-.6-2.35.17c-2,.16-2.7.88-2.7,1.94s.8,1.55,1.76,1.55A3.36,3.36,0,0,0,1095.7,524.13Z"/><path d="M1100.73,528h-1.23l2.28-12.9H1103Z"/><path d="M1105.77,519.11H1107l-1.57,8.9h-1.23Zm.48-3.55h1.42l-.35,2h-1.41Z"/><path d="M1108.4,525.45l1.25-.2a2.14,2.14,0,0,0,2.45,1.94c1.64,0,2.08-.85,2.08-1.65s-.44-1.14-1.33-1.34l-1.55-.35a2.24,2.24,0,0,1-2-2.26c0-1.46,1.15-2.69,3.31-2.69,1.71,0,3.45.73,3.49,2.49l-1.21.27c-.08-1.28-1.16-1.75-2.35-1.75-1.43,0-2,.7-2,1.57s.4,1.12,1.41,1.35l1.48.34c1.53.36,2,1.17,2,2.31,0,1.44-1.12,2.74-3.46,2.74C1110.31,528.22,1108.58,527.53,1108.4,525.45Z"/><path d="M1125.57,522.33a4.58,4.58,0,0,1-.25,1.55h-6.53v.32c0,2.19,1.18,2.92,2.6,2.92a2.59,2.59,0,0,0,2.56-1.9l1,.44a3.66,3.66,0,0,1-3.64,2.56c-1.78,0-3.77-.87-3.77-3.93,0-2.47,1.31-5.39,4.53-5.39A3.17,3.17,0,0,1,1125.57,522.33Zm-1.21-.16a2.08,2.08,0,0,0-2.28-2.29c-1.81,0-2.82,1.3-3.16,3h5.35A2.33,2.33,0,0,0,1124.36,522.17Zm-1.33-4.48h-1.18l2.21-2.54h1.53Z"/><path d="M1128.44,523.88v.32c0,2.19,1.17,2.92,2.59,2.92a2.61,2.61,0,0,0,2.57-1.9l1,.44a3.68,3.68,0,0,1-3.65,2.56c-1.78,0-3.77-.87-3.77-3.93,0-2.47,1.32-5.39,4.54-5.39a3.18,3.18,0,0,1,3.47,3.43,4.84,4.84,0,0,1-.25,1.55Zm.12-1h5.36a2.71,2.71,0,0,0,.09-.7,2.08,2.08,0,0,0-2.28-2.29C1129.91,519.88,1128.9,521.18,1128.56,522.87Z"/><path class="cls-3" d="M891.47,548.78V552h-1.22v-3.23h-5.91v-.91l5.69-8.22h1.44v8.09h2.07v1ZM890.28,541h0a6.86,6.86,0,0,1-.79,1.39l-2.81,4a9.12,9.12,0,0,1-1,1.35h4.59V542.6C890.25,541.77,890.25,541.53,890.28,541Z"/><path class="cls-3" d="M899.84,549.66a2.25,2.25,0,0,1,1.08-2,7.8,7.8,0,0,1,2.92-.8l2-.23v-.14c0-1.83-.64-2.56-2.16-2.56a2,2,0,0,0-2.22,1.95h-1.33c.1-1.83,1.49-3,3.54-3,2.38,0,3.41,1.11,3.41,3.69v2.31a12.25,12.25,0,0,0,.29,3.11h-1.3a12.35,12.35,0,0,1-.16-1.78,3.06,3.06,0,0,1-3.1,2C901,552.23,899.84,551.19,899.84,549.66Zm6-1.53v-.56l-2.52.35c-1.51.21-2.17.73-2.17,1.71s.74,1.56,1.94,1.56A2.76,2.76,0,0,0,905.83,548.13Z"/><path class="cls-3" d="M910.12,539.56h1.41v2h-1.41Zm.09,3.56h1.23V552h-1.23Z"/><path class="cls-3" d="M918.74,542.9a1.83,1.83,0,0,1,.33,0v1.21h-.14a2.58,2.58,0,0,0-1.9.68,4.27,4.27,0,0,0-1,3.13V552h-1.23v-8.89H916v2.17A3,3,0,0,1,918.74,542.9Z"/><path class="cls-3" d="M927.9,547.89h-6.46c0,2,1.12,3.23,2.85,3.23a2.5,2.5,0,0,0,2.51-1.9l1.05.43a3.61,3.61,0,0,1-3.65,2.58c-2.53,0-4-1.62-4-4.61s1.49-4.72,3.94-4.72,3.76,1.43,3.76,4.13Zm-1.26-1.18c0-1.83-.93-2.81-2.51-2.81s-2.65,1.14-2.69,3h5.2Z"/><path class="cls-3" d="M929.7,549.47l1.26-.21a2.27,2.27,0,0,0,2.53,1.93c1.3,0,2-.62,2-1.51s-.49-1.24-1.44-1.42l-1.72-.34c-1.48-.28-2.31-1.08-2.31-2.44s1.26-2.58,3.27-2.58,3.25.88,3.43,2.46l-1.24.27a2,2,0,0,0-2.25-1.71c-1.22,0-2,.57-2,1.51s.55,1.25,1.47,1.42l1.74.34c1.59.32,2.28,1.09,2.28,2.39,0,1.58-1.19,2.65-3.29,2.65S930,551.25,929.7,549.47Z"/><path class="cls-3" d="M943.27,547.57c0-2.74,1.55-4.67,3.81-4.67a2.83,2.83,0,0,1,2.79,1.84v-5.63h1.25V552H950v-1.88a3.12,3.12,0,0,1-3,2.1C944.73,552.23,943.27,550.34,943.27,547.57Zm6.62.19v-.37c0-2-1-3.38-2.63-3.38s-2.67,1.33-2.67,3.56,1,3.55,2.65,3.55S949.89,549.74,949.89,547.76Z"/><path class="cls-3" d="M954.13,543.08a1.52,1.52,0,0,0,.94-1.67v0h-.89v-2h1.69v1.89a2.25,2.25,0,0,1-1.41,2.45Z"/><path class="cls-3" d="M958.74,539.56h1.4v2h-1.4Zm.09,3.56h1.22V552h-1.22Z"/><path class="cls-3" d="M964.59,543.12v1.72a2.65,2.65,0,0,1,2.63-1.94,2.53,2.53,0,0,1,2.57,1.91,2.81,2.81,0,0,1,2.74-1.91c1.74,0,2.73,1.21,2.73,3.29V552H974V546.3c0-1.51-.64-2.33-1.87-2.33S970,545,970,546.6V552h-1.22v-5.78c0-1.44-.68-2.26-1.86-2.26-1.35,0-2.22,1.1-2.22,2.85V552h-1.23v-8.89Z"/><path class="cls-3" d="M978.36,543.12h1.18V545a3.15,3.15,0,0,1,3-2.1c2.19,0,3.61,1.87,3.61,4.67s-1.51,4.66-3.7,4.66a3,3,0,0,1-2.9-1.89v5.14h-1.23Zm6.52,4.45c0-2.21-1-3.56-2.6-3.56s-2.71,1.39-2.71,3.34v.39c0,2,1,3.38,2.64,3.38S984.88,549.77,984.88,547.57Z"/><path class="cls-3" d="M990.05,552h-1.22v-12.9h1.22Z"/><path class="cls-3" d="M992.72,549.66a2.26,2.26,0,0,1,1.09-2,7.75,7.75,0,0,1,2.92-.8l2-.23v-.14c0-1.83-.64-2.56-2.15-2.56a2,2,0,0,0-2.23,1.95H993c.11-1.83,1.49-3,3.54-3,2.38,0,3.42,1.11,3.42,3.69v2.31a12.82,12.82,0,0,0,.28,3.11h-1.3a12.35,12.35,0,0,1-.16-1.78,3,3,0,0,1-3.09,2C993.9,552.23,992.72,551.19,992.72,549.66Zm6-1.53v-.56l-2.53.35c-1.51.21-2.17.73-2.17,1.71s.75,1.56,1.94,1.56A2.77,2.77,0,0,0,998.72,548.13Z"/><path class="cls-3" d="M1003.1,543.12h1.17v2a3,3,0,0,1,3-2.17c2,0,3,1.23,3,3.62V552h-1.25v-5.42c0-1.73-.75-2.62-2.15-2.62-1.6,0-2.62,1.28-2.62,3.36V552h-1.22Z"/><path class="cls-3" d="M1012,543.12h1.64v-2.35l1.24-.54v2.89h2.3v1h-2.3v5.34c0,1,.46,1.51,1.39,1.51a3.78,3.78,0,0,0,.91-.11V552a4.12,4.12,0,0,1-1.23.16c-1.73,0-2.31-1-2.31-2.63v-5.39H1012Z"/><path class="cls-3" d="M1018.6,549.66a2.25,2.25,0,0,1,1.08-2,7.75,7.75,0,0,1,2.92-.8l2-.23v-.14c0-1.83-.64-2.56-2.15-2.56a2,2,0,0,0-2.22,1.95h-1.34c.11-1.83,1.5-3,3.54-3,2.39,0,3.42,1.11,3.42,3.69v2.31a12.82,12.82,0,0,0,.28,3.11h-1.3a14,14,0,0,1-.16-1.78,3,3,0,0,1-3.09,2C1019.77,552.23,1018.6,551.19,1018.6,549.66Zm6-1.53v-.56l-2.52.35c-1.52.21-2.18.73-2.18,1.71s.75,1.56,1.94,1.56A2.77,2.77,0,0,0,1024.59,548.13Z"/><path class="cls-3" d="M1027.63,543.12h1.64v-2.35l1.25-.54v2.89h2.29v1h-2.29v5.34c0,1,.46,1.51,1.38,1.51a3.66,3.66,0,0,0,.91-.11V552a4.08,4.08,0,0,1-1.23.16c-1.72,0-2.31-1-2.31-2.63v-5.39h-1.64Z"/><path class="cls-3" d="M1035.07,539.56h1.41v2h-1.41Zm.09,3.56h1.23V552h-1.23Z"/><path class="cls-3" d="M1038.93,547.57c0-2.9,1.62-4.67,4.1-4.67s4.07,1.77,4.07,4.67-1.62,4.66-4.07,4.66S1038.93,550.47,1038.93,547.57Zm6.85,0c0-2.32-1-3.58-2.75-3.58s-2.78,1.26-2.78,3.58,1,3.57,2.78,3.57S1045.78,549.88,1045.78,547.57Z"/><path class="cls-3" d="M1049.65,543.12h1.17v2a3,3,0,0,1,3-2.17c2,0,3,1.23,3,3.62V552h-1.25v-5.42c0-1.73-.75-2.62-2.15-2.62-1.6,0-2.62,1.28-2.62,3.36V552h-1.22Z"/><g class="cls-4"><g class="cls-5"><image width="1136" height="637" transform="translate(35.27 329.11) scale(0.24 0.24)" xlink:href="Sans%20titre%20-%2021.png"/></g></g><g class="cls-6"><g class="cls-7"><image width="1136" height="637" transform="translate(317.91 431.53) scale(0.24 0.24)" xlink:href="Sans%20titre%20-%2022.png"/></g></g><g class="cls-8"><g class="cls-9"><image width="1136" height="637" transform="translate(600.54 517.99) scale(0.24 0.24)" xlink:href="Sans%20titre%20-%2023.png"/></g></g><g class="cls-10"><g class="cls-11"><image width="1136" height="637" transform="translate(883.05 602.18) scale(0.24 0.24)" xlink:href="Sans%20titre%20-%2024.png"/></g></g></g></svg>