<svg id="Calque_1" data-name="Calque 1" xmlns="http://www.w3.org/2000/svg" xmlns:xlink="http://www.w3.org/1999/xlink" viewBox="0 0 1190.55 841.89"><defs><style>.cls-1{fill:none;}.cls-2{clip-path:url(#clip-path);}.cls-3{clip-path:url(#clip-path-3);}.cls-4{opacity:0.6;}.cls-5{clip-path:url(#clip-path-4);}.cls-6{fill:#eadfde;}.cls-7{clip-path:url(#clip-path-5);}.cls-8{clip-path:url(#clip-path-6);}.cls-9{clip-path:url(#clip-path-7);}</style><clipPath id="clip-path"><rect class="cls-1" width="1190.55" height="841.89"/></clipPath><clipPath id="clip-path-3"><rect class="cls-1" width="1190.55" height="841.89"/></clipPath><clipPath id="clip-path-4"><rect class="cls-1" x="27" y="185.92" width="1136.55" height="58.86"/></clipPath><clipPath id="clip-path-5"><rect class="cls-1" x="27" y="257.49" width="1136.55" height="58.86"/></clipPath><clipPath id="clip-path-6"><rect class="cls-1" x="27" y="329.07" width="1136.55" height="58.86"/></clipPath><clipPath id="clip-path-7"><rect class="cls-1" x="27" y="583.48" width="1136.55" height="58.86"/></clipPath></defs><g class="cls-2"><g class="cls-2"><path d="M93.5,49.4c0-6.87,4.11-11.16,10.49-11.16s10.5,4.29,10.5,11.16-4.1,11.16-10.5,11.16S93.5,56.24,93.5,49.4Zm15.78,0c0-4.5-2-7.2-5.29-7.2s-5.3,2.7-5.3,7.2,2,7.2,5.3,7.2S109.28,53.9,109.28,49.4Z"/><path d="M125.72,51.89h-3.06v8.16h-5.07V38.75H127c5.4,0,7.79,2.64,7.79,6.54a5.88,5.88,0,0,1-4.17,5.85l4.71,8.91H129.8Zm-3.06-3.48h3.27c2.46,0,3.54-1.2,3.54-3.12s-1.05-3-3.54-3h-3.27Z"/><path d="M136.52,49.43c0-6.69,4-11.19,10.55-11.19,5.59,0,8.61,3,9.27,6.54l-5,.93A4.09,4.09,0,0,0,147,42.05c-3.38,0-5.34,2.82-5.34,7.32s1.83,7.29,5.41,7.29a4.49,4.49,0,0,0,4.7-4.38v-.45h-5.24V48.2h9.86V60.05h-3.6l-.21-3.12c-1.08,2.28-3.45,3.63-6.66,3.63C140.08,60.56,136.52,56.18,136.52,49.43Z"/><path d="M173.15,55.07h-7.87l-1.61,5H158.6l7.73-21.3h5.79l7.74,21.3h-5.1ZM172,51.5,170,45.56a25.62,25.62,0,0,1-.79-3h-.05a23.81,23.81,0,0,1-.78,3l-2,5.94Z"/><path d="M182.47,38.75h5.61l6.84,12.15a22.16,22.16,0,0,1,1.29,2.76h.06c0-.84,0-1.71,0-2.73V38.75h4.65v21.3h-5.4l-7.08-12.27a18.35,18.35,0,0,1-1.26-2.61h-.06c0,.87,0,1.77,0,2.82V60.05h-4.65Z"/><path d="M205.33,60.05V38.75h5.08v21.3Z"/><path d="M212.57,55.61,216.31,53a6.17,6.17,0,0,0,5.79,3.66c2,0,3.66-.75,3.66-2.43s-.93-2.19-3.09-2.64l-2.85-.6c-3.72-.81-5.87-2.82-5.87-6.39,0-3.9,3.17-6.33,8.3-6.33,3.78,0,7,1.38,8.46,4.23l-3.3,2.79A6,6,0,0,0,221.92,42c-2,0-3.3.84-3.3,2.19s.84,2.07,3.09,2.58l3.09.66c3.78.84,5.82,2.64,5.82,6.3,0,4.05-3.12,6.84-8.7,6.84C217.33,60.56,214,58.61,212.57,55.61Z"/><path d="M245.92,55.07h-7.86l-1.62,5h-5.07l7.74-21.3h5.79l7.74,21.3h-5.1Zm-1.17-3.57-1.95-5.94a25.65,25.65,0,0,1-.78-3H242a20.83,20.83,0,0,1-.78,3l-2,5.94Z"/><path d="M267.94,42.77h-6.21V60.05h-5V42.77h-6.18v-4h17.43Z"/><path d="M270.34,60.05V38.75h5.07v21.3Z"/><path d="M278.5,49.4c0-6.87,4.11-11.16,10.5-11.16s10.5,4.29,10.5,11.16S295.39,60.56,289,60.56,278.5,56.24,278.5,49.4Zm15.78,0c0-4.5-1.95-7.2-5.28-7.2s-5.31,2.7-5.31,7.2,2,7.2,5.31,7.2S294.28,53.9,294.28,49.4Z"/><path d="M302.59,38.75h5.61L315,50.9a22.16,22.16,0,0,1,1.29,2.76h.06c0-.84,0-1.71,0-2.73V38.75H321v21.3h-5.4l-7.08-12.27a18.35,18.35,0,0,1-1.26-2.61h-.06c0,.87,0,1.77,0,2.82V60.05h-4.65Z"/><path d="M332.86,38.75h8.49c6.39,0,10.53,4.26,10.53,10.53s-4.14,10.77-10.59,10.77h-8.43Zm8.22,17.58c3.6,0,5.58-3.24,5.58-7s-1.86-6.81-5.52-6.81h-3.21V56.33Z"/><path d="M369.76,56.3v3.75H355V38.75h14.58V42.5H360v4.8h9V51h-9V56.3Z"/><path d="M380.86,38.75h5.07V55.94h8.64v4.11H380.86Z"/><path d="M410.62,55.07h-7.86l-1.62,5h-5.07l7.74-21.3h5.79l7.74,21.3h-5.1Zm-1.17-3.57-1.95-5.94a25.65,25.65,0,0,1-.78-3h-.06a20.83,20.83,0,0,1-.78,3l-1.95,5.94Z"/><path d="M427.36,38.75h8.49c6.39,0,10.53,4.26,10.53,10.53s-4.14,10.77-10.59,10.77h-8.43Zm8.22,17.58c3.6,0,5.58-3.24,5.58-7s-1.86-6.81-5.52-6.81h-3.21V56.33Z"/><path d="M449.47,60.05V38.75h5.07v21.3Z"/><path d="M456.7,55.61,460.45,53a6.17,6.17,0,0,0,5.79,3.66c2,0,3.66-.75,3.66-2.43S469,52,466.81,51.56L464,51c-3.72-.81-5.88-2.82-5.88-6.39,0-3.9,3.18-6.33,8.31-6.33,3.78,0,7,1.38,8.46,4.23l-3.3,2.79A6,6,0,0,0,466.06,42c-2,0-3.3.84-3.3,2.19s.84,2.07,3.09,2.58l3.09.66c3.78.84,5.82,2.64,5.82,6.3,0,4.05-3.12,6.84-8.7,6.84C461.47,60.56,458.17,58.61,456.7,55.61Z"/><path d="M476.41,49.43c0-6.72,4-11.19,10.44-11.19,5.43,0,8.85,3,9.42,7.65l-5.13.9c-.3-2.82-1.86-4.47-4.41-4.47-3.24,0-5.13,2.73-5.13,7.08s1.92,7.05,5.28,7.05c2.37,0,4-1.62,4.38-4.38l5.13,1.11c-1,4.5-4.32,7.38-9.6,7.38C480,60.56,476.41,56.15,476.41,49.43Z"/><path d="M504,38.75V52.4a4,4,0,1,0,7.92,0V38.75H517V52.61c0,4.86-3.36,8-9,8s-9-3.09-9-8V38.75Z"/><path d="M518.65,55.61,522.4,53a6.17,6.17,0,0,0,5.79,3.66c2,0,3.66-.75,3.66-2.43s-.93-2.19-3.09-2.64l-2.85-.6c-3.72-.81-5.88-2.82-5.88-6.39,0-3.9,3.18-6.33,8.31-6.33,3.78,0,7,1.38,8.46,4.23l-3.3,2.79A6,6,0,0,0,528,42c-2,0-3.3.84-3.3,2.19s.84,2.07,3.09,2.58l3.09.66c3.78.84,5.82,2.64,5.82,6.3,0,4.05-3.12,6.84-8.7,6.84C523.42,60.56,520.12,58.61,518.65,55.61Z"/><path d="M537.73,55.61,541.48,53a6.17,6.17,0,0,0,5.79,3.66c2,0,3.66-.75,3.66-2.43S550,52,547.84,51.56L545,51c-3.72-.81-5.88-2.82-5.88-6.39,0-3.9,3.18-6.33,8.31-6.33,3.78,0,7,1.38,8.46,4.23l-3.3,2.79A6,6,0,0,0,547.09,42c-2,0-3.3.84-3.3,2.19s.84,2.07,3.09,2.58l3.09.66c3.78.84,5.82,2.64,5.82,6.3,0,4.05-3.12,6.84-8.7,6.84C542.5,60.56,539.2,58.61,537.73,55.61Z"/><path d="M558.79,60.05V38.75h5.07v21.3Z"/><path d="M567,49.4c0-6.87,4.11-11.16,10.5-11.16S588,42.53,588,49.4s-4.11,11.16-10.5,11.16S567,56.24,567,49.4Zm15.78,0c0-4.5-2-7.2-5.28-7.2s-5.31,2.7-5.31,7.2,2,7.2,5.31,7.2S582.73,53.9,582.73,49.4Z"/><path d="M591,38.75h5.61l6.84,12.15a22.16,22.16,0,0,1,1.29,2.76h.06c0-.84,0-1.71,0-2.73V38.75h4.65v21.3h-5.4L597,47.78a18.35,18.35,0,0,1-1.26-2.61h-.06c0,.87,0,1.77,0,2.82V60.05H591Z"/><g class="cls-3"><g class="cls-4"><g class="cls-5"><rect class="cls-6" x="36" y="192.92" width="1118.55" height="50.86"/></g></g><g class="cls-4"><g class="cls-7"><rect class="cls-6" x="36" y="264.5" width="1118.55" height="50.86"/></g></g><g class="cls-4"><g class="cls-8"><rect class="cls-6" x="36" y="336.07" width="1118.55" height="50.86"/></g></g><g class="cls-4"><g class="cls-9"><rect class="cls-6" x="36" y="590.48" width="1118.55" height="50.86"/></g></g></g><path d="M41.82,211a4.59,4.59,0,0,1-3.66,1.65h-1v-2h.57a4.34,4.34,0,0,0,4.38-3.54H44V228H41.82Z"/><path d="M52.77,228H50v-3.36h2.82Z"/><path d="M118.35,218.91h-4.89V228h-2.31V206.7h7.62c5.49,0,6.93,3.06,6.93,6.09a5.65,5.65,0,0,1-4.89,5.82l5.55,9.39h-2.64Zm-4.89-2h5.1c3.45,0,4.68-1.83,4.68-4.14s-1.2-4.11-4.68-4.11h-5.1Z"/><path d="M141.69,221H130.8c0,3.39,1.89,5.46,4.8,5.46a4.21,4.21,0,0,0,4.23-3.21l1.77.72a6.07,6.07,0,0,1-6.15,4.35c-4.26,0-6.75-2.73-6.75-7.77s2.52-8,6.66-8,6.33,2.4,6.33,7Zm-2.13-2c0-3.09-1.56-4.74-4.23-4.74s-4.47,1.92-4.53,5h8.76Z"/><path d="M144.72,223.71l2.13-.36c.36,2.13,1.89,3.27,4.26,3.27,2.19,0,3.42-1.05,3.42-2.55s-.84-2.1-2.43-2.4l-2.91-.57c-2.49-.48-3.9-1.83-3.9-4.11,0-2.52,2.13-4.35,5.52-4.35s5.49,1.47,5.79,4.14l-2.1.45c-.3-1.83-1.59-2.88-3.78-2.88s-3.39,1-3.39,2.55c0,1.41.93,2.1,2.49,2.4l2.94.57c2.67.54,3.84,1.83,3.84,4,0,2.67-2,4.47-5.55,4.47S145.2,226.71,144.72,223.71Z"/><path d="M158.73,213h2.76v-4l2.1-.9V213h3.87v1.74h-3.87v9c0,1.77.78,2.55,2.34,2.55a6.12,6.12,0,0,0,1.53-.18V228a7.07,7.07,0,0,1-2.07.27c-2.91,0-3.9-1.77-3.9-4.44v-9.09h-2.76Z"/><path d="M171.27,207h2.37v3.3h-2.37Zm.15,6h2.07v15h-2.07Z"/><path d="M177,213h2.76v-4l2.1-.9V213h3.87v1.74h-3.87v9c0,1.77.78,2.55,2.34,2.55a6.12,6.12,0,0,0,1.53-.18V228a7.07,7.07,0,0,1-2.07.27c-2.91,0-3.9-1.77-3.9-4.44v-9.09H177Z"/><path d="M189.21,222.51V213h2.07v9.3c0,2.94,1.38,4.26,3.42,4.26,2.73,0,4.38-2.34,4.38-5.37V213h2.1v15h-2v-3.09a5.14,5.14,0,0,1-4.86,3.45C190.59,228.36,189.21,226.08,189.21,222.51Z"/><path d="M204.66,213h2.76v-4l2.1-.9V213h3.87v1.74h-3.87v9c0,1.77.78,2.55,2.34,2.55a6.12,6.12,0,0,0,1.53-.18V228a7.07,7.07,0,0,1-2.07.27c-2.91,0-3.9-1.77-3.9-4.44v-9.09h-2.76Z"/><path d="M217.2,207h2.37v3.3H217.2Zm.15,6h2.07v15h-2.07Z"/><path d="M223.71,220.5c0-4.89,2.73-7.86,6.9-7.86s6.87,3,6.87,7.86-2.73,7.86-6.87,7.86S223.71,225.39,223.71,220.5Zm11.55,0c0-3.9-1.77-6-4.65-6s-4.68,2.13-4.68,6,1.77,6,4.68,6S235.26,224.4,235.26,220.5Z"/><path d="M241.77,213h2v3.3a5.11,5.11,0,0,1,5.13-3.66c3.36,0,5.1,2.07,5.1,6.09V228h-2.1v-9.15c0-2.91-1.26-4.41-3.63-4.41-2.7,0-4.41,2.16-4.41,5.67V228h-2.07Z"/><path d="M265.74,220.5c0-4.62,2.61-7.86,6.42-7.86a4.78,4.78,0,0,1,4.71,3.09v-9.48H279V228h-2v-3.18a5.23,5.23,0,0,1-5.07,3.54C268.2,228.36,265.74,225.18,265.74,220.5Zm11.16.33v-.63c0-3.42-1.65-5.7-4.44-5.7s-4.5,2.25-4.5,6,1.68,6,4.47,6S276.9,224.16,276.9,220.83Z"/><path d="M296.37,221H285.48c0,3.39,1.89,5.46,4.8,5.46a4.21,4.21,0,0,0,4.23-3.21l1.77.72a6.07,6.07,0,0,1-6.15,4.35c-4.26,0-6.75-2.73-6.75-7.77s2.52-8,6.66-8,6.33,2.4,6.33,7Zm-2.13-2c0-3.09-1.56-4.74-4.23-4.74s-4.47,1.92-4.53,5h8.76Z"/><path d="M311,228h-2.07V206.25H311Z"/><path d="M315.48,224a3.79,3.79,0,0,1,1.83-3.36,12.9,12.9,0,0,1,4.92-1.35l3.33-.39v-.24c0-3.09-1.08-4.32-3.63-4.32-2.25,0-3.63,1.17-3.75,3.3h-2.25c.18-3.09,2.52-5,6-5,4,0,5.76,1.86,5.76,6.21v3.9a21.14,21.14,0,0,0,.48,5.25H326a20.58,20.58,0,0,1-.27-3,5.14,5.14,0,0,1-5.22,3.36C317.46,228.36,315.48,226.62,315.48,224Zm10.11-2.58v-1l-4.26.6c-2.55.36-3.66,1.23-3.66,2.88s1.26,2.64,3.27,2.64C323.73,226.62,325.59,224.52,325.59,221.46Z"/><path d="M339.51,223.71l2.13-.36c.36,2.13,1.89,3.27,4.26,3.27,2.19,0,3.42-1.05,3.42-2.55s-.84-2.1-2.43-2.4L344,221.1c-2.49-.48-3.9-1.83-3.9-4.11,0-2.52,2.13-4.35,5.52-4.35s5.49,1.47,5.79,4.14l-2.1.45c-.3-1.83-1.59-2.88-3.78-2.88s-3.39,1-3.39,2.55c0,1.41.93,2.1,2.49,2.4l2.94.57c2.67.54,3.84,1.83,3.84,4,0,2.67-2,4.47-5.55,4.47S340,226.71,339.51,223.71Z"/><path d="M367.44,221H356.55c0,3.39,1.89,5.46,4.8,5.46a4.21,4.21,0,0,0,4.23-3.21l1.77.72a6.07,6.07,0,0,1-6.15,4.35c-4.26,0-6.75-2.73-6.75-7.77s2.52-8,6.66-8,6.33,2.4,6.33,7Zm-2.13-2c0-3.09-1.56-4.74-4.23-4.74s-4.47,1.92-4.53,5h8.76ZM362,210.6h-2l3-4.29h2.58Z"/><path d="M370.53,224a3.79,3.79,0,0,1,1.83-3.36,12.9,12.9,0,0,1,4.92-1.35l3.33-.39v-.24c0-3.09-1.08-4.32-3.63-4.32-2.25,0-3.63,1.17-3.75,3.3H371c.18-3.09,2.52-5,6-5,4,0,5.76,1.86,5.76,6.21v3.9a21.14,21.14,0,0,0,.48,5.25H381a20.58,20.58,0,0,1-.27-3,5.14,5.14,0,0,1-5.22,3.36C372.51,228.36,370.53,226.62,370.53,224Zm10.11-2.58v-1l-4.26.6c-2.55.36-3.66,1.23-3.66,2.88s1.26,2.64,3.27,2.64C378.78,226.62,380.64,224.52,380.64,221.46Z"/><path d="M388,213h2v3.3a5.11,5.11,0,0,1,5.13-3.66c3.36,0,5.1,2.07,5.1,6.09V228h-2.1v-9.15c0-2.91-1.27-4.41-3.63-4.41-2.7,0-4.41,2.16-4.41,5.67V228H388Z"/><path d="M404,220.5c0-4.89,2.61-7.86,6.81-7.86a5.68,5.68,0,0,1,6.06,5.43l-2.13.24c-.3-2.49-1.75-3.84-4-3.84-2.78,0-4.49,2.25-4.49,6s1.71,6.06,4.59,6.06c2.25,0,3.65-1.35,4-3.84l2,.3c-.55,3.39-2.76,5.37-6.06,5.37C406.68,228.36,404,225.33,404,220.5Z"/><path d="M432.81,221H421.92c0,3.39,1.89,5.46,4.8,5.46a4.21,4.21,0,0,0,4.23-3.21l1.77.72a6.08,6.08,0,0,1-6.15,4.35c-4.26,0-6.75-2.73-6.75-7.77s2.52-8,6.66-8,6.33,2.4,6.33,7Zm-2.13-2c0-3.09-1.57-4.74-4.23-4.74s-4.47,1.92-4.53,5h8.76Z"/><path d="M443.79,220.5c0-4.62,2.61-7.86,6.41-7.86a4.77,4.77,0,0,1,4.71,3.09v-9.48H457V228h-2v-3.18a5.23,5.23,0,0,1-5.06,3.54C446.24,228.36,443.79,225.18,443.79,220.5Zm11.16.33v-.63c0-3.42-1.66-5.7-4.45-5.7s-4.49,2.25-4.49,6,1.68,6,4.47,6S455,224.16,455,220.83Z"/><path d="M474.41,221H463.53c0,3.39,1.88,5.46,4.79,5.46a4.21,4.21,0,0,0,4.23-3.21l1.77.72a6.07,6.07,0,0,1-6.15,4.35c-4.26,0-6.75-2.73-6.75-7.77s2.53-8,6.66-8,6.33,2.4,6.33,7Zm-2.13-2c0-3.09-1.56-4.74-4.23-4.74s-4.47,1.92-4.52,5h8.75Z"/><path d="M485.4,220.5c0-4.89,2.6-7.86,6.8-7.86a5.67,5.67,0,0,1,6.06,5.43l-2.13.24c-.3-2.49-1.74-3.84-4-3.84-2.79,0-4.5,2.25-4.5,6s1.71,6.06,4.59,6.06c2.25,0,3.66-1.35,4.05-3.84l2,.3c-.54,3.39-2.76,5.37-6.06,5.37C488,228.36,485.4,225.33,485.4,220.5Z"/><path d="M501.17,220.5c0-4.89,2.74-7.86,6.9-7.86s6.87,3,6.87,7.86-2.73,7.86-6.87,7.86S501.17,225.39,501.17,220.5Zm11.55,0c0-3.9-1.77-6-4.65-6s-4.67,2.13-4.67,6,1.76,6,4.67,6S512.72,224.4,512.72,220.5Z"/><path d="M519.23,213h2v3.3a5.11,5.11,0,0,1,5.13-3.66c3.36,0,5.1,2.07,5.1,6.09V228h-2.1v-9.15c0-2.91-1.26-4.41-3.63-4.41-2.7,0-4.41,2.16-4.41,5.67V228h-2.07Z"/><path d="M535.25,220.5c0-4.89,2.61-7.86,6.81-7.86a5.67,5.67,0,0,1,6.06,5.43l-2.13.24c-.3-2.49-1.74-3.84-4-3.84-2.79,0-4.5,2.25-4.5,6s1.71,6.06,4.59,6.06c2.25,0,3.66-1.35,4.05-3.84l2,.3c-.54,3.39-2.76,5.37-6.06,5.37C537.89,228.36,535.25,225.33,535.25,220.5Z"/><path d="M564,221H553.13c0,3.39,1.89,5.46,4.8,5.46a4.21,4.21,0,0,0,4.23-3.21l1.77.72a6.07,6.07,0,0,1-6.15,4.35c-4.26,0-6.75-2.73-6.75-7.77s2.52-8,6.66-8,6.33,2.4,6.33,7Zm-2.13-2c0-3.09-1.56-4.74-4.23-4.74s-4.47,1.92-4.53,5h8.76Z"/><path d="M575.06,212.64a3.63,3.63,0,0,1,.57,0v2h-.24a4.39,4.39,0,0,0-3.21,1.14c-1.38,1.38-1.65,3.39-1.65,5.28V228h-2.07V213h1.95v3.66C571.1,214.35,572.75,212.64,575.06,212.64Z"/><path d="M577.46,213h2.76v-4l2.1-.9V213h3.87v1.74h-3.87v9c0,1.77.78,2.55,2.34,2.55a6.12,6.12,0,0,0,1.53-.18V228a7.07,7.07,0,0,1-2.07.27c-2.91,0-3.9-1.77-3.9-4.44v-9.09h-2.76Z"/><path d="M588.68,224a3.79,3.79,0,0,1,1.83-3.36,12.9,12.9,0,0,1,4.92-1.35l3.33-.39v-.24c0-3.09-1.08-4.32-3.63-4.32-2.25,0-3.63,1.17-3.75,3.3h-2.25c.18-3.09,2.52-5,6-5,4,0,5.76,1.86,5.76,6.21v3.9a21.14,21.14,0,0,0,.48,5.25h-2.19a20.58,20.58,0,0,1-.27-3,5.14,5.14,0,0,1-5.22,3.36C590.66,228.36,588.68,226.62,588.68,224Zm10.11-2.58v-1l-4.26.6c-2.55.36-3.66,1.23-3.66,2.88s1.26,2.64,3.27,2.64C596.93,226.62,598.79,224.52,598.79,221.46Z"/><path d="M603.89,213h2.76v-4l2.1-.9V213h3.87v1.74h-3.87v9c0,1.77.78,2.55,2.34,2.55a6.12,6.12,0,0,0,1.53-.18V228a7.07,7.07,0,0,1-2.07.27c-2.91,0-3.9-1.77-3.9-4.44v-9.09h-2.76Z"/><path d="M616.43,207h2.37v3.3h-2.37Zm.15,6h2.07v15h-2.07Z"/><path d="M622.94,220.5c0-4.89,2.73-7.86,6.9-7.86s6.87,3,6.87,7.86-2.73,7.86-6.87,7.86S622.94,225.39,622.94,220.5Zm11.55,0c0-3.9-1.77-6-4.65-6s-4.68,2.13-4.68,6,1.77,6,4.68,6S634.49,224.4,634.49,220.5Z"/><path d="M641,213h2v3.3a5.11,5.11,0,0,1,5.13-3.66c3.36,0,5.1,2.07,5.1,6.09V228h-2.1v-9.15c0-2.91-1.26-4.41-3.63-4.41-2.7,0-4.41,2.16-4.41,5.67V228H641Z"/><path d="M666.68,228V206.7H669V228Z"/><path d="M681.53,220.5c0-4.62,2.61-7.86,6.42-7.86a4.78,4.78,0,0,1,4.71,3.09v-9.48h2.1V228h-2v-3.18a5.23,5.23,0,0,1-5.07,3.54C684,228.36,681.53,225.18,681.53,220.5Zm11.16.33v-.63c0-3.42-1.65-5.7-4.44-5.7s-4.5,2.25-4.5,6,1.68,6,4.47,6S692.69,224.16,692.69,220.83Z"/><path d="M700.13,222.51V213h2.07v9.3c0,2.94,1.38,4.26,3.42,4.26,2.73,0,4.38-2.34,4.38-5.37V213h2.1v15h-2v-3.09a5.14,5.14,0,0,1-4.86,3.45C701.51,228.36,700.13,226.08,700.13,222.51Z"/><path d="M728.72,211a4.59,4.59,0,0,1-3.66,1.65h-1v-2h.57a4.34,4.34,0,0,0,4.38-3.54h1.86V228h-2.19Z"/><path d="M736.28,217.56c0-6.66,2.76-10.86,7.92-10.86s7.89,4.2,7.89,10.89-2.73,10.86-7.89,10.86S736.28,224.25,736.28,217.56Zm13.62,0c0-5.55-1.92-9-5.7-9s-5.7,3.45-5.7,9,1.92,9,5.7,9S749.9,223.14,749.9,217.59Z"/><path d="M763.1,220.5c0-4.89,2.73-7.86,6.9-7.86s6.87,3,6.87,7.86-2.73,7.86-6.87,7.86S763.1,225.39,763.1,220.5Zm11.55,0c0-3.9-1.77-6-4.65-6s-4.68,2.13-4.68,6,1.77,6,4.68,6S774.65,224.4,774.65,220.5Z"/><path d="M779.75,220.5c0-4.89,2.61-7.86,6.81-7.86a5.67,5.67,0,0,1,6.06,5.43l-2.13.24c-.3-2.49-1.74-3.84-4-3.84-2.79,0-4.5,2.25-4.5,6s1.71,6.06,4.59,6.06c2.25,0,3.66-1.35,4.05-3.84l2,.3c-.54,3.39-2.76,5.37-6.06,5.37C782.39,228.36,779.75,225.33,779.75,220.5Z"/><path d="M794.69,213h2.76v-4l2.1-.9V213h3.87v1.74h-3.87v9c0,1.77.78,2.55,2.34,2.55a6.12,6.12,0,0,0,1.53-.18V228a7.07,7.07,0,0,1-2.07.27c-2.91,0-3.9-1.77-3.9-4.44v-9.09h-2.76Z"/><path d="M805.79,220.5c0-4.89,2.73-7.86,6.9-7.86s6.87,3,6.87,7.86-2.73,7.86-6.87,7.86S805.79,225.39,805.79,220.5Zm11.55,0c0-3.9-1.77-6-4.65-6s-4.68,2.13-4.68,6,1.77,6,4.68,6S817.34,224.4,817.34,220.5Z"/><path d="M826,225l-.39,3H824V206.25h2.07v9.81a5.2,5.2,0,0,1,5-3.42c3.69,0,6.09,3.21,6.09,7.86s-2.46,7.86-6.24,7.86A5.2,5.2,0,0,1,826,225Zm9-4.5c0-3.63-1.62-6-4.5-6s-4.44,2.25-4.44,5.7v.72c0,3.33,1.68,5.58,4.38,5.58C833.27,226.5,835,224.16,835,220.5Z"/><path d="M848.09,212.64a3.63,3.63,0,0,1,.57,0v2h-.24a4.39,4.39,0,0,0-3.21,1.14c-1.38,1.38-1.65,3.39-1.65,5.28V228h-2.07V213h2v3.66C844.13,214.35,845.78,212.64,848.09,212.64Z"/><path d="M863.54,221H852.65c0,3.39,1.89,5.46,4.8,5.46a4.21,4.21,0,0,0,4.23-3.21l1.77.72a6.07,6.07,0,0,1-6.15,4.35c-4.26,0-6.75-2.73-6.75-7.77s2.52-8,6.66-8,6.33,2.4,6.33,7Zm-2.13-2c0-3.09-1.56-4.74-4.23-4.74s-4.47,1.92-4.53,5h8.76Z"/><path d="M874.22,226.17a71,71,0,0,0,7.5-6.36c2.52-2.52,3.48-4.41,3.48-6.87,0-2.73-1.53-4.32-4.17-4.32s-4.32,1.59-4.32,4.08a10.11,10.11,0,0,0,.24,1.92l-2.22-.21a6.9,6.9,0,0,1-.21-1.74c0-3.66,2.49-6,6.63-6s6.36,2.25,6.36,6.21c0,2.85-1.38,5.34-4.38,8.22a44.1,44.1,0,0,1-5.94,4.89h10.65v2H874.22Z"/><path d="M890.6,217.56c0-6.66,2.76-10.86,7.92-10.86s7.89,4.2,7.89,10.89-2.73,10.86-7.89,10.86S890.6,224.25,890.6,217.56Zm13.62,0c0-5.55-1.92-9-5.7-9s-5.7,3.45-5.7,9,1.92,9,5.7,9S904.22,223.14,904.22,217.59Z"/><path d="M909.17,226.17a71,71,0,0,0,7.5-6.36c2.52-2.52,3.48-4.41,3.48-6.87,0-2.73-1.53-4.32-4.17-4.32s-4.32,1.59-4.32,4.08a10.11,10.11,0,0,0,.24,1.92l-2.22-.21a6.9,6.9,0,0,1-.21-1.74c0-3.66,2.49-6,6.63-6s6.36,2.25,6.36,6.21c0,2.85-1.38,5.34-4.38,8.22a44.1,44.1,0,0,1-5.94,4.89h10.65v2H909.17Z"/><path d="M925.55,217.56c0-6.66,2.76-10.86,7.92-10.86s7.89,4.2,7.89,10.89-2.73,10.86-7.89,10.86S925.55,224.25,925.55,217.56Zm13.62,0c0-5.55-1.92-9-5.7-9s-5.7,3.45-5.7,9,1.92,9,5.7,9S939.17,223.14,939.17,217.59Z"/><path d="M37.14,298.17a71,71,0,0,0,7.5-6.36c2.52-2.52,3.48-4.41,3.48-6.87,0-2.73-1.53-4.32-4.17-4.32s-4.32,1.59-4.32,4.08a10.11,10.11,0,0,0,.24,1.92l-2.22-.21a6.9,6.9,0,0,1-.21-1.74c0-3.66,2.49-6,6.63-6s6.36,2.25,6.36,6.21c0,2.85-1.38,5.34-4.38,8.22A44.1,44.1,0,0,1,40.11,298H50.76v2H37.14Z"/><path d="M57.24,300H54.42v-3.36h2.82Z"/><path d="M111.15,300V278.7h2.31V300Z"/><path d="M118.05,292.5c0-4.62,2.61-7.86,6.42-7.86a4.78,4.78,0,0,1,4.71,3.09v-9.48h2.1V300h-2v-3.18a5.23,5.23,0,0,1-5.07,3.54C120.51,300.36,118.05,297.18,118.05,292.5Zm11.16.33v-.63c0-3.42-1.65-5.7-4.44-5.7s-4.5,2.25-4.5,6,1.68,6,4.47,6S129.21,296.16,129.21,292.83Z"/><path d="M148.68,293H137.79c0,3.39,1.89,5.46,4.8,5.46a4.21,4.21,0,0,0,4.23-3.21l1.77.72a6.07,6.07,0,0,1-6.15,4.35c-4.26,0-6.75-2.73-6.75-7.77s2.52-7.95,6.66-7.95,6.33,2.4,6.33,7Zm-2.13-2c0-3.09-1.56-4.74-4.23-4.74s-4.47,1.92-4.53,5h8.76Z"/><path d="M153.12,285h2v3.3a5.11,5.11,0,0,1,5.13-3.66c3.36,0,5.1,2.07,5.1,6.09V300h-2.1v-9.15c0-2.91-1.26-4.41-3.63-4.41-2.7,0-4.41,2.16-4.41,5.67V300h-2.07Z"/><path d="M168,285h2.76v-4l2.1-.9V285h3.87v1.74h-3.87v9c0,1.77.78,2.55,2.34,2.55a6.12,6.12,0,0,0,1.53-.18V300a7.07,7.07,0,0,1-2.07.27c-2.91,0-3.9-1.77-3.9-4.44v-9.09H168Z"/><path d="M180.57,279h2.37v3.3h-2.37Zm.15,6h2.07v15h-2.07Z"/><path d="M195.12,286.74h-3.9V300h-2.07V286.74h-2.82V285h2.82v-2.49c0-2.7,1.59-4.44,4.2-4.44a6.37,6.37,0,0,1,1.77.21v1.8a8.76,8.76,0,0,0-1.5-.15c-1.68,0-2.4.9-2.4,2.85V285h3.9Zm3.45-7.74h2.37v3.3h-2.37Zm.15,6h2.07v15h-2.07Z"/><path d="M205.08,292.5c0-4.89,2.61-7.86,6.81-7.86a5.67,5.67,0,0,1,6.06,5.43l-2.13.24c-.3-2.49-1.74-3.84-4-3.84-2.79,0-4.5,2.25-4.5,6s1.71,6.06,4.59,6.06c2.25,0,3.66-1.35,4.05-3.84l2,.3c-.54,3.39-2.76,5.37-6.06,5.37C207.72,300.36,205.08,297.33,205.08,292.5Z"/><path d="M220.92,296a3.79,3.79,0,0,1,1.83-3.36,12.9,12.9,0,0,1,4.92-1.35l3.33-.39v-.24c0-3.09-1.08-4.32-3.63-4.32-2.25,0-3.63,1.17-3.75,3.3h-2.25c.18-3.09,2.52-5,6-5,4,0,5.76,1.86,5.76,6.21v3.9a21.14,21.14,0,0,0,.48,5.25h-2.19a20.58,20.58,0,0,1-.27-3,5.14,5.14,0,0,1-5.22,3.36C222.9,300.36,220.92,298.62,220.92,296ZM231,293.46v-1l-4.26.6c-2.55.36-3.66,1.23-3.66,2.88s1.26,2.64,3.27,2.64C229.17,298.62,231,296.52,231,293.46Z"/><path d="M236.13,285h2.76v-4l2.1-.9V285h3.87v1.74H241v9c0,1.77.78,2.55,2.34,2.55a6.12,6.12,0,0,0,1.53-.18V300a7.07,7.07,0,0,1-2.07.27c-2.91,0-3.9-1.77-3.9-4.44v-9.09h-2.76Z"/><path d="M248.67,279H251v3.3h-2.37Zm.15,6h2.07v15h-2.07Z"/><path d="M255.18,292.5c0-4.89,2.73-7.86,6.9-7.86s6.87,3,6.87,7.86-2.73,7.86-6.87,7.86S255.18,297.39,255.18,292.5Zm11.55,0c0-3.9-1.77-6-4.65-6s-4.68,2.13-4.68,6,1.77,6,4.68,6S266.73,296.4,266.73,292.5Z"/><path d="M273.24,285h2v3.3a5.11,5.11,0,0,1,5.13-3.66c3.36,0,5.1,2.07,5.1,6.09V300h-2.1v-9.15c0-2.91-1.26-4.41-3.63-4.41-2.7,0-4.41,2.16-4.41,5.67V300h-2.07Z"/><path d="M297.21,292.5c0-4.62,2.61-7.86,6.42-7.86a4.78,4.78,0,0,1,4.71,3.09v-9.48h2.1V300h-2v-3.18a5.23,5.23,0,0,1-5.07,3.54C299.67,300.36,297.21,297.18,297.21,292.5Zm11.16.33v-.63c0-3.42-1.65-5.7-4.44-5.7s-4.5,2.25-4.5,6,1.68,6,4.47,6S308.37,296.16,308.37,292.83Z"/><path d="M327.84,293H317c0,3.39,1.89,5.46,4.8,5.46a4.21,4.21,0,0,0,4.23-3.21l1.77.72a6.07,6.07,0,0,1-6.15,4.35c-4.26,0-6.75-2.73-6.75-7.77s2.52-7.95,6.66-7.95,6.33,2.4,6.33,7Zm-2.13-2c0-3.09-1.56-4.74-4.23-4.74s-4.47,1.92-4.53,5h8.76Z"/><path d="M330.87,295.71l2.13-.36c.36,2.13,1.89,3.27,4.26,3.27,2.19,0,3.42-1.05,3.42-2.55s-.84-2.1-2.43-2.4l-2.91-.57c-2.49-.48-3.9-1.83-3.9-4.11,0-2.52,2.13-4.35,5.52-4.35s5.49,1.47,5.79,4.14l-2.1.45c-.3-1.83-1.59-2.88-3.78-2.88s-3.39,1-3.39,2.55c0,1.41.93,2.1,2.49,2.4l2.94.57c2.67.54,3.84,1.83,3.84,4,0,2.67-2,4.47-5.55,4.47S331.35,298.71,330.87,295.71Z"/><path d="M353,285h2.76v-4l2.1-.9V285h3.87v1.74h-3.87v9c0,1.77.78,2.55,2.34,2.55a6.12,6.12,0,0,0,1.53-.18V300a7.07,7.07,0,0,1-2.07.27c-2.91,0-3.9-1.77-3.9-4.44v-9.09H353Z"/><path d="M365.79,278.25h2.07v9.93a5.14,5.14,0,0,1,5.13-3.54c3.27,0,5,2.07,5,6.06V300H375.9v-9.18c0-2.88-1.23-4.38-3.6-4.38-2.73,0-4.44,2.16-4.44,5.67V300h-2.07Z"/><path d="M394.8,293H383.91c0,3.39,1.89,5.46,4.8,5.46a4.21,4.21,0,0,0,4.23-3.21l1.77.72a6.07,6.07,0,0,1-6.15,4.35c-4.26,0-6.75-2.73-6.75-7.77s2.52-7.95,6.66-7.95,6.33,2.4,6.33,7Zm-7.53-10.44-3.57-4.29h2.58l3,4.29Zm5.4,8.46c0-3.09-1.56-4.74-4.23-4.74s-4.47,1.92-4.53,5h8.76Z"/><path d="M401.19,285v2.91a4.47,4.47,0,0,1,4.44-3.27,4.23,4.23,0,0,1,4.32,3.21,4.76,4.76,0,0,1,4.62-3.21c2.94,0,4.62,2,4.62,5.55V300h-2.1v-9.63c0-2.55-1.08-3.93-3.15-3.93-2.28,0-3.69,1.68-3.69,4.44V300h-2.07v-9.75c0-2.43-1.14-3.81-3.12-3.81-2.28,0-3.75,1.86-3.75,4.8V300h-2.07V285Z"/><path d="M436,293H425.13c0,3.39,1.89,5.46,4.8,5.46a4.21,4.21,0,0,0,4.23-3.21l1.77.72a6.08,6.08,0,0,1-6.15,4.35c-4.26,0-6.75-2.73-6.75-7.77s2.52-7.95,6.66-7.95,6.33,2.4,6.33,7Zm-2.13-2c0-3.09-1.57-4.74-4.23-4.74s-4.47,1.92-4.53,5h8.76Z"/><path d="M439.05,295.71l2.13-.36c.36,2.13,1.89,3.27,4.26,3.27,2.19,0,3.42-1.05,3.42-2.55s-.84-2.1-2.43-2.4l-2.91-.57c-2.49-.48-3.9-1.83-3.9-4.11,0-2.52,2.13-4.35,5.52-4.35s5.49,1.47,5.79,4.14l-2.1.45c-.3-1.83-1.59-2.88-3.78-2.88s-3.39,1-3.39,2.55c0,1.41.93,2.1,2.49,2.4l2.94.57c2.67.54,3.84,1.83,3.84,4,0,2.67-2,4.47-5.55,4.47S439.53,298.71,439.05,295.71Z"/><path d="M474.93,293H464c0,3.39,1.89,5.46,4.8,5.46a4.21,4.21,0,0,0,4.23-3.21l1.77.72a6.07,6.07,0,0,1-6.15,4.35c-4.26,0-6.75-2.73-6.75-7.77s2.52-7.95,6.66-7.95,6.33,2.4,6.33,7Zm-2.13-2c0-3.09-1.56-4.74-4.23-4.74s-4.47,1.92-4.53,5h8.76Z"/><path d="M477.11,285h2.76v-4l2.11-.9V285h3.86v1.74H482v9c0,1.77.77,2.55,2.34,2.55a6.09,6.09,0,0,0,1.52-.18V300a7,7,0,0,1-2.06.27c-2.92,0-3.91-1.77-3.91-4.44v-9.09h-2.76Z"/><path d="M509.33,293H498.45c0,3.39,1.88,5.46,4.79,5.46a4.21,4.21,0,0,0,4.23-3.21l1.77.72a6.07,6.07,0,0,1-6.15,4.35c-4.26,0-6.75-2.73-6.75-7.77s2.52-7.95,6.66-7.95,6.33,2.4,6.33,7Zm-2.13-2c0-3.09-1.56-4.74-4.23-4.74s-4.47,1.92-4.52,5h8.75Z"/><path d="M513.78,285h2v3.3a5.11,5.11,0,0,1,5.13-3.66c3.35,0,5.1,2.07,5.1,6.09V300h-2.1v-9.15c0-2.91-1.27-4.41-3.63-4.41-2.7,0-4.41,2.16-4.41,5.67V300h-2.07Z"/><path d="M527.76,305.88v-1.8c.77.06,1.14.09,1.44.09,1.2,0,1.88-.57,1.88-2.61V285h2.11v16.8c0,2.34-1,4.26-3.7,4.26A8.05,8.05,0,0,1,527.76,305.88ZM530.94,279h2.37v3.3h-2.37Z"/><path d="M550.43,293H539.54c0,3.39,1.89,5.46,4.8,5.46a4.21,4.21,0,0,0,4.23-3.21l1.77.72a6.07,6.07,0,0,1-6.15,4.35c-4.26,0-6.75-2.73-6.75-7.77s2.52-7.95,6.66-7.95,6.33,2.4,6.33,7Zm-2.13-2c0-3.09-1.56-4.74-4.23-4.74s-4.47,1.92-4.53,5h8.76Z"/><path d="M554.42,294.51V285h2.07v9.3c0,2.94,1.38,4.26,3.42,4.26,2.73,0,4.38-2.34,4.38-5.37V285h2.1v15h-2v-3.09a5.14,5.14,0,0,1-4.86,3.45C555.8,300.36,554.42,298.08,554.42,294.51Z"/><path d="M575.3,292.23,570.17,285h2.49l2.91,4.32c.51.78.81,1.29,1,1.68h0a15.43,15.43,0,0,1,1-1.68l2.76-4.32H583l-5,7.38,5.43,7.62h-2.49l-3.33-4.83a13.89,13.89,0,0,1-.93-1.62h0c-.18.33-.48.87-1,1.65l-3.3,4.8h-2.49Z"/><path d="M37.2,366.06l2.16-.24c.12,3,2.07,4.77,5.13,4.77s4.71-1.53,4.71-4.38c0-2.61-1.71-4.14-4.89-4.14H43v-1.83h1.14c2.88,0,4.35-1.47,4.35-3.84s-1.56-3.84-4.26-3.84c-2.91,0-4.59,1.77-4.59,5l-2.1-.42c0-4,2.58-6.42,6.81-6.42,4,0,6.36,2.07,6.36,5.49a4.72,4.72,0,0,1-3.9,4.8c2.91.42,4.62,2.19,4.62,5.16,0,4-2.67,6.3-7,6.3S37.32,370,37.2,366.06Z"/><path d="M57.48,372H54.66v-3.36h2.82Z"/><path d="M125.58,356.79c0,3.81-2.73,6.24-7,6.24h-5.1v9h-2.31V350.7h7.41C122.85,350.7,125.58,353.07,125.58,356.79Zm-2.46,0c0-2.52-1.86-4.11-4.77-4.11h-4.89v8.37h4.89C121.26,361.05,123.12,359.4,123.12,356.79Z"/><path d="M135.69,356.64a3.63,3.63,0,0,1,.57,0v2H136a4.39,4.39,0,0,0-3.21,1.14c-1.38,1.38-1.65,3.39-1.65,5.28V372h-2.07V357H131v3.66C131.73,358.35,133.38,356.64,135.69,356.64Z"/><path d="M151.14,365H140.25c0,3.39,1.89,5.46,4.8,5.46a4.21,4.21,0,0,0,4.23-3.21l1.77.72a6.07,6.07,0,0,1-6.15,4.35c-4.26,0-6.75-2.73-6.75-7.77s2.52-7.95,6.66-7.95,6.33,2.4,6.33,7Zm-2.13-2c0-3.09-1.56-4.74-4.23-4.74s-4.47,1.92-4.53,5H149Zm-3.33-8.46h-2l3-4.29h2.58Z"/><path d="M154.17,367.71l2.13-.36c.36,2.13,1.89,3.27,4.26,3.27,2.19,0,3.42-1.05,3.42-2.55s-.84-2.1-2.43-2.4l-2.91-.57c-2.49-.48-3.9-1.83-3.9-4.11,0-2.52,2.13-4.35,5.52-4.35s5.49,1.47,5.79,4.14l-2.1.45c-.3-1.83-1.59-2.88-3.78-2.88s-3.39,1-3.39,2.55c0,1.41.93,2.1,2.49,2.4l2.94.57c2.67.54,3.84,1.83,3.84,4,0,2.67-2,4.47-5.55,4.47S154.65,370.71,154.17,367.71Z"/><path d="M182.1,365H171.21c0,3.39,1.89,5.46,4.8,5.46a4.21,4.21,0,0,0,4.23-3.21L182,368a6.07,6.07,0,0,1-6.15,4.35c-4.26,0-6.75-2.73-6.75-7.77s2.52-7.95,6.66-7.95,6.33,2.4,6.33,7Zm-2.13-2c0-3.09-1.56-4.74-4.23-4.74s-4.47,1.92-4.53,5H180Z"/><path d="M186.54,357h2v3.3a5.11,5.11,0,0,1,5.13-3.66c3.36,0,5.1,2.07,5.1,6.09V372h-2.1v-9.15c0-2.91-1.26-4.41-3.63-4.41-2.7,0-4.41,2.16-4.41,5.67V372h-2.07Z"/><path d="M201.45,357h2.76v-4l2.1-.9V357h3.87v1.74h-3.87v9c0,1.77.78,2.55,2.34,2.55a6.12,6.12,0,0,0,1.53-.18V372a7.07,7.07,0,0,1-2.07.27c-2.91,0-3.9-1.77-3.9-4.44v-9.09h-2.76Z"/><path d="M212.64,368a3.79,3.79,0,0,1,1.83-3.36,12.9,12.9,0,0,1,4.92-1.35l3.33-.39v-.24c0-3.09-1.08-4.32-3.63-4.32-2.25,0-3.63,1.17-3.75,3.3h-2.25c.18-3.09,2.52-5,6-5,4,0,5.76,1.86,5.76,6.21v3.9a21.14,21.14,0,0,0,.48,5.25h-2.19a20.58,20.58,0,0,1-.27-3,5.14,5.14,0,0,1-5.22,3.36C214.62,372.36,212.64,370.62,212.64,368Zm10.11-2.58v-1l-4.26.6c-2.55.36-3.66,1.23-3.66,2.88s1.26,2.64,3.27,2.64C220.89,370.62,222.75,368.52,222.75,365.46Z"/><path d="M227.88,357h2.76v-4l2.1-.9V357h3.87v1.74h-3.87v9c0,1.77.78,2.55,2.34,2.55a6.12,6.12,0,0,0,1.53-.18V372a7.07,7.07,0,0,1-2.07.27c-2.91,0-3.9-1.77-3.9-4.44v-9.09h-2.76Z"/><path d="M240.42,351h2.37v3.3h-2.37Zm.15,6h2.07v15h-2.07Z"/><path d="M246.93,364.5c0-4.89,2.73-7.86,6.9-7.86s6.87,3,6.87,7.86-2.73,7.86-6.87,7.86S246.93,369.39,246.93,364.5Zm11.55,0c0-3.9-1.77-6-4.65-6s-4.68,2.13-4.68,6,1.77,6,4.68,6S258.48,368.4,258.48,364.5Z"/><path d="M265,357h2v3.3a5.11,5.11,0,0,1,5.13-3.66c3.36,0,5.1,2.07,5.1,6.09V372h-2.1v-9.15c0-2.91-1.26-4.41-3.63-4.41-2.7,0-4.41,2.16-4.41,5.67V372H265Z"/><path d="M302,365H291.06c0,3.39,1.89,5.46,4.8,5.46a4.21,4.21,0,0,0,4.23-3.21l1.77.72a6.07,6.07,0,0,1-6.15,4.35c-4.26,0-6.75-2.73-6.75-7.77s2.52-7.95,6.66-7.95,6.33,2.4,6.33,7Zm-2.13-2c0-3.09-1.56-4.74-4.23-4.74s-4.47,1.92-4.53,5h8.76Z"/><path d="M304.11,357h2.76v-4l2.1-.9V357h3.87v1.74H309v9c0,1.77.78,2.55,2.34,2.55a6.12,6.12,0,0,0,1.53-.18V372a7.07,7.07,0,0,1-2.07.27c-2.91,0-3.9-1.77-3.9-4.44v-9.09h-2.76Z"/><path d="M323.34,364.5c0-4.62,2.61-7.86,6.42-7.86a4.78,4.78,0,0,1,4.71,3.09v-9.48h2.1V372h-2v-3.18a5.23,5.23,0,0,1-5.07,3.54C325.8,372.36,323.34,369.18,323.34,364.5Zm11.16.33v-.63c0-3.42-1.65-5.7-4.44-5.7s-4.5,2.25-4.5,6,1.68,6,4.47,6S334.5,368.16,334.5,364.83Z"/><path d="M342.24,351h2.37v3.3h-2.37Zm.15,6h2.07v15h-2.07Z"/><path d="M348.75,367.71l2.13-.36c.36,2.13,1.89,3.27,4.26,3.27,2.19,0,3.42-1.05,3.42-2.55s-.84-2.1-2.43-2.4l-2.91-.57c-2.49-.48-3.9-1.83-3.9-4.11,0-2.52,2.13-4.35,5.52-4.35s5.49,1.47,5.79,4.14l-2.1.45c-.3-1.83-1.59-2.88-3.78-2.88s-3.39,1-3.39,2.55c0,1.41.93,2.1,2.49,2.4l2.94.57c2.67.54,3.84,1.83,3.84,4,0,2.67-2,4.47-5.55,4.47S349.23,370.71,348.75,367.71Z"/><path d="M363.69,364.5c0-4.89,2.61-7.86,6.81-7.86a5.67,5.67,0,0,1,6.06,5.43l-2.13.24c-.3-2.49-1.74-3.84-4-3.84-2.79,0-4.5,2.25-4.5,6s1.71,6.06,4.59,6.06c2.25,0,3.66-1.35,4.05-3.84l2,.3c-.54,3.39-2.76,5.37-6.06,5.37C366.33,372.36,363.69,369.33,363.69,364.5Z"/><path d="M380.43,366.51V357h2.07v9.3c0,2.94,1.38,4.26,3.42,4.26,2.73,0,4.38-2.34,4.38-5.37V357h2.1v15h-2v-3.09a5.14,5.14,0,0,1-4.86,3.45C381.81,372.36,380.43,370.08,380.43,366.51Z"/><path d="M396.68,367.71l2.14-.36c.35,2.13,1.88,3.27,4.25,3.27,2.19,0,3.42-1.05,3.42-2.55s-.84-2.1-2.43-2.4l-2.9-.57c-2.5-.48-3.91-1.83-3.91-4.11,0-2.52,2.13-4.35,5.52-4.35s5.49,1.47,5.79,4.14l-2.1.45c-.3-1.83-1.59-2.88-3.78-2.88s-3.39,1-3.39,2.55c0,1.41.93,2.1,2.49,2.4l2.94.57c2.67.54,3.84,1.83,3.84,4,0,2.67-2,4.47-5.55,4.47S397.16,370.71,396.68,367.71Z"/><path d="M411.41,367.71l2.14-.36c.36,2.13,1.89,3.27,4.26,3.27,2.18,0,3.42-1.05,3.42-2.55s-.85-2.1-2.44-2.4l-2.9-.57c-2.49-.48-3.9-1.83-3.9-4.11,0-2.52,2.12-4.35,5.51-4.35s5.49,1.47,5.79,4.14l-2.09.45c-.3-1.83-1.59-2.88-3.79-2.88s-3.38,1-3.38,2.55c0,1.41.92,2.1,2.49,2.4l2.93.57c2.67.54,3.84,1.83,3.84,4,0,2.67-2,4.47-5.55,4.47S411.9,370.71,411.41,367.71Z"/><path d="M427.61,351H430v3.3h-2.37Zm.15,6h2.07v15h-2.07Z"/><path d="M434.12,364.5c0-4.89,2.73-7.86,6.9-7.86s6.87,3,6.87,7.86-2.73,7.86-6.87,7.86S434.12,369.39,434.12,364.5Zm11.55,0c0-3.9-1.77-6-4.65-6s-4.68,2.13-4.68,6,1.77,6,4.68,6S445.67,368.4,445.67,364.5Z"/><path d="M452.18,357h2v3.3a5.11,5.11,0,0,1,5.13-3.66c3.36,0,5.1,2.07,5.1,6.09V372h-2.1v-9.15c0-2.91-1.26-4.41-3.63-4.41-2.7,0-4.41,2.16-4.41,5.67V372h-2.07Z"/><path d="M476.21,368a3.79,3.79,0,0,1,1.83-3.36,12.9,12.9,0,0,1,4.92-1.35l3.33-.39v-.24c0-3.09-1.08-4.32-3.63-4.32-2.25,0-3.63,1.17-3.75,3.3h-2.25c.18-3.09,2.52-5,6-5,4,0,5.76,1.86,5.76,6.21v3.9a21.14,21.14,0,0,0,.48,5.25h-2.19a20.58,20.58,0,0,1-.27-3,5.14,5.14,0,0,1-5.22,3.36C478.19,372.36,476.21,370.62,476.21,368Zm10.11-2.58v-1l-4.26.6c-2.55.36-3.66,1.23-3.66,2.88s1.26,2.64,3.27,2.64C484.46,370.62,486.32,368.52,486.32,365.46Z"/><path d="M493.25,366.51V357h2.07v9.3c0,2.94,1.38,4.26,3.42,4.26,2.73,0,4.38-2.34,4.38-5.37V357h2.1v15h-2v-3.09a5.14,5.14,0,0,1-4.86,3.45C494.63,372.36,493.25,370.08,493.25,366.51Z"/><path d="M508.7,357h2.76v-4l2.1-.9V357h3.87v1.74h-3.87v9c0,1.77.78,2.55,2.34,2.55a6.12,6.12,0,0,0,1.53-.18V372a7.07,7.07,0,0,1-2.07.27c-2.91,0-3.9-1.77-3.9-4.44v-9.09H508.7Z"/><path d="M519.77,364.5c0-4.89,2.73-7.86,6.9-7.86s6.87,3,6.87,7.86-2.73,7.86-6.87,7.86S519.77,369.39,519.77,364.5Zm11.55,0c0-3.9-1.77-6-4.65-6s-4.68,2.13-4.68,6,1.77,6,4.68,6S531.32,368.4,531.32,364.5Z"/><path d="M537.38,366.51V357h2.07v9.3c0,2.94,1.38,4.26,3.42,4.26,2.73,0,4.38-2.34,4.38-5.37V357h2.1v15h-2v-3.09a5.14,5.14,0,0,1-4.86,3.45C538.76,372.36,537.38,370.08,537.38,366.51Z"/><path d="M561.65,356.64a3.63,3.63,0,0,1,.57,0v2H562a4.39,4.39,0,0,0-3.21,1.14c-1.38,1.38-1.65,3.39-1.65,5.28V372h-2.07V357h2v3.66C557.69,358.35,559.34,356.64,561.65,356.64Z"/><path d="M572.27,364.5c0-4.62,2.61-7.86,6.42-7.86a4.78,4.78,0,0,1,4.71,3.09v-9.48h2.1V372h-2v-3.18a5.23,5.23,0,0,1-5.07,3.54C574.73,372.36,572.27,369.18,572.27,364.5Zm11.16.33v-.63c0-3.42-1.65-5.7-4.44-5.7s-4.5,2.25-4.5,6,1.68,6,4.47,6S583.43,368.16,583.43,364.83Z"/><path d="M602.9,365H592c0,3.39,1.89,5.46,4.8,5.46a4.21,4.21,0,0,0,4.23-3.21l1.77.72a6.07,6.07,0,0,1-6.15,4.35c-4.26,0-6.75-2.73-6.75-7.77s2.52-7.95,6.66-7.95,6.33,2.4,6.33,7Zm-2.13-2c0-3.09-1.56-4.74-4.23-4.74s-4.47,1.92-4.53,5h8.76Z"/><path d="M625.19,366.54V372h-2.07v-5.46h-10V365l9.6-13.86h2.43V364.8h3.48v1.74Zm-2-13.17h-.06a11.71,11.71,0,0,1-1.32,2.34l-4.74,6.81a16.7,16.7,0,0,1-1.68,2.28h7.74v-8.67C623.12,354.72,623.12,354.33,623.18,353.37Z"/><path d="M639.23,367.71l2.13-.36c.36,2.13,1.89,3.27,4.26,3.27,2.19,0,3.42-1.05,3.42-2.55s-.84-2.1-2.43-2.4l-2.91-.57c-2.49-.48-3.9-1.83-3.9-4.11,0-2.52,2.13-4.35,5.52-4.35s5.49,1.47,5.79,4.14l-2.1.45c-.3-1.83-1.59-2.88-3.78-2.88s-3.39,1-3.39,2.55c0,1.41.93,2.1,2.49,2.4l2.94.57c2.67.54,3.84,1.83,3.84,4,0,2.67-2,4.47-5.55,4.47S639.71,370.71,639.23,367.71Z"/><path d="M654.17,364.5c0-4.89,2.61-7.86,6.81-7.86a5.67,5.67,0,0,1,6.06,5.43l-2.13.24c-.3-2.49-1.74-3.84-4-3.84-2.79,0-4.5,2.25-4.5,6s1.71,6.06,4.59,6.06c2.25,0,3.66-1.35,4-3.84l2,.3c-.54,3.39-2.76,5.37-6.06,5.37C656.81,372.36,654.17,369.33,654.17,364.5Z"/><path d="M682.94,365H672.05c0,3.39,1.89,5.46,4.8,5.46a4.21,4.21,0,0,0,4.23-3.21l1.77.72a6.07,6.07,0,0,1-6.15,4.35c-4.26,0-6.75-2.73-6.75-7.77s2.52-7.95,6.66-7.95,6.33,2.4,6.33,7Zm-2.13-2c0-3.09-1.56-4.74-4.23-4.74s-4.47,1.92-4.53,5h8.76Zm-3.33-8.46h-2l3-4.29h2.58Z"/><path d="M687.38,357h2v3.3a5.11,5.11,0,0,1,5.13-3.66c3.36,0,5.1,2.07,5.1,6.09V372h-2.1v-9.15c0-2.91-1.26-4.41-3.63-4.41-2.7,0-4.41,2.16-4.41,5.67V372h-2.07Z"/><path d="M703.46,368a3.79,3.79,0,0,1,1.83-3.36,12.9,12.9,0,0,1,4.92-1.35l3.33-.39v-.24c0-3.09-1.08-4.32-3.63-4.32-2.25,0-3.63,1.17-3.75,3.3h-2.25c.18-3.09,2.52-5,6-5,4,0,5.76,1.86,5.76,6.21v3.9a21.14,21.14,0,0,0,.48,5.25h-2.19a20.58,20.58,0,0,1-.27-3,5.14,5.14,0,0,1-5.22,3.36C705.44,372.36,703.46,370.62,703.46,368Zm10.11-2.58v-1l-4.26.6c-2.55.36-3.66,1.23-3.66,2.88s1.26,2.64,3.27,2.64C711.71,370.62,713.57,368.52,713.57,365.46Z"/><path d="M727.55,356.64a3.63,3.63,0,0,1,.57,0v2h-.24a4.39,4.39,0,0,0-3.21,1.14c-1.38,1.38-1.65,3.39-1.65,5.28V372H721V357h1.95v3.66C723.59,358.35,725.24,356.64,727.55,356.64Z"/><path d="M731.48,351h2.37v3.3h-2.37Zm.15,6h2.07v15h-2.07Z"/><path d="M738,364.5c0-4.89,2.73-7.86,6.9-7.86s6.87,3,6.87,7.86-2.73,7.86-6.87,7.86S738,369.39,738,364.5Zm11.55,0c0-3.9-1.77-6-4.65-6s-4.68,2.13-4.68,6,1.77,6,4.68,6S749.54,368.4,749.54,364.5Z"/><path d="M754.64,367.71l2.13-.36c.36,2.13,1.89,3.27,4.26,3.27,2.19,0,3.42-1.05,3.42-2.55s-.84-2.1-2.43-2.4l-2.91-.57c-2.49-.48-3.9-1.83-3.9-4.11,0-2.52,2.13-4.35,5.52-4.35s5.49,1.47,5.79,4.14l-2.1.45c-.3-1.83-1.59-2.88-3.78-2.88s-3.39,1-3.39,2.55c0,1.41.93,2.1,2.49,2.4l2.94.57c2.67.54,3.84,1.83,3.84,4,0,2.67-2,4.47-5.55,4.47S755.12,370.71,754.64,367.71Z"/><path d="M769.94,374.88a2.55,2.55,0,0,0,1.59-2.79V372H770v-3.36h2.85v3.18c0,2.22-.57,3.3-2.37,4.14Z"/><path d="M784.4,364.5c0-4.62,2.61-7.86,6.42-7.86a4.78,4.78,0,0,1,4.71,3.09v-9.48h2.1V372h-2v-3.18a5.23,5.23,0,0,1-5.07,3.54C786.86,372.36,784.4,369.18,784.4,364.5Zm11.16.33v-.63c0-3.42-1.65-5.7-4.44-5.7s-4.5,2.25-4.5,6,1.68,6,4.47,6S795.56,368.16,795.56,364.83Z"/><path d="M803.3,351h2.37v3.3H803.3Zm.15,6h2.07v15h-2.07Z"/><path d="M817.85,358.74H814V372h-2.07V358.74h-2.82V357h2.82v-2.49c0-2.7,1.59-4.44,4.2-4.44a6.37,6.37,0,0,1,1.77.21v1.8a8.76,8.76,0,0,0-1.5-.15c-1.68,0-2.4.9-2.4,2.85V357h3.9Z"/><path d="M828.74,358.74h-3.9V372h-2.07V358.74H820V357h2.82v-2.49c0-2.7,1.59-4.44,4.2-4.44a6.37,6.37,0,0,1,1.77.21v1.8a8.76,8.76,0,0,0-1.5-.15c-1.68,0-2.4.9-2.4,2.85V357h3.9Z"/><path d="M843.47,365H832.58c0,3.39,1.89,5.46,4.8,5.46a4.21,4.21,0,0,0,4.23-3.21l1.77.72a6.07,6.07,0,0,1-6.15,4.35c-4.26,0-6.75-2.73-6.75-7.77s2.52-7.95,6.66-7.95,6.33,2.4,6.33,7Zm-2.13-2c0-3.09-1.56-4.74-4.23-4.74s-4.47,1.92-4.53,5h8.76ZM838,354.6h-2l3-4.29h2.58Z"/><path d="M854.51,356.64a3.63,3.63,0,0,1,.57,0v2h-.24a4.39,4.39,0,0,0-3.21,1.14c-1.38,1.38-1.65,3.39-1.65,5.28V372h-2.07V357h2v3.66C850.55,358.35,852.2,356.64,854.51,356.64Z"/><path d="M870,365H859.07c0,3.39,1.89,5.46,4.8,5.46a4.21,4.21,0,0,0,4.23-3.21l1.77.72a6.07,6.07,0,0,1-6.15,4.35c-4.26,0-6.75-2.73-6.75-7.77s2.52-7.95,6.66-7.95,6.33,2.4,6.33,7Zm-2.13-2c0-3.09-1.56-4.74-4.23-4.74s-4.47,1.92-4.53,5h8.76Z"/><path d="M874.4,357h2v3.3a5.11,5.11,0,0,1,5.13-3.66c3.36,0,5.1,2.07,5.1,6.09V372h-2.1v-9.15c0-2.91-1.26-4.41-3.63-4.41-2.7,0-4.41,2.16-4.41,5.67V372H874.4Z"/><path d="M889.34,357h2.76v-4l2.1-.9V357h3.87v1.74H894.2v9c0,1.77.78,2.55,2.34,2.55a6.12,6.12,0,0,0,1.53-.18V372a7.07,7.07,0,0,1-2.07.27c-2.91,0-3.9-1.77-3.9-4.44v-9.09h-2.76Z"/><path d="M900.53,367.71l2.13-.36c.36,2.13,1.89,3.27,4.26,3.27,2.19,0,3.42-1.05,3.42-2.55s-.84-2.1-2.43-2.4L905,365.1c-2.49-.48-3.9-1.83-3.9-4.11,0-2.52,2.13-4.35,5.52-4.35s5.49,1.47,5.79,4.14l-2.1.45c-.3-1.83-1.59-2.88-3.78-2.88s-3.39,1-3.39,2.55c0,1.41.93,2.1,2.49,2.4l2.94.57c2.67.54,3.84,1.83,3.84,4,0,2.67-2,4.47-5.55,4.47S901,370.71,900.53,367.71Z"/><path d="M936.41,365H925.52c0,3.39,1.89,5.46,4.8,5.46a4.21,4.21,0,0,0,4.23-3.21l1.77.72a6.07,6.07,0,0,1-6.15,4.35c-4.26,0-6.75-2.73-6.75-7.77s2.52-7.95,6.66-7.95,6.33,2.4,6.33,7Zm-2.13-2c0-3.09-1.56-4.74-4.23-4.74s-4.47,1.92-4.53,5h8.76Z"/><path d="M938.6,357h2.76v-4l2.1-.9V357h3.87v1.74h-3.87v9c0,1.77.78,2.55,2.34,2.55a6.12,6.12,0,0,0,1.53-.18V372a7.07,7.07,0,0,1-2.07.27c-2.91,0-3.9-1.77-3.9-4.44v-9.09H938.6Z"/><path d="M957.83,364.5c0-4.89,2.61-7.86,6.81-7.86a5.67,5.67,0,0,1,6.06,5.43l-2.13.24c-.3-2.49-1.74-3.84-4-3.84-2.79,0-4.5,2.25-4.5,6s1.71,6.06,4.59,6.06c2.25,0,3.66-1.35,4.05-3.84l2,.3c-.54,3.39-2.76,5.37-6.06,5.37C960.47,372.36,957.83,369.33,957.83,364.5Z"/><path d="M973.61,364.5c0-4.89,2.73-7.86,6.9-7.86s6.86,3,6.86,7.86-2.72,7.86-6.86,7.86S973.61,369.39,973.61,364.5Zm11.55,0c0-3.9-1.77-6-4.65-6s-4.68,2.13-4.68,6,1.77,6,4.68,6S985.16,368.4,985.16,364.5Z"/><path d="M991.66,357h2v3.3a5.09,5.09,0,0,1,5.13-3.66c3.35,0,5.09,2.07,5.09,6.09V372h-2.1v-9.15c0-2.91-1.26-4.41-3.62-4.41-2.7,0-4.41,2.16-4.41,5.67V372h-2.08Z"/><path d="M1006.61,357h2.75v-4l2.11-.9V357h3.86v1.74h-3.86v9c0,1.77.77,2.55,2.34,2.55a6,6,0,0,0,1.52-.18V372a7,7,0,0,1-2.06.27c-2.91,0-3.91-1.77-3.91-4.44v-9.09h-2.75Z"/><path d="M1025.89,356.64a3.63,3.63,0,0,1,.57,0v2h-.24a4.39,4.39,0,0,0-3.21,1.14c-1.38,1.38-1.65,3.39-1.65,5.28V372h-2.07V357h2v3.66C1021.94,358.35,1023.58,356.64,1025.89,356.64Z"/><path d="M1028.36,368a3.79,3.79,0,0,1,1.83-3.36,12.9,12.9,0,0,1,4.92-1.35l3.32-.39v-.24c0-3.09-1.07-4.32-3.63-4.32-2.24,0-3.63,1.17-3.74,3.3h-2.25c.18-3.09,2.51-5,6-5,4,0,5.75,1.86,5.75,6.21v3.9A21.14,21.14,0,0,0,1041,372h-2.19a20.58,20.58,0,0,1-.27-3,5.14,5.14,0,0,1-5.22,3.36C1030.33,372.36,1028.36,370.62,1028.36,368Zm10.1-2.58v-1l-4.26.6c-2.54.36-3.66,1.23-3.66,2.88s1.27,2.64,3.28,2.64C1036.61,370.62,1038.46,368.52,1038.46,365.46Z"/><path d="M1044.43,367.71l2.14-.36c.35,2.13,1.88,3.27,4.25,3.27,2.19,0,3.42-1.05,3.42-2.55s-.84-2.1-2.43-2.4l-2.9-.57c-2.5-.48-3.91-1.83-3.91-4.11,0-2.52,2.13-4.35,5.52-4.35s5.49,1.47,5.79,4.14l-2.1.45c-.3-1.83-1.59-2.88-3.78-2.88s-3.39,1-3.39,2.55c0,1.41.93,2.1,2.49,2.4l2.94.57c2.67.54,3.84,1.83,3.84,4,0,2.67-2,4.47-5.55,4.47S1044.91,370.71,1044.43,367.71Z"/><path d="M1058.44,357h2.76v-4l2.1-.9V357h3.87v1.74h-3.87v9c0,1.77.78,2.55,2.34,2.55a6.12,6.12,0,0,0,1.53-.18V372a7.07,7.07,0,0,1-2.07.27c-2.91,0-3.9-1.77-3.9-4.44v-9.09h-2.76Z"/><path d="M1082.53,365h-10.89c0,3.39,1.89,5.46,4.8,5.46a4.21,4.21,0,0,0,4.23-3.21l1.77.72a6.07,6.07,0,0,1-6.15,4.35c-4.26,0-6.75-2.73-6.75-7.77s2.52-7.95,6.66-7.95,6.33,2.4,6.33,7Zm-2.13-2c0-3.09-1.56-4.74-4.23-4.74s-4.47,1.92-4.53,5h8.76Zm-3.33-8.46h-2l3-4.29h2.58Z"/><path d="M1085.56,367.71l2.13-.36c.36,2.13,1.89,3.27,4.26,3.27,2.19,0,3.42-1.05,3.42-2.55s-.84-2.1-2.43-2.4l-2.91-.57c-2.49-.48-3.9-1.83-3.9-4.11,0-2.52,2.13-4.35,5.52-4.35s5.49,1.47,5.79,4.14l-2.1.45c-.3-1.83-1.59-2.88-3.78-2.88s-3.39,1-3.39,2.55c0,1.41.93,2.1,2.49,2.4l2.94.57c2.67.54,3.84,1.83,3.84,4,0,2.67-2,4.47-5.55,4.47S1086,370.71,1085.56,367.71Z"/><path d="M217.11,437.61l2.34-.33c.33,2.88,2.13,5.31,6.15,5.31,2.76,0,5.13-1.23,5.13-4s-1.68-3.63-4.32-4.14l-3.15-.63c-3.06-.6-5.25-2.25-5.25-5.7s2.79-5.91,7.23-5.91c4.17,0,7.35,1.86,7.71,6.18l-2.34.45c-.3-3.21-2.1-4.77-5.43-4.77-2.88,0-4.77,1.47-4.77,3.84,0,2.13,1.2,3.36,3.78,3.9l3.15.63c3.27.66,5.79,2.1,5.79,5.91,0,3.48-2.61,6.18-7.62,6.18C220.17,444.51,217.41,441.57,217.11,437.61Z"/><path d="M236,436.5c0-4.89,2.61-7.86,6.81-7.86a5.67,5.67,0,0,1,6.06,5.43l-2.13.24c-.3-2.49-1.74-3.84-4-3.84-2.79,0-4.5,2.25-4.5,6s1.71,6.06,4.59,6.06c2.25,0,3.66-1.35,4.05-3.84l2,.3c-.54,3.39-2.76,5.37-6.06,5.37C238.62,444.36,236,441.33,236,436.5Z"/><path d="M264.75,437H253.86c0,3.39,1.89,5.46,4.8,5.46a4.21,4.21,0,0,0,4.23-3.21l1.77.72a6.07,6.07,0,0,1-6.15,4.35c-4.26,0-6.75-2.73-6.75-7.77s2.52-7.95,6.66-7.95,6.33,2.4,6.33,7Zm-2.13-2c0-3.09-1.56-4.74-4.23-4.74s-4.47,1.92-4.53,5h8.76Zm-3.33-8.46h-2l3-4.29h2.58Z"/><path d="M269.19,429h2v3.3a5.11,5.11,0,0,1,5.13-3.66c3.36,0,5.1,2.07,5.1,6.09V444h-2.1v-9.15c0-2.91-1.26-4.41-3.63-4.41-2.7,0-4.41,2.16-4.41,5.67V444h-2.07Z"/><path d="M285.27,440a3.79,3.79,0,0,1,1.83-3.36,12.9,12.9,0,0,1,4.92-1.35l3.33-.39v-.24c0-3.09-1.08-4.32-3.63-4.32-2.25,0-3.63,1.17-3.75,3.3h-2.25c.18-3.09,2.52-5,6-5,4,0,5.76,1.86,5.76,6.21v3.9a21.14,21.14,0,0,0,.48,5.25h-2.19a20.58,20.58,0,0,1-.27-3,5.14,5.14,0,0,1-5.22,3.36C287.25,444.36,285.27,442.62,285.27,440Zm10.11-2.58v-1l-4.26.6c-2.55.36-3.66,1.23-3.66,2.88s1.26,2.64,3.27,2.64C293.52,442.62,295.38,440.52,295.38,437.46Z"/><path d="M309.36,428.64a3.63,3.63,0,0,1,.57,0v2h-.24a4.39,4.39,0,0,0-3.21,1.14c-1.38,1.38-1.65,3.39-1.65,5.28V444h-2.07V429h1.95v3.66C305.4,430.35,307.05,428.64,309.36,428.64Z"/><path d="M313.29,423h2.37v3.3h-2.37Zm.15,6h2.07v15h-2.07Z"/><path d="M319.8,436.5c0-4.89,2.73-7.86,6.9-7.86s6.87,3,6.87,7.86-2.73,7.86-6.87,7.86S319.8,441.39,319.8,436.5Zm11.55,0c0-3.9-1.77-6-4.65-6s-4.68,2.13-4.68,6,1.77,6,4.68,6S331.35,440.4,331.35,436.5Z"/><path d="M344.07,435.75l5.13-6.24h2.22l-5,6.24,5,6.24h-2.25Zm5.61,0,5.13-6.24H357l-5,6.24L357,442h-2.22Z"/><path d="M370.92,422.7v13.8c0,3.63,2,5.94,5.64,5.94s5.67-2.31,5.67-5.94V422.7h2.34v13.95c0,4.71-2.85,7.86-8,7.86s-7.95-3.15-7.95-7.86V422.7Z"/><path d="M390.09,429h2v3.3a5.11,5.11,0,0,1,5.13-3.66c3.36,0,5.1,2.07,5.1,6.09V444h-2.1v-9.15c0-2.91-1.26-4.41-3.63-4.41-2.7,0-4.41,2.16-4.41,5.67V444h-2.07Z"/><path d="M419.1,437H408.21c0,3.39,1.89,5.46,4.8,5.46a4.21,4.21,0,0,0,4.23-3.21L419,440a6.07,6.07,0,0,1-6.15,4.35c-4.26,0-6.75-2.73-6.75-7.77s2.52-7.95,6.66-7.95,6.33,2.4,6.33,7Zm-2.13-2c0-3.09-1.56-4.74-4.23-4.74s-4.47,1.92-4.53,5H417Z"/><path d="M443.07,437H432.18c0,3.39,1.89,5.46,4.8,5.46a4.21,4.21,0,0,0,4.23-3.21L443,440a6.07,6.07,0,0,1-6.15,4.35c-4.26,0-6.75-2.73-6.75-7.77s2.52-7.95,6.66-7.95,6.33,2.4,6.33,7Zm-2.13-2c0-3.09-1.56-4.74-4.23-4.74s-4.47,1.92-4.53,5h8.76Z"/><path d="M446.1,439.71l2.13-.36c.36,2.13,1.89,3.27,4.26,3.27,2.19,0,3.42-1.05,3.42-2.55s-.84-2.1-2.43-2.4l-2.91-.57c-2.49-.48-3.9-1.83-3.9-4.11,0-2.52,2.13-4.35,5.52-4.35s5.49,1.47,5.79,4.14l-2.1.45c-.3-1.83-1.59-2.88-3.78-2.88s-3.39,1-3.39,2.55c0,1.41.93,2.1,2.49,2.4l2.94.57c2.67.54,3.84,1.83,3.84,4,0,2.67-2,4.47-5.55,4.47S446.58,442.71,446.1,439.71Z"/><path d="M462.45,429h2v3.18a5.32,5.32,0,0,1,5.13-3.54c3.69,0,6.09,3.15,6.09,7.86s-2.55,7.86-6.24,7.86a5.06,5.06,0,0,1-4.89-3.18v8.67h-2.07Zm11,7.5c0-3.72-1.62-6-4.38-6s-4.56,2.34-4.56,5.64v.66c0,3.36,1.68,5.7,4.44,5.7S473.43,440.22,473.43,436.5Z"/><path d="M482.16,444h-2.07V422.25h2.07Z"/><path d="M486.66,440a3.79,3.79,0,0,1,1.83-3.36,12.9,12.9,0,0,1,4.92-1.35l3.33-.39v-.24c0-3.09-1.08-4.32-3.63-4.32-2.25,0-3.63,1.17-3.75,3.3h-2.25c.18-3.09,2.52-5,6-5,4,0,5.76,1.86,5.76,6.21v3.9a21.14,21.14,0,0,0,.48,5.25h-2.19a20.58,20.58,0,0,1-.27-3,5.14,5.14,0,0,1-5.22,3.36C488.64,444.36,486.66,442.62,486.66,440Zm10.11-2.58v-1l-4.26.6c-2.55.36-3.66,1.23-3.66,2.88s1.26,2.64,3.27,2.64C494.91,442.62,496.77,440.52,496.77,437.46Z"/><path d="M504.15,429h2v3.3a5.11,5.11,0,0,1,5.13-3.66c3.36,0,5.1,2.07,5.1,6.09V444h-2.1v-9.15c0-2.91-1.26-4.41-3.63-4.41-2.7,0-4.41,2.16-4.41,5.67V444h-2.07Z"/><path d="M520.23,440a3.79,3.79,0,0,1,1.83-3.36,12.9,12.9,0,0,1,4.92-1.35l3.33-.39v-.24c0-3.09-1.08-4.32-3.63-4.32-2.25,0-3.63,1.17-3.75,3.3h-2.25c.18-3.09,2.52-5,6-5,4,0,5.76,1.86,5.76,6.21v3.9a21.14,21.14,0,0,0,.48,5.25H530.7a20.58,20.58,0,0,1-.27-3,5.14,5.14,0,0,1-5.22,3.36C522.21,444.36,520.23,442.62,520.23,440Zm10.11-2.58v-1l-4.26.6c-2.55.36-3.66,1.23-3.66,2.88s1.26,2.64,3.27,2.64C528.48,442.62,530.34,440.52,530.34,437.46Z"/><path d="M536.19,436.5c0-4.62,2.61-7.86,6.42-7.86a4.78,4.78,0,0,1,4.71,3.09v-9.48h2.09V444h-2v-3.18a5.23,5.23,0,0,1-5.07,3.54C538.65,444.36,536.19,441.18,536.19,436.5Zm11.16.33v-.63c0-3.42-1.65-5.7-4.44-5.7s-4.5,2.25-4.5,6,1.68,6,4.47,6S547.35,440.16,547.35,436.83Z"/><path d="M566.82,437H555.93c0,3.39,1.89,5.46,4.8,5.46a4.21,4.21,0,0,0,4.22-3.21l1.78.72a6.08,6.08,0,0,1-6.16,4.35c-4.25,0-6.75-2.73-6.75-7.77s2.53-7.95,6.67-7.95,6.33,2.4,6.33,7Zm-2.13-2c0-3.09-1.57-4.74-4.24-4.74s-4.46,1.92-4.52,5h8.76Z"/><path d="M579.21,429h2v3.18a5.32,5.32,0,0,1,5.13-3.54c3.69,0,6.09,3.15,6.09,7.86s-2.55,7.86-6.24,7.86a5.06,5.06,0,0,1-4.89-3.18v8.67h-2.07Zm11,7.5c0-3.72-1.62-6-4.38-6s-4.56,2.34-4.56,5.64v.66c0,3.36,1.68,5.7,4.44,5.7S590.19,440.22,590.19,436.5Z"/><path d="M595.29,436.5c0-4.89,2.73-7.86,6.9-7.86s6.86,3,6.86,7.86-2.73,7.86-6.86,7.86S595.29,441.39,595.29,436.5Zm11.54,0c0-3.9-1.76-6-4.64-6s-4.68,2.13-4.68,6,1.77,6,4.68,6S606.83,440.4,606.83,436.5Z"/><path d="M612.9,438.51V429H615v9.3c0,2.94,1.38,4.26,3.42,4.26,2.72,0,4.38-2.34,4.38-5.37V429h2.09v15h-2v-3.09a5.14,5.14,0,0,1-4.86,3.45C614.28,444.36,612.9,442.08,612.9,438.51Z"/><path d="M637.16,428.64a3.76,3.76,0,0,1,.58,0v2h-.25a4.41,4.41,0,0,0-3.21,1.14c-1.37,1.38-1.64,3.39-1.64,5.28V444h-2.07V429h1.95v3.66C633.21,430.35,634.86,428.64,637.16,428.64Z"/><path d="M651.41,444h-2.07V422.25h2.07Z"/><path d="M668.84,437H658c0,3.39,1.89,5.46,4.8,5.46a4.21,4.21,0,0,0,4.23-3.21l1.77.72a6.07,6.07,0,0,1-6.15,4.35c-4.26,0-6.75-2.73-6.75-7.77s2.52-7.95,6.66-7.95,6.33,2.4,6.33,7Zm-2.13-2c0-3.09-1.56-4.74-4.23-4.74s-4.47,1.92-4.53,5h8.76Z"/><path d="M691,441a5.1,5.1,0,0,1-5,3.36c-3.69,0-6.18-3.09-6.18-7.86s2.67-7.86,6.39-7.86a4.81,4.81,0,0,1,4.83,3.18l.45-2.82h1.56v20.85H691Zm0-4.11v-.75c0-3.36-1.65-5.64-4.47-5.64s-4.47,2.25-4.47,6,1.65,6,4.44,6S691,440.22,691,436.89Z"/><path d="M698.27,438.51V429h2.07v9.3c0,2.94,1.38,4.26,3.42,4.26,2.73,0,4.38-2.34,4.38-5.37V429h2.1v15h-2v-3.09a5.14,5.14,0,0,1-4.86,3.45C699.65,444.36,698.27,442.08,698.27,438.51Z"/><path d="M714.59,440a3.79,3.79,0,0,1,1.83-3.36,12.9,12.9,0,0,1,4.92-1.35l3.33-.39v-.24c0-3.09-1.08-4.32-3.63-4.32-2.25,0-3.63,1.17-3.75,3.3H715c.18-3.09,2.52-5,6-5,4,0,5.76,1.86,5.76,6.21v3.9a21.14,21.14,0,0,0,.48,5.25h-2.19a20.58,20.58,0,0,1-.27-3,5.14,5.14,0,0,1-5.22,3.36C716.57,444.36,714.59,442.62,714.59,440Zm10.11-2.58v-1l-4.26.6c-2.55.36-3.66,1.23-3.66,2.88s1.26,2.64,3.27,2.64C722.84,442.62,724.7,440.52,724.7,437.46Z"/><path d="M738.68,428.64a3.63,3.63,0,0,1,.57,0v2H739a4.39,4.39,0,0,0-3.21,1.14c-1.38,1.38-1.65,3.39-1.65,5.28V444h-2.07V429H734v3.66C734.72,430.35,736.37,428.64,738.68,428.64Z"/><path d="M741.08,429h2.76v-4l2.1-.9V429h3.87v1.74h-3.87v9c0,1.77.78,2.55,2.34,2.55a6.12,6.12,0,0,0,1.53-.18V444a7.07,7.07,0,0,1-2.07.27c-2.91,0-3.9-1.77-3.9-4.44v-9.09h-2.76Z"/><path d="M753.62,423H756v3.3h-2.37Zm.15,6h2.07v15h-2.07Z"/><path d="M773.12,437H762.23c0,3.39,1.89,5.46,4.8,5.46a4.21,4.21,0,0,0,4.23-3.21L773,440a6.07,6.07,0,0,1-6.15,4.35c-4.26,0-6.75-2.73-6.75-7.77s2.52-7.95,6.66-7.95,6.33,2.4,6.33,7Zm-2.13-2c0-3.09-1.56-4.74-4.23-4.74s-4.47,1.92-4.53,5H771Z"/><path d="M784.16,428.64a3.63,3.63,0,0,1,.57,0v2h-.24a4.39,4.39,0,0,0-3.21,1.14c-1.38,1.38-1.65,3.39-1.65,5.28V444h-2.07V429h2v3.66C780.2,430.35,781.85,428.64,784.16,428.64Z"/><path d="M794.3,442l5-6.24-5-6.24h2.22l5.16,6.24-5.1,6.24Zm5.61,0,5-6.24-5-6.24h2.22l5.16,6.24L802.13,442Z"/><path d="M826.52,434.67v2h-8.67v-2Z"/><path d="M841.88,427a4.59,4.59,0,0,1-3.66,1.65h-1v-2h.57a4.34,4.34,0,0,0,4.38-3.54h1.86V444h-2.19Z"/><path d="M849.41,439l2.28-.24a4.45,4.45,0,0,0,4.65,3.84c3,0,4.8-2.07,4.8-5.4s-1.62-5.46-4.68-5.46a4.55,4.55,0,0,0-4.59,3.75l-2.13-.21L851,423.15h11.37v1.92h-9.72l-.81,7.83a5.43,5.43,0,0,1,5.19-3.06c4,0,6.36,2.76,6.36,7.23s-2.79,7.38-7.14,7.38C852.56,444.45,850,442.32,849.41,439Z"/><path d="M869.57,429v2.91a4.47,4.47,0,0,1,4.44-3.27,4.23,4.23,0,0,1,4.32,3.21,4.76,4.76,0,0,1,4.62-3.21c2.94,0,4.62,2,4.62,5.55V444h-2.1v-9.63c0-2.55-1.08-3.93-3.15-3.93-2.28,0-3.69,1.68-3.69,4.44V444h-2.07v-9.75c0-2.43-1.14-3.81-3.12-3.81-2.28,0-3.75,1.86-3.75,4.8V444h-2.07V429Z"/><path d="M892.76,429h2v3.3a5.11,5.11,0,0,1,5.13-3.66c3.36,0,5.1,2.07,5.1,6.09V444h-2.1v-9.15c0-2.91-1.26-4.41-3.63-4.41-2.7,0-4.41,2.16-4.41,5.67V444h-2.07Z"/><path d="M217.11,473.61l2.34-.33c.33,2.88,2.13,5.31,6.15,5.31,2.76,0,5.13-1.23,5.13-4s-1.68-3.63-4.32-4.14l-3.15-.63c-3.06-.6-5.25-2.25-5.25-5.7s2.79-5.91,7.23-5.91c4.17,0,7.35,1.86,7.71,6.18l-2.34.45c-.3-3.21-2.1-4.77-5.43-4.77-2.88,0-4.77,1.47-4.77,3.84,0,2.13,1.2,3.36,3.78,3.9l3.15.63c3.27.66,5.79,2.1,5.79,5.91,0,3.48-2.61,6.18-7.62,6.18C220.17,480.51,217.41,477.57,217.11,473.61Z"/><path d="M236,472.5c0-4.89,2.61-7.86,6.81-7.86a5.67,5.67,0,0,1,6.06,5.43l-2.13.24c-.3-2.49-1.74-3.84-4-3.84-2.79,0-4.5,2.25-4.5,6s1.71,6.06,4.59,6.06c2.25,0,3.66-1.35,4.05-3.84l2,.3c-.54,3.39-2.76,5.37-6.06,5.37C238.62,480.36,236,477.33,236,472.5Z"/><path d="M264.75,473H253.86c0,3.39,1.89,5.46,4.8,5.46a4.21,4.21,0,0,0,4.23-3.21l1.77.72a6.07,6.07,0,0,1-6.15,4.35c-4.26,0-6.75-2.73-6.75-7.77s2.52-7.95,6.66-7.95,6.33,2.4,6.33,7Zm-2.13-2c0-3.09-1.56-4.74-4.23-4.74s-4.47,1.92-4.53,5h8.76Zm-3.33-8.46h-2l3-4.29h2.58Z"/><path d="M269.19,465h2v3.3a5.11,5.11,0,0,1,5.13-3.66c3.36,0,5.1,2.07,5.1,6.09V480h-2.1v-9.15c0-2.91-1.26-4.41-3.63-4.41-2.7,0-4.41,2.16-4.41,5.67V480h-2.07Z"/><path d="M285.27,476a3.79,3.79,0,0,1,1.83-3.36,12.9,12.9,0,0,1,4.92-1.35l3.33-.39v-.24c0-3.09-1.08-4.32-3.63-4.32-2.25,0-3.63,1.17-3.75,3.3h-2.25c.18-3.09,2.52-5,6-5,4,0,5.76,1.86,5.76,6.21v3.9a21.14,21.14,0,0,0,.48,5.25h-2.19a20.58,20.58,0,0,1-.27-3,5.14,5.14,0,0,1-5.22,3.36C287.25,480.36,285.27,478.62,285.27,476Zm10.11-2.58v-1l-4.26.6c-2.55.36-3.66,1.23-3.66,2.88s1.26,2.64,3.27,2.64C293.52,478.62,295.38,476.52,295.38,473.46Z"/><path d="M309.36,464.64a3.63,3.63,0,0,1,.57,0v2h-.24a4.39,4.39,0,0,0-3.21,1.14c-1.38,1.38-1.65,3.39-1.65,5.28V480h-2.07V465h1.95v3.66C305.4,466.35,307.05,464.64,309.36,464.64Z"/><path d="M313.29,459h2.37v3.3h-2.37Zm.15,6h2.07v15h-2.07Z"/><path d="M319.8,472.5c0-4.89,2.73-7.86,6.9-7.86s6.87,3,6.87,7.86-2.73,7.86-6.87,7.86S319.8,477.39,319.8,472.5Zm11.55,0c0-3.9-1.77-6-4.65-6s-4.68,2.13-4.68,6,1.77,6,4.68,6S331.35,476.4,331.35,472.5Z"/><path d="M344.07,471.75l5.13-6.24h2.22l-5,6.24,5,6.24h-2.25Zm5.61,0,5.13-6.24H357l-5,6.24L357,478h-2.22Z"/><path d="M370.92,458.7v13.8c0,3.63,2,5.94,5.64,5.94s5.67-2.31,5.67-5.94V458.7h2.34v13.95c0,4.71-2.85,7.86-8,7.86s-7.95-3.15-7.95-7.86V458.7Z"/><path d="M390.09,465h2v3.3a5.11,5.11,0,0,1,5.13-3.66c3.36,0,5.1,2.07,5.1,6.09V480h-2.1v-9.15c0-2.91-1.26-4.41-3.63-4.41-2.7,0-4.41,2.16-4.41,5.67V480h-2.07Z"/><path d="M419.1,473H408.21c0,3.39,1.89,5.46,4.8,5.46a4.21,4.21,0,0,0,4.23-3.21L419,476a6.07,6.07,0,0,1-6.15,4.35c-4.26,0-6.75-2.73-6.75-7.77s2.52-7.95,6.66-7.95,6.33,2.4,6.33,7Zm-2.13-2c0-3.09-1.56-4.74-4.23-4.74s-4.47,1.92-4.53,5H417Z"/><path d="M431.49,465h2v3.18a5.32,5.32,0,0,1,5.13-3.54c3.69,0,6.09,3.15,6.09,7.86s-2.55,7.86-6.24,7.86a5.06,5.06,0,0,1-4.89-3.18v8.67h-2.07Zm11,7.5c0-3.72-1.62-6-4.38-6s-4.56,2.34-4.56,5.64v.66c0,3.36,1.68,5.7,4.44,5.7S442.47,476.22,442.47,472.5Z"/><path d="M448.83,459h2.37v3.3h-2.37Zm.15,6h2.07v15H449Z"/><path d="M468.33,473H457.44c0,3.39,1.89,5.46,4.8,5.46a4.21,4.21,0,0,0,4.23-3.21l1.77.72a6.07,6.07,0,0,1-6.15,4.35c-4.26,0-6.75-2.73-6.75-7.77s2.52-7.95,6.66-7.95,6.33,2.4,6.33,7ZM460.8,462.6l-3.57-4.29h2.58l3,4.29Zm5.4,8.46c0-3.09-1.56-4.74-4.23-4.74s-4.47,1.92-4.53,5h8.76Z"/><path d="M471.36,472.5c0-4.89,2.61-7.86,6.81-7.86a5.67,5.67,0,0,1,6.06,5.43l-2.13.24c-.3-2.49-1.74-3.84-4-3.84-2.79,0-4.5,2.25-4.5,6s1.71,6.06,4.59,6.06c2.25,0,3.66-1.35,4.05-3.84l2,.3c-.54,3.39-2.76,5.37-6.06,5.37C474,480.36,471.36,477.33,471.36,472.5Z"/><path d="M500.13,473H489.24c0,3.39,1.89,5.46,4.8,5.46a4.21,4.21,0,0,0,4.23-3.21L500,476a6.07,6.07,0,0,1-6.15,4.35c-4.26,0-6.75-2.73-6.75-7.77s2.52-7.95,6.66-7.95,6.33,2.4,6.33,7Zm-2.13-2c0-3.09-1.56-4.74-4.23-4.74s-4.47,1.92-4.53,5H498Z"/><path d="M511.11,472.5c0-4.62,2.61-7.86,6.42-7.86a4.78,4.78,0,0,1,4.71,3.09v-9.48h2.09V480h-2v-3.18a5.23,5.23,0,0,1-5.07,3.54C513.57,480.36,511.11,477.18,511.11,472.5Zm11.16.33v-.63c0-3.42-1.66-5.7-4.45-5.7s-4.49,2.25-4.49,6,1.68,6,4.47,6S522.27,476.16,522.27,472.83Z"/><path d="M541.74,473H530.85c0,3.39,1.89,5.46,4.8,5.46a4.21,4.21,0,0,0,4.23-3.21l1.77.72a6.07,6.07,0,0,1-6.15,4.35c-4.26,0-6.75-2.73-6.75-7.77s2.52-7.95,6.66-7.95,6.33,2.4,6.33,7Zm-2.13-2c0-3.09-1.56-4.74-4.23-4.74s-4.47,1.92-4.53,5h8.76Z"/><path d="M554.13,465h2v3.3a5.11,5.11,0,0,1,5.13-3.66c3.36,0,5.1,2.07,5.1,6.09V480h-2.1v-9.15c0-2.91-1.26-4.41-3.63-4.41-2.7,0-4.41,2.16-4.41,5.67V480h-2.07Z"/><path d="M570.21,476a3.79,3.79,0,0,1,1.83-3.36,12.9,12.9,0,0,1,4.92-1.35l3.32-.39v-.24c0-3.09-1.07-4.32-3.62-4.32-2.25,0-3.63,1.17-3.75,3.3h-2.25c.18-3.09,2.52-5,6-5,4,0,5.76,1.86,5.76,6.21v3.9a21.23,21.23,0,0,0,.47,5.25h-2.18a20.58,20.58,0,0,1-.27-3,5.14,5.14,0,0,1-5.22,3.36C572.19,480.36,570.21,478.62,570.21,476Zm10.11-2.58v-1l-4.26.6c-2.55.36-3.66,1.23-3.66,2.88s1.26,2.64,3.27,2.64C578.46,478.62,580.32,476.52,580.32,473.46Z"/><path d="M585.42,465h2.76v-4l2.1-.9V465h3.87v1.74h-3.87v9c0,1.77.78,2.55,2.34,2.55a6.12,6.12,0,0,0,1.53-.18V480a7.07,7.07,0,0,1-2.07.27c-2.91,0-3.9-1.77-3.9-4.44v-9.09h-2.76Z"/><path d="M597.66,474.51V465h2.07v9.3c0,2.94,1.38,4.26,3.42,4.26,2.72,0,4.38-2.34,4.38-5.37V465h2.09v15h-2v-3.09a5.16,5.16,0,0,1-4.87,3.45C599,480.36,597.66,478.08,597.66,474.51Z"/><path d="M621.92,464.64a3.63,3.63,0,0,1,.57,0v2h-.24a4.41,4.41,0,0,0-3.21,1.14c-1.38,1.38-1.64,3.39-1.64,5.28V480h-2.08V465h2v3.66C618,466.35,619.61,464.64,621.92,464.64Z"/><path d="M637.34,473H626.45c0,3.39,1.89,5.46,4.8,5.46a4.21,4.21,0,0,0,4.23-3.21l1.77.72a6.07,6.07,0,0,1-6.15,4.35c-4.26,0-6.75-2.73-6.75-7.77s2.52-7.95,6.66-7.95,6.33,2.4,6.33,7Zm-2.13-2c0-3.09-1.56-4.74-4.23-4.74s-4.47,1.92-4.53,5h8.76Z"/><path d="M647.84,478l5-6.24-5-6.24H650l5.16,6.24-5.1,6.24Zm5.61,0,5-6.24-5-6.24h2.22l5.16,6.24L655.67,478Z"/><path d="M680.06,470.67v2h-8.67v-2Z"/><path d="M695.42,463a4.59,4.59,0,0,1-3.66,1.65h-1v-2h.57a4.34,4.34,0,0,0,4.38-3.54h1.86V480h-2.19Z"/><path d="M703,475l2.28-.24a4.45,4.45,0,0,0,4.65,3.84c3,0,4.8-2.07,4.8-5.4s-1.62-5.46-4.68-5.46a4.55,4.55,0,0,0-4.59,3.75l-2.13-.21,1.23-12.09h11.37v1.92h-9.72l-.81,7.83a5.43,5.43,0,0,1,5.19-3.06c4,0,6.36,2.76,6.36,7.23s-2.79,7.38-7.14,7.38C706.1,480.45,703.49,478.32,703,475Z"/><path d="M723.11,465v2.91a4.47,4.47,0,0,1,4.44-3.27,4.23,4.23,0,0,1,4.32,3.21,4.76,4.76,0,0,1,4.62-3.21c2.94,0,4.62,2,4.62,5.55V480H739v-9.63c0-2.55-1.08-3.93-3.15-3.93-2.28,0-3.69,1.68-3.69,4.44V480H730.1v-9.75c0-2.43-1.14-3.81-3.12-3.81-2.28,0-3.75,1.86-3.75,4.8V480h-2.07V465Z"/><path d="M746.33,465h2v3.3a5.11,5.11,0,0,1,5.13-3.66c3.36,0,5.1,2.07,5.1,6.09V480h-2.1v-9.15c0-2.91-1.26-4.41-3.63-4.41-2.7,0-4.41,2.16-4.41,5.67V480h-2.07Z"/><path d="M217.11,509.61l2.34-.33c.33,2.88,2.13,5.31,6.15,5.31,2.76,0,5.13-1.23,5.13-4s-1.68-3.63-4.32-4.14l-3.15-.63c-3.06-.6-5.25-2.25-5.25-5.7s2.79-5.91,7.23-5.91c4.17,0,7.35,1.86,7.71,6.18l-2.34.45c-.3-3.21-2.1-4.77-5.43-4.77-2.88,0-4.77,1.47-4.77,3.84,0,2.13,1.2,3.36,3.78,3.9l3.15.63c3.27.66,5.79,2.1,5.79,5.91,0,3.48-2.61,6.18-7.62,6.18C220.17,516.51,217.41,513.57,217.11,509.61Z"/><path d="M236,508.5c0-4.89,2.61-7.86,6.81-7.86a5.67,5.67,0,0,1,6.06,5.43l-2.13.24c-.3-2.49-1.74-3.84-4-3.84-2.79,0-4.5,2.25-4.5,6s1.71,6.06,4.59,6.06c2.25,0,3.66-1.35,4.05-3.84l2,.3c-.54,3.39-2.76,5.37-6.06,5.37C238.62,516.36,236,513.33,236,508.5Z"/><path d="M264.75,509H253.86c0,3.39,1.89,5.46,4.8,5.46a4.21,4.21,0,0,0,4.23-3.21l1.77.72a6.07,6.07,0,0,1-6.15,4.35c-4.26,0-6.75-2.73-6.75-7.77s2.52-7.95,6.66-7.95,6.33,2.4,6.33,7Zm-2.13-2c0-3.09-1.56-4.74-4.23-4.74s-4.47,1.92-4.53,5h8.76Zm-3.33-8.46h-2l3-4.29h2.58Z"/><path d="M269.19,501h2v3.3a5.11,5.11,0,0,1,5.13-3.66c3.36,0,5.1,2.07,5.1,6.09V516h-2.1v-9.15c0-2.91-1.26-4.41-3.63-4.41-2.7,0-4.41,2.16-4.41,5.67V516h-2.07Z"/><path d="M285.27,512a3.79,3.79,0,0,1,1.83-3.36,12.9,12.9,0,0,1,4.92-1.35l3.33-.39v-.24c0-3.09-1.08-4.32-3.63-4.32-2.25,0-3.63,1.17-3.75,3.3h-2.25c.18-3.09,2.52-5,6-5,4,0,5.76,1.86,5.76,6.21v3.9a21.14,21.14,0,0,0,.48,5.25h-2.19a20.58,20.58,0,0,1-.27-3,5.14,5.14,0,0,1-5.22,3.36C287.25,516.36,285.27,514.62,285.27,512Zm10.11-2.58v-1l-4.26.6c-2.55.36-3.66,1.23-3.66,2.88s1.26,2.64,3.27,2.64C293.52,514.62,295.38,512.52,295.38,509.46Z"/><path d="M309.36,500.64a3.63,3.63,0,0,1,.57,0v2h-.24a4.39,4.39,0,0,0-3.21,1.14c-1.38,1.38-1.65,3.39-1.65,5.28V516h-2.07V501h1.95v3.66C305.4,502.35,307.05,500.64,309.36,500.64Z"/><path d="M313.29,495h2.37v3.3h-2.37Zm.15,6h2.07v15h-2.07Z"/><path d="M319.8,508.5c0-4.89,2.73-7.86,6.9-7.86s6.87,3,6.87,7.86-2.73,7.86-6.87,7.86S319.8,513.39,319.8,508.5Zm11.55,0c0-3.9-1.77-6-4.65-6s-4.68,2.13-4.68,6,1.77,6,4.68,6S331.35,512.4,331.35,508.5Z"/><path d="M344.07,507.75l5.13-6.24h2.22l-5,6.24,5,6.24h-2.25Zm5.61,0,5.13-6.24H357l-5,6.24L357,514h-2.22Z"/><path d="M370.92,494.7v13.8c0,3.63,2,5.94,5.64,5.94s5.67-2.31,5.67-5.94V494.7h2.34v13.95c0,4.71-2.85,7.86-8,7.86s-7.95-3.15-7.95-7.86V494.7Z"/><path d="M390.09,501h2v3.3a5.11,5.11,0,0,1,5.13-3.66c3.36,0,5.1,2.07,5.1,6.09V516h-2.1v-9.15c0-2.91-1.26-4.41-3.63-4.41-2.7,0-4.41,2.16-4.41,5.67V516h-2.07Z"/><path d="M419.1,509H408.21c0,3.39,1.89,5.46,4.8,5.46a4.21,4.21,0,0,0,4.23-3.21L419,512a6.07,6.07,0,0,1-6.15,4.35c-4.26,0-6.75-2.73-6.75-7.77s2.52-7.95,6.66-7.95,6.33,2.4,6.33,7Zm-2.13-2c0-3.09-1.56-4.74-4.23-4.74s-4.47,1.92-4.53,5H417Z"/><path d="M431.49,501h2v3.18a5.32,5.32,0,0,1,5.13-3.54c3.69,0,6.09,3.15,6.09,7.86s-2.55,7.86-6.24,7.86a5.06,5.06,0,0,1-4.89-3.18v8.67h-2.07Zm11,7.5c0-3.72-1.62-6-4.38-6s-4.56,2.34-4.56,5.64v.66c0,3.36,1.68,5.7,4.44,5.7S442.47,512.22,442.47,508.5Z"/><path d="M451.2,516h-2.07V494.25h2.07Z"/><path d="M455.7,512a3.79,3.79,0,0,1,1.83-3.36,12.9,12.9,0,0,1,4.92-1.35l3.33-.39v-.24c0-3.09-1.08-4.32-3.63-4.32-2.25,0-3.63,1.17-3.75,3.3h-2.25c.18-3.09,2.52-5,6-5,4,0,5.76,1.86,5.76,6.21v3.9a21.14,21.14,0,0,0,.48,5.25h-2.19a20.58,20.58,0,0,1-.27-3,5.14,5.14,0,0,1-5.22,3.36C457.68,516.36,455.7,514.62,455.7,512Zm10.11-2.58v-1l-4.26.6c-2.55.36-3.66,1.23-3.66,2.88s1.26,2.64,3.27,2.64C464,514.62,465.81,512.52,465.81,509.46Z"/><path d="M471.66,508.5c0-4.89,2.61-7.86,6.81-7.86a5.67,5.67,0,0,1,6.06,5.43l-2.13.24c-.3-2.49-1.74-3.84-4-3.84-2.79,0-4.5,2.25-4.5,6s1.71,6.06,4.59,6.06c2.25,0,3.66-1.35,4-3.84l2,.3c-.54,3.39-2.76,5.37-6.06,5.37C474.3,516.36,471.66,513.33,471.66,508.5Z"/><path d="M500.43,509H489.54c0,3.39,1.89,5.46,4.8,5.46a4.21,4.21,0,0,0,4.23-3.21l1.77.72a6.07,6.07,0,0,1-6.15,4.35c-4.26,0-6.75-2.73-6.75-7.77s2.52-7.95,6.66-7.95,6.33,2.4,6.33,7Zm-2.13-2c0-3.09-1.56-4.74-4.23-4.74s-4.47,1.92-4.53,5h8.76Z"/><path d="M511.47,512a3.79,3.79,0,0,1,1.83-3.36,12.9,12.9,0,0,1,4.92-1.35l3.33-.39v-.24c0-3.09-1.08-4.32-3.63-4.32-2.25,0-3.63,1.17-3.75,3.3h-2.25c.18-3.09,2.52-5,6-5,4,0,5.76,1.86,5.76,6.21v3.9a21.14,21.14,0,0,0,.48,5.25h-2.19a20.58,20.58,0,0,1-.27-3,5.14,5.14,0,0,1-5.22,3.36C513.45,516.36,511.47,514.62,511.47,512Zm10.11-2.58v-1l-4.26.6c-2.55.36-3.66,1.23-3.66,2.88s1.26,2.64,3.27,2.64C519.72,514.62,521.58,512.52,521.58,509.46Z"/><path d="M529,501h2v3.3a5.11,5.11,0,0,1,5.13-3.66c3.36,0,5.1,2.07,5.1,6.09V516h-2.1v-9.15c0-2.91-1.26-4.41-3.63-4.41-2.7,0-4.41,2.16-4.41,5.67V516H529Z"/><path d="M546.24,495h2.37v3.3h-2.37Zm.15,6h2.07v15h-2.07Z"/><path d="M556.11,501v2.91a4.46,4.46,0,0,1,4.43-3.27,4.23,4.23,0,0,1,4.32,3.21,4.77,4.77,0,0,1,4.63-3.21c2.93,0,4.61,2,4.61,5.55V516H572v-9.63c0-2.55-1.08-3.93-3.15-3.93-2.28,0-3.69,1.68-3.69,4.44V516h-2.07v-9.75c0-2.43-1.14-3.81-3.11-3.81-2.28,0-3.75,1.86-3.75,4.8V516h-2.07V501Z"/><path d="M590.94,509H580.05c0,3.39,1.89,5.46,4.8,5.46a4.19,4.19,0,0,0,4.22-3.21l1.78.72a6.08,6.08,0,0,1-6.15,4.35c-4.26,0-6.75-2.73-6.75-7.77s2.52-7.95,6.66-7.95,6.33,2.4,6.33,7Zm-2.13-2c0-3.09-1.57-4.74-4.24-4.74s-4.46,1.92-4.52,5h8.76Zm-3.33-8.46h-2l3-4.29H589Z"/><path d="M607,509H596.07c0,3.39,1.88,5.46,4.79,5.46a4.21,4.21,0,0,0,4.23-3.21l1.77.72a6.07,6.07,0,0,1-6.15,4.35c-4.26,0-6.74-2.73-6.74-7.77s2.52-7.95,6.65-7.95,6.33,2.4,6.33,7Zm-2.13-2c0-3.09-1.56-4.74-4.23-4.74s-4.47,1.92-4.52,5h8.75Z"/><path d="M630.92,509H620c0,3.39,1.89,5.46,4.8,5.46a4.21,4.21,0,0,0,4.23-3.21l1.77.72a6.07,6.07,0,0,1-6.15,4.35c-4.26,0-6.75-2.73-6.75-7.77s2.52-7.95,6.66-7.95,6.33,2.4,6.33,7Zm-2.13-2c0-3.09-1.56-4.74-4.23-4.74s-4.47,1.92-4.53,5h8.76Z"/><path d="M633.08,501h2.76v-4l2.11-.9V501h3.86v1.74H638v9c0,1.77.77,2.55,2.33,2.55a6.12,6.12,0,0,0,1.53-.18V516a7.07,7.07,0,0,1-2.07.27c-2.91,0-3.9-1.77-3.9-4.44v-9.09h-2.76Z"/><path d="M653.27,510.51V501h2.07v9.3c0,2.94,1.38,4.26,3.42,4.26,2.73,0,4.38-2.34,4.38-5.37V501h2.1v15h-2v-3.09a5.14,5.14,0,0,1-4.86,3.45C654.66,516.36,653.27,514.08,653.27,510.51Z"/><path d="M670.94,501h2v3.3a5.11,5.11,0,0,1,5.13-3.66c3.36,0,5.1,2.07,5.1,6.09V516h-2.1v-9.15c0-2.91-1.26-4.41-3.63-4.41-2.7,0-4.41,2.16-4.41,5.67V516h-2.07Z"/><path d="M696.32,501h2v3.3a5.11,5.11,0,0,1,5.13-3.66c3.36,0,5.1,2.07,5.1,6.09V516h-2.1v-9.15c0-2.91-1.26-4.41-3.63-4.41-2.7,0-4.41,2.16-4.41,5.67V516h-2.07Z"/><path d="M712.34,508.5c0-4.89,2.73-7.86,6.9-7.86s6.87,3,6.87,7.86-2.73,7.86-6.87,7.86S712.34,513.39,712.34,508.5Zm11.55,0c0-3.9-1.77-6-4.65-6s-4.68,2.13-4.68,6,1.77,6,4.68,6S723.89,512.4,723.89,508.5Z"/><path d="M730,510.51V501H732v9.3c0,2.94,1.38,4.26,3.42,4.26,2.73,0,4.38-2.34,4.38-5.37V501h2.1v15h-2v-3.09a5.14,5.14,0,0,1-4.86,3.45C731.33,516.36,730,514.08,730,510.51Z"/><path d="M745.1,501h2.28l3.72,10.62c.27.84.48,1.53.63,2.22h.09c.15-.69.39-1.38.66-2.22L756.2,501h2.28l-5.55,15h-2.28Z"/><path d="M773.12,509H762.23c0,3.39,1.89,5.46,4.8,5.46a4.21,4.21,0,0,0,4.23-3.21L773,512a6.07,6.07,0,0,1-6.15,4.35c-4.26,0-6.75-2.73-6.75-7.77s2.52-7.95,6.66-7.95,6.33,2.4,6.33,7Zm-2.13-2c0-3.09-1.56-4.74-4.23-4.74s-4.47,1.92-4.53,5H771Z"/><path d="M776.21,512a3.79,3.79,0,0,1,1.83-3.36,12.9,12.9,0,0,1,4.92-1.35l3.33-.39v-.24c0-3.09-1.08-4.32-3.63-4.32-2.25,0-3.63,1.17-3.75,3.3h-2.25c.18-3.09,2.52-5,6-5,4,0,5.76,1.86,5.76,6.21v3.9a21.14,21.14,0,0,0,.48,5.25h-2.19a20.58,20.58,0,0,1-.27-3,5.14,5.14,0,0,1-5.22,3.36C778.19,516.36,776.21,514.62,776.21,512Zm10.11-2.58v-1l-4.26.6c-2.55.36-3.66,1.23-3.66,2.88s1.26,2.64,3.27,2.64C784.46,514.62,786.32,512.52,786.32,509.46Z"/><path d="M793.25,510.51V501h2.07v9.3c0,2.94,1.38,4.26,3.42,4.26,2.73,0,4.38-2.34,4.38-5.37V501h2.1v15h-2v-3.09a5.14,5.14,0,0,1-4.86,3.45C794.63,516.36,793.25,514.08,793.25,510.51Z"/><path d="M818.87,501h2v3.18a5.32,5.32,0,0,1,5.13-3.54c3.69,0,6.09,3.15,6.09,7.86s-2.55,7.86-6.24,7.86a5.06,5.06,0,0,1-4.89-3.18v8.67h-2.07Zm11,7.5c0-3.72-1.62-6-4.38-6s-4.56,2.34-4.56,5.64v.66c0,3.36,1.68,5.7,4.44,5.7S829.85,512.22,829.85,508.5Z"/><path d="M835,512a3.79,3.79,0,0,1,1.83-3.36,12.9,12.9,0,0,1,4.92-1.35l3.33-.39v-.24c0-3.09-1.08-4.32-3.63-4.32-2.25,0-3.63,1.17-3.75,3.3h-2.25c.18-3.09,2.52-5,6-5,4,0,5.76,1.86,5.76,6.21v3.9a21.14,21.14,0,0,0,.48,5.25h-2.19a20.58,20.58,0,0,1-.27-3,5.14,5.14,0,0,1-5.22,3.36C837,516.36,835,514.62,835,512Zm10.11-2.58v-1l-4.26.6c-2.55.36-3.66,1.23-3.66,2.88s1.26,2.64,3.27,2.64C843.26,514.62,845.12,512.52,845.12,509.46Z"/><path d="M859.1,500.64a3.63,3.63,0,0,1,.57,0v2h-.24a4.39,4.39,0,0,0-3.21,1.14c-1.38,1.38-1.65,3.39-1.65,5.28V516H852.5V501h2v3.66C855.14,502.35,856.79,500.64,859.1,500.64Z"/><path d="M861.56,508.5c0-4.89,2.61-7.86,6.81-7.86a5.67,5.67,0,0,1,6.06,5.43l-2.13.24c-.3-2.49-1.74-3.84-4-3.84-2.79,0-4.5,2.25-4.5,6s1.71,6.06,4.59,6.06c2.25,0,3.66-1.35,4-3.84l2,.3c-.54,3.39-2.76,5.37-6.06,5.37C864.2,516.36,861.56,513.33,861.56,508.5Z"/><path d="M884.81,514l5-6.24-5-6.24H887l5.16,6.24-5.1,6.24Zm5.61,0,5-6.24-5-6.24h2.22l5.16,6.24L892.64,514Z"/><path d="M917,506.67v2h-8.67v-2Z"/><path d="M932.39,499a4.59,4.59,0,0,1-3.66,1.65h-1v-2h.57a4.34,4.34,0,0,0,4.38-3.54h1.86V516h-2.19Z"/><path d="M939.92,511l2.28-.24a4.45,4.45,0,0,0,4.65,3.84c3,0,4.8-2.07,4.8-5.4S950,503.7,947,503.7a4.55,4.55,0,0,0-4.59,3.75l-2.13-.21,1.23-12.09h11.37v1.92h-9.72l-.81,7.83a5.43,5.43,0,0,1,5.19-3.06c4,0,6.36,2.76,6.36,7.23s-2.79,7.38-7.14,7.38C943.07,516.45,940.46,514.32,939.92,511Z"/><path d="M960.08,501v2.91a4.47,4.47,0,0,1,4.44-3.27,4.23,4.23,0,0,1,4.32,3.21,4.76,4.76,0,0,1,4.62-3.21c2.94,0,4.62,2,4.62,5.55V516H976v-9.63c0-2.55-1.08-3.93-3.15-3.93-2.28,0-3.69,1.68-3.69,4.44V516h-2.07v-9.75c0-2.43-1.14-3.81-3.12-3.81-2.28,0-3.75,1.86-3.75,4.8V516h-2.07V501Z"/><path d="M983.27,501h2v3.3a5.11,5.11,0,0,1,5.13-3.66c3.36,0,5.1,2.07,5.1,6.09V516h-2.1v-9.15c0-2.91-1.26-4.41-3.63-4.41-2.7,0-4.41,2.16-4.41,5.67V516h-2.07Z"/><path d="M217.11,545.61l2.34-.33c.33,2.88,2.13,5.31,6.15,5.31,2.76,0,5.13-1.23,5.13-4s-1.68-3.63-4.32-4.14l-3.15-.63c-3.06-.6-5.25-2.25-5.25-5.7s2.79-5.91,7.23-5.91c4.17,0,7.35,1.86,7.71,6.18l-2.34.45c-.3-3.21-2.1-4.77-5.43-4.77-2.88,0-4.77,1.47-4.77,3.84,0,2.13,1.2,3.36,3.78,3.9l3.15.63c3.27.66,5.79,2.1,5.79,5.91,0,3.48-2.61,6.18-7.62,6.18C220.17,552.51,217.41,549.57,217.11,545.61Z"/><path d="M236,544.5c0-4.89,2.61-7.86,6.81-7.86a5.67,5.67,0,0,1,6.06,5.43l-2.13.24c-.3-2.49-1.74-3.84-4-3.84-2.79,0-4.5,2.25-4.5,6s1.71,6.06,4.59,6.06c2.25,0,3.66-1.35,4.05-3.84l2,.3c-.54,3.39-2.76,5.37-6.06,5.37C238.62,552.36,236,549.33,236,544.5Z"/><path d="M264.75,545H253.86c0,3.39,1.89,5.46,4.8,5.46a4.21,4.21,0,0,0,4.23-3.21l1.77.72a6.07,6.07,0,0,1-6.15,4.35c-4.26,0-6.75-2.73-6.75-7.77s2.52-8,6.66-8,6.33,2.4,6.33,7Zm-2.13-2c0-3.09-1.56-4.74-4.23-4.74s-4.47,1.92-4.53,5h8.76Zm-3.33-8.46h-2l3-4.29h2.58Z"/><path d="M269.19,537h2v3.3a5.11,5.11,0,0,1,5.13-3.66c3.36,0,5.1,2.07,5.1,6.09V552h-2.1v-9.15c0-2.91-1.26-4.41-3.63-4.41-2.7,0-4.41,2.16-4.41,5.67V552h-2.07Z"/><path d="M285.27,548a3.79,3.79,0,0,1,1.83-3.36,12.9,12.9,0,0,1,4.92-1.35l3.33-.39v-.24c0-3.09-1.08-4.32-3.63-4.32-2.25,0-3.63,1.17-3.75,3.3h-2.25c.18-3.09,2.52-5,6-5,4,0,5.76,1.86,5.76,6.21v3.9a21.14,21.14,0,0,0,.48,5.25h-2.19a20.58,20.58,0,0,1-.27-3,5.14,5.14,0,0,1-5.22,3.36C287.25,552.36,285.27,550.62,285.27,548Zm10.11-2.58v-1l-4.26.6c-2.55.36-3.66,1.23-3.66,2.88s1.26,2.64,3.27,2.64C293.52,550.62,295.38,548.52,295.38,545.46Z"/><path d="M309.36,536.64a3.63,3.63,0,0,1,.57,0v2h-.24a4.39,4.39,0,0,0-3.21,1.14c-1.38,1.38-1.65,3.39-1.65,5.28V552h-2.07V537h1.95v3.66C305.4,538.35,307.05,536.64,309.36,536.64Z"/><path d="M313.29,531h2.37v3.3h-2.37Zm.15,6h2.07v15h-2.07Z"/><path d="M319.8,544.5c0-4.89,2.73-7.86,6.9-7.86s6.87,3,6.87,7.86-2.73,7.86-6.87,7.86S319.8,549.39,319.8,544.5Zm11.55,0c0-3.9-1.77-6-4.65-6s-4.68,2.13-4.68,6,1.77,6,4.68,6S331.35,548.4,331.35,544.5Z"/><path d="M344.07,543.75l5.13-6.24h2.22l-5,6.24,5,6.24h-2.25Zm5.61,0,5.13-6.24H357l-5,6.24L357,550h-2.22Z"/><path d="M370.92,530.7v13.8c0,3.63,2,5.94,5.64,5.94s5.67-2.31,5.67-5.94V530.7h2.34v13.95c0,4.71-2.85,7.86-8,7.86s-7.95-3.15-7.95-7.86V530.7Z"/><path d="M390.09,537h2v3.3a5.11,5.11,0,0,1,5.13-3.66c3.36,0,5.1,2.07,5.1,6.09V552h-2.1v-9.15c0-2.91-1.26-4.41-3.63-4.41-2.7,0-4.41,2.16-4.41,5.67V552h-2.07Z"/><path d="M425.19,549a5.1,5.1,0,0,1-4.95,3.36c-3.69,0-6.18-3.09-6.18-7.86s2.67-7.86,6.39-7.86a4.81,4.81,0,0,1,4.83,3.18l.45-2.82h1.56v20.85h-2.1Zm0-4.11v-.75c0-3.36-1.65-5.64-4.47-5.64s-4.47,2.25-4.47,6,1.65,6,4.44,6S425.22,548.22,425.22,544.89Z"/><path d="M432.51,546.51V537h2.07v9.3c0,2.94,1.38,4.26,3.42,4.26,2.73,0,4.38-2.34,4.38-5.37V537h2.1v15h-2v-3.09a5.14,5.14,0,0,1-4.86,3.45C433.89,552.36,432.51,550.08,432.51,546.51Z"/><path d="M448.83,548a3.79,3.79,0,0,1,1.83-3.36,12.9,12.9,0,0,1,4.92-1.35l3.33-.39v-.24c0-3.09-1.08-4.32-3.63-4.32-2.25,0-3.63,1.17-3.75,3.3h-2.25c.18-3.09,2.52-5,6-5,4,0,5.76,1.86,5.76,6.21v3.9a21.14,21.14,0,0,0,.48,5.25H459.3a20.58,20.58,0,0,1-.27-3,5.14,5.14,0,0,1-5.22,3.36C450.81,552.36,448.83,550.62,448.83,548Zm10.11-2.58v-1l-4.26.6c-2.55.36-3.66,1.23-3.66,2.88s1.26,2.64,3.27,2.64C457.08,550.62,458.94,548.52,458.94,545.46Z"/><path d="M472.92,536.64a3.63,3.63,0,0,1,.57,0v2h-.24a4.39,4.39,0,0,0-3.21,1.14c-1.38,1.38-1.65,3.39-1.65,5.28V552h-2.07V537h1.95v3.66C469,538.35,470.61,536.64,472.92,536.64Z"/><path d="M475.29,537h2.76v-4l2.1-.9V537H484v1.74h-3.87v9c0,1.77.78,2.55,2.34,2.55a6.12,6.12,0,0,0,1.53-.18V552a7.07,7.07,0,0,1-2.07.27c-2.91,0-3.9-1.77-3.9-4.44v-9.09h-2.76Z"/><path d="M487.83,531h2.37v3.3h-2.37Zm.15,6h2.07v15H488Z"/><path d="M507.33,545H496.44c0,3.39,1.89,5.46,4.8,5.46a4.21,4.21,0,0,0,4.23-3.21l1.77.72a6.07,6.07,0,0,1-6.15,4.35c-4.26,0-6.75-2.73-6.75-7.77s2.52-8,6.66-8,6.33,2.4,6.33,7Zm-2.13-2c0-3.09-1.56-4.74-4.23-4.74s-4.47,1.92-4.53,5h8.76Z"/><path d="M518.36,536.64a3.76,3.76,0,0,1,.58,0v2h-.24a4.39,4.39,0,0,0-3.21,1.14c-1.38,1.38-1.65,3.39-1.65,5.28V552h-2.07V537h2v3.66C514.41,538.35,516.06,536.64,518.36,536.64Z"/><path d="M530.4,537h2v3.18a5.32,5.32,0,0,1,5.13-3.54c3.69,0,6.09,3.15,6.09,7.86s-2.56,7.86-6.24,7.86a5.06,5.06,0,0,1-4.89-3.18v8.67H530.4Zm11,7.5c0-3.72-1.61-6-4.38-6s-4.55,2.34-4.55,5.64v.66c0,3.36,1.67,5.7,4.44,5.7S541.37,548.22,541.37,544.5Z"/><path d="M559.46,545H548.57c0,3.39,1.89,5.46,4.8,5.46a4.21,4.21,0,0,0,4.23-3.21l1.77.72a6.07,6.07,0,0,1-6.15,4.35c-4.26,0-6.74-2.73-6.74-7.77s2.51-8,6.65-8,6.33,2.4,6.33,7Zm-2.13-2c0-3.09-1.56-4.74-4.23-4.74s-4.47,1.92-4.53,5h8.76Z"/><path d="M570.5,536.64a3.63,3.63,0,0,1,.57,0v2h-.24a4.41,4.41,0,0,0-3.21,1.14c-1.38,1.38-1.64,3.39-1.64,5.28V552h-2.07V537h2v3.66C566.55,538.35,568.2,536.64,570.5,536.64Z"/><path d="M576.53,537v2.91a4.47,4.47,0,0,1,4.44-3.27,4.23,4.23,0,0,1,4.32,3.21,4.76,4.76,0,0,1,4.62-3.21c2.94,0,4.62,2,4.62,5.55V552h-2.1v-9.63c0-2.55-1.08-3.93-3.15-3.93-2.28,0-3.69,1.68-3.69,4.44V552h-2.07v-9.75c0-2.43-1.14-3.81-3.11-3.81-2.29,0-3.75,1.86-3.75,4.8V552h-2.08V537Z"/><path d="M611.36,545H600.47c0,3.39,1.89,5.46,4.8,5.46a4.21,4.21,0,0,0,4.23-3.21l1.77.72a6.07,6.07,0,0,1-6.15,4.35c-4.26,0-6.75-2.73-6.75-7.77s2.52-8,6.66-8,6.33,2.4,6.33,7Zm-2.13-2c0-3.09-1.56-4.74-4.23-4.74s-4.47,1.92-4.53,5h8.76Zm-3.33-8.46h-2l3-4.29h2.58Z"/><path d="M614.45,548a3.79,3.79,0,0,1,1.83-3.36,12.9,12.9,0,0,1,4.92-1.35l3.33-.39v-.24c0-3.09-1.08-4.32-3.63-4.32-2.24,0-3.63,1.17-3.74,3.3h-2.25c.17-3.09,2.51-5,6-5,4,0,5.76,1.86,5.76,6.21v3.9a21.14,21.14,0,0,0,.48,5.25h-2.19a20.58,20.58,0,0,1-.27-3,5.14,5.14,0,0,1-5.22,3.36C616.43,552.36,614.45,550.62,614.45,548Zm10.11-2.58v-1l-4.26.6c-2.55.36-3.66,1.23-3.66,2.88s1.27,2.64,3.27,2.64C622.7,550.62,624.56,548.52,624.56,545.46Z"/><path d="M634.07,549l-.39,3h-1.59V530.25h2.07v9.81a5.2,5.2,0,0,1,5-3.42c3.69,0,6.09,3.21,6.09,7.86s-2.46,7.86-6.24,7.86A5.2,5.2,0,0,1,634.07,549Zm9-4.5c0-3.63-1.62-6-4.5-6s-4.44,2.25-4.44,5.7v.72c0,3.33,1.68,5.58,4.38,5.58S643.07,548.16,643.07,544.5Z"/><path d="M651.8,552h-2.07V530.25h2.07Z"/><path d="M669.23,545H658.34c0,3.39,1.89,5.46,4.8,5.46a4.21,4.21,0,0,0,4.23-3.21l1.77.72a6.07,6.07,0,0,1-6.15,4.35c-4.26,0-6.75-2.73-6.75-7.77s2.52-8,6.66-8,6.33,2.4,6.33,7Zm-2.13-2c0-3.09-1.56-4.74-4.23-4.74s-4.47,1.92-4.53,5h8.76Z"/><path d="M679.73,550l5-6.24-5-6.24h2.22l5.16,6.24L682,550Zm5.61,0,5-6.24-5-6.24h2.22l5.16,6.24L687.56,550Z"/><path d="M712,542.67v2h-8.67v-2Z"/><path d="M727.31,535a4.59,4.59,0,0,1-3.66,1.65h-1v-2h.57a4.34,4.34,0,0,0,4.38-3.54h1.86V552h-2.19Z"/><path d="M734.84,547l2.28-.24a4.45,4.45,0,0,0,4.65,3.84c3,0,4.8-2.07,4.8-5.4s-1.62-5.46-4.68-5.46a4.55,4.55,0,0,0-4.59,3.75l-2.13-.21,1.23-12.09h11.37v1.92h-9.72l-.81,7.83a5.43,5.43,0,0,1,5.19-3.06c4,0,6.36,2.76,6.36,7.23s-2.79,7.38-7.14,7.38C738,552.45,735.38,550.32,734.84,547Z"/><path d="M755,537v2.91a4.47,4.47,0,0,1,4.44-3.27,4.23,4.23,0,0,1,4.32,3.21,4.76,4.76,0,0,1,4.62-3.21c2.94,0,4.62,2,4.62,5.55V552h-2.1v-9.63c0-2.55-1.08-3.93-3.15-3.93-2.28,0-3.69,1.68-3.69,4.44V552H762v-9.75c0-2.43-1.14-3.81-3.12-3.81-2.28,0-3.75,1.86-3.75,4.8V552h-2.07V537Z"/><path d="M778.22,537h2v3.3a5.11,5.11,0,0,1,5.13-3.66c3.36,0,5.1,2.07,5.1,6.09V552h-2.1v-9.15c0-2.91-1.26-4.41-3.63-4.41-2.7,0-4.41,2.16-4.41,5.67V552h-2.07Z"/><path d="M48.75,618.54V624H46.68v-5.46h-10V617l9.6-13.86h2.43V616.8h3.48v1.74Zm-2-13.17h-.06a11.71,11.71,0,0,1-1.32,2.34l-4.74,6.81a16.7,16.7,0,0,1-1.68,2.28h7.74v-8.67C46.68,606.72,46.68,606.33,46.74,605.37Z"/><path d="M58.11,624H55.29v-3.36h2.82Z"/><path d="M125.91,618.18c0,2.76-1.59,5.82-7,5.82h-7.8V602.7h7.23c5.52,0,7,3.06,7,5.58a4.6,4.6,0,0,1-3.75,4.71A4.84,4.84,0,0,1,125.91,618.18Zm-12.45-13.5v7.44h5c3.93,0,4.56-2.07,4.56-3.66,0-1.83-.87-3.78-4.65-3.78ZM123.6,618c0-2.16-1.2-3.9-4.53-3.9h-5.61V622h5.34C122.52,622,123.6,620.1,123.6,618Z"/><path d="M130.44,603h2.37v3.3h-2.37Zm.15,6h2.07v15h-2.07Z"/><path d="M140.58,624h-2.07V602.25h2.07Z"/><path d="M145.08,620a3.79,3.79,0,0,1,1.83-3.36,12.9,12.9,0,0,1,4.92-1.35l3.33-.39v-.24c0-3.09-1.08-4.32-3.63-4.32-2.25,0-3.63,1.17-3.75,3.3h-2.25c.18-3.09,2.52-5,6-5,4,0,5.76,1.86,5.76,6.21v3.9a21.14,21.14,0,0,0,.48,5.25h-2.19a20.58,20.58,0,0,1-.27-3,5.14,5.14,0,0,1-5.22,3.36C147.06,624.36,145.08,622.62,145.08,620Zm10.11-2.58v-1l-4.26.6c-2.55.36-3.66,1.23-3.66,2.88s1.26,2.64,3.27,2.64C153.33,622.62,155.19,620.52,155.19,617.46Z"/><path d="M162.57,609h2v3.3a5.11,5.11,0,0,1,5.13-3.66c3.36,0,5.1,2.07,5.1,6.09V624h-2.1v-9.15c0-2.91-1.26-4.41-3.63-4.41-2.7,0-4.41,2.16-4.41,5.67V624h-2.07Z"/><path d="M186.54,616.5c0-4.62,2.61-7.86,6.42-7.86a4.78,4.78,0,0,1,4.71,3.09v-9.48h2.1V624h-2v-3.18a5.23,5.23,0,0,1-5.07,3.54C189,624.36,186.54,621.18,186.54,616.5Zm11.16.33v-.63c0-3.42-1.65-5.7-4.44-5.7s-4.5,2.25-4.5,6,1.68,6,4.47,6S197.7,620.16,197.7,616.83Z"/><path d="M217.17,617H206.28c0,3.39,1.89,5.46,4.8,5.46a4.21,4.21,0,0,0,4.23-3.21l1.77.72a6.07,6.07,0,0,1-6.15,4.35c-4.26,0-6.75-2.73-6.75-7.77s2.52-8,6.66-8,6.33,2.4,6.33,7Zm-2.13-2c0-3.09-1.56-4.74-4.23-4.74s-4.47,1.92-4.53,5H215Z"/><path d="M231.78,624h-2.07V602.25h2.07Z"/><path d="M236.28,620a3.79,3.79,0,0,1,1.83-3.36,12.9,12.9,0,0,1,4.92-1.35l3.33-.39v-.24c0-3.09-1.08-4.32-3.63-4.32-2.25,0-3.63,1.17-3.75,3.3h-2.25c.18-3.09,2.52-5,6-5,4,0,5.76,1.86,5.76,6.21v3.9a21.14,21.14,0,0,0,.48,5.25h-2.19a20.58,20.58,0,0,1-.27-3,5.14,5.14,0,0,1-5.22,3.36C238.26,624.36,236.28,622.62,236.28,620Zm10.11-2.58v-1l-4.26.6c-2.55.36-3.66,1.23-3.66,2.88s1.26,2.64,3.27,2.64C244.53,622.62,246.39,620.52,246.39,617.46Z"/><path d="M260.31,616.5c0-4.62,2.61-7.86,6.42-7.86a4.78,4.78,0,0,1,4.71,3.09v-9.48h2.1V624h-2v-3.18a5.23,5.23,0,0,1-5.07,3.54C262.77,624.36,260.31,621.18,260.31,616.5Zm11.16.33v-.63c0-3.42-1.65-5.7-4.44-5.7s-4.5,2.25-4.5,6,1.68,6,4.47,6S271.47,620.16,271.47,616.83Z"/><path d="M279.21,603h2.37v3.3h-2.37Zm.15,6h2.07v15h-2.07Z"/><path d="M285.72,619.71l2.13-.36c.36,2.13,1.89,3.27,4.26,3.27,2.19,0,3.42-1,3.42-2.55s-.84-2.1-2.43-2.4l-2.91-.57c-2.49-.48-3.9-1.83-3.9-4.11,0-2.52,2.13-4.35,5.52-4.35s5.49,1.47,5.79,4.14l-2.1.45c-.3-1.83-1.59-2.88-3.78-2.88s-3.39,1-3.39,2.55c0,1.41.93,2.1,2.49,2.4l2.94.57c2.67.54,3.84,1.83,3.84,4,0,2.67-2,4.47-5.55,4.47S286.2,622.71,285.72,619.71Z"/><path d="M300.66,616.5c0-4.89,2.61-7.86,6.81-7.86a5.67,5.67,0,0,1,6.06,5.43l-2.13.24c-.3-2.49-1.74-3.84-4-3.84-2.79,0-4.5,2.25-4.5,6s1.71,6.06,4.59,6.06c2.25,0,3.66-1.35,4-3.84l2,.3c-.54,3.39-2.76,5.37-6.06,5.37C303.3,624.36,300.66,621.33,300.66,616.5Z"/><path d="M317.4,618.51V609h2.07v9.3c0,2.94,1.38,4.26,3.42,4.26,2.73,0,4.38-2.34,4.38-5.37V609h2.1v15h-2v-3.09a5.14,5.14,0,0,1-4.86,3.45C318.78,624.36,317.4,622.08,317.4,618.51Z"/><path d="M333.66,619.71l2.13-.36c.36,2.13,1.89,3.27,4.26,3.27,2.19,0,3.42-1,3.42-2.55s-.84-2.1-2.43-2.4l-2.91-.57c-2.49-.48-3.9-1.83-3.9-4.11,0-2.52,2.13-4.35,5.52-4.35s5.49,1.47,5.79,4.14l-2.1.45c-.3-1.83-1.59-2.88-3.78-2.88s-3.39,1-3.39,2.55c0,1.41.93,2.1,2.49,2.4l2.94.57c2.67.54,3.84,1.83,3.84,4,0,2.67-2,4.47-5.55,4.47S334.14,622.71,333.66,619.71Z"/><path d="M348.36,619.71l2.13-.36c.36,2.13,1.89,3.27,4.26,3.27,2.19,0,3.42-1,3.42-2.55s-.85-2.1-2.43-2.4l-2.91-.57c-2.49-.48-3.9-1.83-3.9-4.11,0-2.52,2.13-4.35,5.52-4.35s5.49,1.47,5.79,4.14l-2.1.45c-.3-1.83-1.59-2.88-3.78-2.88s-3.39,1-3.39,2.55c0,1.41.93,2.1,2.49,2.4l2.94.57c2.67.54,3.84,1.83,3.84,4,0,2.67-2,4.47-5.55,4.47S348.84,622.71,348.36,619.71Z"/><path d="M364.56,603h2.36v3.3h-2.36Zm.14,6h2.08v15H364.7Z"/><path d="M371.07,616.5c0-4.89,2.73-7.86,6.9-7.86s6.86,3,6.86,7.86-2.72,7.86-6.86,7.86S371.07,621.39,371.07,616.5Zm11.54,0c0-3.9-1.76-6-4.64-6s-4.68,2.13-4.68,6,1.77,6,4.68,6S382.61,620.4,382.61,616.5Z"/><path d="M389.12,609h2v3.3a5.09,5.09,0,0,1,5.13-3.66c3.35,0,5.09,2.07,5.09,6.09V624h-2.09v-9.15c0-2.91-1.27-4.41-3.63-4.41-2.7,0-4.41,2.16-4.41,5.67V624h-2.08Z"/><path d="M426.08,617H415.2c0,3.39,1.88,5.46,4.79,5.46a4.21,4.21,0,0,0,4.23-3.21L426,620a6.07,6.07,0,0,1-6.15,4.35c-4.26,0-6.75-2.73-6.75-7.77s2.52-8,6.66-8,6.33,2.4,6.33,7Zm-2.13-2c0-3.09-1.56-4.74-4.23-4.74s-4.47,1.92-4.52,5H424Z"/><path d="M428.24,609H431v-4l2.11-.9V609H437v1.74h-3.86v9c0,1.77.77,2.55,2.34,2.55a6.09,6.09,0,0,0,1.52-.18V624a7,7,0,0,1-2.06.27c-2.92,0-3.91-1.77-3.91-4.44v-9.09h-2.76Z"/><path d="M458.6,621a5.1,5.1,0,0,1-4.94,3.36c-3.7,0-6.18-3.09-6.18-7.86s2.66-7.86,6.38-7.86a4.81,4.81,0,0,1,4.83,3.18l.45-2.82h1.56v20.85h-2.1Zm0-4.11v-.75c0-3.36-1.65-5.64-4.47-5.64s-4.46,2.25-4.46,6,1.64,6,4.43,6S458.63,620.22,458.63,616.89Z"/><path d="M465.92,618.51V609H468v9.3c0,2.94,1.38,4.26,3.42,4.26,2.73,0,4.38-2.34,4.38-5.37V609h2.1v15h-2v-3.09a5.14,5.14,0,0,1-4.86,3.45C467.3,624.36,465.92,622.08,465.92,618.51Z"/><path d="M495.17,617H484.28c0,3.39,1.89,5.46,4.8,5.46a4.21,4.21,0,0,0,4.23-3.21l1.77.72a6.07,6.07,0,0,1-6.15,4.35c-4.26,0-6.75-2.73-6.75-7.77s2.52-8,6.66-8,6.33,2.4,6.33,7Zm-2.13-2c0-3.09-1.56-4.74-4.23-4.74s-4.47,1.92-4.53,5H493Z"/><path d="M498.2,619.71l2.13-.36c.36,2.13,1.89,3.27,4.26,3.27,2.19,0,3.42-1,3.42-2.55s-.84-2.1-2.43-2.4l-2.91-.57c-2.49-.48-3.9-1.83-3.9-4.11,0-2.52,2.13-4.35,5.52-4.35s5.49,1.47,5.79,4.14l-2.1.45c-.3-1.83-1.59-2.88-3.78-2.88s-3.39,1-3.39,2.55c0,1.41.93,2.1,2.49,2.4l2.94.57c2.67.54,3.84,1.83,3.84,4,0,2.67-2,4.47-5.55,4.47S498.68,622.71,498.2,619.71Z"/><path d="M512.21,609H515v-4l2.1-.9V609h3.87v1.74h-3.87v9c0,1.77.78,2.55,2.34,2.55a6.12,6.12,0,0,0,1.53-.18V624a7.07,7.07,0,0,1-2.07.27c-2.91,0-3.9-1.77-3.9-4.44v-9.09h-2.76Z"/><path d="M524.75,603h2.37v3.3h-2.37Zm.15,6H527v15H524.9Z"/><path d="M531.26,616.5c0-4.89,2.73-7.86,6.9-7.86s6.87,3,6.87,7.86-2.73,7.86-6.87,7.86S531.26,621.39,531.26,616.5Zm11.55,0c0-3.9-1.77-6-4.65-6s-4.68,2.13-4.68,6,1.77,6,4.68,6S542.81,620.4,542.81,616.5Z"/><path d="M549.32,609h2v3.3a5.11,5.11,0,0,1,5.13-3.66c3.36,0,5.1,2.07,5.1,6.09V624h-2.1v-9.15c0-2.91-1.26-4.41-3.63-4.41-2.7,0-4.41,2.16-4.41,5.67V624h-2.07Z"/><path d="M566.72,609h2v3.3a5.11,5.11,0,0,1,5.13-3.66c3.36,0,5.1,2.07,5.1,6.09V624h-2.1v-9.15c0-2.91-1.26-4.41-3.63-4.41-2.7,0-4.41,2.16-4.41,5.67V624h-2.07Z"/><path d="M582.8,620a3.79,3.79,0,0,1,1.83-3.36,12.9,12.9,0,0,1,4.92-1.35l3.33-.39v-.24c0-3.09-1.08-4.32-3.63-4.32-2.25,0-3.63,1.17-3.75,3.3h-2.25c.18-3.09,2.52-5,6-5,4,0,5.76,1.86,5.76,6.21v3.9a21.14,21.14,0,0,0,.48,5.25h-2.19a20.58,20.58,0,0,1-.27-3,5.14,5.14,0,0,1-5.22,3.36C584.78,624.36,582.8,622.62,582.8,620Zm10.11-2.58v-1l-4.26.6c-2.55.36-3.66,1.23-3.66,2.88s1.26,2.64,3.27,2.64C591.05,622.62,592.91,620.52,592.91,617.46Z"/><path d="M600.14,603h2.37v3.3h-2.37Zm.15,6h2.07v15h-2.07Z"/><path d="M614.66,608.64a3.63,3.63,0,0,1,.57,0v2H615a4.39,4.39,0,0,0-3.21,1.14c-1.38,1.38-1.65,3.39-1.65,5.28V624h-2.07V609h2v3.66C610.7,610.35,612.35,608.64,614.66,608.64Z"/><path d="M630.08,617H619.19c0,3.39,1.89,5.46,4.8,5.46a4.21,4.21,0,0,0,4.23-3.21L630,620a6.07,6.07,0,0,1-6.15,4.35c-4.26,0-6.75-2.73-6.75-7.77s2.52-8,6.66-8,6.33,2.4,6.33,7Zm-2.13-2c0-3.09-1.56-4.74-4.23-4.74s-4.47,1.92-4.53,5H628Z"/><path d="M654.05,617H643.16c0,3.39,1.89,5.46,4.8,5.46a4.21,4.21,0,0,0,4.23-3.21L654,620a6.07,6.07,0,0,1-6.15,4.35c-4.26,0-6.75-2.73-6.75-7.77s2.52-8,6.66-8,6.33,2.4,6.33,7Zm-2.13-2c0-3.09-1.56-4.74-4.23-4.74s-4.47,1.92-4.53,5h8.76Z"/><path d="M658.49,609h2v3.3a5.11,5.11,0,0,1,5.13-3.66c3.36,0,5.1,2.07,5.1,6.09V624h-2.1v-9.15c0-2.91-1.26-4.41-3.63-4.41-2.7,0-4.41,2.16-4.41,5.67V624h-2.07Z"/><path d="M686.09,624H684V602.25h2.07Z"/><path d="M691.79,603h2.37v3.3h-2.37Zm.15,6H694v15h-2.07Z"/><path d="M708.71,610.05a4.86,4.86,0,0,1,1.5,3.63c0,2.91-2.07,5.07-5.46,5.07a6.18,6.18,0,0,1-2.88-.66,1.81,1.81,0,0,0-1.29,1.65c0,1,.75,1.71,2.55,1.71h3.93c3.24,0,4.89,1.47,4.89,4.08,0,2.82-2.22,4.68-7.23,4.68S698,628.32,698,626a3.31,3.31,0,0,1,2.52-3.18,2.65,2.65,0,0,1-1.8-2.58,3,3,0,0,1,2.13-2.88,5,5,0,0,1-1.56-3.72c0-2.91,2.1-5,5.46-5a6.35,6.35,0,0,1,2.94.66,3.45,3.45,0,0,1,3.54-2.7,4.51,4.51,0,0,1,.87.09v1.86a4.18,4.18,0,0,0-1-.12A2.4,2.4,0,0,0,708.71,610.05Zm-5.64,13.23c-.42,0-.81,0-1.17-.06a2.63,2.63,0,0,0-1.83,2.46c0,2,1.95,2.79,4.89,2.79,3.72,0,4.89-1.17,4.89-2.82s-1.11-2.37-3.27-2.37Zm5.16-9.57a3.48,3.48,0,1,0-3.48,3.42A3.3,3.3,0,0,0,708.23,613.71Z"/><path d="M715.49,609h2v3.3a5.11,5.11,0,0,1,5.13-3.66c3.36,0,5.1,2.07,5.1,6.09V624h-2.1v-9.15c0-2.91-1.26-4.41-3.63-4.41-2.7,0-4.41,2.16-4.41,5.67V624h-2.07Z"/><path d="M744.5,617H733.61c0,3.39,1.89,5.46,4.8,5.46a4.21,4.21,0,0,0,4.23-3.21l1.77.72a6.07,6.07,0,0,1-6.15,4.35c-4.26,0-6.75-2.73-6.75-7.77s2.52-8,6.66-8,6.33,2.4,6.33,7Zm-2.13-2c0-3.09-1.56-4.74-4.23-4.74s-4.47,1.92-4.53,5h8.76Z"/><g class="cls-3"><path d="M182.32,508.05l.33-1c-.92-2.95-1.71-5.95-2.78-8.85a9.18,9.18,0,0,1,.5-7.59c5.83-12.61,4.83-24.84-3.43-36-8.1-10.91-19.31-15.57-32.8-13.68-14.09,2-23.85,10-28.33,23.37-4.37,13.06-1.73,25.27,8,35.24,9.9,10.13,22.33,13.65,35.55,8.87,7.94-2.88,15-5,22.94-.42m-62.52-6.88c-7.91-9.48-11.26-20.1-9.28-32.1s8.85-21.06,19.2-27.63c-8.21-12.94-19.39-21.17-34.35-23.26-18.52-2.6-33.86,4-45.08,18.68-11,14.47-12.63,30.67-5.49,47.46a11,11,0,0,1,.54,8.31c-1.39,4.21-2.69,8.45-4.16,13.11,5.61-.78,10.73-1.62,15.87-2.15a7.47,7.47,0,0,1,4.48,1A49.31,49.31,0,0,0,81,512.26c14.52,2.07,27.37-1.66,38.77-11.09m13.58-61.58c12.29-5,24.15-4.28,35.48,2.2,17.09,9.76,23.92,31.73,15.88,49.82a11.28,11.28,0,0,0-.42,6.52c.74,3.47,2.24,6.78,3.24,10.22.31,1.07.53,2.81,0,3.34s-2.31.47-3.43.21c-4.05-.93-8-2.11-12.09-3a5.77,5.77,0,0,0-3.57.25c-16.24,8.28-31.41,6.56-45.86-4.83-1.92,1.37-3.88,2.95-6,4.26-18.45,11.28-37,11.36-55.83.76A10.58,10.58,0,0,0,55,508.05c-5.17.45-10.3,1.37-15.45,2.08-3.13.43-4.12-.64-3.2-3.65,1.59-5.19,3.39-10.31,4.89-15.52a6.67,6.67,0,0,0-.28-4.21,51.54,51.54,0,0,1,45.85-72.87c18.21-.42,32.67,6.9,43.55,21.43,1,1.29,1.87,2.63,3,4.28"/><path d="M71.5,467.05a4.17,4.17,0,1,1-4.17-4.17,4.17,4.17,0,0,1,4.17,4.17"/><path d="M91.52,467.05a4.17,4.17,0,1,1-4.17-4.17,4.17,4.17,0,0,1,4.17,4.17"/><path d="M108.65,467.05a4.17,4.17,0,1,1-4.17-4.17,4.17,4.17,0,0,1,4.17,4.17"/><path d="M136.94,476.68a4.17,4.17,0,1,1-4.17-4.17,4.17,4.17,0,0,1,4.17,4.17"/><path d="M150.83,476.68a4.17,4.17,0,1,1-4.17-4.17,4.17,4.17,0,0,1,4.17,4.17"/><path d="M165.18,476.68a4.17,4.17,0,1,1-4.17-4.17,4.17,4.17,0,0,1,4.17,4.17"/></g></g></g></svg>