<svg id="Calque_1" data-name="Calque 1" xmlns="http://www.w3.org/2000/svg" xmlns:xlink="http://www.w3.org/1999/xlink" viewBox="0 0 1190.55 841.89"><defs><style>.cls-1,.cls-18{fill:none;}.cls-2{clip-path:url(#clip-path);}.cls-3{clip-path:url(#clip-path-3);}.cls-4{clip-path:url(#clip-path-4);}.cls-5{clip-path:url(#clip-path-5);}.cls-6{clip-path:url(#clip-path-6);}.cls-7{clip-path:url(#clip-path-7);}.cls-8{clip-path:url(#clip-path-8);}.cls-9{clip-path:url(#clip-path-9);}.cls-10{clip-path:url(#clip-path-10);}.cls-11{clip-path:url(#clip-path-11);}.cls-12{opacity:0.4;}.cls-13{clip-path:url(#clip-path-12);}.cls-14{fill:#2c7525;}.cls-15{clip-path:url(#clip-path-13);}.cls-16{fill:#fff;}.cls-17{fill:#e52321;}.cls-18{stroke:#e52721;}</style><clipPath id="clip-path"><rect class="cls-1" width="1190.55" height="841.89"/></clipPath><clipPath id="clip-path-3"><rect class="cls-1" x="607.32" y="174.78" width="364.85" height="272.96"/></clipPath><clipPath id="clip-path-4"><rect class="cls-1" x="606.28" y="173.76" width="365.9" height="275.09"/></clipPath><clipPath id="clip-path-5"><rect class="cls-1" x="36" y="174.78" width="364.85" height="272.96"/></clipPath><clipPath id="clip-path-6"><rect class="cls-1" x="34.81" y="174.78" width="366.04" height="272.96"/></clipPath><clipPath id="clip-path-7"><rect class="cls-1" x="36" y="501.22" width="547.94" height="304.67"/></clipPath><clipPath id="clip-path-8"><rect class="cls-1" x="34.96" y="500.17" width="550.07" height="306.72"/></clipPath><clipPath id="clip-path-9"><rect class="cls-1" x="606.61" y="501.22" width="547.94" height="304.67"/></clipPath><clipPath id="clip-path-10"><rect class="cls-1" x="605.58" y="500.17" width="550.07" height="306.72"/></clipPath><clipPath id="clip-path-11"><rect class="cls-1" width="1190.55" height="841.89"/></clipPath><clipPath id="clip-path-12"><rect class="cls-1" x="291.98" y="613.49" width="93.02" height="98"/></clipPath><clipPath id="clip-path-13"><rect class="cls-1" x="790.51" y="616.76" width="239.71" height="85.24"/></clipPath></defs><g class="cls-2"><g class="cls-2"><path d="M37.11,123.75l5.13-6.24h2.22l-5,6.24,5,6.24H42.21Zm5.61,0,5.13-6.24h2.22l-5,6.24L50,130H47.82Z"/><path d="M55.47,110.7v13.8c0,3.63,2,5.94,5.64,5.94s5.67-2.31,5.67-5.94V110.7h2.34v14c0,4.71-2.85,7.86-8,7.86s-8-3.15-8-7.86v-14Z"/><path d="M74.1,117h2v3.3a5.11,5.11,0,0,1,5.13-3.66c3.36,0,5.1,2.07,5.1,6.09V132h-2.1v-9.15c0-2.91-1.26-4.41-3.63-4.41-2.7,0-4.41,2.16-4.41,5.67V132H74.1Z"/><path d="M102.6,125H91.71c0,3.39,1.89,5.46,4.8,5.46a4.21,4.21,0,0,0,4.23-3.21l1.77.72a6.07,6.07,0,0,1-6.15,4.35c-4.26,0-6.75-2.73-6.75-7.77s2.52-8,6.66-8,6.33,2.4,6.33,7Zm-2.13-2c0-3.09-1.56-4.74-4.23-4.74s-4.47,1.92-4.53,5h8.76Z"/><path d="M113.13,117h2v3.18a5.32,5.32,0,0,1,5.13-3.54c3.69,0,6.09,3.15,6.09,7.86s-2.55,7.86-6.24,7.86a5.06,5.06,0,0,1-4.89-3.18v8.67h-2.07Zm11,7.5c0-3.72-1.62-6-4.38-6s-4.56,2.34-4.56,5.64v.66c0,3.36,1.68,5.7,4.44,5.7S124.11,128.22,124.11,124.5Z"/><path d="M132.3,132h-2.07V110.25h2.07Z"/><path d="M136.26,128a3.79,3.79,0,0,1,1.83-3.36,12.9,12.9,0,0,1,4.92-1.35l3.33-.39v-.24c0-3.09-1.08-4.32-3.63-4.32-2.25,0-3.63,1.17-3.75,3.3h-2.25c.18-3.09,2.52-5,6-5,4,0,5.76,1.86,5.76,6.21v3.9a21.14,21.14,0,0,0,.48,5.25h-2.19a20.58,20.58,0,0,1-.27-3,5.14,5.14,0,0,1-5.22,3.36C138.24,132.36,136.26,130.62,136.26,128Zm10.11-2.58v-1l-4.26.6c-2.55.36-3.66,1.23-3.66,2.88s1.26,2.64,3.27,2.64C144.51,130.62,146.37,128.52,146.37,125.46Z"/><path d="M151.68,124.5c0-4.89,2.61-7.86,6.81-7.86a5.67,5.67,0,0,1,6.06,5.43l-2.13.24c-.3-2.49-1.74-3.84-4-3.84-2.79,0-4.5,2.25-4.5,6s1.71,6.06,4.59,6.06c2.25,0,3.66-1.35,4-3.84l2,.3c-.54,3.39-2.76,5.37-6.06,5.37C154.32,132.36,151.68,129.33,151.68,124.5Z"/><path d="M179.94,125H169.05c0,3.39,1.89,5.46,4.8,5.46a4.21,4.21,0,0,0,4.23-3.21l1.77.72a6.07,6.07,0,0,1-6.15,4.35c-4.26,0-6.75-2.73-6.75-7.77s2.52-8,6.66-8,6.33,2.4,6.33,7Zm-2.13-2c0-3.09-1.56-4.74-4.23-4.74s-4.47,1.92-4.53,5h8.76Z"/><path d="M189.12,128a3.79,3.79,0,0,1,1.83-3.36,12.9,12.9,0,0,1,4.92-1.35l3.33-.39v-.24c0-3.09-1.08-4.32-3.63-4.32-2.25,0-3.63,1.17-3.75,3.3h-2.25c.18-3.09,2.52-5,6-5,4,0,5.76,1.86,5.76,6.21v3.9a21.14,21.14,0,0,0,.48,5.25h-2.19a20.58,20.58,0,0,1-.27-3,5.14,5.14,0,0,1-5.22,3.36C191.1,132.36,189.12,130.62,189.12,128Zm10.11-2.58v-1l-4.26.6c-2.55.36-3.66,1.23-3.66,2.88s1.26,2.64,3.27,2.64C197.37,130.62,199.23,128.52,199.23,125.46Z"/><path d="M206.07,117h2v3.3a5.11,5.11,0,0,1,5.13-3.66c3.36,0,5.1,2.07,5.1,6.09V132h-2.1v-9.15c0-2.91-1.26-4.41-3.63-4.41-2.7,0-4.41,2.16-4.41,5.67V132h-2.07Z"/><path d="M222.81,111h2.37v3.3h-2.37Zm.15,6H225v15H223Z"/><path d="M232.17,117v2.91a4.47,4.47,0,0,1,4.44-3.27,4.23,4.23,0,0,1,4.32,3.21,4.76,4.76,0,0,1,4.62-3.21c2.94,0,4.62,2,4.62,5.55V132h-2.1v-9.63c0-2.55-1.08-3.93-3.15-3.93-2.28,0-3.69,1.68-3.69,4.44V132h-2.07v-9.75c0-2.43-1.14-3.81-3.12-3.81-2.28,0-3.75,1.86-3.75,4.8V132h-2.07V117Z"/><path d="M266.46,125H255.57c0,3.39,1.89,5.46,4.8,5.46a4.21,4.21,0,0,0,4.23-3.21l1.77.72a6.07,6.07,0,0,1-6.15,4.35c-4.26,0-6.75-2.73-6.75-7.77s2.52-8,6.66-8,6.33,2.4,6.33,7Zm-2.13-2c0-3.09-1.56-4.74-4.23-4.74s-4.47,1.92-4.53,5h8.76ZM261,114.6h-2l3-4.29h2.58Z"/><path d="M281.94,125H271.05c0,3.39,1.89,5.46,4.8,5.46a4.21,4.21,0,0,0,4.23-3.21l1.77.72a6.07,6.07,0,0,1-6.15,4.35c-4.26,0-6.75-2.73-6.75-7.77s2.52-8,6.66-8,6.33,2.4,6.33,7Zm-2.13-2c0-3.09-1.56-4.74-4.23-4.74s-4.47,1.92-4.53,5h8.76Z"/><path d="M304.05,125H293.16c0,3.39,1.89,5.46,4.8,5.46a4.21,4.21,0,0,0,4.23-3.21L304,128a6.07,6.07,0,0,1-6.15,4.35c-4.26,0-6.75-2.73-6.75-7.77s2.52-8,6.66-8,6.33,2.4,6.33,7Zm-2.13-2c0-3.09-1.56-4.74-4.23-4.74s-4.47,1.92-4.53,5h8.76Z"/><path d="M305.67,117h2.76v-4l2.1-.9V117h3.87v1.74h-3.87v9c0,1.77.78,2.55,2.34,2.55a6.12,6.12,0,0,0,1.53-.18V132a7.07,7.07,0,0,1-2.07.27c-2.91,0-3.9-1.77-3.9-4.44v-9.09h-2.76Z"/><path d="M324,126.51V117H326v9.3c0,2.94,1.38,4.26,3.42,4.26,2.73,0,4.38-2.34,4.38-5.37V117h2.1v15h-2v-3.09a5.14,5.14,0,0,1-4.86,3.45C325.35,132.36,324,130.08,324,126.51Z"/><path d="M341.13,117h2v3.3a5.11,5.11,0,0,1,5.13-3.66c3.36,0,5.1,2.07,5.1,6.09V132h-2.1v-9.15c0-2.91-1.26-4.41-3.63-4.41-2.7,0-4.41,2.16-4.41,5.67V132h-2.07Z"/><path d="M364.65,117h2v3.3a5.11,5.11,0,0,1,5.13-3.66c3.36,0,5.1,2.07,5.1,6.09V132h-2.1v-9.15c0-2.91-1.26-4.41-3.63-4.41-2.7,0-4.41,2.16-4.41,5.67V132h-2.07Z"/><path d="M380.16,124.5c0-4.89,2.73-7.86,6.9-7.86s6.87,3,6.87,7.86-2.73,7.86-6.87,7.86S380.16,129.39,380.16,124.5Zm11.55,0c0-3.9-1.77-6-4.65-6s-4.68,2.13-4.68,6,1.77,6,4.68,6S391.71,128.4,391.71,124.5Z"/><path d="M397.23,126.51V117h2.07v9.3c0,2.94,1.38,4.26,3.42,4.26,2.73,0,4.38-2.34,4.38-5.37V117h2.1v15h-2v-3.09a5.14,5.14,0,0,1-4.86,3.45C398.61,132.36,397.23,130.08,397.23,126.51Z"/><path d="M411.87,117h2.28l3.72,10.62c.27.84.48,1.53.63,2.22h.09c.15-.69.39-1.38.66-2.22L423,117h2.28l-5.55,15h-2.28Z"/><path d="M439.32,125H428.43c0,3.39,1.89,5.46,4.8,5.46a4.21,4.21,0,0,0,4.23-3.21l1.77.72a6.07,6.07,0,0,1-6.15,4.35c-4.26,0-6.75-2.73-6.75-7.77s2.52-8,6.66-8,6.33,2.4,6.33,7Zm-2.13-2c0-3.09-1.56-4.74-4.23-4.74s-4.47,1.92-4.53,5h8.76Z"/><path d="M441.87,128a3.79,3.79,0,0,1,1.83-3.36,12.9,12.9,0,0,1,4.92-1.35l3.32-.39v-.24c0-3.09-1.07-4.32-3.63-4.32-2.24,0-3.62,1.17-3.74,3.3h-2.25c.18-3.09,2.52-5,6-5,4,0,5.76,1.86,5.76,6.21v3.9a21.23,21.23,0,0,0,.47,5.25h-2.18a19.17,19.17,0,0,1-.28-3,5.13,5.13,0,0,1-5.22,3.36C443.84,132.36,441.87,130.62,441.87,128Zm10.1-2.58v-1l-4.25.6c-2.55.36-3.67,1.23-3.67,2.88s1.27,2.64,3.28,2.64C450.12,130.62,452,128.52,452,125.46Z"/><path d="M458.39,126.51V117h2.08v9.3c0,2.94,1.37,4.26,3.42,4.26,2.72,0,4.37-2.34,4.37-5.37V117h2.1v15h-2v-3.09a5.17,5.17,0,0,1-4.87,3.45C459.78,132.36,458.39,130.08,458.39,126.51Z"/><path d="M482.15,117h2v3.18a5.3,5.3,0,0,1,5.12-3.54c3.69,0,6.09,3.15,6.09,7.86s-2.55,7.86-6.24,7.86a5.06,5.06,0,0,1-4.89-3.18v8.67h-2.07Zm11,7.5c0-3.72-1.62-6-4.38-6s-4.56,2.34-4.56,5.64v.66c0,3.36,1.68,5.7,4.45,5.7S493.13,128.22,493.13,124.5Z"/><path d="M497.76,128a3.79,3.79,0,0,1,1.83-3.36,12.9,12.9,0,0,1,4.92-1.35l3.32-.39v-.24c0-3.09-1.07-4.32-3.63-4.32-2.24,0-3.63,1.17-3.74,3.3h-2.25c.18-3.09,2.51-5,6-5,4,0,5.75,1.86,5.75,6.21v3.9a21.14,21.14,0,0,0,.48,5.25h-2.19a20.58,20.58,0,0,1-.27-3,5.14,5.14,0,0,1-5.22,3.36C499.73,132.36,497.76,130.62,497.76,128Zm10.1-2.58v-1l-4.26.6c-2.55.36-3.66,1.23-3.66,2.88s1.27,2.64,3.28,2.64C506,130.62,507.86,128.52,507.86,125.46Z"/><path d="M521.33,116.64a3.63,3.63,0,0,1,.57,0v2h-.24a4.39,4.39,0,0,0-3.21,1.14c-1.38,1.38-1.65,3.39-1.65,5.28V132h-2.07V117h1.95v3.66C517.38,118.35,519,116.64,521.33,116.64Z"/><path d="M523.22,124.5c0-4.89,2.61-7.86,6.81-7.86a5.67,5.67,0,0,1,6.06,5.43l-2.13.24c-.3-2.49-1.74-3.84-4-3.84-2.79,0-4.5,2.25-4.5,6s1.71,6.06,4.59,6.06c2.25,0,3.66-1.35,4.05-3.84l2,.3c-.54,3.39-2.76,5.37-6.06,5.37C525.86,132.36,523.22,129.33,523.22,124.5Z"/><path d="M537.74,130l5-6.24-5-6.24h2.22l5.16,6.24L540,130Zm5.61,0,5-6.24-5-6.24h2.22l5.16,6.24L545.57,130Z"/><path d="M608.43,123.75l5.13-6.24h2.22l-5,6.24,5,6.24h-2.25Zm5.61,0,5.13-6.24h2.22l-5,6.24,5,6.24h-2.22Z"/><path d="M627.33,110.7v13.8c0,3.63,2,5.94,5.64,5.94s5.67-2.31,5.67-5.94V110.7H641v14c0,4.71-2.85,7.86-8,7.86s-8-3.15-8-7.86v-14Z"/><path d="M646.5,117h2v3.3a5.11,5.11,0,0,1,5.13-3.66c3.36,0,5.1,2.07,5.1,6.09V132h-2.1v-9.15c0-2.91-1.26-4.41-3.63-4.41-2.7,0-4.41,2.16-4.41,5.67V132H646.5Z"/><path d="M681.6,129a5.1,5.1,0,0,1-5,3.36c-3.69,0-6.18-3.09-6.18-7.86s2.67-7.86,6.39-7.86a4.81,4.81,0,0,1,4.83,3.18l.45-2.82h1.56v20.85h-2.1Zm0-4.11v-.75c0-3.36-1.65-5.64-4.47-5.64s-4.47,2.25-4.47,6,1.65,6,4.44,6S681.63,128.22,681.63,124.89Z"/><path d="M688.92,126.51V117H691v9.3c0,2.94,1.38,4.26,3.42,4.26,2.73,0,4.38-2.34,4.38-5.37V117h2.1v15h-2v-3.09a5.14,5.14,0,0,1-4.86,3.45C690.3,132.36,688.92,130.08,688.92,126.51Z"/><path d="M705.24,128a3.79,3.79,0,0,1,1.83-3.36,12.9,12.9,0,0,1,4.92-1.35l3.33-.39v-.24c0-3.09-1.08-4.32-3.63-4.32-2.25,0-3.63,1.17-3.75,3.3h-2.25c.18-3.09,2.52-5,6-5,4,0,5.76,1.86,5.76,6.21v3.9a21.14,21.14,0,0,0,.48,5.25h-2.19a20.58,20.58,0,0,1-.27-3,5.14,5.14,0,0,1-5.22,3.36C707.22,132.36,705.24,130.62,705.24,128Zm10.11-2.58v-1l-4.26.6c-2.55.36-3.66,1.23-3.66,2.88s1.26,2.64,3.27,2.64C713.49,130.62,715.35,128.52,715.35,125.46Z"/><path d="M729.33,116.64a3.63,3.63,0,0,1,.57,0v2h-.24a4.39,4.39,0,0,0-3.21,1.14c-1.38,1.38-1.65,3.39-1.65,5.28V132h-2.07V117h1.95v3.66C725.37,118.35,727,116.64,729.33,116.64Z"/><path d="M731.7,117h2.76v-4l2.1-.9V117h3.87v1.74h-3.87v9c0,1.77.78,2.55,2.34,2.55a6.12,6.12,0,0,0,1.53-.18V132a7.07,7.07,0,0,1-2.07.27c-2.91,0-3.9-1.77-3.9-4.44v-9.09H731.7Z"/><path d="M744.24,111h2.37v3.3h-2.37Zm.15,6h2.07v15h-2.07Z"/><path d="M763.74,125H752.85c0,3.39,1.89,5.46,4.8,5.46a4.21,4.21,0,0,0,4.23-3.21l1.77.72a6.07,6.07,0,0,1-6.15,4.35c-4.26,0-6.75-2.73-6.75-7.77s2.52-8,6.66-8,6.33,2.4,6.33,7Zm-2.13-2c0-3.09-1.56-4.74-4.23-4.74s-4.47,1.92-4.53,5h8.76Z"/><path d="M774.78,116.64a3.63,3.63,0,0,1,.57,0v2h-.24a4.39,4.39,0,0,0-3.21,1.14c-1.38,1.38-1.65,3.39-1.65,5.28V132h-2.07V117h2v3.66C770.82,118.35,772.47,116.64,774.78,116.64Z"/><path d="M786.81,117h2v3.18a5.32,5.32,0,0,1,5.13-3.54c3.69,0,6.09,3.15,6.09,7.86s-2.55,7.86-6.24,7.86a5.06,5.06,0,0,1-4.89-3.18v8.67h-2.07Zm11,7.5c0-3.72-1.62-6-4.38-6s-4.56,2.34-4.56,5.64v.66c0,3.36,1.68,5.7,4.44,5.7S797.79,128.22,797.79,124.5Z"/><path d="M815.88,125H805c0,3.39,1.89,5.46,4.8,5.46a4.21,4.21,0,0,0,4.23-3.21l1.77.72a6.07,6.07,0,0,1-6.15,4.35c-4.26,0-6.75-2.73-6.75-7.77s2.52-8,6.66-8,6.33,2.4,6.33,7Zm-2.13-2c0-3.09-1.56-4.74-4.23-4.74s-4.47,1.92-4.53,5h8.76Z"/><path d="M826.92,116.64a3.63,3.63,0,0,1,.57,0v2h-.24a4.39,4.39,0,0,0-3.21,1.14c-1.38,1.38-1.65,3.39-1.65,5.28V132h-2.07V117h1.95v3.66C823,118.35,824.61,116.64,826.92,116.64Z"/><path d="M833,117v2.91a4.47,4.47,0,0,1,4.44-3.27,4.23,4.23,0,0,1,4.32,3.21,4.76,4.76,0,0,1,4.62-3.21c2.94,0,4.62,2,4.62,5.55V132h-2.1v-9.63c0-2.55-1.08-3.93-3.15-3.93-2.28,0-3.69,1.68-3.69,4.44V132h-2.07v-9.75c0-2.43-1.14-3.81-3.12-3.81-2.28,0-3.75,1.86-3.75,4.8V132H831V117Z"/><path d="M867.78,125H856.89c0,3.39,1.89,5.46,4.8,5.46a4.21,4.21,0,0,0,4.23-3.21l1.77.72a6.07,6.07,0,0,1-6.15,4.35c-4.26,0-6.75-2.73-6.75-7.77s2.52-8,6.66-8,6.33,2.4,6.33,7Zm-2.13-2c0-3.09-1.56-4.74-4.23-4.74s-4.47,1.92-4.53,5h8.76Zm-3.33-8.46h-2l3-4.29h2.58Z"/><path d="M870.87,128a3.79,3.79,0,0,1,1.83-3.36,12.9,12.9,0,0,1,4.92-1.35l3.33-.39v-.24c0-3.09-1.08-4.32-3.63-4.32-2.25,0-3.63,1.17-3.75,3.3h-2.25c.18-3.09,2.52-5,6-5,4,0,5.76,1.86,5.76,6.21v3.9a21.14,21.14,0,0,0,.48,5.25h-2.19a20.58,20.58,0,0,1-.27-3,5.14,5.14,0,0,1-5.22,3.36C872.85,132.36,870.87,130.62,870.87,128ZM881,125.46v-1l-4.26.6c-2.55.36-3.66,1.23-3.66,2.88s1.26,2.64,3.27,2.64C879.12,130.62,881,128.52,881,125.46Z"/><path d="M890.49,129l-.39,3h-1.59V110.25h2.07v9.81a5.2,5.2,0,0,1,5-3.42c3.69,0,6.09,3.21,6.09,7.86s-2.46,7.86-6.24,7.86A5.2,5.2,0,0,1,890.49,129Zm9-4.5c0-3.63-1.62-6-4.5-6s-4.44,2.25-4.44,5.7v.72c0,3.33,1.68,5.58,4.38,5.58C897.78,130.5,899.49,128.16,899.49,124.5Z"/><path d="M908.22,132h-2.07V110.25h2.07Z"/><path d="M925.65,125H914.76c0,3.39,1.89,5.46,4.8,5.46a4.21,4.21,0,0,0,4.23-3.21l1.77.72a6.07,6.07,0,0,1-6.15,4.35c-4.26,0-6.75-2.73-6.75-7.77s2.52-8,6.66-8,6.33,2.4,6.33,7Zm-2.13-2c0-3.09-1.56-4.74-4.23-4.74s-4.47,1.92-4.53,5h8.76Z"/><path d="M928,130l5-6.24-5-6.24h2.22l5.16,6.24-5.1,6.24Zm5.6,0,5-6.24-5-6.24h2.22l5.16,6.24L935.82,130Z"/><path d="M607.82,466.87l1.32-.18c0,2.15,1.44,2.93,3.22,2.93,2.13,0,2.94-1,2.94-2.33s-.87-1.74-1.95-2l-1.29-.36c-1.58-.47-2.87-1.25-2.87-3.13,0-1.69,1.1-3.4,4.21-3.4,2.27,0,4,1,4.07,3.38l-1.26.25a2.47,2.47,0,0,0-2.81-2.6c-2.32,0-2.85,1.31-2.85,2.27,0,1.22.91,1.77,2,2.07l1.23.36c1.57.45,2.88,1,2.88,3.13,0,1.61-.83,3.46-4.32,3.46C609.76,470.68,607.79,469.59,607.82,466.87Z"/><path d="M618.46,467c0-2.19,1.11-5,4.26-5,1.77,0,3.21.91,3.18,3l-1.11.13a1.93,1.93,0,0,0-2.09-2.12c-2.32,0-3,2.37-3,4,0,2,1.14,2.63,2.25,2.63a2.41,2.41,0,0,0,2.38-2.12l1.13.16a3.45,3.45,0,0,1-3.56,3C620.24,470.6,618.46,469.74,618.46,467Z"/><path d="M629.55,458.4h1.15l-1,5.39a3,3,0,0,1,2.9-1.87,2.29,2.29,0,0,1,2.49,2.54,7.35,7.35,0,0,1-.1,1l-.87,4.9H633l.87-4.9a7.4,7.4,0,0,0,.07-.83A1.55,1.55,0,0,0,632.2,463c-1.85,0-2.58,1.57-2.84,3.09l-.78,4.36h-1.14Z"/><path d="M637.15,462.12h1.08l.56,6.18c0,.29,0,.66,0,1h0a5.9,5.9,0,0,1,.4-1l2.74-6.18h1.33l.58,6.18a9.81,9.81,0,0,1,.06,1h0a9.83,9.83,0,0,1,.36-1l2.72-6.18h1.21l-3.85,8.28H643.2l-.63-6.26c0-.26,0-.64,0-.93h0a6.86,6.86,0,0,1-.35.93l-2.81,6.26h-1.26Z"/><path d="M648.3,468.25a2.23,2.23,0,0,1,.76-1.73,4.66,4.66,0,0,1,2.79-.92l2.54-.2.05-.28c.23-1.56-.28-2.24-1.71-2.24a2.08,2.08,0,0,0-2.38,1.82h-1.18c.25-1.83,1.56-2.78,3.48-2.78,2.33,0,3.31,1.09,2.9,3.58l-.37,2.05a15.79,15.79,0,0,0-.23,2.85h-1.21a12.18,12.18,0,0,1,.15-1.66,3.11,3.11,0,0,1-2.95,1.86A2.34,2.34,0,0,1,648.3,468.25Zm5.86-1.46.1-.56-2.19.16c-1.84.15-2.52.81-2.52,1.81s.75,1.44,1.64,1.44A3.13,3.13,0,0,0,654.16,466.79Z"/><path d="M657.56,462.12h1.54l.39-2.18,1.25-.5-.48,2.68h2.12l-.16,1H660.1l-.85,4.79c-.24,1.37.43,1.59,1.13,1.59a4.14,4.14,0,0,0,.73-.07l-.18,1a3.69,3.69,0,0,1-.95.13c-1.22,0-2.25-.71-1.87-2.85l.83-4.62H657.4Z"/><path d="M668.57,463.1H664l.18-1h5.93L670,463l-5.86,6.43H669l-.17,1h-6.36l.17-.9Z"/><path d="M672.46,462.12h1.1l-.34,1.76a3.19,3.19,0,0,1,2.87-2c1.39,0,3,.81,3,3.46,0,2.25-1.19,5.22-4,5.22a2.64,2.64,0,0,1-2.7-1.76l-.84,4.79h-1.14Zm5.42,3.3c0-2-1.11-2.47-2.09-2.47-1.77,0-2.65,1.6-2.88,3l-.1.55c-.31,1.79.41,3.11,2.07,3.11C677.26,469.57,677.88,466.89,677.88,465.42Z"/><path d="M680.33,468.25a2.26,2.26,0,0,1,.76-1.73,4.67,4.67,0,0,1,2.8-.92l2.53-.2.05-.28c.23-1.56-.28-2.24-1.71-2.24a2.08,2.08,0,0,0-2.38,1.82H681.2c.25-1.83,1.56-2.78,3.48-2.78,2.34,0,3.31,1.09,2.9,3.58l-.37,2.05a15.79,15.79,0,0,0-.23,2.85h-1.21a12.18,12.18,0,0,1,.15-1.66A3.09,3.09,0,0,1,683,470.6,2.35,2.35,0,0,1,680.33,468.25Zm5.86-1.46.1-.56-2.19.16c-1.84.15-2.51.81-2.51,1.81s.74,1.44,1.63,1.44A3.13,3.13,0,0,0,686.19,466.79Z"/><path d="M694.56,461.92a2.58,2.58,0,0,1,.53.05l-.21,1.14a1.89,1.89,0,0,0-.46-.05,2.11,2.11,0,0,0-1.48.5,4.63,4.63,0,0,0-1.42,2.85l-.73,4h-1.14l1.45-8.28h1.1l-.38,2.15C692.33,462.87,693.09,461.92,694.56,461.92Z"/><path d="M700.06,465.38l2.47,5h-1.36l-2-4.24-1.92,1.64-.47,2.6h-1.14l2.12-12h1.14l-1.39,7.89,4.74-4.17h1.52Z"/><path d="M713.87,465.25l-.19,1.09H708.9l.18-1.09Z"/><path d="M728.75,466.94c0,1.89-1.28,3.46-4.34,3.46H720L722,458.64h4c2,0,3.39.85,3.39,2.77a2.94,2.94,0,0,1-2.76,3A2.34,2.34,0,0,1,728.75,466.94Zm-1.28,0c0-1.49-1-2-2.43-2h-2.83l-.78,4.38h3C726.73,469.31,727.47,468.21,727.47,466.92Zm-4.33-7.18-.73,4.1h2.73c2.24,0,2.93-1.11,2.93-2.27,0-1.32-.88-1.83-2.15-1.83Z"/><path d="M730.4,468.25a2.26,2.26,0,0,1,.76-1.73,4.69,4.69,0,0,1,2.8-.92l2.54-.2,0-.28c.23-1.56-.29-2.24-1.71-2.24a2.08,2.08,0,0,0-2.38,1.82h-1.18c.25-1.83,1.56-2.78,3.48-2.78,2.33,0,3.31,1.09,2.89,3.58l-.36,2.05a15.79,15.79,0,0,0-.23,2.85h-1.21a12.18,12.18,0,0,1,.15-1.66,3.11,3.11,0,0,1-3,1.86A2.35,2.35,0,0,1,730.4,468.25Zm5.86-1.46.1-.56-2.18.16c-1.84.15-2.52.81-2.52,1.81s.75,1.44,1.64,1.44A3.12,3.12,0,0,0,736.26,466.79Zm.15-6-1-1.78-1.68,1.78h-1.12l2.25-2.37H736l1.44,2.37Z"/><path d="M741,470.4h-1.14l2.12-12h1.14Z"/><path d="M745.25,466.56v.3c0,2,1.09,2.71,2.42,2.71a2.4,2.4,0,0,0,2.38-1.77l1,.41a3.4,3.4,0,0,1-3.39,2.39c-1.65,0-3.51-.81-3.51-3.66,0-2.3,1.23-5,4.22-5a3,3,0,0,1,3.23,3.2,4.47,4.47,0,0,1-.23,1.44Zm.12-.95h5a2.32,2.32,0,0,0,.08-.64,1.94,1.94,0,0,0-2.11-2.14C746.63,462.83,745.68,464,745.37,465.61Z"/><g class="cls-3"><g class="cls-4"><image width="1525" height="1147" transform="translate(606.28 173.76) scale(0.24 0.24)" xlink:href="Sans%20titre%20-%2021.png"/></g></g><path d="M37.11,464.49c0-3.34,1.62-7.15,5.93-7.15,2.33,0,4.45,1.09,4.5,4.14l-1.29.13A2.94,2.94,0,0,0,43,458.45c-3.28,0-4.5,3.23-4.5,6,0,3.26,1.66,4.12,3.38,4.12,2.07,0,3.14-1.15,3.67-3.06l1.24.2a4.69,4.69,0,0,1-4.9,4C39.3,469.66,37.11,468.24,37.11,464.49Z"/><path d="M48.5,466c0-2.23,1.1-5.08,4.31-5.08a3.23,3.23,0,0,1,3.49,3.59c0,2.24-1.09,5.09-4.32,5.09C50.27,469.58,48.5,468.73,48.5,466Zm6.56-1.42c0-2-1.16-2.65-2.32-2.65-2.37,0-3,2.42-3,4,0,2,1.16,2.65,2.32,2.65C54.43,468.57,55.06,466.15,55.06,464.56Z"/><path d="M58.21,467a7.77,7.77,0,0,1,.1-1.21l.82-4.72h1.15l-.83,4.77a4.63,4.63,0,0,0-.1.94,1.61,1.61,0,0,0,1.8,1.74c1.82,0,2.44-1.77,2.67-3.1l.76-4.35h1.18l-1.48,8.28H63.19l.33-1.82a2.84,2.84,0,0,1-2.78,2A2.32,2.32,0,0,1,58.21,467Z"/><path d="M72.36,460.9a2.58,2.58,0,0,1,.53.05l-.21,1.14a1.89,1.89,0,0,0-.46,0,2.11,2.11,0,0,0-1.48.5,4.63,4.63,0,0,0-1.42,2.85l-.73,4H67.45l1.45-8.28H70l-.38,2.15C70.13,461.84,70.89,460.9,72.36,460.9Z"/><path d="M74.05,461.1h1.54l.38-2.18,1.26-.5-.48,2.68h2.12l-.16,1H76.59l-.85,4.78c-.25,1.38.43,1.59,1.13,1.59a4,4,0,0,0,.73-.06l-.19,1a3.19,3.19,0,0,1-.94.14c-1.22,0-2.25-.71-1.87-2.85l.83-4.62H73.89Z"/><path d="M78.48,472.57l.18-1.06a2.58,2.58,0,0,0,.86.14c.7,0,1.26-.25,1.92-1.54l.38-.78L80,461.1h1.24L82.4,467a6.86,6.86,0,0,1,.17,1.14h0a9.55,9.55,0,0,1,.55-1.14l3.06-5.91H87.5l-5,9.22c-1.16,2.14-1.92,2.37-3.08,2.37A3.83,3.83,0,0,1,78.48,472.57Z"/><path d="M87.29,467.23a2.23,2.23,0,0,1,.76-1.73,4.66,4.66,0,0,1,2.79-.92l2.54-.2.05-.28c.23-1.56-.28-2.24-1.71-2.24a2.08,2.08,0,0,0-2.38,1.82H88.16c.25-1.84,1.56-2.78,3.48-2.78,2.33,0,3.31,1.09,2.9,3.58l-.37,2a15.79,15.79,0,0,0-.23,2.85H92.73a12.18,12.18,0,0,1,.15-1.66,3.1,3.1,0,0,1-2.95,1.86A2.34,2.34,0,0,1,87.29,467.23Zm5.86-1.46.1-.56-2.19.16c-1.84.15-2.52.81-2.52,1.81s.75,1.44,1.64,1.44A3.13,3.13,0,0,0,93.15,465.77Z"/><path d="M101.53,460.9a2.73,2.73,0,0,1,.53.05l-.22,1.14a1.83,1.83,0,0,0-.46,0,2.11,2.11,0,0,0-1.48.5,4.63,4.63,0,0,0-1.42,2.85l-.73,4H96.61l1.46-8.28h1.09l-.38,2.15C99.29,461.84,100.05,460.9,101.53,460.9Z"/><path d="M102.17,466.08c0-2.21,1.15-5.18,4-5.18a2.61,2.61,0,0,1,2.67,1.87l.92-5.39H111l-2.12,12h-1.09l.28-1.61a3.16,3.16,0,0,1-2.86,1.81C103.78,469.58,102.17,468.7,102.17,466.08Zm6.19-.33.09-.4c.44-2.33-.7-3.42-2.15-3.42-2.19,0-2.89,2.45-2.89,4.07,0,2.14,1.21,2.55,2.14,2.55C107.19,468.55,108.08,467.23,108.36,465.75Z"/><path d="M116.4,466c0-2.23,1.09-5.08,4.3-5.08a3.23,3.23,0,0,1,3.5,3.59c0,2.24-1.1,5.09-4.33,5.09C118.17,469.58,116.4,468.73,116.4,466Zm6.55-1.42c0-2-1.15-2.65-2.31-2.65-2.37,0-3,2.42-3,4,0,2,1.16,2.65,2.32,2.65C122.32,468.57,123,466.15,123,464.56Z"/><path d="M130.57,462.06h-2.13l-1.31,7.32H126l1.29-7.32h-1.56l.17-1h1.55l.25-1.51a2.44,2.44,0,0,1,2.55-2.31,3.21,3.21,0,0,1,1.16.19l-.18,1a2.6,2.6,0,0,0-.91-.17c-1,0-1.33.62-1.48,1.41l-.24,1.39h2.15Z"/><path d="M135.33,465.85l1.32-.18c0,2.15,1.44,2.93,3.21,2.93,2.14,0,2.95-1,2.95-2.33s-.88-1.74-1.95-2l-1.3-.36c-1.57-.47-2.86-1.25-2.86-3.13,0-1.69,1.09-3.4,4.21-3.4,2.26,0,4,1,4.07,3.38l-1.26.25a2.47,2.47,0,0,0-2.81-2.6c-2.32,0-2.85,1.31-2.85,2.27,0,1.22.91,1.77,2,2.07l1.22.36c1.58.45,2.88,1,2.88,3.13,0,1.6-.82,3.46-4.32,3.46C137.26,469.66,135.29,468.57,135.33,465.85Z"/><path d="M147.5,461.1h1.14l-1.46,8.28H146Zm.44-3.31h1.33l-.33,1.82h-1.31Z"/><path d="M151.55,469.38h-1.14l2.12-12h1.14Z"/><path d="M155.86,465.54v.29c0,2,1.09,2.72,2.42,2.72a2.41,2.41,0,0,0,2.38-1.77l1,.41a3.41,3.41,0,0,1-3.39,2.39c-1.66,0-3.51-.81-3.51-3.66,0-2.3,1.22-5,4.22-5a3,3,0,0,1,3.23,3.2,4.23,4.23,0,0,1-.24,1.44Zm.11-1h5A2.32,2.32,0,0,0,161,464a1.94,1.94,0,0,0-2.12-2.14C157.23,461.81,156.29,463,156,464.59Z"/><path d="M165.22,461.1h1.09l-.32,1.79a3,3,0,0,1,2.87-2,2.35,2.35,0,0,1,2.55,2.65,7.86,7.86,0,0,1-.1,1.11l-.81,4.72h-1.16l.84-4.77a5.37,5.37,0,0,0,.08-.84,1.64,1.64,0,0,0-1.82-1.84c-1.9,0-2.53,1.77-2.76,3.09l-.78,4.36h-1.14Z"/><path d="M173.31,465.93c0-2.18,1.11-5,4.26-5,1.77,0,3.21.91,3.18,3l-1.11.13a1.94,1.94,0,0,0-2.09-2.12c-2.32,0-3,2.37-3,4,0,2,1.15,2.64,2.26,2.64a2.41,2.41,0,0,0,2.38-2.12l1.13.16a3.46,3.46,0,0,1-3.56,3C175.09,469.58,173.31,468.72,173.31,465.93Z"/><path d="M183.28,465.54v.29c0,2,1.09,2.72,2.42,2.72a2.41,2.41,0,0,0,2.38-1.77l1,.41a3.41,3.41,0,0,1-3.39,2.39c-1.66,0-3.51-.81-3.51-3.66,0-2.3,1.22-5,4.22-5a3,3,0,0,1,3.23,3.2,4.47,4.47,0,0,1-.23,1.44Zm.12-1h5a2.32,2.32,0,0,0,.08-.64,1.94,1.94,0,0,0-2.12-2.14C184.66,461.81,183.71,463,183.4,464.59Z"/><path d="M200.55,464.23l-.18,1.09h-4.78l.18-1.09Z"/><path d="M215.59,469.38H214.3l1-5.47H208.9l-1,5.47h-1.27l2.07-11.76H210l-.91,5.2h6.38l.91-5.2h1.29Z"/><path d="M220,465.54v.29c0,2,1.09,2.72,2.42,2.72a2.41,2.41,0,0,0,2.38-1.77l1,.41a3.4,3.4,0,0,1-3.39,2.39c-1.65,0-3.51-.81-3.51-3.66,0-2.3,1.23-5,4.22-5a3,3,0,0,1,3.23,3.2,4.47,4.47,0,0,1-.23,1.44Zm.12-1h5a2.32,2.32,0,0,0,.08-.64,1.93,1.93,0,0,0-2.11-2.14C221.34,461.81,220.39,463,220.08,464.59Z"/><path d="M229.09,469.38h-1.15l2.12-12h1.15Z"/><path d="M231.94,467l1.15-.18a2,2,0,0,0,2.29,1.81c1.52,0,1.94-.8,1.94-1.54s-.42-1.06-1.25-1.25l-1.44-.33a2.07,2.07,0,0,1-1.85-2.1c0-1.36,1.08-2.5,3.08-2.5,1.59,0,3.21.68,3.24,2.32l-1.12.25c-.07-1.19-1.08-1.63-2.19-1.63-1.32,0-1.85.65-1.85,1.46s.36,1,1.31,1.26l1.37.32c1.42.33,1.89,1.09,1.89,2.15,0,1.34-1,2.55-3.23,2.55C233.71,469.58,232.1,468.93,231.94,467Z"/><path d="M242,461.1h1.14l-1.46,8.28h-1.14Zm.44-3.31h1.33l-.33,1.82h-1.31Z"/><path d="M246.27,461.1h1.1l-.32,1.79a3,3,0,0,1,2.87-2,2.35,2.35,0,0,1,2.55,2.65,7.86,7.86,0,0,1-.1,1.11l-.81,4.72H250.4l.84-4.77a5.37,5.37,0,0,0,.08-.84,1.64,1.64,0,0,0-1.82-1.84c-1.9,0-2.53,1.77-2.76,3.09l-.78,4.36h-1.14Z"/><path d="M258.94,464.36l2.47,5h-1.36l-2-4.24-1.92,1.64-.47,2.6h-1.14l2.12-12h1.14l-1.39,7.89,4.74-4.17h1.52Z"/><path d="M264.84,461.1H266l-1.46,8.28h-1.14Zm.45-3.31h1.32l-.33,1.82H265Z"/><g class="cls-5"><g class="cls-6"><image width="1341" height="1000" transform="translate(34.81 174.78) scale(0.27)" xlink:href="Sans%20titre%20-%2022.png"/></g></g><path d="M93.29,53.54l4.89-.48c0,2.34,1.32,3.72,3.36,3.72a2.71,2.71,0,0,0,3-3c0-1.92-1.14-2.91-3.6-2.91H99.83v-3.3h1.08c2.1,0,3.18-1.08,3.18-2.91a2.5,2.5,0,0,0-2.76-2.73c-2,0-3.06,1.41-3.06,3.78l-4.77-.63c0-4.17,3.12-6.81,8.07-6.81s7.5,2.16,7.5,5.82A5,5,0,0,1,104.9,49c3.09.48,4.74,2.22,4.74,5.13,0,4-3.18,6.42-8.13,6.42S93.35,57.8,93.29,53.54Zm24,6.51h-5.13V55.13h5.13Zm28.44.75a6,6,0,0,0,1.68-.24v3.93a13.67,13.67,0,0,1-2.25.18c-3.6,0-5.94-1.53-7-4.11h-.42c-6.39,0-10.5-4.32-10.5-11.16s4.11-11.16,10.5-11.16,10.5,4.29,10.5,11.16c0,5-2.22,8.7-5.91,10.29A4.89,4.89,0,0,0,145.7,60.8Zm-7.95-4.2c3.33,0,5.28-2.7,5.28-7.2s-1.95-7.2-5.28-7.2-5.31,2.7-5.31,7.2S134.42,56.6,137.75,56.6Zm18.3-17.85V52.4a4,4,0,1,0,7.92,0V38.75H169V52.61c0,4.86-3.36,8-9,8s-9-3.09-9-8V38.75Zm28.89,16.32h-7.86l-1.62,5h-5.07l7.74-21.3h5.79l7.74,21.3h-5.1Zm-1.17-3.57-2-5.94a25.65,25.65,0,0,1-.78-3H181a20.83,20.83,0,0,1-.78,3l-1.95,5.94ZM207,42.77h-6.2V60.05h-5V42.77h-6.18v-4H207Zm10.54,9.12h-3.06v8.16h-5.07V38.75h9.36c5.39,0,7.79,2.64,7.79,6.54a5.89,5.89,0,0,1-4.17,5.85l4.71,8.91h-5.49Zm-3.06-3.48h3.27c2.45,0,3.53-1.2,3.53-3.12s-1-3-3.53-3h-3.27Zm30.5,7.89v3.75H230.15V38.75h14.57V42.5h-9.51v4.8h9V51h-9V56.3Zm8.83-.69L257.5,53a6.17,6.17,0,0,0,5.79,3.66c2,0,3.66-.75,3.66-2.43S266,52,263.86,51.56L261,51c-3.72-.81-5.88-2.82-5.88-6.39,0-3.9,3.18-6.33,8.31-6.33,3.78,0,7,1.38,8.46,4.23l-3.3,2.79A6,6,0,0,0,263.11,42c-2,0-3.3.84-3.3,2.19s.84,2.07,3.09,2.58l3.09.66c3.78.84,5.82,2.64,5.82,6.3,0,4.05-3.12,6.84-8.7,6.84C258.52,60.56,255.22,58.61,253.76,55.61Zm19.71-6.18c0-6.72,4-11.19,10.43-11.19,5.43,0,8.85,3,9.42,7.65l-5.13.9c-.3-2.82-1.86-4.47-4.41-4.47-3.24,0-5.13,2.73-5.13,7.08s1.92,7.05,5.28,7.05c2.37,0,4-1.62,4.38-4.38l5.13,1.11c-1,4.5-4.32,7.38-9.6,7.38C277.1,60.56,273.47,56.15,273.47,49.43Zm37.7,6.87v3.75H296.38V38.75H311V42.5h-9.51v4.8h9V51h-9V56.3Zm-5.43-18.84h-3.66l3-3.54h4.17Zm9.12,1.29h5.61l6.84,12.15a22.16,22.16,0,0,1,1.29,2.76h.06c0-.84,0-1.71,0-2.73V38.75h4.65v21.3h-5.4L320.8,47.78a18.35,18.35,0,0,1-1.26-2.61h-.06c0,.87,0,1.77,0,2.82V60.05h-4.65Zm35.61,16.32h-7.86l-1.62,5h-5.07l7.74-21.3h5.79l7.74,21.3h-5.1ZM349.3,51.5l-1.95-5.94a25.65,25.65,0,0,1-.78-3h-.06a20.83,20.83,0,0,1-.78,3l-2,5.94Zm18.63.39h-3.06v8.16H359.8V38.75h9.36c5.4,0,7.8,2.64,7.8,6.54a5.89,5.89,0,0,1-4.17,5.85l4.71,8.91H372Zm-3.06-3.48h3.27c2.46,0,3.54-1.2,3.54-3.12s-1.05-3-3.54-3h-3.27Zm15.72,11.64V38.75h5.07v21.3Zm8.16-10.65c0-6.87,4.11-11.16,10.5-11.16s10.5,4.29,10.5,11.16-4.11,11.16-10.5,11.16S388.75,56.24,388.75,49.4Zm15.78,0c0-4.5-1.95-7.2-5.28-7.2s-5.31,2.7-5.31,7.2,2,7.2,5.31,7.2S404.53,53.9,404.53,49.4Zm5.79,6.21L414.07,53a6.17,6.17,0,0,0,5.79,3.66c2,0,3.66-.75,3.66-2.43s-.93-2.19-3.09-2.64l-2.85-.6c-3.72-.81-5.88-2.82-5.88-6.39,0-3.9,3.18-6.33,8.31-6.33,3.78,0,7,1.38,8.46,4.23l-3.3,2.79A6,6,0,0,0,419.68,42c-2,0-3.3.84-3.3,2.19s.84,2.07,3.09,2.58l3.09.66c3.78.84,5.82,2.64,5.82,6.3,0,4.05-3.12,6.84-8.7,6.84C415.09,60.56,411.79,58.61,410.32,55.61Z"/><path d="M414.6,201.8h4c3.22,0,6.11,1.72,6.11,6.26,0,4.2-2.47,7.94-8.21,7.94H412.1Zm2,12.88c4.86,0,6.48-3.3,6.48-6.54,0-3.72-2.1-5-4.46-5h-2.68l-2,11.56Z"/><path d="M427.68,211.36v.36c0,2.46,1.32,3.28,2.92,3.28a2.91,2.91,0,0,0,2.88-2.14l1.16.5a4.12,4.12,0,0,1-4.1,2.88c-2,0-4.24-1-4.24-4.42,0-2.78,1.48-6.06,5.1-6.06a3.57,3.57,0,0,1,3.9,3.86,5.2,5.2,0,0,1-.28,1.74Zm.14-1.14h6a2.85,2.85,0,0,0,.1-.78,2.34,2.34,0,0,0-2.56-2.58C429.34,206.86,428.2,208.32,427.82,210.22Z"/><path d="M436.76,213.12l1.4-.22c.18,1.62,1.34,2.18,2.76,2.18,1.84,0,2.34-1,2.34-1.86s-.5-1.28-1.5-1.5l-1.74-.4a2.51,2.51,0,0,1-2.24-2.54c0-1.64,1.3-3,3.72-3,1.92,0,3.88.82,3.92,2.8l-1.36.3c-.08-1.44-1.3-2-2.64-2-1.6,0-2.24.78-2.24,1.76s.44,1.26,1.58,1.52l1.66.38c1.72.4,2.28,1.32,2.28,2.6,0,1.62-1.26,3.08-3.9,3.08C438.9,216.24,437,215.46,436.76,213.12Z"/><path d="M453.74,211.36v.36c0,2.46,1.32,3.28,2.92,3.28a2.91,2.91,0,0,0,2.88-2.14l1.16.5a4.12,4.12,0,0,1-4.1,2.88c-2,0-4.24-1-4.24-4.42,0-2.78,1.48-6.06,5.1-6.06a3.57,3.57,0,0,1,3.9,3.86,5.2,5.2,0,0,1-.28,1.74Zm.14-1.14h6a2.85,2.85,0,0,0,.1-.78,2.34,2.34,0,0,0-2.56-2.58C455.4,206.86,454.26,208.32,453.88,210.22Z"/><path d="M462.82,213.12l1.4-.22c.18,1.62,1.34,2.18,2.76,2.18,1.84,0,2.34-1,2.34-1.86s-.5-1.28-1.5-1.5l-1.74-.4a2.51,2.51,0,0,1-2.24-2.54c0-1.64,1.3-3,3.72-3,1.92,0,3.88.82,3.92,2.8l-1.36.3c-.08-1.44-1.3-2-2.64-2-1.6,0-2.24.78-2.24,1.76s.44,1.26,1.58,1.52l1.66.38c1.72.4,2.28,1.32,2.28,2.6,0,1.62-1.26,3.08-3.9,3.08C465,216.24,463,215.46,462.82,213.12Z"/><path d="M475,206h1.32l-.4,2.12a3.83,3.83,0,0,1,3.46-2.36c1.68,0,3.66,1,3.66,4.18,0,2.72-1.44,6.3-4.84,6.3a3.2,3.2,0,0,1-3.26-2.12l-1,5.78h-1.38Zm6.54,4c0-2.4-1.34-3-2.52-3-2.14,0-3.2,1.94-3.48,3.58l-.12.66c-.38,2.16.5,3.76,2.5,3.76C480.78,215,481.52,211.76,481.52,210Z"/><path d="M484.46,213.4a2.69,2.69,0,0,1,.92-2.08,5.58,5.58,0,0,1,3.38-1.12l3.06-.24.06-.34c.28-1.88-.34-2.7-2.06-2.7s-2.62.72-2.88,2.2h-1.42c.3-2.22,1.88-3.36,4.2-3.36,2.82,0,4,1.32,3.5,4.32l-.44,2.48a18.57,18.57,0,0,0-.28,3.44H491a14,14,0,0,1,.18-2,3.74,3.74,0,0,1-3.56,2.24C485.8,216.24,484.46,215.22,484.46,213.4Zm7.08-1.76.12-.68-2.64.2c-2.22.18-3,1-3,2.18s.9,1.74,2,1.74C489.78,215.08,491.16,213.7,491.54,211.64Z"/><path d="M495.58,211.84c0-2.64,1.34-6.08,5.14-6.08,2.14,0,3.88,1.1,3.84,3.62l-1.34.16A2.33,2.33,0,0,0,500.7,207c-2.8,0-3.62,2.86-3.62,4.86,0,2.42,1.38,3.18,2.72,3.18a2.9,2.9,0,0,0,2.88-2.56l1.36.2a4.16,4.16,0,0,1-4.3,3.58C497.72,216.24,495.58,215.2,495.58,211.84Z"/><path d="M507.62,211.36v.36c0,2.46,1.32,3.28,2.92,3.28a2.91,2.91,0,0,0,2.88-2.14l1.16.5a4.12,4.12,0,0,1-4.1,2.88c-2,0-4.24-1-4.24-4.42,0-2.78,1.48-6.06,5.1-6.06a3.57,3.57,0,0,1,3.9,3.86,5.2,5.2,0,0,1-.28,1.74Zm.14-1.14h6a2.85,2.85,0,0,0,.1-.78,2.34,2.34,0,0,0-2.56-2.58C509.28,206.86,508.14,208.32,507.76,210.22Z"/><path d="M516.7,213.12l1.4-.22c.18,1.62,1.34,2.18,2.76,2.18,1.84,0,2.34-1,2.34-1.86s-.5-1.28-1.5-1.5l-1.74-.4a2.51,2.51,0,0,1-2.24-2.54c0-1.64,1.3-3,3.72-3,1.92,0,3.88.82,3.92,2.8l-1.36.3c-.08-1.44-1.3-2-2.64-2-1.6,0-2.24.78-2.24,1.76s.44,1.26,1.58,1.52l1.66.38c1.72.4,2.28,1.32,2.28,2.6,0,1.62-1.26,3.08-3.9,3.08C518.84,216.24,516.9,215.46,516.7,213.12Z"/><path d="M413.68,230H415l-.4,2.12a3.83,3.83,0,0,1,3.46-2.36c1.68,0,3.66,1,3.66,4.18,0,2.72-1.44,6.3-4.84,6.3a3.2,3.2,0,0,1-3.26-2.12l-1,5.78h-1.38Zm6.54,4c0-2.4-1.34-3-2.52-3-2.14,0-3.2,1.94-3.48,3.58l-.12.66c-.38,2.16.5,3.76,2.5,3.76C419.48,239,420.22,235.76,420.22,234Z"/><path d="M424,237.16a10,10,0,0,1,.12-1.46l1-5.7h1.38l-1,5.76a6,6,0,0,0-.12,1.14,1.94,1.94,0,0,0,2.18,2.1c2.2,0,2.94-2.14,3.22-3.74l.92-5.26h1.42l-1.78,10H430l.4-2.2a3.43,3.43,0,0,1-3.36,2.44A2.8,2.8,0,0,1,424,237.16Z"/><path d="M436.9,238l-.6,2h-1.06l2.56-14.5h1.38l-1.12,6.4a3.75,3.75,0,0,1,3.32-2.14c1.68,0,3.66,1,3.66,4.18,0,2.68-1.42,6.3-4.84,6.3A3.23,3.23,0,0,1,436.9,238Zm6.64-4.06c0-2.38-1.36-3-2.52-3a3.62,3.62,0,0,0-3.4,3.16l-.16.76c-.48,2.26.34,4.08,2.52,4.08C442.76,239,443.54,235.76,443.54,234Z"/><path d="M448.44,240h-1.38l2.56-14.5H451Z"/><path d="M454.1,230h1.38l-1.76,10h-1.38Zm.54-4h1.6l-.4,2.2h-1.58Z"/><path d="M457.44,235.84c0-2.64,1.34-6.08,5.14-6.08,2.14,0,3.88,1.1,3.84,3.62l-1.34.16a2.33,2.33,0,0,0-2.52-2.56c-2.8,0-3.62,2.86-3.62,4.86,0,2.42,1.38,3.18,2.72,3.18a2.9,2.9,0,0,0,2.88-2.56l1.36.2a4.16,4.16,0,0,1-4.3,3.58C459.58,240.24,457.44,239.2,457.44,235.84Z"/><path d="M467.72,237.12l1.4-.22c.18,1.62,1.34,2.18,2.76,2.18,1.84,0,2.34-1,2.34-1.86s-.5-1.28-1.5-1.5l-1.74-.4a2.51,2.51,0,0,1-2.24-2.54c0-1.64,1.3-3,3.72-3,1.92,0,3.88.82,3.92,2.8l-1.36.3c-.08-1.44-1.3-2-2.64-2-1.6,0-2.24.78-2.24,1.76s.44,1.26,1.58,1.52l1.66.38c1.72.4,2.28,1.32,2.28,2.6,0,1.62-1.26,3.08-3.9,3.08C469.86,240.24,467.92,239.46,467.72,237.12Z"/><path d="M483.28,236c0-2.68,1.38-6.26,4.88-6.26a3.13,3.13,0,0,1,3.22,2.26l1.12-6.52h1.4L491.34,240H490l.34-1.94a3.82,3.82,0,0,1-3.46,2.18C485.22,240.24,483.28,239.18,483.28,236Zm7.48-.4.1-.48c.54-2.82-.84-4.14-2.6-4.14-2.64,0-3.48,3-3.48,4.92,0,2.58,1.46,3.08,2.58,3.08C489.34,239,490.42,237.4,490.76,235.62Z"/><path d="M497,230h1.38l-1.76,10h-1.38Zm.54-4h1.6l-.4,2.2h-1.58Z"/><path d="M500.5,230H502l1.24,7.08c.08.56.14,1,.16,1.48h.06c.18-.46.42-.92.7-1.48l3.74-7.08h1.54L504,240h-1.52Z"/><path d="M510.82,235.36v.36c0,2.46,1.32,3.28,2.92,3.28a2.91,2.91,0,0,0,2.88-2.14l1.16.5a4.12,4.12,0,0,1-4.1,2.88c-2,0-4.24-1-4.24-4.42,0-2.78,1.48-6.06,5.1-6.06a3.57,3.57,0,0,1,3.9,3.86,5.2,5.2,0,0,1-.28,1.74Zm.14-1.14h6a2.85,2.85,0,0,0,.1-.78,2.34,2.34,0,0,0-2.56-2.58C512.48,230.86,511.34,232.32,511,234.22Z"/><path d="M526.3,229.76a2.9,2.9,0,0,1,.64.06l-.26,1.38a2.07,2.07,0,0,0-.56-.06,2.53,2.53,0,0,0-1.78.6,5.58,5.58,0,0,0-1.72,3.44l-.88,4.82h-1.38l1.76-10h1.32l-.46,2.6C523.6,230.9,524.52,229.76,526.3,229.76Z"/><path d="M526.9,237.12l1.4-.22c.18,1.62,1.34,2.18,2.76,2.18,1.84,0,2.34-1,2.34-1.86s-.5-1.28-1.5-1.5l-1.74-.4a2.51,2.51,0,0,1-2.24-2.54c0-1.64,1.3-3,3.72-3,1.92,0,3.88.82,3.92,2.8l-1.36.3c-.08-1.44-1.3-2-2.64-2-1.6,0-2.24.78-2.24,1.76s.44,1.26,1.58,1.52l1.66.38c1.72.4,2.28,1.32,2.28,2.6,0,1.62-1.26,3.08-3.9,3.08C529,240.24,527.1,239.46,526.9,237.12Z"/><path d="M539,230h1.38l-1.76,10h-1.38Zm.54-4h1.6l-.4,2.2H539.2Z"/><path d="M548.44,231.16h-2.58L544.28,240H542.9l1.56-8.84h-1.88l.2-1.16h1.88l.3-1.82c.28-1.56,1.12-2.8,3.08-2.8a3.8,3.8,0,0,1,1.4.24l-.22,1.2a3.21,3.21,0,0,0-1.1-.2c-1.24,0-1.6.74-1.78,1.7L546,230h2.6Zm2.62-1.16h1.38l-1.76,10H549.3Zm.54-4h1.6l-.4,2.2h-1.58Z"/><path d="M563.4,233.62a5.2,5.2,0,0,1-.28,1.74h-7.34v.36c0,2.46,1.32,3.28,2.92,3.28a2.91,2.91,0,0,0,2.88-2.14l1.16.5a4.12,4.12,0,0,1-4.1,2.88c-2,0-4.24-1-4.24-4.42,0-2.78,1.48-6.06,5.1-6.06A3.57,3.57,0,0,1,563.4,233.62Zm-1.36-.18a2.34,2.34,0,0,0-2.56-2.58c-2,0-3.18,1.46-3.56,3.36h6A2.85,2.85,0,0,0,562,233.44Zm-1.5-5h-1.32l2.48-2.86h1.72Z"/><path d="M564.86,237.12l1.4-.22c.18,1.62,1.34,2.18,2.76,2.18,1.84,0,2.34-1,2.34-1.86s-.5-1.28-1.5-1.5l-1.74-.4a2.51,2.51,0,0,1-2.24-2.54c0-1.64,1.3-3,3.72-3,1.92,0,3.88.82,3.92,2.8l-1.36.3c-.08-1.44-1.3-2-2.64-2-1.6,0-2.24.78-2.24,1.76s.44,1.26,1.58,1.52l1.66.38c1.72.4,2.28,1.32,2.28,2.6,0,1.62-1.26,3.08-3.9,3.08C567,240.24,565.06,239.46,564.86,237.12Z"/><path d="M413.68,254H415l-.4,2.12a3.83,3.83,0,0,1,3.46-2.36c1.68,0,3.66,1,3.66,4.18,0,2.72-1.44,6.3-4.84,6.3a3.2,3.2,0,0,1-3.26-2.12l-1,5.78h-1.38Zm6.54,4c0-2.4-1.34-3-2.52-3-2.14,0-3.2,1.94-3.48,3.58l-.12.66c-.38,2.16.5,3.76,2.5,3.76C419.48,263,420.22,259.76,420.22,258Z"/><path d="M423.56,259.9c0-2.7,1.32-6.14,5.2-6.14,2.08,0,4.22,1,4.22,4.34,0,2.7-1.32,6.14-5.22,6.14C425.7,264.24,423.56,263.22,423.56,259.9Zm7.92-1.72c0-2.46-1.4-3.2-2.8-3.2-2.86,0-3.62,2.92-3.62,4.84,0,2.46,1.4,3.2,2.8,3.2C430.72,263,431.48,260.1,431.48,258.18Z"/><path d="M435.28,261.16a10,10,0,0,1,.12-1.46l1-5.7h1.38l-1,5.76a6,6,0,0,0-.12,1.14,1.94,1.94,0,0,0,2.18,2.1c2.2,0,2.94-2.14,3.22-3.74L443,254h1.42l-1.78,10H441.3l.4-2.2a3.43,3.43,0,0,1-3.36,2.44A2.8,2.8,0,0,1,435.28,261.16Z"/><path d="M452.38,253.76a2.9,2.9,0,0,1,.64.06l-.26,1.38a2.07,2.07,0,0,0-.56-.06,2.53,2.53,0,0,0-1.78.6,5.58,5.58,0,0,0-1.72,3.44l-.88,4.82h-1.38l1.76-10h1.32l-.46,2.6C449.68,254.9,450.6,253.76,452.38,253.76Z"/><path d="M460.36,264H459l2.56-14.5h1.38Z"/><path d="M465.56,259.36v.36c0,2.46,1.32,3.28,2.92,3.28a2.91,2.91,0,0,0,2.88-2.14l1.16.5a4.12,4.12,0,0,1-4.1,2.88c-2,0-4.24-1-4.24-4.42,0-2.78,1.48-6.06,5.1-6.06a3.57,3.57,0,0,1,3.9,3.86,5.2,5.2,0,0,1-.28,1.74Zm.14-1.14h6a2.85,2.85,0,0,0,.1-.78,2.34,2.34,0,0,0-2.56-2.58C467.22,254.86,466.08,256.32,465.7,258.22Z"/><path d="M487.32,262a3.52,3.52,0,0,1-3.36,2.22c-1.8,0-3.68-1.06-3.68-4.22,0-2.68,1.36-6.26,4.92-6.26a3.21,3.21,0,0,1,3.26,2.16l.64-1.92h1l-2.46,13.9h-1.4Zm.44-2.4.1-.48c.54-2.82-.84-4.14-2.6-4.14-2.64,0-3.48,3-3.48,4.92,0,2.58,1.46,3.08,2.58,3.08C486.34,263,487.42,261.4,487.76,259.62Z"/><path d="M492.5,261.16a10,10,0,0,1,.12-1.46l1-5.7H495l-1,5.76a6,6,0,0,0-.12,1.14,1.94,1.94,0,0,0,2.18,2.1c2.2,0,2.94-2.14,3.22-3.74l.92-5.26h1.42l-1.78,10h-1.32l.4-2.2a3.43,3.43,0,0,1-3.36,2.44A2.8,2.8,0,0,1,492.5,261.16Z"/><path d="M503.26,261.4a2.69,2.69,0,0,1,.92-2.08,5.58,5.58,0,0,1,3.38-1.12l3.06-.24.06-.34c.28-1.88-.34-2.7-2.06-2.7s-2.62.72-2.88,2.2h-1.42c.3-2.22,1.88-3.36,4.2-3.36,2.82,0,4,1.32,3.5,4.32l-.44,2.48a18.57,18.57,0,0,0-.28,3.44h-1.46a14,14,0,0,1,.18-2,3.74,3.74,0,0,1-3.56,2.24C504.6,264.24,503.26,263.22,503.26,261.4Zm7.08-1.76.12-.68-2.64.2c-2.22.18-3,1-3,2.18s.9,1.74,2,1.74C508.58,263.08,510,261.7,510.34,259.64Z"/><path d="M520.46,253.76a2.9,2.9,0,0,1,.64.06l-.26,1.38a2.07,2.07,0,0,0-.56-.06,2.53,2.53,0,0,0-1.78.6,5.58,5.58,0,0,0-1.72,3.44L515.9,264h-1.38l1.76-10h1.32l-.46,2.6C517.76,254.9,518.68,253.76,520.46,253.76Z"/><path d="M522.5,254h1.86l.46-2.64,1.52-.6-.58,3.24h2.56l-.2,1.16h-2.56l-1,5.78c-.3,1.66.52,1.92,1.36,1.92a4.94,4.94,0,0,0,.88-.08l-.22,1.24a4.24,4.24,0,0,1-1.14.16c-1.48,0-2.72-.86-2.26-3.44l1-5.58H522.3Z"/><path d="M531,254h1.38l-1.76,10h-1.38Zm.54-4h1.6l-.4,2.2h-1.58Z"/><path d="M535.7,259.36v.36c0,2.46,1.32,3.28,2.92,3.28a2.91,2.91,0,0,0,2.88-2.14l1.16.5a4.12,4.12,0,0,1-4.1,2.88c-2,0-4.24-1-4.24-4.42,0-2.78,1.48-6.06,5.1-6.06a3.57,3.57,0,0,1,3.9,3.86,5.2,5.2,0,0,1-.28,1.74Zm.14-1.14h6a2.85,2.85,0,0,0,.1-.78,2.34,2.34,0,0,0-2.56-2.58C537.36,254.86,536.22,256.32,535.84,258.22Z"/><path d="M551.18,253.76a2.9,2.9,0,0,1,.64.06l-.26,1.38a2.07,2.07,0,0,0-.56-.06,2.53,2.53,0,0,0-1.78.6,5.58,5.58,0,0,0-1.72,3.44l-.88,4.82h-1.38L547,254h1.32l-.46,2.6C548.48,254.9,549.4,253.76,551.18,253.76Z"/><path d="M411,358.78c1.74-1.1,4.12-2.74,5.58-3.88s3.36-2.8,3.36-5.18a2.41,2.41,0,0,0-2.7-2.64,2.88,2.88,0,0,0-3.08,3.16,5.35,5.35,0,0,0,.06.84l-1.44-.14a3.86,3.86,0,0,1-.08-.84c0-2.3,1.46-4.3,4.66-4.3,2,0,4.14.78,4.14,3.72,0,2.54-1.56,4.3-4,6.24a36.45,36.45,0,0,1-4.22,2.92h6.84l-.22,1.32h-9.08Z"/><path d="M427.64,357.4a2.69,2.69,0,0,1,.92-2.08,5.58,5.58,0,0,1,3.38-1.12L435,354l.06-.34c.28-1.88-.34-2.7-2.06-2.7s-2.62.72-2.88,2.2H428.7c.3-2.22,1.88-3.36,4.2-3.36,2.82,0,4,1.32,3.5,4.32l-.44,2.48a18.57,18.57,0,0,0-.28,3.44h-1.46a14,14,0,0,1,.18-2,3.74,3.74,0,0,1-3.56,2.24C429,360.24,427.64,359.22,427.64,357.4Zm7.08-1.76.12-.68-2.64.2c-2.22.18-3,1-3,2.18s.9,1.74,2,1.74C433,359.08,434.34,357.7,434.72,355.64Z"/><path d="M440.66,350H442l-1.76,10H438.9Zm.54-4h1.6l-.4,2.2h-1.58Z"/><path d="M450,349.76a2.9,2.9,0,0,1,.64.06l-.26,1.38a2.07,2.07,0,0,0-.56-.06,2.53,2.53,0,0,0-1.78.6,5.58,5.58,0,0,0-1.72,3.44l-.88,4.82h-1.38l1.76-10h1.32l-.46,2.6C447.32,350.9,448.24,349.76,450,349.76Z"/><path d="M452.2,355.36v.36c0,2.46,1.32,3.28,2.92,3.28a2.91,2.91,0,0,0,2.88-2.14l1.16.5a4.12,4.12,0,0,1-4.1,2.88c-2,0-4.24-1-4.24-4.42,0-2.78,1.48-6.06,5.1-6.06a3.57,3.57,0,0,1,3.9,3.86,5.2,5.2,0,0,1-.28,1.74Zm.14-1.14h6a2.85,2.85,0,0,0,.1-.78,2.34,2.34,0,0,0-2.56-2.58C453.86,350.86,452.72,352.32,452.34,354.22Z"/><path d="M461.28,357.12l1.4-.22c.18,1.62,1.34,2.18,2.76,2.18,1.84,0,2.34-1,2.34-1.86s-.5-1.28-1.5-1.5l-1.74-.4a2.51,2.51,0,0,1-2.24-2.54c0-1.64,1.3-3,3.72-3,1.92,0,3.88.82,3.92,2.8l-1.36.3c-.08-1.44-1.3-2-2.64-2-1.6,0-2.24.78-2.24,1.76s.44,1.26,1.58,1.52l1.66.38c1.72.4,2.28,1.32,2.28,2.6,0,1.62-1.26,3.08-3.9,3.08C463.42,360.24,461.48,359.46,461.28,357.12Z"/><path d="M411.78,380c0-2.68,1.38-6.26,4.88-6.26a3.13,3.13,0,0,1,3.22,2.26L421,369.5h1.4L419.84,384h-1.32l.34-1.94a3.82,3.82,0,0,1-3.46,2.18C413.72,384.24,411.78,383.18,411.78,380Zm7.48-.4.1-.48c.54-2.82-.84-4.14-2.6-4.14-2.64,0-3.48,3-3.48,4.92,0,2.58,1.46,3.08,2.58,3.08C417.84,383,418.92,381.4,419.26,379.62Z"/><path d="M425,374a2,2,0,0,0,1.38-1.8l0-.12h-1l.4-2.24h1.9l-.38,2.12c-.34,1.88-1.16,2.48-2.06,2.76Z"/><path d="M430.28,374h1.38l-1.76,10h-1.38Zm.54-4h1.6l-.4,2.2h-1.58Z"/><path d="M435.46,374h1.32l-.34,1.94a3.12,3.12,0,0,1,3-2.18A2.39,2.39,0,0,1,442.1,376a3.41,3.41,0,0,1,3.2-2.22,2.71,2.71,0,0,1,2.92,3,6.55,6.55,0,0,1-.12,1.18L447,384H445.6l1.08-6a4.35,4.35,0,0,0,.1-1c0-1.64-1-2.06-1.88-2.06-1.9,0-2.58,1.8-2.86,3.44L441,384h-1.38l1.08-6a6.21,6.21,0,0,0,.08-1c0-1.66-1-2-1.84-2-2,0-2.64,1.88-2.94,3.52l-1,5.48H433.7Z"/><path d="M452.28,374h1.32l-.4,2.12a3.83,3.83,0,0,1,3.46-2.36c1.68,0,3.66,1,3.66,4.18,0,2.72-1.44,6.3-4.84,6.3a3.2,3.2,0,0,1-3.26-2.12l-1,5.78h-1.38Zm6.54,4c0-2.4-1.34-3-2.52-3-2.14,0-3.2,1.94-3.48,3.58l-.12.66c-.38,2.16.5,3.76,2.5,3.76C458.08,383,458.82,379.76,458.82,378Z"/><path d="M463.72,384h-1.38l2.56-14.5h1.38Z"/><path d="M467.22,381.4a2.69,2.69,0,0,1,.92-2.08,5.58,5.58,0,0,1,3.38-1.12l3.06-.24.06-.34c.28-1.88-.34-2.7-2.06-2.7s-2.62.72-2.88,2.2h-1.42c.3-2.22,1.88-3.36,4.2-3.36,2.82,0,4,1.32,3.5,4.32l-.44,2.48a18.57,18.57,0,0,0-.28,3.44H473.8a14,14,0,0,1,.18-2,3.74,3.74,0,0,1-3.56,2.24C468.56,384.24,467.22,383.22,467.22,381.4Zm7.08-1.76.12-.68-2.64.2c-2.22.18-3,1-3,2.18s.9,1.74,2,1.74C472.54,383.08,473.92,381.7,474.3,379.64Z"/><path d="M480.24,374h1.32l-.38,2.16a3.56,3.56,0,0,1,3.46-2.4c1.4,0,3.08.6,3.08,3.2a8.51,8.51,0,0,1-.12,1.34l-1,5.7h-1.4l1-5.76a6.5,6.5,0,0,0,.1-1,2,2,0,0,0-2.2-2.22c-2.3,0-3.06,2.14-3.34,3.74l-.94,5.26h-1.38Z"/><path d="M490.18,374H492l.46-2.64,1.52-.6-.58,3.24H496l-.2,1.16h-2.56l-1,5.78c-.3,1.66.52,1.92,1.36,1.92a4.94,4.94,0,0,0,.88-.08l-.22,1.24a4.24,4.24,0,0,1-1.14.16c-1.48,0-2.72-.86-2.26-3.44l1-5.58H490Z"/><path d="M496.34,381.4a2.69,2.69,0,0,1,.92-2.08,5.58,5.58,0,0,1,3.38-1.12l3.06-.24.06-.34c.28-1.88-.34-2.7-2.06-2.7s-2.62.72-2.88,2.2H497.4c.3-2.22,1.88-3.36,4.2-3.36,2.82,0,4,1.32,3.5,4.32l-.44,2.48a18.57,18.57,0,0,0-.28,3.44h-1.46a14,14,0,0,1,.18-2,3.74,3.74,0,0,1-3.56,2.24C497.68,384.24,496.34,383.22,496.34,381.4Zm7.08-1.76.12-.68-2.64.2c-2.22.18-3,1-3,2.18s.9,1.74,2,1.74C501.66,383.08,503,381.7,503.42,379.64Z"/><path d="M507.52,374h1.86l.46-2.64,1.52-.6-.58,3.24h2.56l-.2,1.16h-2.56l-1,5.78c-.3,1.66.52,1.92,1.36,1.92a4.94,4.94,0,0,0,.88-.08l-.22,1.24a4.24,4.24,0,0,1-1.14.16c-1.48,0-2.72-.86-2.26-3.44l1-5.58h-1.86Z"/><path d="M516,374h1.38l-1.76,10h-1.38Zm.54-4h1.6l-.4,2.2h-1.58Z"/><path d="M519.34,379.9c0-2.7,1.32-6.14,5.2-6.14,2.08,0,4.22,1,4.22,4.34,0,2.7-1.32,6.14-5.22,6.14C521.48,384.24,519.34,383.22,519.34,379.9Zm7.92-1.72c0-2.46-1.4-3.2-2.8-3.2-2.86,0-3.62,2.92-3.62,4.84,0,2.46,1.4,3.2,2.8,3.2C526.5,383,527.26,380.1,527.26,378.18Z"/><path d="M532.48,374h1.32l-.38,2.16a3.56,3.56,0,0,1,3.46-2.4c1.4,0,3.08.6,3.08,3.2a8.51,8.51,0,0,1-.12,1.34l-1,5.7h-1.4l1-5.76a6.5,6.5,0,0,0,.1-1,2,2,0,0,0-2.2-2.22c-2.3,0-3.06,2.14-3.34,3.74L532.1,384h-1.38Z"/><path d="M987.18,201.8l-1.56,8.82c-.52,3,.82,4.34,3.36,4.34,2.9,0,3.74-1.8,4.14-4.1l1.6-9.06h1.56l-1.7,9.58c-.48,2.66-1.88,5-5.7,5-3.6,0-5.48-2-4.78-5.9l1.54-8.64Z"/><path d="M1001.38,206h1.32l-.38,2.16a3.56,3.56,0,0,1,3.46-2.4c1.4,0,3.08.6,3.08,3.2a8.51,8.51,0,0,1-.12,1.34l-1,5.7h-1.4l1-5.76a6.5,6.5,0,0,0,.1-1,2,2,0,0,0-2.2-2.22c-2.3,0-3.06,2.14-3.34,3.74L1001,216h-1.38Z"/><path d="M1029.94,214a3.52,3.52,0,0,1-3.36,2.22c-1.8,0-3.68-1.06-3.68-4.22,0-2.68,1.36-6.26,4.92-6.26a3.21,3.21,0,0,1,3.26,2.16l.64-1.92h1l-2.46,13.9h-1.4Zm.44-2.4.1-.48c.54-2.82-.84-4.14-2.6-4.14-2.64,0-3.48,3-3.48,4.92,0,2.58,1.46,3.08,2.58,3.08C1029,215,1030,213.4,1030.38,211.62Z"/><path d="M1037.26,213.16a10,10,0,0,1,.12-1.46l1-5.7h1.38l-1,5.76a6,6,0,0,0-.12,1.14,1.94,1.94,0,0,0,2.18,2.1c2.2,0,2.94-2.14,3.22-3.74L1045,206h1.42l-1.78,10h-1.32l.4-2.2a3.43,3.43,0,0,1-3.36,2.44A2.8,2.8,0,0,1,1037.26,213.16Z"/><path d="M1050.18,213.4a2.69,2.69,0,0,1,.92-2.08,5.58,5.58,0,0,1,3.38-1.12l3.06-.24.06-.34c.28-1.88-.34-2.7-2.06-2.7s-2.62.72-2.88,2.2h-1.42c.3-2.22,1.88-3.36,4.2-3.36,2.82,0,4,1.32,3.5,4.32l-.44,2.48a18.57,18.57,0,0,0-.28,3.44h-1.46a14,14,0,0,1,.18-2,3.74,3.74,0,0,1-3.56,2.24C1051.52,216.24,1050.18,215.22,1050.18,213.4Zm7.08-1.76.12-.68-2.64.2c-2.22.18-3,1-3,2.18s.9,1.74,2,1.74C1055.5,215.08,1056.88,213.7,1057.26,211.64Z"/><path d="M1069.52,205.76a2.9,2.9,0,0,1,.64.06l-.26,1.38a2.07,2.07,0,0,0-.56-.06,2.53,2.53,0,0,0-1.78.6,5.58,5.58,0,0,0-1.72,3.44L1065,216h-1.38l1.76-10h1.32l-.46,2.6C1066.82,206.9,1067.74,205.76,1069.52,205.76Z"/><path d="M1073.74,206h1.86l.46-2.64,1.52-.6L1077,206h2.56l-.2,1.16h-2.56l-1,5.78c-.3,1.66.52,1.92,1.36,1.92a4.94,4.94,0,0,0,.88-.08l-.22,1.24a4.24,4.24,0,0,1-1.14.16c-1.48,0-2.72-.86-2.26-3.44l1-5.58h-1.86Z"/><path d="M1084.38,206h1.38L1084,216h-1.38Zm.54-4h1.6l-.4,2.2h-1.58Z"/><path d="M1091.26,211.36v.36c0,2.46,1.32,3.28,2.92,3.28a2.91,2.91,0,0,0,2.88-2.14l1.16.5a4.12,4.12,0,0,1-4.1,2.88c-2,0-4.24-1-4.24-4.42,0-2.78,1.48-6.06,5.1-6.06a3.57,3.57,0,0,1,3.9,3.86,5.2,5.2,0,0,1-.28,1.74Zm.14-1.14h6a2.85,2.85,0,0,0,.1-.78,2.34,2.34,0,0,0-2.56-2.58C1092.92,206.86,1091.78,208.32,1091.4,210.22Z"/><path d="M1108.9,205.76a2.9,2.9,0,0,1,.64.06l-.26,1.38a2.07,2.07,0,0,0-.56-.06,2.53,2.53,0,0,0-1.78.6,5.58,5.58,0,0,0-1.72,3.44l-.88,4.82H1103l1.76-10H1106l-.46,2.6C1106.2,206.9,1107.12,205.76,1108.9,205.76Z"/><path d="M1128.82,214a3.52,3.52,0,0,1-3.36,2.22c-1.8,0-3.68-1.06-3.68-4.22,0-2.68,1.36-6.26,4.92-6.26a3.21,3.21,0,0,1,3.26,2.16l.64-1.92h1l-2.46,13.9h-1.4Zm.44-2.4.1-.48c.54-2.82-.84-4.14-2.6-4.14-2.64,0-3.48,3-3.48,4.92,0,2.58,1.46,3.08,2.58,3.08C1127.84,215,1128.92,213.4,1129.26,211.62Z"/><path d="M1136.14,213.16a10,10,0,0,1,.12-1.46l1-5.7h1.38l-1,5.76a6,6,0,0,0-.12,1.14,1.94,1.94,0,0,0,2.18,2.1c2.2,0,2.94-2.14,3.22-3.74l.92-5.26h1.42l-1.78,10h-1.32l.4-2.2a3.43,3.43,0,0,1-3.36,2.44A2.8,2.8,0,0,1,1136.14,213.16Z"/><path d="M1151.2,206h1.38l-1.76,10h-1.38Zm.54-4h1.6l-.4,2.2h-1.58Z"/><path d="M983.14,235.9c0-2.7,1.32-6.14,5.2-6.14,2.08,0,4.22,1,4.22,4.34,0,2.7-1.32,6.14-5.22,6.14C985.28,240.24,983.14,239.22,983.14,235.9Zm7.92-1.72c0-2.46-1.4-3.2-2.8-3.2-2.86,0-3.62,2.92-3.62,4.84,0,2.46,1.4,3.2,2.8,3.2C990.3,239,991.06,236.1,991.06,234.18Z"/><path d="M1000.16,231.16h-2.58L996,240h-1.38l1.56-8.84H994.3l.2-1.16h1.88l.3-1.82c.28-1.56,1.12-2.8,3.08-2.8a3.8,3.8,0,0,1,1.4.24l-.22,1.2a3.21,3.21,0,0,0-1.1-.2c-1.24,0-1.6.74-1.78,1.7l-.3,1.68h2.6Z"/><path d="M1007.32,231.16h-2.58l-1.58,8.84h-1.38l1.56-8.84h-1.88l.2-1.16h1.88l.3-1.82c.28-1.56,1.12-2.8,3.08-2.8a3.8,3.8,0,0,1,1.4.24l-.22,1.2a3.21,3.21,0,0,0-1.1-.2c-1.24,0-1.6.74-1.78,1.7l-.3,1.68h2.6Z"/><path d="M1014,229.76a2.9,2.9,0,0,1,.64.06l-.26,1.38a2.07,2.07,0,0,0-.56-.06,2.53,2.53,0,0,0-1.78.6,5.58,5.58,0,0,0-1.72,3.44l-.88,4.82h-1.38l1.76-10h1.32l-.46,2.6C1011.34,230.9,1012.26,229.76,1014,229.76Z"/><path d="M1016.14,235.36v.36c0,2.46,1.32,3.28,2.92,3.28a2.91,2.91,0,0,0,2.88-2.14l1.16.5a4.12,4.12,0,0,1-4.1,2.88c-2,0-4.24-1-4.24-4.42,0-2.78,1.48-6.06,5.1-6.06a3.57,3.57,0,0,1,3.9,3.86,5.2,5.2,0,0,1-.28,1.74Zm.14-1.14h6a2.85,2.85,0,0,0,.1-.78,2.34,2.34,0,0,0-2.56-2.58C1017.8,230.86,1016.66,232.32,1016.28,234.22Z"/><path d="M1030.62,237.16a10,10,0,0,1,.12-1.46l1-5.7h1.38l-1,5.76a6,6,0,0,0-.12,1.14,1.94,1.94,0,0,0,2.18,2.1c2.2,0,2.94-2.14,3.22-3.74l.92-5.26h1.42L1038,240h-1.32l.4-2.2a3.43,3.43,0,0,1-3.36,2.44A2.8,2.8,0,0,1,1030.62,237.16Z"/><path d="M1043.44,230h1.32l-.38,2.16a3.56,3.56,0,0,1,3.46-2.4c1.4,0,3.08.6,3.08,3.2a8.51,8.51,0,0,1-.12,1.34l-1,5.7h-1.4l1-5.76a6.5,6.5,0,0,0,.1-1,2,2,0,0,0-2.2-2.22c-2.3,0-3.06,2.14-3.34,3.74l-.94,5.26h-1.38Z"/><path d="M1054.52,235.36v.36c0,2.46,1.32,3.28,2.92,3.28a2.91,2.91,0,0,0,2.88-2.14l1.16.5a4.12,4.12,0,0,1-4.1,2.88c-2,0-4.24-1-4.24-4.42,0-2.78,1.48-6.06,5.1-6.06a3.57,3.57,0,0,1,3.9,3.86,5.2,5.2,0,0,1-.28,1.74Zm.14-1.14h6a2.85,2.85,0,0,0,.1-.78,2.34,2.34,0,0,0-2.56-2.58C1056.18,230.86,1055,232.32,1054.66,234.22Z"/><path d="M1070.42,230h1.32l-.34,1.94a3.12,3.12,0,0,1,3-2.18,2.39,2.39,0,0,1,2.62,2.22,3.41,3.41,0,0,1,3.2-2.22,2.71,2.71,0,0,1,2.92,3,6.55,6.55,0,0,1-.12,1.18L1082,240h-1.4l1.08-6a4.35,4.35,0,0,0,.1-1c0-1.64-1-2.06-1.88-2.06-1.9,0-2.58,1.8-2.86,3.44l-1,5.56h-1.38l1.08-6a6.21,6.21,0,0,0,.08-1c0-1.66-1-2-1.84-2-2,0-2.64,1.88-2.94,3.52l-1,5.48h-1.38Z"/><path d="M1085.74,237.16a10,10,0,0,1,.12-1.46l1-5.7h1.38l-1,5.76a6,6,0,0,0-.12,1.14,1.94,1.94,0,0,0,2.18,2.1c2.2,0,2.94-2.14,3.22-3.74l.92-5.26h1.42l-1.78,10h-1.32l.4-2.2a3.43,3.43,0,0,1-3.36,2.44A2.8,2.8,0,0,1,1085.74,237.16Z"/><path d="M1098.3,240h-1.38l2.56-14.5h1.38Z"/><path d="M1102.38,230h1.86l.46-2.64,1.52-.6-.58,3.24h2.56l-.2,1.16h-2.56l-1,5.78c-.3,1.66.52,1.92,1.36,1.92a4.94,4.94,0,0,0,.88-.08l-.22,1.24a4.24,4.24,0,0,1-1.14.16c-1.48,0-2.72-.86-2.26-3.44l1-5.58h-1.86Z"/><path d="M1110.78,230h1.38l-1.76,10H1109Zm.54-4h1.6l-.4,2.2h-1.58Z"/><path d="M1114.4,230h1.86l.46-2.64,1.52-.6-.58,3.24h2.56l-.2,1.16h-2.56l-1,5.78c-.3,1.66.52,1.92,1.36,1.92a4.94,4.94,0,0,0,.88-.08l-.22,1.24a4.24,4.24,0,0,1-1.14.16c-1.48,0-2.72-.86-2.26-3.44l1-5.58h-1.86Z"/><path d="M1121.38,237.16a10,10,0,0,1,.12-1.46l1-5.7h1.38l-1,5.76a6,6,0,0,0-.12,1.14,1.94,1.94,0,0,0,2.18,2.1c2.2,0,2.94-2.14,3.22-3.74l.92-5.26h1.42l-1.78,10h-1.32l.4-2.2a3.43,3.43,0,0,1-3.36,2.44A2.8,2.8,0,0,1,1121.38,237.16Z"/><path d="M1132.34,236c0-2.68,1.38-6.26,4.88-6.26a3.13,3.13,0,0,1,3.22,2.26l1.12-6.52h1.4L1140.4,240h-1.32l.34-1.94a3.82,3.82,0,0,1-3.46,2.18C1134.28,240.24,1132.34,239.18,1132.34,236Zm7.48-.4.1-.48c.54-2.82-.84-4.14-2.6-4.14-2.64,0-3.48,3-3.48,4.92,0,2.58,1.46,3.08,2.58,3.08C1138.4,239,1139.48,237.4,1139.82,235.62Z"/><path d="M1145.5,235.36v.36c0,2.46,1.32,3.28,2.92,3.28a2.91,2.91,0,0,0,2.88-2.14l1.16.5a4.12,4.12,0,0,1-4.1,2.88c-2,0-4.24-1-4.24-4.42,0-2.78,1.48-6.06,5.1-6.06a3.57,3.57,0,0,1,3.9,3.86,5.2,5.2,0,0,1-.28,1.74Zm.14-1.14h6a2.85,2.85,0,0,0,.1-.78,2.34,2.34,0,0,0-2.56-2.58C1147.16,230.86,1146,232.32,1145.64,234.22Z"/><path d="M983.1,260c0-2.68,1.38-6.26,4.88-6.26A3.13,3.13,0,0,1,991.2,256l1.12-6.52h1.4L991.16,264h-1.32l.34-1.94a3.82,3.82,0,0,1-3.46,2.18C985,264.24,983.1,263.18,983.1,260Zm7.48-.4.1-.48c.54-2.82-.84-4.14-2.6-4.14-2.64,0-3.48,3-3.48,4.92,0,2.58,1.46,3.08,2.58,3.08C989.16,263,990.24,261.4,990.58,259.62Z"/><path d="M997,259.36v.36c0,2.46,1.32,3.28,2.92,3.28a2.91,2.91,0,0,0,2.88-2.14l1.16.5a4.12,4.12,0,0,1-4.1,2.88c-2,0-4.24-1-4.24-4.42,0-2.78,1.48-6.06,5.1-6.06a3.57,3.57,0,0,1,3.9,3.86,5.2,5.2,0,0,1-.28,1.74Zm.14-1.14h6a2.85,2.85,0,0,0,.1-.78,2.34,2.34,0,0,0-2.56-2.58C998.66,254.86,997.52,256.32,997.14,258.22Z"/><path d="M1013.74,259.84c0-2.64,1.34-6.08,5.14-6.08,2.14,0,3.88,1.1,3.84,3.62l-1.34.16a2.33,2.33,0,0,0-2.52-2.56c-2.8,0-3.62,2.86-3.62,4.86,0,2.42,1.38,3.18,2.72,3.18a2.9,2.9,0,0,0,2.88-2.56l1.36.2a4.16,4.16,0,0,1-4.3,3.58C1015.88,264.24,1013.74,263.2,1013.74,259.84Z"/><path d="M1027.8,249.5h1.38L1028,256a3.66,3.66,0,0,1,3.5-2.26,2.75,2.75,0,0,1,3,3.06,7.79,7.79,0,0,1-.12,1.26l-1,5.92H1032l1.06-5.92c0-.22.08-.62.08-1A1.88,1.88,0,0,0,1031,255c-2.24,0-3.12,1.9-3.44,3.74l-.94,5.26h-1.38Z"/><path d="M1038.84,259.36v.36c0,2.46,1.32,3.28,2.92,3.28a2.91,2.91,0,0,0,2.88-2.14l1.16.5a4.12,4.12,0,0,1-4.1,2.88c-2,0-4.24-1-4.24-4.42,0-2.78,1.48-6.06,5.1-6.06a3.57,3.57,0,0,1,3.9,3.86,5.2,5.2,0,0,1-.28,1.74Zm.14-1.14h6a2.85,2.85,0,0,0,.1-.78,2.34,2.34,0,0,0-2.56-2.58C1040.5,254.86,1039.36,256.32,1039,258.22Z"/><path d="M1050.8,254h1.32l-.34,1.94a3.12,3.12,0,0,1,3-2.18,2.39,2.39,0,0,1,2.62,2.22,3.41,3.41,0,0,1,3.2-2.22,2.71,2.71,0,0,1,2.92,3,6.55,6.55,0,0,1-.12,1.18l-1.1,6.08h-1.4l1.08-6a4.35,4.35,0,0,0,.1-1c0-1.64-1-2.06-1.88-2.06-1.9,0-2.58,1.8-2.86,3.44l-1,5.56H1055l1.08-6a6.21,6.21,0,0,0,.08-1c0-1.66-1-2-1.84-2-2,0-2.64,1.88-2.94,3.52l-1,5.48H1049Z"/><path d="M1068.28,254h1.38l-1.76,10h-1.38Zm.54-4h1.6l-.4,2.2h-1.58Z"/><path d="M1074.12,254h1.32l-.38,2.16a3.56,3.56,0,0,1,3.46-2.4c1.4,0,3.08.6,3.08,3.2a8.51,8.51,0,0,1-.12,1.34l-1,5.7h-1.4l1-5.76a6.5,6.5,0,0,0,.1-1A2,2,0,0,0,1078,255c-2.3,0-3.06,2.14-3.34,3.74l-.94,5.26h-1.38Z"/><path d="M1085.94,259.36v.36c0,2.46,1.32,3.28,2.92,3.28a2.91,2.91,0,0,0,2.88-2.14l1.16.5a4.12,4.12,0,0,1-4.1,2.88c-2,0-4.24-1-4.24-4.42,0-2.78,1.48-6.06,5.1-6.06a3.57,3.57,0,0,1,3.9,3.86,5.2,5.2,0,0,1-.28,1.74Zm.14-1.14h6a2.85,2.85,0,0,0,.1-.78,2.34,2.34,0,0,0-2.56-2.58C1087.6,254.86,1086.46,256.32,1086.08,258.22Z"/><path d="M1097.9,254h1.32l-.34,1.94a3.12,3.12,0,0,1,3-2.18,2.39,2.39,0,0,1,2.62,2.22,3.41,3.41,0,0,1,3.2-2.22,2.71,2.71,0,0,1,2.92,3,6.55,6.55,0,0,1-.12,1.18l-1.1,6.08H1108l1.08-6a4.35,4.35,0,0,0,.1-1c0-1.64-1-2.06-1.88-2.06-1.9,0-2.58,1.8-2.86,3.44l-1,5.56h-1.38l1.08-6a6.21,6.21,0,0,0,.08-1c0-1.66-1-2-1.84-2-2,0-2.64,1.88-2.94,3.52l-1,5.48h-1.38Z"/><path d="M1114.92,259.36v.36c0,2.46,1.32,3.28,2.92,3.28a2.91,2.91,0,0,0,2.88-2.14l1.16.5a4.12,4.12,0,0,1-4.1,2.88c-2,0-4.24-1-4.24-4.42,0-2.78,1.48-6.06,5.1-6.06a3.57,3.57,0,0,1,3.9,3.86,5.2,5.2,0,0,1-.28,1.74Zm.14-1.14h6a2.85,2.85,0,0,0,.1-.78,2.34,2.34,0,0,0-2.56-2.58C1116.58,254.86,1115.44,256.32,1115.06,258.22Z"/><path d="M1126.88,254h1.32l-.38,2.16a3.56,3.56,0,0,1,3.46-2.4c1.4,0,3.08.6,3.08,3.2a8.51,8.51,0,0,1-.12,1.34l-1,5.7h-1.4l1-5.76a6.5,6.5,0,0,0,.1-1,2,2,0,0,0-2.2-2.22c-2.3,0-3.06,2.14-3.34,3.74l-.94,5.26h-1.38Z"/><path d="M1137.48,254h1.86l.46-2.64,1.52-.6-.58,3.24h2.56l-.2,1.16h-2.56l-1,5.78c-.3,1.66.52,1.92,1.36,1.92a4.94,4.94,0,0,0,.88-.08l-.22,1.24a4.24,4.24,0,0,1-1.14.16c-1.48,0-2.72-.86-2.26-3.44l1-5.58h-1.86Z"/><path d="M1144.32,261.12l1.4-.22c.18,1.62,1.34,2.18,2.76,2.18,1.84,0,2.34-1,2.34-1.86s-.5-1.28-1.5-1.5l-1.74-.4a2.51,2.51,0,0,1-2.24-2.54c0-1.64,1.3-3,3.72-3,1.92,0,3.88.82,3.92,2.8l-1.36.3c-.08-1.44-1.3-2-2.64-2-1.6,0-2.24.78-2.24,1.76s.44,1.26,1.58,1.52l1.66.38c1.72.4,2.28,1.32,2.28,2.6,0,1.62-1.26,3.08-3.9,3.08C1146.46,264.24,1144.52,263.46,1144.32,261.12Z"/><path d="M983.1,284c0-2.68,1.38-6.26,4.88-6.26A3.13,3.13,0,0,1,991.2,280l1.12-6.52h1.4L991.16,288h-1.32l.34-1.94a3.82,3.82,0,0,1-3.46,2.18C985,288.24,983.1,287.18,983.1,284Zm7.48-.4.1-.48c.54-2.82-.84-4.14-2.6-4.14-2.64,0-3.48,3-3.48,4.92,0,2.58,1.46,3.08,2.58,3.08C989.16,287,990.24,285.4,990.58,283.62Z"/><path d="M994.38,285.4a2.69,2.69,0,0,1,.92-2.08,5.58,5.58,0,0,1,3.38-1.12l3.06-.24.06-.34c.28-1.88-.34-2.7-2.06-2.7s-2.62.72-2.88,2.2h-1.42c.3-2.22,1.88-3.36,4.2-3.36,2.82,0,4,1.32,3.5,4.32l-.44,2.48a18.57,18.57,0,0,0-.28,3.44H1001a14,14,0,0,1,.18-2,3.74,3.74,0,0,1-3.56,2.24C995.72,288.24,994.38,287.22,994.38,285.4Zm7.08-1.76.12-.68-2.64.2c-2.22.18-3,1-3,2.18s.9,1.74,2,1.74C999.7,287.08,1001.08,285.7,1001.46,283.64Z"/><path d="M1007.12,278h1.32l-.38,2.16a3.56,3.56,0,0,1,3.46-2.4c1.4,0,3.08.6,3.08,3.2a8.51,8.51,0,0,1-.12,1.34l-1,5.7h-1.4l1-5.76a6.5,6.5,0,0,0,.1-1A2,2,0,0,0,1011,279c-2.3,0-3.06,2.14-3.34,3.74l-.94,5.26h-1.38Z"/><path d="M1016.22,285.12l1.4-.22c.18,1.62,1.34,2.18,2.76,2.18,1.84,0,2.34-1,2.34-1.86s-.5-1.28-1.5-1.5l-1.74-.4a2.51,2.51,0,0,1-2.24-2.54c0-1.64,1.3-3,3.72-3,1.92,0,3.88.82,3.92,2.8l-1.36.3c-.08-1.44-1.3-2-2.64-2-1.6,0-2.24.78-2.24,1.76s.44,1.26,1.58,1.52l1.66.38c1.72.4,2.28,1.32,2.28,2.6,0,1.62-1.26,3.08-3.9,3.08C1018.36,288.24,1016.42,287.46,1016.22,285.12Z"/><path d="M1031.12,285.16a10,10,0,0,1,.12-1.46l1-5.7h1.38l-1,5.76a6,6,0,0,0-.12,1.14,1.94,1.94,0,0,0,2.18,2.1c2.2,0,2.94-2.14,3.22-3.74l.92-5.26h1.42l-1.78,10h-1.32l.4-2.2a3.43,3.43,0,0,1-3.36,2.44A2.8,2.8,0,0,1,1031.12,285.16Z"/><path d="M1043.76,278h1.32l-.38,2.16a3.56,3.56,0,0,1,3.46-2.4c1.4,0,3.08.6,3.08,3.2a8.51,8.51,0,0,1-.12,1.34l-1,5.7h-1.4l1-5.76a6.5,6.5,0,0,0,.1-1,2,2,0,0,0-2.2-2.22c-2.3,0-3.06,2.14-3.34,3.74l-.94,5.26H1042Z"/><path d="M1054.64,283.36v.36c0,2.46,1.32,3.28,2.92,3.28a2.91,2.91,0,0,0,2.88-2.14l1.16.5a4.12,4.12,0,0,1-4.1,2.88c-2,0-4.24-1-4.24-4.42,0-2.78,1.48-6.06,5.1-6.06a3.57,3.57,0,0,1,3.9,3.86,5.2,5.2,0,0,1-.28,1.74Zm.14-1.14h6a2.85,2.85,0,0,0,.1-.78,2.34,2.34,0,0,0-2.56-2.58C1056.3,278.86,1055.16,280.32,1054.78,282.22Z"/><path d="M1068,285.4a2.69,2.69,0,0,1,.92-2.08,5.58,5.58,0,0,1,3.38-1.12l3.06-.24.06-.34c.28-1.88-.34-2.7-2.06-2.7s-2.62.72-2.88,2.2H1069c.3-2.22,1.88-3.36,4.2-3.36,2.82,0,4,1.32,3.5,4.32l-.44,2.48A18.57,18.57,0,0,0,1076,288h-1.46a14,14,0,0,1,.18-2,3.74,3.74,0,0,1-3.56,2.24C1069.3,288.24,1068,287.22,1068,285.4Zm7.08-1.76.12-.68-2.64.2c-2.22.18-3,1-3,2.18s.9,1.74,2,1.74C1073.28,287.08,1074.66,285.7,1075,283.64Z"/><path d="M1080.68,278H1082l-.34,1.94a3.12,3.12,0,0,1,3-2.18,2.39,2.39,0,0,1,2.62,2.22,3.41,3.41,0,0,1,3.2-2.22,2.71,2.71,0,0,1,2.92,3,6.55,6.55,0,0,1-.12,1.18l-1.1,6.08h-1.4l1.08-6a4.35,4.35,0,0,0,.1-1c0-1.64-1-2.06-1.88-2.06-1.9,0-2.58,1.8-2.86,3.44l-1,5.56h-1.38l1.08-6a6.21,6.21,0,0,0,.08-1c0-1.66-1-2-1.84-2-2,0-2.64,1.88-2.94,3.52l-1,5.48h-1.38Z"/><path d="M1097.22,286l-.6,2h-1.06l2.56-14.5h1.38l-1.12,6.4a3.75,3.75,0,0,1,3.32-2.14c1.68,0,3.66,1,3.66,4.18,0,2.68-1.42,6.3-4.84,6.3A3.23,3.23,0,0,1,1097.22,286Zm6.64-4.06c0-2.38-1.36-3-2.52-3a3.62,3.62,0,0,0-3.4,3.16l-.16.76c-.48,2.26.34,4.08,2.52,4.08C1103.08,287,1103.86,283.76,1103.86,282Z"/><path d="M1108.76,278h1.38l-1.76,10H1107Zm.54-4h1.6l-.4,2.2h-1.58Z"/><path d="M1111.5,285.4a2.69,2.69,0,0,1,.92-2.08,5.58,5.58,0,0,1,3.38-1.12l3.06-.24.06-.34c.28-1.88-.34-2.7-2.06-2.7s-2.62.72-2.88,2.2h-1.42c.3-2.22,1.88-3.36,4.2-3.36,2.82,0,4,1.32,3.5,4.32l-.44,2.48a18.57,18.57,0,0,0-.28,3.44h-1.46a14,14,0,0,1,.18-2,3.74,3.74,0,0,1-3.56,2.24C1112.84,288.24,1111.5,287.22,1111.5,285.4Zm7.08-1.76.12-.68-2.64.2c-2.22.18-3,1-3,2.18s.9,1.74,2,1.74C1116.82,287.08,1118.2,285.7,1118.58,283.64Z"/><path d="M1124.22,278h1.32l-.38,2.16a3.56,3.56,0,0,1,3.46-2.4c1.4,0,3.08.6,3.08,3.2a8.51,8.51,0,0,1-.12,1.34l-1,5.7h-1.4l1-5.76a6.5,6.5,0,0,0,.1-1,2,2,0,0,0-2.2-2.22c-2.3,0-3.06,2.14-3.34,3.74l-.94,5.26h-1.38Z"/><path d="M1133.7,283.84c0-2.64,1.34-6.08,5.14-6.08,2.14,0,3.88,1.1,3.84,3.62l-1.34.16a2.33,2.33,0,0,0-2.52-2.56c-2.8,0-3.62,2.86-3.62,4.86,0,2.42,1.38,3.18,2.72,3.18a2.9,2.9,0,0,0,2.88-2.56l1.36.2a4.16,4.16,0,0,1-4.3,3.58C1135.84,288.24,1133.7,287.2,1133.7,283.84Z"/><path d="M1145.46,283.36v.36c0,2.46,1.32,3.28,2.92,3.28a2.91,2.91,0,0,0,2.88-2.14l1.16.5a4.12,4.12,0,0,1-4.1,2.88c-2,0-4.24-1-4.24-4.42,0-2.78,1.48-6.06,5.1-6.06a3.57,3.57,0,0,1,3.9,3.86,5.2,5.2,0,0,1-.28,1.74Zm.14-1.14h6a2.85,2.85,0,0,0,.1-.78,2.34,2.34,0,0,0-2.56-2.58C1147.12,278.86,1146,280.32,1145.6,282.22Z"/><path d="M983.3,302h1.48l1.24,7.08c.08.56.14,1,.16,1.48h.06c.18-.46.42-.92.7-1.48l3.74-7.08h1.54l-5.46,10h-1.52Z"/><path d="M1001.26,305.62a5.2,5.2,0,0,1-.28,1.74h-7.34v.36c0,2.46,1.32,3.28,2.92,3.28a2.91,2.91,0,0,0,2.88-2.14l1.16.5a4.12,4.12,0,0,1-4.1,2.88c-2,0-4.24-1-4.24-4.42,0-2.78,1.48-6.06,5.1-6.06A3.57,3.57,0,0,1,1001.26,305.62Zm-1.36-.18a2.34,2.34,0,0,0-2.56-2.58c-2,0-3.18,1.46-3.56,3.36h6A2.85,2.85,0,0,0,999.9,305.44Zm-1.5-5h-1.32l2.48-2.86h1.72Z"/><path d="M1013.3,300.48l-.22,1.26a2.53,2.53,0,0,0-.82-.12,1.51,1.51,0,0,0-1.6,1.26,2.82,2.82,0,0,1,.62,1.9,3.61,3.61,0,0,1-3.9,3.7,4.2,4.2,0,0,1-2-.46c-1,.32-1.28.8-1.28,1.26,0,.72.62.94,1.92,1l1.78.06c1.52,0,3.28.4,3.28,2.46,0,1.56-1,3.36-5.1,3.36-2.1,0-4.34-.5-4.34-2.58,0-1,.56-1.86,2.22-2.38a1.52,1.52,0,0,1-1.06-1.5c0-.86.52-1.6,2-2.1a2.83,2.83,0,0,1-.82-2.12,3.63,3.63,0,0,1,3.92-3.7,4,4,0,0,1,2.16.54,2.55,2.55,0,0,1,2.54-1.9A3.12,3.12,0,0,1,1013.3,300.48Zm-7.52,11a7.87,7.87,0,0,1-1-.08c-1.38.44-1.74,1.14-1.74,1.86,0,1.42,1.5,1.7,3,1.7,2.88,0,3.54-1.14,3.54-2,0-1.22-1-1.4-2-1.42Zm4.18-6.62a2,2,0,0,0-2.26-2,2.34,2.34,0,0,0-2.46,2.52,2,2,0,0,0,2.24,2A2.36,2.36,0,0,0,1010,304.88Z"/><path d="M1022.3,305.62a5.2,5.2,0,0,1-.28,1.74h-7.34v.36c0,2.46,1.32,3.28,2.92,3.28a2.91,2.91,0,0,0,2.88-2.14l1.16.5a4.12,4.12,0,0,1-4.1,2.88c-2,0-4.24-1-4.24-4.42,0-2.78,1.48-6.06,5.1-6.06A3.57,3.57,0,0,1,1022.3,305.62Zm-1.36-.18a2.34,2.34,0,0,0-2.56-2.58c-2,0-3.18,1.46-3.56,3.36h6A2.85,2.85,0,0,0,1020.94,305.44Zm-1.5-5h-1.32l2.48-2.86h1.72Z"/><path d="M1024.24,302h1.86l.46-2.64,1.52-.6-.58,3.24h2.56l-.2,1.16h-2.56l-1,5.78c-.3,1.66.52,1.92,1.36,1.92a4.94,4.94,0,0,0,.88-.08l-.22,1.24a4.24,4.24,0,0,1-1.14.16c-1.48,0-2.72-.86-2.26-3.44l1-5.58H1024Z"/><path d="M1030.4,309.4a2.69,2.69,0,0,1,.92-2.08,5.58,5.58,0,0,1,3.38-1.12l3.06-.24.06-.34c.28-1.88-.34-2.7-2.06-2.7s-2.62.72-2.88,2.2h-1.42c.3-2.22,1.88-3.36,4.2-3.36,2.82,0,4,1.32,3.5,4.32l-.44,2.48a18.57,18.57,0,0,0-.28,3.44H1037a14,14,0,0,1,.18-2,3.74,3.74,0,0,1-3.56,2.24C1031.74,312.24,1030.4,311.22,1030.4,309.4Zm7.08-1.76.12-.68-2.64.2c-2.22.18-3,1-3,2.18s.9,1.74,2,1.74C1035.72,311.08,1037.1,309.7,1037.48,307.64Z"/><path d="M1043.14,312h-1.38l2.56-14.5h1.38Z"/><path d="M1048.8,302h1.38l-1.76,10H1047Zm.54-4h1.6l-.4,2.2H1049Z"/><path d="M1051.76,309.12l1.4-.22c.18,1.62,1.34,2.18,2.76,2.18,1.84,0,2.34-1,2.34-1.86s-.5-1.28-1.5-1.5l-1.74-.4a2.51,2.51,0,0,1-2.24-2.54c0-1.64,1.3-3,3.72-3,1.92,0,3.88.82,3.92,2.8l-1.36.3c-.08-1.44-1.3-2-2.64-2-1.6,0-2.24.78-2.24,1.76s.44,1.26,1.58,1.52l1.66.38c1.72.4,2.28,1.32,2.28,2.6,0,1.62-1.26,3.08-3.9,3.08C1053.9,312.24,1052,311.46,1051.76,309.12Z"/><path d="M1071.06,305.62a5.2,5.2,0,0,1-.28,1.74h-7.34v.36c0,2.46,1.32,3.28,2.92,3.28a2.91,2.91,0,0,0,2.88-2.14l1.16.5a4.12,4.12,0,0,1-4.1,2.88c-2,0-4.24-1-4.24-4.42,0-2.78,1.48-6.06,5.1-6.06A3.57,3.57,0,0,1,1071.06,305.62Zm-1.36-.18a2.34,2.34,0,0,0-2.56-2.58c-2,0-3.18,1.46-3.56,3.36h6A2.85,2.85,0,0,0,1069.7,305.44Zm-1.5-5h-1.32l2.48-2.86h1.72Z"/><path d="M1074.28,307.36v.36c0,2.46,1.32,3.28,2.92,3.28a2.91,2.91,0,0,0,2.88-2.14l1.16.5a4.12,4.12,0,0,1-4.1,2.88c-2,0-4.24-1-4.24-4.42,0-2.78,1.48-6.06,5.1-6.06a3.57,3.57,0,0,1,3.9,3.86,5.2,5.2,0,0,1-.28,1.74Zm.14-1.14h6a2.85,2.85,0,0,0,.1-.78,2.34,2.34,0,0,0-2.56-2.58C1075.94,302.86,1074.8,304.32,1074.42,306.22Z"/><path d="M990.46,356.36l-.64,3.64h-1.38l.62-3.64h-6.62l.18-1,8.18-9.24h1.48l-1.62,9.1H993l-.18,1.16Zm.34-9h0A9.31,9.31,0,0,1,989.6,349l-4.08,4.7a16,16,0,0,1-1.38,1.52h5.12l1.16-5.92C990.6,348.32,990.64,348,990.8,347.4Z"/><path d="M999.72,357.4a2.69,2.69,0,0,1,.92-2.08,5.58,5.58,0,0,1,3.38-1.12l3.06-.24.06-.34c.28-1.88-.34-2.7-2.06-2.7s-2.62.72-2.88,2.2h-1.42c.3-2.22,1.88-3.36,4.2-3.36,2.82,0,4,1.32,3.5,4.32l-.44,2.48a18.57,18.57,0,0,0-.28,3.44h-1.46a14,14,0,0,1,.18-2,3.74,3.74,0,0,1-3.56,2.24C1001.06,360.24,999.72,359.22,999.72,357.4Zm7.08-1.76.12-.68-2.64.2c-2.22.18-3,1-3,2.18s.9,1.74,2,1.74C1005,359.08,1006.42,357.7,1006.8,355.64Z"/><path d="M1012.74,350h1.38l-1.76,10H1011Zm.54-4h1.6l-.4,2.2h-1.58Z"/><path d="M1022.1,349.76a2.9,2.9,0,0,1,.64.06l-.26,1.38a2.07,2.07,0,0,0-.56-.06,2.53,2.53,0,0,0-1.78.6,5.58,5.58,0,0,0-1.72,3.44l-.88,4.82h-1.38l1.76-10h1.32l-.46,2.6C1019.4,350.9,1020.32,349.76,1022.1,349.76Z"/><path d="M1024.28,355.36v.36c0,2.46,1.32,3.28,2.92,3.28a2.91,2.91,0,0,0,2.88-2.14l1.16.5a4.12,4.12,0,0,1-4.1,2.88c-2,0-4.24-1-4.24-4.42,0-2.78,1.48-6.06,5.1-6.06a3.57,3.57,0,0,1,3.9,3.86,5.2,5.2,0,0,1-.28,1.74Zm.14-1.14h6a2.85,2.85,0,0,0,.1-.78,2.34,2.34,0,0,0-2.56-2.58C1025.94,350.86,1024.8,352.32,1024.42,354.22Z"/><path d="M1033.36,357.12l1.4-.22c.18,1.62,1.34,2.18,2.76,2.18,1.84,0,2.34-1,2.34-1.86s-.5-1.28-1.5-1.5l-1.74-.4a2.51,2.51,0,0,1-2.24-2.54c0-1.64,1.3-3,3.72-3,1.92,0,3.88.82,3.92,2.8l-1.36.3c-.08-1.44-1.3-2-2.64-2-1.6,0-2.24.78-2.24,1.76s.44,1.26,1.58,1.52l1.66.38c1.72.4,2.28,1.32,2.28,2.6,0,1.62-1.26,3.08-3.9,3.08C1035.5,360.24,1033.56,359.46,1033.36,357.12Z"/><path d="M983.1,380c0-2.68,1.38-6.26,4.88-6.26A3.13,3.13,0,0,1,991.2,376l1.12-6.52h1.4L991.16,384h-1.32l.34-1.94a3.82,3.82,0,0,1-3.46,2.18C985,384.24,983.1,383.18,983.1,380Zm7.48-.4.1-.48c.54-2.82-.84-4.14-2.6-4.14-2.64,0-3.48,3-3.48,4.92,0,2.58,1.46,3.08,2.58,3.08C989.16,383,990.24,381.4,990.58,379.62Z"/><path d="M996.32,374a2,2,0,0,0,1.38-1.8l0-.12h-1l.4-2.24H999l-.38,2.12c-.34,1.88-1.16,2.48-2.06,2.76Z"/><path d="M1001.6,374H1003l-1.76,10h-1.38Zm.54-4h1.6l-.4,2.2h-1.58Z"/><path d="M1006.78,374h1.32l-.34,1.94a3.12,3.12,0,0,1,3-2.18,2.39,2.39,0,0,1,2.62,2.22,3.41,3.41,0,0,1,3.2-2.22,2.71,2.71,0,0,1,2.92,3,6.55,6.55,0,0,1-.12,1.18l-1.1,6.08h-1.4l1.08-6a4.35,4.35,0,0,0,.1-1c0-1.64-1-2.06-1.88-2.06-1.9,0-2.58,1.8-2.86,3.44l-1,5.56H1011l1.08-6a6.21,6.21,0,0,0,.08-1c0-1.66-1-2-1.84-2-2,0-2.64,1.88-2.94,3.52l-1,5.48H1005Z"/><path d="M1023.6,374h1.32l-.4,2.12a3.83,3.83,0,0,1,3.46-2.36c1.68,0,3.66,1,3.66,4.18,0,2.72-1.44,6.3-4.84,6.3a3.2,3.2,0,0,1-3.26-2.12l-1,5.78h-1.38Zm6.54,4c0-2.4-1.34-3-2.52-3-2.14,0-3.2,1.94-3.48,3.58l-.12.66c-.38,2.16.5,3.76,2.5,3.76C1029.4,383,1030.14,379.76,1030.14,378Z"/><path d="M1035,384h-1.38l2.56-14.5h1.38Z"/><path d="M1038.54,381.4a2.69,2.69,0,0,1,.92-2.08,5.58,5.58,0,0,1,3.38-1.12l3.06-.24.06-.34c.28-1.88-.34-2.7-2.06-2.7s-2.62.72-2.88,2.2h-1.42c.3-2.22,1.88-3.36,4.2-3.36,2.82,0,4,1.32,3.5,4.32l-.44,2.48a18.57,18.57,0,0,0-.28,3.44h-1.46a14,14,0,0,1,.18-2,3.74,3.74,0,0,1-3.56,2.24C1039.88,384.24,1038.54,383.22,1038.54,381.4Zm7.08-1.76.12-.68-2.64.2c-2.22.18-3,1-3,2.18s.9,1.74,2,1.74C1043.86,383.08,1045.24,381.7,1045.62,379.64Z"/><path d="M1051.56,374h1.32l-.38,2.16a3.56,3.56,0,0,1,3.46-2.4c1.4,0,3.08.6,3.08,3.2a8.51,8.51,0,0,1-.12,1.34l-1,5.7h-1.4l1-5.76a6.5,6.5,0,0,0,.1-1,2,2,0,0,0-2.2-2.22c-2.3,0-3.06,2.14-3.34,3.74l-.94,5.26h-1.38Z"/><path d="M1061.5,374h1.86l.46-2.64,1.52-.6-.58,3.24h2.56l-.2,1.16h-2.56l-1,5.78c-.3,1.66.52,1.92,1.36,1.92a4.94,4.94,0,0,0,.88-.08l-.22,1.24a4.24,4.24,0,0,1-1.14.16c-1.48,0-2.72-.86-2.26-3.44l1-5.58h-1.86Z"/><path d="M1067.66,381.4a2.69,2.69,0,0,1,.92-2.08,5.58,5.58,0,0,1,3.38-1.12L1075,378l.06-.34c.28-1.88-.34-2.7-2.06-2.7s-2.62.72-2.88,2.2h-1.42c.3-2.22,1.88-3.36,4.2-3.36,2.82,0,4,1.32,3.5,4.32l-.44,2.48a18.57,18.57,0,0,0-.28,3.44h-1.46a14,14,0,0,1,.18-2,3.74,3.74,0,0,1-3.56,2.24C1069,384.24,1067.66,383.22,1067.66,381.4Zm7.08-1.76.12-.68-2.64.2c-2.22.18-3,1-3,2.18s.9,1.74,2,1.74C1073,383.08,1074.36,381.7,1074.74,379.64Z"/><path d="M1078.86,374h1.86l.46-2.64,1.52-.6-.58,3.24h2.56l-.2,1.16h-2.56l-1,5.78c-.3,1.66.52,1.92,1.36,1.92a4.94,4.94,0,0,0,.88-.08l-.22,1.24a4.24,4.24,0,0,1-1.14.16c-1.48,0-2.72-.86-2.26-3.44l1-5.58h-1.86Z"/><path d="M1087.34,374h1.38L1087,384h-1.38Zm.54-4h1.6l-.4,2.2h-1.58Z"/><path d="M1090.68,379.9c0-2.7,1.32-6.14,5.2-6.14,2.08,0,4.22,1,4.22,4.34,0,2.7-1.32,6.14-5.22,6.14C1092.82,384.24,1090.68,383.22,1090.68,379.9Zm7.92-1.72c0-2.46-1.4-3.2-2.8-3.2-2.86,0-3.62,2.92-3.62,4.84,0,2.46,1.4,3.2,2.8,3.2C1097.84,383,1098.6,380.1,1098.6,378.18Z"/><path d="M1103.82,374h1.32l-.38,2.16a3.56,3.56,0,0,1,3.46-2.4c1.4,0,3.08.6,3.08,3.2a8.51,8.51,0,0,1-.12,1.34l-1,5.7h-1.4l1-5.76a6.5,6.5,0,0,0,.1-1,2,2,0,0,0-2.2-2.22c-2.3,0-3.06,2.14-3.34,3.74l-.94,5.26h-1.38Z"/><g class="cls-7"><g class="cls-8"><image width="2292" height="1279" transform="translate(34.96 500.17) scale(0.24 0.24)" xlink:href="Sans%20titre%20-%2023.png"/></g></g><g class="cls-9"><g class="cls-10"><image width="2292" height="1279" transform="translate(605.58 500.17) scale(0.24 0.24)" xlink:href="Sans%20titre%20-%2024.png"/></g></g><g class="cls-11"><g class="cls-12"><g class="cls-13"><polygon class="cls-14" points="315.47 694.23 344.13 648.85 348.96 634.35 338.76 632.37 360.68 624.61 374.7 638.74 362.43 636.94 349.37 650.27 333.78 697.89 345.4 700.16 315.92 706.35 301.89 692.22 315.47 694.23"/></g></g><g class="cls-12"><g class="cls-15"><polygon class="cls-14" points="1021.22 662.04 1010.55 653.1 1008.57 659.17 944.65 660.9 947.34 653.64 927.69 651.1 935.01 633.83 945.78 635.1 936.85 623.76 918.14 631.7 928.49 632.84 921.36 650.27 904.25 648 900.32 654.7 812.13 641.2 818.5 634.11 799.51 642.19 800.5 655.44 807.73 646.72 897.17 660.19 893.76 665.86 921.09 669.32 912.13 690.46 900 688.88 911.06 701.01 931.18 692.87 918.37 691.16 926.82 670.13 940.25 671.87 942.8 665.72 1007.18 663.81 1005.31 670.68 1021.22 662.04"/></g></g><path class="cls-16" d="M275.07,665a8.11,8.11,0,1,0-8.11-8.11,8.11,8.11,0,0,0,8.11,8.11"/></g><path class="cls-17" d="M274.42,653.54a2.31,2.31,0,0,1-1.83.83h-.48v-1h.28a2.17,2.17,0,0,0,2.19-1.77h.93V662h-1.09Z"/><g class="cls-11"><path class="cls-18" d="M275.07,665a8.11,8.11,0,1,0-8.11-8.11A8.11,8.11,0,0,0,275.07,665Z"/><path class="cls-16" d="M864.67,640.48a8.11,8.11,0,1,0-8.11-8.11,8.11,8.11,0,0,0,8.11,8.11"/></g><path class="cls-17" d="M864,629.05a2.31,2.31,0,0,1-1.83.82h-.48v-1H862a2.16,2.16,0,0,0,2.19-1.77h.93v10.43H864Z"/><g class="cls-11"><path class="cls-18" d="M864.67,640.48a8.11,8.11,0,1,0-8.11-8.11A8.11,8.11,0,0,0,864.67,640.48Z"/><path class="cls-16" d="M400.85,673.59a8.11,8.11,0,1,0-8.11-8.11,8.11,8.11,0,0,0,8.11,8.11"/></g><path class="cls-17" d="M396.81,669.73a36.1,36.1,0,0,0,3.75-3.18,4.61,4.61,0,0,0,1.74-3.44,1.94,1.94,0,0,0-2.08-2.16,2,2,0,0,0-2.17,2,4.73,4.73,0,0,0,.13,1l-1.11-.1A3.3,3.3,0,0,1,397,663c0-1.83,1.25-3,3.32-3a2.88,2.88,0,0,1,3.18,3.11c0,1.42-.7,2.67-2.2,4.11a22,22,0,0,1-3,2.44h5.32v1h-6.81Z"/><g class="cls-11"><path class="cls-18" d="M400.85,673.59a8.11,8.11,0,1,0-8.11-8.11A8.11,8.11,0,0,0,400.85,673.59Z"/><path class="cls-16" d="M975.93,655.22a8.11,8.11,0,1,0-8.11-8.11,8.11,8.11,0,0,0,8.11,8.11"/></g><path class="cls-17" d="M971.89,651.36a34,34,0,0,0,3.75-3.18,4.6,4.6,0,0,0,1.74-3.43,2.12,2.12,0,0,0-4.24-.12,4.72,4.72,0,0,0,.12,1l-1.11-.11a3.19,3.19,0,0,1-.11-.87c0-1.83,1.25-3,3.32-3a2.87,2.87,0,0,1,3.18,3.1c0,1.43-.69,2.67-2.19,4.11a22,22,0,0,1-3,2.45h5.32v1h-6.81Z"/><g class="cls-11"><path class="cls-18" d="M975.93,655.22a8.11,8.11,0,1,0-8.11-8.11A8.11,8.11,0,0,0,975.93,655.22Z"/><path class="cls-16" d="M840.93,690a8.11,8.11,0,1,0-8.11-8.11,8.11,8.11,0,0,0,8.11,8.11"/></g><path class="cls-17" d="M837.17,685l1.08-.12a2.35,2.35,0,0,0,2.57,2.39c1.54,0,2.35-.77,2.35-2.19s-.85-2.07-2.44-2.07h-.66v-.92h.57c1.44,0,2.17-.73,2.17-1.92s-.78-1.92-2.13-1.92a2.18,2.18,0,0,0-2.29,2.49l-1-.21a3.06,3.06,0,0,1,3.4-3.21c2,0,3.18,1,3.18,2.75a2.37,2.37,0,0,1-1.95,2.4,2.42,2.42,0,0,1,2.31,2.58c0,2-1.33,3.15-3.49,3.15S837.23,687,837.17,685Z"/><g class="cls-11"><path class="cls-18" d="M840.93,690a8.11,8.11,0,1,0-8.11-8.11A8.11,8.11,0,0,0,840.93,690Z"/><path class="cls-16" d="M972.17,686.9a8.11,8.11,0,1,0-8.11-8.11,8.11,8.11,0,0,0,8.11,8.11"/></g><path class="cls-17" d="M974.09,682.23V685h-1v-2.73h-5v-.77l4.8-6.93h1.22v6.83h1.74v.87Zm-1-6.59h0a5.37,5.37,0,0,1-.66,1.17L970,680.22a8.25,8.25,0,0,1-.84,1.14h3.87V677C973.05,676.32,973.05,676.12,973.08,675.64Z"/><g class="cls-11"><path class="cls-18" d="M972.17,686.9a8.11,8.11,0,1,0-8.11-8.11A8.11,8.11,0,0,0,972.17,686.9Z"/></g></g></g></svg>