<svg id="Calque_1" data-name="Calque 1" xmlns="http://www.w3.org/2000/svg" xmlns:xlink="http://www.w3.org/1999/xlink" viewBox="0 0 1190.55 841.89"><defs><style>.cls-1{fill:none;}.cls-2{clip-path:url(#clip-path);}</style><clipPath id="clip-path"><rect class="cls-1" width="1190.55" height="841.89"/></clipPath></defs><g class="cls-2"><path d="M35.94,92.81l3.75-2.64a6.17,6.17,0,0,0,5.79,3.66c2,0,3.66-.75,3.66-2.43s-.93-2.19-3.09-2.64l-2.85-.6c-3.72-.81-5.88-2.82-5.88-6.39,0-3.9,3.18-6.33,8.31-6.33,3.78,0,7,1.38,8.46,4.23l-3.3,2.79a6,6,0,0,0-5.49-3.27c-2,0-3.3.84-3.3,2.19s.84,2.07,3.09,2.58l3.09.66C52,85.46,54,87.26,54,90.92c0,4-3.12,6.84-8.7,6.84C40.71,97.76,37.41,95.81,35.94,92.81Z"/><path d="M57,76h5.07V93.14h8.64v4.11H57Z"/><path d="M73.62,97.25V76h5.07v21.3Z"/><path d="M83.13,76h8.49c6.39,0,10.53,4.26,10.53,10.53S98,97.25,91.56,97.25H83.13Zm8.22,17.58c3.6,0,5.58-3.24,5.58-7s-1.86-6.81-5.52-6.81H88.2V93.53Z"/><path d="M120,93.5v3.75H105.24V76h14.58V79.7h-9.51v4.8h9v3.72h-9V93.5Z"/><path d="M131.13,76h8.49c6.39,0,10.53,4.26,10.53,10.53S146,97.25,139.56,97.25h-8.43Zm8.22,17.58c3.6,0,5.58-3.24,5.58-7s-1.86-6.81-5.52-6.81H136.2V93.53Z"/><path d="M168,93.5v3.75H153.24V76h14.58V79.7h-9.51v4.8h9v3.72h-9V93.5Z"/><path d="M179.13,76h5.07V93.14h8.64v4.11H179.13Z"/><path d="M193.32,83.54c1.74-.57,2.16-1.26,2.16-2.61v-.06h-2.4V76h5.13V80.6c0,2.46-1.08,4.05-3.9,4.89Z"/><path d="M200.79,86.6c0-6.87,4.11-11.16,10.5-11.16s10.5,4.29,10.5,11.16-4.11,11.16-10.5,11.16S200.79,93.44,200.79,86.6Zm15.78,0c0-4.5-1.95-7.2-5.28-7.2S206,82.1,206,86.6s2,7.2,5.31,7.2S216.57,91.1,216.57,86.6Z"/><path d="M229.59,76V89.6a4,4,0,1,0,7.92,0V76h5.07V89.81c0,4.86-3.36,8-9,8s-9-3.09-9-8V76Z"/></g></svg>