<svg id="Calque_1" data-name="Calque 1" xmlns="http://www.w3.org/2000/svg" xmlns:xlink="http://www.w3.org/1999/xlink" viewBox="0 0 1190.55 841.89"><defs><style>.cls-1{fill:none;}.cls-2{clip-path:url(#clip-path);}.cls-3{clip-path:url(#clip-path-3);}.cls-4{opacity:0.8;}.cls-5{clip-path:url(#clip-path-4);}.cls-6{fill:#f59e00;}.cls-7{fill:#fff;}.cls-8{clip-path:url(#clip-path-6);}.cls-9{fill:#a8ba00;}.cls-10{clip-path:url(#clip-path-8);}.cls-11{fill:#008ea5;}.cls-12{clip-path:url(#clip-path-10);}.cls-13{fill:#ffce00;}.cls-14{clip-path:url(#clip-path-11);}.cls-15{clip-path:url(#clip-path-13);}.cls-16{clip-path:url(#clip-path-15);}.cls-17{clip-path:url(#clip-path-17);}</style><clipPath id="clip-path"><rect class="cls-1" width="1190.55" height="841.89"/></clipPath><clipPath id="clip-path-3"><rect class="cls-1" width="1190.55" height="841.89"/></clipPath><clipPath id="clip-path-4"><rect class="cls-1" x="66.59" y="550.91" width="230.6" height="135.56"/></clipPath><clipPath id="clip-path-6"><rect class="cls-1" x="224.86" y="667.65" width="230.6" height="135.56"/></clipPath><clipPath id="clip-path-8"><rect class="cls-1" x="428.02" y="593.44" width="230.6" height="135.56"/></clipPath><clipPath id="clip-path-10"><rect class="cls-1" x="258.87" y="490.13" width="133.74" height="85.39"/></clipPath><clipPath id="clip-path-11"><rect class="cls-1" x="962.34" y="376.4" width="185.02" height="119.68"/></clipPath><clipPath id="clip-path-13"><rect class="cls-1" x="894.11" y="323.24" width="99.75" height="70.3"/></clipPath><clipPath id="clip-path-15"><rect class="cls-1" x="951.95" y="226.86" width="219.25" height="112.88"/></clipPath><clipPath id="clip-path-17"><rect class="cls-1" x="769.55" y="87.96" width="240.08" height="164.3"/></clipPath></defs><g class="cls-2"><g class="cls-2"><path d="M306.28,310l4.38-3.08a7.18,7.18,0,0,0,6.75,4.27c2.38,0,4.28-.87,4.28-2.83s-1.09-2.56-3.61-3.08l-3.33-.7c-4.34-.95-6.86-3.3-6.86-7.46,0-4.55,3.71-7.39,9.7-7.39,4.41,0,8.12,1.61,9.87,4.94l-3.85,3.25a7,7,0,0,0-6.41-3.81c-2.34,0-3.85,1-3.85,2.55s1,2.42,3.61,3l3.6.77c4.42,1,6.8,3.09,6.8,7.36,0,4.72-3.64,8-10.16,8C311.85,315.79,308,313.51,306.28,310Z"/><path d="M348.11,310.82v4.37H330.85V290.34h17v4.37h-11.1v5.6h10.5v4.35h-10.5v6.16Z"/><path d="M350.49,302.8c0-7.84,4.62-13.06,12.18-13.06,6.34,0,10.33,3.5,11,8.93l-6,1.05c-.34-3.29-2.17-5.22-5.14-5.22-3.78,0-6,3.19-6,8.27s2.24,8.22,6.16,8.22c2.77,0,4.63-1.89,5.11-5.11l6,1.3c-1.19,5.25-5,8.61-11.2,8.61C354.72,315.79,350.49,310.64,350.49,302.8Z"/><path d="M394.77,295h-7.25v20.16h-5.88V295h-7.21v-4.69h20.34Z"/><path d="M414.82,310.82v4.37H397.56V290.34h17v4.37H403.48v5.6H414v4.35h-10.5v6.16Z"/><path d="M424.62,290.34v15.93c0,2.9,1.71,4.72,4.62,4.72s4.62-1.82,4.62-4.72V290.34h5.92v16.17c0,5.67-3.93,9.28-10.54,9.28s-10.54-3.61-10.54-9.28V290.34Z"/><path d="M454,305.67h-3.57v9.52h-5.92V290.34h10.92c6.3,0,9.1,3.08,9.1,7.63a6.88,6.88,0,0,1-4.86,6.83l5.49,10.39h-6.4Zm-3.57-4.06h3.81c2.87,0,4.13-1.4,4.13-3.64s-1.22-3.47-4.13-3.47h-3.81Z"/><path d="M477.43,290.34h9.91c7.45,0,12.29,5,12.29,12.28s-4.84,12.57-12.36,12.57h-9.84ZM487,310.85c4.2,0,6.51-3.78,6.51-8.23s-2.17-7.94-6.44-7.94h-3.74v16.17Z"/><path d="M520.48,310.82v4.37H503.23V290.34h17v4.37h-11.1v5.6h10.5v4.35h-10.5v6.16Z"/><path d="M522.09,310l4.38-3.08a7.18,7.18,0,0,0,6.75,4.27c2.38,0,4.27-.87,4.27-2.83s-1.08-2.56-3.6-3.08l-3.33-.7c-4.34-.95-6.86-3.3-6.86-7.46,0-4.55,3.71-7.39,9.7-7.39,4.41,0,8.12,1.61,9.87,4.94l-3.85,3.25a7,7,0,0,0-6.41-3.81c-2.34,0-3.85,1-3.85,2.55s1,2.42,3.61,3l3.6.77c4.41,1,6.79,3.09,6.79,7.36,0,4.72-3.64,8-10.15,8C527.66,315.79,523.81,313.51,522.09,310Z"/><path d="M552.65,310l4.37-3.08a7.2,7.2,0,0,0,6.76,4.27c2.38,0,4.27-.87,4.27-2.83s-1.09-2.56-3.61-3.08l-3.32-.7c-4.34-.95-6.86-3.3-6.86-7.46,0-4.55,3.71-7.39,9.69-7.39,4.41,0,8.12,1.61,9.87,4.94L570,297.93a7,7,0,0,0-6.4-3.81c-2.35,0-3.85,1-3.85,2.55s1,2.42,3.6,3l3.61.77c4.41,1,6.79,3.09,6.79,7.36,0,4.72-3.64,8-10.15,8C558.21,315.79,554.36,313.51,552.65,310Z"/><path d="M594.47,310.82v4.37H577.22V290.34h17v4.37h-11.1v5.6h10.5v4.35h-10.5v6.16Z"/><path d="M598.78,290.34h8.12l4.58,15.23a17.87,17.87,0,0,1,.6,3h.07a18.51,18.51,0,0,1,.63-3.08l4.37-15.16h8.23v24.85H620V298.25a23.76,23.76,0,0,1,.14-2.8H620a14,14,0,0,1-.52,2.41l-5,17.33h-5l-5.21-17.33a11.17,11.17,0,0,1-.53-2.38h-.1c.07.84.14,1.79.14,2.77v16.94h-5Z"/><path d="M645.43,309.38h-9.17l-1.89,5.81h-5.91l9-24.85h6.75l9,24.85h-5.95Zm-1.36-4.16-2.28-6.94a30.68,30.68,0,0,1-.91-3.5h-.07a24.13,24.13,0,0,1-.91,3.5l-2.27,6.94Z"/><path d="M656.32,315.19V290.34h5.91v24.85Z"/><path d="M667.41,290.34h5.92V310.4h10.08v4.79h-16Z"/><path d="M686.8,290.34h5.92V310.4H702.8v4.79h-16Z"/><path d="M723.45,310.82v4.37H706.19V290.34h17v4.37H712.11v5.6h10.5v4.35h-10.5v6.16Z"/><path d="M725.05,310l4.38-3.08a7.18,7.18,0,0,0,6.76,4.27c2.38,0,4.27-.87,4.27-2.83s-1.09-2.56-3.61-3.08l-3.32-.7c-4.35-.95-6.87-3.3-6.87-7.46,0-4.55,3.72-7.39,9.7-7.39,4.41,0,8.12,1.61,9.87,4.94l-3.85,3.25a7,7,0,0,0-6.4-3.81c-2.35,0-3.85,1-3.85,2.55s1,2.42,3.6,3l3.61.77c4.41,1,6.79,3.09,6.79,7.36,0,4.72-3.64,8-10.15,8C730.62,315.79,726.77,313.51,725.05,310Z"/><path d="M749,318.31c2-.67,2.52-1.47,2.52-3.05v-.07h-2.8v-5.74h6v5.43c0,2.9-1.26,4.72-4.55,5.74Z"/><path d="M767.93,290.34h5.91V310.4h10.08v4.79h-16Z"/><path d="M802.68,309.38h-9.17l-1.89,5.81h-5.91l9-24.85h6.75l9,24.85h-5.95Zm-1.36-4.16L799,298.28a30.68,30.68,0,0,1-.91-3.5h-.07a24.13,24.13,0,0,1-.91,3.5l-2.27,6.94Z"/><path d="M813.57,290.34h6.54l8,14.18a26.68,26.68,0,0,1,1.51,3.22h.07c0-1,0-2,0-3.19V290.34h5.43v24.85h-6.3l-8.26-14.32a20.61,20.61,0,0,1-1.47-3H819c0,1,0,2.06,0,3.29v14.07h-5.42Z"/><path d="M838.66,302.8c0-7.84,4.62-13.06,12.18-13.06,6.34,0,10.33,3.5,11,8.93l-6,1.05c-.35-3.29-2.17-5.22-5.15-5.22-3.78,0-6,3.19-6,8.27S847,311,850.88,311c2.76,0,4.62-1.89,5.11-5.11l6,1.3c-1.18,5.25-5,8.61-11.2,8.61C842.9,315.79,838.66,310.64,838.66,302.8Z"/><path d="M870.16,306.2l-8.26-15.86h6.23l4.38,9.17a8.16,8.16,0,0,1,.59,1.82h.07a8.78,8.78,0,0,1,.6-1.82l4.34-9.17h6.26l-8.26,15.86v9h-6Z"/><path d="M412.08,355.51H402.9l-2.25,6.21h-2.43l8.13-21.3h2.31l8.1,21.3h-2.43Zm-.72-2-3.15-8.73c-.3-.84-.48-1.41-.69-2.07h-.06c-.21.66-.36,1.23-.69,2.07l-3.15,8.73Z"/><path d="M417.63,346.72h2.28l3.72,10.62c.27.84.48,1.53.63,2.22h.09c.15-.69.39-1.38.66-2.22l3.72-10.62H431l-5.55,15h-2.28Z"/><path d="M432.63,357.76a3.79,3.79,0,0,1,1.83-3.36,12.9,12.9,0,0,1,4.92-1.35l3.33-.39v-.24c0-3.09-1.08-4.32-3.63-4.32-2.25,0-3.63,1.17-3.75,3.3h-2.25c.18-3.09,2.52-5,6-5,4,0,5.76,1.86,5.76,6.21v3.9a21.14,21.14,0,0,0,.48,5.25H443.1a20.58,20.58,0,0,1-.27-3,5.14,5.14,0,0,1-5.22,3.36C434.61,362.08,432.63,360.34,432.63,357.76Zm10.11-2.58v-1l-4.26.6c-2.55.36-3.66,1.23-3.66,2.88s1.26,2.64,3.27,2.64C440.88,360.34,442.74,358.24,442.74,355.18Z"/><path d="M450.12,346.72h2V350a5.11,5.11,0,0,1,5.13-3.66c3.36,0,5.1,2.07,5.1,6.09v9.27h-2.1v-9.15c0-2.91-1.26-4.41-3.63-4.41-2.7,0-4.41,2.16-4.41,5.67v7.89h-2.07Z"/><path d="M465,346.72h2.76v-4l2.1-.9v4.86h3.87v1.74h-3.87v9c0,1.77.78,2.55,2.34,2.55a6.12,6.12,0,0,0,1.53-.18v1.89a7.07,7.07,0,0,1-2.07.27c-2.91,0-3.9-1.77-3.9-4.44v-9.09H465Z"/><path d="M484.05,352.39v2h-8.67v-2Z"/><path d="M488.49,346.72h2v3.18a5.32,5.32,0,0,1,5.13-3.54c3.69,0,6.09,3.15,6.09,7.86s-2.55,7.86-6.24,7.86a5.06,5.06,0,0,1-4.89-3.18v8.67h-2.07Zm11,7.5c0-3.72-1.62-6-4.38-6s-4.56,2.34-4.56,5.64v.66c0,3.36,1.68,5.7,4.44,5.7S499.47,357.94,499.47,354.22Z"/><path d="M512.58,346.36a3.63,3.63,0,0,1,.57,0v2h-.24a4.39,4.39,0,0,0-3.21,1.14c-1.38,1.38-1.65,3.39-1.65,5.28v6.87H506v-15h1.95v3.66C508.62,348.07,510.27,346.36,512.58,346.36Z"/><path d="M515,354.22c0-4.89,2.73-7.86,6.9-7.86s6.87,3,6.87,7.86-2.73,7.86-6.87,7.86S515,359.11,515,354.22Zm11.55,0c0-3.9-1.77-6-4.65-6s-4.68,2.13-4.68,6,1.77,6,4.68,6S526.59,358.12,526.59,354.22Z"/><path d="M529.65,367.6v-1.8c.78.06,1.14.09,1.44.09,1.2,0,1.89-.57,1.89-2.61V346.72h2.1v16.8c0,2.34-1,4.26-3.69,4.26A8.15,8.15,0,0,1,529.65,367.6Zm3.18-26.88h2.37V344h-2.37Z"/><path d="M552.33,354.76H541.44c0,3.39,1.89,5.46,4.8,5.46a4.21,4.21,0,0,0,4.23-3.21l1.77.72a6.07,6.07,0,0,1-6.15,4.35c-4.26,0-6.75-2.73-6.75-7.77s2.52-7.95,6.66-7.95,6.33,2.4,6.33,7Zm-2.13-2c0-3.09-1.56-4.74-4.23-4.74s-4.47,1.92-4.53,5h8.76Z"/><path d="M554.52,346.72h2.76v-4l2.1-.9v4.86h3.87v1.74h-3.87v9c0,1.77.78,2.55,2.34,2.55a6.12,6.12,0,0,0,1.53-.18v1.89a7.07,7.07,0,0,1-2.07.27c-2.91,0-3.9-1.77-3.9-4.44v-9.09h-2.76Z"/><path d="M573.75,354.22c0-4.62,2.61-7.86,6.42-7.86a4.78,4.78,0,0,1,4.71,3.09V340H587v21.75h-2v-3.18a5.23,5.23,0,0,1-5.07,3.54C576.21,362.08,573.75,358.9,573.75,354.22Zm11.16.33v-.63c0-3.42-1.65-5.7-4.44-5.7s-4.5,2.25-4.5,6,1.68,6,4.47,6S584.91,357.88,584.91,354.55Z"/><path d="M604.38,354.76H593.49c0,3.39,1.89,5.46,4.8,5.46a4.21,4.21,0,0,0,4.23-3.21l1.77.72a6.07,6.07,0,0,1-6.15,4.35c-4.26,0-6.75-2.73-6.75-7.77s2.52-7.95,6.66-7.95,6.33,2.4,6.33,7Zm-2.13-2c0-3.09-1.56-4.74-4.23-4.74s-4.47,1.92-4.53,5h8.76Z"/><path d="M631.5,346.51c0,3.81-2.73,6.24-7,6.24h-5.1v9h-2.31v-21.3h7.41C628.77,340.42,631.5,342.79,631.5,346.51Zm-2.46,0c0-2.52-1.86-4.11-4.77-4.11h-4.89v8.37h4.89C627.18,350.77,629,349.12,629,346.51Z"/><path d="M635.31,340.42h2.31v19.32h10.11v2H635.31Z"/><path d="M665.85,363.55a6.19,6.19,0,0,0,1.59-.21v2.07a13.9,13.9,0,0,1-2,.18,5.73,5.73,0,0,1-5.49-3.45,10.78,10.78,0,0,1-1.41.09c-5.82,0-9.6-4.38-9.6-11.16s3.78-11.16,9.6-11.16,9.6,4.23,9.6,11.16c0,5.4-2.34,9.21-6.15,10.59A4.43,4.43,0,0,0,665.85,363.55Zm-7.32-3.3c4.5,0,7.17-3.54,7.17-9.18s-2.67-9.18-7.17-9.18-7.17,3.54-7.17,9.18S654.06,360.25,658.53,360.25Z"/><path d="M680.43,346.72h2V350a5.11,5.11,0,0,1,5.13-3.66c3.36,0,5.1,2.07,5.1,6.09v9.27h-2.1v-9.15c0-2.91-1.26-4.41-3.63-4.41-2.7,0-4.41,2.16-4.41,5.67v7.89h-2.07Z"/><path d="M695.13,345.34a5.16,5.16,0,1,1,5.16,5.16A4.94,4.94,0,0,1,695.13,345.34Zm8.37,0a3.21,3.21,0,1,0-6.42,0,3.21,3.21,0,1,0,6.42,0Z"/><path d="M707.61,355.78l2.16-.24c.12,3,2.07,4.77,5.13,4.77s4.71-1.53,4.71-4.38c0-2.61-1.71-4.14-4.89-4.14H713.4V350h1.14c2.88,0,4.35-1.47,4.35-3.84s-1.56-3.84-4.26-3.84c-2.91,0-4.59,1.77-4.59,5l-2.1-.42c0-4,2.58-6.42,6.81-6.42,4,0,6.36,2.07,6.36,5.49a4.72,4.72,0,0,1-3.9,4.8c2.91.42,4.62,2.19,4.62,5.16,0,4-2.67,6.3-7,6.3S707.73,359.68,707.61,355.78Z"/><path d="M725,351.28c0-6.66,2.76-10.86,7.92-10.86s7.89,4.2,7.89,10.89-2.73,10.86-7.89,10.86S725,358,725,351.28Zm13.62,0c0-5.55-1.92-9-5.7-9s-5.7,3.45-5.7,9,1.92,9,5.7,9S738.63,356.86,738.63,351.31Z"/><path d="M744,351.28c0-6.66,2.76-10.86,7.92-10.86s7.89,4.2,7.89,10.89-2.73,10.86-7.89,10.86S744,358,744,351.28Zm13.62,0c0-5.55-1.92-9-5.7-9s-5.7,3.45-5.7,9,1.92,9,5.7,9S757.65,356.86,757.65,351.31Z"/><path d="M774.21,356.26v5.46h-2.07v-5.46h-10v-1.53l9.6-13.86h2.43v13.65h3.48v1.74Zm-2-13.17h-.06a11.71,11.71,0,0,1-1.32,2.34l-4.74,6.81a16.7,16.7,0,0,1-1.68,2.28h7.74v-8.67C772.14,344.44,772.14,344.05,772.2,343.09Z"/><path d="M782.55,361.39c0-6.66,2.82-12.84,7.53-18.48H779.16v-2h13.41v1.77A27.44,27.44,0,0,0,785,361.18v.54h-2.43Z"/><path d="M346.55,435.92c0-7.63,3.89-12.95,11.17-12.95,6,0,9.13,3.61,9.76,8.75l-2.76.28c-.53-4-3-6.68-7.14-6.68-5.22,0-8.19,4.23-8.19,10.57,0,6.09,2.76,10.74,8.26,10.74,3.85,0,6.44-2.48,7.21-6.47l2.62.42c-.91,4.69-3.88,8.43-9.87,8.43C350,449,346.55,443.13,346.55,435.92Z"/><path d="M371.37,439.67c0-5.71,3.18-9.17,8.05-9.17s8,3.46,8,9.17-3.18,9.17-8,9.17S371.37,445.37,371.37,439.67Zm13.47,0c0-4.55-2.06-7-5.42-7s-5.46,2.49-5.46,7,2.06,7,5.46,7S384.84,444.22,384.84,439.67Z"/><path d="M392.44,430.92h2.31v3.85a6,6,0,0,1,6-4.27c3.92,0,5.95,2.41,5.95,7.1v10.82h-2.45V437.74c0-3.39-1.47-5.14-4.23-5.14-3.15,0-5.15,2.52-5.15,6.61v9.21h-2.41Z"/><path d="M411.13,439.67c0-5.71,3-9.17,7.94-9.17,4,0,6.65,2.34,7.07,6.33l-2.48.28c-.35-2.9-2-4.48-4.69-4.48-3.26,0-5.25,2.63-5.25,7s2,7.07,5.35,7.07c2.63,0,4.27-1.57,4.73-4.48l2.34.35c-.63,4-3.22,6.27-7.07,6.27C414.21,448.84,411.13,445.3,411.13,439.67Z"/><path d="M444.69,440.3H432c0,3.95,2.2,6.37,5.6,6.37a4.91,4.91,0,0,0,4.93-3.75l2.07.84a7.09,7.09,0,0,1-7.18,5.08c-5,0-7.87-3.19-7.87-9.07s2.94-9.27,7.77-9.27,7.38,2.8,7.38,8.12ZM442.21,438c0-3.61-1.82-5.53-4.94-5.53s-5.21,2.24-5.28,5.84h10.22Z"/><path d="M457.57,430.5a5,5,0,0,1,.67,0v2.38H458a5.14,5.14,0,0,0-3.75,1.33c-1.61,1.61-1.92,4-1.92,6.16v8h-2.42v-17.5h2.28v4.27C453,432.49,454.88,430.5,457.57,430.5Z"/><path d="M460.33,430.92h3.23V426.3l2.45-1.05v5.67h4.51v2H466v10.5c0,2.06.91,3,2.73,3a7.07,7.07,0,0,0,1.78-.21v2.21a8.2,8.2,0,0,1-2.41.31c-3.4,0-4.55-2.06-4.55-5.18V433h-3.23Z"/><path d="M473.42,443.8a4.41,4.41,0,0,1,2.14-3.92,15,15,0,0,1,5.74-1.58l3.89-.45v-.28c0-3.61-1.26-5-4.24-5-2.62,0-4.23,1.36-4.37,3.85H474c.21-3.61,2.94-5.88,7-5.88,4.69,0,6.72,2.17,6.72,7.24v4.55a24.49,24.49,0,0,0,.56,6.13h-2.56a24.2,24.2,0,0,1-.31-3.5c-.84,2.45-3.08,3.92-6.09,3.92C475.74,448.84,473.42,446.81,473.42,443.8Zm11.8-3v-1.12l-5,.7c-3,.42-4.27,1.43-4.27,3.36s1.47,3.08,3.82,3.08C483.05,446.81,485.22,444.36,485.22,440.79Z"/><path d="M491.2,430.92h3.23V426.3l2.45-1.05v5.67h4.51v2h-4.51v10.5c0,2.06.91,3,2.73,3a7.07,7.07,0,0,0,1.78-.21v2.21a8.2,8.2,0,0,1-2.41.31c-3.4,0-4.55-2.06-4.55-5.18V433H491.2Z"/><path d="M505.83,423.92h2.77v3.85h-2.77Zm.18,7h2.42v17.5H506Z"/><path d="M513.43,439.67c0-5.71,3.18-9.17,8.05-9.17s8,3.46,8,9.17-3.19,9.17-8,9.17S513.43,445.37,513.43,439.67Zm13.48,0c0-4.55-2.07-7-5.43-7s-5.46,2.49-5.46,7,2.06,7,5.46,7S526.91,444.22,526.91,439.67Z"/><path d="M534.5,430.92h2.31v3.85a6,6,0,0,1,6-4.27c3.93,0,6,2.41,6,7.1v10.82H546.3V437.74c0-3.39-1.47-5.14-4.24-5.14-3.15,0-5.15,2.52-5.15,6.61v9.21H534.5Z"/><path d="M564.46,448.42V423.57h2.69v24.85Z"/><path d="M574.5,448.42V423.57h2.7v24.85Z"/><path d="M596,434.84h-3.29v-3.92H596Zm0,13.58h-3.29V444.5H596Z"/><path d="M626.83,446.11v2.31h-15.4V423.57h15.15v2.31H614.12v8.64H626v2.31H614.12v9.28Z"/><path d="M632.46,430.92h2.31v3.85a6,6,0,0,1,6-4.27c3.92,0,6,2.41,6,7.1v10.82h-2.45V437.74c0-3.39-1.47-5.14-4.24-5.14-3.15,0-5.14,2.52-5.14,6.61v9.21h-2.42Z"/><path d="M649.54,430.92h2.66l4.34,12.39c.32,1,.56,1.78.74,2.59h.1c.18-.81.46-1.61.77-2.59l4.34-12.39h2.66l-6.47,17.5H656Z"/><path d="M668.69,423.92h2.76v3.85h-2.76Zm.17,7h2.42v17.5h-2.42Z"/><path d="M685.63,430.5a4.86,4.86,0,0,1,.66,0v2.38H686a5.1,5.1,0,0,0-3.74,1.33c-1.61,1.61-1.93,4-1.93,6.16v8h-2.41v-17.5h2.27v4.27C681,432.49,682.93,430.5,685.63,430.5Z"/><path d="M688.5,439.67c0-5.71,3.18-9.17,8-9.17s8,3.46,8,9.17-3.18,9.17-8,9.17S688.5,445.37,688.5,439.67Zm13.47,0c0-4.55-2.06-7-5.42-7s-5.46,2.49-5.46,7,2.06,7,5.46,7S702,444.22,702,439.67Z"/><path d="M709.57,430.92h2.31v3.85a6,6,0,0,1,6-4.27c3.92,0,5.95,2.41,5.95,7.1v10.82h-2.45V437.74c0-3.39-1.47-5.14-4.23-5.14-3.15,0-5.15,2.52-5.15,6.61v9.21h-2.41Z"/><path d="M729.83,430.92h2.31v3.85a6,6,0,0,1,6-4.27c3.92,0,6,2.41,6,7.1v10.82h-2.45V437.74c0-3.39-1.47-5.14-4.24-5.14-3.15,0-5.14,2.52-5.14,6.61v9.21h-2.42Z"/><path d="M763.68,440.3H751c0,3.95,2.21,6.37,5.6,6.37a4.93,4.93,0,0,0,4.94-3.75l2.06.84a7.08,7.08,0,0,1-7.17,5.08c-5,0-7.88-3.19-7.88-9.07s2.94-9.27,7.77-9.27,7.39,2.8,7.39,8.12ZM761.19,438c0-3.61-1.82-5.53-4.93-5.53S751,434.7,751,438.3h10.22Z"/><path d="M771.13,430.92v3.39a5.22,5.22,0,0,1,5.18-3.81,4.94,4.94,0,0,1,5,3.74,5.56,5.56,0,0,1,5.39-3.74c3.43,0,5.39,2.38,5.39,6.47v11.45h-2.45V437.18c0-3-1.26-4.58-3.67-4.58-2.66,0-4.31,2-4.31,5.18v10.64h-2.41V437c0-2.83-1.33-4.44-3.64-4.44-2.66,0-4.38,2.17-4.38,5.6v10.22h-2.42v-17.5Z"/><path d="M811.77,440.3H799.06c0,3.95,2.21,6.37,5.6,6.37a4.93,4.93,0,0,0,4.94-3.75l2.06.84a7.08,7.08,0,0,1-7.17,5.08c-5,0-7.88-3.19-7.88-9.07s2.94-9.27,7.77-9.27,7.39,2.8,7.39,8.12ZM809.28,438c0-3.61-1.82-5.53-4.93-5.53s-5.22,2.24-5.29,5.84h10.22Z"/><path d="M816.94,430.92h2.31v3.85a6,6,0,0,1,6-4.27c3.92,0,6,2.41,6,7.1v10.82h-2.45V437.74c0-3.39-1.47-5.14-4.24-5.14-3.15,0-5.14,2.52-5.14,6.61v9.21h-2.42Z"/><path d="M834.38,430.92h3.21V426.3l2.45-1.05v5.67h4.52v2H840v10.5c0,2.06.92,3,2.74,3a7.07,7.07,0,0,0,1.78-.21v2.21a8.2,8.2,0,0,1-2.41.31c-3.4,0-4.56-2.06-4.56-5.18V433h-3.21Z"/><path d="M487,475.12a5.35,5.35,0,0,1-4.27,1.93h-1.12v-2.31h.67a5.06,5.06,0,0,0,5.11-4.13h2.17v24.32H487Z"/><path d="M512.17,482.37c0,7.45-2.48,13.09-8.64,13.09-4.38,0-7-2.28-7.77-6.37l2.59-.53c.52,2.8,1.92,4.73,5.21,4.73,4.31,0,6-4.34,6-10.89v-.35a6.57,6.57,0,0,1-6.37,3.82c-4.48,0-7.8-2.8-7.8-7.84a7.63,7.63,0,0,1,8-7.95C509.2,470.08,512.17,474.11,512.17,482.37Zm-2.73-3.89c-.42-3.32-2-6.23-6-6.23-3.32,0-5.42,2.35-5.42,5.74,0,3.57,2.27,5.71,5.46,5.71A6.15,6.15,0,0,0,509.44,478.48Z"/><path d="M522.57,501.8v-2.1c.91.07,1.33.1,1.68.1,1.4,0,2.2-.66,2.2-3V477.43h2.45V497c0,2.73-1.12,5-4.3,5A9.44,9.44,0,0,1,522.57,501.8Zm3.71-31.37H529v3.85h-2.76Z"/><path d="M533.94,490.31a4.43,4.43,0,0,1,2.14-3.92,15.13,15.13,0,0,1,5.74-1.57l3.88-.46v-.28c0-3.6-1.26-5-4.23-5-2.63,0-4.24,1.37-4.38,3.85h-2.62c.21-3.6,2.94-5.88,7-5.88,4.69,0,6.72,2.17,6.72,7.25v4.55a24.84,24.84,0,0,0,.56,6.12h-2.55a23.81,23.81,0,0,1-.32-3.5c-.84,2.46-3.08,3.92-6.09,3.92C536.25,495.35,533.94,493.32,533.94,490.31Zm11.8-3v-1.12l-5,.7c-3,.42-4.27,1.44-4.27,3.36s1.47,3.08,3.81,3.08C543.57,493.32,545.74,490.87,545.74,487.3Z"/><path d="M554.35,477.43h2.31v3.85a6,6,0,0,1,6-4.27c3.92,0,6,2.42,6,7.11v10.81h-2.45V484.26c0-3.4-1.47-5.15-4.23-5.15-3.15,0-5.15,2.52-5.15,6.62v9.2h-2.41Z"/><path d="M571.43,477.43h2.66l4.34,12.39c.31,1,.56,1.79.73,2.59h.11a26.24,26.24,0,0,1,.77-2.59l4.34-12.39H587l-6.48,17.5H577.9Z"/><path d="M590.57,470.43h2.77v3.85h-2.77Zm.18,7h2.41v17.5h-2.41Z"/><path d="M613.32,486.81h-12.7c0,4,2.2,6.37,5.6,6.37a4.9,4.9,0,0,0,4.93-3.74l2.07.84a7.09,7.09,0,0,1-7.18,5.07c-5,0-7.88-3.18-7.88-9.06s2.94-9.28,7.78-9.28c4.69,0,7.38,2.8,7.38,8.12Zm-2.48-2.31c0-3.6-1.82-5.53-4.94-5.53s-5.22,2.24-5.28,5.85h10.22Z"/><path d="M626.2,477a3.77,3.77,0,0,1,.67,0v2.38h-.28a5.14,5.14,0,0,0-3.75,1.33c-1.61,1.61-1.92,3.95-1.92,6.16v8H618.5v-17.5h2.28v4.27C621.58,479,623.51,477,626.2,477Z"/><path d="M638.24,492.8a83.41,83.41,0,0,0,8.75-7.42c2.94-2.94,4.06-5.15,4.06-8,0-3.18-1.78-5-4.86-5s-5.05,1.86-5.05,4.76a12.16,12.16,0,0,0,.28,2.24l-2.59-.24a8.34,8.34,0,0,1-.24-2c0-4.27,2.91-7,7.74-7,4.65,0,7.42,2.63,7.42,7.25,0,3.32-1.61,6.23-5.11,9.59a52.12,52.12,0,0,1-6.93,5.7h12.42v2.31H638.24Z"/><path d="M657.31,482.75c0-7.77,3.22-12.67,9.24-12.67s9.21,4.9,9.21,12.71-3.18,12.67-9.21,12.67S657.31,490.56,657.31,482.75Zm15.9,0c0-6.48-2.24-10.54-6.66-10.54s-6.65,4-6.65,10.5,2.24,10.54,6.65,10.54S673.21,489.26,673.21,482.79Z"/><path d="M679,492.8a84.44,84.44,0,0,0,8.75-7.42c2.94-2.94,4.06-5.15,4.06-8,0-3.18-1.79-5-4.87-5s-5,1.86-5,4.76a12.16,12.16,0,0,0,.28,2.24l-2.59-.24a8.34,8.34,0,0,1-.24-2c0-4.27,2.9-7,7.73-7,4.66,0,7.43,2.63,7.43,7.25,0,3.32-1.61,6.23-5.11,9.59a52.23,52.23,0,0,1-6.94,5.7h12.43v2.31H679Z"/><path d="M703.41,475.12a5.38,5.38,0,0,1-4.27,1.93H698v-2.31h.66a5.06,5.06,0,0,0,5.11-4.13H706v24.32h-2.55Z"/><g class="cls-3"><g class="cls-4"><g class="cls-5"><path class="cls-6" d="M86.11,557.91c-5.81,0-10.52,4.23-10.52,9.44V676c0,5.22,4.71,9.45,10.52,9.45H277.66c5.81,0,10.52-4.23,10.52-9.45V567.35c0-5.21-4.71-9.44-10.52-9.44Z"/></g></g></g><path class="cls-7" d="M150.72,629.84h-9.43l-1.94,6h-6.08l9.28-25.56h6.95l9.29,25.56h-6.12Zm-1.4-4.28L147,618.43a32.44,32.44,0,0,1-.94-3.6H146a24.24,24.24,0,0,1-.93,3.6l-2.34,7.13Z"/><path class="cls-7" d="M179.67,631.32v4.5H161.92V610.26h17.5v4.5H168v5.76h10.8V625H168v6.34Z"/><path class="cls-7" d="M202.71,615.08h-7.45v20.74h-6V615.08h-7.42v-4.82h20.92Z"/><path class="cls-7" d="M202.64,623.07c0-8.06,4.75-13.42,12.52-13.42,6.52,0,10.62,3.6,11.31,9.18l-6.16,1.08c-.36-3.39-2.23-5.37-5.29-5.37-3.89,0-6.16,3.28-6.16,8.5s2.31,8.46,6.34,8.46c2.84,0,4.75-2,5.26-5.26l6.15,1.33c-1.22,5.4-5.18,8.86-11.52,8.86C207,636.43,202.64,631.14,202.64,623.07Z"/><g class="cls-3"><g class="cls-4"><g class="cls-8"><rect class="cls-9" x="233.86" y="674.65" width="212.6" height="127.56" rx="8.75"/></g></g></g><path class="cls-7" d="M289.11,748.06v4.5H271.36V727h17.5v4.5H277.44v5.76h10.8v4.46h-10.8v6.34Z"/><path class="cls-7" d="M291.59,739.81c0-8.06,4.76-13.42,12.53-13.42,6.52,0,10.62,3.6,11.3,9.17l-6.15,1.08c-.36-3.38-2.23-5.36-5.29-5.36-3.89,0-6.16,3.28-6.16,8.5s2.3,8.46,6.34,8.46c2.84,0,4.75-2,5.25-5.26l6.16,1.33c-1.23,5.4-5.19,8.86-11.52,8.86C296,753.17,291.59,747.88,291.59,739.81Z"/><path class="cls-7" d="M317.62,739.78c0-8.25,4.93-13.39,12.6-13.39s12.6,5.14,12.6,13.39-4.93,13.39-12.6,13.39S317.62,748,317.62,739.78Zm18.94,0c0-5.4-2.34-8.64-6.34-8.64s-6.37,3.24-6.37,8.64,2.37,8.64,6.37,8.64S336.56,745.18,336.56,739.78Z"/><path class="cls-7" d="M363.7,731.82h-7.45v20.74H350.2V731.82h-7.41V727H363.7Z"/><path class="cls-7" d="M384.33,748.06v4.5H366.58V727h17.49v4.5H372.66v5.76h10.8v4.46h-10.8v6.34Z"/><path class="cls-7" d="M386.78,739.81c0-8.06,4.75-13.42,12.52-13.42,6.52,0,10.62,3.6,11.31,9.17l-6.16,1.08c-.36-3.38-2.23-5.36-5.29-5.36-3.89,0-6.16,3.28-6.16,8.5s2.31,8.46,6.34,8.46c2.84,0,4.75-2,5.25-5.26l6.16,1.33c-1.22,5.4-5.18,8.86-11.52,8.86C391.13,753.17,386.78,747.88,386.78,739.81Z"/><g class="cls-3"><g class="cls-4"><g class="cls-10"><rect class="cls-11" x="437.02" y="600.44" width="212.6" height="127.56" rx="8.75"/></g></g></g><path class="cls-7" d="M462.66,656.53h-7.45v20.74h-6V656.53h-7.42v-4.82h20.91Z"/><path class="cls-7" d="M475.3,667.48h-3.67v9.79h-6.08V651.71h11.23c6.48,0,9.35,3.17,9.35,7.85a7.07,7.07,0,0,1-5,7l5.65,10.69H480.2Zm-3.67-4.18h3.92c2.95,0,4.25-1.44,4.25-3.74s-1.26-3.57-4.25-3.57h-3.92Z"/><path class="cls-7" d="M506.12,671.29h-9.44l-1.94,6h-6.08l9.28-25.56h6.95l9.29,25.56h-6.12ZM504.71,667l-2.34-7.13a29.92,29.92,0,0,1-.93-3.6h-.08a23.92,23.92,0,0,1-.93,3.6L498.09,667Z"/><path class="cls-7" d="M517.31,651.71H524l8.21,14.58a25.88,25.88,0,0,1,1.55,3.31h.07c0-1,0-2.05,0-3.27V651.71h5.58v25.56h-6.47l-8.5-14.72a22.37,22.37,0,0,1-1.51-3.14h-.07c0,1.05,0,2.13,0,3.39v14.47h-5.58Z"/><path class="cls-7" d="M542,671.94l4.5-3.17a7.39,7.39,0,0,0,7,4.39c2.44,0,4.39-.89,4.39-2.91s-1.12-2.63-3.71-3.17l-3.42-.72c-4.46-1-7.05-3.38-7.05-7.67,0-4.67,3.81-7.59,10-7.59,4.53,0,8.35,1.66,10.15,5.07l-4,3.35a7.18,7.18,0,0,0-6.59-3.92c-2.41,0-4,1-4,2.63s1,2.48,3.71,3.09l3.71.79c4.53,1,7,3.17,7,7.56,0,4.86-3.75,8.21-10.44,8.21C547.73,677.88,543.77,675.54,542,671.94Z"/><path class="cls-7" d="M567.28,677.27V651.71h6.08v25.56Z"/><path class="cls-7" d="M597.19,656.53h-7.45v20.74h-6V656.53h-7.42v-4.82h20.91Z"/><path class="cls-7" d="M617.82,672.77v4.5H600.08V651.71h17.49v4.5H606.16V662H617v4.46h-10.8v6.34Z"/><path class="cls-7" d="M620.27,664.53c0-8.07,4.75-13.43,12.53-13.43,6.51,0,10.62,3.6,11.3,9.18L638,661.36c-.37-3.39-2.24-5.37-5.3-5.37-3.88,0-6.15,3.28-6.15,8.5,0,5.07,2.3,8.46,6.33,8.46,2.85,0,4.75-2,5.26-5.26l6.15,1.33c-1.22,5.4-5.18,8.86-11.51,8.86C624.63,677.88,620.27,672.59,620.27,664.53Z"/><g class="cls-3"><g class="cls-4"><g class="cls-12"><rect class="cls-13" x="267.87" y="497.13" width="115.74" height="77.39" rx="8.75"/></g></g><g class="cls-4"><g class="cls-14"><rect class="cls-6" x="971.34" y="383.39" width="167.01" height="111.68" rx="8.27"/></g></g></g><path class="cls-7" d="M1046,453.37h-6.16v-5.91H1046Z"/><path class="cls-7" d="M1056.28,453.37h-6.16v-5.91h6.16Z"/><path class="cls-7" d="M1066.54,453.37h-6.16v-5.91h6.16Z"/><g class="cls-3"><g class="cls-4"><g class="cls-15"><rect class="cls-11" x="903.11" y="330.24" width="81.75" height="62.3" rx="8.75"/></g></g></g><path class="cls-7" d="M937.58,369.2h-6.15v-5.91h6.15Z"/><path class="cls-7" d="M947.84,369.2h-6.15v-5.91h6.15Z"/><path class="cls-7" d="M958.1,369.2H952v-5.91h6.15Z"/><g class="cls-3"><g class="cls-4"><g class="cls-16"><rect class="cls-9" x="960.94" y="233.86" width="201.26" height="104.88" rx="8.75"/></g></g></g><path class="cls-7" d="M1054.39,296.17h-6.15v-5.9h6.15Z"/><path class="cls-7" d="M1064.65,296.17h-6.15v-5.9h6.15Z"/><path class="cls-7" d="M1074.91,296.17h-6.15v-5.9h6.15Z"/><g class="cls-3"><g class="cls-4"><g class="cls-17"><rect class="cls-13" x="778.55" y="94.96" width="222.08" height="156.3" rx="8.75"/></g></g></g><path class="cls-7" d="M882.41,187.24h-6.16v-5.9h6.16Z"/><path class="cls-7" d="M892.67,187.24h-6.16v-5.9h6.16Z"/><path class="cls-7" d="M902.93,187.24h-6.16v-5.9h6.16Z"/></g></g></svg>