<svg id="Calque_1" data-name="Calque 1" xmlns="http://www.w3.org/2000/svg" xmlns:xlink="http://www.w3.org/1999/xlink" viewBox="0 0 1190.55 841.89"><defs><style>.cls-1{fill:none;}.cls-2{clip-path:url(#clip-path);}.cls-3{clip-path:url(#clip-path-3);}.cls-4{opacity:0.8;}.cls-5{clip-path:url(#clip-path-4);}.cls-6{fill:#ffce00;}.cls-7{clip-path:url(#clip-path-5);}.cls-8{fill:#f59e00;}.cls-9{clip-path:url(#clip-path-6);}.cls-10{clip-path:url(#clip-path-7);}.cls-11{clip-path:url(#clip-path-8);}.cls-12{fill:#a8ba00;}.cls-13{clip-path:url(#clip-path-9);}.cls-14{clip-path:url(#clip-path-10);}.cls-15{fill:#008ea5;}.cls-16{clip-path:url(#clip-path-11);}.cls-17{fill:#fff;}</style><clipPath id="clip-path"><rect class="cls-1" width="1190.55" height="841.89"/></clipPath><clipPath id="clip-path-3"><rect class="cls-1" width="1190.55" height="841.89"/></clipPath><clipPath id="clip-path-4"><rect class="cls-1" x="883.64" y="199.79" width="212.35" height="137.96"/></clipPath><clipPath id="clip-path-5"><rect class="cls-1" x="730.59" y="522.1" width="212.35" height="137.96"/></clipPath><clipPath id="clip-path-6"><rect class="cls-1" x="206.43" y="213.02" width="155.28" height="102.27"/></clipPath><clipPath id="clip-path-7"><rect class="cls-1" x="118.76" y="486.66" width="210.35" height="137.96"/></clipPath><clipPath id="clip-path-8"><rect class="cls-1" x="319.11" y="88.39" width="218.63" height="152.91"/></clipPath><clipPath id="clip-path-9"><rect class="cls-1" x="917.86" y="465.33" width="120.21" height="79.38"/></clipPath><clipPath id="clip-path-10"><rect class="cls-1" x="800.86" y="161.47" width="120.21" height="72.07"/></clipPath><clipPath id="clip-path-11"><rect class="cls-1" x="282.46" y="595.88" width="262.29" height="143.06"/></clipPath></defs><g class="cls-2"><g class="cls-2"><path d="M341.1,407.57h7L352,420.62a14.92,14.92,0,0,1,.51,2.58h.06a16.5,16.5,0,0,1,.54-2.64l3.75-13h7v21.3h-4.62V414.35a21.43,21.43,0,0,1,.12-2.4h-.09a12.12,12.12,0,0,1-.45,2.07l-4.29,14.85h-4.26L345.84,414a10,10,0,0,1-.45-2h-.09c.06.72.12,1.53.12,2.37v14.52H341.1Z"/><path d="M383.13,425.12v3.75H368.34v-21.3h14.58v3.75h-9.51v4.8h9v3.72h-9v5.28Z"/><path d="M395,420.71h-3.06v8.16h-5.07v-21.3h9.36c5.4,0,7.8,2.64,7.8,6.54a5.89,5.89,0,0,1-4.17,5.85l4.71,8.91H399Zm-3.06-3.48h3.27c2.46,0,3.54-1.2,3.54-3.12s-1.05-3-3.54-3h-3.27Z"/><path d="M405.75,418.25c0-6.72,4-11.19,10.44-11.19,5.43,0,8.85,3,9.42,7.65l-5.13.9c-.3-2.82-1.86-4.47-4.41-4.47-3.24,0-5.13,2.73-5.13,7.08s1.92,7,5.28,7c2.37,0,4-1.62,4.38-4.38l5.13,1.11c-1,4.5-4.32,7.38-9.6,7.38C409.38,429.38,405.75,425,405.75,418.25Z"/><path d="M428.67,428.87v-21.3h5.07v21.3Z"/><path d="M445.59,407.57h8.49c6.39,0,10.53,4.26,10.53,10.53s-4.14,10.77-10.59,10.77h-8.43Zm8.22,17.58c3.6,0,5.58-3.24,5.58-7s-1.86-6.81-5.52-6.81h-3.21v13.86Z"/><path d="M482.49,425.12v3.75H467.7v-21.3h14.58v3.75h-9.51v4.8h9v3.72h-9v5.28Z"/><path d="M491.43,407.57h5.4l4,13.74a17.44,17.44,0,0,1,.66,2.94h.12a18,18,0,0,1,.69-2.94l4-13.74h5.4l-7.17,21.3H498.6Z"/><path d="M511.8,418.22c0-6.87,4.11-11.16,10.5-11.16s10.5,4.29,10.5,11.16-4.11,11.16-10.5,11.16S511.8,425.06,511.8,418.22Zm15.78,0c0-4.5-2-7.2-5.28-7.2s-5.31,2.7-5.31,7.2,2,7.2,5.31,7.2S527.58,422.72,527.58,418.22Z"/><path d="M550.23,411.59H544v17.28h-5V411.59H532.8v-4h17.43Z"/><path d="M560.76,420.71H557.7v8.16h-5.07v-21.3H562c5.4,0,7.8,2.64,7.8,6.54a5.89,5.89,0,0,1-4.17,5.85l4.71,8.91h-5.49Zm-3.06-3.48H561c2.46,0,3.54-1.2,3.54-3.12s-1-3-3.54-3H557.7Z"/><path d="M588.21,425.12v3.75H573.42v-21.3H588v3.75h-9.51v4.8h9v3.72h-9v5.28Z"/><path d="M616.41,414.26c0,4.23-3,6.87-7.77,6.87h-4.26v7.74h-5.07v-21.3h9.45C613.38,407.57,616.41,410.21,616.41,414.26Zm-5.31.15c0-2-1.29-3.18-3.57-3.18h-3.15v6.36h3.15C609.78,417.59,611.1,416.42,611.1,414.41Z"/><path d="M629.28,423.89h-7.86l-1.62,5h-5.07l7.74-21.3h5.79l7.74,21.3h-5.1Zm-1.17-3.57-2-5.94a25.65,25.65,0,0,1-.78-3h-.06a20.83,20.83,0,0,1-.78,3l-1.95,5.94Z"/><path d="M646.74,420.71h-3.06v8.16h-5.07v-21.3H648c5.4,0,7.8,2.64,7.8,6.54A5.89,5.89,0,0,1,651.6,420l4.71,8.91h-5.49Zm-3.06-3.48H647c2.46,0,3.54-1.2,3.54-3.12s-1-3-3.54-3h-3.27Z"/><path d="M674.25,411.59H668v17.28h-5V411.59h-6.18v-4h17.43Z"/><path d="M676.65,428.87v-21.3h5.07v21.3Z"/><path d="M684.81,418.25c0-6.72,4-11.19,10.44-11.19,5.43,0,8.85,3,9.42,7.65l-5.13.9c-.3-2.82-1.86-4.47-4.41-4.47-3.24,0-5.13,2.73-5.13,7.08s1.92,7,5.28,7c2.37,0,4-1.62,4.38-4.38l5.13,1.11c-1,4.5-4.32,7.38-9.6,7.38C688.44,429.38,684.81,425,684.81,418.25Z"/><path d="M707.73,428.87v-21.3h5.07v21.3Z"/><path d="M734.34,414.26c0,4.23-3,6.87-7.77,6.87h-4.26v7.74h-5.07v-21.3h9.45C731.31,407.57,734.34,410.21,734.34,414.26Zm-5.31.15c0-2-1.29-3.18-3.57-3.18h-3.15v6.36h3.15C727.71,417.59,729,416.42,729,414.41Z"/><path d="M747.21,423.89h-7.86l-1.62,5h-5.07l7.74-21.3h5.79l7.74,21.3h-5.1ZM746,420.32l-1.95-5.94a25.65,25.65,0,0,1-.78-3h-.06a20.83,20.83,0,0,1-.78,3l-2,5.94Z"/><path d="M769.26,411.59h-6.21v17.28h-5V411.59h-6.18v-4h17.43Z"/><path d="M771.66,428.87v-21.3h5.07v21.3Z"/><path d="M779.82,418.22c0-6.87,4.11-11.16,10.5-11.16s10.5,4.29,10.5,11.16-4.11,11.16-10.5,11.16S779.82,425.06,779.82,418.22Zm15.78,0c0-4.5-2-7.2-5.28-7.2s-5.31,2.7-5.31,7.2,2,7.2,5.31,7.2S795.6,422.72,795.6,418.22Z"/><path d="M803.91,407.57h5.61l6.84,12.15a22.16,22.16,0,0,1,1.29,2.76h.06c0-.84,0-1.71,0-2.73V407.57h4.65v21.3h-5.4l-7.08-12.27a18.35,18.35,0,0,1-1.26-2.61h-.06c0,.87,0,1.77,0,2.82v12.06h-4.65Z"/><path d="M834.18,407.12h5.46l-.81,14.79H835Zm5.34,21.75H834.3v-4.59h5.22Z"/><path d="M844.08,407.12h5.46l-.81,14.79h-3.84Zm5.34,21.75H844.2v-4.59h5.22Z"/><g class="cls-3"><g class="cls-4"><g class="cls-5"><rect class="cls-6" x="892.64" y="206.79" width="194.35" height="129.96" rx="9.62"/></g></g><g class="cls-4"><g class="cls-7"><rect class="cls-8" x="739.59" y="529.1" width="194.35" height="129.96" rx="9.62"/></g></g><g class="cls-4"><g class="cls-9"><path class="cls-8" d="M222.23,220a6.9,6.9,0,0,0-6.8,7v80.31a6.89,6.89,0,0,0,6.8,7H345.92a6.88,6.88,0,0,0,6.79-7V227a6.89,6.89,0,0,0-6.79-7Z"/></g></g><g class="cls-4"><g class="cls-10"><rect class="cls-6" x="127.76" y="493.66" width="192.35" height="129.96" rx="9.62"/></g></g><g class="cls-4"><g class="cls-11"><rect class="cls-12" x="328.11" y="95.39" width="200.63" height="144.92" rx="9.62"/></g></g><g class="cls-4"><g class="cls-13"><rect class="cls-12" x="926.86" y="472.33" width="102.21" height="71.38" rx="9.62"/></g></g><g class="cls-4"><g class="cls-14"><rect class="cls-15" x="809.86" y="168.47" width="102.21" height="64.07" rx="9.62"/></g></g><g class="cls-4"><g class="cls-16"><rect class="cls-15" x="291.46" y="602.88" width="244.29" height="135.06" rx="9.62"/></g></g></g><path class="cls-17" d="M980,287.32h-6.77v-6.5H980Z"/><path class="cls-17" d="M991.28,287.32H984.5v-6.5h6.78Z"/><path class="cls-17" d="M1002.56,287.32h-6.77v-6.5h6.77Z"/><path class="cls-17" d="M857.43,205.55A5.53,5.53,0,0,1,860,201l2-1.54a5.08,5.08,0,0,0,2.38-4.32c0-2-1.31-3.25-3.49-3.25-2.37,0-3.88,1.35-3.88,3.77a6.76,6.76,0,0,0,.24,2l-6.1-.52a11.08,11.08,0,0,1-.28-2.29c0-4.6,3.77-7.69,10.06-7.69s9.94,2.7,9.94,7.33a9.09,9.09,0,0,1-3.72,7.09l-1.82,1.5a3.66,3.66,0,0,0-1.7,3.25v1.15h-6.18Zm-.28,4.31H864v6.06h-6.81Z"/><path class="cls-17" d="M420.52,183.37h-6.77v-6.5h6.77Z"/><path class="cls-17" d="M431.81,183.37H425v-6.5h6.77Z"/><path class="cls-17" d="M443.09,183.37h-6.77v-6.5h6.77Z"/><rect class="cls-17" x="277.72" y="266.85" width="12.95" height="5.35"/><path class="cls-17" d="M213.81,545.43H221L220,565h-5.07Zm7.05,28.71H214v-6.06h6.89Z"/><path class="cls-17" d="M226.88,545.43h7.2L233,565H228Zm7.05,28.71H227v-6.06h6.89Z"/><path class="cls-17" d="M405.71,685.89h-6.77V679.4h6.77Z"/><path class="cls-17" d="M417,685.89h-6.77V679.4H417Z"/><path class="cls-17" d="M428.28,685.89h-6.77V679.4h6.77Z"/><path class="cls-17" d="M828.88,609.54h-6.77v-6.49h6.77Z"/><path class="cls-17" d="M840.16,609.54h-6.77v-6.49h6.77Z"/><path class="cls-17" d="M851.45,609.54h-6.77v-6.49h6.77Z"/><path class="cls-17" d="M980,507.42l4,3.64-3.72,2.73L978,509l-2.3,4.79L972,511.06l4-3.64-5.34-.76,1.46-4.39,4.59,2.65-1-5.22h4.64l-1,5.22,4.63-2.65,1.47,4.39Z"/></g></g></svg>