<svg id="Calque_1" data-name="Calque 1" xmlns="http://www.w3.org/2000/svg" xmlns:xlink="http://www.w3.org/1999/xlink" viewBox="0 0 1190.55 841.89"><defs><style>.cls-1,.cls-7{fill:none;}.cls-2{clip-path:url(#clip-path);}.cls-3{clip-path:url(#clip-path-3);}.cls-4{opacity:0.6;}.cls-5{clip-path:url(#clip-path-4);}.cls-6{fill:#eadfde;}.cls-7{stroke:#283583;stroke-miterlimit:10;stroke-width:1.5px;}.cls-8{fill:#283583;}</style><clipPath id="clip-path"><rect class="cls-1" width="1190.55" height="841.89"/></clipPath><clipPath id="clip-path-3"><rect class="cls-1" width="1190.55" height="841.89"/></clipPath><clipPath id="clip-path-4"><rect class="cls-1" x="27" y="158.83" width="1136.55" height="323.12"/></clipPath></defs><g class="cls-2"><g class="cls-2"><g class="cls-3"><g class="cls-4"><g class="cls-5"><rect class="cls-6" x="36" y="165.83" width="1118.55" height="315.12"/></g></g></g><line class="cls-7" x1="619.16" y1="207" x2="827.72" y2="207"/><path d="M69.36,182.7v13.8c0,3.63,2,5.94,5.64,5.94s5.67-2.31,5.67-5.94V182.7H83v14c0,4.71-2.85,7.86-8,7.86s-8-3.15-8-7.86v-14Z"/><path d="M88.53,189h2v3.3a5.11,5.11,0,0,1,5.13-3.66c3.36,0,5.1,2.07,5.1,6.09V204h-2.1v-9.15c0-2.91-1.26-4.41-3.63-4.41-2.7,0-4.41,2.16-4.41,5.67V204H88.53Z"/><path d="M123.63,201a5.1,5.1,0,0,1-4.95,3.36c-3.69,0-6.18-3.09-6.18-7.86s2.67-7.86,6.39-7.86a4.81,4.81,0,0,1,4.83,3.18l.45-2.82h1.56v20.85h-2.1Zm0-4.11v-.75c0-3.36-1.65-5.64-4.47-5.64s-4.47,2.25-4.47,6,1.65,6,4.44,6S123.66,200.22,123.66,196.89Z"/><path d="M131,198.51V189H133v9.3c0,2.94,1.38,4.26,3.42,4.26,2.72,0,4.38-2.34,4.38-5.37V189h2.09v15h-2v-3.09a5.16,5.16,0,0,1-4.87,3.45C132.33,204.36,131,202.08,131,198.51Z"/><path d="M160.2,197H149.31c0,3.39,1.89,5.46,4.8,5.46a4.21,4.21,0,0,0,4.22-3.21l1.78.72a6.08,6.08,0,0,1-6.16,4.35c-4.25,0-6.74-2.73-6.74-7.77s2.52-8,6.65-8,6.34,2.4,6.34,7Zm-2.13-2c0-3.09-1.57-4.74-4.24-4.74s-4.47,1.92-4.52,5h8.76Z"/><path d="M163.23,199.71l2.13-.36c.36,2.13,1.89,3.27,4.26,3.27,2.19,0,3.42-1.05,3.42-2.55s-.84-2.1-2.43-2.4l-2.91-.57c-2.49-.48-3.9-1.83-3.9-4.11,0-2.52,2.13-4.35,5.52-4.35s5.49,1.47,5.79,4.14l-2.1.45c-.3-1.83-1.59-2.88-3.78-2.88s-3.39,1-3.39,2.55c0,1.41.93,2.1,2.49,2.4l2.94.57c2.67.54,3.84,1.83,3.84,4,0,2.67-2,4.47-5.55,4.47S163.71,202.71,163.23,199.71Z"/><path d="M177.24,189H180v-4l2.11-.9V189H186v1.74H182.1v9c0,1.77.77,2.55,2.34,2.55a6.09,6.09,0,0,0,1.52-.18V204a7,7,0,0,1-2.06.27c-2.91,0-3.91-1.77-3.91-4.44v-9.09h-2.75Z"/><path d="M189.78,183h2.36v3.3h-2.36Zm.14,6H192v15h-2.07Z"/><path d="M196.28,196.5c0-4.89,2.73-7.86,6.9-7.86s6.87,3,6.87,7.86-2.73,7.86-6.87,7.86S196.28,201.39,196.28,196.5Zm11.55,0c0-3.9-1.77-6-4.65-6s-4.68,2.13-4.68,6,1.77,6,4.68,6S207.83,200.4,207.83,196.5Z"/><path d="M214.34,189h2v3.3a5.11,5.11,0,0,1,5.13-3.66c3.36,0,5.1,2.07,5.1,6.09V204h-2.1v-9.15c0-2.91-1.26-4.41-3.63-4.41-2.7,0-4.41,2.16-4.41,5.67V204h-2.07Z"/><path d="M231.71,189h2v3.3a5.11,5.11,0,0,1,5.13-3.66c3.36,0,5.1,2.07,5.1,6.09V204h-2.1v-9.15c0-2.91-1.26-4.41-3.63-4.41-2.7,0-4.41,2.16-4.41,5.67V204h-2.07Z"/><path d="M247.79,200a3.79,3.79,0,0,1,1.83-3.36,12.9,12.9,0,0,1,4.92-1.35l3.33-.39v-.24c0-3.09-1.08-4.32-3.63-4.32-2.25,0-3.63,1.17-3.75,3.3h-2.25c.18-3.09,2.52-5,6-5,4,0,5.76,1.86,5.76,6.21v3.9a21.14,21.14,0,0,0,.48,5.25h-2.19a20.58,20.58,0,0,1-.27-3,5.14,5.14,0,0,1-5.22,3.36C249.77,204.36,247.79,202.62,247.79,200Zm10.11-2.58v-1l-4.26.6c-2.55.36-3.66,1.23-3.66,2.88s1.26,2.64,3.27,2.64C256,202.62,257.9,200.52,257.9,197.46Z"/><path d="M265.13,183h2.37v3.3h-2.37Zm.15,6h2.07v15h-2.07Z"/><path d="M279.65,188.64a3.63,3.63,0,0,1,.57,0v2H280a4.39,4.39,0,0,0-3.21,1.14c-1.38,1.38-1.65,3.39-1.65,5.28V204h-2.07V189H275v3.66C275.69,190.35,277.34,188.64,279.65,188.64Z"/><path d="M295.1,197H284.21c0,3.39,1.89,5.46,4.8,5.46a4.21,4.21,0,0,0,4.23-3.21L295,200a6.07,6.07,0,0,1-6.15,4.35c-4.26,0-6.75-2.73-6.75-7.77s2.52-8,6.66-8,6.33,2.4,6.33,7Zm-2.13-2c0-3.09-1.56-4.74-4.23-4.74s-4.47,1.92-4.53,5H293Z"/><path d="M319.07,197H308.18c0,3.39,1.89,5.46,4.8,5.46a4.21,4.21,0,0,0,4.23-3.21L319,200a6.07,6.07,0,0,1-6.15,4.35c-4.26,0-6.75-2.73-6.75-7.77s2.52-8,6.66-8,6.33,2.4,6.33,7Zm-2.13-2c0-3.09-1.56-4.74-4.23-4.74s-4.47,1.92-4.53,5h8.76Z"/><path d="M323.51,189h2v3.3a5.11,5.11,0,0,1,5.13-3.66c3.36,0,5.1,2.07,5.1,6.09V204h-2.1v-9.15c0-2.91-1.26-4.41-3.63-4.41-2.7,0-4.41,2.16-4.41,5.67V204h-2.07Z"/><path d="M351.11,204H349V182.25h2.07Z"/><path d="M356.81,183h2.37v3.3h-2.37Zm.15,6H359v15H357Z"/><path d="M373.73,190.05a4.86,4.86,0,0,1,1.5,3.63c0,2.91-2.07,5.07-5.46,5.07a6.18,6.18,0,0,1-2.88-.66,1.81,1.81,0,0,0-1.29,1.65c0,1,.75,1.71,2.55,1.71h3.93c3.24,0,4.89,1.47,4.89,4.08,0,2.82-2.22,4.68-7.23,4.68S363,208.32,363,206a3.31,3.31,0,0,1,2.52-3.18,2.65,2.65,0,0,1-1.8-2.58,3,3,0,0,1,2.13-2.88,5,5,0,0,1-1.56-3.72c0-2.91,2.1-5,5.46-5a6.35,6.35,0,0,1,2.94.66,3.45,3.45,0,0,1,3.54-2.7,4.51,4.51,0,0,1,.87.09v1.86a4.18,4.18,0,0,0-1-.12A2.4,2.4,0,0,0,373.73,190.05Zm-5.64,13.23c-.42,0-.81,0-1.17-.06a2.63,2.63,0,0,0-1.83,2.46c0,2,2,2.79,4.89,2.79,3.72,0,4.89-1.17,4.89-2.82s-1.11-2.37-3.27-2.37Zm5.16-9.57a3.48,3.48,0,1,0-3.48,3.42A3.3,3.3,0,0,0,373.25,193.71Z"/><path d="M380.54,189h2v3.3a5.11,5.11,0,0,1,5.13-3.66c3.36,0,5.1,2.07,5.1,6.09V204h-2.1v-9.15c0-2.91-1.26-4.41-3.63-4.41-2.7,0-4.41,2.16-4.41,5.67V204h-2.07Z"/><path d="M409.55,197H398.66c0,3.39,1.89,5.46,4.8,5.46a4.21,4.21,0,0,0,4.23-3.21l1.77.72a6.07,6.07,0,0,1-6.15,4.35c-4.26,0-6.75-2.73-6.75-7.77s2.52-8,6.66-8,6.33,2.4,6.33,7Zm-2.13-2c0-3.09-1.56-4.74-4.23-4.74s-4.47,1.92-4.53,5h8.76Z"/><path d="M420.53,196.5c0-4.62,2.61-7.86,6.42-7.86a4.78,4.78,0,0,1,4.71,3.09v-9.48h2.1V204h-2v-3.18a5.23,5.23,0,0,1-5.07,3.54C423,204.36,420.53,201.18,420.53,196.5Zm11.16.33v-.63c0-3.42-1.65-5.7-4.44-5.7s-4.5,2.25-4.5,6,1.68,6,4.47,6S431.69,200.16,431.69,196.83Z"/><path d="M439.43,183h2.37v3.3h-2.37Zm.15,6h2.07v15h-2.07Z"/><path d="M445.94,199.71l2.13-.36c.36,2.13,1.89,3.27,4.26,3.27,2.19,0,3.42-1.05,3.42-2.55s-.84-2.1-2.43-2.4l-2.91-.57c-2.49-.48-3.9-1.83-3.9-4.11,0-2.52,2.13-4.35,5.52-4.35s5.49,1.47,5.79,4.14l-2.1.45c-.3-1.83-1.59-2.88-3.78-2.88s-3.39,1-3.39,2.55c0,1.41.93,2.1,2.49,2.4l2.94.57c2.67.54,3.84,1.83,3.84,4,0,2.67-2,4.47-5.55,4.47S446.42,202.71,445.94,199.71Z"/><path d="M462.29,189h2v3.18a5.32,5.32,0,0,1,5.13-3.54c3.69,0,6.09,3.15,6.09,7.86s-2.55,7.86-6.24,7.86a5.06,5.06,0,0,1-4.89-3.18v8.67h-2.07Zm11,7.5c0-3.72-1.62-6-4.38-6s-4.56,2.34-4.56,5.64v.66c0,3.36,1.68,5.7,4.44,5.7S473.27,200.22,473.27,196.5Z"/><path d="M478.37,196.5c0-4.89,2.73-7.86,6.9-7.86s6.87,3,6.87,7.86-2.73,7.86-6.87,7.86S478.37,201.39,478.37,196.5Zm11.55,0c0-3.9-1.77-6-4.65-6s-4.68,2.13-4.68,6,1.77,6,4.68,6S489.92,200.4,489.92,196.5Z"/><path d="M496.43,189h2v3.3a5.11,5.11,0,0,1,5.13-3.66c3.36,0,5.1,2.07,5.1,6.09V204h-2.1v-9.15c0-2.91-1.26-4.41-3.63-4.41-2.7,0-4.41,2.16-4.41,5.67V204h-2.07Z"/><path d="M513.71,183h2.37v3.3h-2.37Zm.15,6h2.07v15h-2.07Z"/><path d="M523.76,201l-.39,3h-1.59V182.25h2.07v9.81a5.2,5.2,0,0,1,5-3.42c3.69,0,6.09,3.21,6.09,7.86s-2.46,7.86-6.24,7.86A5.2,5.2,0,0,1,523.76,201Zm9-4.5c0-3.63-1.62-6-4.5-6s-4.44,2.25-4.44,5.7v.72c0,3.33,1.68,5.58,4.38,5.58S532.76,200.16,532.76,196.5Z"/><path d="M541.49,204h-2.07V182.25h2.07Z"/><path d="M558.92,197H548c0,3.39,1.89,5.46,4.8,5.46a4.21,4.21,0,0,0,4.23-3.21l1.77.72a6.07,6.07,0,0,1-6.15,4.35c-4.26,0-6.75-2.73-6.75-7.77s2.52-8,6.66-8,6.33,2.4,6.33,7Zm-2.13-2c0-3.09-1.56-4.74-4.23-4.74s-4.47,1.92-4.53,5h8.76Z"/><path d="M569.9,199.71l2.13-.36c.36,2.13,1.89,3.27,4.26,3.27,2.19,0,3.42-1.05,3.42-2.55s-.84-2.1-2.43-2.4l-2.91-.57c-2.49-.48-3.9-1.83-3.9-4.11,0-2.52,2.13-4.35,5.52-4.35s5.49,1.47,5.79,4.14l-2.1.45c-.3-1.83-1.59-2.88-3.78-2.88s-3.39,1-3.39,2.55c0,1.41.93,2.1,2.49,2.4l2.94.57c2.67.54,3.84,1.83,3.84,4,0,2.67-2,4.47-5.55,4.47S570.38,202.71,569.9,199.71Z"/><path d="M585.8,198.51V189h2.07v9.3c0,2.94,1.38,4.26,3.42,4.26,2.73,0,4.38-2.34,4.38-5.37V189h2.1v15h-2v-3.09a5.14,5.14,0,0,1-4.86,3.45C587.18,204.36,585.8,202.08,585.8,198.51Z"/><path d="M610.07,188.64a3.63,3.63,0,0,1,.57,0v2h-.24a4.39,4.39,0,0,0-3.21,1.14c-1.38,1.38-1.65,3.39-1.65,5.28V204h-2.07V189h1.95v3.66C606.11,190.35,607.76,188.64,610.07,188.64Z"/><path class="cls-8" d="M622,189h2v3.18a5.32,5.32,0,0,1,5.13-3.54c3.69,0,6.09,3.15,6.09,7.86s-2.55,7.86-6.24,7.86a5.06,5.06,0,0,1-4.89-3.18v8.67H622Zm11,7.5c0-3.72-1.62-6-4.38-6s-4.56,2.34-4.56,5.64v.66c0,3.36,1.68,5.7,4.44,5.7S633,200.22,633,196.5Z"/><path class="cls-8" d="M638.15,200a3.79,3.79,0,0,1,1.83-3.36,12.9,12.9,0,0,1,4.92-1.35l3.33-.39v-.24c0-3.09-1.08-4.32-3.63-4.32-2.25,0-3.63,1.17-3.75,3.3H638.6c.18-3.09,2.52-5,6-5,4,0,5.76,1.86,5.76,6.21v3.9a21.14,21.14,0,0,0,.48,5.25h-2.19a20.58,20.58,0,0,1-.27-3,5.14,5.14,0,0,1-5.22,3.36C640.13,204.36,638.15,202.62,638.15,200Zm10.11-2.58v-1l-4.26.6c-2.55.36-3.66,1.23-3.66,2.88s1.26,2.64,3.27,2.64C646.4,202.62,648.26,200.52,648.26,197.46Z"/><path class="cls-8" d="M662.24,188.64a3.63,3.63,0,0,1,.57,0v2h-.24a4.39,4.39,0,0,0-3.21,1.14c-1.38,1.38-1.65,3.39-1.65,5.28V204h-2.07V189h2v3.66C658.28,190.35,659.93,188.64,662.24,188.64Z"/><path class="cls-8" d="M664.61,189h2.76v-4l2.1-.9V189h3.87v1.74h-3.87v9c0,1.77.78,2.55,2.34,2.55a6.12,6.12,0,0,0,1.53-.18V204a7.07,7.07,0,0,1-2.07.27c-2.91,0-3.9-1.77-3.9-4.44v-9.09h-2.76Z"/><path class="cls-8" d="M677.15,183h2.37v3.3h-2.37Zm.15,6h2.07v15H677.3Z"/><path class="cls-8" d="M683.66,196.5c0-4.89,2.61-7.86,6.81-7.86a5.67,5.67,0,0,1,6.06,5.43l-2.13.24c-.3-2.49-1.74-3.84-4-3.84-2.79,0-4.5,2.25-4.5,6s1.71,6.06,4.59,6.06c2.25,0,3.66-1.35,4-3.84l2,.3c-.54,3.39-2.76,5.37-6.06,5.37C686.3,204.36,683.66,201.33,683.66,196.5Z"/><path class="cls-8" d="M700.7,183h2.37v3.3H700.7Zm.15,6h2.07v15h-2.07Z"/><path class="cls-8" d="M708.62,189h2v3.18a5.32,5.32,0,0,1,5.13-3.54c3.69,0,6.09,3.15,6.09,7.86s-2.55,7.86-6.24,7.86a5.06,5.06,0,0,1-4.89-3.18v8.67h-2.07Zm11,7.5c0-3.72-1.62-6-4.38-6s-4.56,2.34-4.56,5.64v.66c0,3.36,1.68,5.7,4.44,5.7S719.6,200.22,719.6,196.5Z"/><path class="cls-8" d="M737.69,197H726.8c0,3.39,1.89,5.46,4.8,5.46a4.21,4.21,0,0,0,4.23-3.21l1.77.72a6.07,6.07,0,0,1-6.15,4.35c-4.26,0-6.75-2.73-6.75-7.77s2.52-8,6.66-8,6.33,2.4,6.33,7Zm-2.13-2c0-3.09-1.56-4.74-4.23-4.74s-4.47,1.92-4.53,5h8.76Z"/><path class="cls-8" d="M748.73,188.64a3.63,3.63,0,0,1,.57,0v2h-.24a4.39,4.39,0,0,0-3.21,1.14c-1.38,1.38-1.65,3.39-1.65,5.28V204h-2.07V189h2v3.66C744.77,190.35,746.42,188.64,748.73,188.64Z"/><path class="cls-8" d="M753.62,204H750.8v-3.36h2.82Z"/><path class="cls-8" d="M768.08,190.05a4.86,4.86,0,0,1,1.5,3.63c0,2.91-2.07,5.07-5.46,5.07a6.18,6.18,0,0,1-2.88-.66,1.81,1.81,0,0,0-1.29,1.65c0,1,.75,1.71,2.55,1.71h3.93c3.24,0,4.89,1.47,4.89,4.08,0,2.82-2.22,4.68-7.23,4.68s-6.72-1.89-6.72-4.17a3.31,3.31,0,0,1,2.52-3.18,2.65,2.65,0,0,1-1.8-2.58,3,3,0,0,1,2.13-2.88,5,5,0,0,1-1.56-3.72c0-2.91,2.1-5,5.46-5a6.35,6.35,0,0,1,2.94.66,3.45,3.45,0,0,1,3.54-2.7,4.51,4.51,0,0,1,.87.09v1.86a4.18,4.18,0,0,0-1-.12A2.4,2.4,0,0,0,768.08,190.05Zm-5.64,13.23c-.42,0-.81,0-1.17-.06a2.63,2.63,0,0,0-1.83,2.46c0,2,1.95,2.79,4.89,2.79,3.72,0,4.89-1.17,4.89-2.82s-1.11-2.37-3.27-2.37Zm5.16-9.57a3.48,3.48,0,1,0-3.48,3.42A3.3,3.3,0,0,0,767.6,193.71Z"/><path class="cls-8" d="M786.17,197H775.28c0,3.39,1.89,5.46,4.8,5.46a4.21,4.21,0,0,0,4.23-3.21l1.77.72a6.07,6.07,0,0,1-6.15,4.35c-4.26,0-6.75-2.73-6.75-7.77s2.52-8,6.66-8,6.33,2.4,6.33,7Zm-2.13-2c0-3.09-1.56-4.74-4.23-4.74s-4.47,1.92-4.53,5H784Z"/><path class="cls-8" d="M792.44,204h-2.82v-3.36h2.82Z"/><path class="cls-8" d="M795.83,196.5c0-4.89,2.61-7.86,6.81-7.86a5.67,5.67,0,0,1,6.06,5.43l-2.13.24c-.3-2.49-1.74-3.84-4-3.84-2.79,0-4.5,2.25-4.5,6s1.71,6.06,4.59,6.06c2.25,0,3.66-1.35,4.05-3.84l2,.3c-.54,3.39-2.76,5.37-6.06,5.37C798.47,204.36,795.83,201.33,795.83,196.5Z"/><path class="cls-8" d="M813.17,182.25h2.07v9.93a5.14,5.14,0,0,1,5.13-3.54c3.27,0,5,2.07,5,6.06V204h-2.1v-9.18c0-2.88-1.23-4.38-3.6-4.38-2.73,0-4.44,2.16-4.44,5.67V204h-2.07Z"/><path d="M81.93,260.79c0,3.81-2.73,6.24-7,6.24h-5.1v9H67.5V254.7h7.41C79.2,254.7,81.93,257.07,81.93,260.79Zm-2.46,0c0-2.52-1.86-4.11-4.77-4.11H69.81v8.37H74.7C77.61,265.05,79.47,263.4,79.47,260.79Z"/><path d="M96.54,269H85.65c0,3.39,1.89,5.46,4.8,5.46a4.21,4.21,0,0,0,4.23-3.21l1.77.72a6.07,6.07,0,0,1-6.15,4.35c-4.26,0-6.75-2.73-6.75-7.77s2.52-7.95,6.66-7.95,6.33,2.4,6.33,7Zm-2.13-2c0-3.09-1.56-4.74-4.23-4.74s-4.47,1.92-4.53,5h8.76Z"/><path d="M107.57,260.64a3.76,3.76,0,0,1,.58,0v2h-.24a4.39,4.39,0,0,0-3.21,1.14c-1.38,1.38-1.65,3.39-1.65,5.28V276H101V261h2v3.66C103.62,262.35,105.27,260.64,107.57,260.64Z"/><path d="M113.61,261v2.91a4.46,4.46,0,0,1,4.43-3.27,4.23,4.23,0,0,1,4.32,3.21,4.77,4.77,0,0,1,4.63-3.21c2.93,0,4.61,2,4.61,5.55V276h-2.1v-9.63c0-2.55-1.08-3.93-3.15-3.93-2.28,0-3.69,1.68-3.69,4.44V276h-2.07v-9.75c0-2.43-1.14-3.81-3.11-3.81-2.28,0-3.75,1.86-3.75,4.8V276h-2.07V261Z"/><path d="M148.44,269H137.55c0,3.39,1.89,5.46,4.8,5.46a4.19,4.19,0,0,0,4.22-3.21l1.78.72a6.08,6.08,0,0,1-6.15,4.35c-4.26,0-6.75-2.73-6.75-7.77s2.52-7.95,6.66-7.95,6.33,2.4,6.33,7Zm-2.13-2c0-3.09-1.57-4.74-4.24-4.74s-4.46,1.92-4.52,5h8.76Z"/><path d="M150.62,261h2.76v-4l2.11-.9V261h3.86v1.74h-3.86v9c0,1.77.77,2.55,2.33,2.55a6.12,6.12,0,0,0,1.53-.18V276a7.07,7.07,0,0,1-2.07.27c-2.91,0-3.9-1.77-3.9-4.44v-9.09h-2.76Z"/><path d="M161.55,261h2.76v-4l2.1-.9V261h3.87v1.74h-3.87v9c0,1.77.78,2.55,2.34,2.55a6.12,6.12,0,0,0,1.53-.18V276a7.07,7.07,0,0,1-2.07.27c-2.91,0-3.9-1.77-3.9-4.44v-9.09h-2.76Z"/><path d="M180.83,260.64a3.76,3.76,0,0,1,.58,0v2h-.25a4.41,4.41,0,0,0-3.21,1.14c-1.38,1.38-1.64,3.39-1.64,5.28V276h-2.07V261h1.95v3.66C176.88,262.35,178.53,260.64,180.83,260.64Z"/><path d="M183.29,272a3.79,3.79,0,0,1,1.83-3.36,12.9,12.9,0,0,1,4.92-1.35l3.33-.39v-.24c0-3.09-1.08-4.32-3.63-4.32-2.25,0-3.63,1.17-3.75,3.3h-2.25c.18-3.09,2.52-5,6-5,4,0,5.76,1.86,5.76,6.21v3.9A21.14,21.14,0,0,0,196,276h-2.19a20.58,20.58,0,0,1-.27-3,5.14,5.14,0,0,1-5.22,3.36C185.27,276.36,183.29,274.62,183.29,272Zm10.11-2.58v-1l-4.26.6c-2.55.36-3.66,1.23-3.66,2.88s1.26,2.64,3.27,2.64C191.54,274.62,193.4,272.52,193.4,269.46Z"/><path d="M207.32,268.5c0-4.62,2.61-7.86,6.42-7.86a4.78,4.78,0,0,1,4.71,3.09v-9.48h2.1V276h-2v-3.18a5.23,5.23,0,0,1-5.07,3.54C209.78,276.36,207.32,273.18,207.32,268.5Zm11.16.33v-.63c0-3.42-1.65-5.7-4.44-5.7s-4.5,2.25-4.5,6,1.68,6,4.47,6S218.48,272.16,218.48,268.83Z"/><path d="M238,269H227.06c0,3.39,1.89,5.46,4.8,5.46a4.21,4.21,0,0,0,4.23-3.21l1.77.72a6.07,6.07,0,0,1-6.15,4.35c-4.26,0-6.75-2.73-6.75-7.77s2.52-7.95,6.66-7.95,6.33,2.4,6.33,7Zm-2.13-2c0-3.09-1.56-4.74-4.23-4.74s-4.47,1.92-4.53,5h8.76Z"/><path d="M248.93,268.5c0-4.89,2.61-7.86,6.81-7.86a5.67,5.67,0,0,1,6.06,5.43l-2.13.24c-.3-2.49-1.74-3.84-4-3.84-2.8,0-4.5,2.25-4.5,6s1.7,6.06,4.58,6.06c2.25,0,3.66-1.35,4.05-3.84l2,.3c-.54,3.39-2.76,5.37-6.06,5.37C251.57,276.36,248.93,273.33,248.93,268.5Z"/><path d="M264.71,268.5c0-4.89,2.73-7.86,6.9-7.86s6.87,3,6.87,7.86-2.73,7.86-6.87,7.86S264.71,273.39,264.71,268.5Zm11.55,0c0-3.9-1.77-6-4.65-6s-4.68,2.13-4.68,6,1.77,6,4.68,6S276.26,272.4,276.26,268.5Z"/><path d="M284.72,261v2.91a4.47,4.47,0,0,1,4.44-3.27,4.23,4.23,0,0,1,4.32,3.21,4.76,4.76,0,0,1,4.62-3.21c2.94,0,4.62,2,4.62,5.55V276h-2.1v-9.63c0-2.55-1.08-3.93-3.15-3.93-2.28,0-3.69,1.68-3.69,4.44V276h-2.07v-9.75c0-2.43-1.14-3.81-3.12-3.81-2.28,0-3.75,1.86-3.75,4.8V276h-2.07V261Z"/><path d="M307.91,261h2v3.18a5.32,5.32,0,0,1,5.13-3.54c3.69,0,6.09,3.15,6.09,7.86s-2.55,7.86-6.24,7.86a5.06,5.06,0,0,1-4.89-3.18v8.67h-2.07Zm11,7.5c0-3.72-1.62-6-4.38-6s-4.56,2.34-4.56,5.64v.66c0,3.36,1.68,5.7,4.44,5.7S318.89,272.22,318.89,268.5Z"/><path d="M327.62,276h-2.07V254.25h2.07Z"/><path d="M345.05,269H334.16c0,3.39,1.89,5.46,4.8,5.46a4.21,4.21,0,0,0,4.23-3.21L345,272a6.07,6.07,0,0,1-6.15,4.35c-4.26,0-6.75-2.73-6.75-7.77s2.52-7.95,6.66-7.95,6.33,2.4,6.33,7Zm-2.13-2c0-3.09-1.56-4.74-4.23-4.74s-4.47,1.92-4.53,5h8.76Zm-3.33-8.46h-2l3-4.29h2.58Z"/><path d="M347.24,261H350v-4l2.1-.9V261H356v1.74H352.1v9c0,1.77.78,2.55,2.34,2.55a6.12,6.12,0,0,0,1.53-.18V276a7.07,7.07,0,0,1-2.07.27c-2.91,0-3.9-1.77-3.9-4.44v-9.09h-2.76Z"/><path d="M371.33,269H360.44c0,3.39,1.89,5.46,4.8,5.46a4.21,4.21,0,0,0,4.23-3.21l1.77.72a6.07,6.07,0,0,1-6.15,4.35c-4.26,0-6.75-2.73-6.75-7.77s2.52-7.95,6.66-7.95,6.33,2.4,6.33,7Zm-2.13-2c0-3.09-1.56-4.74-4.23-4.74s-4.47,1.92-4.53,5h8.76Z"/><path d="M382.37,260.64a3.63,3.63,0,0,1,.57,0v2h-.24a4.39,4.39,0,0,0-3.21,1.14c-1.38,1.38-1.65,3.39-1.65,5.28V276h-2.07V261h2v3.66C378.41,262.35,380.06,260.64,382.37,260.64Z"/><path d="M396.62,276h-2.07V254.25h2.07Z"/><path d="M414.05,269H403.16c0,3.39,1.89,5.46,4.8,5.46a4.21,4.21,0,0,0,4.23-3.21L414,272a6.07,6.07,0,0,1-6.15,4.35c-4.26,0-6.75-2.73-6.75-7.77s2.52-7.95,6.66-7.95,6.33,2.4,6.33,7Zm-2.13-2c0-3.09-1.56-4.74-4.23-4.74s-4.47,1.92-4.53,5h8.76Z"/><path d="M417.08,271.71l2.13-.36c.36,2.13,1.89,3.27,4.26,3.27,2.19,0,3.42-1.05,3.42-2.55s-.84-2.1-2.43-2.4l-2.91-.57c-2.49-.48-3.9-1.83-3.9-4.11,0-2.52,2.13-4.35,5.52-4.35s5.49,1.47,5.79,4.14l-2.1.45c-.3-1.83-1.59-2.88-3.78-2.88s-3.39,1-3.39,2.55c0,1.41.93,2.1,2.49,2.4l2.94.57c2.67.54,3.84,1.83,3.84,4,0,2.67-2,4.47-5.55,4.47S417.56,274.71,417.08,271.71Z"/><path d="M440,268.5c0-4.62,2.61-7.86,6.42-7.86a4.78,4.78,0,0,1,4.71,3.09v-9.48h2.1V276h-2v-3.18a5.23,5.23,0,0,1-5.07,3.54C442.43,276.36,440,273.18,440,268.5Zm11.16.33v-.63c0-3.42-1.65-5.7-4.44-5.7s-4.5,2.25-4.5,6,1.68,6,4.47,6S451.13,272.16,451.13,268.83Z"/><path d="M458.87,255h2.37v3.3h-2.37Zm.15,6h2.07v15H459Z"/><path d="M465.38,271.71l2.13-.36c.36,2.13,1.89,3.27,4.26,3.27,2.19,0,3.42-1.05,3.42-2.55s-.84-2.1-2.43-2.4l-2.91-.57c-2.49-.48-3.9-1.83-3.9-4.11,0-2.52,2.13-4.35,5.52-4.35s5.49,1.47,5.79,4.14l-2.1.45c-.3-1.83-1.59-2.88-3.78-2.88s-3.39,1-3.39,2.55c0,1.41.93,2.1,2.49,2.4l2.94.57c2.67.54,3.84,1.83,3.84,4,0,2.67-2,4.47-5.55,4.47S465.86,274.71,465.38,271.71Z"/><path d="M480.32,268.5c0-4.89,2.61-7.86,6.81-7.86a5.67,5.67,0,0,1,6.06,5.43l-2.13.24c-.3-2.49-1.74-3.84-4-3.84-2.79,0-4.5,2.25-4.5,6s1.71,6.06,4.59,6.06c2.25,0,3.66-1.35,4.05-3.84l2,.3c-.54,3.39-2.76,5.37-6.06,5.37C483,276.36,480.32,273.33,480.32,268.5Z"/><path d="M497.06,270.51V261h2.07v9.3c0,2.94,1.38,4.26,3.42,4.26,2.73,0,4.38-2.34,4.38-5.37V261H509v15h-2v-3.09a5.14,5.14,0,0,1-4.86,3.45C498.44,276.36,497.06,274.08,497.06,270.51Z"/><path d="M513.32,271.71l2.13-.36c.36,2.13,1.89,3.27,4.26,3.27,2.19,0,3.42-1.05,3.42-2.55s-.84-2.1-2.43-2.4l-2.91-.57c-2.49-.48-3.9-1.83-3.9-4.11,0-2.52,2.13-4.35,5.52-4.35s5.49,1.47,5.79,4.14l-2.1.45c-.3-1.83-1.59-2.88-3.78-2.88s-3.39,1-3.39,2.55c0,1.41.93,2.1,2.49,2.4l2.94.57c2.67.54,3.84,1.83,3.84,4,0,2.67-2,4.47-5.55,4.47S513.8,274.71,513.32,271.71Z"/><path d="M528,271.71l2.13-.36c.36,2.13,1.89,3.27,4.26,3.27,2.19,0,3.42-1.05,3.42-2.55s-.84-2.1-2.43-2.4l-2.91-.57c-2.49-.48-3.9-1.83-3.9-4.11,0-2.52,2.13-4.35,5.52-4.35s5.49,1.47,5.79,4.14l-2.1.45c-.3-1.83-1.59-2.88-3.78-2.88s-3.39,1-3.39,2.55c0,1.41.93,2.1,2.49,2.4l2.94.57c2.67.54,3.84,1.83,3.84,4,0,2.67-2,4.47-5.55,4.47S528.5,274.71,528,271.71Z"/><path d="M544.22,255h2.37v3.3h-2.37Zm.15,6h2.07v15h-2.07Z"/><path d="M550.73,268.5c0-4.89,2.73-7.86,6.9-7.86s6.87,3,6.87,7.86-2.73,7.86-6.87,7.86S550.73,273.39,550.73,268.5Zm11.55,0c0-3.9-1.77-6-4.65-6s-4.68,2.13-4.68,6,1.77,6,4.68,6S562.28,272.4,562.28,268.5Z"/><path d="M568.79,261h2v3.3a5.11,5.11,0,0,1,5.13-3.66c3.36,0,5.1,2.07,5.1,6.09V276h-2.1v-9.15c0-2.91-1.26-4.41-3.63-4.41-2.7,0-4.41,2.16-4.41,5.67V276h-2.07Z"/><path d="M584.81,271.71l2.13-.36c.36,2.13,1.89,3.27,4.26,3.27,2.19,0,3.42-1.05,3.42-2.55s-.84-2.1-2.43-2.4l-2.91-.57c-2.49-.48-3.9-1.83-3.9-4.11,0-2.52,2.13-4.35,5.52-4.35s5.49,1.47,5.79,4.14l-2.1.45c-.3-1.83-1.59-2.88-3.78-2.88s-3.39,1-3.39,2.55c0,1.41.93,2.1,2.49,2.4l2.94.57c2.67.54,3.84,1.83,3.84,4,0,2.67-2,4.47-5.55,4.47S585.29,274.71,584.81,271.71Z"/><path d="M607.7,268.5c0-4.62,2.61-7.86,6.42-7.86a4.78,4.78,0,0,1,4.71,3.09v-9.48h2.1V276h-2v-3.18a5.23,5.23,0,0,1-5.07,3.54C610.16,276.36,607.7,273.18,607.7,268.5Zm11.16.33v-.63c0-3.42-1.65-5.7-4.44-5.7s-4.5,2.25-4.5,6,1.68,6,4.47,6S618.86,272.16,618.86,268.83Z"/><path d="M626,260.94a2.57,2.57,0,0,0,1.59-2.82v-.06h-1.5V254.7h2.85v3.18c0,2.22-.57,3.3-2.37,4.14Z"/><path d="M632.24,272a3.79,3.79,0,0,1,1.83-3.36,12.9,12.9,0,0,1,4.92-1.35l3.33-.39v-.24c0-3.09-1.08-4.32-3.63-4.32-2.25,0-3.63,1.17-3.75,3.3h-2.25c.18-3.09,2.52-5,6-5,4,0,5.76,1.86,5.76,6.21v3.9a21.14,21.14,0,0,0,.48,5.25h-2.19a20.58,20.58,0,0,1-.27-3,5.14,5.14,0,0,1-5.22,3.36C634.22,276.36,632.24,274.62,632.24,272Zm10.11-2.58v-1l-4.26.6c-2.55.36-3.66,1.23-3.66,2.88s1.26,2.64,3.27,2.64C640.49,274.62,642.35,272.52,642.35,269.46Z"/><path d="M649.28,270.51V261h2.07v9.3c0,2.94,1.38,4.26,3.42,4.26,2.73,0,4.38-2.34,4.38-5.37V261h2.1v15h-2v-3.09a5.14,5.14,0,0,1-4.86,3.45C650.66,276.36,649.28,274.08,649.28,270.51Z"/><path d="M663.5,281.88v-1.8c.78.06,1.14.09,1.44.09,1.2,0,1.89-.57,1.89-2.61V261h2.1v16.8c0,2.34-1,4.26-3.69,4.26A8.15,8.15,0,0,1,663.5,281.88ZM666.68,255h2.37v3.3h-2.37Z"/><path d="M673.19,268.5c0-4.89,2.73-7.86,6.9-7.86s6.87,3,6.87,7.86-2.73,7.86-6.87,7.86S673.19,273.39,673.19,268.5Zm11.55,0c0-3.9-1.77-6-4.65-6s-4.68,2.13-4.68,6,1.77,6,4.68,6S684.74,272.4,684.74,268.5Z"/><path d="M690.8,270.51V261h2.07v9.3c0,2.94,1.38,4.26,3.42,4.26,2.73,0,4.38-2.34,4.38-5.37V261h2.1v15h-2v-3.09a5.14,5.14,0,0,1-4.86,3.45C692.18,276.36,690.8,274.08,690.8,270.51Z"/><path d="M715.07,260.64a3.63,3.63,0,0,1,.57,0v2h-.24a4.39,4.39,0,0,0-3.21,1.14c-1.38,1.38-1.65,3.39-1.65,5.28V276h-2.07V261h1.95v3.66C711.11,262.35,712.76,260.64,715.07,260.64Z"/><path d="M717.53,268.5c0-4.62,2.61-7.86,6.42-7.86a4.78,4.78,0,0,1,4.71,3.09v-9.48h2.1V276h-2v-3.18a5.23,5.23,0,0,1-5.07,3.54C720,276.36,717.53,273.18,717.53,268.5Zm11.16.33v-.63c0-3.42-1.65-5.7-4.44-5.7s-4.5,2.25-4.5,6,1.68,6,4.47,6S728.69,272.16,728.69,268.83Z"/><path d="M735.83,260.94a2.57,2.57,0,0,0,1.59-2.82v-.06h-1.5V254.7h2.85v3.18c0,2.22-.57,3.3-2.37,4.14Z"/><path d="M743.9,254.25H746v9.93a5.14,5.14,0,0,1,5.13-3.54c3.27,0,5,2.07,5,6.06V276H754v-9.18c0-2.88-1.23-4.38-3.6-4.38-2.73,0-4.44,2.16-4.44,5.67V276H743.9Z"/><path d="M760.88,270.51V261H763v9.3c0,2.94,1.38,4.26,3.42,4.26,2.73,0,4.38-2.34,4.38-5.37V261h2.1v15h-2v-3.09a5.14,5.14,0,0,1-4.86,3.45C762.26,276.36,760.88,274.08,760.88,270.51Z"/><path d="M778.4,255h2.37v3.3H778.4Zm.15,6h2.07v15h-2.07Z"/><path d="M796.4,264.36h-2.82V261h2.82Zm0,11.64h-2.82v-3.36h2.82Z"/><path d="M91,301.65a2.37,2.37,0,1,1,4.74,0,2.37,2.37,0,0,1-4.74,0Z"/><path d="M121.29,305H110.4c0,3.39,1.89,5.46,4.8,5.46a4.21,4.21,0,0,0,4.23-3.21l1.77.72a6.07,6.07,0,0,1-6.15,4.35c-4.26,0-6.75-2.73-6.75-7.77s2.52-7.95,6.66-7.95,6.33,2.4,6.33,7Zm-2.13-2c0-3.09-1.56-4.74-4.23-4.74s-4.47,1.92-4.53,5h8.76Zm-3.33-8.46h-2l3-4.29h2.58Z"/><path d="M123.06,297h2.28l3.72,10.62c.27.84.48,1.53.63,2.22h.09c.15-.69.39-1.38.66-2.22L134.16,297h2.28l-5.55,15h-2.28Z"/><path d="M138.06,308a3.79,3.79,0,0,1,1.83-3.36,12.9,12.9,0,0,1,4.92-1.35l3.32-.39v-.24c0-3.09-1.07-4.32-3.63-4.32-2.24,0-3.62,1.17-3.74,3.3h-2.25c.18-3.09,2.52-5,6-5,4,0,5.76,1.86,5.76,6.21v3.9a21.23,21.23,0,0,0,.47,5.25h-2.18a19.17,19.17,0,0,1-.28-3,5.14,5.14,0,0,1-5.22,3.36C140,312.36,138.06,310.62,138.06,308Zm10.1-2.58v-1l-4.25.6c-2.55.36-3.67,1.23-3.67,2.88s1.27,2.64,3.28,2.64C146.31,310.62,148.16,308.52,148.16,305.46Z"/><path d="M157.76,312H155.7V290.25h2.06Z"/><path d="M163.16,306.51V297h2.08v9.3c0,2.94,1.37,4.26,3.42,4.26,2.72,0,4.37-2.34,4.37-5.37V297h2.1v15h-2v-3.09a5.17,5.17,0,0,1-4.87,3.45C164.55,312.36,163.16,310.08,163.16,306.51Z"/><path d="M192.41,305H181.53c0,3.39,1.88,5.46,4.79,5.46a4.21,4.21,0,0,0,4.23-3.21l1.77.72a6.07,6.07,0,0,1-6.15,4.35c-4.26,0-6.75-2.73-6.75-7.77s2.53-7.95,6.66-7.95,6.33,2.4,6.33,7Zm-2.13-2c0-3.09-1.56-4.74-4.23-4.74s-4.47,1.92-4.52,5h8.75Z"/><path d="M203.45,296.64a3.63,3.63,0,0,1,.57,0v2h-.24a4.39,4.39,0,0,0-3.21,1.14c-1.38,1.38-1.65,3.39-1.65,5.28V312h-2.07V297h2v3.66C199.49,298.35,201.14,296.64,203.45,296.64Z"/><path d="M217.7,312h-2.07V290.25h2.07Z"/><path d="M235.13,305H224.24c0,3.39,1.89,5.46,4.8,5.46a4.21,4.21,0,0,0,4.23-3.21L235,308a6.07,6.07,0,0,1-6.15,4.35c-4.26,0-6.74-2.73-6.74-7.77s2.51-7.95,6.65-7.95,6.33,2.4,6.33,7Zm-2.13-2c0-3.09-1.56-4.74-4.23-4.74s-4.47,1.92-4.53,5H233Z"/><path d="M238.16,307.71l2.13-.36c.36,2.13,1.89,3.27,4.26,3.27,2.19,0,3.42-1.05,3.42-2.55s-.84-2.1-2.43-2.4l-2.91-.57c-2.49-.48-3.9-1.83-3.9-4.11,0-2.52,2.13-4.35,5.52-4.35s5.49,1.47,5.79,4.14l-2.1.45c-.3-1.83-1.59-2.88-3.78-2.88s-3.39,1-3.39,2.55c0,1.41.93,2.1,2.49,2.4l2.94.57c2.67.54,3.84,1.83,3.84,4,0,2.67-2,4.47-5.55,4.47S238.64,310.71,238.16,307.71Z"/><path d="M261.05,307.71l2.13-.36c.36,2.13,1.89,3.27,4.26,3.27,2.19,0,3.42-1.05,3.42-2.55s-.84-2.1-2.43-2.4l-2.91-.57c-2.49-.48-3.9-1.83-3.9-4.11,0-2.52,2.13-4.35,5.52-4.35s5.49,1.47,5.79,4.14l-2.1.45c-.3-1.83-1.59-2.88-3.78-2.88s-3.39,1-3.39,2.55c0,1.41.93,2.1,2.49,2.4l2.94.57c2.67.54,3.84,1.83,3.84,4,0,2.67-2,4.47-5.55,4.47S261.53,310.71,261.05,307.71Z"/><path d="M276,304.5c0-4.89,2.61-7.86,6.81-7.86a5.67,5.67,0,0,1,6.06,5.43l-2.13.24c-.3-2.49-1.74-3.84-4-3.84-2.79,0-4.5,2.25-4.5,6s1.71,6.06,4.59,6.06c2.25,0,3.66-1.35,4.05-3.84l2,.3c-.54,3.39-2.76,5.37-6.06,5.37C278.63,312.36,276,309.33,276,304.5Z"/><path d="M304.76,305H293.87c0,3.39,1.89,5.46,4.8,5.46a4.21,4.21,0,0,0,4.23-3.21l1.77.72a6.07,6.07,0,0,1-6.15,4.35c-4.26,0-6.75-2.73-6.75-7.77s2.52-7.95,6.66-7.95,6.33,2.4,6.33,7Zm-2.13-2c0-3.09-1.56-4.74-4.23-4.74s-4.47,1.92-4.53,5h8.76Zm-3.33-8.46h-2l3-4.29h2.58Z"/><path d="M309.2,297h2v3.3a5.11,5.11,0,0,1,5.13-3.66c3.36,0,5.1,2.07,5.1,6.09V312h-2.1v-9.15c0-2.91-1.26-4.41-3.63-4.41-2.7,0-4.41,2.16-4.41,5.67V312H309.2Z"/><path d="M325.28,308a3.79,3.79,0,0,1,1.83-3.36,12.9,12.9,0,0,1,4.92-1.35l3.33-.39v-.24c0-3.09-1.08-4.32-3.63-4.32-2.25,0-3.63,1.17-3.75,3.3h-2.25c.18-3.09,2.52-5,6-5,4,0,5.76,1.86,5.76,6.21v3.9a21.14,21.14,0,0,0,.48,5.25h-2.19a20.58,20.58,0,0,1-.27-3,5.14,5.14,0,0,1-5.22,3.36C327.26,312.36,325.28,310.62,325.28,308Zm10.11-2.58v-1l-4.26.6c-2.55.36-3.66,1.23-3.66,2.88s1.26,2.64,3.27,2.64C333.53,310.62,335.39,308.52,335.39,305.46Z"/><path d="M349.37,296.64a3.63,3.63,0,0,1,.57,0v2h-.24a4.39,4.39,0,0,0-3.21,1.14c-1.38,1.38-1.65,3.39-1.65,5.28V312h-2.07V297h2v3.66C345.41,298.35,347.06,296.64,349.37,296.64Z"/><path d="M353.3,291h2.37v3.3H353.3Zm.15,6h2.07v15h-2.07Z"/><path d="M359.81,304.5c0-4.89,2.73-7.86,6.9-7.86s6.87,3,6.87,7.86-2.73,7.86-6.87,7.86S359.81,309.39,359.81,304.5Zm11.55,0c0-3.9-1.77-6-4.65-6s-4.68,2.13-4.68,6,1.77,6,4.68,6S371.36,308.4,371.36,304.5Z"/><path d="M376.46,307.71l2.13-.36c.36,2.13,1.89,3.27,4.26,3.27,2.19,0,3.42-1.05,3.42-2.55s-.84-2.1-2.43-2.4l-2.91-.57c-2.49-.48-3.9-1.83-3.9-4.11,0-2.52,2.13-4.35,5.52-4.35s5.49,1.47,5.79,4.14l-2.1.45c-.3-1.83-1.59-2.88-3.78-2.88s-3.39,1-3.39,2.55c0,1.41.93,2.1,2.49,2.4l2.94.57c2.67.54,3.84,1.83,3.84,4,0,2.67-2,4.47-5.55,4.47S376.94,310.71,376.46,307.71Z"/><path d="M91,337.65a2.37,2.37,0,1,1,4.74,0,2.37,2.37,0,0,1-4.74,0Z"/><path d="M108.36,344a3.79,3.79,0,0,1,1.83-3.36,12.9,12.9,0,0,1,4.92-1.35l3.33-.39v-.24c0-3.09-1.08-4.32-3.63-4.32-2.25,0-3.63,1.17-3.75,3.3h-2.25c.18-3.09,2.52-5,6-5,4,0,5.76,1.86,5.76,6.21v3.9A21.14,21.14,0,0,0,121,348h-2.19a20.58,20.58,0,0,1-.27-3,5.14,5.14,0,0,1-5.22,3.36C110.34,348.36,108.36,346.62,108.36,344Zm10.11-2.58v-1l-4.26.6c-2.55.36-3.66,1.23-3.66,2.88s1.26,2.64,3.27,2.64C116.61,346.62,118.47,344.52,118.47,341.46Z"/><path d="M122.4,353.88v-1.8c.78.06,1.14.09,1.44.09,1.2,0,1.89-.57,1.89-2.61V333h2.1v16.8c0,2.34-1,4.26-3.69,4.26A8.15,8.15,0,0,1,122.4,353.88ZM125.58,327H128v3.3h-2.37Z"/><path d="M132.08,340.5c0-4.89,2.74-7.86,6.91-7.86s6.86,3,6.86,7.86-2.73,7.86-6.86,7.86S132.08,345.39,132.08,340.5Zm11.55,0c0-3.9-1.77-6-4.64-6s-4.68,2.13-4.68,6,1.76,6,4.68,6S143.63,344.4,143.63,340.5Z"/><path d="M149.7,342.51V333h2.07v9.3c0,2.94,1.38,4.26,3.42,4.26,2.72,0,4.38-2.34,4.38-5.37V333h2.09v15h-2v-3.09a5.16,5.16,0,0,1-4.87,3.45C151.08,348.36,149.7,346.08,149.7,342.51Z"/><path d="M165.15,333h2.76v-4l2.1-.9V333h3.86v1.74H170v9c0,1.77.77,2.55,2.34,2.55a6,6,0,0,0,1.52-.18V348a7,7,0,0,1-2.06.27c-2.91,0-3.9-1.77-3.9-4.44v-9.09h-2.76Z"/><path d="M189.2,341H178.32c0,3.39,1.88,5.46,4.79,5.46a4.21,4.21,0,0,0,4.23-3.21l1.77.72a6.07,6.07,0,0,1-6.15,4.35c-4.26,0-6.74-2.73-6.74-7.77s2.52-7.95,6.65-7.95,6.33,2.4,6.33,7Zm-2.13-2c0-3.09-1.56-4.74-4.23-4.74s-4.47,1.92-4.52,5h8.75Z"/><path d="M200.24,332.64a3.63,3.63,0,0,1,.57,0v2h-.24a4.39,4.39,0,0,0-3.21,1.14c-1.38,1.38-1.65,3.39-1.65,5.28V348h-2.07V333h2v3.66C196.28,334.35,197.93,332.64,200.24,332.64Z"/><path d="M210.86,340.5c0-4.62,2.61-7.86,6.42-7.86a4.78,4.78,0,0,1,4.71,3.09v-9.48h2.1V348h-2v-3.18a5.23,5.23,0,0,1-5.07,3.54C213.32,348.36,210.86,345.18,210.86,340.5Zm11.16.33v-.63c0-3.42-1.65-5.7-4.44-5.7s-4.5,2.25-4.5,6,1.68,6,4.47,6S222,344.16,222,340.83Z"/><path d="M241.49,341H230.6c0,3.39,1.89,5.46,4.8,5.46a4.21,4.21,0,0,0,4.23-3.21l1.77.72a6.07,6.07,0,0,1-6.15,4.35c-4.26,0-6.75-2.73-6.75-7.77s2.52-7.95,6.66-7.95,6.33,2.4,6.33,7Zm-2.13-2c0-3.09-1.56-4.74-4.23-4.74s-4.47,1.92-4.53,5h8.76Z"/><path d="M244.52,343.71l2.14-.36c.35,2.13,1.88,3.27,4.25,3.27,2.19,0,3.42-1.05,3.42-2.55s-.84-2.1-2.43-2.4L249,341.1c-2.49-.48-3.9-1.83-3.9-4.11,0-2.52,2.13-4.35,5.52-4.35s5.49,1.47,5.79,4.14l-2.1.45c-.3-1.83-1.59-2.88-3.78-2.88s-3.39,1-3.39,2.55c0,1.41.93,2.1,2.49,2.4l2.94.57c2.67.54,3.84,1.83,3.84,4,0,2.67-2,4.47-5.55,4.47S245,346.71,244.52,343.71Z"/><path d="M267.41,340.5c0-4.89,2.73-7.86,6.9-7.86s6.87,3,6.87,7.86-2.73,7.86-6.87,7.86S267.41,345.39,267.41,340.5Zm11.55,0c0-3.9-1.77-6-4.65-6s-4.68,2.13-4.68,6,1.77,6,4.68,6S279,344.4,279,340.5Z"/><path d="M287.6,345l-.39,3h-1.59V326.25h2.07v9.81a5.2,5.2,0,0,1,5-3.42c3.69,0,6.09,3.21,6.09,7.86s-2.46,7.86-6.24,7.86A5.2,5.2,0,0,1,287.6,345Zm9-4.5c0-3.63-1.62-6-4.5-6s-4.44,2.25-4.44,5.7v.72c0,3.33,1.68,5.58,4.38,5.58S296.6,344.16,296.6,340.5Z"/><path d="M301.7,343.71l2.13-.36c.36,2.13,1.89,3.27,4.26,3.27,2.19,0,3.42-1.05,3.42-2.55s-.84-2.1-2.43-2.4l-2.91-.57c-2.49-.48-3.9-1.83-3.9-4.11,0-2.52,2.13-4.35,5.52-4.35s5.49,1.47,5.79,4.14l-2.1.45c-.3-1.83-1.59-2.88-3.78-2.88s-3.39,1-3.39,2.55c0,1.41.93,2.1,2.49,2.4l2.94.57c2.67.54,3.84,1.83,3.84,4,0,2.67-2,4.47-5.55,4.47S302.18,346.71,301.7,343.71Z"/><path d="M329.63,341H318.74c0,3.39,1.89,5.46,4.8,5.46a4.21,4.21,0,0,0,4.23-3.21l1.77.72a6.07,6.07,0,0,1-6.15,4.35c-4.26,0-6.75-2.73-6.75-7.77s2.52-7.95,6.66-7.95,6.33,2.4,6.33,7Zm-2.13-2c0-3.09-1.56-4.74-4.23-4.74s-4.47,1.92-4.53,5h8.76Z"/><path d="M340.67,332.64a3.63,3.63,0,0,1,.57,0v2H341a4.39,4.39,0,0,0-3.21,1.14c-1.38,1.38-1.65,3.39-1.65,5.28V348h-2.07V333H336v3.66C336.71,334.35,338.36,332.64,340.67,332.64Z"/><path d="M342.86,333h2.28l3.72,10.62c.27.84.48,1.53.63,2.22h.09c.15-.69.39-1.38.66-2.22L354,333h2.28l-5.55,15h-2.28Z"/><path d="M357.86,344a3.79,3.79,0,0,1,1.83-3.36,12.9,12.9,0,0,1,4.92-1.35l3.33-.39v-.24c0-3.09-1.08-4.32-3.63-4.32-2.25,0-3.63,1.17-3.75,3.3h-2.25c.18-3.09,2.52-5,6-5,4,0,5.76,1.86,5.76,6.21v3.9a21.14,21.14,0,0,0,.48,5.25h-2.19a20.58,20.58,0,0,1-.27-3,5.14,5.14,0,0,1-5.22,3.36C359.84,348.36,357.86,346.62,357.86,344ZM368,341.46v-1l-4.26.6c-2.55.36-3.66,1.23-3.66,2.88s1.26,2.64,3.27,2.64C366.11,346.62,368,344.52,368,341.46Z"/><path d="M373.1,333h2.76v-4l2.1-.9V333h3.87v1.74H378v9c0,1.77.78,2.55,2.34,2.55a6.12,6.12,0,0,0,1.53-.18V348a7.07,7.07,0,0,1-2.07.27c-2.91,0-3.9-1.77-3.9-4.44v-9.09H373.1Z"/><path d="M385.64,327H388v3.3h-2.37Zm.15,6h2.07v15h-2.07Z"/><path d="M392.15,340.5c0-4.89,2.73-7.86,6.9-7.86s6.87,3,6.87,7.86-2.73,7.86-6.87,7.86S392.15,345.39,392.15,340.5Zm11.55,0c0-3.9-1.77-6-4.65-6s-4.68,2.13-4.68,6,1.77,6,4.68,6S403.7,344.4,403.7,340.5Z"/><path d="M410.21,333h2v3.3a5.11,5.11,0,0,1,5.13-3.66c3.36,0,5.1,2.07,5.1,6.09V348h-2.1v-9.15c0-2.91-1.26-4.41-3.63-4.41-2.7,0-4.41,2.16-4.41,5.67V348h-2.07Z"/><path d="M426.23,343.71l2.13-.36c.36,2.13,1.89,3.27,4.26,3.27,2.19,0,3.42-1.05,3.42-2.55s-.84-2.1-2.43-2.4l-2.91-.57c-2.49-.48-3.9-1.83-3.9-4.11,0-2.52,2.13-4.35,5.52-4.35s5.49,1.47,5.79,4.14l-2.1.45c-.3-1.83-1.59-2.88-3.78-2.88s-3.39,1-3.39,2.55c0,1.41.93,2.1,2.49,2.4l2.94.57c2.67.54,3.84,1.83,3.84,4,0,2.67-2,4.47-5.55,4.47S426.71,346.71,426.23,343.71Z"/><path d="M441.5,350.88a2.55,2.55,0,0,0,1.59-2.79V348h-1.5v-3.36h2.85v3.18c0,2.22-.57,3.3-2.37,4.14Z"/><path d="M456,340.5c0-4.62,2.61-7.86,6.42-7.86a4.78,4.78,0,0,1,4.71,3.09v-9.48h2.1V348h-2v-3.18a5.23,5.23,0,0,1-5.07,3.54C458.42,348.36,456,345.18,456,340.5Zm11.16.33v-.63c0-3.42-1.65-5.7-4.44-5.7s-4.5,2.25-4.5,6,1.68,6,4.47,6S467.12,344.16,467.12,340.83Z"/><path d="M486.59,341H475.7c0,3.39,1.89,5.46,4.8,5.46a4.21,4.21,0,0,0,4.23-3.21l1.77.72a6.07,6.07,0,0,1-6.15,4.35c-4.26,0-6.75-2.73-6.75-7.77s2.52-7.95,6.66-7.95,6.33,2.4,6.33,7Zm-2.13-2c0-3.09-1.56-4.74-4.23-4.74s-4.47,1.92-4.53,5h8.76Z"/><path d="M489.62,343.71l2.13-.36c.36,2.13,1.89,3.27,4.26,3.27,2.19,0,3.42-1.05,3.42-2.55s-.84-2.1-2.43-2.4l-2.91-.57c-2.49-.48-3.9-1.83-3.9-4.11,0-2.52,2.13-4.35,5.52-4.35s5.49,1.47,5.79,4.14l-2.1.45c-.3-1.83-1.59-2.88-3.78-2.88s-3.39,1-3.39,2.55c0,1.41.93,2.1,2.49,2.4l2.94.57c2.67.54,3.84,1.83,3.84,4,0,2.67-2,4.47-5.55,4.47S490.1,346.71,489.62,343.71Z"/><path d="M520.52,332.64a3.63,3.63,0,0,1,.57,0v2h-.24a4.39,4.39,0,0,0-3.21,1.14c-1.38,1.38-1.65,3.39-1.65,5.28V348h-2.07V333h2v3.66C516.56,334.35,518.21,332.64,520.52,332.64Z"/><path d="M536,341H525.08c0,3.39,1.89,5.46,4.8,5.46a4.21,4.21,0,0,0,4.23-3.21l1.77.72a6.07,6.07,0,0,1-6.15,4.35c-4.26,0-6.75-2.73-6.75-7.77s2.52-7.95,6.66-7.95,6.33,2.4,6.33,7Zm-2.13-2c0-3.09-1.56-4.74-4.23-4.74s-4.47,1.92-4.53,5h8.76Z"/><path d="M542.36,333v2.91a4.47,4.47,0,0,1,4.44-3.27,4.23,4.23,0,0,1,4.32,3.21,4.76,4.76,0,0,1,4.62-3.21c2.94,0,4.62,2,4.62,5.55V348h-2.1v-9.63c0-2.55-1.08-3.93-3.15-3.93-2.28,0-3.69,1.68-3.69,4.44V348h-2.07v-9.75c0-2.43-1.14-3.81-3.12-3.81-2.28,0-3.75,1.86-3.75,4.8V348h-2.07V333Z"/><path d="M564.26,344a3.79,3.79,0,0,1,1.83-3.36,12.9,12.9,0,0,1,4.92-1.35l3.33-.39v-.24c0-3.09-1.08-4.32-3.63-4.32-2.25,0-3.63,1.17-3.75,3.3h-2.25c.18-3.09,2.52-5,6-5,4,0,5.76,1.86,5.76,6.21v3.9a21.14,21.14,0,0,0,.48,5.25h-2.19a20.58,20.58,0,0,1-.27-3,5.14,5.14,0,0,1-5.22,3.36C566.24,348.36,564.26,346.62,564.26,344Zm10.11-2.58v-1l-4.26.6c-2.55.36-3.66,1.23-3.66,2.88s1.26,2.64,3.27,2.64C572.51,346.62,574.37,344.52,574.37,341.46Z"/><path d="M588.35,332.64a3.63,3.63,0,0,1,.57,0v2h-.24a4.39,4.39,0,0,0-3.21,1.14c-1.38,1.38-1.65,3.39-1.65,5.28V348h-2.07V333h2v3.66C584.39,334.35,586,332.64,588.35,332.64Z"/><path d="M601.94,345a5.1,5.1,0,0,1-5,3.36c-3.69,0-6.18-3.09-6.18-7.86s2.67-7.86,6.39-7.86a4.81,4.81,0,0,1,4.83,3.18l.45-2.82H604v20.85h-2.1Zm0-4.11v-.75c0-3.36-1.65-5.64-4.47-5.64s-4.47,2.25-4.47,6,1.65,6,4.44,6S602,344.22,602,340.89Z"/><path d="M609.26,342.51V333h2.07v9.3c0,2.94,1.38,4.26,3.42,4.26,2.73,0,4.38-2.34,4.38-5.37V333h2.1v15h-2v-3.09a5.14,5.14,0,0,1-4.86,3.45C610.64,348.36,609.26,346.08,609.26,342.51Z"/><path d="M638.51,341H627.62c0,3.39,1.89,5.46,4.8,5.46a4.21,4.21,0,0,0,4.23-3.21l1.77.72a6.07,6.07,0,0,1-6.15,4.35c-4.26,0-6.75-2.73-6.75-7.77s2.52-7.95,6.66-7.95,6.33,2.4,6.33,7Zm-2.13-2c0-3.09-1.56-4.74-4.23-4.74s-4.47,1.92-4.53,5h8.76Z"/><path d="M641.54,343.71l2.13-.36c.36,2.13,1.89,3.27,4.26,3.27,2.19,0,3.42-1.05,3.42-2.55s-.84-2.1-2.43-2.4L646,341.1c-2.49-.48-3.9-1.83-3.9-4.11,0-2.52,2.13-4.35,5.52-4.35s5.49,1.47,5.79,4.14l-2.1.45c-.3-1.83-1.59-2.88-3.78-2.88s-3.39,1-3.39,2.55c0,1.41.93,2.1,2.49,2.4l2.94.57c2.67.54,3.84,1.83,3.84,4,0,2.67-2,4.47-5.55,4.47S642,346.71,641.54,343.71Z"/><path d="M656.84,350.88a2.55,2.55,0,0,0,1.59-2.79V348h-1.5v-3.36h2.85v3.18c0,2.22-.57,3.3-2.37,4.14Z"/><path d="M671.3,340.5c0-4.62,2.61-7.86,6.42-7.86a4.78,4.78,0,0,1,4.71,3.09v-9.48h2.1V348h-2v-3.18a5.23,5.23,0,0,1-5.07,3.54C673.76,348.36,671.3,345.18,671.3,340.5Zm11.16.33v-.63c0-3.42-1.65-5.7-4.44-5.7s-4.5,2.25-4.5,6,1.68,6,4.47,6S682.46,344.16,682.46,340.83Z"/><path d="M701.93,341H691c0,3.39,1.89,5.46,4.8,5.46a4.21,4.21,0,0,0,4.23-3.21l1.77.72a6.07,6.07,0,0,1-6.15,4.35c-4.26,0-6.75-2.73-6.75-7.77s2.52-7.95,6.66-7.95,6.33,2.4,6.33,7Zm-2.13-2c0-3.09-1.56-4.74-4.23-4.74s-4.47,1.92-4.53,5h8.76Z"/><path d="M705,343.71l2.13-.36c.36,2.13,1.89,3.27,4.26,3.27,2.19,0,3.42-1.05,3.42-2.55s-.84-2.1-2.43-2.4l-2.91-.57c-2.49-.48-3.9-1.83-3.9-4.11,0-2.52,2.13-4.35,5.52-4.35s5.49,1.47,5.79,4.14l-2.1.45c-.3-1.83-1.59-2.88-3.78-2.88s-3.39,1-3.39,2.55c0,1.41.93,2.1,2.49,2.4l2.94.57c2.67.54,3.84,1.83,3.84,4,0,2.67-2,4.47-5.55,4.47S705.44,346.71,705,343.71Z"/><path d="M729.26,333h2v3.18a5.32,5.32,0,0,1,5.13-3.54c3.69,0,6.09,3.15,6.09,7.86s-2.55,7.86-6.24,7.86a5.06,5.06,0,0,1-4.89-3.18v8.67h-2.07Zm11,7.5c0-3.72-1.62-6-4.38-6s-4.56,2.34-4.56,5.64v.66c0,3.36,1.68,5.7,4.44,5.7S740.24,344.22,740.24,340.5Z"/><path d="M753.35,332.64a3.63,3.63,0,0,1,.57,0v2h-.24a4.39,4.39,0,0,0-3.21,1.14c-1.38,1.38-1.65,3.39-1.65,5.28V348h-2.07V333h2v3.66C749.39,334.35,751,332.64,753.35,332.64Z"/><path d="M755.78,340.5c0-4.89,2.73-7.86,6.9-7.86s6.87,3,6.87,7.86-2.73,7.86-6.87,7.86S755.78,345.39,755.78,340.5Zm11.55,0c0-3.9-1.77-6-4.65-6s-4.68,2.13-4.68,6,1.77,6,4.68,6S767.33,344.4,767.33,340.5Z"/><path d="M773.84,333h2v3.18a5.32,5.32,0,0,1,5.13-3.54c3.69,0,6.09,3.15,6.09,7.86s-2.55,7.86-6.24,7.86a5.06,5.06,0,0,1-4.89-3.18v8.67h-2.07Zm11,7.5c0-3.72-1.62-6-4.38-6s-4.56,2.34-4.56,5.64v.66c0,3.36,1.68,5.7,4.44,5.7S784.82,344.22,784.82,340.5Z"/><path d="M789.92,340.5c0-4.89,2.73-7.86,6.9-7.86s6.87,3,6.87,7.86-2.73,7.86-6.87,7.86S789.92,345.39,789.92,340.5Zm11.55,0c0-3.9-1.77-6-4.65-6s-4.68,2.13-4.68,6,1.77,6,4.68,6S801.47,344.4,801.47,340.5Z"/><path d="M806.57,343.71l2.13-.36c.36,2.13,1.89,3.27,4.26,3.27,2.19,0,3.42-1.05,3.42-2.55s-.85-2.1-2.43-2.4L811,341.1c-2.49-.48-3.9-1.83-3.9-4.11,0-2.52,2.13-4.35,5.52-4.35s5.49,1.47,5.79,4.14l-2.1.45c-.3-1.83-1.59-2.88-3.78-2.88s-3.39,1-3.39,2.55c0,1.41.93,2.1,2.49,2.4l2.94.57c2.67.54,3.84,1.83,3.84,4,0,2.67-2,4.47-5.55,4.47S807.05,346.71,806.57,343.71Z"/><path d="M822.77,327h2.36v3.3h-2.36Zm.14,6H825v15h-2.08Z"/><path d="M828.47,333h2.76v-4l2.1-.9V333h3.87v1.74h-3.87v9c0,1.77.78,2.55,2.34,2.55a6.12,6.12,0,0,0,1.53-.18V348a7.07,7.07,0,0,1-2.07.27c-2.91,0-3.9-1.77-3.9-4.44v-9.09h-2.76Z"/><path d="M841,327h2.36v3.3H841Zm.15,6h2.07v15h-2.07Z"/><path d="M847.51,340.5c0-4.89,2.73-7.86,6.9-7.86s6.87,3,6.87,7.86-2.73,7.86-6.87,7.86S847.51,345.39,847.51,340.5Zm11.55,0c0-3.9-1.77-6-4.65-6s-4.67,2.13-4.67,6,1.76,6,4.67,6S859.06,344.4,859.06,340.5Z"/><path d="M865.57,333h2v3.3a5.11,5.11,0,0,1,5.13-3.66c3.36,0,5.1,2.07,5.1,6.09V348h-2.1v-9.15c0-2.91-1.26-4.41-3.63-4.41-2.7,0-4.41,2.16-4.41,5.67V348h-2.07Z"/><path d="M881.59,343.71l2.14-.36c.35,2.13,1.88,3.27,4.26,3.27,2.18,0,3.42-1.05,3.42-2.55s-.85-2.1-2.44-2.4l-2.9-.57c-2.5-.48-3.91-1.83-3.91-4.11,0-2.52,2.13-4.35,5.52-4.35s5.49,1.47,5.79,4.14l-2.1.45c-.3-1.83-1.59-2.88-3.78-2.88s-3.39,1-3.39,2.55c0,1.41.93,2.1,2.5,2.4l2.93.57c2.67.54,3.84,1.83,3.84,4,0,2.67-2,4.47-5.55,4.47S882.07,346.71,881.59,343.71Z"/><path d="M91,373.65a2.37,2.37,0,1,1,4.74,0,2.37,2.37,0,0,1-4.74,0Z"/><path d="M116.31,368.64a3.63,3.63,0,0,1,.57,0v2h-.24a4.39,4.39,0,0,0-3.21,1.14c-1.38,1.38-1.65,3.39-1.65,5.28V384h-2.07V369h2v3.66C112.35,370.35,114,368.64,116.31,368.64Z"/><path d="M131.76,377H120.87c0,3.39,1.89,5.46,4.8,5.46a4.21,4.21,0,0,0,4.23-3.21l1.77.72a6.07,6.07,0,0,1-6.15,4.35c-4.26,0-6.75-2.73-6.75-7.77s2.52-7.95,6.66-7.95,6.33,2.4,6.33,7Zm-2.13-2c0-3.09-1.56-4.74-4.23-4.74s-4.47,1.92-4.53,5h8.76Z"/><path d="M134.79,376.5c0-4.89,2.61-7.86,6.81-7.86a5.68,5.68,0,0,1,6.06,5.43l-2.13.24c-.3-2.49-1.75-3.84-4-3.84-2.78,0-4.49,2.25-4.49,6s1.71,6.06,4.59,6.06c2.25,0,3.65-1.35,4.05-3.84l2,.3c-.55,3.39-2.76,5.37-6.06,5.37C137.43,384.36,134.79,381.33,134.79,376.5Z"/><path d="M151.53,378.51V369h2.07v9.3c0,2.94,1.38,4.26,3.42,4.26,2.72,0,4.38-2.34,4.38-5.37V369h2.09v15h-2v-3.09a5.15,5.15,0,0,1-4.86,3.45C152.91,384.36,151.53,382.08,151.53,378.51Z"/><path d="M180.78,377H169.89c0,3.39,1.89,5.46,4.8,5.46a4.21,4.21,0,0,0,4.22-3.21l1.78.72a6.08,6.08,0,0,1-6.16,4.35c-4.25,0-6.74-2.73-6.74-7.77s2.52-7.95,6.66-7.95,6.33,2.4,6.33,7Zm-2.13-2c0-3.09-1.57-4.74-4.24-4.74s-4.46,1.92-4.52,5h8.76Z"/><path d="M185.07,363h2.36v3.3h-2.36Zm.14,6h2.07v15h-2.07Z"/><path d="M195.2,384h-2.07V362.25h2.07Z"/><path d="M203.27,384H201.2V362.25h2.07Z"/><path d="M209,363h2.37v3.3H209Zm.15,6h2.07v15h-2.07Z"/><path d="M223.49,368.64a3.63,3.63,0,0,1,.57,0v2h-.24a4.39,4.39,0,0,0-3.21,1.14c-1.38,1.38-1.65,3.39-1.65,5.28V384h-2.07V369h2v3.66C219.53,370.35,221.18,368.64,223.49,368.64Z"/><path d="M233,369h2.28L239,379.62c.27.84.48,1.53.63,2.22h.09c.15-.69.39-1.38.66-2.22L244.1,369h2.28l-5.55,15h-2.28Z"/><path d="M248,376.5c0-4.89,2.73-7.86,6.9-7.86s6.87,3,6.87,7.86-2.73,7.86-6.87,7.86S248,381.39,248,376.5Zm11.55,0c0-3.9-1.77-6-4.65-6s-4.68,2.13-4.68,6,1.77,6,4.68,6S259.55,380.4,259.55,376.5Z"/><path d="M264.65,379.71l2.13-.36c.36,2.13,1.89,3.27,4.26,3.27,2.19,0,3.42-1.05,3.42-2.55s-.84-2.1-2.43-2.4l-2.91-.57c-2.49-.48-3.9-1.83-3.9-4.11,0-2.52,2.13-4.35,5.52-4.35s5.49,1.47,5.79,4.14l-2.1.45c-.3-1.83-1.59-2.88-3.78-2.88s-3.39,1-3.39,2.55c0,1.41.93,2.1,2.49,2.4l2.94.57c2.67.54,3.84,1.83,3.84,4,0,2.67-2,4.47-5.55,4.47S265.13,382.71,264.65,379.71Z"/><path d="M295.55,368.64a3.63,3.63,0,0,1,.57,0v2h-.24a4.39,4.39,0,0,0-3.21,1.14c-1.38,1.38-1.65,3.39-1.65,5.28V384H289V369h1.95v3.66C291.59,370.35,293.24,368.64,295.55,368.64Z"/><path d="M311,377H300.11c0,3.39,1.89,5.46,4.8,5.46a4.21,4.21,0,0,0,4.23-3.21l1.77.72a6.07,6.07,0,0,1-6.15,4.35c-4.26,0-6.75-2.73-6.75-7.77s2.52-7.95,6.66-7.95,6.33,2.4,6.33,7Zm-2.13-2c0-3.09-1.56-4.74-4.23-4.74s-4.47,1.92-4.53,5h8.76Z"/><path d="M317.39,369v2.91a4.47,4.47,0,0,1,4.44-3.27,4.23,4.23,0,0,1,4.32,3.21,4.76,4.76,0,0,1,4.62-3.21c2.94,0,4.62,2,4.62,5.55V384h-2.1v-9.63c0-2.55-1.08-3.93-3.15-3.93-2.28,0-3.69,1.68-3.69,4.44V384h-2.07v-9.75c0-2.43-1.14-3.81-3.12-3.81-2.28,0-3.75,1.86-3.75,4.8V384h-2.07V369Z"/><path d="M339.29,380a3.79,3.79,0,0,1,1.83-3.36,12.9,12.9,0,0,1,4.92-1.35l3.33-.39v-.24c0-3.09-1.08-4.32-3.63-4.32-2.25,0-3.63,1.17-3.75,3.3h-2.25c.18-3.09,2.52-5,6-5,4,0,5.76,1.86,5.76,6.21v3.9A21.14,21.14,0,0,0,352,384h-2.19a20.58,20.58,0,0,1-.27-3,5.14,5.14,0,0,1-5.22,3.36C341.27,384.36,339.29,382.62,339.29,380Zm10.11-2.58v-1l-4.26.6c-2.55.36-3.66,1.23-3.66,2.88s1.26,2.64,3.27,2.64C347.54,382.62,349.4,380.52,349.4,377.46Z"/><path d="M363.38,368.64a3.63,3.63,0,0,1,.57,0v2h-.24a4.39,4.39,0,0,0-3.21,1.14c-1.38,1.38-1.65,3.39-1.65,5.28V384h-2.07V369h2v3.66C359.42,370.35,361.07,368.64,363.38,368.64Z"/><path d="M377,381a5.1,5.1,0,0,1-5,3.36c-3.69,0-6.18-3.09-6.18-7.86s2.67-7.86,6.39-7.86a4.81,4.81,0,0,1,4.83,3.18l.45-2.82h1.56v20.85H377Zm0-4.11v-.75c0-3.36-1.65-5.64-4.47-5.64s-4.47,2.25-4.47,6,1.65,6,4.44,6S377,380.22,377,376.89Z"/><path d="M384.29,378.51V369h2.07v9.3c0,2.94,1.38,4.26,3.42,4.26,2.73,0,4.38-2.34,4.38-5.37V369h2.1v15h-2v-3.09a5.14,5.14,0,0,1-4.86,3.45C385.67,384.36,384.29,382.08,384.29,378.51Z"/><path d="M413.54,377H402.65c0,3.39,1.89,5.46,4.8,5.46a4.21,4.21,0,0,0,4.23-3.21l1.77.72a6.07,6.07,0,0,1-6.15,4.35c-4.26,0-6.75-2.73-6.75-7.77s2.52-7.95,6.66-7.95,6.33,2.4,6.33,7Zm-2.13-2c0-3.09-1.56-4.74-4.23-4.74s-4.47,1.92-4.53,5h8.76Z"/><path d="M416.57,379.71l2.13-.36c.36,2.13,1.89,3.27,4.26,3.27,2.19,0,3.42-1.05,3.42-2.55s-.84-2.1-2.43-2.4L421,377.1c-2.49-.48-3.9-1.83-3.9-4.11,0-2.52,2.13-4.35,5.52-4.35s5.49,1.47,5.79,4.14l-2.1.45c-.3-1.83-1.59-2.88-3.78-2.88s-3.39,1-3.39,2.55c0,1.41.93,2.1,2.49,2.4l2.94.57c2.67.54,3.84,1.83,3.84,4,0,2.67-2,4.47-5.55,4.47S417.05,382.71,416.57,379.71Z"/><path d="M440.87,369h2v3.18a5.32,5.32,0,0,1,5.13-3.54c3.69,0,6.09,3.15,6.09,7.86s-2.55,7.86-6.24,7.86a5.06,5.06,0,0,1-4.89-3.18v8.67h-2.07Zm11,7.5c0-3.72-1.62-6-4.38-6s-4.56,2.34-4.56,5.64v.66c0,3.36,1.68,5.7,4.44,5.7S451.85,380.22,451.85,376.5Z"/><path d="M469.94,377H459.05c0,3.39,1.89,5.46,4.8,5.46a4.21,4.21,0,0,0,4.23-3.21l1.77.72a6.07,6.07,0,0,1-6.15,4.35c-4.26,0-6.75-2.73-6.75-7.77s2.52-7.95,6.66-7.95,6.33,2.4,6.33,7Zm-2.13-2c0-3.09-1.56-4.74-4.23-4.74s-4.47,1.92-4.53,5h8.76Z"/><path d="M481,368.64a3.63,3.63,0,0,1,.57,0v2h-.24a4.39,4.39,0,0,0-3.21,1.14c-1.38,1.38-1.65,3.39-1.65,5.28V384h-2.07V369h1.95v3.66C477,370.35,478.67,368.64,481,368.64Z"/><path d="M483.53,379.71l2.13-.36c.36,2.13,1.89,3.27,4.26,3.27,2.19,0,3.42-1.05,3.42-2.55s-.84-2.1-2.43-2.4L488,377.1c-2.49-.48-3.9-1.83-3.9-4.11,0-2.52,2.13-4.35,5.52-4.35s5.49,1.47,5.79,4.14l-2.1.45c-.3-1.83-1.59-2.88-3.78-2.88s-3.39,1-3.39,2.55c0,1.41.93,2.1,2.49,2.4l2.94.57c2.67.54,3.84,1.83,3.84,4,0,2.67-2,4.47-5.55,4.47S484,382.71,483.53,379.71Z"/><path d="M498.47,376.5c0-4.89,2.73-7.86,6.9-7.86s6.87,3,6.87,7.86-2.73,7.86-6.87,7.86S498.47,381.39,498.47,376.5Zm11.55,0c0-3.9-1.77-6-4.65-6s-4.68,2.13-4.68,6,1.77,6,4.68,6S510,380.4,510,376.5Z"/><path d="M516.53,369h2v3.3a5.11,5.11,0,0,1,5.13-3.66c3.36,0,5.1,2.07,5.1,6.09V384h-2.1v-9.15c0-2.91-1.26-4.41-3.63-4.41-2.7,0-4.41,2.16-4.41,5.67V384h-2.07Z"/><path d="M533.93,369h2v3.3a5.11,5.11,0,0,1,5.13-3.66c3.36,0,5.1,2.07,5.1,6.09V384H544v-9.15c0-2.91-1.26-4.41-3.63-4.41-2.7,0-4.41,2.16-4.41,5.67V384h-2.07Z"/><path d="M562.94,377H552.05c0,3.39,1.89,5.46,4.8,5.46a4.21,4.21,0,0,0,4.23-3.21l1.77.72a6.07,6.07,0,0,1-6.15,4.35c-4.26,0-6.75-2.73-6.75-7.77s2.52-7.95,6.66-7.95,6.33,2.4,6.33,7Zm-2.13-2c0-3.09-1.56-4.74-4.23-4.74s-4.47,1.92-4.53,5h8.76Z"/><path d="M569.6,384h-2.07V362.25h2.07Z"/><path d="M577.67,384H575.6V362.25h2.07Z"/><path d="M595.1,377H584.21c0,3.39,1.89,5.46,4.8,5.46a4.21,4.21,0,0,0,4.23-3.21L595,380a6.07,6.07,0,0,1-6.15,4.35c-4.26,0-6.75-2.73-6.75-7.77s2.52-7.95,6.66-7.95,6.33,2.4,6.33,7Zm-2.13-2c0-3.09-1.56-4.74-4.23-4.74s-4.47,1.92-4.53,5H593Z"/><path d="M598.13,379.71l2.13-.36c.36,2.13,1.89,3.27,4.26,3.27,2.19,0,3.42-1.05,3.42-2.55s-.84-2.1-2.43-2.4l-2.91-.57c-2.49-.48-3.9-1.83-3.9-4.11,0-2.52,2.13-4.35,5.52-4.35s5.49,1.47,5.79,4.14l-2.1.45c-.3-1.83-1.59-2.88-3.78-2.88s-3.39,1-3.39,2.55c0,1.41.93,2.1,2.49,2.4l2.94.57c2.67.54,3.84,1.83,3.84,4,0,2.67-2,4.47-5.55,4.47S598.61,382.71,598.13,379.71Z"/><path d="M78.9,449.79H69.72L67.47,456H65l8.13-21.3h2.31l8.1,21.3H81.15Zm-5.61-16.38-3.06-3.09H72.6l2.73,3.09Zm4.89,14.4L75,439.08c-.3-.84-.48-1.41-.69-2.07h-.06c-.21.66-.36,1.23-.69,2.07l-3.15,8.73Z"/><path d="M101.66,440.64a3.76,3.76,0,0,1,.58,0v2H102a4.41,4.41,0,0,0-3.21,1.14c-1.37,1.38-1.64,3.39-1.64,5.28V456H95.07V441h2v3.66C97.71,442.35,99.36,440.64,101.66,440.64Z"/><path d="M117.11,449H106.23c0,3.39,1.88,5.46,4.8,5.46a4.21,4.21,0,0,0,4.22-3.21L117,452a6.08,6.08,0,0,1-6.16,4.35c-4.26,0-6.74-2.73-6.74-7.77s2.52-7.95,6.65-7.95,6.33,2.4,6.33,7Zm-2.12-2c0-3.09-1.57-4.74-4.24-4.74s-4.47,1.92-4.52,5H115Z"/><path d="M123.51,441v2.91a4.47,4.47,0,0,1,4.44-3.27,4.23,4.23,0,0,1,4.32,3.21,4.75,4.75,0,0,1,4.62-3.21c2.93,0,4.61,2,4.61,5.55V456h-2.09v-9.63c0-2.55-1.09-3.93-3.16-3.93-2.27,0-3.68,1.68-3.68,4.44V456h-2.08v-9.75c0-2.43-1.13-3.81-3.11-3.81-2.28,0-3.75,1.86-3.75,4.8V456h-2.07V441Z"/><path d="M146.7,441h2v3.18a5.31,5.31,0,0,1,5.13-3.54c3.68,0,6.09,3.15,6.09,7.86s-2.56,7.86-6.24,7.86a5.05,5.05,0,0,1-4.89-3.18v8.67H146.7Zm11,7.5c0-3.72-1.61-6-4.38-6s-4.55,2.34-4.55,5.64v.66c0,3.36,1.67,5.7,4.44,5.7S157.67,452.22,157.67,448.5Z"/><path d="M166.4,456h-2.07V434.25h2.07Z"/><path d="M172.11,435h2.36v3.3h-2.36Zm.14,6h2.07v15h-2.07Z"/><path d="M186.62,440.64a3.63,3.63,0,0,1,.57,0v2H187a4.39,4.39,0,0,0-3.21,1.14c-1.38,1.38-1.65,3.39-1.65,5.28V456H180V441H182v3.66C182.66,442.35,184.31,440.64,186.62,440.64Z"/><path d="M197.24,448.5c0-4.62,2.61-7.86,6.42-7.86a4.78,4.78,0,0,1,4.71,3.09v-9.48h2.1V456h-2v-3.18a5.23,5.23,0,0,1-5.07,3.54C199.7,456.36,197.24,453.18,197.24,448.5Zm11.16.33v-.63c0-3.42-1.65-5.7-4.44-5.7s-4.5,2.25-4.5,6,1.68,6,4.47,6S208.4,452.16,208.4,448.83Z"/><path d="M215.54,440.94a2.57,2.57,0,0,0,1.59-2.82v-.06h-1.5V434.7h2.85v3.18c0,2.22-.57,3.3-2.37,4.14Z"/><path d="M223.31,435h2.37v3.3h-2.37Zm.15,6h2.07v15h-2.07Z"/><path d="M229.82,448.5c0-4.89,2.61-7.86,6.81-7.86a5.67,5.67,0,0,1,6.06,5.43l-2.13.24c-.3-2.49-1.74-3.84-4-3.84-2.79,0-4.5,2.25-4.5,6s1.71,6.06,4.59,6.06c2.25,0,3.66-1.35,4.05-3.84l2,.3c-.54,3.39-2.76,5.37-6.06,5.37C232.46,456.36,229.82,453.33,229.82,448.5Z"/><path d="M246.86,435h2.37v3.3h-2.37Zm.15,6h2.07v15H247Z"/><path d="M261.38,452a3.79,3.79,0,0,1,1.83-3.36,12.9,12.9,0,0,1,4.92-1.35l3.33-.39v-.24c0-3.09-1.08-4.32-3.63-4.32-2.25,0-3.63,1.17-3.75,3.3h-2.25c.18-3.09,2.52-5,6-5,4,0,5.76,1.86,5.76,6.21v3.9A21.14,21.14,0,0,0,274,456h-2.19a20.58,20.58,0,0,1-.27-3,5.14,5.14,0,0,1-5.22,3.36C263.36,456.36,261.38,454.62,261.38,452Zm10.11-2.58v-1l-4.26.6c-2.55.36-3.66,1.23-3.66,2.88s1.26,2.64,3.27,2.64C269.63,454.62,271.49,452.52,271.49,449.46Z"/><path d="M278.42,450.51V441h2.07v9.3c0,2.94,1.38,4.26,3.42,4.26,2.73,0,4.38-2.34,4.38-5.37V441h2.1v15h-2v-3.09a5.14,5.14,0,0,1-4.86,3.45C279.8,456.36,278.42,454.08,278.42,450.51Z"/><path d="M304,441h2v3.18a5.32,5.32,0,0,1,5.13-3.54c3.69,0,6.09,3.15,6.09,7.86s-2.55,7.86-6.24,7.86a5.06,5.06,0,0,1-4.89-3.18v8.67H304Zm11,7.5c0-3.72-1.62-6-4.38-6s-4.56,2.34-4.56,5.64v.66c0,3.36,1.68,5.7,4.44,5.7S315,452.22,315,448.5Z"/><path d="M323.75,456h-2.07V434.25h2.07Z"/><path d="M329.15,450.51V441h2.07v9.3c0,2.94,1.38,4.26,3.42,4.26,2.73,0,4.38-2.34,4.38-5.37V441h2.1v15h-2v-3.09a5.14,5.14,0,0,1-4.86,3.45C330.53,456.36,329.15,454.08,329.15,450.51Z"/><path d="M345.41,451.71l2.13-.36c.36,2.13,1.89,3.27,4.26,3.27,2.19,0,3.42-1.05,3.42-2.55s-.84-2.1-2.43-2.4l-2.91-.57c-2.49-.48-3.9-1.83-3.9-4.11,0-2.52,2.13-4.35,5.52-4.35s5.49,1.47,5.79,4.14l-2.1.45c-.3-1.83-1.59-2.88-3.78-2.88s-3.39,1-3.39,2.55c0,1.41.93,2.1,2.49,2.4l2.94.57c2.67.54,3.84,1.83,3.84,4,0,2.67-2,4.47-5.55,4.47S345.89,454.71,345.41,451.71Z"/><path d="M367.49,441h2.76v-4l2.1-.9V441h3.87v1.74h-3.87v9c0,1.77.78,2.55,2.34,2.55a6.12,6.12,0,0,0,1.53-.18V456a7.07,7.07,0,0,1-2.07.27c-2.91,0-3.9-1.77-3.9-4.44v-9.09h-2.76Z"/><path d="M378.68,452a3.79,3.79,0,0,1,1.83-3.36,12.9,12.9,0,0,1,4.92-1.35l3.33-.39v-.24c0-3.09-1.08-4.32-3.63-4.32-2.25,0-3.63,1.17-3.75,3.3h-2.25c.18-3.09,2.52-5,6-5,4,0,5.76,1.86,5.76,6.21v3.9a21.14,21.14,0,0,0,.48,5.25h-2.19a20.58,20.58,0,0,1-.27-3,5.14,5.14,0,0,1-5.22,3.36C380.66,456.36,378.68,454.62,378.68,452Zm10.11-2.58v-1l-4.26.6c-2.55.36-3.66,1.23-3.66,2.88s1.26,2.64,3.27,2.64C386.93,454.62,388.79,452.52,388.79,449.46Z"/><path d="M402.77,440.64a3.63,3.63,0,0,1,.57,0v2h-.24a4.39,4.39,0,0,0-3.21,1.14c-1.38,1.38-1.65,3.39-1.65,5.28V456h-2.07V441h1.95v3.66C398.81,442.35,400.46,440.64,402.77,440.64Z"/><path d="M405.23,448.5c0-4.62,2.61-7.86,6.42-7.86a4.78,4.78,0,0,1,4.71,3.09v-9.48h2.1V456h-2v-3.18a5.23,5.23,0,0,1-5.07,3.54C407.69,456.36,405.23,453.18,405.23,448.5Zm11.16.33v-.63c0-3.42-1.65-5.7-4.44-5.7s-4.5,2.25-4.5,6,1.68,6,4.47,6S416.39,452.16,416.39,448.83Z"/><path d="M434.45,456h-2.07V434.25h2.07Z"/><path d="M451.88,449H441c0,3.39,1.89,5.46,4.8,5.46a4.21,4.21,0,0,0,4.23-3.21l1.77.72a6.07,6.07,0,0,1-6.15,4.35c-4.26,0-6.75-2.73-6.75-7.77s2.52-7.95,6.66-7.95,6.33,2.4,6.33,7Zm-2.13-2c0-3.09-1.56-4.74-4.23-4.74s-4.47,1.92-4.53,5h8.76Z"/><path d="M465.74,455.67c0-6.66,2.82-12.84,7.53-18.48H462.35v-2h13.41v1.77a27.44,27.44,0,0,0-7.59,18.54V456h-2.43Z"/><path d="M493.79,442.74h-3.9V456h-2.07V442.74H485V441h2.82v-2.49c0-2.7,1.59-4.44,4.2-4.44a6.37,6.37,0,0,1,1.77.21v1.8a8.76,8.76,0,0,0-1.5-.15c-1.68,0-2.4.9-2.4,2.85V441h3.9Z"/><path d="M508.55,449H497.66c0,3.39,1.89,5.46,4.8,5.46a4.21,4.21,0,0,0,4.23-3.21l1.77.72a6.07,6.07,0,0,1-6.15,4.35c-4.26,0-6.75-2.73-6.75-7.77s2.52-7.95,6.66-7.95,6.33,2.4,6.33,7Zm-2.13-2c0-3.09-1.56-4.74-4.23-4.74s-4.47,1.92-4.53,5h8.76Zm-3.33-8.46h-2l3-4.29h2.58Z"/><path d="M510.32,441h2.28l3.72,10.62c.27.84.48,1.53.63,2.22H517c.15-.69.39-1.38.66-2.22L521.42,441h2.28l-5.55,15h-2.28Z"/><path d="M533.48,440.64a3.63,3.63,0,0,1,.57,0v2h-.24a4.39,4.39,0,0,0-3.21,1.14c-1.38,1.38-1.65,3.39-1.65,5.28V456h-2.07V441h2v3.66C529.52,442.35,531.17,440.64,533.48,440.64Z"/><path d="M537.41,435h2.37v3.3h-2.37Zm.15,6h2.07v15h-2.07Z"/><path d="M556.91,449H546c0,3.39,1.89,5.46,4.8,5.46a4.21,4.21,0,0,0,4.23-3.21l1.77.72a6.07,6.07,0,0,1-6.15,4.35c-4.26,0-6.75-2.73-6.75-7.77s2.52-7.95,6.66-7.95,6.33,2.4,6.33,7Zm-2.13-2c0-3.09-1.56-4.74-4.23-4.74s-4.47,1.92-4.53,5h8.76Z"/><path d="M568,440.64a3.63,3.63,0,0,1,.57,0v2h-.24a4.39,4.39,0,0,0-3.21,1.14c-1.38,1.38-1.65,3.39-1.65,5.28V456h-2.07V441h1.95v3.66C564,442.35,565.64,440.64,568,440.64Z"/><path d="M578.27,454.17a71,71,0,0,0,7.5-6.36c2.52-2.52,3.48-4.41,3.48-6.87,0-2.73-1.53-4.32-4.17-4.32s-4.32,1.59-4.32,4.08a10.11,10.11,0,0,0,.24,1.92l-2.22-.21a6.9,6.9,0,0,1-.21-1.74c0-3.66,2.49-6,6.63-6,4,0,6.36,2.25,6.36,6.21,0,2.85-1.38,5.34-4.38,8.22a44.1,44.1,0,0,1-5.94,4.89h10.65v2H578.27Z"/><path d="M594.65,445.56c0-6.66,2.76-10.86,7.92-10.86s7.89,4.2,7.89,10.89-2.73,10.86-7.89,10.86S594.65,452.25,594.65,445.56Zm13.62,0c0-5.55-1.92-9-5.7-9s-5.7,3.45-5.7,9,1.92,9,5.7,9S608.27,451.14,608.27,445.59Z"/><path d="M613.22,454.17a71,71,0,0,0,7.5-6.36c2.52-2.52,3.48-4.41,3.48-6.87,0-2.73-1.53-4.32-4.17-4.32s-4.32,1.59-4.32,4.08a10.11,10.11,0,0,0,.24,1.92l-2.22-.21a6.9,6.9,0,0,1-.21-1.74c0-3.66,2.49-6,6.63-6s6.36,2.25,6.36,6.21c0,2.85-1.38,5.34-4.38,8.22a44.1,44.1,0,0,1-5.94,4.89h10.65v2H613.22Z"/><path d="M634.16,439a4.59,4.59,0,0,1-3.66,1.65h-1v-2h.57a4.34,4.34,0,0,0,4.38-3.54h1.86V456h-2.19Z"/><path d="M107.31,55.26v4.8h-4.77v-4.8h-9.6V52l9-13.26h5.34v13h3.12v3.54Zm-4.53-12.09h-.06a10,10,0,0,1-1.2,2.16l-3,4.56a13.47,13.47,0,0,1-1.38,1.83h5.55V45.54C102.72,44.43,102.72,43.92,102.78,43.17ZM117.6,60.06h-5.13V55.14h5.13Zm28.44.75a6,6,0,0,0,1.68-.24V64.5a13.67,13.67,0,0,1-2.25.18c-3.6,0-5.94-1.53-7-4.11h-.42c-6.39,0-10.5-4.32-10.5-11.16s4.11-11.16,10.5-11.16,10.5,4.29,10.5,11.16c0,5-2.22,8.7-5.91,10.29A4.89,4.89,0,0,0,146,60.81Zm-7.95-4.2c3.33,0,5.28-2.7,5.28-7.2s-2-7.2-5.28-7.2-5.31,2.7-5.31,7.2S134.76,56.61,138.09,56.61Zm18.3-17.85V52.41a4,4,0,1,0,7.92,0V38.76h5.07V52.62c0,4.86-3.36,8-9,8s-9-3.09-9-8V38.76Zm31.86,17.55v3.75H173.46V38.76H188v3.75h-9.51v4.8h9V51h-9v5.28Zm1.38-.69L193.38,53a6.17,6.17,0,0,0,5.79,3.66c2,0,3.66-.75,3.66-2.43s-.93-2.19-3.09-2.64l-2.85-.6c-3.72-.81-5.88-2.82-5.88-6.39,0-3.9,3.18-6.33,8.31-6.33,3.78,0,7,1.38,8.46,4.23l-3.3,2.79A6,6,0,0,0,199,42c-2,0-3.3.84-3.3,2.19s.84,2.07,3.09,2.58l3.09.66c3.78.84,5.82,2.64,5.82,6.3,0,4.05-3.12,6.84-8.7,6.84C194.4,60.57,191.1,58.62,189.63,55.62Zm36.42-12.84h-6.21V60.06h-5V42.78h-6.18v-4h17.43Zm2.4,17.28V38.76h5.07v21.3Zm8.16-10.65c0-6.87,4.11-11.16,10.5-11.16s10.5,4.29,10.5,11.16-4.11,11.16-10.5,11.16S236.61,56.25,236.61,49.41Zm15.78,0c0-4.5-1.95-7.2-5.28-7.2s-5.31,2.7-5.31,7.2,2,7.2,5.31,7.2S252.39,53.91,252.39,49.41Zm8.31-10.65h5.61l6.84,12.15a22.16,22.16,0,0,1,1.29,2.76h.06c0-.84,0-1.71,0-2.73V38.76h4.65v21.3h-5.4l-7.08-12.27a18.35,18.35,0,0,1-1.26-2.61h-.06c0,.87,0,1.77,0,2.82V60.06H260.7Zm22.86,0h5.61L296,50.91a22.16,22.16,0,0,1,1.29,2.76h.06c0-.84,0-1.71,0-2.73V38.76H302v21.3h-5.39L289.5,47.79a18.35,18.35,0,0,1-1.26-2.61h-.06c0,.87,0,1.77,0,2.82V60.06h-4.65Zm35.61,16.32h-7.86l-1.62,5h-5.07l7.74-21.3h5.79l7.73,21.3h-5.1ZM318,51.51l-1.95-5.94a25.65,25.65,0,0,1-.78-3h-.06a20.83,20.83,0,0,1-.78,3l-1.95,5.94Zm10.5,8.55V38.76h5.07v21.3Zm17.64-8.16h-3.06v8.16H338V38.76h9.35c5.4,0,7.8,2.64,7.8,6.54A5.89,5.89,0,0,1,351,51.15l4.71,8.91h-5.49Zm-3.06-3.48h3.27c2.45,0,3.53-1.2,3.53-3.12s-1.05-3-3.53-3h-3.27Zm30.5,7.89v3.75H358.8V38.76h14.57v3.75h-9.51v4.8h9V51h-9v5.28Zm25.89,0v3.75H384.68V38.76h14.58v3.75h-9.51v4.8h9V51h-9v5.28Zm3.69-17.55h5.61l6.84,12.15a22.16,22.16,0,0,1,1.29,2.76H417c0-.84,0-1.71,0-2.73V38.76h4.65v21.3h-5.4L409.1,47.79a18.35,18.35,0,0,1-1.26-2.61h-.06c0,.87,0,1.77,0,2.82V60.06h-4.65Zm30.27,0h5.07V56h8.64v4.11H433.43Zm16.62,21.3V38.76h5.07v21.3Zm8.16-10.62c0-6.69,4-11.19,10.56-11.19,5.58,0,8.61,3,9.27,6.54l-5,.93a4.1,4.1,0,0,0-4.29-3.66c-3.39,0-5.34,2.82-5.34,7.32s1.83,7.29,5.4,7.29a4.49,4.49,0,0,0,4.71-4.38v-.45h-5.25V48.21h9.87V60.06h-3.6l-.21-3.12c-1.08,2.28-3.45,3.63-6.66,3.63C461.78,60.57,458.21,56.19,458.21,49.44Zm23.7-10.68h5.61l6.84,12.15a22.16,22.16,0,0,1,1.29,2.76h.06c0-.84,0-1.71,0-2.73V38.76h4.65v21.3h-5.4l-7.08-12.27a18.35,18.35,0,0,1-1.26-2.61h-.06c0,.87,0,1.77,0,2.82V60.06h-4.65Zm37.65,17.55v3.75H504.77V38.76h14.58v3.75h-9.51v4.8h9V51h-9v5.28Z"/></g></g></svg>