<svg id="Calque_1" data-name="Calque 1" xmlns="http://www.w3.org/2000/svg" xmlns:xlink="http://www.w3.org/1999/xlink" viewBox="0 0 1190.55 841.89"><defs><style>.cls-1{fill:none;}.cls-2{clip-path:url(#clip-path);}</style><clipPath id="clip-path"><rect class="cls-1" width="1190.55" height="841.89"/></clipPath></defs><g class="cls-2"><path d="M184.43,424.07v4.8h-4.77v-4.8h-9.6v-3.24l9-13.26h5.34v13h3.12v3.54ZM179.9,412h-.06a10,10,0,0,1-1.2,2.16l-3,4.56a13.47,13.47,0,0,1-1.38,1.83h5.55v-6.18C179.84,413.24,179.84,412.73,179.9,412Zm14.82,16.89h-5.13V424h5.13Zm28.56-6c0,3.36-2.37,6-7.23,6h-10v-21.3h9.6c4.86,0,7.08,2.37,7.08,5.49a4.76,4.76,0,0,1-3.84,4.71A4.8,4.8,0,0,1,223.28,422.87Zm-12.15-11.73v5.19h3.18c2.28,0,3.15-1.17,3.15-2.61s-1-2.58-3.15-2.58ZM218,422.45c0-1.65-1.11-2.76-3.24-2.76h-3.63v5.61h3.51C217,425.3,218,424.07,218,422.45Zm8.49,6.42v-21.3h5.07v21.3Zm9.51-21.3h5.07v17.19h8.64v4.11H236Zm29.79,16.32h-7.86l-1.62,5h-5.07l7.74-21.3h5.79l7.74,21.3h-5.1Zm-1.17-3.57-1.95-5.94a25.65,25.65,0,0,1-.78-3h-.06a20.83,20.83,0,0,1-.78,3l-1.95,5.94Zm10.5-12.75h5.61l6.84,12.15a22.16,22.16,0,0,1,1.29,2.76h.06c0-.84,0-1.71,0-2.73V407.57h4.65v21.3h-5.4l-7.08-12.27A18.35,18.35,0,0,1,279.8,414h-.06c0,.87,0,1.77,0,2.82v12.06h-4.65Zm30.27,0h8.49c6.39,0,10.53,4.26,10.53,10.53s-4.14,10.77-10.59,10.77h-8.43Zm8.22,17.58c3.6,0,5.58-3.24,5.58-7s-1.86-6.81-5.52-6.81h-3.21v13.86Zm28.68,0v3.75H327.5v-21.3h14.58v3.75h-9.51v4.8h9v3.72h-9v5.28Zm1.38-.69,3.75-2.64a6.17,6.17,0,0,0,5.79,3.66c2,0,3.66-.75,3.66-2.43s-.93-2.19-3.09-2.64l-2.85-.6c-3.72-.81-5.88-2.82-5.88-6.39,0-3.9,3.18-6.33,8.31-6.33,3.78,0,7,1.38,8.46,4.23l-3.3,2.79a6,6,0,0,0-5.49-3.27c-2,0-3.3.84-3.3,2.19s.84,2.07,3.09,2.58l3.09.66c3.78.84,5.82,2.64,5.82,6.3,0,4-3.12,6.84-8.7,6.84C348.44,429.38,345.14,427.43,343.67,424.43Zm28.47-16.86h8.49c6.39,0,10.53,4.26,10.53,10.53s-4.14,10.77-10.59,10.77h-8.43Zm8.22,17.58c3.6,0,5.58-3.24,5.58-7s-1.86-6.81-5.52-6.81h-3.21v13.86Zm13.89,3.72v-21.3h5.07v21.3Zm7.23-4.44,3.75-2.64a6.17,6.17,0,0,0,5.79,3.66c2,0,3.66-.75,3.66-2.43s-.93-2.19-3.09-2.64l-2.85-.6c-3.72-.81-5.88-2.82-5.88-6.39,0-3.9,3.18-6.33,8.31-6.33,3.78,0,7,1.38,8.46,4.23l-3.3,2.79a6,6,0,0,0-5.49-3.27c-2,0-3.3.84-3.3,2.19s.84,2.07,3.09,2.58l3.09.66c3.78.84,5.82,2.64,5.82,6.3,0,4-3.12,6.84-8.7,6.84C406.25,429.38,403,427.43,401.48,424.43Zm19.71-6.18c0-6.72,4-11.19,10.44-11.19,5.43,0,8.85,3,9.42,7.65l-5.13.9c-.3-2.82-1.86-4.47-4.41-4.47-3.24,0-5.13,2.73-5.13,7.08s1.92,7,5.28,7c2.37,0,4-1.62,4.38-4.38l5.13,1.11c-1,4.5-4.32,7.38-9.6,7.38C424.82,429.38,421.19,425,421.19,418.25Zm27.63-10.68v13.65a4,4,0,1,0,7.92,0V407.57h5.07v13.86c0,4.86-3.36,7.95-9,7.95s-9-3.09-9-7.95V407.57Zm14.61,16.86,3.75-2.64a6.17,6.17,0,0,0,5.79,3.66c2,0,3.66-.75,3.66-2.43s-.93-2.19-3.09-2.64l-2.85-.6c-3.72-.81-5.88-2.82-5.88-6.39,0-3.9,3.18-6.33,8.31-6.33,3.78,0,7,1.38,8.46,4.23l-3.3,2.79a6,6,0,0,0-5.49-3.27c-2,0-3.3.84-3.3,2.19s.84,2.07,3.09,2.58l3.09.66c3.78.84,5.82,2.64,5.82,6.3,0,4-3.12,6.84-8.7,6.84C468.2,429.38,464.9,427.43,463.43,424.43Zm19.08,0,3.75-2.64a6.17,6.17,0,0,0,5.79,3.66c2,0,3.66-.75,3.66-2.43s-.93-2.19-3.09-2.64l-2.85-.6c-3.72-.81-5.88-2.82-5.88-6.39,0-3.9,3.18-6.33,8.31-6.33,3.78,0,7,1.38,8.46,4.23l-3.3,2.79a6,6,0,0,0-5.49-3.27c-2,0-3.3.84-3.3,2.19s.84,2.07,3.09,2.58l3.09.66c3.78.84,5.82,2.64,5.82,6.3,0,4-3.12,6.84-8.7,6.84C487.28,429.38,484,427.43,482.51,424.43Zm21.06,4.44v-21.3h5.07v21.3Zm8.16-10.65c0-6.87,4.11-11.16,10.5-11.16s10.5,4.29,10.5,11.16-4.11,11.16-10.5,11.16S511.73,425.06,511.73,418.22Zm15.78,0c0-4.5-2-7.2-5.28-7.2s-5.31,2.7-5.31,7.2,2,7.2,5.31,7.2S527.51,422.72,527.51,418.22Zm8.31-10.65h5.61l6.84,12.15a22.16,22.16,0,0,1,1.29,2.76h.06c0-.84,0-1.71,0-2.73V407.57h4.65v21.3h-5.4l-7.08-12.27A18.35,18.35,0,0,1,540.5,414h-.06c0,.87,0,1.77,0,2.82v12.06h-4.65Zm20.58,16.86,3.75-2.64a6.17,6.17,0,0,0,5.79,3.66c2,0,3.66-.75,3.66-2.43s-.93-2.19-3.09-2.64l-2.85-.6c-3.72-.81-5.88-2.82-5.88-6.39,0-3.9,3.18-6.33,8.31-6.33,3.78,0,7,1.38,8.46,4.23l-3.3,2.79a6,6,0,0,0-5.49-3.27c-2,0-3.3.84-3.3,2.19s.84,2.07,3.09,2.58l3.09.66c3.78.84,5.82,2.64,5.82,6.3,0,4-3.12,6.84-8.7,6.84C561.17,429.38,557.87,427.43,556.4,424.43Zm43.26.69v3.75H584.87v-21.3h14.58v3.75h-9.51v4.8h9v3.72h-9v5.28Zm19.22-13.53h-6.21v17.28h-5V411.59h-6.18v-4h17.43Zm26.91,18a6,6,0,0,0,1.68-.24v3.93a13.67,13.67,0,0,1-2.25.18c-3.6,0-5.94-1.53-7-4.11h-.42c-6.39,0-10.5-4.32-10.5-11.16s4.11-11.16,10.5-11.16,10.5,4.29,10.5,11.16c0,5-2.22,8.7-5.91,10.29A4.89,4.89,0,0,0,645.79,429.62Zm-7.95-4.2c3.33,0,5.28-2.7,5.28-7.2s-2-7.2-5.28-7.2-5.31,2.7-5.31,7.2S634.51,425.42,637.84,425.42Zm18.3-17.85v13.65a4,4,0,1,0,7.92,0V407.57h5.07v13.86c0,4.86-3.36,7.95-9,7.95s-9-3.09-9-7.95V407.57ZM688,425.12v3.75H673.21v-21.3h14.58v3.75h-9.51v4.8h9v3.72h-9v5.28Zm1.38-.69,3.75-2.64a6.17,6.17,0,0,0,5.79,3.66c2,0,3.66-.75,3.66-2.43s-.93-2.19-3.09-2.64l-2.85-.6c-3.72-.81-5.88-2.82-5.88-6.39,0-3.9,3.18-6.33,8.31-6.33,3.78,0,7,1.38,8.46,4.23l-3.3,2.79a6,6,0,0,0-5.49-3.27c-2,0-3.3.84-3.3,2.19s.84,2.07,3.09,2.58l3.09.66c3.78.84,5.82,2.64,5.82,6.3,0,4-3.12,6.84-8.7,6.84C694.15,429.38,690.85,427.43,689.38,424.43Zm36.42-12.84h-6.21v17.28h-5V411.59h-6.18v-4H725.8Zm2.4,17.28v-21.3h5.07v21.3Zm8.16-10.65c0-6.87,4.11-11.16,10.5-11.16s10.5,4.29,10.5,11.16-4.11,11.16-10.5,11.16S736.36,425.06,736.36,418.22Zm15.78,0c0-4.5-1.95-7.2-5.28-7.2s-5.31,2.7-5.31,7.2,2,7.2,5.31,7.2S752.14,422.72,752.14,418.22Zm8.31-10.65h5.61l6.84,12.15a22.16,22.16,0,0,1,1.29,2.76h.06c0-.84,0-1.71,0-2.73V407.57h4.65v21.3h-5.4l-7.08-12.27a18.35,18.35,0,0,1-1.26-2.61h-.06c0,.87,0,1.77,0,2.82v12.06h-4.65Zm22.86,0h5.61l6.84,12.15a22.16,22.16,0,0,1,1.29,2.76h.06c0-.84,0-1.71,0-2.73V407.57h4.65v21.3h-5.4l-7.08-12.27A18.35,18.35,0,0,1,788,414h-.06c0,.87,0,1.77,0,2.82v12.06h-4.65Zm35.61,16.32h-7.86l-1.62,5h-5.07l7.74-21.3h5.79l7.74,21.3h-5.1Zm-1.17-3.57-2-5.94a25.65,25.65,0,0,1-.78-3H815a20.83,20.83,0,0,1-.78,3l-1.95,5.94Zm10.5,8.55v-21.3h5.07v21.3Zm17.64-8.16h-3.06v8.16h-5.07v-21.3h9.36c5.4,0,7.8,2.64,7.8,6.54a5.89,5.89,0,0,1-4.17,5.85l4.71,8.91H850Zm-3.06-3.48h3.27c2.46,0,3.54-1.2,3.54-3.12s-1-3-3.54-3h-3.27Zm30.51,7.89v3.75H858.55v-21.3h14.58v3.75h-9.51v4.8h9v3.72h-9v5.28Zm25.89,0v3.75H884.44v-21.3H899v3.75h-9.51v4.8h9v3.72h-9v5.28Zm3.69-17.55h5.61l6.84,12.15a22.16,22.16,0,0,1,1.29,2.76h.06c0-.84,0-1.71,0-2.73V407.57h4.65v21.3h-5.4l-7.08-12.27A18.35,18.35,0,0,1,907.6,414h-.06c0,.87,0,1.77,0,2.82v12.06h-4.65Zm30.27,0h5.07v17.19h8.64v4.11H933.19Zm16.62,21.3v-21.3h5.07v21.3ZM958,418.25c0-6.69,4-11.19,10.56-11.19,5.58,0,8.61,3,9.27,6.54l-5,.93a4.1,4.1,0,0,0-4.29-3.66c-3.39,0-5.34,2.82-5.34,7.32s1.83,7.29,5.4,7.29a4.49,4.49,0,0,0,4.71-4.38v-.45H968V417h9.87v11.85h-3.6l-.21-3.12c-1.08,2.28-3.45,3.63-6.66,3.63C961.54,429.38,958,425,958,418.25Zm23.7-10.68h5.61l6.84,12.15a22.16,22.16,0,0,1,1.29,2.76h.06c0-.84,0-1.71,0-2.73V407.57h4.65v21.3h-5.4l-7.08-12.27a18.35,18.35,0,0,1-1.26-2.61h-.06c0,.87,0,1.77,0,2.82v12.06h-4.65Zm37.65,17.55v3.75h-14.79v-21.3h14.58v3.75h-9.51v4.8h9v3.72h-9v5.28Z"/></g></svg>