<svg id="Calque_1" data-name="Calque 1" xmlns="http://www.w3.org/2000/svg" xmlns:xlink="http://www.w3.org/1999/xlink" viewBox="0 0 1190.55 841.89"><defs><style>.cls-1,.cls-18{fill:none;}.cls-2{clip-path:url(#clip-path);}.cls-3{clip-path:url(#clip-path-3);}.cls-4{clip-path:url(#clip-path-4);}.cls-5{clip-path:url(#clip-path-5);}.cls-6{clip-path:url(#clip-path-6);}.cls-7{clip-path:url(#clip-path-7);}.cls-8{clip-path:url(#clip-path-8);}.cls-9{clip-path:url(#clip-path-9);}.cls-10{clip-path:url(#clip-path-10);}.cls-11{clip-path:url(#clip-path-11);}.cls-12{opacity:0.4;}.cls-13{clip-path:url(#clip-path-12);}.cls-14{fill:#2c7525;}.cls-15{fill:#fff;}.cls-16{clip-path:url(#clip-path-14);}.cls-17{fill:#e52321;}.cls-18{stroke:#e52721;}</style><clipPath id="clip-path"><rect class="cls-1" width="1190.55" height="841.89"/></clipPath><clipPath id="clip-path-3"><rect class="cls-1" x="607.32" y="174.78" width="364.85" height="272.96"/></clipPath><clipPath id="clip-path-4"><rect class="cls-1" x="606.04" y="173.58" width="367.28" height="275.46"/></clipPath><clipPath id="clip-path-5"><rect class="cls-1" x="36" y="174.78" width="364.85" height="272.96"/></clipPath><clipPath id="clip-path-6"><rect class="cls-1" x="36" y="173.72" width="365.92" height="275.06"/></clipPath><clipPath id="clip-path-7"><rect class="cls-1" x="36" y="501.22" width="547.94" height="304.67"/></clipPath><clipPath id="clip-path-8"><rect class="cls-1" x="34.96" y="500.17" width="550.07" height="306.72"/></clipPath><clipPath id="clip-path-9"><rect class="cls-1" x="606.61" y="501.22" width="547.94" height="304.67"/></clipPath><clipPath id="clip-path-10"><rect class="cls-1" x="605.58" y="500.17" width="550.07" height="306.72"/></clipPath><clipPath id="clip-path-11"><rect class="cls-1" width="1190.55" height="841.89"/></clipPath><clipPath id="clip-path-12"><rect class="cls-1" x="222.31" y="627.25" width="238.43" height="43.46"/></clipPath><clipPath id="clip-path-14"><rect class="cls-1" x="825.24" y="627.11" width="133.09" height="63.84"/></clipPath></defs><g class="cls-2"><g class="cls-2"><path d="M93.29,53.54l4.89-.48c0,2.34,1.32,3.72,3.36,3.72a2.71,2.71,0,0,0,3-3c0-1.92-1.14-2.91-3.6-2.91H99.83v-3.3h1.08c2.1,0,3.18-1.08,3.18-2.91a2.5,2.5,0,0,0-2.76-2.73c-2,0-3.06,1.41-3.06,3.78l-4.77-.63c0-4.17,3.12-6.81,8.07-6.81s7.5,2.16,7.5,5.82A5,5,0,0,1,104.9,49c3.09.48,4.74,2.22,4.74,5.13,0,4-3.18,6.42-8.13,6.42S93.35,57.8,93.29,53.54Zm24,6.51h-5.13V55.13h5.13Zm28.44.75a6,6,0,0,0,1.68-.24v3.93a13.67,13.67,0,0,1-2.25.18c-3.6,0-5.94-1.53-7-4.11h-.42c-6.39,0-10.5-4.32-10.5-11.16s4.11-11.16,10.5-11.16,10.5,4.29,10.5,11.16c0,5-2.22,8.7-5.91,10.29A4.89,4.89,0,0,0,145.7,60.8Zm-7.95-4.2c3.33,0,5.28-2.7,5.28-7.2s-1.95-7.2-5.28-7.2-5.31,2.7-5.31,7.2S134.42,56.6,137.75,56.6Zm18.3-17.85V52.4a4,4,0,1,0,7.92,0V38.75H169V52.61c0,4.86-3.36,8-9,8s-9-3.09-9-8V38.75Zm28.89,16.32h-7.86l-1.62,5h-5.07l7.74-21.3h5.79l7.74,21.3h-5.1Zm-1.17-3.57-2-5.94a25.65,25.65,0,0,1-.78-3H181a20.83,20.83,0,0,1-.78,3l-1.95,5.94ZM207,42.77h-6.2V60.05h-5V42.77h-6.18v-4H207Zm10.54,9.12h-3.06v8.16h-5.07V38.75h9.36c5.39,0,7.79,2.64,7.79,6.54a5.89,5.89,0,0,1-4.17,5.85l4.71,8.91h-5.49Zm-3.06-3.48h3.27c2.45,0,3.53-1.2,3.53-3.12s-1-3-3.53-3h-3.27Zm30.5,7.89v3.75H230.15V38.75h14.57V42.5h-9.51v4.8h9V51h-9V56.3Zm8.83-.69L257.5,53a6.17,6.17,0,0,0,5.79,3.66c2,0,3.66-.75,3.66-2.43S266,52,263.86,51.56L261,51c-3.72-.81-5.88-2.82-5.88-6.39,0-3.9,3.18-6.33,8.31-6.33,3.78,0,7,1.38,8.46,4.23l-3.3,2.79A6,6,0,0,0,263.11,42c-2,0-3.3.84-3.3,2.19s.84,2.07,3.09,2.58l3.09.66c3.78.84,5.82,2.64,5.82,6.3,0,4.05-3.12,6.84-8.7,6.84C258.52,60.56,255.22,58.61,253.76,55.61Zm19.71-6.18c0-6.72,4-11.19,10.43-11.19,5.43,0,8.85,3,9.42,7.65l-5.13.9c-.3-2.82-1.86-4.47-4.41-4.47-3.24,0-5.13,2.73-5.13,7.08s1.92,7.05,5.28,7.05c2.37,0,4-1.62,4.38-4.38l5.13,1.11c-1,4.5-4.32,7.38-9.6,7.38C277.1,60.56,273.47,56.15,273.47,49.43Zm37.7,6.87v3.75H296.38V38.75H311V42.5h-9.51v4.8h9V51h-9V56.3Zm-5.43-18.84h-3.66l3-3.54h4.17Zm9.12,1.29h5.61l6.84,12.15a22.16,22.16,0,0,1,1.29,2.76h.06c0-.84,0-1.71,0-2.73V38.75h4.65v21.3h-5.4L320.8,47.78a18.35,18.35,0,0,1-1.26-2.61h-.06c0,.87,0,1.77,0,2.82V60.05h-4.65Zm35.61,16.32h-7.86l-1.62,5h-5.07l7.74-21.3h5.79l7.74,21.3h-5.1ZM349.3,51.5l-1.95-5.94a25.65,25.65,0,0,1-.78-3h-.06a20.83,20.83,0,0,1-.78,3l-2,5.94Zm18.63.39h-3.06v8.16H359.8V38.75h9.36c5.4,0,7.8,2.64,7.8,6.54a5.89,5.89,0,0,1-4.17,5.85l4.71,8.91H372Zm-3.06-3.48h3.27c2.46,0,3.54-1.2,3.54-3.12s-1.05-3-3.54-3h-3.27Zm15.72,11.64V38.75h5.07v21.3Zm8.16-10.65c0-6.87,4.11-11.16,10.5-11.16s10.5,4.29,10.5,11.16-4.11,11.16-10.5,11.16S388.75,56.24,388.75,49.4Zm15.78,0c0-4.5-1.95-7.2-5.28-7.2s-5.31,2.7-5.31,7.2,2,7.2,5.31,7.2S404.53,53.9,404.53,49.4Zm5.79,6.21L414.07,53a6.17,6.17,0,0,0,5.79,3.66c2,0,3.66-.75,3.66-2.43s-.93-2.19-3.09-2.64l-2.85-.6c-3.72-.81-5.88-2.82-5.88-6.39,0-3.9,3.18-6.33,8.31-6.33,3.78,0,7,1.38,8.46,4.23l-3.3,2.79A6,6,0,0,0,419.68,42c-2,0-3.3.84-3.3,2.19s.84,2.07,3.09,2.58l3.09.66c3.78.84,5.82,2.64,5.82,6.3,0,4.05-3.12,6.84-8.7,6.84C415.09,60.56,411.79,58.61,410.32,55.61Z"/><path d="M608.45,123.74l5.13-6.24h2.22l-5,6.24,5,6.24h-2.25Zm5.61,0,5.13-6.24h2.21l-5,6.24,4.94,6.24h-2.22Z"/><path d="M627.35,110.69v13.8c0,3.63,2,5.94,5.63,5.94s5.67-2.31,5.67-5.94v-13.8H641v14c0,4.71-2.84,7.86-8,7.86s-7.94-3.15-7.94-7.86v-14Z"/><path d="M646.52,117h2v3.3a5.11,5.11,0,0,1,5.13-3.66c3.35,0,5.1,2.07,5.1,6.09V132h-2.11v-9.15c0-2.91-1.26-4.41-3.62-4.41-2.7,0-4.41,2.16-4.41,5.67V132h-2.07Z"/><path d="M675.52,125H664.64c0,3.39,1.88,5.46,4.8,5.46a4.21,4.21,0,0,0,4.22-3.21l1.78.72a6.09,6.09,0,0,1-6.16,4.35c-4.26,0-6.75-2.73-6.75-7.77s2.53-8,6.66-8,6.33,2.4,6.33,7Zm-2.12-2c0-3.09-1.57-4.74-4.24-4.74s-4.47,1.92-4.52,5h8.76Z"/><path d="M687.91,117h2v3.18a5.3,5.3,0,0,1,5.12-3.54c3.69,0,6.09,3.15,6.09,7.86s-2.55,7.86-6.24,7.86a5.06,5.06,0,0,1-4.89-3.18v8.67h-2.07Zm11,7.5c0-3.72-1.62-6-4.38-6s-4.56,2.34-4.56,5.64v.66c0,3.36,1.68,5.7,4.45,5.7S698.89,128.21,698.89,124.49Z"/><path d="M705.26,111h2.36v3.3h-2.36Zm.14,6h2.08v15H705.4Z"/><path d="M724.75,125H713.86c0,3.39,1.89,5.46,4.8,5.46a4.21,4.21,0,0,0,4.23-3.21l1.77.72a6.07,6.07,0,0,1-6.15,4.35c-4.26,0-6.74-2.73-6.74-7.77s2.51-8,6.65-8,6.33,2.4,6.33,7Zm-7.53-10.44-3.57-4.29h2.58l3,4.29Zm5.4,8.46c0-3.09-1.56-4.74-4.23-4.74s-4.47,1.92-4.53,5h8.76Z"/><path d="M727.78,124.49c0-4.89,2.61-7.86,6.81-7.86a5.67,5.67,0,0,1,6.06,5.43l-2.13.24c-.3-2.49-1.74-3.84-4-3.84-2.79,0-4.5,2.25-4.5,6s1.71,6.06,4.59,6.06c2.25,0,3.66-1.35,4-3.84l2,.3c-.54,3.39-2.76,5.37-6.06,5.37C730.42,132.35,727.78,129.32,727.78,124.49Z"/><path d="M756.55,125H745.66c0,3.39,1.89,5.46,4.8,5.46a4.21,4.21,0,0,0,4.23-3.21l1.77.72a6.07,6.07,0,0,1-6.15,4.35c-4.26,0-6.75-2.73-6.75-7.77s2.52-8,6.66-8,6.33,2.4,6.33,7Zm-2.13-2c0-3.09-1.56-4.74-4.23-4.74s-4.47,1.92-4.53,5h8.76Z"/><path d="M767.53,124.49c0-4.62,2.61-7.86,6.42-7.86a4.78,4.78,0,0,1,4.71,3.09v-9.48h2.1V132h-2v-3.18a5.23,5.23,0,0,1-5.07,3.54C770,132.35,767.53,129.17,767.53,124.49Zm11.16.33v-.63c0-3.42-1.65-5.7-4.44-5.7s-4.5,2.25-4.5,6,1.68,6,4.47,6S778.69,128.15,778.69,124.82Z"/><path d="M798.16,125H787.27c0,3.39,1.89,5.46,4.8,5.46a4.21,4.21,0,0,0,4.23-3.21l1.77.72a6.07,6.07,0,0,1-6.15,4.35c-4.26,0-6.75-2.73-6.75-7.77s2.52-8,6.66-8,6.33,2.4,6.33,7Zm-2.13-2c0-3.09-1.56-4.74-4.23-4.74s-4.47,1.92-4.53,5H796Z"/><path d="M810.55,117h2v3.3a5.11,5.11,0,0,1,5.13-3.66c3.36,0,5.1,2.07,5.1,6.09V132h-2.1v-9.15c0-2.91-1.26-4.41-3.63-4.41-2.7,0-4.41,2.16-4.41,5.67V132h-2.07Z"/><path d="M826.63,128a3.79,3.79,0,0,1,1.83-3.36,12.9,12.9,0,0,1,4.92-1.35l3.33-.39v-.24c0-3.09-1.08-4.32-3.63-4.32-2.25,0-3.63,1.17-3.75,3.3h-2.25c.18-3.09,2.52-5,6-5,4,0,5.76,1.86,5.76,6.21v3.9a21.14,21.14,0,0,0,.48,5.25H837.1a20.58,20.58,0,0,1-.27-3,5.14,5.14,0,0,1-5.22,3.36C828.61,132.35,826.63,130.61,826.63,128Zm10.11-2.58v-1l-4.26.6c-2.55.36-3.66,1.23-3.66,2.88s1.26,2.64,3.27,2.64C834.88,130.61,836.74,128.51,836.74,125.45Z"/><path d="M841.84,117h2.76v-4l2.1-.9V117h3.87v1.74H846.7v9c0,1.77.78,2.55,2.34,2.55a6.12,6.12,0,0,0,1.53-.18V132a7.07,7.07,0,0,1-2.07.27c-2.91,0-3.9-1.77-3.9-4.44v-9.09h-2.76Z"/><path d="M854.08,126.5V117h2.07v9.3c0,2.94,1.38,4.26,3.42,4.26,2.73,0,4.38-2.34,4.38-5.37V117h2.1v15h-2V128.9a5.14,5.14,0,0,1-4.86,3.45C855.46,132.35,854.08,130.07,854.08,126.5Z"/><path d="M878.35,116.63a3.63,3.63,0,0,1,.57,0v2h-.24a4.39,4.39,0,0,0-3.21,1.14c-1.38,1.38-1.65,3.39-1.65,5.28V132h-2.07V117h2v3.66C874.39,118.34,876,116.63,878.35,116.63Z"/><path d="M893.8,125H882.91c0,3.39,1.89,5.46,4.8,5.46a4.21,4.21,0,0,0,4.23-3.21l1.77.72a6.07,6.07,0,0,1-6.15,4.35c-4.26,0-6.75-2.73-6.75-7.77s2.52-8,6.66-8,6.33,2.4,6.33,7Zm-2.13-2c0-3.09-1.56-4.74-4.23-4.74s-4.47,1.92-4.53,5h8.76Z"/><path d="M896.11,130l5-6.24-5-6.24h2.22l5.16,6.24-5.1,6.24Zm5.61,0,5-6.24-5-6.24h2.22l5.16,6.24L903.94,130Z"/><path d="M37.13,123.74l5.13-6.24h2.22l-5,6.24,5,6.24H42.23Zm5.61,0,5.13-6.24h2.22l-5,6.24,5,6.24H47.84Z"/><path d="M56,110.69v13.8c0,3.63,2,5.94,5.64,5.94s5.67-2.31,5.67-5.94v-13.8h2.34v14c0,4.71-2.85,7.86-8,7.86s-8-3.15-8-7.86v-14Z"/><path d="M75.2,117h2v3.3a5.11,5.11,0,0,1,5.13-3.66c3.36,0,5.1,2.07,5.1,6.09V132h-2.1v-9.15c0-2.91-1.26-4.41-3.63-4.41-2.7,0-4.41,2.16-4.41,5.67V132H75.2Z"/><path d="M104.21,125H93.32c0,3.39,1.89,5.46,4.8,5.46a4.21,4.21,0,0,0,4.23-3.21l1.77.72A6.07,6.07,0,0,1,98,132.35c-4.26,0-6.75-2.73-6.75-7.77s2.52-8,6.66-8,6.33,2.4,6.33,7Zm-2.13-2c0-3.09-1.56-4.74-4.23-4.74s-4.47,1.92-4.53,5h8.76Z"/><path d="M128.18,125H117.29c0,3.39,1.89,5.46,4.8,5.46a4.19,4.19,0,0,0,4.22-3.21l1.78.72a6.08,6.08,0,0,1-6.15,4.35c-4.26,0-6.75-2.73-6.75-7.77s2.52-8,6.66-8,6.33,2.4,6.33,7Zm-2.13-2c0-3.09-1.57-4.74-4.24-4.74s-4.46,1.92-4.52,5h8.76Z"/><path d="M131.21,127.7l2.13-.36c.36,2.13,1.89,3.27,4.26,3.27,2.19,0,3.42-1.05,3.42-2.55s-.84-2.1-2.43-2.4l-2.91-.57c-2.49-.48-3.9-1.83-3.9-4.11,0-2.52,2.13-4.35,5.52-4.35s5.49,1.47,5.79,4.14l-2.1.45c-.3-1.83-1.59-2.88-3.78-2.88s-3.39,1-3.39,2.55c0,1.41.93,2.1,2.49,2.4l2.94.57c2.67.54,3.84,1.83,3.84,4,0,2.67-2,4.47-5.55,4.47S131.69,130.7,131.21,127.7Z"/><path d="M147.56,117h2v3.18a5.32,5.32,0,0,1,5.13-3.54c3.68,0,6.09,3.15,6.09,7.86s-2.56,7.86-6.24,7.86a5.05,5.05,0,0,1-4.89-3.18v8.67h-2.07Zm11,7.5c0-3.72-1.61-6-4.38-6s-4.55,2.34-4.55,5.64v.66c0,3.36,1.67,5.7,4.44,5.7S158.53,128.21,158.53,124.49Z"/><path d="M167.26,132h-2.07V110.24h2.07Z"/><path d="M171.77,128a3.79,3.79,0,0,1,1.83-3.36,12.9,12.9,0,0,1,4.92-1.35l3.32-.39v-.24c0-3.09-1.07-4.32-3.63-4.32-2.24,0-3.62,1.17-3.74,3.3h-2.25c.18-3.09,2.51-5,6-5,4,0,5.75,1.86,5.75,6.21v3.9a21.14,21.14,0,0,0,.48,5.25h-2.19a20.58,20.58,0,0,1-.27-3,5.14,5.14,0,0,1-5.22,3.36C173.74,132.35,171.77,130.61,171.77,128Zm10.1-2.58v-1l-4.26.6c-2.55.36-3.66,1.23-3.66,2.88s1.27,2.64,3.28,2.64C180,130.61,181.87,128.51,181.87,125.45Z"/><path d="M189.25,117h2v3.3a5.11,5.11,0,0,1,5.13-3.66c3.36,0,5.1,2.07,5.1,6.09V132h-2.1v-9.15c0-2.91-1.26-4.41-3.63-4.41-2.7,0-4.41,2.16-4.41,5.67V132h-2.07Z"/><path d="M205.33,128a3.79,3.79,0,0,1,1.83-3.36,12.9,12.9,0,0,1,4.92-1.35l3.33-.39v-.24c0-3.09-1.08-4.32-3.63-4.32-2.25,0-3.63,1.17-3.75,3.3h-2.25c.18-3.09,2.52-5,6-5,4,0,5.76,1.86,5.76,6.21v3.9A21.14,21.14,0,0,0,218,132H215.8a20.58,20.58,0,0,1-.27-3,5.14,5.14,0,0,1-5.22,3.36C207.31,132.35,205.33,130.61,205.33,128Zm10.11-2.58v-1l-4.26.6c-2.55.36-3.66,1.23-3.66,2.88s1.26,2.64,3.27,2.64C213.58,130.61,215.44,128.51,215.44,125.45Z"/><path d="M221.29,124.49c0-4.62,2.61-7.86,6.42-7.86a4.78,4.78,0,0,1,4.71,3.09v-9.48h2.1V132h-2v-3.18a5.23,5.23,0,0,1-5.07,3.54C223.75,132.35,221.29,129.17,221.29,124.49Zm11.16.33v-.63c0-3.42-1.65-5.7-4.44-5.7s-4.5,2.25-4.5,6,1.68,6,4.47,6S232.45,128.15,232.45,124.82Z"/><path d="M251.92,125H241c0,3.39,1.89,5.46,4.8,5.46a4.21,4.21,0,0,0,4.23-3.21l1.77.72a6.07,6.07,0,0,1-6.15,4.35c-4.26,0-6.74-2.73-6.74-7.77s2.51-8,6.65-8,6.33,2.4,6.33,7Zm-2.13-2c0-3.09-1.56-4.74-4.23-4.74s-4.47,1.92-4.53,5h8.76Z"/><path d="M264.31,117h2v3.18a5.32,5.32,0,0,1,5.13-3.54c3.69,0,6.09,3.15,6.09,7.86s-2.55,7.86-6.24,7.86a5.06,5.06,0,0,1-4.89-3.18v8.67h-2.07Zm11,7.5c0-3.72-1.62-6-4.38-6s-4.56,2.34-4.56,5.64v.66c0,3.36,1.68,5.7,4.44,5.7S275.29,128.21,275.29,124.49Z"/><path d="M280.39,124.49c0-4.89,2.73-7.86,6.9-7.86s6.87,3,6.87,7.86-2.73,7.86-6.87,7.86S280.39,129.38,280.39,124.49Zm11.55,0c0-3.9-1.77-6-4.65-6s-4.68,2.13-4.68,6,1.77,6,4.68,6S291.94,128.39,291.94,124.49Z"/><path d="M298,126.5V117h2.07v9.3c0,2.94,1.38,4.26,3.42,4.26,2.73,0,4.38-2.34,4.38-5.37V117H310v15h-2V128.9a5.14,5.14,0,0,1-4.86,3.45C299.38,132.35,298,130.07,298,126.5Z"/><path d="M322.27,116.63a3.63,3.63,0,0,1,.57,0v2h-.24a4.39,4.39,0,0,0-3.21,1.14c-1.38,1.38-1.65,3.39-1.65,5.28V132h-2.07V117h1.95v3.66C318.31,118.34,320,116.63,322.27,116.63Z"/><path d="M336.52,132h-2.07V110.24h2.07Z"/><path d="M354,125H343.06c0,3.39,1.89,5.46,4.8,5.46a4.21,4.21,0,0,0,4.23-3.21l1.77.72a6.07,6.07,0,0,1-6.15,4.35c-4.26,0-6.75-2.73-6.75-7.77s2.52-8,6.66-8,6.33,2.4,6.33,7Zm-2.13-2c0-3.09-1.56-4.74-4.23-4.74s-4.47,1.92-4.53,5h8.76Z"/><path d="M376.06,129a5.1,5.1,0,0,1-4.95,3.36c-3.69,0-6.18-3.09-6.18-7.86s2.67-7.86,6.39-7.86a4.81,4.81,0,0,1,4.83,3.18l.45-2.82h1.56v20.85h-2.1Zm0-4.11v-.75c0-3.36-1.65-5.64-4.47-5.64s-4.47,2.25-4.47,6,1.65,6,4.44,6S376.09,128.21,376.09,124.88Z"/><path d="M383.38,126.5V117h2.07v9.3c0,2.94,1.38,4.26,3.42,4.26,2.73,0,4.38-2.34,4.38-5.37V117h2.1v15h-2V128.9a5.14,5.14,0,0,1-4.86,3.45C384.76,132.35,383.38,130.07,383.38,126.5Z"/><path d="M399.7,128a3.79,3.79,0,0,1,1.83-3.36,12.9,12.9,0,0,1,4.92-1.35l3.33-.39v-.24c0-3.09-1.08-4.32-3.63-4.32-2.25,0-3.63,1.17-3.75,3.3h-2.25c.18-3.09,2.52-5,6-5,4,0,5.76,1.86,5.76,6.21v3.9a21.14,21.14,0,0,0,.48,5.25h-2.19a20.58,20.58,0,0,1-.27-3,5.14,5.14,0,0,1-5.22,3.36C401.68,132.35,399.7,130.61,399.7,128Zm10.11-2.58v-1l-4.26.6c-2.55.36-3.66,1.23-3.66,2.88s1.26,2.64,3.27,2.64C408,130.61,409.81,128.51,409.81,125.45Z"/><path d="M423.79,116.63a3.63,3.63,0,0,1,.57,0v2h-.24a4.39,4.39,0,0,0-3.21,1.14c-1.38,1.38-1.65,3.39-1.65,5.28V132h-2.07V117h1.95v3.66C419.83,118.34,421.48,116.63,423.79,116.63Z"/><path d="M426.16,117h2.76v-4l2.1-.9V117h3.87v1.74H431v9c0,1.77.78,2.55,2.34,2.55a6.12,6.12,0,0,0,1.53-.18V132a7.07,7.07,0,0,1-2.07.27c-2.91,0-3.9-1.77-3.9-4.44v-9.09h-2.76Z"/><path d="M438.7,111h2.37v3.3H438.7Zm.15,6h2.07v15h-2.07Z"/><path d="M458.2,125H447.31c0,3.39,1.89,5.46,4.8,5.46a4.21,4.21,0,0,0,4.23-3.21l1.77.72a6.07,6.07,0,0,1-6.15,4.35c-4.26,0-6.75-2.73-6.75-7.77s2.52-8,6.66-8,6.33,2.4,6.33,7Zm-2.13-2c0-3.09-1.56-4.74-4.23-4.74s-4.47,1.92-4.53,5h8.76Z"/><path d="M469.24,116.63a3.63,3.63,0,0,1,.57,0v2h-.24a4.39,4.39,0,0,0-3.21,1.14c-1.38,1.38-1.65,3.39-1.65,5.28V132h-2.07V117h1.95v3.66C465.28,118.34,466.93,116.63,469.24,116.63Z"/><path d="M471.67,130l5-6.24-5-6.24h2.22l5.16,6.24-5.1,6.24Zm5.61,0,5-6.24-5-6.24h2.22l5.16,6.24L479.5,130Z"/><path d="M617.48,471.52l1.32-.18c0,2.15,1.44,2.93,3.21,2.93,2.14,0,3-1,3-2.34s-.88-1.73-2-2l-1.29-.37c-1.58-.46-2.87-1.24-2.87-3.13,0-1.68,1.09-3.39,4.21-3.39,2.26,0,4,1,4.07,3.38l-1.26.25a2.47,2.47,0,0,0-2.81-2.6c-2.32,0-2.85,1.3-2.85,2.27,0,1.22.91,1.77,2,2.07l1.22.36c1.58.45,2.89,1,2.89,3.13,0,1.6-.83,3.46-4.33,3.46C619.41,475.33,617.44,474.24,617.48,471.52Z"/><path d="M633.92,473.41a2.92,2.92,0,0,1-2.78,1.84c-1.49,0-3-.88-3-3.5,0-2.22,1.13-5.18,4.07-5.18a2.65,2.65,0,0,1,2.7,1.79l.53-1.59h.85l-2,11.51H633Zm.36-2,.09-.4c.44-2.33-.7-3.42-2.16-3.42-2.18,0-2.88,2.45-2.88,4.07,0,2.14,1.21,2.55,2.14,2.55C633.11,474.22,634,472.89,634.28,471.42Z"/><path d="M638.21,472.7a7.77,7.77,0,0,1,.1-1.21l.83-4.72h1.14l-.83,4.77a5.48,5.48,0,0,0-.1.94,1.61,1.61,0,0,0,1.81,1.74c1.82,0,2.43-1.77,2.66-3.1l.76-4.35h1.18l-1.47,8.28h-1.1l.33-1.82a2.84,2.84,0,0,1-2.78,2A2.32,2.32,0,0,1,638.21,472.7Z"/><path d="M647.12,472.89a2.26,2.26,0,0,1,.76-1.72,4.6,4.6,0,0,1,2.8-.92l2.53-.2,0-.28c.23-1.56-.28-2.24-1.7-2.24a2.09,2.09,0,0,0-2.39,1.82H648c.25-1.84,1.55-2.78,3.47-2.78,2.34,0,3.32,1.09,2.9,3.58L654,472.2a14.92,14.92,0,0,0-.23,2.85h-1.21a10.67,10.67,0,0,1,.15-1.66,3.11,3.11,0,0,1-3,1.86A2.35,2.35,0,0,1,647.12,472.89Zm5.86-1.45.1-.56-2.18.16c-1.84.15-2.52.81-2.52,1.8s.74,1.45,1.64,1.45A3.12,3.12,0,0,0,653,471.44Z"/><path d="M661.36,466.57a2.58,2.58,0,0,1,.53.05l-.22,1.14a1.78,1.78,0,0,0-.46-.05,2.07,2.07,0,0,0-1.47.5,4.63,4.63,0,0,0-1.43,2.85l-.73,4h-1.14l1.46-8.28H659l-.38,2.15C659.12,467.51,659.89,466.57,661.36,466.57Z"/><path d="M663.18,471.21v.29c0,2,1.09,2.72,2.42,2.72a2.41,2.41,0,0,0,2.38-1.77l1,.41a3.41,3.41,0,0,1-3.39,2.39c-1.65,0-3.51-.82-3.51-3.66,0-2.3,1.23-5,4.22-5a3,3,0,0,1,3.23,3.2,4.47,4.47,0,0,1-.23,1.44Zm.12-.95h5a2.32,2.32,0,0,0,.08-.64,1.93,1.93,0,0,0-2.11-2.14C664.56,467.48,663.61,468.69,663.3,470.26Z"/><path d="M677.7,463.29h1.79l1.74,9.46a4,4,0,0,1,.12,1h0a5.6,5.6,0,0,1,.46-1l5.1-9.46h1.84l-2.07,11.76h-1.19l1.65-9.37c.09-.43.17-.81.27-1.18h-.05a11.16,11.16,0,0,1-.56,1.24l-5,9.31h-1.24l-1.77-9.31a10.28,10.28,0,0,1-.11-1.24h0a9.07,9.07,0,0,1-.15,1.18l-1.66,9.37h-1.17Z"/><path d="M690,471.65c0-2.23,1.09-5.08,4.31-5.08a3.23,3.23,0,0,1,3.49,3.59c0,2.24-1.09,5.09-4.32,5.09C691.73,475.25,690,474.4,690,471.65Zm6.56-1.42c0-2-1.16-2.65-2.32-2.65-2.37,0-3,2.42-3,4,0,2,1.16,2.65,2.32,2.65C695.89,474.24,696.52,471.82,696.52,470.23Z"/><path d="M700.84,466.77h1.09l-.31,1.79a2.94,2.94,0,0,1,2.86-2,2.35,2.35,0,0,1,2.55,2.65,6.61,6.61,0,0,1-.1,1.11l-.81,4.72H705l.85-4.77a5.38,5.38,0,0,0,.08-.85,1.64,1.64,0,0,0-1.82-1.83c-1.91,0-2.53,1.77-2.77,3.09l-.78,4.36h-1.14Z"/><path d="M709.07,466.77h1.54l.38-2.19,1.26-.49-.48,2.68h2.12l-.17,1H711.6l-.84,4.78c-.25,1.38.43,1.59,1.12,1.59a4,4,0,0,0,.73-.06l-.18,1a3.24,3.24,0,0,1-.94.14c-1.23,0-2.26-.72-1.87-2.85l.82-4.62H708.9Z"/><path d="M719.05,469.9l-.18,1.09h-4.78l.18-1.09Z"/><path d="M729.55,471.59c0,1.88-1.27,3.46-4.33,3.46h-4.46l2.07-11.76h4c2,0,3.4.85,3.4,2.77a2.94,2.94,0,0,1-2.77,3A2.35,2.35,0,0,1,729.55,471.59Zm-1.27,0c0-1.49-1-2-2.44-2H723l-.78,4.37h2.95C727.53,474,728.28,472.86,728.28,471.57Zm-4.34-7.19-.73,4.11h2.73c2.24,0,2.93-1.11,2.93-2.27,0-1.32-.87-1.84-2.15-1.84Z"/><path d="M732.82,475.05h-1.15l2.12-12h1.15Z"/><path d="M735.72,472.89a2.22,2.22,0,0,1,.76-1.72,4.59,4.59,0,0,1,2.79-.92l2.54-.2.05-.28c.23-1.56-.28-2.24-1.71-2.24a2.08,2.08,0,0,0-2.38,1.82h-1.18c.25-1.84,1.56-2.78,3.48-2.78,2.33,0,3.31,1.09,2.9,3.58l-.37,2.05a15.79,15.79,0,0,0-.23,2.85h-1.21a12,12,0,0,1,.15-1.66,3.11,3.11,0,0,1-2.95,1.86A2.34,2.34,0,0,1,735.72,472.89Zm5.86-1.45.1-.56-2.19.16c-1.84.15-2.52.81-2.52,1.8s.75,1.45,1.64,1.45A3.13,3.13,0,0,0,741.58,471.44Z"/><path d="M746.49,466.77h1.1l-.32,1.79a3,3,0,0,1,2.87-2,2.35,2.35,0,0,1,2.55,2.65,7.86,7.86,0,0,1-.1,1.11l-.81,4.72h-1.16l.84-4.77a5.38,5.38,0,0,0,.08-.85,1.64,1.64,0,0,0-1.82-1.83c-1.9,0-2.53,1.77-2.76,3.09l-.78,4.36H745Z"/><path d="M754.59,471.6c0-2.18,1.11-5,4.26-5,1.77,0,3.21.91,3.18,3l-1.11.13a1.94,1.94,0,0,0-2.09-2.12c-2.32,0-3,2.37-3,4,0,2,1.15,2.64,2.26,2.64a2.41,2.41,0,0,0,2.38-2.12l1.13.16a3.46,3.46,0,0,1-3.56,3C756.36,475.25,754.59,474.38,754.59,471.6Z"/><path d="M772.86,469.9l-.18,1.09h-4.79l.18-1.09Z"/><path d="M779,470.31c0-3.51,1.77-7.3,6.12-7.3,2.57,0,4.08,1.28,4.28,3.58l-1.3.16a2.72,2.72,0,0,0-3.06-2.65c-3.36,0-4.67,3.18-4.67,6.21,0,2.88,1.31,3.91,3.23,3.91a4.19,4.19,0,0,0,4.16-3.71l.08-.46h-3.64l.18-1.1h4.82l-1.08,6.1h-1l.22-2.11a4.16,4.16,0,0,1-3.95,2.39C781.1,475.33,779,474,779,470.31Z"/><path d="M792.08,471.21v.29c0,2,1.1,2.72,2.42,2.72a2.42,2.42,0,0,0,2.39-1.77l1,.41a3.43,3.43,0,0,1-3.4,2.39c-1.65,0-3.51-.82-3.51-3.66,0-2.3,1.23-5,4.22-5a3,3,0,0,1,3.23,3.2,4.21,4.21,0,0,1-.23,1.44Zm.12-.95h5a2.29,2.29,0,0,0,.09-.64,1.94,1.94,0,0,0-2.12-2.14C793.46,467.48,792.51,468.69,792.2,470.26Z"/><path d="M801.44,466.77h1.09l-.31,1.79a3,3,0,0,1,2.86-2,2.35,2.35,0,0,1,2.55,2.65,6.61,6.61,0,0,1-.1,1.11l-.81,4.72h-1.16l.85-4.77a5.38,5.38,0,0,0,.08-.85,1.64,1.64,0,0,0-1.82-1.83c-1.9,0-2.53,1.77-2.77,3.09l-.77,4.36H800Z"/><path d="M810.68,471.21v.29c0,2,1.09,2.72,2.42,2.72a2.41,2.41,0,0,0,2.38-1.77l1,.41a3.42,3.42,0,0,1-3.39,2.39c-1.66,0-3.51-.82-3.51-3.66,0-2.3,1.22-5,4.22-5a3,3,0,0,1,3.23,3.2,4.47,4.47,0,0,1-.23,1.44Zm.12-.95h5a2.32,2.32,0,0,0,.08-.64,1.94,1.94,0,0,0-2.12-2.14C812.06,467.48,811.11,468.69,810.8,470.26Zm2.74-4.82-2.4-2.36h1.44l2,2.36Z"/><path d="M818.45,466.77h1.22l1,5.86a12.14,12.14,0,0,1,.13,1.22h0c.15-.38.35-.76.58-1.22l3.1-5.86h1.27l-4.52,8.28h-1.26Z"/><path d="M827,471.21v.29c0,2,1.09,2.72,2.42,2.72a2.41,2.41,0,0,0,2.38-1.77l1,.41a3.43,3.43,0,0,1-3.39,2.39c-1.66,0-3.51-.82-3.51-3.66,0-2.3,1.22-5,4.22-5a3,3,0,0,1,3.23,3.2,4.23,4.23,0,0,1-.24,1.44Zm.11-.95h5a2.32,2.32,0,0,0,.08-.64,1.94,1.94,0,0,0-2.12-2.14C828.38,467.48,827.44,468.69,827.12,470.26Z"/><path d="M46.74,470.31c0-3.51,1.77-7.3,6.12-7.3,2.57,0,4.08,1.28,4.27,3.58l-1.29.16a2.72,2.72,0,0,0-3.06-2.65c-3.36,0-4.67,3.18-4.67,6.21,0,2.88,1.31,3.91,3.23,3.91a4.17,4.17,0,0,0,4.15-3.71l.09-.46H51.94l.18-1.1h4.82l-1.08,6.1h-1l.21-2.11a4.14,4.14,0,0,1-3.94,2.39C48.82,475.33,46.74,474,46.74,470.31Z"/><path d="M59.82,475.05H58.68l2.12-12h1.14Z"/><path d="M62.72,472.89a2.26,2.26,0,0,1,.76-1.72,4.6,4.6,0,0,1,2.8-.92l2.53-.2,0-.28c.23-1.56-.28-2.24-1.71-2.24a2.08,2.08,0,0,0-2.38,1.82H63.59c.25-1.84,1.56-2.78,3.48-2.78,2.34,0,3.31,1.09,2.9,3.58l-.37,2.05a15.79,15.79,0,0,0-.23,2.85H68.16a12,12,0,0,1,.15-1.66,3.09,3.09,0,0,1-2.94,1.86A2.35,2.35,0,0,1,62.72,472.89Zm5.86-1.45.1-.56-2.19.16c-1.84.15-2.51.81-2.51,1.8s.74,1.45,1.63,1.45A3.13,3.13,0,0,0,68.58,471.44Z"/><path d="M72,466.77h1.54l.38-2.19,1.26-.49-.48,2.68h2.12l-.17,1H74.52l-.84,4.78c-.25,1.38.43,1.59,1.13,1.59a3.94,3.94,0,0,0,.72-.06l-.18,1a3.24,3.24,0,0,1-.94.14c-1.23,0-2.25-.72-1.87-2.85l.82-4.62H71.82Z"/><path d="M78,466.77h1.54l.39-2.19,1.25-.49-.48,2.68h2.12l-.16,1H80.57l-.85,4.78c-.24,1.38.43,1.59,1.13,1.59a4,4,0,0,0,.73-.06l-.18,1a3.31,3.31,0,0,1-1,.14c-1.22,0-2.25-.72-1.87-2.85l.83-4.62H77.87Z"/><path d="M85.07,466.77h1.09l-.33,1.75a3.17,3.17,0,0,1,2.87-1.95c1.39,0,3,.81,3,3.46,0,2.25-1.19,5.22-4,5.22a2.64,2.64,0,0,1-2.7-1.76l-.84,4.79H83Zm5.42,3.29c0-2-1.11-2.46-2.09-2.46-1.77,0-2.65,1.6-2.88,3l-.1.55c-.32,1.78.41,3.11,2.07,3.11C89.87,474.22,90.49,471.54,90.49,470.06Z"/><path d="M92.94,472.89a2.26,2.26,0,0,1,.76-1.72,4.6,4.6,0,0,1,2.8-.92l2.53-.2,0-.28c.23-1.56-.28-2.24-1.7-2.24A2.09,2.09,0,0,0,95,469.35H93.82c.24-1.84,1.55-2.78,3.47-2.78,2.34,0,3.31,1.09,2.9,3.58l-.36,2.05a15.07,15.07,0,0,0-.24,2.85h-1.2a12,12,0,0,1,.14-1.66,3.08,3.08,0,0,1-2.94,1.86A2.35,2.35,0,0,1,92.94,472.89Zm5.86-1.45.1-.56-2.19.16c-1.83.15-2.51.81-2.51,1.8s.74,1.45,1.64,1.45A3.13,3.13,0,0,0,98.8,471.44Z"/><path d="M107.18,466.57a2.58,2.58,0,0,1,.53.05l-.22,1.14a1.78,1.78,0,0,0-.46-.05,2.07,2.07,0,0,0-1.47.5,4.58,4.58,0,0,0-1.43,2.85l-.73,4h-1.14l1.46-8.28h1.09l-.38,2.15C104.94,467.51,105.71,466.57,107.18,466.57Z"/><path d="M112.68,470l2.46,5h-1.35l-2-4.24-1.92,1.64-.46,2.6h-1.14l2.12-12h1.14l-1.39,7.9,4.73-4.17h1.53Z"/><path d="M116.42,476.64a1.65,1.65,0,0,0,1.14-1.49l0-.1h-.83l.32-1.86h1.57l-.32,1.76c-.26,1.55-.94,2.05-1.7,2.28Z"/><path d="M125.73,470.11c0-3.31,1.7-7.1,6-7.1,2.48,0,4.93,1.34,4.93,5.22,0,3.31-1.7,7.1-6,7.1C128.18,475.33,125.73,474,125.73,470.11Zm9.55-1.83c0-3.25-1.82-4.18-3.58-4.18-3.46,0-4.6,3.36-4.6,6,0,3.25,1.82,4.18,3.58,4.18C134.14,474.24,135.28,470.88,135.28,468.28Z"/><path d="M139.47,466.77h1.09l-.33,1.75a3.17,3.17,0,0,1,2.87-1.95c1.39,0,3,.81,3,3.46,0,2.25-1.19,5.22-4,5.22a2.64,2.64,0,0,1-2.7-1.76l-.84,4.79h-1.14Zm5.42,3.29c0-2-1.11-2.46-2.09-2.46-1.77,0-2.65,1.6-2.88,3l-.1.55c-.32,1.78.41,3.11,2.07,3.11C144.27,474.22,144.89,471.54,144.89,470.06Z"/><path d="M152.45,467.73h-2.13L149,475.05h-1.14l1.29-7.32H147.6l.17-1h1.55l.25-1.51a2.45,2.45,0,0,1,2.55-2.32,3.2,3.2,0,0,1,1.16.2l-.18,1a2.6,2.6,0,0,0-.91-.17c-1,0-1.33.61-1.47,1.41l-.25,1.39h2.15Zm2.17-1h1.14l-1.45,8.28h-1.14Zm.45-3.31h1.32l-.33,1.82h-1.31Z"/><path d="M162,470l2.47,5h-1.36l-2-4.24-1.92,1.64-.46,2.6h-1.14l2.12-12h1.14l-1.39,7.9,4.73-4.17h1.53Z"/><path d="M165.84,471.65c0-2.23,1.09-5.08,4.3-5.08a3.23,3.23,0,0,1,3.49,3.59c0,2.24-1.09,5.09-4.32,5.09C167.61,475.25,165.84,474.4,165.84,471.65Zm6.55-1.42c0-2-1.16-2.65-2.32-2.65-2.36,0-3,2.42-3,4,0,2,1.16,2.65,2.32,2.65C171.76,474.24,172.39,471.82,172.39,470.23Z"/><path d="M176.71,466.77h1.1l-.32,1.79a3,3,0,0,1,2.87-2,2.35,2.35,0,0,1,2.55,2.65,7.86,7.86,0,0,1-.1,1.11l-.81,4.72h-1.16l.84-4.77a5.38,5.38,0,0,0,.08-.85,1.64,1.64,0,0,0-1.82-1.83c-1.9,0-2.53,1.77-2.76,3.09l-.78,4.36h-1.14Z"/><path d="M194.25,469.9l-.18,1.09h-4.79l.19-1.09Z"/><path d="M207.83,464.38h-6.51l.18-1.09h7.95l-.2,1.19L200.83,474h7l-.2,1.1H199.2l.22-1.2Z"/><path d="M209.87,472.7a7.77,7.77,0,0,1,.1-1.21l.82-4.72h1.15l-.83,4.77a4.63,4.63,0,0,0-.1.94,1.61,1.61,0,0,0,1.8,1.74c1.83,0,2.44-1.77,2.67-3.1l.76-4.35h1.18l-1.48,8.28h-1.09l.33-1.82a2.84,2.84,0,0,1-2.78,2A2.32,2.32,0,0,1,209.87,472.7Zm2.48-9.21h1.31l-.3,1.76h-1.31Zm3.36,0H217l-.32,1.76h-1.3Z"/><path d="M224,466.57a2.58,2.58,0,0,1,.53.05l-.21,1.14a1.89,1.89,0,0,0-.46-.05,2.11,2.11,0,0,0-1.48.5,4.63,4.63,0,0,0-1.42,2.85l-.73,4h-1.14l1.45-8.28h1.1l-.38,2.15C221.79,467.51,222.55,466.57,224,466.57Z"/><path d="M226.48,466.77h1.14l-1.46,8.28H225Zm.44-3.31h1.33l-.33,1.82h-1.31Z"/><path d="M229.24,471.6c0-2.18,1.11-5,4.26-5,1.77,0,3.21.91,3.18,3l-1.11.13a1.94,1.94,0,0,0-2.09-2.12c-2.32,0-3,2.37-3,4,0,2,1.15,2.64,2.26,2.64a2.41,2.41,0,0,0,2.38-2.12l1.13.16a3.46,3.46,0,0,1-3.56,3C231,475.25,229.24,474.38,229.24,471.6Z"/><path d="M240.34,463h1.14l-.94,5.4a3,3,0,0,1,2.89-1.87,2.28,2.28,0,0,1,2.49,2.53,7.35,7.35,0,0,1-.1,1l-.86,4.9H243.8l.87-4.9a7.62,7.62,0,0,0,.07-.83A1.55,1.55,0,0,0,243,467.6c-1.86,0-2.59,1.57-2.85,3.09l-.78,4.36h-1.14Z"/><g class="cls-3"><g class="cls-4"><image width="1196" height="897" transform="translate(606.04 173.58) scale(0.31)" xlink:href="Sans%20titre%20-%2021.png"/></g></g><g class="cls-5"><g class="cls-6"><image width="1525" height="1147" transform="translate(36 173.72) scale(0.24 0.24)" xlink:href="Sans%20titre%20-%2022.png"/></g></g><path d="M987.19,201.8l-1.56,8.82c-.53,3,.82,4.34,3.36,4.34,2.9,0,3.74-1.8,4.14-4.1l1.6-9.06h1.56l-1.7,9.58c-.48,2.66-1.88,5-5.7,5-3.6,0-5.49-2-4.79-5.9l1.55-8.64Z"/><path d="M999.23,206h1.32l-.38,2.16a3.56,3.56,0,0,1,3.46-2.4c1.4,0,3.08.6,3.08,3.2a8.51,8.51,0,0,1-.12,1.34l-1,5.7h-1.4l1-5.76a6.5,6.5,0,0,0,.1-1,2,2,0,0,0-2.2-2.22c-2.3,0-3.06,2.14-3.34,3.74l-.94,5.26h-1.38Z"/><path d="M1024.65,204.48l-.22,1.26a2.53,2.53,0,0,0-.82-.12,1.51,1.51,0,0,0-1.6,1.26,2.82,2.82,0,0,1,.62,1.9,3.61,3.61,0,0,1-3.9,3.7,4.2,4.2,0,0,1-2-.46c-1,.32-1.29.8-1.29,1.26,0,.72.62.94,1.93,1l1.78.06c1.52,0,3.28.4,3.28,2.46,0,1.56-1,3.36-5.1,3.36-2.1,0-4.35-.5-4.35-2.58,0-1,.56-1.86,2.23-2.38a1.53,1.53,0,0,1-1.07-1.5c0-.86.53-1.6,2-2.1a2.82,2.82,0,0,1-.81-2.12,3.63,3.63,0,0,1,3.92-3.7,4,4,0,0,1,2.16.54,2.55,2.55,0,0,1,2.54-1.9A3.12,3.12,0,0,1,1024.65,204.48Zm-7.52,11a7.87,7.87,0,0,1-1-.08c-1.39.44-1.74,1.14-1.74,1.86,0,1.42,1.5,1.7,3,1.7,2.88,0,3.54-1.14,3.54-2,0-1.22-1-1.4-2-1.42Zm4.18-6.62a2,2,0,0,0-2.26-2,2.34,2.34,0,0,0-2.46,2.52,2,2,0,0,0,2.24,2A2.36,2.36,0,0,0,1021.31,208.88Z"/><path d="M1030.55,205.76a2.9,2.9,0,0,1,.64.06l-.26,1.38a2.07,2.07,0,0,0-.56-.06,2.53,2.53,0,0,0-1.78.6,5.63,5.63,0,0,0-1.73,3.44L1026,216h-1.38l1.76-10h1.33l-.46,2.6C1027.85,206.9,1028.77,205.76,1030.55,205.76Z"/><path d="M1031.08,213.4a2.69,2.69,0,0,1,.92-2.08,5.62,5.62,0,0,1,3.39-1.12l3.06-.24.06-.34c.28-1.88-.34-2.7-2.06-2.7s-2.63.72-2.89,2.2h-1.41c.29-2.22,1.87-3.36,4.2-3.36,2.82,0,4,1.32,3.5,4.32l-.44,2.48a18.57,18.57,0,0,0-.28,3.44h-1.46a14,14,0,0,1,.18-2,3.74,3.74,0,0,1-3.56,2.24C1032.42,216.24,1031.08,215.22,1031.08,213.4Zm7.09-1.76.12-.68-2.64.2c-2.22.18-3.05,1-3.05,2.18s.91,1.74,2,1.74C1036.41,215.08,1037.79,213.7,1038.17,211.64Z"/><path d="M1044.1,206h1.32l-.38,2.16a3.56,3.56,0,0,1,3.47-2.4c1.4,0,3.08.6,3.08,3.2a8.51,8.51,0,0,1-.12,1.34l-1,5.7h-1.4l1-5.76a6.5,6.5,0,0,0,.1-1A2,2,0,0,0,1048,207c-2.31,0-3.07,2.14-3.35,3.74l-.94,5.26h-1.38Z"/><path d="M1053.84,212c0-2.68,1.38-6.26,4.89-6.26A3.13,3.13,0,0,1,1062,208l1.12-6.52h1.4l-2.56,14.5h-1.32l.34-1.94a3.84,3.84,0,0,1-3.47,2.18C1055.78,216.24,1053.84,215.18,1053.84,212Zm7.49-.4.1-.48c.54-2.82-.84-4.14-2.61-4.14-2.64,0-3.48,3-3.48,4.92,0,2.58,1.46,3.08,2.59,3.08C1059.91,215,1061,213.4,1061.33,211.62Z"/><path d="M1072.4,211.36v.36c0,2.46,1.32,3.28,2.92,3.28a2.92,2.92,0,0,0,2.89-2.14l1.16.5a4.14,4.14,0,0,1-4.11,2.88c-2,0-4.24-1-4.24-4.42,0-2.78,1.48-6.06,5.1-6.06a3.58,3.58,0,0,1,3.91,3.86,5.2,5.2,0,0,1-.28,1.74Zm.14-1.14h6a2.48,2.48,0,0,0,.11-.78,2.34,2.34,0,0,0-2.57-2.58C1074.06,206.86,1072.92,208.32,1072.54,210.22Z"/><path d="M1081.48,213.12l1.4-.22c.18,1.62,1.34,2.18,2.76,2.18,1.84,0,2.34-1,2.34-1.86s-.5-1.28-1.5-1.5l-1.74-.4a2.51,2.51,0,0,1-2.24-2.54c0-1.64,1.3-3,3.72-3,1.93,0,3.88.82,3.93,2.8l-1.37.3c-.08-1.44-1.3-2-2.64-2-1.6,0-2.24.78-2.24,1.76s.44,1.26,1.58,1.52l1.67.38c1.71.4,2.28,1.32,2.28,2.6,0,1.62-1.27,3.08-3.91,3.08C1083.62,216.24,1081.68,215.46,1081.48,213.12Z"/><path d="M1093.64,206H1095l-.4,2.12a3.83,3.83,0,0,1,3.46-2.36c1.69,0,3.67,1,3.67,4.18,0,2.72-1.44,6.3-4.85,6.3a3.2,3.2,0,0,1-3.26-2.12l-1,5.78h-1.38Zm6.55,4c0-2.4-1.34-3-2.53-3-2.14,0-3.2,1.94-3.48,3.58l-.12.66c-.38,2.16.5,3.76,2.5,3.76C1099.44,215,1100.19,211.76,1100.19,210Z"/><path d="M1103.12,213.4a2.69,2.69,0,0,1,.92-2.08,5.58,5.58,0,0,1,3.38-1.12l3.06-.24.07-.34c.28-1.88-.35-2.7-2.07-2.7s-2.62.72-2.88,2.2h-1.42c.3-2.22,1.88-3.36,4.2-3.36,2.83,0,4,1.32,3.51,4.32l-.44,2.48a18.57,18.57,0,0,0-.28,3.44h-1.47a15.69,15.69,0,0,1,.19-2,3.76,3.76,0,0,1-3.57,2.24C1104.46,216.24,1103.12,215.22,1103.12,213.4Zm7.08-1.76.12-.68-2.64.2c-2.22.18-3,1-3,2.18s.9,1.74,2,1.74C1108.44,215.08,1109.82,213.7,1110.2,211.64Z"/><path d="M1114.24,211.84c0-2.64,1.34-6.08,5.14-6.08,2.14,0,3.89,1.1,3.85,3.62l-1.34.16a2.34,2.34,0,0,0-2.53-2.56c-2.8,0-3.62,2.86-3.62,4.86,0,2.42,1.38,3.18,2.72,3.18a2.91,2.91,0,0,0,2.89-2.56l1.36.2a4.17,4.17,0,0,1-4.31,3.58C1116.38,216.24,1114.24,215.2,1114.24,211.84Z"/><path d="M1126.28,211.36v.36c0,2.46,1.32,3.28,2.92,3.28a2.91,2.91,0,0,0,2.88-2.14l1.16.5a4.12,4.12,0,0,1-4.1,2.88c-2,0-4.24-1-4.24-4.42,0-2.78,1.48-6.06,5.1-6.06a3.57,3.57,0,0,1,3.9,3.86,5.2,5.2,0,0,1-.28,1.74Zm.14-1.14h6a2.85,2.85,0,0,0,.1-.78,2.34,2.34,0,0,0-2.56-2.58C1127.94,206.86,1126.8,208.32,1126.42,210.22Z"/><path d="M983.31,230h1.47l1.25,7.08c.07.56.14,1,.16,1.48h.06c.18-.46.42-.92.7-1.48l3.74-7.08h1.54l-5.46,10h-1.52Z"/><path d="M1001.27,233.62a5.2,5.2,0,0,1-.28,1.74h-7.34v.36c0,2.46,1.32,3.28,2.92,3.28a2.91,2.91,0,0,0,2.88-2.14l1.16.5a4.12,4.12,0,0,1-4.1,2.88c-2,0-4.24-1-4.24-4.42,0-2.78,1.48-6.06,5.1-6.06A3.57,3.57,0,0,1,1001.27,233.62Zm-1.36-.18a2.34,2.34,0,0,0-2.56-2.58c-2,0-3.18,1.46-3.56,3.36h6A2.85,2.85,0,0,0,999.91,233.44Zm-1.5-5h-1.32l2.48-2.86h1.72Z"/><path d="M1013.31,228.48l-.22,1.26a2.53,2.53,0,0,0-.82-.12,1.51,1.51,0,0,0-1.6,1.26,2.82,2.82,0,0,1,.62,1.9,3.61,3.61,0,0,1-3.9,3.7,4.22,4.22,0,0,1-2-.46c-1,.32-1.28.8-1.28,1.26,0,.72.62.94,1.92,1l1.79.06c1.52,0,3.28.4,3.28,2.46,0,1.56-1,3.36-5.11,3.36-2.1,0-4.34-.5-4.34-2.58,0-1,.56-1.86,2.22-2.38a1.52,1.52,0,0,1-1.06-1.5c0-.86.52-1.6,2-2.1a2.83,2.83,0,0,1-.82-2.12,3.63,3.63,0,0,1,3.92-3.7,4,4,0,0,1,2.17.54,2.55,2.55,0,0,1,2.54-1.9A3.12,3.12,0,0,1,1013.31,228.48Zm-7.53,11a7.87,7.87,0,0,1-1-.08c-1.38.44-1.74,1.14-1.74,1.86,0,1.42,1.5,1.7,3,1.7,2.89,0,3.55-1.14,3.55-2,0-1.22-1-1.4-2-1.42Zm4.19-6.62a2,2,0,0,0-2.26-2,2.35,2.35,0,0,0-2.47,2.52,2,2,0,0,0,2.24,2A2.36,2.36,0,0,0,1010,232.88Z"/><path d="M1022.31,233.62a5.2,5.2,0,0,1-.28,1.74h-7.35v.36c0,2.46,1.32,3.28,2.92,3.28a2.91,2.91,0,0,0,2.89-2.14l1.16.5a4.14,4.14,0,0,1-4.11,2.88c-2,0-4.24-1-4.24-4.42,0-2.78,1.48-6.06,5.1-6.06A3.58,3.58,0,0,1,1022.31,233.62Zm-1.36-.18a2.34,2.34,0,0,0-2.56-2.58c-2,0-3.19,1.46-3.57,3.36h6A2.85,2.85,0,0,0,1021,233.44Zm-1.51-5h-1.32l2.49-2.86h1.72Z"/><path d="M1024.24,230h1.86l.46-2.64,1.52-.6-.58,3.24h2.56l-.19,1.16h-2.56l-1,5.78c-.3,1.66.52,1.92,1.37,1.92a4.84,4.84,0,0,0,.87-.08l-.21,1.24a4.37,4.37,0,0,1-1.15.16c-1.48,0-2.72-.86-2.26-3.44l1-5.58H1024Z"/><path d="M1030.4,237.4a2.69,2.69,0,0,1,.92-2.08,5.58,5.58,0,0,1,3.38-1.12l3.07-.24.06-.34c.27-1.88-.35-2.7-2.06-2.7s-2.63.72-2.89,2.2h-1.42c.3-2.22,1.88-3.36,4.2-3.36,2.83,0,4,1.32,3.51,4.32l-.44,2.48a18.57,18.57,0,0,0-.28,3.44H1037a15.69,15.69,0,0,1,.19-2,3.75,3.75,0,0,1-3.57,2.24C1031.74,240.24,1030.4,239.22,1030.4,237.4Zm7.08-1.76.12-.68-2.64.2c-2.22.18-3,1-3,2.18s.9,1.74,2,1.74C1035.73,239.08,1037.1,237.7,1037.48,235.64Z"/><path d="M1043.15,240h-1.39l2.56-14.5h1.39Z"/><path d="M1048.8,230h1.39l-1.77,10H1047Zm.54-4h1.6l-.4,2.2H1049Z"/><path d="M1051.76,237.12l1.4-.22c.18,1.62,1.34,2.18,2.76,2.18,1.85,0,2.35-1,2.35-1.86s-.5-1.28-1.5-1.5l-1.75-.4a2.51,2.51,0,0,1-2.24-2.54c0-1.64,1.3-3,3.72-3,1.93,0,3.89.82,3.93,2.8l-1.37.3c-.08-1.44-1.29-2-2.64-2-1.6,0-2.24.78-2.24,1.76s.44,1.26,1.58,1.52l1.67.38c1.72.4,2.28,1.32,2.28,2.6,0,1.62-1.27,3.08-3.91,3.08C1053.9,240.24,1052,239.46,1051.76,237.12Z"/><path d="M1071.07,233.62a5.2,5.2,0,0,1-.28,1.74h-7.35v.36c0,2.46,1.32,3.28,2.92,3.28a2.92,2.92,0,0,0,2.89-2.14l1.16.5a4.14,4.14,0,0,1-4.11,2.88c-2,0-4.24-1-4.24-4.42,0-2.78,1.48-6.06,5.1-6.06A3.58,3.58,0,0,1,1071.07,233.62Zm-1.36-.18a2.34,2.34,0,0,0-2.56-2.58c-2.05,0-3.19,1.46-3.57,3.36h6A2.48,2.48,0,0,0,1069.71,233.44Zm-1.51-5h-1.32l2.49-2.86h1.72Z"/><path d="M1079.58,235.36v.36c0,2.46,1.32,3.28,2.92,3.28a2.93,2.93,0,0,0,2.89-2.14l1.16.5a4.14,4.14,0,0,1-4.11,2.88c-2,0-4.24-1-4.24-4.42,0-2.78,1.48-6.06,5.1-6.06a3.58,3.58,0,0,1,3.91,3.86,5.2,5.2,0,0,1-.28,1.74Zm.14-1.14h6a2.48,2.48,0,0,0,.11-.78,2.34,2.34,0,0,0-2.57-2.58C1081.24,230.86,1080.1,232.32,1079.72,234.22Z"/><path d="M1089.14,230H1091l.46-2.64,1.52-.6-.58,3.24H1095l-.2,1.16h-2.56l-1,5.78c-.3,1.66.52,1.92,1.36,1.92a4.94,4.94,0,0,0,.88-.08l-.22,1.24a4.24,4.24,0,0,1-1.14.16c-1.48,0-2.72-.86-2.26-3.44l1-5.58h-1.86Z"/><path d="M985,254h1.32l-.4,2.12a3.83,3.83,0,0,1,3.46-2.36c1.68,0,3.66,1,3.66,4.18,0,2.72-1.44,6.3-4.84,6.3a3.22,3.22,0,0,1-3.27-2.12l-1,5.78h-1.39Zm6.54,4c0-2.4-1.34-3-2.52-3-2.14,0-3.2,1.94-3.48,3.58l-.12.66c-.38,2.16.5,3.76,2.5,3.76C990.81,263,991.55,259.76,991.55,258Z"/><path d="M1000.91,253.76a2.9,2.9,0,0,1,.64.06l-.26,1.38a2.07,2.07,0,0,0-.56-.06,2.53,2.53,0,0,0-1.78.6,5.58,5.58,0,0,0-1.72,3.44l-.88,4.82H995l1.76-10h1.32l-.46,2.6C998.21,254.9,999.13,253.76,1000.91,253.76Z"/><path d="M1001.7,259.9c0-2.7,1.32-6.14,5.21-6.14,2.08,0,4.22,1,4.22,4.34,0,2.7-1.32,6.14-5.23,6.14C1003.85,264.24,1001.7,263.22,1001.7,259.9Zm7.93-1.72c0-2.46-1.4-3.2-2.8-3.2-2.87,0-3.63,2.92-3.63,4.84,0,2.46,1.4,3.2,2.81,3.2C1008.87,263,1009.63,260.1,1009.63,258.18Z"/><path d="M1013.1,254H1015l.46-2.64,1.51-.6-.58,3.24h2.57l-.2,1.16h-2.56l-1,5.78c-.3,1.66.51,1.92,1.36,1.92a5,5,0,0,0,.88-.08l-.22,1.24a4.26,4.26,0,0,1-1.15.16c-1.48,0-2.72-.86-2.26-3.44l1-5.58h-1.87Z"/><path d="M1028.39,257.62a5.2,5.2,0,0,1-.28,1.74h-7.35v.36c0,2.46,1.32,3.28,2.93,3.28a2.91,2.91,0,0,0,2.88-2.14l1.16.5a4.13,4.13,0,0,1-4.11,2.88c-2,0-4.24-1-4.24-4.42,0-2.78,1.48-6.06,5.1-6.06A3.58,3.58,0,0,1,1028.39,257.62Zm-1.36-.18a2.34,2.34,0,0,0-2.56-2.58c-2.05,0-3.19,1.46-3.57,3.36h6A2.85,2.85,0,0,0,1027,257.44Zm-1.51-5h-1.32l2.49-2.86h1.72Z"/><path d="M1040.43,252.48l-.22,1.26a2.53,2.53,0,0,0-.82-.12,1.51,1.51,0,0,0-1.6,1.26,2.82,2.82,0,0,1,.62,1.9,3.61,3.61,0,0,1-3.9,3.7,4.22,4.22,0,0,1-2-.46c-1,.32-1.28.8-1.28,1.26,0,.72.62.94,1.92,1l1.79.06c1.52,0,3.28.4,3.28,2.46,0,1.56-1,3.36-5.11,3.36-2.1,0-4.34-.5-4.34-2.58,0-1,.56-1.86,2.22-2.38a1.52,1.52,0,0,1-1.06-1.5c0-.86.52-1.6,2-2.1a2.83,2.83,0,0,1-.82-2.12,3.63,3.63,0,0,1,3.92-3.7,4,4,0,0,1,2.17.54,2.55,2.55,0,0,1,2.54-1.9A3.12,3.12,0,0,1,1040.43,252.48Zm-7.53,11a7.87,7.87,0,0,1-1-.08c-1.38.44-1.74,1.14-1.74,1.86,0,1.42,1.5,1.7,3,1.7,2.89,0,3.55-1.14,3.55-2,0-1.22-1-1.4-2-1.42Zm4.19-6.62a2,2,0,0,0-2.26-2,2.35,2.35,0,0,0-2.47,2.52,2,2,0,0,0,2.24,2A2.36,2.36,0,0,0,1037.09,256.88Z"/><path d="M1049.43,257.62a5.2,5.2,0,0,1-.28,1.74h-7.35v.36c0,2.46,1.32,3.28,2.93,3.28a2.91,2.91,0,0,0,2.88-2.14l1.16.5a4.13,4.13,0,0,1-4.11,2.88c-2,0-4.24-1-4.24-4.42,0-2.78,1.48-6.06,5.1-6.06A3.58,3.58,0,0,1,1049.43,257.62Zm-1.36-.18a2.34,2.34,0,0,0-2.56-2.58c-2,0-3.19,1.46-3.57,3.36h6A2.85,2.85,0,0,0,1048.07,257.44Zm-1.51-5h-1.31l2.48-2.86h1.72Z"/><path d="M1058.42,254h1.32l-.4,2.12a3.83,3.83,0,0,1,3.47-2.36c1.68,0,3.66,1,3.66,4.18,0,2.72-1.44,6.3-4.85,6.3a3.2,3.2,0,0,1-3.26-2.12l-1,5.78H1056Zm6.55,4c0-2.4-1.34-3-2.53-3-2.14,0-3.2,1.94-3.48,3.58l-.12.66c-.38,2.16.5,3.76,2.51,3.76C1064.23,263,1065,259.76,1065,258Z"/><path d="M1068.3,259.9c0-2.7,1.32-6.14,5.2-6.14,2.08,0,4.23,1,4.23,4.34,0,2.7-1.33,6.14-5.23,6.14C1070.44,264.24,1068.3,263.22,1068.3,259.9Zm7.93-1.72c0-2.46-1.41-3.2-2.81-3.2-2.86,0-3.62,2.92-3.62,4.84,0,2.46,1.4,3.2,2.8,3.2C1075.46,263,1076.23,260.1,1076.23,258.18Z"/><path d="M1080,261.16a10,10,0,0,1,.12-1.46l1-5.7h1.38l-1,5.76a6,6,0,0,0-.12,1.14,1.94,1.94,0,0,0,2.18,2.1c2.2,0,2.94-2.14,3.22-3.74l.92-5.26h1.43l-1.79,10H1086l.4-2.2a3.43,3.43,0,0,1-3.36,2.44A2.8,2.8,0,0,1,1080,261.16Z"/><path d="M1097.12,253.76a2.9,2.9,0,0,1,.64.06l-.26,1.38a2.07,2.07,0,0,0-.56-.06,2.53,2.53,0,0,0-1.78.6,5.58,5.58,0,0,0-1.72,3.44l-.88,4.82h-1.38l1.76-10h1.32l-.46,2.6C1094.42,254.9,1095.34,253.76,1097.12,253.76Z"/><path d="M1105.1,264h-1.38l2.56-14.5h1.38Z"/><path d="M1110.3,259.36v.36c0,2.46,1.32,3.28,2.92,3.28a2.91,2.91,0,0,0,2.88-2.14l1.17.5a4.14,4.14,0,0,1-4.11,2.88c-2,0-4.24-1-4.24-4.42,0-2.78,1.48-6.06,5.1-6.06a3.58,3.58,0,0,1,3.91,3.86,5.2,5.2,0,0,1-.28,1.74Zm.14-1.14h6a2.85,2.85,0,0,0,.1-.78,2.34,2.34,0,0,0-2.56-2.58C1112,254.86,1110.82,256.32,1110.44,258.22Z"/><path d="M990.15,286a3.52,3.52,0,0,1-3.36,2.22c-1.81,0-3.69-1.06-3.69-4.22,0-2.68,1.37-6.26,4.93-6.26a3.21,3.21,0,0,1,3.26,2.16l.64-1.92h1l-2.46,13.9h-1.4Zm.44-2.4.1-.48c.54-2.82-.84-4.14-2.6-4.14-2.65,0-3.49,3-3.49,4.92,0,2.58,1.46,3.08,2.59,3.08C989.17,287,990.25,285.4,990.59,283.62Z"/><path d="M995.32,285.16a10,10,0,0,1,.12-1.46l1-5.7h1.38l-1,5.76a6,6,0,0,0-.12,1.14,2,2,0,0,0,2.19,2.1c2.2,0,2.94-2.14,3.22-3.74L1003,278h1.42l-1.78,10h-1.32l.4-2.2a3.43,3.43,0,0,1-3.36,2.44A2.81,2.81,0,0,1,995.32,285.16Z"/><path d="M1006.08,285.4a2.69,2.69,0,0,1,.92-2.08,5.62,5.62,0,0,1,3.39-1.12l3.06-.24.06-.34c.28-1.88-.34-2.7-2.06-2.7s-2.63.72-2.89,2.2h-1.41c.29-2.22,1.87-3.36,4.2-3.36,2.82,0,4,1.32,3.5,4.32l-.44,2.48a18.57,18.57,0,0,0-.28,3.44h-1.46a14,14,0,0,1,.18-2,3.74,3.74,0,0,1-3.56,2.24C1007.42,288.24,1006.08,287.22,1006.08,285.4Zm7.09-1.76.12-.68-2.64.2c-2.22.18-3,1-3,2.18s.91,1.74,2,1.74C1011.41,287.08,1012.79,285.7,1013.17,283.64Z"/><path d="M1023.29,277.76a2.9,2.9,0,0,1,.64.06l-.26,1.38a2.07,2.07,0,0,0-.56-.06,2.53,2.53,0,0,0-1.78.6,5.63,5.63,0,0,0-1.73,3.44l-.87,4.82h-1.38l1.75-10h1.33l-.46,2.6C1020.59,278.9,1021.51,277.76,1023.29,277.76Z"/><path d="M1025.34,278h1.87l.46-2.64,1.52-.6-.59,3.24h2.57l-.2,1.16h-2.56l-1,5.78c-.3,1.66.51,1.92,1.36,1.92a4.94,4.94,0,0,0,.88-.08l-.22,1.24a4.24,4.24,0,0,1-1.14.16c-1.49,0-2.73-.86-2.27-3.44l1-5.58h-1.86Z"/><path d="M1033.82,278h1.39l-1.77,10h-1.38Zm.54-4H1036l-.41,2.2H1034Z"/><path d="M1038.54,283.36v.36c0,2.46,1.32,3.28,2.93,3.28a2.91,2.91,0,0,0,2.88-2.14l1.16.5a4.13,4.13,0,0,1-4.11,2.88c-2,0-4.24-1-4.24-4.42,0-2.78,1.49-6.06,5.11-6.06a3.57,3.57,0,0,1,3.9,3.86,5.2,5.2,0,0,1-.28,1.74Zm.15-1.14h6a2.85,2.85,0,0,0,.1-.78,2.34,2.34,0,0,0-2.56-2.58C1040.2,278.86,1039.06,280.32,1038.69,282.22Z"/><path d="M1054,277.76a2.9,2.9,0,0,1,.64.06l-.26,1.38a2.07,2.07,0,0,0-.56-.06,2.56,2.56,0,0,0-1.79.6,5.58,5.58,0,0,0-1.72,3.44l-.88,4.82h-1.38l1.76-10h1.32l-.46,2.6C1051.32,278.9,1052.24,277.76,1054,277.76Z"/><path d="M987.21,372.72a3,3,0,0,1-2.62,1.06h-.65l.22-1.32h.44a3.29,3.29,0,0,0,3.29-2.36h1.24L986.69,384h-1.48Z"/><path d="M996,381.4a2.69,2.69,0,0,1,.92-2.08,5.59,5.59,0,0,1,3.39-1.12l3.06-.24.06-.34c.28-1.88-.34-2.7-2.06-2.7s-2.63.72-2.89,2.2h-1.42c.3-2.22,1.88-3.36,4.21-3.36,2.82,0,4,1.32,3.5,4.32l-.44,2.48a18.57,18.57,0,0,0-.28,3.44h-1.46a14,14,0,0,1,.18-2,3.74,3.74,0,0,1-3.56,2.24C997.34,384.24,996,383.22,996,381.4Zm7.09-1.76.12-.68-2.65.2c-2.21.18-3,1-3,2.18s.91,1.74,2,1.74C1001.33,383.08,1002.71,381.7,1003.09,379.64Z"/><path d="M1009,374h1.39l-1.76,10h-1.38Zm.54-4h1.61l-.4,2.2h-1.58Z"/><path d="M1018.39,373.76a2.9,2.9,0,0,1,.64.06l-.26,1.38a2.07,2.07,0,0,0-.56-.06,2.53,2.53,0,0,0-1.78.6,5.53,5.53,0,0,0-1.73,3.44l-.88,4.82h-1.38l1.76-10h1.32l-.46,2.6C1015.69,374.9,1016.6,373.76,1018.39,373.76Z"/><path d="M1020.56,379.36v.36c0,2.46,1.33,3.28,2.93,3.28a2.91,2.91,0,0,0,2.88-2.14l1.16.5a4.12,4.12,0,0,1-4.1,2.88c-2,0-4.24-1-4.24-4.42,0-2.78,1.48-6.06,5.1-6.06a3.57,3.57,0,0,1,3.9,3.86,5.2,5.2,0,0,1-.28,1.74Zm.15-1.14h6a2.85,2.85,0,0,0,.1-.78,2.34,2.34,0,0,0-2.56-2.58C1022.23,374.86,1021.09,376.32,1020.71,378.22Z"/><path d="M983.1,404c0-2.68,1.38-6.26,4.89-6.26a3.13,3.13,0,0,1,3.22,2.26l1.12-6.52h1.4L991.17,408h-1.32l.34-1.94a3.82,3.82,0,0,1-3.46,2.18C985.05,408.24,983.1,407.18,983.1,404Zm7.49-.4.1-.48c.54-2.82-.84-4.14-2.6-4.14-2.65,0-3.49,3-3.49,4.92,0,2.58,1.46,3.08,2.59,3.08C989.17,407,990.25,405.4,990.59,403.62Z"/><path d="M996.32,398a2,2,0,0,0,1.39-1.8l0-.12h-1l.4-2.24H999l-.38,2.12c-.34,1.88-1.17,2.48-2.06,2.76Z"/><path d="M1001.6,398H1003l-1.76,10h-1.38Zm.55-4h1.6l-.4,2.2h-1.58Z"/><path d="M1006.78,398h1.32l-.33,1.94a3.12,3.12,0,0,1,3-2.18,2.39,2.39,0,0,1,2.62,2.22,3.41,3.41,0,0,1,3.2-2.22,2.71,2.71,0,0,1,2.92,3,6.55,6.55,0,0,1-.12,1.18l-1.1,6.08h-1.4l1.08-6a4.35,4.35,0,0,0,.1-1c0-1.64-1-2.06-1.88-2.06-1.9,0-2.58,1.8-2.86,3.44l-1,5.56H1011l1.08-6a6.21,6.21,0,0,0,.08-1c0-1.66-1-2-1.84-2-2,0-2.64,1.88-2.95,3.52l-1,5.48H1005Z"/><path d="M1023.6,398h1.33l-.41,2.12a3.84,3.84,0,0,1,3.47-2.36c1.68,0,3.66,1,3.66,4.18,0,2.72-1.44,6.3-4.84,6.3a3.2,3.2,0,0,1-3.27-2.12l-1,5.78h-1.38Zm6.55,4c0-2.4-1.34-3-2.52-3-2.15,0-3.2,1.94-3.48,3.58l-.13.66c-.37,2.16.5,3.76,2.51,3.76C1029.41,407,1030.15,403.76,1030.15,402Z"/><path d="M1035,408h-1.38l2.56-14.5h1.38Z"/><path d="M1038.54,405.4a2.69,2.69,0,0,1,.92-2.08,5.58,5.58,0,0,1,3.38-1.12l3.06-.24.07-.34c.28-1.88-.35-2.7-2.07-2.7s-2.62.72-2.88,2.2h-1.42c.3-2.22,1.88-3.36,4.2-3.36,2.83,0,4,1.32,3.51,4.32l-.44,2.48a18.57,18.57,0,0,0-.28,3.44h-1.47a15.69,15.69,0,0,1,.19-2,3.76,3.76,0,0,1-3.57,2.24C1039.88,408.24,1038.54,407.22,1038.54,405.4Zm7.08-1.76.12-.68-2.64.2c-2.22.18-3,1-3,2.18s.9,1.74,2,1.74C1043.86,407.08,1045.24,405.7,1045.62,403.64Z"/><path d="M1051.56,398h1.32l-.38,2.16a3.56,3.56,0,0,1,3.47-2.4c1.4,0,3.08.6,3.08,3.2a8.51,8.51,0,0,1-.12,1.34l-1,5.7h-1.4l1-5.76a6.5,6.5,0,0,0,.1-1,2,2,0,0,0-2.2-2.22c-2.31,0-3.07,2.14-3.35,3.74l-.94,5.26h-1.38Z"/><path d="M1061.52,398h1.86l.46-2.64,1.52-.6-.58,3.24h2.56l-.19,1.16h-2.57l-1,5.78c-.3,1.66.52,1.92,1.36,1.92a4.94,4.94,0,0,0,.88-.08l-.22,1.24a4.24,4.24,0,0,1-1.14.16c-1.48,0-2.72-.86-2.26-3.44l1-5.58h-1.86Z"/><path d="M1067.68,405.4a2.69,2.69,0,0,1,.92-2.08,5.58,5.58,0,0,1,3.38-1.12L1075,402l.06-.34c.28-1.88-.34-2.7-2.06-2.7s-2.62.72-2.88,2.2h-1.42c.3-2.22,1.88-3.36,4.2-3.36,2.83,0,4,1.32,3.5,4.32l-.43,2.48a17.73,17.73,0,0,0-.28,3.44h-1.47a14,14,0,0,1,.18-2,3.74,3.74,0,0,1-3.56,2.24C1069,408.24,1067.68,407.22,1067.68,405.4Zm7.08-1.76.12-.68-2.64.2c-2.22.18-3,1-3,2.18s.9,1.74,2,1.74C1073,407.08,1074.38,405.7,1074.76,403.64Z"/><path d="M1078.88,398h1.86l.46-2.64,1.52-.6-.58,3.24h2.56l-.19,1.16h-2.57l-1,5.78c-.3,1.66.52,1.92,1.36,1.92a4.94,4.94,0,0,0,.88-.08l-.22,1.24a4.24,4.24,0,0,1-1.14.16c-1.48,0-2.72-.86-2.26-3.44l1-5.58h-1.86Z"/><path d="M1087.36,398h1.38L1087,408h-1.38Zm.54-4h1.6l-.4,2.2h-1.58Z"/><path d="M1090.7,403.9c0-2.7,1.32-6.14,5.2-6.14,2.08,0,4.23,1,4.23,4.34,0,2.7-1.32,6.14-5.23,6.14C1092.84,408.24,1090.7,407.22,1090.7,403.9Zm7.93-1.72c0-2.46-1.4-3.2-2.81-3.2-2.86,0-3.62,2.92-3.62,4.84,0,2.46,1.4,3.2,2.8,3.2C1097.86,407,1098.63,404.1,1098.63,402.18Z"/><path d="M1103.84,398h1.32l-.38,2.16a3.56,3.56,0,0,1,3.46-2.4c1.41,0,3.08.6,3.08,3.2a8.41,8.41,0,0,1-.11,1.34l-1,5.7h-1.41l1-5.76a7.84,7.84,0,0,0,.09-1,2,2,0,0,0-2.2-2.22c-2.3,0-3.06,2.14-3.34,3.74l-.94,5.26h-1.38Z"/><path d="M415.87,201.8l-1.56,8.82c-.53,3,.82,4.34,3.36,4.34,2.9,0,3.74-1.8,4.14-4.1l1.6-9.06H425l-1.7,9.58c-.48,2.66-1.88,5-5.7,5-3.6,0-5.49-2-4.79-5.9l1.54-8.64Z"/><path d="M427.9,206h1.33l-.38,2.16a3.56,3.56,0,0,1,3.46-2.4c1.4,0,3.08.6,3.08,3.2a8.51,8.51,0,0,1-.12,1.34l-1,5.7h-1.4l1-5.76a6.5,6.5,0,0,0,.1-1,2,2,0,0,0-2.2-2.22c-2.3,0-3.06,2.14-3.34,3.74l-1,5.26h-1.37Z"/><path d="M439.06,211.36v.36c0,2.46,1.32,3.28,2.92,3.28a2.92,2.92,0,0,0,2.89-2.14l1.16.5a4.14,4.14,0,0,1-4.11,2.88c-2,0-4.24-1-4.24-4.42,0-2.78,1.48-6.06,5.1-6.06a3.58,3.58,0,0,1,3.91,3.86,5.2,5.2,0,0,1-.28,1.74Zm.14-1.14h6a2.85,2.85,0,0,0,.1-.78,2.34,2.34,0,0,0-2.56-2.58C440.72,206.86,439.58,208.32,439.2,210.22Z"/><path d="M455.66,206h1.39l-1.77,10H453.9Zm.54-4h1.61l-.41,2.2h-1.58Z"/><path d="M460.84,206h1.32l-.34,1.94a3.13,3.13,0,0,1,3.05-2.18,2.39,2.39,0,0,1,2.62,2.22,3.41,3.41,0,0,1,3.2-2.22,2.71,2.71,0,0,1,2.92,3,6.55,6.55,0,0,1-.12,1.18l-1.1,6.08H471l1.08-6a4.35,4.35,0,0,0,.1-1c0-1.64-1-2.06-1.88-2.06-1.9,0-2.58,1.8-2.86,3.44l-1,5.56h-1.38l1.08-6a6.21,6.21,0,0,0,.08-1c0-1.66-1-2-1.84-2-2,0-2.64,1.88-2.95,3.52l-1,5.48h-1.38Z"/><path d="M477.66,206H479l-.4,2.12a3.84,3.84,0,0,1,3.47-2.36c1.68,0,3.66,1,3.66,4.18,0,2.72-1.44,6.3-4.85,6.3a3.2,3.2,0,0,1-3.26-2.12l-1,5.78H475.2Zm6.55,4c0-2.4-1.34-3-2.52-3-2.15,0-3.21,1.94-3.49,3.58l-.12.66c-.38,2.16.5,3.76,2.51,3.76C483.47,215,484.21,211.76,484.21,210Z"/><path d="M489.1,216h-1.38l2.56-14.5h1.38Z"/><path d="M492.6,213.4a2.69,2.69,0,0,1,.92-2.08,5.58,5.58,0,0,1,3.38-1.12L500,210l.06-.34c.28-1.88-.34-2.7-2.06-2.7s-2.62.72-2.88,2.2h-1.42c.3-2.22,1.88-3.36,4.2-3.36,2.83,0,4,1.32,3.5,4.32l-.43,2.48a17,17,0,0,0-.28,3.44h-1.47a14,14,0,0,1,.18-2,3.74,3.74,0,0,1-3.56,2.24C493.94,216.24,492.6,215.22,492.6,213.4Zm7.08-1.76.12-.68-2.64.2c-2.22.18-3,1-3,2.18s.9,1.74,2,1.74C497.92,215.08,499.3,213.7,499.68,211.64Z"/><path d="M505.62,206h1.32l-.38,2.16a3.56,3.56,0,0,1,3.46-2.4c1.41,0,3.08.6,3.08,3.2a8.41,8.41,0,0,1-.11,1.34l-1,5.7H510.6l1-5.76a6.5,6.5,0,0,0,.1-1,2,2,0,0,0-2.21-2.22c-2.3,0-3.06,2.14-3.34,3.74l-.94,5.26h-1.38Z"/><path d="M515.56,206h1.86l.46-2.64,1.52-.6-.58,3.24h2.56l-.19,1.16h-2.57l-1,5.78c-.3,1.66.52,1.92,1.36,1.92a4.94,4.94,0,0,0,.88-.08l-.22,1.24a4.24,4.24,0,0,1-1.14.16c-1.48,0-2.72-.86-2.26-3.44l1-5.58h-1.86Z"/><path d="M521.72,213.4a2.69,2.69,0,0,1,.92-2.08A5.58,5.58,0,0,1,526,210.2l3.06-.24.07-.34c.28-1.88-.35-2.7-2.07-2.7s-2.62.72-2.88,2.2h-1.42c.3-2.22,1.88-3.36,4.2-3.36,2.83,0,4,1.32,3.5,4.32l-.43,2.48a17.73,17.73,0,0,0-.28,3.44H528.3a14,14,0,0,1,.18-2,3.74,3.74,0,0,1-3.56,2.24C523.06,216.24,521.72,215.22,521.72,213.4Zm7.08-1.76.12-.68-2.64.2c-2.22.18-3,1-3,2.18s.9,1.74,2,1.74C527,215.08,528.42,213.7,528.8,211.64Z"/><path d="M532.92,206h1.86l.46-2.64,1.52-.6-.58,3.24h2.56l-.2,1.16H536l-1,5.78c-.3,1.66.52,1.92,1.36,1.92a4.94,4.94,0,0,0,.88-.08L537,216a4.24,4.24,0,0,1-1.14.16c-1.48,0-2.72-.86-2.26-3.44l1-5.58h-1.86Z"/><path d="M541.4,206h1.38L541,216h-1.38Zm.54-4h1.6l-.4,2.2h-1.58Z"/><path d="M544.74,211.9c0-2.7,1.32-6.14,5.2-6.14,2.08,0,4.22,1,4.22,4.34,0,2.7-1.32,6.14-5.22,6.14C546.88,216.24,544.74,215.22,544.74,211.9Zm7.92-1.72c0-2.46-1.4-3.2-2.8-3.2-2.86,0-3.62,2.92-3.62,4.84,0,2.46,1.4,3.2,2.8,3.2C551.9,215,552.66,212.1,552.66,210.18Z"/><path d="M557.88,206h1.32l-.38,2.16a3.56,3.56,0,0,1,3.46-2.4c1.4,0,3.08.6,3.08,3.2a8.51,8.51,0,0,1-.12,1.34l-1,5.7h-1.4l1-5.76a6.5,6.5,0,0,0,.1-1,2,2,0,0,0-2.2-2.22c-2.3,0-3.06,2.14-3.34,3.74L557.5,216h-1.38Z"/><path d="M413.39,240H412l2.56-14.5H416Z"/><path d="M419,230h1.39l-1.77,10h-1.38Zm.54-4h1.61l-.41,2.2H419.2Z"/><path d="M424.22,230h1.32l-.38,2.16a3.56,3.56,0,0,1,3.47-2.4c1.4,0,3.08.6,3.08,3.2a8.51,8.51,0,0,1-.12,1.34l-1,5.7h-1.4l1-5.76a6.5,6.5,0,0,0,.1-1,2,2,0,0,0-2.2-2.22c-2.31,0-3.07,2.14-3.35,3.74l-.94,5.26h-1.38Z"/><path d="M443,233.62a5.2,5.2,0,0,1-.28,1.74h-7.35v.36c0,2.46,1.32,3.28,2.93,3.28a2.91,2.91,0,0,0,2.88-2.14l1.16.5a4.13,4.13,0,0,1-4.11,2.88c-2,0-4.24-1-4.24-4.42,0-2.78,1.48-6.06,5.1-6.06A3.58,3.58,0,0,1,443,233.62Zm-1.36-.18a2.34,2.34,0,0,0-2.56-2.58c-2,0-3.19,1.46-3.57,3.36h6A2.85,2.85,0,0,0,441.65,233.44Zm-1.5-5h-1.32l2.48-2.86H443Z"/><path d="M444.46,237.4a2.69,2.69,0,0,1,.92-2.08,5.58,5.58,0,0,1,3.38-1.12l3.06-.24.07-.34c.28-1.88-.35-2.7-2.07-2.7s-2.62.72-2.88,2.2h-1.42c.3-2.22,1.88-3.36,4.2-3.36,2.83,0,4,1.32,3.51,4.32l-.44,2.48a17.73,17.73,0,0,0-.28,3.44H451a12.74,12.74,0,0,1,.19-2,3.76,3.76,0,0,1-3.57,2.24C445.8,240.24,444.46,239.22,444.46,237.4Zm7.08-1.76.12-.68-2.64.2c-2.22.18-3,1-3,2.18s.9,1.74,2,1.74C449.78,239.08,451.16,237.7,451.54,235.64Z"/><path d="M457.48,230h1.38l-1.76,10h-1.38Zm.54-4h1.6l-.4,2.2h-1.58Z"/><path d="M466.85,229.76a2.86,2.86,0,0,1,.63.06l-.25,1.38a2.21,2.21,0,0,0-.57-.06,2.53,2.53,0,0,0-1.78.6,5.58,5.58,0,0,0-1.72,3.44l-.88,4.82H460.9l1.76-10H464l-.46,2.6C464.14,230.9,465.06,229.76,466.85,229.76Z"/><path d="M469,235.36v.36c0,2.46,1.32,3.28,2.92,3.28a2.92,2.92,0,0,0,2.89-2.14l1.16.5a4.14,4.14,0,0,1-4.11,2.88c-2,0-4.24-1-4.24-4.42,0-2.78,1.48-6.06,5.1-6.06a3.58,3.58,0,0,1,3.91,3.86,5.2,5.2,0,0,1-.28,1.74Zm.14-1.14h6a2.85,2.85,0,0,0,.1-.78,2.34,2.34,0,0,0-2.56-2.58C470.68,230.86,469.54,232.32,469.16,234.22Z"/><path d="M490.78,238a3.52,3.52,0,0,1-3.36,2.22c-1.8,0-3.68-1.06-3.68-4.22,0-2.68,1.36-6.26,4.92-6.26a3.22,3.22,0,0,1,3.27,2.16l.63-1.92h1l-2.46,13.9h-1.4Zm.45-2.4.09-.48c.54-2.82-.84-4.14-2.6-4.14-2.64,0-3.48,3-3.48,4.92,0,2.58,1.46,3.08,2.58,3.08C489.81,239,490.89,237.4,491.23,235.62Z"/><path d="M496,237.16a10,10,0,0,1,.12-1.46l1-5.7h1.38l-1,5.76a6,6,0,0,0-.12,1.14,1.94,1.94,0,0,0,2.18,2.1c2.2,0,2.94-2.14,3.22-3.74l.92-5.26h1.43l-1.78,10H502l.4-2.2a3.43,3.43,0,0,1-3.36,2.44A2.8,2.8,0,0,1,496,237.16Z"/><path d="M508.88,230h1.38l-1.76,10h-1.38Zm.54-4H511l-.4,2.2H509Z"/><path d="M411.44,261.12l1.4-.22c.18,1.62,1.35,2.18,2.76,2.18,1.85,0,2.35-1,2.35-1.86s-.5-1.28-1.5-1.5l-1.74-.4a2.51,2.51,0,0,1-2.25-2.54c0-1.64,1.31-3,3.73-3,1.92,0,3.88.82,3.92,2.8l-1.36.3c-.08-1.44-1.3-2-2.65-2-1.59,0-2.24.78-2.24,1.76s.45,1.26,1.58,1.52l1.67.38c1.72.4,2.28,1.32,2.28,2.6,0,1.62-1.26,3.08-3.91,3.08C413.58,264.24,411.64,263.46,411.44,261.12Z"/><path d="M422.54,254a2,2,0,0,0,1.39-1.8l0-.12h-1l.41-2.24h1.9l-.39,2.12c-.34,1.88-1.16,2.48-2.05,2.76Z"/><path d="M427.82,254h1.39l-1.77,10h-1.38Zm.54-4H430l-.41,2.2H428Z"/><path d="M433,254h1.32l-.38,2.16a3.56,3.56,0,0,1,3.47-2.4c1.4,0,3.08.6,3.08,3.2a8.51,8.51,0,0,1-.12,1.34l-1,5.7H438l1-5.76a6.5,6.5,0,0,0,.1-1,2,2,0,0,0-2.2-2.22c-2.31,0-3.06,2.14-3.35,3.74l-.94,5.26h-1.38Z"/><path d="M442.4,261.12l1.4-.22c.18,1.62,1.34,2.18,2.76,2.18,1.84,0,2.34-1,2.34-1.86s-.5-1.28-1.5-1.5l-1.74-.4a2.51,2.51,0,0,1-2.24-2.54c0-1.64,1.3-3,3.72-3,1.92,0,3.88.82,3.92,2.8l-1.36.3c-.08-1.44-1.3-2-2.64-2-1.6,0-2.24.78-2.24,1.76s.44,1.26,1.58,1.52l1.66.38c1.72.4,2.29,1.32,2.29,2.6,0,1.62-1.27,3.08-3.91,3.08C444.54,264.24,442.6,263.46,442.4,261.12Z"/><path d="M452.7,259.84c0-2.64,1.34-6.08,5.14-6.08,2.14,0,3.89,1.1,3.85,3.62l-1.34.16a2.34,2.34,0,0,0-2.53-2.56c-2.8,0-3.62,2.86-3.62,4.86,0,2.42,1.38,3.18,2.72,3.18a2.91,2.91,0,0,0,2.89-2.56l1.36.2a4.17,4.17,0,0,1-4.31,3.58C454.84,264.24,452.7,263.2,452.7,259.84Z"/><path d="M469.39,253.76a2.86,2.86,0,0,1,.63.06l-.25,1.38a2.21,2.21,0,0,0-.57-.06,2.53,2.53,0,0,0-1.78.6,5.58,5.58,0,0,0-1.72,3.44l-.88,4.82h-1.38l1.76-10h1.32l-.46,2.6C466.68,254.9,467.6,253.76,469.39,253.76Z"/><path d="M472.34,254h1.38L472,264h-1.38Zm.54-4h1.6l-.4,2.2H472.5Z"/><path d="M476,254h1.86l.46-2.64,1.52-.6L479.3,254h2.56l-.2,1.16H479.1l-1,5.78c-.3,1.66.52,1.92,1.36,1.92a4.94,4.94,0,0,0,.88-.08L480.1,264a4.24,4.24,0,0,1-1.14.16c-1.48,0-2.72-.86-2.26-3.44l1-5.58h-1.86Z"/><path d="M487.94,260c0-2.68,1.38-6.26,4.88-6.26A3.13,3.13,0,0,1,496,256l1.12-6.52h1.4L496,264h-1.32l.34-1.94a3.82,3.82,0,0,1-3.46,2.18C489.88,264.24,487.94,263.18,487.94,260Zm7.48-.4.1-.48c.54-2.82-.84-4.14-2.6-4.14-2.64,0-3.48,3-3.48,4.92,0,2.58,1.46,3.08,2.58,3.08C494,263,495.08,261.4,495.42,259.62Z"/><path d="M499.5,261.4a2.69,2.69,0,0,1,.92-2.08,5.58,5.58,0,0,1,3.38-1.12l3.06-.24.06-.34c.28-1.88-.34-2.7-2.06-2.7s-2.62.72-2.88,2.2h-1.42c.3-2.22,1.88-3.36,4.2-3.36,2.82,0,4,1.32,3.5,4.32l-.44,2.48a18.57,18.57,0,0,0-.28,3.44h-1.46a14,14,0,0,1,.18-2,3.74,3.74,0,0,1-3.56,2.24C500.84,264.24,499.5,263.22,499.5,261.4Zm7.08-1.76.12-.68-2.64.2c-2.22.18-3,1-3,2.18s.9,1.74,2,1.74C504.82,263.08,506.2,261.7,506.58,259.64Z"/><path d="M512.52,254h1.32l-.38,2.16a3.56,3.56,0,0,1,3.46-2.4c1.4,0,3.08.6,3.08,3.2a8.41,8.41,0,0,1-.11,1.34l-1,5.7h-1.4l1-5.76a6.5,6.5,0,0,0,.1-1,2,2,0,0,0-2.2-2.22c-2.3,0-3.06,2.14-3.34,3.74l-.94,5.26h-1.38Z"/><path d="M521.92,261.12l1.4-.22c.18,1.62,1.34,2.18,2.76,2.18,1.84,0,2.34-1,2.34-1.86s-.5-1.28-1.5-1.5l-1.74-.4a2.51,2.51,0,0,1-2.24-2.54c0-1.64,1.3-3,3.72-3,1.92,0,3.88.82,3.92,2.8l-1.36.3c-.08-1.44-1.3-2-2.64-2-1.6,0-2.24.78-2.24,1.76s.44,1.26,1.58,1.52l1.66.38c1.72.4,2.28,1.32,2.28,2.6,0,1.62-1.26,3.08-3.9,3.08C524.06,264.24,522.12,263.46,521.92,261.12Z"/><path d="M539.08,264H537.7l2.56-14.5h1.38Z"/><path d="M544.28,259.36v.36c0,2.46,1.32,3.28,2.92,3.28a2.91,2.91,0,0,0,2.88-2.14l1.16.5a4.12,4.12,0,0,1-4.1,2.88c-2,0-4.24-1-4.24-4.42,0-2.78,1.48-6.06,5.1-6.06a3.57,3.57,0,0,1,3.9,3.86,5.2,5.2,0,0,1-.28,1.74Zm.14-1.14h6a2.85,2.85,0,0,0,.1-.78,2.34,2.34,0,0,0-2.56-2.58C545.94,254.86,544.8,256.32,544.42,258.22Z"/><path d="M423.61,277.5c0,2.08-1.32,4.52-5.64,4.52h-3.26l-1.06,6H412.1l2.5-14.2h4.45C421.31,273.8,423.61,274.66,423.61,277.5Zm-1.66.08c0-1.94-1.34-2.46-3-2.46h-3l-1,5.58h2.83C421.21,280.7,422,278.94,422,277.58Z"/><path d="M426.86,273.8h4.05c3.22,0,6.1,1.72,6.1,6.26,0,4.2-2.46,7.94-8.2,7.94h-4.45Zm2,12.88c4.86,0,6.48-3.3,6.48-6.54,0-3.72-2.1-5-4.46-5h-2.68l-2,11.56Z"/><path d="M449.63,289.22a4.36,4.36,0,0,0,1.16-.14l-.22,1.38a5.38,5.38,0,0,1-1.14.12,3.35,3.35,0,0,1-3.48-2.3,8.23,8.23,0,0,1-1,.06c-3,0-6-1.62-6-6.3,0-4,2.06-8.58,7.25-8.58,3,0,6,1.62,6,6.3,0,3.32-1.42,7-4.86,8.2A2.42,2.42,0,0,0,449.63,289.22ZM445,287c4.18,0,5.56-4.06,5.56-7.2,0-3.92-2.2-5-4.32-5-4.18,0-5.56,4.06-5.56,7.2C440.63,285.9,442.83,287,445,287Z"/><path d="M459,284c0-2.68,1.38-6.26,4.89-6.26a3.13,3.13,0,0,1,3.22,2.26l1.12-6.52h1.4L467,288h-1.32l.34-1.94a3.84,3.84,0,0,1-3.47,2.18C460.9,288.24,459,287.18,459,284Zm7.49-.4.1-.48c.54-2.82-.84-4.14-2.61-4.14-2.64,0-3.48,3-3.48,4.92,0,2.58,1.46,3.08,2.59,3.08C465,287,466.11,285.4,466.45,283.62Z"/><path d="M472.22,283.36v.36c0,2.46,1.32,3.28,2.93,3.28a2.91,2.91,0,0,0,2.88-2.14l1.16.5a4.13,4.13,0,0,1-4.11,2.88c-2,0-4.24-1-4.24-4.42,0-2.78,1.48-6.06,5.1-6.06a3.58,3.58,0,0,1,3.91,3.86,5.2,5.2,0,0,1-.28,1.74Zm.14-1.14h6a2.85,2.85,0,0,0,.1-.78,2.34,2.34,0,0,0-2.56-2.58C473.88,278.86,472.74,280.32,472.36,282.22Z"/><path d="M486.14,286.78c1.74-1.1,4.12-2.74,5.59-3.88s3.36-2.8,3.36-5.18a2.41,2.41,0,0,0-2.7-2.64,2.89,2.89,0,0,0-3.09,3.16,5.35,5.35,0,0,0,.06.84l-1.44-.14a3.86,3.86,0,0,1-.08-.84c0-2.3,1.46-4.3,4.66-4.3,2,0,4.15.78,4.15,3.72,0,2.54-1.56,4.3-4,6.24a36.45,36.45,0,0,1-4.22,2.92h6.85L495,288h-9.09Z"/><path d="M497.78,282.64c0-3.48,1.4-8.84,6.33-8.84,2.52,0,4.66,1.38,4.66,5.66,0,3.46-1.38,8.84-6.33,8.84C499.94,288.3,497.78,286.92,497.78,282.64Zm9.51-3.3c0-3.38-1.62-4.3-3.22-4.3-3.73,0-4.79,4.48-4.79,7.72s1.61,4.3,3.23,4.3C506.21,287.06,507.29,282.58,507.29,279.34Z"/><path d="M514.28,276.72a3,3,0,0,1-2.62,1.06H511l.22-1.32h.44A3.29,3.29,0,0,0,515,274.1h1.24L513.76,288h-1.48Z"/><path d="M517.26,286.78c1.74-1.1,4.12-2.74,5.59-3.88s3.36-2.8,3.36-5.18a2.41,2.41,0,0,0-2.7-2.64,2.89,2.89,0,0,0-3.09,3.16,5.35,5.35,0,0,0,.06.84l-1.44-.14a3.86,3.86,0,0,1-.08-.84c0-2.3,1.46-4.3,4.66-4.3,2,0,4.15.78,4.15,3.72,0,2.54-1.56,4.3-4,6.24a37.53,37.53,0,0,1-4.23,2.92h6.85l-.22,1.32H517Z"/><path d="M411.48,356l1.48-.16a3.08,3.08,0,0,0,3.39,3.18c2.5,0,3.2-1.5,3.2-3,0-2.12-1.48-2.72-2.88-2.72h-.84l.22-1.22h1.06c2.28,0,3.12-1.38,3.12-2.78,0-1.9-1.46-2.34-2.72-2.34-2.26,0-3.27,1.36-3.41,3.32l-1.32-.28c.18-2.52,1.81-4.28,4.79-4.28,1.9,0,4.18.74,4.18,3.34a3.56,3.56,0,0,1-3.28,3.64,3.07,3.07,0,0,1,2.6,3.28c0,2.14-1.38,4.24-4.74,4.24C414.31,360.3,411.66,359.54,411.48,356Z"/><path d="M428.28,357.4a2.69,2.69,0,0,1,.92-2.08,5.58,5.58,0,0,1,3.38-1.12l3.07-.24.06-.34c.28-1.88-.35-2.7-2.06-2.7s-2.63.72-2.89,2.2h-1.42c.3-2.22,1.88-3.36,4.2-3.36,2.83,0,4,1.32,3.51,4.32l-.44,2.48a18.57,18.57,0,0,0-.28,3.44h-1.47a15.69,15.69,0,0,1,.19-2,3.76,3.76,0,0,1-3.57,2.24C429.62,360.24,428.28,359.22,428.28,357.4Zm7.08-1.76.12-.68-2.64.2c-2.22.18-3,1-3,2.18s.9,1.74,2,1.74C433.6,359.08,435,357.7,435.36,355.64Z"/><path d="M441.3,350h1.39l-1.77,10h-1.38Zm.54-4h1.6l-.4,2.2h-1.58Z"/><path d="M450.67,349.76a3,3,0,0,1,.64.06l-.26,1.38a2.16,2.16,0,0,0-.57-.06,2.55,2.55,0,0,0-1.78.6,5.58,5.58,0,0,0-1.72,3.44L446.1,360h-1.38l1.76-10h1.32l-.46,2.6C448,350.9,448.88,349.76,450.67,349.76Z"/><path d="M452.84,355.36v.36c0,2.46,1.32,3.28,2.93,3.28a2.91,2.91,0,0,0,2.88-2.14l1.16.5a4.13,4.13,0,0,1-4.11,2.88c-2,0-4.24-1-4.24-4.42,0-2.78,1.48-6.06,5.1-6.06a3.58,3.58,0,0,1,3.91,3.86,5.2,5.2,0,0,1-.28,1.74Zm.14-1.14h6a2.85,2.85,0,0,0,.1-.78,2.34,2.34,0,0,0-2.56-2.58C454.5,350.86,453.36,352.32,453,354.22Z"/><path d="M461.92,357.12l1.4-.22c.18,1.62,1.34,2.18,2.76,2.18,1.85,0,2.35-1,2.35-1.86s-.5-1.28-1.5-1.5l-1.74-.4a2.51,2.51,0,0,1-2.25-2.54c0-1.64,1.3-3,3.72-3,1.93,0,3.89.82,3.93,2.8l-1.36.3c-.08-1.44-1.3-2-2.65-2-1.6,0-2.24.78-2.24,1.76s.44,1.26,1.58,1.52l1.67.38c1.72.4,2.28,1.32,2.28,2.6,0,1.62-1.27,3.08-3.91,3.08C464.06,360.24,462.12,359.46,461.92,357.12Z"/><path d="M411.78,380c0-2.68,1.38-6.26,4.89-6.26a3.13,3.13,0,0,1,3.22,2.26L421,369.5h1.4L419.85,384h-1.32l.34-1.94a3.83,3.83,0,0,1-3.47,2.18C413.73,384.24,411.78,383.18,411.78,380Zm7.49-.4.1-.48c.54-2.82-.84-4.14-2.6-4.14-2.65,0-3.49,3-3.49,4.92,0,2.58,1.46,3.08,2.59,3.08C417.85,383,418.93,381.4,419.27,379.62Z"/><path d="M425,374a2,2,0,0,0,1.39-1.8l0-.12h-1l.41-2.24h1.9l-.39,2.12c-.34,1.88-1.16,2.48-2.05,2.76Z"/><path d="M430.28,374h1.39l-1.77,10h-1.38Zm.54-4h1.61l-.41,2.2h-1.58Z"/><path d="M435.46,374h1.32l-.34,1.94a3.13,3.13,0,0,1,3.05-2.18,2.39,2.39,0,0,1,2.62,2.22,3.41,3.41,0,0,1,3.2-2.22,2.71,2.71,0,0,1,2.92,3,6.55,6.55,0,0,1-.12,1.18L447,384h-1.4l1.08-6a4.35,4.35,0,0,0,.1-1c0-1.64-1-2.06-1.88-2.06-1.9,0-2.58,1.8-2.86,3.44l-1,5.56h-1.38l1.08-6a6.21,6.21,0,0,0,.08-1c0-1.66-1-2-1.84-2-2,0-2.64,1.88-2.95,3.52l-1,5.48H433.7Z"/><path d="M452.28,374h1.32l-.4,2.12a3.84,3.84,0,0,1,3.47-2.36c1.68,0,3.66,1,3.66,4.18,0,2.72-1.44,6.3-4.85,6.3a3.2,3.2,0,0,1-3.26-2.12l-1,5.78h-1.38Zm6.55,4c0-2.4-1.34-3-2.52-3-2.15,0-3.21,1.94-3.49,3.58l-.12.66c-.38,2.16.5,3.76,2.51,3.76C458.09,383,458.83,379.76,458.83,378Z"/><path d="M463.72,384h-1.38l2.56-14.5h1.38Z"/><path d="M467.22,381.4a2.69,2.69,0,0,1,.92-2.08,5.58,5.58,0,0,1,3.38-1.12l3.06-.24.07-.34c.28-1.88-.35-2.7-2.07-2.7s-2.62.72-2.88,2.2h-1.42c.3-2.22,1.88-3.36,4.2-3.36,2.83,0,4,1.32,3.5,4.32l-.43,2.48a17.73,17.73,0,0,0-.28,3.44H473.8a14,14,0,0,1,.18-2,3.74,3.74,0,0,1-3.56,2.24C468.56,384.24,467.22,383.22,467.22,381.4Zm7.08-1.76.12-.68-2.64.2c-2.22.18-3,1-3,2.18s.9,1.74,2,1.74C472.54,383.08,473.92,381.7,474.3,379.64Z"/><path d="M480.24,374h1.32l-.38,2.16a3.56,3.56,0,0,1,3.47-2.4c1.4,0,3.08.6,3.08,3.2a8.51,8.51,0,0,1-.12,1.34l-1,5.7h-1.4l1-5.76a6.5,6.5,0,0,0,.1-1,2,2,0,0,0-2.2-2.22c-2.31,0-3.07,2.14-3.35,3.74l-.94,5.26h-1.38Z"/><path d="M490.18,374H492l.46-2.64,1.52-.6-.58,3.24H496l-.19,1.16h-2.57l-1,5.78c-.3,1.66.52,1.92,1.36,1.92a4.94,4.94,0,0,0,.88-.08l-.22,1.24a4.24,4.24,0,0,1-1.14.16c-1.48,0-2.72-.86-2.26-3.44l1-5.58H490Z"/><path d="M496.34,381.4a2.69,2.69,0,0,1,.92-2.08,5.58,5.58,0,0,1,3.38-1.12l3.06-.24.07-.34c.27-1.88-.35-2.7-2.07-2.7s-2.62.72-2.88,2.2H497.4c.3-2.22,1.88-3.36,4.2-3.36,2.83,0,4,1.32,3.5,4.32l-.43,2.48a17.73,17.73,0,0,0-.28,3.44h-1.47a14,14,0,0,1,.18-2,3.74,3.74,0,0,1-3.56,2.24C497.68,384.24,496.34,383.22,496.34,381.4Zm7.08-1.76.12-.68-2.64.2c-2.22.18-3,1-3,2.18s.9,1.74,2,1.74C501.66,383.08,503,381.7,503.42,379.64Z"/><path d="M507.52,374h1.86l.46-2.64,1.52-.6-.58,3.24h2.56l-.19,1.16h-2.57l-1,5.78c-.3,1.66.52,1.92,1.36,1.92a4.94,4.94,0,0,0,.88-.08l-.22,1.24a4.24,4.24,0,0,1-1.14.16c-1.48,0-2.72-.86-2.26-3.44l1-5.58h-1.86Z"/><path d="M516,374h1.38l-1.76,10h-1.38Zm.54-4h1.6l-.4,2.2h-1.58Z"/><path d="M519.34,379.9c0-2.7,1.32-6.14,5.2-6.14,2.08,0,4.23,1,4.23,4.34,0,2.7-1.33,6.14-5.23,6.14C521.48,384.24,519.34,383.22,519.34,379.9Zm7.93-1.72c0-2.46-1.41-3.2-2.81-3.2-2.86,0-3.62,2.92-3.62,4.84,0,2.46,1.4,3.2,2.8,3.2C526.5,383,527.27,380.1,527.27,378.18Z"/><path d="M532.48,374h1.32l-.38,2.16a3.56,3.56,0,0,1,3.46-2.4c1.4,0,3.08.6,3.08,3.2a8.41,8.41,0,0,1-.11,1.34l-1,5.7h-1.4l1-5.76a6.5,6.5,0,0,0,.1-1,2,2,0,0,0-2.2-2.22c-2.3,0-3.06,2.14-3.34,3.74L532.1,384h-1.38Z"/><g class="cls-7"><g class="cls-8"><image width="2292" height="1279" transform="translate(34.96 500.17) scale(0.24 0.24)" xlink:href="Sans%20titre%20-%2023.png"/></g></g><g class="cls-9"><g class="cls-10"><image width="2292" height="1279" transform="translate(605.58 500.17) scale(0.24 0.24)" xlink:href="Sans%20titre%20-%2024.png"/></g></g><g class="cls-11"><g class="cls-12"><g class="cls-13"><polygon class="cls-14" points="249.73 640.55 439.09 655.71 441.64 647.15 451.74 658.58 434.95 669.71 437.7 660.36 239.53 658.26 234.14 666.03 231.31 648.21 254.21 634.25 249.73 640.55"/></g></g></g><g class="cls-11"><path class="cls-15" d="M936.28,645.16l2.55,5.39L928,653.36c-9.49-4.8-24.65-7.91-41.74-7.91-4.13,0-8.15.19-12,.53l-4.13-5h7.49L863,634.11,855.35,641h8l1.87,6.15c-18.23,3-31,9.93-31,17.93,0,5.56,6.13,10.57,16,14.14L846.14,682l-5.38-5.11-1.7,12.33,16.72.71-4.54-3.54,9.24-4.31a123.66,123.66,0,0,0,25.77,2.58c28.73,0,52-8.78,52-19.62a9.8,9.8,0,0,0-3.18-6.76l6.3-2.36,2.55,4.53L949.32,650Z"/><g class="cls-12"><g class="cls-16"><path class="cls-14" d="M936.28,645.16l2.55,5.39L928,653.36c-9.49-4.8-24.65-7.91-41.74-7.91-4.13,0-8.15.19-12,.53l-4.13-5h7.49L863,634.11,855.35,641h8l1.87,6.15c-18.23,3-31,9.93-31,17.93,0,5.56,6.13,10.57,16,14.14L846.14,682l-5.38-5.11-1.7,12.33,16.72.71-4.54-3.54,9.24-4.31a123.66,123.66,0,0,0,25.77,2.58c28.73,0,52-8.78,52-19.62a9.8,9.8,0,0,0-3.18-6.76l6.3-2.36,2.55,4.53L949.32,650Z"/></g></g><path class="cls-15" d="M295.48,636.94a8.11,8.11,0,1,0-8.11-8.11,8.11,8.11,0,0,0,8.11,8.11"/></g><path class="cls-17" d="M294.83,625.51a2.31,2.31,0,0,1-1.83.82h-.48v-1h.28a2.16,2.16,0,0,0,2.19-1.77h.93V634h-1.09Z"/><g class="cls-11"><path class="cls-18" d="M295.48,636.94a8.11,8.11,0,1,0-8.11-8.11A8.11,8.11,0,0,0,295.48,636.94Z"/><path class="cls-15" d="M963.56,680.92a8.11,8.11,0,1,0-8.11-8.11,8.11,8.11,0,0,0,8.11,8.11"/></g><path class="cls-17" d="M962.92,669.49a2.31,2.31,0,0,1-1.83.82h-.49v-1h.29a2.16,2.16,0,0,0,2.19-1.77H964V678h-1.09Z"/><g class="cls-11"><path class="cls-18" d="M963.56,680.92a8.11,8.11,0,1,0-8.11-8.11A8.11,8.11,0,0,0,963.56,680.92Z"/><path class="cls-15" d="M409.36,651a8.11,8.11,0,1,0-8.11-8.11,8.11,8.11,0,0,0,8.11,8.11"/></g><path class="cls-17" d="M405.32,647.11a35.9,35.9,0,0,0,3.75-3.18,4.6,4.6,0,0,0,1.74-3.43,2.13,2.13,0,0,0-4.25-.12,5.55,5.55,0,0,0,.12,1l-1.11-.11a3.63,3.63,0,0,1-.1-.87c0-1.83,1.24-3,3.31-3a2.86,2.86,0,0,1,3.18,3.1c0,1.43-.69,2.67-2.19,4.11a21.4,21.4,0,0,1-3,2.45h5.33v1h-6.81Z"/><g class="cls-11"><path class="cls-18" d="M409.36,651a8.11,8.11,0,1,0-8.11-8.11A8.11,8.11,0,0,0,409.36,651Z"/><path class="cls-15" d="M325,688.53a8.11,8.11,0,1,0-8.11-8.11,8.11,8.11,0,0,0,8.11,8.11"/></g><path class="cls-17" d="M321.19,683.62l1.08-.12a2.35,2.35,0,0,0,2.57,2.38c1.54,0,2.35-.76,2.35-2.19s-.85-2.07-2.44-2.07h-.66v-.91h.57c1.44,0,2.17-.74,2.17-1.92s-.78-1.92-2.13-1.92-2.29.88-2.29,2.49l-1.05-.21c0-2,1.29-3.21,3.4-3.21s3.18,1,3.18,2.74a2.36,2.36,0,0,1-1.95,2.4,2.43,2.43,0,0,1,2.31,2.58c0,2-1.33,3.15-3.49,3.15S321.25,685.57,321.19,683.62Z"/><g class="cls-11"><path class="cls-18" d="M325,688.53a8.11,8.11,0,1,0-8.11-8.11A8.11,8.11,0,0,0,325,688.53Z"/></g></g></g></svg>